<svg width="28" height="23" viewBox="0 0 28 23" fill="none" xmlns="http://www.w3.org/2000/svg">
<path d="M27.0669 14.0242C27.0669 14.3482 26.8997 14.6667 26.5782 14.8864C26.0187 15.2653 25.2149 15.1829 24.7712 14.7106L13.8714 2.96934L2.97156 14.7051C2.52785 15.1829 1.72403 15.2598 1.16457 14.8809C0.60511 14.5019 0.51508 13.8155 0.95879 13.3377L12.8618 0.520034C13.1061 0.256432 13.4791 0.102662 13.8714 0.102662C14.2636 0.102662 14.6366 0.256432 14.881 0.520034L26.7904 13.3432C26.9769 13.5409 27.0669 13.7825 27.0669 14.0242Z" fill="white"/>
<path d="M27.0669 21.0806C27.0669 21.4046 26.8997 21.7231 26.5782 21.9428C26.0251 22.3162 25.2149 22.2394 24.7712 21.7616L13.8714 10.0258L2.97156 21.7616C2.52785 22.2394 1.72403 22.3162 1.16457 21.9373C0.60511 21.5584 0.51508 20.8719 0.95879 20.3941L12.8618 7.57655C13.1061 7.31295 13.4791 7.15918 13.8714 7.15918C14.2636 7.15918 14.6366 7.31295 14.881 7.57655L26.7904 20.3996C26.9769 20.5973 27.0669 20.839 27.0669 21.0806Z" fill="white"/>
</svg>
