<svg width="169" height="79" viewBox="0 0 169 79" fill="none" xmlns="http://www.w3.org/2000/svg">
<g clip-path="url(#clip0_102_33)">
<path d="M16.2582 35.8425V50.0637H26.3896V38.6705C26.3896 38.6705 26.6813 27.9902 15.8894 27.9902C14.0701 27.9902 4.58545 27.9963 4.58545 27.9963C4.58545 27.9963 16.2582 28.3633 16.2582 35.8425Z" fill="white"/>
<path d="M39.4605 12.8273H29.3291V50.0637H39.4605V12.8273Z" fill="white"/>
<path d="M78.2329 28.0203V42.8403C78.1118 43.6345 77.4044 46.8085 73.8539 46.8085C68.5804 46.8085 69.0538 41.667 69.0538 41.667V28.0203H58.9224V39.0375C58.9224 39.0375 58.105 50.0396 69.1501 50.0396C75.2328 50.0396 77.8201 46.5648 78.2329 45.9451V50.0637H88.3643V28.0203H78.2329Z" fill="white"/>
<path d="M111.602 28.0444C105.473 28.0444 102.894 31.5734 102.511 32.151V28.0203H92.38V50.0637H102.511V35.3039C102.605 34.627 103.249 31.2785 106.899 31.2785C112.172 31.2785 111.699 36.4201 111.699 36.4201V50.0637H121.83V39.0465C121.827 39.0465 122.648 28.0444 111.602 28.0444Z" fill="white"/>
<path d="M10.1314 42.6899C10.1314 50.0637 16.5004 50.0637 16.5004 50.0637H6.81207C6.81207 50.0637 0 50.0637 0 42.6899C0 35.0061 6.89464 35.2859 6.89464 35.2859H16.5802C16.5829 35.2859 10.1314 35.316 10.1314 42.6899Z" fill="white"/>
<path d="M140.662 35.8425V50.0637H150.793V38.6705C150.793 38.6705 151.085 27.9902 140.293 27.9902C138.474 27.9902 128.989 27.9963 128.989 27.9963C128.989 27.9963 140.662 28.3633 140.662 35.8425Z" fill="white"/>
<path d="M134.571 42.6899C134.571 50.0638 140.94 50.0638 140.94 50.0638H131.254C131.254 50.0638 124.442 50.0638 124.442 42.6899C124.442 35.0061 131.337 35.2829 131.337 35.2829H141.022C141.022 35.2859 134.571 35.316 134.571 42.6899Z" fill="white"/>
<path d="M57.3536 27.9783H54.1085V12.1294C54.1085 12.1294 51.8929 27.7346 43.256 27.9783H41.1477V28.8748H43.9771V50.0638H54.1085V28.8748H57.3536V27.9783Z" fill="white"/>
<path d="M145.473 18.4262V14.124H147.042C147.936 14.124 148.297 14.6896 148.302 15.3996C148.308 15.9291 148.063 16.3594 147.584 16.5068L148.451 18.4262H147.617L146.877 16.6752H146.227V18.4262H145.473ZM146.224 16.0074H146.78C147.369 16.0074 147.548 15.8058 147.548 15.3996C147.548 14.9935 147.325 14.7919 146.91 14.7919H146.222V16.0074H146.224Z" fill="white"/>
<path d="M142.897 16.3262C142.897 13.9345 144.669 12 146.855 12C149.043 12 150.813 13.9375 150.815 16.3262C150.815 18.715 149.043 20.6525 146.855 20.6525C144.669 20.6555 142.897 18.718 142.897 16.3262ZM143.477 16.3262C143.48 18.366 144.991 20.0177 146.857 20.0207C148.723 20.0177 150.235 18.366 150.237 16.3262C150.235 14.2865 148.723 12.6378 146.857 12.6318C144.989 12.6378 143.48 14.2865 143.477 16.3262Z" fill="white"/>
<path d="M77.3769 61.5893H79.3751C79.3751 62.0406 79.3201 62.5159 79.2623 62.883H79.2843C79.587 62.0286 80.2228 61.4419 81.2164 61.4419C82.6229 61.4419 83.6495 62.5641 83.6495 64.4564C83.6495 66.5564 82.51 68.0817 80.5228 68.0817C80.11 68.0817 79.7192 68.0215 79.3724 67.8741L79.3503 69.9981H80.2779V71H77.498V69.9981H78.1448L78.1888 62.5881H77.3741V61.5893H77.3769ZM79.4191 66.7399C79.6751 66.9114 80.0659 67.0076 80.5366 67.0076C81.6871 67.0076 82.3339 65.9095 82.3339 64.664C82.3339 63.4787 81.866 62.5881 80.9274 62.5881C79.9118 62.5881 79.4191 63.4907 79.4191 64.9679V66.7399V66.7399Z" fill="white"/>
<path d="M89.7597 67.6455C89.3579 67.829 88.5872 68.0847 87.7175 68.0847C85.7963 68.0727 84.6569 66.779 84.6569 64.7904C84.6569 62.9101 85.6284 61.4449 87.5055 61.4449C89.2478 61.4449 90.1285 62.8379 90.1285 64.8024V64.986H85.9752C85.9862 66.2195 86.812 67.0137 87.9624 67.0137C88.6891 67.0137 89.3248 66.8061 89.8285 66.5263L89.7597 67.6455ZM88.8129 64.0563V63.933C88.8129 63.4095 88.4991 62.4438 87.4395 62.4438C86.3798 62.4438 86.022 63.2862 85.9752 64.0563H88.8129V64.0563Z" fill="white"/>
<path d="M91.001 66.9355H91.7056L91.7276 62.5912H90.8441V61.5894H92.9111C92.9111 62.0647 92.9111 62.7115 92.8451 63.3463L92.8671 63.3704C93.09 62.173 93.7258 61.466 94.5653 61.466C94.8681 61.466 95.1571 61.5262 95.2699 61.5773L95.135 62.7867C94.9781 62.7266 94.8213 62.6905 94.5653 62.6905C93.4588 62.6905 92.991 63.8367 92.9799 64.9619L92.9579 66.9385H93.8057V67.9403H91.0038V66.9355H91.001Z" fill="white"/>
<path d="M96.148 66.9355H96.8526L96.8746 62.5912H95.9911V61.5893H96.8746L96.8966 60.7229C96.9407 59.0622 97.9811 58.4033 99.3435 58.4033C99.8361 58.4033 100.238 58.4996 100.472 58.5507L100.428 59.6248C100.271 59.5526 99.971 59.4774 99.4893 59.4774C98.5288 59.4774 98.171 60.1122 98.1489 60.8703L98.1269 61.5893H99.4893V62.5912H98.1269L98.1049 66.9355H98.9994V67.9373H96.1507V66.9355H96.148Z" fill="white"/>
<path d="M105.154 67.6455C104.752 67.829 103.981 68.0847 103.111 68.0847C101.199 68.0727 100.059 66.779 100.059 64.7904C100.059 62.9101 101.031 61.4449 102.9 61.4449C104.642 61.4449 105.523 62.8379 105.523 64.8024V64.986H101.375C101.386 66.2195 102.209 67.0137 103.356 67.0137C104.083 67.0137 104.719 66.8061 105.222 66.5263L105.154 67.6455ZM104.204 64.0563V63.933C104.204 63.4095 103.89 62.4438 102.831 62.4438C101.777 62.4438 101.419 63.2862 101.375 64.0563H104.204V64.0563Z" fill="white"/>
<path d="M106.348 66.9355H107.053L107.097 59.5496H106.081V58.5477H108.349L108.302 64.3481L110.356 62.6152V62.5912H109.53V61.5893H112.255V62.5912H111.674L109.596 64.4715L111.842 66.9385H112.5V67.9403H109.709V66.9385H110.389L108.3 64.7182V66.9385H109.004V67.9403H106.345V66.9355H106.348Z" fill="white"/>
<path d="M113.196 61.5893H114.079L114.102 60.1603L115.362 60.064L115.318 61.5893H116.983V62.5912H115.318C115.307 63.6051 115.296 64.6039 115.296 65.5576C115.296 66.7159 115.53 67.0107 116.111 67.0107C116.447 67.0107 116.804 66.8873 117.082 66.767L117.038 67.7688C116.725 67.9403 116.246 68.0847 115.753 68.0847C114.525 68.0847 114.044 67.5612 114.044 66.1322C114.044 65.3139 114.066 63.6923 114.077 62.5912H113.193V61.5893H113.196Z" fill="white"/>
<path d="M121.068 62.5912H120.487V61.5894H123.077V62.5912H122.452L123.603 66.0209C123.68 66.2766 123.727 66.5323 123.793 66.7911H123.815C123.87 66.5354 123.905 66.2676 123.983 66.0209L125.111 62.5912H124.373V61.5894H126.963V62.5912H126.361L124.384 67.9373H123.066L121.068 62.5912Z" fill="white"/>
<path d="M132.57 67.6455C132.168 67.829 131.397 68.0847 130.528 68.0847C128.606 68.0727 127.467 66.779 127.467 64.7904C127.467 62.9101 128.439 61.4449 130.316 61.4449C132.058 61.4449 132.941 62.8379 132.941 64.8024V64.986H128.788C128.799 66.2195 129.625 67.0137 130.775 67.0137C131.502 67.0137 132.138 66.8061 132.641 66.5263L132.57 67.6455ZM131.62 64.0563V63.933C131.62 63.4095 131.306 62.4438 130.247 62.4438C129.187 62.4438 128.829 63.2862 128.783 64.0563H131.62V64.0563Z" fill="white"/>
<path d="M133.811 66.9355H134.516L134.538 62.5912H133.654V61.5894H135.721C135.721 62.0647 135.721 62.7115 135.655 63.3463L135.677 63.3704C135.9 62.173 136.536 61.466 137.375 61.466C137.675 61.466 137.967 61.5262 138.08 61.5773L137.945 62.7867C137.788 62.7266 137.631 62.6905 137.375 62.6905C136.269 62.6905 135.801 63.8367 135.79 64.9619L135.768 66.9385H136.616V67.9403H133.814V66.9355H133.811Z" fill="white"/>
<path d="M138.779 61.5893H140.777C140.777 62.0406 140.722 62.5159 140.665 62.883H140.687C140.989 62.0286 141.625 61.4419 142.619 61.4419C144.025 61.4419 145.055 62.5641 145.055 64.4564C145.055 66.5564 143.915 68.0817 141.928 68.0817C141.515 68.0817 141.124 68.0215 140.777 67.8741L140.755 69.9981H141.683V71H138.903V69.9981H139.55L139.594 62.5881H138.779V61.5893ZM140.824 66.7399C141.08 66.9114 141.471 67.0076 141.942 67.0076C143.092 67.0076 143.739 65.9095 143.739 64.664C143.739 63.4787 143.271 62.5881 142.332 62.5881C141.317 62.5881 140.824 63.4907 140.824 64.9679V66.7399V66.7399Z" fill="white"/>
<path d="M146.42 62.0165C146.733 61.8571 147.479 61.4419 148.721 61.4419C150.441 61.4419 150.989 62.3685 150.989 63.8698C150.989 64.8957 150.956 65.9095 150.945 66.9324H151.726V67.9343H149.882C149.882 67.5311 149.915 67.0438 149.984 66.6165H149.962C149.717 67.3356 149.246 68.0817 148.03 68.0817C146.634 68.0817 146.177 67.0678 146.177 66.2615C146.177 64.5888 147.73 64.3692 148.679 64.321L149.874 64.2488V63.7735C149.874 62.9913 149.618 62.4437 148.589 62.4437C148.154 62.4437 147.73 62.5791 147.54 62.6634V63.59H146.422V62.0165H146.42ZM148.349 67.0107C149.321 67.0107 149.846 66.2044 149.846 65.3981V65.1424C148.55 65.1544 147.424 65.2146 147.424 66.1562C147.424 66.6316 147.757 67.0107 148.349 67.0107Z" fill="white"/>
<path d="M156.213 62.6273C156.034 62.5671 155.756 62.516 155.475 62.516C154.324 62.516 153.733 63.4546 153.733 64.6641C153.733 65.7622 154.225 66.9355 155.764 66.9355C156.323 66.9355 156.958 66.752 157.25 66.5685L157.184 67.7538C156.95 67.8621 156.325 68.0847 155.599 68.0847C153.276 68.0847 152.483 66.3879 152.483 64.8024C152.483 62.862 153.579 61.4449 155.61 61.4449C156.493 61.4449 157.016 61.6525 157.261 61.7759V63.569H156.213V62.6273Z" fill="white"/>
<path d="M158.269 66.9355H158.973L159.017 59.5496H158.002V58.5477H160.27L160.223 64.3481L162.276 62.6152V62.5912H161.45V61.5893H164.175V62.5912H163.594L161.516 64.4715L163.762 66.9385H164.42V67.9403H161.629V66.9385H162.309L160.22 64.7182V66.9385H160.925V67.9403H158.266V66.9355H158.269Z" fill="white"/>
<path d="M165.114 61.5893H165.997L166.019 60.1603L167.283 60.064L167.238 61.5893H168.904V62.5912H167.238C167.227 63.6051 167.216 64.6039 167.216 65.5576C167.216 66.7159 167.45 67.0107 168.031 67.0107C168.367 67.0107 168.725 66.8873 169.003 66.767L168.959 67.7688C168.645 67.9403 168.166 68.0847 167.673 68.0847C166.446 68.0847 165.964 67.5612 165.964 66.1322C165.964 65.3139 165.986 63.6923 165.997 62.5912H165.114V61.5893V61.5893Z" fill="white"/>
</g>
<defs>
<clipPath id="clip0_102_33">
<rect width="169" height="59" fill="white" transform="translate(0 12)"/>
</clipPath>
</defs>
</svg>
