<?xml version="1.0" standalone="no"?>
<!DOCTYPE svg PUBLIC "-//W3C//DTD SVG 20010904//EN"
 "http://www.w3.org/TR/2001/REC-SVG-20010904/DTD/svg10.dtd">
<svg version="1.0" xmlns="http://www.w3.org/2000/svg"
 width="1056.000000pt" height="1056.000000pt" viewBox="0 0 1056.000000 1056.000000"
 preserveAspectRatio="xMidYMid meet">
<metadata>
Created by potrace 1.11, written by Peter Selinger 2001-2013
</metadata>
<g transform="translate(0.000000,1056.000000) scale(0.100000,-0.100000)"
fill="#000000" stroke="none">
<path d="M5187 10283 c-4 -3 -57 -7 -119 -9 -109 -3 -139 -5 -293 -20 -38 -3
-76 -7 -82 -7 -7 0 -13 -4 -13 -8 0 -5 -7 -6 -14 -3 -13 5 -180 -16 -256 -31
-34 -7 -91 -17 -115 -21 -11 -1 -20 -3 -20 -4 0 -1 -11 -4 -25 -7 -39 -7 -55
-11 -55 -13 0 -1 -9 -3 -20 -5 -11 -1 -33 -6 -50 -9 -16 -4 -40 -9 -52 -11
-12 -2 -27 -6 -33 -10 -5 -3 -20 -8 -33 -11 -12 -2 -52 -12 -89 -23 -38 -11
-68 -17 -68 -14 0 3 -6 0 -13 -6 -8 -6 -22 -12 -33 -14 -10 -1 -24 -6 -30 -9
-6 -4 -21 -9 -35 -12 -40 -9 -184 -60 -284 -101 -11 -5 -22 -9 -25 -10 -3 -1
-18 -7 -33 -13 -16 -7 -30 -12 -32 -12 -5 0 -130 -56 -201 -91 -33 -16 -66
-29 -72 -29 -7 0 -12 -4 -12 -8 0 -4 -17 -14 -37 -21 -21 -8 -40 -17 -43 -20
-3 -3 -23 -15 -45 -26 -54 -27 -229 -126 -235 -134 -3 -3 -12 -7 -20 -9 -8 -2
-16 -8 -18 -13 -2 -5 -9 -9 -17 -9 -7 0 -18 -7 -25 -15 -7 -8 -16 -13 -20 -10
-5 3 -10 1 -12 -4 -4 -11 -107 -81 -119 -81 -5 0 -9 -4 -9 -10 0 -5 -4 -10 -9
-10 -13 0 -165 -109 -169 -121 -2 -5 -10 -9 -18 -9 -8 0 -14 -4 -14 -10 0 -5
-7 -10 -15 -10 -8 0 -15 -4 -15 -9 0 -4 -17 -20 -37 -34 -21 -14 -51 -37 -66
-51 -16 -13 -46 -39 -67 -56 -141 -115 -355 -322 -496 -479 -27 -30 -56 -62
-64 -70 -8 -9 -53 -63 -100 -121 -47 -58 -88 -106 -92 -108 -5 -2 -8 -10 -8
-17 0 -7 -3 -15 -8 -17 -9 -4 -97 -124 -138 -188 -16 -25 -37 -54 -46 -64 -10
-11 -18 -25 -18 -32 0 -7 -4 -14 -8 -16 -5 -1 -34 -45 -66 -97 -62 -100 -73
-120 -132 -228 -21 -37 -42 -71 -48 -75 -6 -4 -8 -8 -3 -8 4 0 0 -14 -8 -31
l-16 -31 63 44 c35 24 65 46 66 51 2 4 8 7 14 7 5 0 16 6 23 13 32 28 45 38
45 33 0 -3 28 12 62 34 34 22 109 64 167 93 58 28 108 54 111 57 3 3 12 6 20
8 8 2 33 12 55 22 43 20 94 41 110 46 6 1 41 14 80 28 68 25 218 71 266 82 13
3 35 8 49 11 14 3 31 6 38 6 6 0 12 3 12 6 0 3 13 7 28 8 15 1 41 5 57 8 57
11 140 25 185 29 25 3 65 8 90 11 24 3 99 8 165 10 66 3 122 5 125 6 3 1 9 1
14 0 5 -1 61 -4 125 -6 183 -7 247 -14 431 -45 80 -14 109 -19 170 -35 30 -8
68 -16 83 -19 33 -6 319 -101 362 -121 17 -7 68 -31 115 -52 187 -84 366 -186
535 -306 55 -39 105 -76 111 -82 6 -5 22 -19 36 -30 118 -98 158 -134 258
-235 63 -63 138 -142 166 -175 69 -82 214 -275 214 -286 0 -21 22 -6 46 33 29
45 29 46 72 98 16 19 35 44 43 56 37 55 160 194 255 288 105 105 178 170 282
251 7 5 21 17 31 25 25 22 77 58 151 107 36 24 70 46 75 51 37 29 400 222 418
222 3 0 22 8 43 17 22 9 41 17 44 18 10 3 46 17 65 26 28 12 195 68 220 74 11
3 73 18 138 34 106 27 158 38 222 45 11 2 29 6 40 9 11 3 47 9 80 12 33 3 76
7 95 10 28 3 255 16 295 16 6 1 20 -2 33 -5 12 -2 22 0 22 5 0 6 5 7 11 3 6
-4 50 -8 98 -9 47 -2 86 -4 86 -5 0 -1 27 -3 60 -5 55 -3 103 -9 166 -20 13
-2 51 -9 84 -14 33 -6 71 -13 85 -16 14 -2 34 -7 45 -9 11 -2 40 -9 65 -16 25
-6 59 -13 75 -16 17 -3 32 -10 33 -15 2 -5 7 -7 12 -4 8 5 196 -57 299 -99 34
-14 61 -22 61 -18 0 4 4 2 8 -3 4 -6 18 -15 32 -22 84 -40 218 -106 235 -116
10 -7 37 -23 60 -37 22 -13 42 -24 45 -25 3 0 19 -10 37 -23 17 -12 36 -22 41
-22 6 0 12 -3 14 -7 2 -5 26 -24 53 -42 28 -19 52 -37 55 -40 3 -4 15 -12 28
-19 20 -11 16 1 -27 80 -75 141 -85 161 -94 172 -4 6 -41 65 -81 131 -63 101
-194 295 -223 330 -5 6 -22 28 -38 50 -17 22 -34 45 -40 52 -5 7 -15 18 -20
25 -139 175 -197 239 -380 423 -178 179 -308 298 -331 303 -8 2 -14 7 -14 11
0 5 -48 46 -107 92 -60 46 -110 86 -113 89 -3 3 -18 14 -35 26 -241 168 -422
280 -610 379 -60 31 -115 61 -121 66 -6 5 -14 6 -17 2 -4 -3 -7 0 -7 7 0 7 -3
11 -6 8 -3 -4 -40 11 -82 32 -88 43 -363 153 -497 198 -183 62 -440 133 -450
124 -3 -3 -5 0 -5 6 0 6 -7 9 -15 6 -8 -4 -21 -2 -28 3 -6 5 -28 10 -47 12
-19 2 -40 7 -46 12 -6 5 -13 7 -15 4 -3 -2 -23 0 -46 5 -23 6 -63 12 -89 15
-26 4 -50 8 -54 10 -6 4 -33 8 -207 30 -144 18 -239 25 -370 28 -46 1 -83 5
-83 8 0 4 -17 3 -37 -2 -21 -4 -42 -4 -46 0 -4 4 -26 5 -47 1 -22 -4 -43 -3
-48 2 -6 6 -12 6 -16 -1 -5 -7 -13 -8 -25 -1 -10 5 -21 7 -24 3z"/>
<path d="M2538 6595 c-2 -2 -28 -6 -59 -9 -31 -4 -67 -9 -80 -12 -13 -2 -39
-7 -58 -10 -19 -3 -45 -10 -59 -15 -14 -5 -27 -7 -30 -4 -3 2 -10 0 -17 -5 -6
-5 -20 -11 -31 -13 -41 -8 -74 -19 -74 -26 0 -4 -8 -7 -19 -8 -16 -1 -191 -83
-249 -117 -53 -31 -152 -101 -152 -108 0 -5 -5 -8 -11 -8 -26 0 -211 -188
-290 -294 -64 -84 -144 -211 -144 -228 0 -4 -6 -13 -12 -19 -7 -7 -13 -20 -13
-29 0 -9 -5 -21 -12 -28 -26 -26 -115 -313 -103 -332 4 -6 2 -10 -3 -10 -5 0
-9 -6 -10 -12 -1 -7 -3 -35 -6 -63 -3 -27 -6 -50 -7 -50 -8 0 -12 -244 -5
-325 2 -25 8 -65 12 -90 4 -25 7 -53 8 -62 0 -10 3 -18 6 -18 3 0 6 -11 6 -25
1 -13 16 -71 34 -127 18 -57 32 -105 32 -108 0 -3 6 -13 15 -22 8 -9 12 -22 8
-27 -3 -6 -1 -11 4 -11 6 0 11 -6 11 -12 0 -13 96 -189 132 -242 29 -44 178
-216 220 -254 29 -26 62 -56 73 -67 12 -11 37 -31 56 -45 19 -13 39 -28 44
-32 22 -18 84 -57 141 -87 32 -18 64 -36 69 -41 6 -4 27 -13 48 -19 20 -7 37
-16 37 -20 0 -4 10 -7 22 -8 11 -1 25 -8 29 -15 5 -7 9 -10 9 -7 0 4 42 -7 93
-23 94 -31 110 -35 162 -43 17 -2 44 -7 60 -10 151 -26 393 -23 551 9 106 21
307 87 354 116 8 5 35 19 59 30 149 69 376 249 484 384 18 21 39 46 47 55 25
27 113 163 140 216 14 28 28 52 33 53 4 2 7 11 7 21 0 9 4 21 8 27 16 17 61
132 55 138 -4 3 0 6 7 6 7 0 11 3 8 6 -3 3 3 33 13 67 11 34 21 76 24 92 5 30
10 56 21 105 19 96 19 355 0 468 -3 17 -8 44 -11 60 -7 41 -22 103 -33 140 -6
18 -11 34 -12 37 -8 44 -104 270 -120 285 -3 3 -11 16 -18 30 -18 35 -60 103
-84 135 -86 114 -241 277 -298 313 -14 9 -29 22 -33 29 -4 7 -14 13 -22 13 -7
0 -15 4 -17 8 -10 25 -260 165 -343 192 -22 7 -46 17 -52 23 -7 5 -13 6 -13 2
0 -4 -7 -2 -15 5 -8 7 -15 10 -15 7 0 -4 -18 0 -39 8 -22 7 -52 16 -68 19 -15
3 -66 12 -113 21 -69 14 -382 29 -392 20z"/>
<path d="M7690 6583 c-146 -20 -349 -77 -435 -121 -16 -9 -32 -17 -35 -17 -3
0 -16 -7 -30 -14 -119 -65 -156 -86 -165 -93 -5 -4 -39 -29 -75 -56 -119 -87
-197 -163 -306 -294 -32 -38 -124 -175 -131 -196 -3 -9 -15 -29 -25 -44 -11
-16 -16 -28 -11 -28 4 0 3 -4 -3 -8 -10 -7 -80 -167 -89 -207 -3 -11 -17 -63
-30 -115 -14 -52 -27 -117 -30 -145 -2 -27 -7 -61 -10 -75 -7 -30 -7 -271 -1
-318 9 -59 18 -117 20 -127 2 -5 6 -28 10 -50 4 -22 9 -46 12 -53 2 -7 4 -14
4 -17 6 -50 123 -321 172 -400 36 -57 103 -150 110 -153 4 -2 8 -8 8 -12 0
-21 166 -188 260 -261 30 -24 57 -46 60 -50 3 -3 20 -14 38 -23 17 -9 32 -22
32 -28 0 -6 3 -8 6 -5 4 4 19 -2 34 -13 16 -11 32 -20 38 -20 5 0 15 -7 22
-15 6 -8 15 -14 18 -13 4 1 36 -12 72 -29 66 -31 142 -61 215 -84 52 -17 67
-20 135 -33 19 -3 45 -8 58 -11 133 -26 450 -23 522 5 3 1 8 2 13 1 4 -1 26 4
50 9 23 6 51 13 63 15 11 3 54 16 95 30 41 14 79 27 84 28 6 2 25 10 44 20 19
9 40 17 47 17 7 0 14 3 16 8 2 4 23 17 48 29 65 32 124 67 128 76 2 4 10 7 18
7 8 0 14 4 14 8 0 4 15 16 33 27 17 10 41 26 52 36 11 10 40 35 64 56 68 60
182 180 211 223 8 12 20 28 25 34 59 63 172 281 220 420 20 60 38 114 40 120
15 73 19 94 21 111 1 11 3 21 4 23 2 1 4 16 5 32 1 17 3 31 5 33 16 19 12 337
-5 427 -4 19 -8 42 -9 50 -14 97 -82 304 -137 413 -66 130 -69 134 -84 147 -8
7 -15 18 -15 24 0 16 -133 179 -200 246 -77 77 -174 160 -187 160 -6 0 -13 4
-15 9 -5 14 -153 103 -238 144 -131 63 -288 111 -445 138 -99 16 -323 18 -435
2z"/>
<path d="M5270 3285 c0 -6 -11 -23 -25 -38 -14 -15 -23 -27 -20 -27 9 0 -90
-128 -185 -241 -68 -81 -296 -309 -309 -309 -6 0 -11 -7 -11 -17 0 -9 -3 -14
-6 -10 -5 5 -39 -20 -86 -65 -10 -10 -22 -18 -27 -18 -5 0 -11 -4 -13 -8 -11
-27 -398 -282 -427 -282 -5 0 -14 -7 -21 -15 -7 -8 -21 -15 -31 -15 -11 0 -19
-4 -19 -9 0 -7 -28 -19 -47 -19 -3 0 -9 -4 -12 -10 -8 -11 -220 -102 -331
-141 -79 -27 -242 -76 -286 -86 -10 -2 -53 -11 -94 -20 -41 -9 -88 -19 -105
-21 -16 -2 -41 -6 -55 -9 -315 -54 -689 -51 -1045 9 -101 17 -330 74 -403 100
-20 7 -55 19 -77 25 -22 7 -49 16 -60 20 -80 33 -135 56 -168 72 -47 23 -49 7
-4 -42 17 -20 47 -53 65 -75 156 -186 436 -463 581 -574 11 -9 35 -29 53 -46
18 -16 51 -43 73 -59 22 -17 42 -32 45 -36 3 -3 48 -36 100 -73 52 -37 102
-73 111 -80 8 -7 30 -21 47 -32 18 -10 32 -21 32 -25 0 -4 11 -10 25 -13 14
-4 25 -11 25 -16 0 -6 5 -10 11 -10 5 0 37 -18 69 -40 32 -22 61 -40 63 -40 3
0 34 -18 71 -40 36 -22 109 -63 163 -91 54 -28 107 -56 118 -62 11 -6 22 -12
25 -12 3 -1 31 -13 63 -28 89 -42 156 -72 232 -102 39 -16 74 -32 80 -37 5 -4
17 -8 27 -8 10 0 26 -4 36 -10 15 -9 129 -53 142 -55 3 0 46 -14 95 -30 50
-16 95 -30 100 -31 6 -2 26 -8 45 -13 19 -5 62 -17 94 -25 33 -9 69 -18 80
-21 12 -2 21 -4 21 -5 0 -1 7 -3 15 -5 8 -2 26 -6 40 -9 14 -3 36 -7 50 -10
32 -8 177 -36 210 -42 14 -2 41 -7 60 -11 19 -3 48 -7 64 -9 16 -1 48 -6 70
-9 44 -7 78 -11 166 -19 30 -3 55 -6 55 -6 0 -3 137 -10 222 -13 46 -1 83 -5
83 -9 0 -4 12 -3 28 1 27 8 59 7 68 -2 3 -3 21 -1 40 3 18 4 34 4 34 -1 0 -5
11 -4 25 1 15 6 26 6 30 -1 4 -5 11 -7 16 -4 5 4 55 8 111 10 119 5 224 13
288 20 25 3 63 7 85 9 60 6 134 16 190 26 28 5 66 12 85 14 19 3 46 8 60 11
75 17 116 23 122 19 5 -3 8 -1 8 4 0 5 6 9 13 9 23 2 92 15 100 20 4 2 20 7
35 9 37 7 222 58 302 84 36 12 72 23 80 25 23 5 212 76 295 110 11 5 22 9 25
10 3 1 22 9 44 18 21 9 39 17 41 17 1 0 47 21 101 47 54 26 101 47 104 48 17
3 259 134 293 157 15 11 27 16 27 12 0 -4 11 3 25 16 14 13 25 20 25 16 0 -4
6 -2 13 4 16 14 87 60 92 60 8 0 230 154 233 162 2 4 8 8 13 8 10 0 142 101
147 112 2 5 8 8 14 8 14 0 220 175 347 295 139 132 295 295 377 395 35 42 56
67 83 99 23 27 29 49 9 34 -13 -10 -183 -83 -202 -88 -11 -2 -23 -6 -86 -30
-97 -36 -376 -104 -490 -120 -25 -3 -56 -8 -70 -10 -197 -37 -612 -36 -850 1
-19 3 -48 7 -65 10 -76 10 -92 14 -122 23 -17 5 -33 7 -36 5 -2 -3 -17 0 -32
6 -15 6 -44 13 -63 16 -19 3 -47 10 -61 16 -14 5 -35 12 -46 14 -21 4 -141 41
-165 51 -8 3 -19 7 -25 8 -11 3 -109 41 -140 54 -11 5 -38 17 -60 26 -174 74
-529 279 -593 342 -7 7 -17 13 -21 13 -4 0 -16 8 -27 18 -10 9 -46 39 -79 65
-134 109 -316 283 -392 377 -16 18 -37 43 -48 54 -11 12 -34 39 -50 61 -17 22
-34 45 -40 51 -5 6 -28 37 -50 68 -56 81 -74 103 -75 91z"/>
</g>
</svg>
