<svg width="35" height="25" viewBox="0 0 35 25" fill="none" xmlns="http://www.w3.org/2000/svg">
<path d="M28.4871 2.33662C28.4871 2.33662 26.6871 0.440487 23.5671 0.519492C19.8471 0.624832 16.4271 2.6263 16.8171 7.73531C16.8171 7.73531 11.2371 9.23641 2.53715 1.96792C2.53715 1.96792 -0.252851 5.97086 4.69715 9.73678C4.69715 9.73678 3.31715 10.0791 1.45715 9.15741C1.45715 9.15741 0.467149 12.5283 6.82715 15.1091C6.82715 15.1091 4.66715 15.6358 3.70715 15.1091C3.70715 15.1091 4.27715 18.6907 9.97715 19.5598C9.97715 19.5598 7.03715 22.1143 0.0771484 22.0616C0.0771484 22.0616 14.5371 28.5664 24.5571 20.2182C31.7271 14.2664 30.7071 6.31322 30.7071 6.31322C30.7071 6.31322 32.8071 5.73385 34.0671 3.73238C34.0671 3.73238 31.6671 4.39075 30.2871 4.28541C30.2871 4.28541 32.9271 2.83698 33.1371 1.1252C33.1671 1.09887 30.9171 2.49463 28.4871 2.33662Z" fill="white"/>
</svg>
