<svg width="29" height="23" viewBox="0 0 29 23" fill="none" xmlns="http://www.w3.org/2000/svg">
<path d="M24.8528 0.837112C20.9528 0.731769 18.3428 2.65427 16.9628 6.63093C17.6828 6.36758 18.3728 6.2359 19.0328 6.2359C20.4728 6.2359 21.1028 6.94696 20.9228 8.34275C20.8328 9.18548 20.2028 10.4233 19.0328 12.0561C17.8628 13.6889 16.9628 14.5053 16.3928 14.5053C15.6428 14.5053 14.9528 13.2412 14.3228 10.7393C14.1128 10.0019 13.7228 8.13206 13.1828 5.10347C12.6728 2.25923 11.3228 0.942454 9.1328 1.1268C8.2028 1.20581 6.82281 1.94321 4.96281 3.33899C3.61281 4.41875 2.26281 5.47217 0.882812 6.55193L2.20281 8.05306C3.46281 7.28932 4.18281 6.89429 4.39281 6.89429C5.35281 6.89429 6.25281 8.21107 7.0928 10.871C7.8428 13.2938 8.5928 15.743 9.3728 18.1659C10.5128 20.8258 11.8928 22.1426 13.5128 22.1426C16.1528 22.1426 19.3928 19.9567 23.2028 15.6114C26.8928 11.4503 28.8128 8.1584 28.9328 5.76186C29.1128 2.54892 27.7328 0.889783 24.8528 0.837112Z" fill="white"/>
</svg>
