<svg width="28" height="23" viewBox="0 0 28 23" fill="none" xmlns="http://www.w3.org/2000/svg">
<path d="M27.0669 14.7993C27.0669 15.1233 26.8997 15.4418 26.5782 15.6615C26.0187 16.0404 25.2149 15.9581 24.7712 15.4858L13.8714 3.74458L2.97156 15.4803C2.52785 15.9581 1.72403 16.0349 1.16457 15.656C0.60511 15.2771 0.51508 14.5906 0.95879 14.1129L12.8618 1.2953C13.1061 1.0317 13.4791 0.877931 13.8714 0.877931C14.2636 0.877931 14.6366 1.0317 14.881 1.2953L26.7904 14.1183C26.9769 14.316 27.0669 14.5577 27.0669 14.7993Z" fill="white"/>
<path d="M27.0669 21.856C27.0669 22.18 26.8997 22.4985 26.5782 22.7182C26.0251 23.0916 25.2149 23.0147 24.7712 22.537L13.8714 10.8012L2.97156 22.537C2.52785 23.0147 1.72403 23.0916 1.16457 22.7127C0.60511 22.3338 0.51508 21.6473 0.95879 21.1695L12.8618 8.35194C13.1061 8.08834 13.4791 7.93457 13.8714 7.93457C14.2636 7.93457 14.6366 8.08834 14.881 8.35194L26.7904 21.175C26.9769 21.3727 27.0669 21.6144 27.0669 21.856Z" fill="white"/>
</svg>
