<svg width="27" height="23" viewBox="0 0 27 23" fill="none" xmlns="http://www.w3.org/2000/svg">
<path d="M26.3896 13.9214C26.3896 14.2454 26.2225 14.5639 25.9009 14.7836C25.3415 15.1625 24.5376 15.0801 24.0939 14.6078L13.1941 2.86665L2.29431 14.6023C1.8506 15.0801 1.04678 15.157 0.487323 14.7781C-0.072136 14.3992 -0.162166 13.7127 0.281543 13.2349L12.1845 0.417369C12.4289 0.153769 12.8019 1.28809e-06 13.1941 1.31677e-06C13.5864 1.34546e-06 13.9594 0.153769 14.2037 0.417369L26.1131 13.2404C26.2996 13.4381 26.3896 13.6797 26.3896 13.9214Z" fill="#1C1C1C"/>
<path d="M26.3896 20.9781C26.3896 21.3021 26.2225 21.6206 25.9009 21.8403C25.3479 22.2137 24.5376 22.1368 24.0939 21.659L13.1941 9.9233L2.29431 21.659C1.8506 22.1368 1.04678 22.2137 0.487323 21.8348C-0.072136 21.4558 -0.162166 20.7694 0.281543 20.2916L12.1845 7.47401C12.4289 7.21041 12.8019 7.05664 13.1941 7.05664C13.5864 7.05664 13.9594 7.21041 14.2037 7.47401L26.1131 20.2971C26.2996 20.4948 26.3896 20.7364 26.3896 20.9781Z" fill="#1C1C1C"/>
</svg>
