<svg width="30" height="30" viewBox="0 0 30 30" fill="none" xmlns="http://www.w3.org/2000/svg">
<path d="M1.00909 11.7836C1.00909 11.3866 1.18636 10.9963 1.52727 10.7272C2.12045 10.2629 2.97273 10.3639 3.44318 10.9425L15 25.3281L26.5568 10.9492C27.0273 10.3639 27.8795 10.2697 28.4727 10.7339C29.0659 11.1982 29.1614 12.0393 28.6909 12.6247L16.0705 28.3291C15.8114 28.652 15.4159 28.8404 15 28.8404C14.5841 28.8404 14.1886 28.652 13.9295 28.3291L1.30227 12.6179C1.10454 12.3757 1.00909 12.0796 1.00909 11.7836Z" fill="white"/>
<path d="M1.00909 3.13741C1.00909 2.74043 1.18636 2.35017 1.52727 2.08103C2.11363 1.62349 2.97273 1.71769 3.44318 2.30307L15 16.682L26.5568 2.30307C27.0273 1.71769 27.8795 1.62349 28.4727 2.08776C29.0659 2.55203 29.1614 3.3931 28.6909 3.97848L16.0705 19.6829C15.8114 20.0059 15.4159 20.1943 15 20.1943C14.5841 20.1943 14.1886 20.0059 13.9295 19.6829L1.30227 3.97175C1.10454 3.72952 1.00909 3.43347 1.00909 3.13741Z" fill="white"/>
</svg>
