<svg width="16" height="17" viewBox="0 0 16 17" fill="none" xmlns="http://www.w3.org/2000/svg">
<g clip-path="url(#clip0)">
<path d="M5.75392 16.1133C5.54858 16.1133 5.34672 16.0187 5.20751 15.8369C4.96737 15.5206 5.01958 15.066 5.31888 14.8151L12.7597 8.65146L5.32236 2.48783C5.01958 2.23692 4.97085 1.78237 5.21099 1.46601C5.45113 1.14965 5.88617 1.09874 6.18895 1.34964L14.3119 8.08055C14.479 8.21874 14.5764 8.42964 14.5764 8.65146C14.5764 8.87328 14.479 9.08419 14.3119 9.22237L6.18547 15.9569C6.06018 16.0624 5.90705 16.1133 5.75392 16.1133Z" fill="white"/>
<path d="M1.28175 16.1133C1.07642 16.1133 0.87456 16.0187 0.735349 15.8369C0.49869 15.5242 0.547414 15.066 0.850198 14.8151L8.28755 8.65146L0.850198 2.48783C0.547413 2.23692 0.498689 1.78237 0.738829 1.46601C0.978968 1.14965 1.414 1.09874 1.71679 1.34964L9.83976 8.08055C10.0068 8.21874 10.1043 8.42964 10.1043 8.65146C10.1043 8.87328 10.0068 9.08419 9.83976 9.22237L1.71331 15.9569C1.58802 16.0624 1.43489 16.1133 1.28175 16.1133Z" fill="white"/>
</g>
<defs>
<clipPath id="clip0">
<rect width="16" height="15" fill="white" transform="translate(0.0810547 16.6514) rotate(-90)"/>
</clipPath>
</defs>
</svg>
