<svg width="16" height="17" viewBox="0 0 16 17" fill="none" xmlns="http://www.w3.org/2000/svg">
<g clip-path="url(#clip0)">
<path d="M5.93147 16.1133C5.72613 16.1133 5.52427 16.0187 5.38506 15.8369C5.14492 15.5206 5.19713 15.066 5.49643 14.8151L12.9373 8.65146L5.49991 2.48783C5.19713 2.23692 5.1484 1.78237 5.38854 1.46601C5.62868 1.14965 6.06372 1.09874 6.3665 1.34964L14.4895 8.08055C14.6565 8.21874 14.754 8.42964 14.754 8.65146C14.754 8.87328 14.6565 9.08419 14.4895 9.22237L6.36302 15.9569C6.23773 16.0624 6.0846 16.1133 5.93147 16.1133Z" fill="black"/>
<path d="M1.4593 16.1133C1.25397 16.1133 1.05211 16.0187 0.9129 15.8369C0.676241 15.5242 0.724965 15.066 1.02775 14.8151L8.46511 8.65146L1.02775 2.48783C0.724965 2.23692 0.676241 1.78237 0.91638 1.46601C1.15652 1.14965 1.59155 1.09874 1.89434 1.34964L10.0173 8.08055C10.1844 8.21874 10.2818 8.42964 10.2818 8.65146C10.2818 8.87328 10.1844 9.08419 10.0173 9.22237L1.89086 15.9569C1.76557 16.0624 1.61244 16.1133 1.4593 16.1133Z" fill="black"/>
</g>
<defs>
<clipPath id="clip0">
<rect width="16" height="15" fill="white" transform="translate(0.258606 16.6514) rotate(-90)"/>
</clipPath>
</defs>
</svg>
