<?xml version="1.0" encoding="utf-8"?>
<!-- Generator: Adobe Illustrator 25.2.0, SVG Export Plug-In . SVG Version: 6.00 Build 0)  -->
<svg version="1.1" id="Layer_1" xmlns="http://www.w3.org/2000/svg" xmlns:xlink="http://www.w3.org/1999/xlink" x="0px" y="0px"
	 viewBox="0 0 5333 3000" style="enable-background:new 0 0 5333 3000;" xml:space="preserve">
<style type="text/css">
	.st0{fill:#E1EBF7;}
	.st1{fill:#C7D3E5;}
</style>
<g id="Layer_26">
	<g id="XMLID_44_">
		<path id="XMLID_8_" class="st0" d="M2666.5,1997.2C1645.2,1997.2,712.2,2375.6,0,2999.9h5333
			C4620.8,2375.6,3687.8,1997.2,2666.5,1997.2z"/>
		<path id="XMLID_15_" class="st1" d="M0,2999.9h3572l0,0c-2725.9,0-2834.4-514.2-2834.4-514.2C472.5,2629.7,225.2,2802.5,0,2999.9z
			"/>
		<ellipse id="XMLID_3_" class="st1" cx="2666.5" cy="2172" rx="341.9" ry="109.4"/>
		<ellipse id="XMLID_11_" class="st1" cx="3566.4" cy="2467.7" rx="197.2" ry="63.1"/>
		<path id="XMLID_13_" class="st1" d="M2038,2173.9c4.5,21.5-46.2,50.3-113.3,64.5c-67.1,14.1-125.1,8.2-129.7-13.3
			c-4.5-21.5,46.2-50.3,113.3-64.5C1975.4,2146.5,2033.5,2152.4,2038,2173.9z"/>
		<path id="XMLID_28_" class="st1" d="M1276.5,2405.6c151.8-55.7,255.8-160.8,242.8-243.5c-199.8,59.3-394.1,133.1-579.8,221
			C988.5,2448.1,1130.2,2459.2,1276.5,2405.6z"/>
		
			<ellipse id="XMLID_7_" transform="matrix(0.882 -0.4712 0.4712 0.882 -1141.269 692.1935)" class="st0" cx="811.7" cy="2625.2" rx="193.3" ry="80.9"/>
		
			<ellipse id="XMLID_10_" transform="matrix(0.9635 -0.2678 0.2678 0.9635 -699.1705 425.56)" class="st0" cx="1210.5" cy="2776" rx="96.6" ry="52.5"/>
		<path id="XMLID_19_" class="st1" d="M3211.1,2837.8c-1.3-30.8-37.2-58.9-86.1-71c29.8,13.2,49.7,33.5,50.6,55.4
			c1.5,35.6-48.1,61.7-110.7,58.4c-38.5-2-72.9-14.7-94.1-32.4c18,28.5,64.9,50.7,119.2,53.5
			C3158.5,2905.4,3212.7,2876.8,3211.1,2837.8z"/>
		<path id="XMLID_9_" class="st1" d="M4620.1,2748.3c-4.4-49.5-64.3-91.9-143.9-107.7c48.9,19,82.6,50.2,85.6,85.3
			c5,57.1-72.8,102.9-173.8,102.3c-62.1-0.4-118.4-18.2-153.8-45.1c31,44.4,108.2,76.7,195.8,77.2
			C4540.5,2860.9,4625.6,2810.8,4620.1,2748.3z"/>
		<path id="XMLID_20_" class="st1" d="M3776.9,2961.9c-8.1-39.7-65.7-68.3-138.9-73.4c45.7,10.6,78.7,32.7,84.4,60.8
			c3.6,17.7-4.1,35.2-20.2,50.6h66.8C3776.6,2987.8,3779.6,2974.9,3776.9,2961.9z"/>
	</g>
</g>
</svg>
