<?xml version="1.0" encoding="utf-8"?>
<!-- Generator: Adobe Illustrator 25.4.1, SVG Export Plug-In . SVG Version: 6.00 Build 0)  -->
<svg version="1.1" id="Layer_1" xmlns="http://www.w3.org/2000/svg" xmlns:xlink="http://www.w3.org/1999/xlink" x="0px" y="0px"
	 viewBox="0 0 99.21 99.21" style="enable-background:new 0 0 99.21 99.21;" xml:space="preserve">
<style type="text/css">
	.st0{fill-rule:evenodd;clip-rule:evenodd;fill:#85754E;}
	.st1{fill:#85754E;}
	.st2{fill:#FFFFFF;}
	.st3{fill:#005A93;}
</style>
<g>
	<g>
		<g>
			<path class="st0" d="M32.84,21.45l7.99,3.08l-4.71-7.07l-0.25-0.36l0.28-0.35l5.48-6.61l-8.47,2.22l-0.22-0.37L28.2,4.86
				l-0.4,8.46l0,0.45L19,16.07l8.02,3.07l0.41,0.17l-0.03,0.43l-0.66,8.48l5.46-6.6l0.26-0.32L32.84,21.45z"/>
			<path class="st1" d="M32.84,21.45l7.99,3.08l-4.71-7.07l-0.25-0.36l0.28-0.35l5.48-6.61l-8.47,2.22l-0.22-0.37L28.2,4.86
				l-0.4,8.46l0,0.45L19,16.07l8.02,3.07l0.41,0.17l-0.03,0.43l-0.66,8.48l5.46-6.6l0.26-0.32L32.84,21.45z"/>
		</g>
		<g>
			<path class="st0" d="M66.93,21.3l0.26,0.32l5.46,6.6l-0.66-8.48l-0.03-0.43l0.41-0.17l8.02-3.07l-8.8-2.31l-0.01-0.45l-0.4-8.46
				l-4.75,7.13l-0.22,0.37l-8.47-2.22l5.48,6.61l0.28,0.35l-0.25,0.36l-4.71,7.07l7.99-3.08L66.93,21.3z"/>
			<path class="st1" d="M66.93,21.3l0.26,0.32l5.46,6.6l-0.66-8.48l-0.03-0.43l0.41-0.17l8.02-3.07l-8.8-2.31l-0.01-0.45l-0.4-8.46
				l-4.75,7.13l-0.22,0.37l-8.47-2.22l5.48,6.61l0.28,0.35l-0.25,0.36l-4.71,7.07l7.99-3.08L66.93,21.3z"/>
		</g>
		<path class="st2" d="M80.75,51.53c0.86,2.67,1.16,5.51,1.26,8.46c0.13,4.05-0.2,8.81-1.44,12.64
			c-4.33,13.43-16.89,21.71-30.7,21.71c-17.98,0-32.7-14.3-32.7-32.28c0-17.98,14.58-32.42,32.56-32.42
			C65.16,29.65,76.77,39.12,80.75,51.53z"/>
	</g>
	<g>
		<path class="st3" d="M49.82,77.21c-8.49-0.01-15.38-6.87-15.36-15.28c0.02-8.41,6.94-15.24,15.42-15.22
			c5.36,0.01,10.53,2.96,13.34,7.56l4.89-4.12c-4-6.08-10.85-9.8-18.22-9.82c-5.82-0.01-11.31,2.23-15.44,6.31
			c-4.13,4.08-6.42,9.51-6.44,15.28c-0.01,5.77,2.25,11.2,6.37,15.3c4.12,4.1,9.59,6.36,15.41,6.37
			c8.49,0.02,15.89-4.65,19.53-12.26l-5.51-2.99C61.31,73.75,55.86,77.23,49.82,77.21z"/>
		<g>
			<g>
				<g>
					<path class="st3" d="M40.6,52.11l-0.01,5.27c0,0,7.58-0.01,9.88,0c-0.08,0.08-0.17,0.16-0.27,0.25
						c-2.31,2.12-9.89,8.57-9.89,8.57l-0.02,5.31h19.11l-0.01-5.4c-7.68,0-7.68,0-10.07-0.01c1.95-1.81,10-8.72,10-8.72v-5.26
						L40.6,52.11z"/>
				</g>
			</g>
			<path class="st3" d="M50.16,57.68c0.17-0.15,0.23-0.19,0.37-0.3l-0.12,0l-0.86,0.82C49.55,58.2,49.96,57.84,50.16,57.68z"/>
			<path class="st3" d="M49.63,65.8c-0.18,0.15-0.23,0.19-0.36,0.3l0.11,0l0.85-0.82C50.23,65.28,49.83,65.64,49.63,65.8z"/>
		</g>
		<path class="st3" d="M79.76,60.61l0-0.15h0l0.01-2.1l-15.31,0l0.01,5.95h8.7c-0.16,3.55-0.57,5.15-1.71,7.68
			c-3.8,8.51-12.1,13.78-21.66,13.77c-13.24-0.03-23.99-10.73-23.96-23.85c0.03-13.12,10.82-23.78,24.06-23.75
			c4.25,0.01,8.42,1.13,12.05,3.24c2.95,1.71,5.73,4.33,7.82,7.35l4.98-4.2c-2.53-3.5-5.84-6.53-9.54-8.67
			c-4.63-2.69-9.91-4.11-15.31-4.12c-8.12-0.02-15.77,3.11-21.55,8.81c-5.77,5.7-8.96,13.27-8.98,21.33
			c-0.02,8.05,3.14,15.64,8.88,21.35c5.75,5.73,13.39,8.89,21.52,8.9c12.17,0.03,22.76-6.71,27.64-17.57
			c1.28-2.66,2.04-6.11,2.27-10.27h0.01c0.02-0.26,0.03-0.66,0.05-1.09v-0.33C79.77,62.14,79.77,61.39,79.76,60.61z"/>
	</g>
</g>
</svg>
