<svg width="54" height="79" viewBox="0 0 54 79" fill="none" xmlns="http://www.w3.org/2000/svg">
<path fill-rule="evenodd" clip-rule="evenodd" d="M12.8122 17.0805L19.3357 19.533L15.4902 13.9033L15.2861 13.6166L15.5147 13.3379L19.9888 8.07441L13.0735 9.84217L12.8939 9.54755L9.02389 3.87L8.69731 10.6066V10.9649L1.51255 12.7964L8.06048 15.241L8.39522 15.3764L8.37073 15.7188L7.83187 22.4713L12.2897 17.2158L12.502 16.961L12.8122 17.0805Z" fill="#85754E"/>
<path d="M12.8122 17.0805L19.3357 19.533L15.4902 13.9033L15.2861 13.6166L15.5147 13.3379L19.9888 8.07441L13.0735 9.84217L12.8939 9.54755L9.02389 3.87L8.69731 10.6066V10.9649L1.51255 12.7964L8.06048 15.241L8.39522 15.3764L8.37073 15.7188L7.83187 22.4713L12.2897 17.2158L12.502 16.961L12.8122 17.0805Z" fill="#85754E"/>
<path fill-rule="evenodd" clip-rule="evenodd" d="M40.645 16.961L40.8572 17.2158L45.315 22.4713L44.7762 15.7188L44.7517 15.3764L45.0864 15.241L51.6344 12.7964L44.4496 10.957L44.4414 10.5986L44.1149 3.862L40.2367 9.53955L40.0571 9.83418L33.1418 8.06642L37.6159 13.3299L37.8445 13.6086L37.6404 13.8953L33.7949 19.525L40.3184 17.0725L40.645 16.961Z" fill="#85754E"/>
<path d="M40.645 16.961L40.8572 17.2158L45.315 22.4713L44.7762 15.7188L44.7517 15.3764L45.0864 15.241L51.6344 12.7964L44.4496 10.957L44.4414 10.5986L44.1149 3.862L40.2367 9.53955L40.0571 9.83418L33.1418 8.06642L37.6159 13.3299L37.8445 13.6086L37.6404 13.8953L33.7949 19.525L40.3184 17.0725L40.645 16.961Z" fill="#85754E"/>
<path d="M51.9283 41.0329C52.6305 43.159 52.8754 45.4205 52.957 47.7695C53.0632 50.9945 52.7938 54.7849 51.7814 57.8346C48.2461 68.5288 37.9915 75.1221 26.7163 75.1221C12.0366 75.1221 0.0184326 63.7352 0.0184326 49.4179C0.0184326 35.1006 11.9223 23.6021 26.602 23.6021C39.1999 23.6101 48.6789 31.1509 51.9283 41.0329Z" fill="white"/>
<path d="M26.6755 61.4816C19.7438 61.4736 14.1185 56.011 14.1348 49.3142C14.1511 42.6174 19.801 37.1788 26.7245 37.1947C31.1006 37.2026 35.3217 39.5517 37.6159 43.2146L41.6083 39.9339C38.3425 35.0925 32.7499 32.1303 26.7326 32.1143C21.9809 32.1064 17.4986 33.8901 14.1267 37.1389C10.7547 40.3878 8.88505 44.7117 8.86872 49.3063C8.86055 53.9009 10.7057 58.2247 14.0695 61.4895C17.4333 64.7543 21.8993 66.5539 26.651 66.5619C33.5826 66.5778 39.6244 62.8591 42.5963 56.7994L38.0976 54.4184C36.0565 58.7264 31.6068 61.4975 26.6755 61.4816Z" fill="#005A93"/>
<path d="M19.1478 41.4947L19.1397 45.6911C19.1397 45.6911 25.3283 45.6832 27.2062 45.6911C27.1409 45.7548 27.0674 45.8185 26.9857 45.8902C25.0997 47.5783 18.9111 52.7144 18.9111 52.7144L18.8947 56.9427H34.4971L34.4889 52.6428C28.2186 52.6428 28.2186 52.6428 26.2673 52.6348C27.8593 51.1935 34.4318 45.6911 34.4318 45.6911V41.5027L19.1478 41.4947Z" fill="#005A93"/>
<path d="M26.9531 45.93C27.0919 45.8105 27.1408 45.7787 27.2551 45.6911H27.1572L26.455 46.3441C26.455 46.3441 26.7898 46.0574 26.9531 45.93Z" fill="#005A93"/>
<path d="M26.5204 52.3959C26.3734 52.5153 26.3326 52.5472 26.2264 52.6348H26.3162L27.0102 51.9818C27.0102 51.9818 26.6836 52.2685 26.5204 52.3959Z" fill="#005A93"/>
<path d="M51.12 48.2632V48.1437L51.1282 46.4715H38.6283L38.6365 51.2094H45.7396C45.609 54.0363 45.2742 55.3103 44.3435 57.3249C41.241 64.1014 34.4644 68.2978 26.6592 68.2899C15.8494 68.266 7.07255 59.7457 7.09704 49.2983C7.12153 38.851 15.931 30.3625 26.7408 30.3864C30.2107 30.3944 33.6153 31.2862 36.5791 32.9664C38.9876 34.3281 41.2573 36.4144 42.9637 38.8192L47.0296 35.4747C44.964 32.6877 42.2615 30.275 39.2407 28.5709C35.4605 26.4289 31.1497 25.2981 26.7408 25.2902C20.1113 25.2743 13.8654 27.7666 9.14633 32.3055C4.43541 36.8444 1.83094 42.8723 1.81461 49.2904C1.79828 55.7005 4.37826 61.7444 9.06468 66.2912C13.7593 70.8539 19.997 73.3702 26.6347 73.3782C36.5709 73.402 45.2171 68.0351 49.2014 59.3873C50.2464 57.2692 50.8669 54.522 51.0547 51.2094H51.0629C51.0792 51.0024 51.0874 50.6839 51.1037 50.3415V50.0787C51.1282 49.4815 51.1282 48.8843 51.12 48.2632Z" fill="#005A93"/>
</svg>
