<svg width="354" height="128" viewBox="0 0 354 128" fill="none" xmlns="http://www.w3.org/2000/svg">
<path d="M0 64.21C0 40.9 18.9 22 42.21 22C65.52 22 84.42 40.9 84.42 64.21C84.42 87.52 65.52 106.42 42.21 106.42C18.9 106.41 0 87.52 0 64.21Z" fill="#95C11F"/>
<path d="M20.73 42.46V86.94H31.2V70.01C31.2 66.74 32.02 64.4 33.31 62.99C34.6 61.54 36.77 60.82 39.66 60.82C42.19 60.82 44.19 61.48 45.18 62.81C46.17 64.09 46.9 66.06 46.9 68.71V86.95H57.37V67.09C57.37 65.1 57.02 63.3 56.57 61.69C56.17 60.03 55.39 58.65 54.34 57.53C53.3 56.37 51.82 55.48 49.98 54.86C48.19 54.2 45.86 53.87 43.03 53.87C41.04 53.87 39 54.22 36.91 55.09C34.82 55.92 33.1 57.3 31.76 59.04H31.2V42.46H20.73Z" fill="white"/>
<path fill-rule="evenodd" clip-rule="evenodd" d="M66.94 64.27H77.52C77.72 62.53 78.42 61.46 79.61 60.71C80.8 59.96 82.44 59.68 84.53 59.68C85.47 59.68 86.34 59.78 87.14 59.91C87.98 59.99 88.71 60.22 89.3 60.55C89.95 60.84 90.44 61.28 90.79 61.86C91.19 62.4 91.38 63.15 91.38 64.1C91.43 65.01 91.11 65.72 90.41 66.22C89.71 66.67 88.77 67.03 87.58 67.28C86.39 67.53 85.02 67.71 83.48 67.84C81.94 67.96 80.38 68.13 78.78 68.34C77.19 68.55 75.6 68.84 74.01 69.21C72.47 69.54 71.08 70.06 69.84 70.76C68.65 71.46 67.66 72.42 66.86 73.62C66.11 74.78 65.74 76.27 65.74 78.09C65.74 79.75 66.06 81.18 66.71 82.38C67.4 83.58 68.35 84.57 69.54 85.36C70.73 86.15 72.12 86.73 73.71 87.1C75.3 87.47 77.01 87.66 78.85 87.66C81.23 87.66 83.57 87.37 85.86 86.79C88.15 86.21 90.13 85.2 91.82 83.75C91.87 84.29 91.94 84.88 92.04 85.42C92.19 85.92 92.36 86.09 92.56 86.96H103.29C102.79 86.09 102.38 85.25 102.18 83.93C101.98 82.61 101.82 81.17 101.82 79.72V62.99C101.82 61.04 101.36 59.49 100.32 58.33C99.28 57.13 97.97 56.2 96.33 55.53C94.69 54.87 92.89 54.43 90.9 54.23C88.91 53.98 86.96 53.86 85.02 53.86C82.88 53.86 80.75 54.05 78.61 54.42C76.52 54.75 74.64 55.33 72.95 56.16C71.26 56.99 69.87 57.92 68.78 59.28C67.71 60.65 67.09 62.52 66.94 64.27ZM91.38 71.13V74.42C91.38 74.92 91.31 75.58 91.16 76.41C91.06 77.24 90.74 78.07 90.19 78.9C89.64 79.69 88.8 80.37 87.66 80.95C86.52 81.53 84.9 81.82 82.82 81.82C81.97 81.82 81.16 81.76 80.36 81.63C79.56 81.51 78.87 81.3 78.27 81.01C77.67 80.68 77.2 80.24 76.85 79.71C76.5 79.17 76.33 78.51 76.33 77.72C76.33 76.89 76.5 76.21 76.85 75.67C77.2 75.13 77.65 74.7 78.19 74.37C78.79 74 79.46 73.71 80.2 73.5C81 73.29 81.79 73.13 82.58 73C83.43 72.88 84.27 72.77 85.11 72.69C85.96 72.61 86.75 72.5 87.5 72.38C88.29 72.26 89.01 72.11 89.66 71.94C90.37 71.73 90.51 71.46 91.38 71.13Z" fill="white"/>
<path fill-rule="evenodd" clip-rule="evenodd" d="M123.65 49.44V42.46H112.31V49.44H123.65ZM112.31 54.67V86.94H123.65V54.67H112.31Z" fill="white"/>
<path d="M134.12 54.67V86.94H144.59V72.37C144.59 70.92 144.7 69.57 145.05 68.33C145.4 67.09 145.94 66.01 146.73 65.1C147.58 64.15 148.65 63.4 149.99 62.86C151.33 62.32 152.97 62.05 154.9 62.05C155.55 62.05 156.13 62.09 156.83 62.17C157.53 62.21 158.54 62.27 158.54 62.36V54.16C157.67 53.95 157 53.85 156.31 53.85C154.97 53.85 153.72 54.02 152.47 54.35C151.23 54.68 150.08 55.16 148.99 55.78C147.9 56.36 146.94 57.13 146.09 58C145.25 58.83 144.59 59.9 144.09 60.78H143.72V54.68H134.12V54.67Z" fill="white"/>
<path fill-rule="evenodd" clip-rule="evenodd" d="M165.52 32.87V86.95H169.88V79.1H170.19C171.3 81.72 173.1 84.09 175.58 85.56C178.11 87.03 180.97 87.84 184.16 87.84C187.15 87.84 189.73 87.35 191.9 86.29C194.13 85.18 195.98 83.7 197.44 81.83C198.91 79.91 200 77.71 200.71 75.23C201.42 72.7 201.77 70.05 201.77 67.27C201.77 64.49 201.42 61.86 200.71 59.38C200 56.85 198.91 54.65 197.44 52.78C195.97 50.86 194.13 49.34 191.9 48.23C189.72 47.12 187.14 46.56 184.16 46.56C182.74 46.56 181.33 46.74 179.91 47.09C178.49 47.44 177.18 48 175.96 48.76C174.74 49.47 173.66 50.57 172.69 51.64C171.78 52.7 171.07 53.83 170.56 55.58H170.74V32.87H165.52ZM196.99 67.26C196.99 69.28 196.74 71.31 196.23 73.33C195.77 75.3 195.01 77.08 193.95 78.65C192.94 80.22 191.62 81.51 190 82.52C188.38 83.48 186.43 83.96 184.15 83.96C181.62 83.96 179.47 83.48 177.7 82.52C175.98 81.51 174.56 80.22 173.45 78.65C172.39 77.08 171.6 75.31 171.1 73.33C170.64 71.31 170.42 69.28 170.42 67.26C170.42 65.24 170.65 63.24 171.1 61.26C171.61 59.23 172.39 57.44 173.45 55.87C174.56 54.3 175.98 53.04 177.7 52.07C179.47 51.06 181.62 50.55 184.15 50.55C186.43 50.55 188.38 51.06 190 52.07C191.62 53.03 192.94 54.3 193.95 55.87C195.01 57.44 195.77 59.23 196.23 61.26C196.74 63.24 196.99 65.23 196.99 67.26Z" fill="#D9E6B1"/>
<path d="M209.13 54.67V86.94H213.49V69.76C213.49 68.06 214.01 66.51 214.7 65.1C215.4 63.65 216.45 62.41 217.69 61.37C218.98 60.33 220.63 59.55 222.37 59.01C224.11 58.43 225.7 58.18 228.31 58.26V54.36C224.82 54.24 221.74 54.98 219.2 56.39C216.72 57.8 214.79 59.91 213.6 62.52H213.49V54.67H209.13V54.67Z" fill="#D9E6B1"/>
<path fill-rule="evenodd" clip-rule="evenodd" d="M262.65 68.63H237.75C237.95 66.89 238.35 65.75 238.94 64.38C239.59 62.97 240.43 61.74 241.47 60.7C242.51 59.62 243.78 58.77 245.27 58.15C246.76 57.49 248.48 57.15 250.41 57.15C252.3 57.15 253.99 57.48 255.48 58.14C256.97 58.76 258.24 59.61 259.28 60.69C260.33 61.73 261.12 62.95 261.67 64.31C262.28 65.69 262.6 66.89 262.65 68.63ZM237.75 72.12H267.34C267.44 69.5 267.19 67.57 266.6 65.41C266 63.22 265.01 61.23 263.62 59.57C262.28 57.87 260.52 56.48 258.33 55.44C256.15 54.41 253.51 53.87 250.43 53.87C247.4 53.87 244.76 54.36 242.53 55.35C240.34 56.3 238.55 57.58 237.16 59.2C235.77 60.77 234.73 62.57 234.03 64.6C233.38 66.63 233.06 68.7 233.06 70.81C233.06 73.09 233.38 75.26 234.03 77.33C234.73 79.36 235.77 81.16 237.16 82.73C238.55 84.26 240.34 85.48 242.53 86.4C244.77 87.27 247.4 87.7 250.43 87.7C255.3 87.7 259.05 86.8 261.68 84.82C264.36 82.83 266.2 79.96 267.2 76.47H262.5C261.76 79.09 260.41 80.85 258.48 82.34C256.54 83.83 253.86 84.53 250.43 84.53C248.19 84.53 246.28 84.11 244.69 83.32C243.1 82.53 241.78 81.53 240.74 80.33C239.7 79.13 238.93 77.9 238.43 76.41C237.98 74.88 237.75 72.99 237.75 72.12Z" fill="#D9E6B1"/>
<path fill-rule="evenodd" clip-rule="evenodd" d="M276.96 64.27H281.66C281.76 61.65 282.75 59.95 284.64 58.79C286.53 57.59 288.96 57.07 291.94 57.07C293.33 57.07 294.62 57.22 295.82 57.42C297.06 57.59 298.13 57.94 299.02 58.44C299.96 58.94 300.68 59.63 301.18 60.5C301.73 61.33 302 62.41 302 63.74C302 64.61 301.85 65.32 301.55 65.85C301.3 66.39 300.93 66.83 300.43 67.16C299.93 67.45 299.31 67.66 298.57 67.78C297.82 67.9 296.96 68.01 295.96 68.09C293.43 68.34 290.92 68.61 288.43 68.9C286 69.15 283.79 69.6 281.79 70.27C279.85 70.93 278.29 71.91 277.1 73.19C275.91 74.43 275.31 76.17 275.31 78.41C275.31 80.02 275.63 81.43 276.28 82.63C276.97 83.79 277.9 84.76 279.04 85.55C280.23 86.3 281.6 86.84 283.14 87.16C284.73 87.53 286.42 87.72 288.21 87.72C290.1 87.72 291.71 87.58 293.06 87.29C294.45 87 295.67 86.59 296.71 86.05C297.8 85.51 298.77 84.64 299.62 83.85C300.51 83.02 301.38 82.59 302.23 80.85H302.38C302.38 81.72 302.43 82.65 302.53 83.36C302.68 84.02 302.95 84.71 303.35 85.2C303.75 85.7 304.29 86.14 304.99 86.43C305.73 86.68 306.7 86.83 307.9 86.83C308.55 86.83 309.18 86.82 309.58 86.78C310.03 86.74 310.31 86.69 311.18 86.61V83.32C310.31 83.49 310.18 83.57 309.63 83.57C307.79 83.57 306.82 82.78 306.82 81.21V64.17C306.82 62.02 306.34 60.28 305.49 58.95C304.65 57.58 303.52 56.53 302.18 55.78C300.84 55.04 299.31 54.54 297.62 54.29C295.93 54 294.23 53.85 292.54 53.85C290.31 53.85 288.26 54.06 286.43 54.47C284.59 54.88 282.97 55.53 281.58 56.4C280.24 57.27 279.17 58.22 278.37 59.59C277.58 60.96 277.11 62.52 276.96 64.27ZM301.58 69.5V74.42C301.58 75.99 301.42 77.4 300.67 78.64C299.98 79.88 299.11 80.94 297.87 81.81C296.68 82.68 295.31 83.34 293.67 83.8C292.03 84.26 290.34 84.48 288.55 84.48C287.46 84.48 286.4 84.33 285.36 84.04C284.32 83.75 283.4 83.34 282.61 82.8C281.82 82.22 281.17 81.56 280.68 80.81C280.23 80.02 280.01 79.13 280.01 78.14C280.01 76.57 280.56 75.37 281.65 74.54C282.79 73.67 284.23 73.01 285.97 72.55C287.71 72.1 289.62 71.76 291.71 71.56C293.85 71.31 295.91 71.04 297.9 70.75C298.55 70.67 299.29 70.61 300.13 70.4C300.98 70.19 301.55 69.49 301.85 69.49H301.58V69.5Z" fill="#D9E6B1"/>
<path d="M319.9 32.87V86.95H324.26V71.97L332.22 65.56L347.92 86.95H353.91L336.07 62.24L352.78 47.7H346.4L324.26 66.65V32.87H319.9Z" fill="#D9E6B1"/>
</svg>
