<?xml version="1.0" encoding="utf-8"?>
<!-- Generator: Adobe Illustrator 25.4.1, SVG Export Plug-In . SVG Version: 6.00 Build 0)  -->
<svg version="1.1" xmlns="http://www.w3.org/2000/svg" xmlns:xlink="http://www.w3.org/1999/xlink" x="0px" y="0px"
	 viewBox="0 0 415.44 99.09" style="enable-background:new 0 0 415.44 99.09;" xml:space="preserve">
<style type="text/css">
	.st0{fill:#95C11F;}
	.st1{fill:#FFFFFF;}
	.st2{fill-rule:evenodd;clip-rule:evenodd;fill:#FFFFFF;}
	.st3{fill-rule:evenodd;clip-rule:evenodd;fill:#D9E6B1;}
	.st4{fill:#D9E6B1;}
</style>
<g id="Ebene_15">
</g>
<g id="Ebene_14">
</g>
<g id="Ebene_13">
</g>
<g id="Ebene_12">
</g>
<g id="Ebene_11">
</g>
<g id="Ebene_10">
</g>
<g id="Ebene_9">
</g>
<g id="Ebene_8">
</g>
<g id="Ebene_7">
</g>
<g id="Ebene_6">
	<g>
		<path class="st0" d="M30.76,49.55c0-23.31,18.9-42.21,42.21-42.21c23.31,0,42.21,18.9,42.21,42.21c0,23.31-18.9,42.21-42.21,42.21
			C49.66,91.75,30.76,72.86,30.76,49.55L30.76,49.55z"/>
		<path class="st1" d="M51.49,27.8v44.48h10.47V55.35c0-3.27,0.82-5.61,2.11-7.02c1.29-1.45,3.46-2.17,6.35-2.17
			c2.53,0,4.53,0.66,5.52,1.99c0.99,1.28,1.72,3.25,1.72,5.9v18.24h10.47V52.43c0-1.99-0.35-3.79-0.8-5.4
			c-0.4-1.66-1.18-3.04-2.23-4.16c-1.04-1.16-2.52-2.05-4.36-2.67c-1.79-0.66-4.12-0.99-6.95-0.99c-1.99,0-4.03,0.35-6.12,1.22
			c-2.09,0.83-3.81,2.21-5.15,3.95h-0.56V27.8H51.49L51.49,27.8z"/>
		<path class="st2" d="M97.7,49.61h10.58c0.2-1.74,0.9-2.81,2.09-3.56c1.19-0.75,2.83-1.03,4.92-1.03c0.94,0,1.81,0.1,2.61,0.23
			c0.84,0.08,1.57,0.31,2.16,0.64c0.65,0.29,1.14,0.73,1.49,1.31c0.4,0.54,0.59,1.29,0.59,2.24c0.05,0.91-0.27,1.62-0.97,2.12
			c-0.7,0.45-1.64,0.81-2.83,1.06c-1.19,0.25-2.56,0.43-4.1,0.56c-1.54,0.12-3.1,0.29-4.7,0.5c-1.59,0.21-3.18,0.5-4.77,0.87
			c-1.54,0.33-2.93,0.85-4.17,1.55c-1.19,0.7-2.18,1.66-2.98,2.86c-0.75,1.16-1.12,2.65-1.12,4.47c0,1.66,0.32,3.09,0.97,4.29
			c0.69,1.2,1.64,2.19,2.83,2.98c1.19,0.79,2.58,1.37,4.17,1.74c1.59,0.37,3.3,0.56,5.14,0.56c2.38,0,4.72-0.29,7.01-0.87
			c2.29-0.58,4.27-1.59,5.96-3.04c0.05,0.54,0.12,1.13,0.22,1.67c0.15,0.5,0.32,0.67,0.52,1.54h10.73c-0.5-0.87-0.91-1.71-1.11-3.03
			c-0.2-1.32-0.36-2.76-0.36-4.21V48.33c0-1.95-0.46-3.5-1.5-4.66c-1.04-1.2-2.35-2.13-3.99-2.8c-1.64-0.66-3.44-1.1-5.43-1.3
			c-1.99-0.25-3.94-0.37-5.88-0.37c-2.14,0-4.27,0.19-6.41,0.56c-2.09,0.33-3.97,0.91-5.66,1.74c-1.69,0.83-3.08,1.76-4.17,3.12
			C98.47,45.99,97.85,47.86,97.7,49.61L97.7,49.61z M122.14,56.47v3.29c0,0.5-0.07,1.16-0.22,1.99c-0.1,0.83-0.42,1.66-0.97,2.49
			c-0.55,0.79-1.39,1.47-2.53,2.05c-1.14,0.58-2.76,0.87-4.84,0.87c-0.85,0-1.66-0.06-2.46-0.19c-0.8-0.12-1.49-0.33-2.09-0.62
			c-0.6-0.33-1.07-0.77-1.42-1.3c-0.35-0.54-0.52-1.2-0.52-1.99c0-0.83,0.17-1.51,0.52-2.05c0.35-0.54,0.8-0.97,1.34-1.3
			c0.6-0.37,1.27-0.66,2.01-0.87c0.8-0.21,1.59-0.37,2.38-0.5c0.85-0.12,1.69-0.23,2.53-0.31c0.85-0.08,1.64-0.19,2.39-0.31
			c0.79-0.12,1.51-0.27,2.16-0.44C121.13,57.07,121.27,56.8,122.14,56.47L122.14,56.47z"/>
		<path class="st2" d="M154.41,34.78V27.8h-11.34v6.98H154.41L154.41,34.78z M143.07,40.01v32.27h11.34V40.01H143.07L143.07,40.01z"
			/>
		<path class="st1" d="M164.88,40.01v32.27h10.47V57.71c0-1.45,0.11-2.8,0.46-4.04c0.35-1.24,0.89-2.32,1.68-3.23
			c0.85-0.95,1.92-1.7,3.26-2.24c1.34-0.54,2.98-0.81,4.91-0.81c0.65,0,1.23,0.04,1.93,0.12c0.7,0.04,1.71,0.1,1.71,0.19v-8.2
			c-0.87-0.21-1.54-0.31-2.23-0.31c-1.34,0-2.59,0.17-3.84,0.5c-1.24,0.33-2.39,0.81-3.48,1.43c-1.09,0.58-2.05,1.35-2.9,2.22
			c-0.84,0.83-1.5,1.9-2,2.78h-0.37v-6.1H164.88L164.88,40.01z"/>
		<path class="st3" d="M196.28,18.21v54.08h4.36v-7.85h0.31c1.11,2.62,2.91,4.99,5.39,6.46c2.53,1.47,5.39,2.28,8.58,2.28
			c2.99,0,5.57-0.49,7.74-1.55c2.23-1.11,4.08-2.59,5.54-4.46c1.47-1.92,2.56-4.12,3.27-6.6c0.71-2.53,1.06-5.18,1.06-7.96
			c0-2.78-0.35-5.41-1.06-7.89c-0.71-2.53-1.8-4.73-3.27-6.6c-1.47-1.92-3.31-3.44-5.54-4.55c-2.18-1.11-4.76-1.67-7.74-1.67
			c-1.42,0-2.83,0.18-4.25,0.53c-1.42,0.35-2.73,0.91-3.95,1.67c-1.22,0.71-2.3,1.81-3.27,2.88c-0.91,1.06-1.62,2.19-2.13,3.94h0.18
			V18.21H196.28L196.28,18.21z M227.75,52.6c0,2.02-0.25,4.05-0.76,6.07c-0.46,1.97-1.22,3.75-2.28,5.32
			c-1.01,1.57-2.33,2.86-3.95,3.87c-1.62,0.96-3.57,1.44-5.85,1.44c-2.53,0-4.68-0.48-6.45-1.44c-1.72-1.01-3.14-2.3-4.25-3.87
			c-1.06-1.57-1.85-3.34-2.35-5.32c-0.46-2.02-0.68-4.05-0.68-6.07c0-2.02,0.23-4.02,0.68-6c0.51-2.03,1.29-3.82,2.35-5.39
			c1.11-1.57,2.53-2.83,4.25-3.8c1.77-1.01,3.92-1.52,6.45-1.52c2.28,0,4.23,0.51,5.85,1.52c1.62,0.96,2.94,2.23,3.95,3.8
			c1.06,1.57,1.82,3.36,2.28,5.39C227.5,48.58,227.75,50.57,227.75,52.6L227.75,52.6z"/>
		<path class="st4" d="M239.89,40.01v32.27h4.36V55.1c0-1.7,0.52-3.25,1.21-4.66c0.7-1.45,1.75-2.69,2.99-3.73
			c1.29-1.04,2.94-1.82,4.68-2.36c1.74-0.58,3.33-0.83,5.94-0.75V39.7c-3.49-0.12-6.57,0.62-9.11,2.03
			c-2.48,1.41-4.41,3.52-5.6,6.13h-0.11v-7.85H239.89L239.89,40.01z"/>
		<path class="st3" d="M293.41,53.97h-24.9c0.2-1.74,0.6-2.88,1.19-4.25c0.65-1.41,1.49-2.64,2.53-3.68
			c1.04-1.08,2.31-1.93,3.8-2.55c1.49-0.66,3.21-1,5.14-1c1.89,0,3.58,0.33,5.07,0.99c1.49,0.62,2.76,1.47,3.8,2.55
			c1.05,1.04,1.84,2.26,2.39,3.62C293.04,51.03,293.36,52.23,293.41,53.97L293.41,53.97z M268.51,57.46h29.59
			c0.1-2.62-0.15-4.55-0.74-6.71c-0.6-2.19-1.59-4.18-2.98-5.84c-1.34-1.7-3.1-3.09-5.29-4.13c-2.18-1.03-4.82-1.57-7.9-1.57
			c-3.03,0-5.67,0.49-7.9,1.48c-2.19,0.95-3.98,2.23-5.37,3.85c-1.39,1.57-2.43,3.37-3.13,5.4c-0.65,2.03-0.97,4.1-0.97,6.21
			c0,2.28,0.32,4.45,0.97,6.52c0.7,2.03,1.74,3.83,3.13,5.4c1.39,1.53,3.18,2.75,5.37,3.67c2.24,0.87,4.87,1.3,7.9,1.3
			c4.87,0,8.62-0.9,11.25-2.88c2.68-1.99,4.52-4.86,5.52-8.35h-4.7c-0.74,2.62-2.09,4.38-4.02,5.87c-1.94,1.49-4.62,2.19-8.05,2.19
			c-2.24,0-4.15-0.42-5.74-1.21c-1.59-0.79-2.91-1.79-3.95-2.99c-1.04-1.2-1.81-2.43-2.31-3.92
			C268.74,60.22,268.51,58.33,268.51,57.46L268.51,57.46z"/>
		<path class="st3" d="M307.72,49.61h4.7c0.1-2.62,1.09-4.32,2.98-5.48c1.89-1.2,4.32-1.72,7.3-1.72c1.39,0,2.68,0.15,3.88,0.35
			c1.24,0.17,2.31,0.52,3.2,1.02c0.94,0.5,1.66,1.19,2.16,2.06c0.55,0.83,0.82,1.91,0.82,3.24c0,0.87-0.15,1.58-0.45,2.11
			c-0.25,0.54-0.62,0.98-1.12,1.31c-0.5,0.29-1.12,0.5-1.86,0.62c-0.75,0.12-1.61,0.23-2.61,0.31c-2.53,0.25-5.04,0.52-7.53,0.81
			c-2.43,0.25-4.64,0.7-6.64,1.37c-1.94,0.66-3.5,1.64-4.69,2.92c-1.19,1.24-1.79,2.98-1.79,5.22c0,1.61,0.32,3.02,0.97,4.22
			c0.69,1.16,1.62,2.13,2.76,2.92c1.19,0.75,2.56,1.29,4.1,1.61c1.59,0.37,3.28,0.56,5.07,0.56c1.89,0,3.5-0.14,4.85-0.43
			c1.39-0.29,2.61-0.7,3.65-1.24c1.09-0.54,2.06-1.41,2.91-2.2c0.89-0.83,1.76-1.26,2.61-3h0.15c0,0.87,0.05,1.8,0.15,2.51
			c0.15,0.66,0.42,1.35,0.82,1.84c0.4,0.5,0.94,0.94,1.64,1.23c0.74,0.25,1.71,0.4,2.91,0.4c0.65,0,1.28-0.01,1.68-0.05
			c0.45-0.04,0.73-0.09,1.6-0.17v-3.29c-0.87,0.17-1,0.25-1.55,0.25c-1.84,0-2.81-0.79-2.81-2.36V49.51c0-2.15-0.48-3.89-1.33-5.22
			c-0.84-1.37-1.97-2.42-3.31-3.17c-1.34-0.74-2.87-1.24-4.56-1.49c-1.69-0.29-3.39-0.44-5.08-0.44c-2.23,0-4.28,0.21-6.11,0.62
			c-1.84,0.41-3.46,1.06-4.85,1.93c-1.34,0.87-2.41,1.82-3.21,3.19C308.34,46.3,307.87,47.86,307.72,49.61L307.72,49.61z
			 M332.34,54.84v4.92c0,1.57-0.16,2.98-0.91,4.22c-0.69,1.24-1.56,2.3-2.8,3.17c-1.19,0.87-2.56,1.53-4.2,1.99
			c-1.64,0.46-3.33,0.68-5.12,0.68c-1.09,0-2.15-0.15-3.19-0.44c-1.04-0.29-1.96-0.7-2.75-1.24c-0.79-0.58-1.44-1.24-1.93-1.99
			c-0.45-0.79-0.67-1.68-0.67-2.67c0-1.57,0.55-2.77,1.64-3.6c1.14-0.87,2.58-1.53,4.32-1.99c1.74-0.45,3.65-0.79,5.74-0.99
			c2.14-0.25,4.2-0.52,6.19-0.81c0.65-0.08,1.39-0.14,2.23-0.35c0.85-0.21,1.42-0.91,1.72-0.91H332.34L332.34,54.84z"/>
		<polygon class="st4" points="350.66,18.21 350.66,72.29 355.02,72.29 355.02,57.31 362.98,50.9 378.68,72.29 384.67,72.29 
			366.83,47.58 383.54,33.04 377.16,33.04 355.02,51.99 355.02,18.21 350.66,18.21 		"/>
	</g>
</g>
<g id="Ebene_5">
</g>
<g id="Ebene_4">
</g>
</svg>
