<svg width="150" height="79" viewBox="0 0 150 79" fill="none" xmlns="http://www.w3.org/2000/svg">
<path d="M0 39.0886C0 29.2547 8.00847 21.2812 17.8856 21.2812C27.7627 21.2812 35.7712 29.2547 35.7712 39.0886C35.7712 48.9225 27.7627 56.8959 17.8856 56.8959C8.00847 56.8917 0 48.9225 0 39.0886Z" fill="#95C11F"/>
<path d="M8.78391 29.9128V48.6778H13.2203V41.5354C13.2203 40.1559 13.5678 39.1687 14.1144 38.5739C14.661 37.9622 15.5805 37.6584 16.8051 37.6584C17.8771 37.6584 18.7246 37.9368 19.1441 38.4979C19.5636 39.0379 19.8729 39.869 19.8729 40.987V48.682H24.3093V40.3036C24.3093 39.464 24.161 38.7047 23.9704 38.0254C23.8009 37.3251 23.4704 36.7429 23.0254 36.2704C22.5848 35.7811 21.9576 35.4056 21.178 35.144C20.4195 34.8656 19.4322 34.7264 18.2331 34.7264C17.3898 34.7264 16.5254 34.874 15.6398 35.2411C14.7542 35.5912 14.0254 36.1734 13.4576 36.9075H13.2203V29.9128H8.78391Z" fill="white"/>
<path fill-rule="evenodd" clip-rule="evenodd" d="M28.3644 39.1139H32.8475C32.9322 38.3799 33.2288 37.9285 33.733 37.6121C34.2373 37.2957 34.9322 37.1775 35.8178 37.1775C36.2161 37.1775 36.5847 37.2197 36.9237 37.2746C37.2797 37.3083 37.589 37.4054 37.839 37.5446C38.1144 37.6669 38.322 37.8525 38.4703 38.0972C38.6398 38.325 38.7203 38.6414 38.7203 39.0422C38.7415 39.4261 38.6059 39.7257 38.3093 39.9366C38.0127 40.1264 37.6144 40.2783 37.1102 40.3838C36.6059 40.4893 36.0254 40.5652 35.3729 40.62C34.7203 40.6707 34.0593 40.7424 33.3814 40.831C32.7076 40.9196 32.0339 41.0419 31.3602 41.198C30.7076 41.3372 30.1186 41.5566 29.5932 41.8519C29.089 42.1472 28.6695 42.5522 28.3305 43.0585C28.0127 43.5479 27.8559 44.1764 27.8559 44.9443C27.8559 45.6446 27.9915 46.2479 28.2669 46.7541C28.5593 47.2604 28.9619 47.678 29.4661 48.0113C29.9703 48.3446 30.5593 48.5893 31.233 48.7454C31.9068 48.9014 32.6314 48.9816 33.411 48.9816C34.4195 48.9816 35.411 48.8593 36.3814 48.6146C37.3517 48.3699 38.1907 47.9438 38.9068 47.3321C38.928 47.5599 38.9576 47.8088 39 48.0366C39.0636 48.2475 39.1356 48.3193 39.2203 48.6863H43.7669C43.5551 48.3193 43.3814 47.9649 43.2966 47.408C43.2119 46.8511 43.1441 46.2436 43.1441 45.6319V38.5739C43.1441 37.7513 42.9491 37.0974 42.5085 36.608C42.0678 36.1018 41.5127 35.7094 40.8178 35.4268C40.1229 35.1483 39.3602 34.9627 38.5169 34.8783C37.6737 34.7729 36.8475 34.7222 36.0254 34.7222C35.1186 34.7222 34.2161 34.8024 33.3093 34.9585C32.4237 35.0977 31.6271 35.3424 30.911 35.6925C30.1949 36.0427 29.6059 36.435 29.1441 37.0088C28.6907 37.5868 28.428 38.3757 28.3644 39.1139ZM38.7203 42.008V43.396C38.7203 43.6069 38.6907 43.8854 38.6271 44.2355C38.5847 44.5857 38.4491 44.9358 38.2161 45.286C37.983 45.6193 37.6271 45.9061 37.1441 46.1508C36.661 46.3955 35.9746 46.5179 35.0932 46.5179C34.733 46.5179 34.3898 46.4925 34.0508 46.4377C33.7119 46.3871 33.4195 46.2985 33.1652 46.1761C32.911 46.0369 32.7119 45.8513 32.5636 45.6277C32.4152 45.3999 32.3432 45.1214 32.3432 44.7882C32.3432 44.438 32.4152 44.1511 32.5636 43.9233C32.7119 43.6955 32.9025 43.5141 33.1314 43.3749C33.3856 43.2188 33.6695 43.0964 33.983 43.0079C34.322 42.9193 34.6568 42.8518 34.9915 42.7969C35.3517 42.7463 35.7076 42.6999 36.0636 42.6661C36.4237 42.6324 36.7585 42.586 37.0763 42.5354C37.411 42.4847 37.7161 42.4214 37.9915 42.3497C38.2924 42.2611 38.3517 42.1472 38.7203 42.008Z" fill="white"/>
<path fill-rule="evenodd" clip-rule="evenodd" d="M52.3941 32.8575V29.9128H47.589V32.8575H52.3941ZM47.589 35.0639V48.6778H52.3941V35.0639H47.589Z" fill="white"/>
<path d="M56.8305 35.064V48.6779H61.2669V42.5311C61.2669 41.9194 61.3136 41.3499 61.4619 40.8268C61.6102 40.3036 61.839 39.848 62.1737 39.4641C62.5339 39.0633 62.9873 38.7469 63.5551 38.5191C64.1229 38.2913 64.8178 38.1774 65.6356 38.1774C65.911 38.1774 66.1568 38.1943 66.4534 38.228C66.75 38.2449 67.178 38.2702 67.178 38.3082V34.8488C66.8093 34.7602 66.5254 34.718 66.233 34.718C65.6652 34.718 65.1356 34.7897 64.6059 34.929C64.0805 35.0682 63.5932 35.2707 63.1314 35.5322C62.6695 35.7769 62.2627 36.1018 61.9025 36.4688C61.5466 36.819 61.2669 37.2704 61.0551 37.6416H60.8983V35.0682H56.8305V35.064Z" fill="white"/>
<path fill-rule="evenodd" clip-rule="evenodd" d="M70.1356 25.8671V48.6821H71.9831V45.3703H72.1144C72.5847 46.4757 73.3475 47.4755 74.3983 48.0957C75.4703 48.7158 76.6822 49.0575 78.0339 49.0575C79.3009 49.0575 80.3941 48.8508 81.3136 48.4036C82.2585 47.9353 83.0424 47.311 83.661 46.5221C84.2839 45.7121 84.7458 44.7839 85.0466 43.7377C85.3475 42.6703 85.4958 41.5524 85.4958 40.3796C85.4958 39.2067 85.3475 38.0972 85.0466 37.051C84.7458 35.9836 84.2839 35.0555 83.661 34.2666C83.0381 33.4566 82.2585 32.8153 81.3136 32.3471C80.3898 31.8788 79.2966 31.6425 78.0339 31.6425C77.4322 31.6425 76.8348 31.7185 76.2331 31.8661C75.6314 32.0138 75.0763 32.25 74.5593 32.5707C74.0424 32.8702 73.5847 33.3343 73.1737 33.7857C72.7881 34.2328 72.4873 34.7096 72.2712 35.4478H72.3475V25.8671H70.1356ZM83.4704 40.3753C83.4704 41.2275 83.3644 42.0839 83.1483 42.9361C82.9534 43.7672 82.6314 44.5182 82.1822 45.1805C81.7542 45.8428 81.1949 46.3871 80.5085 46.8132C79.822 47.2182 78.9958 47.4207 78.0297 47.4207C76.9576 47.4207 76.0466 47.2182 75.2966 46.8132C74.5678 46.3871 73.9661 45.8428 73.4958 45.1805C73.0466 44.5182 72.7119 43.7714 72.5 42.9361C72.3051 42.0839 72.2119 41.2275 72.2119 40.3753C72.2119 39.5232 72.3093 38.6794 72.5 37.8441C72.7161 36.9877 73.0466 36.2325 73.4958 35.5702C73.9661 34.9078 74.5678 34.3763 75.2966 33.9671C76.0466 33.541 76.9576 33.3258 78.0297 33.3258C78.9958 33.3258 79.822 33.541 80.5085 33.9671C81.1949 34.3721 81.7542 34.9078 82.1822 35.5702C82.6314 36.2325 82.9534 36.9877 83.1483 37.8441C83.3644 38.6794 83.4704 39.5189 83.4704 40.3753Z" fill="#D9E6B1"/>
<path d="M88.6144 35.0639V48.6778H90.4619V41.43C90.4619 40.7128 90.6822 40.0589 90.9746 39.4641C91.2712 38.8523 91.7161 38.3292 92.2415 37.8905C92.7881 37.4517 93.4873 37.1227 94.2246 36.8948C94.9619 36.6502 95.6356 36.5447 96.7415 36.5784V34.9331C95.2627 34.8825 93.9576 35.1947 92.8814 35.7895C91.8305 36.3844 91.0127 37.2745 90.5085 38.3756H90.4619V35.0639H88.6144Z" fill="#D9E6B1"/>
<path fill-rule="evenodd" clip-rule="evenodd" d="M111.292 40.9533H100.742C100.826 40.2192 100.996 39.7383 101.246 39.1603C101.521 38.5654 101.877 38.0465 102.318 37.6078C102.758 37.1522 103.297 36.7936 103.928 36.532C104.559 36.2536 105.288 36.1101 106.106 36.1101C106.907 36.1101 107.623 36.2493 108.254 36.5278C108.886 36.7893 109.424 37.1479 109.864 37.6036C110.309 38.0423 110.644 38.557 110.877 39.1308C111.136 39.7129 111.271 40.2192 111.292 40.9533ZM100.742 42.4256H113.28C113.322 41.3203 113.216 40.5061 112.966 39.5948C112.712 38.6709 112.292 37.8314 111.703 37.1311C111.136 36.4139 110.39 35.8275 109.462 35.3887C108.538 34.9542 107.419 34.7264 106.114 34.7264C104.831 34.7264 103.712 34.9331 102.767 35.3508C101.839 35.7515 101.081 36.2915 100.492 36.975C99.9026 37.6373 99.4619 38.3967 99.1653 39.2531C98.8898 40.1095 98.7542 40.9828 98.7542 41.8729C98.7542 42.8348 98.8898 43.7503 99.1653 44.6236C99.4619 45.48 99.9026 46.2393 100.492 46.9017C101.081 47.5472 101.839 48.0618 102.767 48.45C103.716 48.817 104.831 48.9984 106.114 48.9984C108.178 48.9984 109.767 48.6187 110.881 47.7834C112.017 46.9439 112.797 45.7331 113.22 44.2608H111.229C110.915 45.3661 110.343 46.1086 109.525 46.7372C108.703 47.3658 107.568 47.6611 106.114 47.6611C105.165 47.6611 104.356 47.4839 103.682 47.1506C103.008 46.8173 102.449 46.3954 102.008 45.8892C101.568 45.3829 101.242 44.864 101.03 44.2354C100.839 43.59 100.742 42.7926 100.742 42.4256Z" fill="#D9E6B1"/>
<path fill-rule="evenodd" clip-rule="evenodd" d="M117.356 39.114H119.347C119.39 38.0086 119.809 37.2915 120.61 36.8021C121.411 36.2958 122.441 36.0765 123.703 36.0765C124.292 36.0765 124.839 36.1397 125.347 36.2241C125.873 36.2958 126.326 36.4435 126.703 36.6544C127.102 36.8654 127.407 37.1565 127.619 37.5235C127.852 37.8736 127.966 38.3293 127.966 38.8904C127.966 39.2574 127.903 39.5569 127.775 39.7805C127.67 40.0083 127.513 40.194 127.301 40.3332C127.089 40.4555 126.826 40.5441 126.513 40.5947C126.195 40.6454 125.831 40.6918 125.407 40.7255C124.335 40.831 123.271 40.9449 122.216 41.0672C121.186 41.1727 120.25 41.3625 119.403 41.6452C118.581 41.9236 117.92 42.3371 117.415 42.8771C116.911 43.4002 116.657 44.1343 116.657 45.0793C116.657 45.7585 116.792 46.3533 117.068 46.8596C117.36 47.349 117.754 47.7582 118.237 48.0915C118.742 48.4079 119.322 48.6357 119.975 48.7707C120.648 48.9268 121.364 49.0069 122.123 49.0069C122.924 49.0069 123.606 48.9479 124.178 48.8255C124.767 48.7032 125.284 48.5302 125.725 48.3024C126.186 48.0746 126.597 47.7075 126.958 47.3743C127.335 47.0241 127.703 46.8427 128.064 46.1086H128.127C128.127 46.4757 128.148 46.868 128.191 47.1675C128.254 47.446 128.369 47.7371 128.538 47.9438C128.708 48.1547 128.936 48.3404 129.233 48.4627C129.547 48.5682 129.958 48.6315 130.466 48.6315C130.742 48.6315 131.008 48.6272 131.178 48.6104C131.369 48.5935 131.487 48.5724 131.856 48.5386V47.1507C131.487 47.2224 131.432 47.2561 131.199 47.2561C130.42 47.2561 130.008 46.9229 130.008 46.2605V39.0718C130.008 38.1647 129.805 37.4307 129.445 36.8696C129.089 36.2916 128.61 35.8486 128.042 35.5322C127.475 35.22 126.826 35.0091 126.11 34.9036C125.394 34.7813 124.674 34.718 123.958 34.718C123.013 34.718 122.144 34.8066 121.369 34.9796C120.589 35.1525 119.903 35.4268 119.314 35.7938C118.746 36.1608 118.292 36.5616 117.953 37.1396C117.619 37.7175 117.42 38.3757 117.356 39.114ZM127.788 41.3204V43.396C127.788 44.0583 127.72 44.6532 127.403 45.1763C127.11 45.6994 126.742 46.1466 126.216 46.5136C125.712 46.8807 125.131 47.1591 124.436 47.3532C123.742 47.5472 123.025 47.64 122.267 47.64C121.805 47.64 121.356 47.5768 120.915 47.4544C120.475 47.3321 120.085 47.1591 119.75 46.9313C119.415 46.6866 119.14 46.4082 118.932 46.0918C118.742 45.7585 118.648 45.383 118.648 44.9654C118.648 44.303 118.881 43.7968 119.343 43.4466C119.826 43.0796 120.436 42.8011 121.174 42.6071C121.911 42.4172 122.72 42.2738 123.606 42.1894C124.513 42.084 125.386 41.97 126.229 41.8477C126.504 41.814 126.818 41.7886 127.174 41.7C127.534 41.6115 127.775 41.3161 127.903 41.3161H127.788V41.3204Z" fill="#D9E6B1"/>
<path d="M135.551 25.8671V48.6821H137.398V42.3624L140.771 39.6582L147.424 48.6821H149.962L142.403 38.2575L149.483 32.1235H146.78L137.398 40.118V25.8671H135.551Z" fill="#D9E6B1"/>
</svg>
