<?xml version="1.0" encoding="utf-8"?>
<!-- Generator: Adobe Illustrator 25.4.1, SVG Export Plug-In . SVG Version: 6.00 Build 0)  -->
<svg version="1.1" id="Layer_1" xmlns="http://www.w3.org/2000/svg" xmlns:xlink="http://www.w3.org/1999/xlink" x="0px" y="0px"
	 viewBox="0 0 978.24 138.86" style="enable-background:new 0 0 978.24 138.86;" xml:space="preserve">
<style type="text/css">
	.st0{fill-rule:evenodd;clip-rule:evenodd;fill:#DA291C;}
	.st1{fill-rule:evenodd;clip-rule:evenodd;}
</style>
<g>
	<g>
		<path class="st0" d="M121.28,85.97V36.19L96.25,23.68v51.47c2.64,1.46,5.32,2.86,8.07,4.18
			C109.81,81.94,115.47,84.16,121.28,85.97 M60.46,47.21c6.96,7.55,14.73,14.29,23.19,20.11V17.37l-12.81-6.4L20.4,36.19V78.6
			l35.57-36.29L60.46,47.21 M121.28,99.15c-7.69-2.17-15.18-4.99-22.39-8.44c-0.89-0.42-1.75-0.88-2.63-1.32v22.46h25.02V99.15"/>
		<path class="st0" d="M83.65,82.39c-10.11-6.18-19.47-13.51-27.88-21.85L20.4,96.62v15.23h63.25L83.65,82.39"/>
	</g>
	<g>
		<path class="st1" d="M224.26,77.82h-37.81v34.02h-14.58V36.23h14.58v28.63h37.81V36.23h14.58v75.61h-14.58V77.82 M278.53,99.97
			c8.21,0,13.82-6.37,13.82-14.26c0-7.88-5.61-14.36-13.82-14.36c-8.21,0-13.83,6.48-13.83,14.36
			C264.7,93.59,270.32,99.97,278.53,99.97z M278.53,58.38c15.88,0,27.87,12.2,27.87,27.32s-11.99,27.22-27.87,27.22
			c-15.88,0-27.87-12.1-27.87-27.22C250.66,70.58,262.65,58.38,278.53,58.38z M356.81,111.85c-1.83,0.65-6.04,1.08-8.75,1.08
			c-8.42,0-14.58-2.81-18.14-7.57c-2.7-3.56-3.89-8.21-3.89-15.66V71.34h-14.58V59.46h14.58V44.88h14.04v14.58h17.29v11.88h-17.29
			v19.98c0,3.24,0.54,5.19,1.73,6.59c1.4,1.62,3.67,2.59,7.13,2.59c2.05,0,4.75-0.33,5.73-0.54L356.81,111.85 M399.93,78.9
			c-0.43-4.64-4.64-9.19-10.37-9.19c-5.83,0-10.58,4.44-11.23,9.19C378.33,78.9,399.93,78.9,399.93,78.9z M413.01,103.53
			c-5.08,6.05-13.4,9.4-21.49,9.4c-15.66,0-27.44-10.8-27.44-27.22c0-14.58,9.94-27.32,25.49-27.32c14.48,0,24.73,12.2,24.73,26.79
			c0,1.4-0.1,2.81-0.32,3.99h-36.3c0.76,7.35,6.7,12.42,14.16,12.42c5.93,0,10.69-3.34,13.17-6.04L413.01,103.53L413.01,103.53z
			 M425.48,111.85h14.04V35.15h-14.04L425.48,111.85z M454.09,111.85h14.04V35.15h-14.04V111.85z M515.24,78.9
			c-0.43-4.64-4.64-9.19-10.37-9.19c-5.83,0-10.58,4.44-11.23,9.19C493.64,78.9,515.24,78.9,515.24,78.9z M528.31,103.53
			c-5.08,6.05-13.4,9.4-21.5,9.4c-15.66,0-27.43-10.8-27.43-27.22c0-14.58,9.94-27.32,25.49-27.32c14.47,0,24.73,12.2,24.73,26.79
			c0,1.4-0.1,2.81-0.33,3.99h-36.29c0.76,7.35,6.7,12.42,14.15,12.42c5.94,0,10.69-3.34,13.18-6.04L528.31,103.53z M572.7,71.88
			c-0.97-0.33-3.02-0.54-5.08-0.54c-6.16,0-11.01,4.43-12.75,7.56v32.94h-14.04V59.46h13.5v5.29c3.13-3.89,8.86-6.37,15.22-6.37
			c2.06,0,3.25,0.22,4.76,0.43L572.7,71.88 M583.14,111.85h14.04V59.46h-14.04V111.85z M590.16,31.91c5.08,0,9.19,3.89,9.19,8.97
			c0,5.07-4.11,8.96-9.19,8.96c-5.07,0-9.18-3.89-9.18-8.96C580.97,35.8,585.08,31.91,590.16,31.91L590.16,31.91z M643.72,78.9
			c-0.43-4.64-4.64-9.19-10.37-9.19c-5.83,0-10.58,4.44-11.23,9.19C622.12,78.9,643.72,78.9,643.72,78.9z M656.79,103.53
			c-5.08,6.05-13.4,9.4-21.5,9.4c-15.66,0-27.43-10.8-27.43-27.22c0-14.58,9.94-27.32,25.49-27.32c14.47,0,24.73,12.2,24.73,26.79
			c0,1.4-0.11,2.81-0.33,3.99h-36.29c0.76,7.35,6.7,12.42,14.15,12.42c5.94,0,10.69-3.34,13.18-6.04L656.79,103.53z M674.72,91.65
			c4.32,4.75,10.91,8.32,17.82,8.32c6.48,0,11.01-4,11.01-9.51c0-9.72-14.04-10.91-24.19-16.85c-5.94-3.46-10.69-8.64-10.69-17.17
			c0-13.5,12.42-21.28,24.95-21.28c7.67,0,14.8,1.84,21.93,7.13l-7.57,10.8c-3.02-2.81-8.1-4.96-13.07-4.96
			c-5.51,0-11.66,2.37-11.66,8.21c0,12.21,34.89,8.43,34.89,33.92c0,13.39-11.99,22.68-25.6,22.68c-10.16,0-19.55-4.21-27.33-11.34
			L674.72,91.65 M778.52,59.46v52.39h-13.51v-4.21c-4.1,3.67-9.07,5.29-14.15,5.29c-6.9,0.01-13.45-3.08-17.82-8.42
			c-3.35-4.11-5.29-9.51-5.29-17.29V59.46h14.04v28.3c0,4.75,0.98,7.13,2.6,8.97c2.16,2.37,5.19,3.24,7.89,3.24
			c5.94,0,10.26-4,12.2-6.48V59.46H778.52 M793.25,111.85h14.04V59.46h-14.04L793.25,111.85L793.25,111.85z M800.27,31.91
			c5.08,0,9.19,3.89,9.19,8.97c0,5.07-4.11,8.96-9.19,8.96c-5.07,0-9.18-3.89-9.18-8.96C791.09,35.8,795.2,31.91,800.27,31.91
			L800.27,31.91z M823.82,95.86c3.56,3.24,9.07,5.19,14.37,5.19c3.78,0,6.7-1.84,6.7-4.43c0-7.89-25.39-5.08-25.39-21.93
			c0-10.05,9.72-16.31,20.09-16.31c6.81,0,14.26,2.59,17.72,5.29l-6.59,10.15c-2.7-1.94-6.26-3.56-10.05-3.56
			c-3.89,0-7.13,1.51-7.13,4.21c0,6.81,25.38,4.1,25.38,22.25c0,10.04-9.83,16.2-20.85,16.2c-7.24,0-14.91-2.49-21.07-7.02
			L823.82,95.86 M872.16,95.86c3.57,3.24,9.08,5.19,14.37,5.19c3.78,0,6.7-1.84,6.7-4.43c0-7.89-25.38-5.08-25.38-21.93
			c0-10.05,9.72-16.31,20.09-16.31c6.81,0,14.26,2.59,17.72,5.29l-6.59,10.15c-2.7-1.94-6.26-3.56-10.04-3.56
			c-3.89,0-7.13,1.51-7.13,4.21c0,6.81,25.39,4.1,25.39,22.25c0,10.04-9.84,16.2-20.85,16.2c-7.24,0-14.91-2.49-21.07-7.02
			L872.16,95.86 M950.53,78.9c-0.43-4.64-4.64-9.19-10.37-9.19c-5.83,0-10.58,4.44-11.23,9.19H950.53L950.53,78.9z M963.6,103.53
			c-5.07,6.05-13.39,9.4-21.49,9.4c-15.66,0-27.43-10.8-27.43-27.22c0-14.58,9.94-27.32,25.49-27.32c14.47,0,24.73,12.2,24.73,26.79
			c0,1.4-0.1,2.81-0.32,3.99h-36.29c0.76,7.35,6.7,12.42,14.15,12.42c5.94,0,10.69-3.34,13.18-6.04L963.6,103.53L963.6,103.53z"/>
	</g>
</g>
</svg>
