<?xml version="1.0" encoding="utf-8"?>
<!-- Generator: Adobe Illustrator 25.4.1, SVG Export Plug-In . SVG Version: 6.00 Build 0)  -->
<svg version="1.1" id="Ebene_1" xmlns="http://www.w3.org/2000/svg" xmlns:xlink="http://www.w3.org/1999/xlink" x="0px" y="0px"
	 viewBox="0 0 283.46 133.66" style="enable-background:new 0 0 283.46 133.66;" xml:space="preserve">
<style type="text/css">
	.st0{fill-rule:evenodd;clip-rule:evenodd;fill:#004A8F;}
	.st1{fill:#004A8F;}
	.st2{fill:#ED1846;}
</style>
<g>
	<polyline class="st0" points="194.2,76.5 194.2,34.8 205.79,34.8 205.79,76.5 194.2,76.5 	"/>
	<path class="st1" d="M193.38,24.78c0-3.63,2.94-6.57,6.57-6.57c3.63,0,6.57,2.94,6.57,6.57c0,3.63-2.94,6.57-6.57,6.57
		C196.33,31.34,193.38,28.4,193.38,24.78"/>
	<path class="st1" d="M44.81,9.39c-1.08,0-2.09,0.09-3.16,0.17c0.37,1.14,0.63,2.57,0.63,3.96c0,7.06-5.7,12.78-12.75,12.78
		c-5.3,0-9.83-3.19-11.76-7.78C7.4,26.37,0.56,38.59,0,52.44v3.98C1.09,79.5,19.61,98,42.67,99.09h4.28
		c15.79-0.74,29.41-9.65,36.8-22.59H68.54c-4.36,0-11.73,0.42-15.84-2.33c-4.85-3.25-6.96-7.01-6.96-16.18V23.66l12.01-0.01V34.8
		h8.25v5.45h-8.25v15.96c0,6.22,0.18,11.49,3.32,13.45c2.67,1.67,4.42,1.63,7.54,1.64l17.69,0.01c2.16-5.26,3.35-11.01,3.35-17.05
		C89.64,29.48,69.59,9.39,44.81,9.39z M35.52,76.5l-12.02,0.01l0-41.71h12.02V76.5z"/>
	<path class="st2" d="M29.52,9.39c0,5.18-4.2,9.41-9.4,9.41c-5.18,0-9.39-4.23-9.39-9.41c0-5.18,4.22-9.39,9.39-9.39
		C25.32,0,29.52,4.21,29.52,9.39"/>
	<path class="st1" d="M283.46,76.5c-4.36,0-11.76,0.42-15.87-2.33c-4.85-3.25-6.96-7.01-6.96-16.18V23.66l11.74-0.01V34.8h8.51v5.46
		h-8.51v15.76c0,6.23,0.06,12.29,3.18,13.91c2.8,1.45,4.79,1.37,7.91,1.37V76.5"/>
	<path class="st0" d="M240.82,64.41c0,0,0-5.31,0-8.77c0-3.44,0.01-7.63-0.22-9.7c-0.15-1.33-0.79-2.89-2.14-4
		c-0.85-0.7-2.72-1.71-5.17-1.7c-2.21,0.01-4.01,0.62-5.31,1.7c-1.24,1.04-1.92,2.24-2.09,3.77c-0.38,3.53-0.3,6.47-0.3,9.93
		c0,3.44,0,8.77,0,8.77V76.5h-11.62l0-12.09c0,0,0.02-5.32,0.02-8.77c0-3.46,0-5.24,0.1-8.83c0.26-9.23,9.08-12.92,19.21-12.92
		c9.59,0,18.9,3.69,19.05,13.02c0.06,3.75,0.12,5.28,0.12,8.74c0,3.46-0.03,8.77-0.03,8.77l0.06,12.09h-11.68V64.41"/>
	<path class="st0" d="M174.66,55.64c0-3.44,0-7.63-0.22-9.7c-0.14-1.33-0.78-2.89-2.14-4.01c-0.85-0.7-2.72-1.71-5.17-1.7
		c-2.21,0.01-4.01,0.62-5.31,1.7c-1.24,1.04-1.92,2.24-2.09,3.77c-0.38,3.53-0.3,6.47-0.3,9.93c0,3.46-0.07,6.4,0.31,9.93
		c0.17,1.54,0.84,2.73,2.08,3.77c1.29,1.09,3.09,1.7,5.31,1.7c2.45,0.01,4.32-1,5.17-1.7c1.36-1.11,2-2.67,2.14-4
		C174.67,63.26,174.66,59.09,174.66,55.64 M147.86,55.64c0-3.46-0.03-5.24,0.07-8.83c0.26-9.23,9.08-12.92,19.21-12.92
		c9.59,0,18.9,3.69,19.05,13.02c0.06,3.75,0.12,5.28,0.12,8.74c0,3.46-0.05,4.98-0.12,8.73c-0.15,9.33-9.46,13.01-19.05,13.02
		c-10.13,0-18.96-3.69-19.21-12.92C147.83,60.88,147.86,59.1,147.86,55.64z"/>
	<path class="st0" d="M113.46,55.64l-0.01,15.54l7.38-0.06c2.45,0.01,4.68-0.82,5.53-1.52c1.36-1.11,2-2.67,2.14-4.01
		c0.23-2.08,0.19-6.5,0.19-9.95c0-3.44,0-7.63-0.22-9.7c-0.15-1.33-0.79-2.89-2.14-4.01c-0.85-0.7-2.72-1.71-5.17-1.7
		c-2.21,0.01-4.01,0.62-5.31,1.7c-1.24,1.04-1.92,2.24-2.09,3.77C113.38,49.23,113.46,52.17,113.46,55.64 M121.2,76.62h-7.75v9.52
		h-11.58v-9.52h-6.07v-5.45h6.07l-0.01-15.53c0-3.46-0.05-5.24,0.05-8.83c0.26-9.23,9.08-12.92,19.21-12.92
		c9.59,0,18.9,3.69,19.05,13.02c0.06,3.75,0.12,5.28,0.12,8.74c0,3.46-0.03,4.08-0.09,7.84C140.04,72.81,130.79,76.62,121.2,76.62z"
		/>
	<g>
		<g>
			<path class="st1" d="M8.57,116.83H2.69v-2.38h14.45v2.38h-5.87v16.51H8.57V116.83z"/>
			<path class="st1" d="M17.63,119.54h2.38v2.14h0.05c0.68-1.43,2.14-2.46,3.6-2.46c0.76,0,1.14,0.08,1.68,0.19v2.27
				c-0.46-0.19-0.97-0.24-1.41-0.24c-2.27,0-3.76,2.17-3.76,5.63v6.28h-2.54V119.54z"/>
			<path class="st1" d="M40.37,133.34h-2.46v-2.19h-0.05c-0.76,1.57-2.6,2.52-4.52,2.52c-3.57,0-5.17-2.22-5.17-5.93v-8.2h2.54v7.15
				c0,3.22,0.7,4.79,2.92,4.93c2.9,0,4.2-2.33,4.2-5.68v-6.39h2.54V133.34z"/>
			<path class="st1" d="M43.67,130.63c1,0.65,2.44,0.97,3.17,0.97c1.16,0,2.6-0.49,2.6-1.98c0-2.52-5.98-2.3-5.98-6.17
				c0-2.87,2.14-4.25,4.87-4.25c1.19,0,2.17,0.24,3.17,0.54l-0.22,2.22c-0.57-0.35-2.08-0.7-2.68-0.7c-1.3,0-2.44,0.54-2.44,1.68
				c0,2.81,5.98,2,5.98,6.41c0,2.95-2.35,4.3-4.82,4.3c-1.3,0-2.63-0.14-3.79-0.76L43.67,130.63z"/>
			<path class="st1" d="M62.56,121.59h-3.65v7.55c0,1.6,0.97,2.46,2.14,2.46c0.78,0,1.35-0.24,1.73-0.49v2.17
				c-0.57,0.16-1.35,0.38-2.17,0.38c-2.63,0-4.25-1.24-4.25-4.01v-8.07h-3.11v-2.06h3.11v-3.19l2.54-0.81v4.01h3.65V121.59z"/>
			<path class="st1" d="M76.34,132.77c-0.97,0.35-2.08,0.89-4.36,0.89c-4.9,0-7.15-2.98-7.15-7.47c0-4.09,2.57-6.98,6.47-6.98
				c4.6,0,6.09,3.36,6.09,7.8h-9.85c0,2.73,2.14,4.6,4.55,4.6c1.68,0,3.63-0.87,4.25-1.38V132.77z M74.69,125.11
				c0-2.11-1.25-3.84-3.44-3.84c-2.49,0-3.52,2.06-3.71,3.84H74.69z"/>
			<path class="st1" d="M90.58,131.39h-0.05c-0.68,1.03-2.25,2.27-4.71,2.27c-4.17,0-5.93-3.71-5.93-7.47
				c0-3.71,1.95-6.98,5.95-6.98c2.41,0,3.79,0.95,4.57,2.22h0.05v-8.39h2.54v20.3h-2.44V131.39z M86.41,131.61
				c2.87,0,4.06-2.84,4.06-5.14c0-2.57-1.33-5.2-4.09-5.2c-2.76,0-3.84,2.6-3.79,5.12C82.54,128.55,83.67,131.61,86.41,131.61z"/>
			<path class="st1" d="M105.11,114.45h2.71v18.89h-2.71V114.45z"/>
			<path class="st1" d="M116.4,116.83h-5.87v-2.38h14.45v2.38h-5.87v16.51h-2.71V116.83z"/>
			<path class="st1" d="M136.62,121.59h-3.25v-2.06h3.25v-1.27c0-3.36,0.87-5.55,4.63-5.55c0.65,0,1.19,0.08,1.71,0.16l-0.11,2.06
				c-0.3-0.11-0.78-0.16-1.22-0.16c-2.19,0-2.46,1.41-2.46,3.28v1.49h3.65v2.06h-3.65v11.75h-2.54V121.59z"/>
			<path class="st1" d="M151.61,119.21c4.2,0,7.01,3.03,7.01,7.23c0,3.95-2.87,7.23-7.01,7.23c-4.17,0-7.04-3.28-7.04-7.23
				C144.57,122.24,147.39,119.21,151.61,119.21z M151.61,131.61c2.98,0,4.3-2.71,4.3-5.17c0-2.63-1.6-5.17-4.3-5.17
				c-2.73,0-4.33,2.54-4.33,5.17C147.28,128.9,148.61,131.61,151.61,131.61z"/>
			<path class="st1" d="M162.03,119.54h2.38v2.14h0.05c0.68-1.43,2.14-2.46,3.6-2.46c0.76,0,1.14,0.08,1.68,0.19v2.27
				c-0.46-0.19-0.97-0.24-1.41-0.24c-2.27,0-3.76,2.17-3.76,5.63v6.28h-2.54V119.54z"/>
			<path class="st1" d="M180.17,114.45h5.12c3.92,0,6.63,1.27,6.63,4.76c0,2.6-1.52,3.9-3.9,4.49v0.05
				c2.57,0.22,4.38,1.89,4.38,4.55c0,4.06-3.36,5.03-7.2,5.03h-5.03V114.45z M182.87,122.51h1.49c2.63,0,4.85-0.24,4.85-3.03
				c0-2.25-1.92-2.81-3.49-2.81h-2.84V122.51z M182.87,131.12h2.03c2.44,0,4.63-0.51,4.63-3.06c0-2.92-2.57-3.33-4.9-3.33h-1.76
				V131.12z"/>
			<path class="st1" d="M208.83,133.34h-2.46v-2.19h-0.05c-0.76,1.57-2.6,2.52-4.52,2.52c-3.57,0-5.17-2.22-5.17-5.93v-8.2h2.54
				v7.15c0,3.22,0.7,4.79,2.92,4.93c2.9,0,4.2-2.33,4.2-5.68v-6.39h2.54V133.34z"/>
			<path class="st1" d="M212.13,130.63c1,0.65,2.44,0.97,3.17,0.97c1.16,0,2.6-0.49,2.6-1.98c0-2.52-5.98-2.3-5.98-6.17
				c0-2.87,2.14-4.25,4.87-4.25c1.19,0,2.17,0.24,3.17,0.54l-0.22,2.22c-0.57-0.35-2.08-0.7-2.68-0.7c-1.3,0-2.44,0.54-2.44,1.68
				c0,2.81,5.98,2,5.98,6.41c0,2.95-2.35,4.3-4.82,4.3c-1.3,0-2.63-0.14-3.79-0.76L212.13,130.63z"/>
			<path class="st1" d="M226.72,116.45h-2.87v-2.87h2.87V116.45z M224.01,119.54h2.54v13.8h-2.54V119.54z"/>
			<path class="st1" d="M231.21,119.54h2.46v2.19h0.05c0.76-1.57,2.6-2.52,4.52-2.52c3.57,0,5.17,2.22,5.17,5.93v8.2h-2.54v-7.15
				c0-3.22-0.7-4.79-2.92-4.93c-2.9,0-4.2,2.33-4.2,5.68v6.39h-2.54V119.54z"/>
			<path class="st1" d="M258.33,132.77c-0.97,0.35-2.08,0.89-4.36,0.89c-4.9,0-7.15-2.98-7.15-7.47c0-4.09,2.57-6.98,6.47-6.98
				c4.6,0,6.09,3.36,6.09,7.8h-9.85c0,2.73,2.14,4.6,4.55,4.6c1.68,0,3.63-0.87,4.25-1.38V132.77z M256.68,125.11
				c0-2.11-1.25-3.84-3.44-3.84c-2.49,0-3.52,2.06-3.71,3.84H256.68z"/>
			<path class="st1" d="M261.77,130.63c1,0.65,2.44,0.97,3.17,0.97c1.16,0,2.6-0.49,2.6-1.98c0-2.52-5.98-2.3-5.98-6.17
				c0-2.87,2.14-4.25,4.87-4.25c1.19,0,2.17,0.24,3.17,0.54l-0.22,2.22c-0.57-0.35-2.08-0.7-2.68-0.7c-1.3,0-2.44,0.54-2.44,1.68
				c0,2.81,5.98,2,5.98,6.41c0,2.95-2.35,4.3-4.82,4.3c-1.3,0-2.63-0.14-3.79-0.76L261.77,130.63z"/>
			<path class="st1" d="M272.3,130.63c1,0.65,2.44,0.97,3.17,0.97c1.16,0,2.6-0.49,2.6-1.98c0-2.52-5.98-2.3-5.98-6.17
				c0-2.87,2.14-4.25,4.87-4.25c1.19,0,2.17,0.24,3.17,0.54l-0.22,2.22c-0.57-0.35-2.08-0.7-2.68-0.7c-1.3,0-2.44,0.54-2.44,1.68
				c0,2.81,5.98,2,5.98,6.41c0,2.95-2.35,4.3-4.82,4.3c-1.3,0-2.63-0.14-3.79-0.76L272.3,130.63z"/>
		</g>
	</g>
</g>
</svg>
