<svg width="120" height="79" viewBox="0 0 120 79" fill="none" xmlns="http://www.w3.org/2000/svg">
<g clip-path="url(#clip0_8:21)">
<path fill-rule="evenodd" clip-rule="evenodd" d="M82.2126 43.6238V25.8406H87.1192V43.6238H82.2126Z" fill="#004A8F"/>
<path d="M81.8655 21.5675C81.8655 20.0195 83.1102 18.7657 84.6469 18.7657C86.1836 18.7657 87.4282 20.0195 87.4282 21.5675C87.4282 23.1155 86.1836 24.3693 84.6469 24.3693C83.1144 24.365 81.8655 23.1113 81.8655 21.5675Z" fill="#004A8F"/>
<path d="M18.9699 15.0044C18.5127 15.0044 18.0851 15.0428 17.6321 15.0769C17.7888 15.5631 17.8988 16.1729 17.8988 16.7657C17.8988 19.7764 15.4858 22.2158 12.5012 22.2158C10.2575 22.2158 8.3398 20.8554 7.52276 18.8979C3.13272 22.2456 0.23707 27.4569 0 33.3633V35.0606C0.461441 44.9032 8.3017 52.7926 18.0639 53.2574H19.8758C26.5604 52.9418 32.3263 49.1421 35.4547 43.6238H29.0157C27.17 43.6238 24.05 43.8029 22.31 42.6302C20.2568 41.2442 19.3636 39.6407 19.3636 35.7301V21.0899L24.4479 21.0856V25.8406H27.9405V28.1648H24.4479V34.971C24.4479 37.6236 24.5241 39.871 25.8534 40.7069C26.9837 41.419 27.7245 41.402 29.0454 41.4062L36.5343 41.4105C37.4487 39.1673 37.9524 36.7152 37.9524 34.1394C37.9482 23.5719 29.4602 15.0044 18.9699 15.0044ZM15.037 43.6238L9.94849 43.6281V25.8406H15.037V43.6238Z" fill="#004A8F"/>
<path d="M12.497 15.0044C12.497 17.2135 10.719 19.0174 8.51759 19.0174C6.32468 19.0174 4.54242 17.2135 4.54242 15.0044C4.54242 12.7954 6.32892 11 8.51759 11C10.719 11 12.497 12.7954 12.497 15.0044Z" fill="#ED1846"/>
<path d="M120 43.6238C118.154 43.6238 115.022 43.8029 113.282 42.6301C111.228 41.2442 110.335 39.6407 110.335 35.7301V21.0899L115.305 21.0856V25.8406H118.908V28.1691H115.305V34.89C115.305 37.5468 115.331 40.1311 116.651 40.822C117.837 41.4403 118.679 41.4062 120 41.4062V43.6238" fill="#004A8F"/>
<path fill-rule="evenodd" clip-rule="evenodd" d="M101.949 38.4679C101.949 38.4679 101.949 36.2034 101.949 34.7279C101.949 33.2609 101.953 31.4741 101.856 30.5913C101.792 30.0241 101.521 29.3588 100.95 28.8855C100.59 28.587 99.7982 28.1562 98.7611 28.1605C97.8255 28.1648 97.0635 28.4249 96.5131 28.8855C95.9882 29.329 95.7003 29.8407 95.6283 30.4932C95.4675 31.9986 95.5013 33.2524 95.5013 34.7279C95.5013 36.1949 95.5013 38.4679 95.5013 38.4679V43.6238H90.5821V38.4679C90.5821 38.4679 90.5906 36.1992 90.5906 34.7279C90.5906 33.2524 90.5906 32.4933 90.6329 30.9623C90.743 27.0261 94.4769 25.4525 98.7653 25.4525C102.825 25.4525 106.766 27.0261 106.83 31.005C106.855 32.6042 106.881 33.2566 106.881 34.7322C106.881 36.2077 106.868 38.4722 106.868 38.4722L106.893 43.628H101.949V38.4679" fill="#004A8F"/>
<path fill-rule="evenodd" clip-rule="evenodd" d="M73.9406 34.7279C73.9406 33.2609 73.9406 31.4741 73.8475 30.5913C73.7882 30.0241 73.5173 29.3588 72.9415 28.8812C72.5817 28.5827 71.79 28.152 70.7529 28.1562C69.8173 28.1605 69.0553 28.4206 68.5049 28.8812C67.98 29.3247 67.6921 29.8365 67.6201 30.4889C67.4593 31.9943 67.4931 33.2481 67.4931 34.7236C67.4931 36.1992 67.4635 37.453 67.6244 38.9583C67.6963 39.6151 67.98 40.1226 68.5049 40.5661C69.051 41.0309 69.813 41.2911 70.7529 41.2911C71.79 41.2953 72.5817 40.8646 72.9415 40.5661C73.5173 40.0927 73.7882 39.4274 73.8475 38.8603C73.9448 37.9775 73.9406 36.1992 73.9406 34.7279ZM62.5951 34.7279C62.5951 33.2524 62.5824 32.4933 62.6247 30.9623C62.7348 27.0261 66.4686 25.4525 70.7571 25.4525C74.8169 25.4525 78.7582 27.0261 78.8217 31.005C78.8471 32.6042 78.8725 33.2566 78.8725 34.7322C78.8725 36.2077 78.8514 36.8559 78.8217 38.4551C78.7582 42.434 74.8169 44.0033 70.7571 44.0076C66.4686 44.0076 62.7305 42.434 62.6247 38.4978C62.5824 36.9625 62.5951 36.2034 62.5951 34.7279Z" fill="#004A8F"/>
<path fill-rule="evenodd" clip-rule="evenodd" d="M48.0322 34.7279L48.028 41.355L51.1522 41.3294C52.1894 41.3337 53.1335 40.9798 53.4933 40.6812C54.0691 40.2079 54.34 39.5426 54.3993 38.9711C54.4966 38.0841 54.4797 36.1992 54.4797 34.7279C54.4797 33.2609 54.4797 31.4741 54.3866 30.5913C54.3231 30.0241 54.0521 29.3588 53.4806 28.8812C53.1208 28.5827 52.3291 28.152 51.2919 28.1562C50.3564 28.1605 49.5943 28.4206 49.044 28.8812C48.5191 29.3247 48.2312 29.8365 48.1592 30.489C47.9984 31.9943 48.0322 33.2481 48.0322 34.7279ZM51.3089 43.675H48.028V47.7348H43.1257V43.675H40.556V41.3508H43.1257L43.1215 34.7279C43.1215 33.2524 43.1003 32.4933 43.1426 30.9623C43.2527 27.0261 46.9866 25.4525 51.275 25.4525C55.3348 25.4525 59.2761 27.0261 59.3396 31.005C59.365 32.6042 59.3904 33.2566 59.3904 34.7322C59.3904 36.2077 59.3777 36.4721 59.3523 38.0756C59.2846 42.0502 55.3687 43.675 51.3089 43.675Z" fill="#004A8F"/>
<path d="M3.62803 60.8228H1.13879V59.8078H7.25606V60.8228H4.77105V67.8635H3.62803V60.8228Z" fill="#004A8F"/>
<path d="M7.4635 61.9784H8.47105V62.8911H8.49222C8.78009 62.2812 9.39817 61.842 10.0162 61.842C10.338 61.842 10.4988 61.8761 10.7275 61.923V62.8911C10.5327 62.81 10.3168 62.7887 10.1305 62.7887C9.16956 62.7887 8.53879 63.7141 8.53879 65.1896V67.8678H7.4635V61.9784V61.9784Z" fill="#004A8F"/>
<path d="M17.0902 67.8635H16.0488V66.9295H16.0276C15.7059 67.5991 14.927 68.0042 14.1141 68.0042C12.6028 68.0042 11.9255 67.0575 11.9255 65.4753V61.9784H13.0008V65.0276C13.0008 66.4008 13.2971 67.0703 14.2369 67.13C15.4646 67.13 16.0149 66.1363 16.0149 64.7077V61.9827H17.0902V67.8635V67.8635Z" fill="#004A8F"/>
<path d="M18.4873 66.7078C18.9106 66.985 19.5202 67.1215 19.8293 67.1215C20.3203 67.1215 20.93 66.9125 20.93 66.2771C20.93 65.2025 18.3984 65.2963 18.3984 63.6459C18.3984 62.422 19.3043 61.8335 20.46 61.8335C20.9638 61.8335 21.3787 61.9358 21.802 62.0638L21.7089 63.0105C21.4676 62.8612 20.8283 62.712 20.5743 62.712C20.024 62.712 19.5414 62.9423 19.5414 63.4284C19.5414 64.6267 22.073 64.2813 22.073 66.162C22.073 67.42 21.0781 67.9957 20.0325 67.9957C19.4821 67.9957 18.9191 67.936 18.428 67.6716L18.4873 66.7078Z" fill="#004A8F"/>
<path d="M26.4842 62.8527H24.939V66.0724C24.939 66.7548 25.3496 67.1215 25.8449 67.1215C26.1751 67.1215 26.4164 67.0192 26.5773 66.9125V67.8379C26.336 67.9062 26.0058 68 25.6587 68C24.5453 68 23.8595 67.4712 23.8595 66.2899V62.8484H22.5429V61.9699H23.8595V60.6095L24.9347 60.2641V61.9742H26.4799V62.8527H26.4842Z" fill="#004A8F"/>
<path d="M32.3178 67.6205C31.9071 67.7697 31.4372 68 30.472 68C28.3976 68 27.4451 66.7292 27.4451 64.8144C27.4451 63.0702 28.5331 61.8377 30.1841 61.8377C32.1315 61.8377 32.7623 63.2706 32.7623 65.1641H28.5924C28.5924 66.3283 29.4983 67.1258 30.5186 67.1258C31.2298 67.1258 32.0553 66.7547 32.3178 66.5372V67.6205ZM31.6193 64.3538C31.6193 63.454 31.0901 62.7162 30.163 62.7162C29.1089 62.7162 28.6728 63.5947 28.5924 64.3538H31.6193Z" fill="#004A8F"/>
<path d="M38.3461 67.0319H38.325C38.0371 67.4712 37.3725 68 36.3311 68C34.5657 68 33.8206 66.4178 33.8206 64.8144C33.8206 63.2322 34.6462 61.8377 36.3395 61.8377C37.3598 61.8377 37.944 62.2428 38.2742 62.7844H38.2953V59.2065H39.3706V67.8635H38.3377V67.0319H38.3461ZM36.5808 67.1258C37.7958 67.1258 38.2996 65.9146 38.2996 64.9338C38.2996 63.8378 37.7365 62.7162 36.5681 62.7162C35.3997 62.7162 34.9425 63.825 34.9637 64.8997C34.9425 65.8208 35.4209 67.1258 36.5808 67.1258Z" fill="#004A8F"/>
<path d="M44.4973 59.8078H45.6446V67.8635H44.4973V59.8078Z" fill="#004A8F"/>
<path d="M49.2768 60.8228H46.7917V59.8078H52.909V60.8228H50.424V67.8635H49.2768V60.8228Z" fill="#004A8F"/>
<path d="M57.8367 62.8527H56.4609V61.9742H57.8367V61.4326C57.8367 59.9997 58.205 59.0657 59.7968 59.0657C60.072 59.0657 60.3006 59.0999 60.5207 59.134L60.4741 60.0125C60.3471 59.9656 60.1439 59.9442 59.9577 59.9442C59.0306 59.9442 58.9163 60.5455 58.9163 61.343V61.9784H60.4615V62.8569H58.9163V67.8678H57.841V62.8527H57.8367Z" fill="#004A8F"/>
<path d="M64.1826 61.8377C65.9606 61.8377 67.1502 63.1299 67.1502 64.921C67.1502 66.6055 65.9352 68.0042 64.1826 68.0042C62.4173 68.0042 61.2023 66.6055 61.2023 64.921C61.2023 63.1299 62.3961 61.8377 64.1826 61.8377ZM64.1826 67.1257C65.4442 67.1257 66.003 65.9701 66.003 64.921C66.003 63.7994 65.3256 62.7162 64.1826 62.7162C63.0269 62.7162 62.3496 63.7994 62.3496 64.921C62.3496 65.9701 62.9126 67.1257 64.1826 67.1257Z" fill="#004A8F"/>
<path d="M68.5938 61.9784H69.6014V62.8911H69.6225C69.9104 62.2812 70.5285 61.842 71.1465 61.842C71.4683 61.842 71.6292 61.8761 71.8578 61.923V62.8911C71.663 62.81 71.4471 62.7887 71.2608 62.7887C70.2999 62.7887 69.6691 63.7141 69.6691 65.1896V67.8678H68.5938V61.9784V61.9784Z" fill="#004A8F"/>
<path d="M76.2732 59.8078H78.4407C80.1002 59.8078 81.2475 60.3494 81.2475 61.8377C81.2475 62.9465 80.604 63.5009 79.5964 63.7525V63.7738C80.6844 63.8677 81.4507 64.5798 81.4507 65.7142C81.4507 67.4456 80.0283 67.8593 78.4026 67.8593H76.2732V59.8078ZM77.4162 63.245H78.047C79.1604 63.245 80.1002 63.1427 80.1002 61.9529C80.1002 60.9933 79.2874 60.7545 78.6228 60.7545H77.4205V63.245H77.4162ZM77.4162 66.9168H78.2756C79.3086 66.9168 80.2357 66.6993 80.2357 65.6119C80.2357 64.3666 79.1477 64.1918 78.1613 64.1918H77.4162V66.9168Z" fill="#004A8F"/>
<path d="M88.4061 67.8635H87.3647V66.9295H87.3435C87.0218 67.5991 86.2428 68.0042 85.43 68.0042C83.9187 68.0042 83.2414 67.0575 83.2414 65.4753V61.9784H84.3166V65.0276C84.3166 66.4008 84.613 67.0703 85.5528 67.13C86.7805 67.13 87.3308 66.1363 87.3308 64.7077V61.9827H88.4061V67.8635V67.8635Z" fill="#004A8F"/>
<path d="M89.8032 66.7078C90.2265 66.985 90.8361 67.1215 91.1452 67.1215C91.6362 67.1215 92.2458 66.9125 92.2458 66.2771C92.2458 65.2025 89.7143 65.2963 89.7143 63.6459C89.7143 62.422 90.6202 61.8335 91.7759 61.8335C92.2797 61.8335 92.6946 61.9358 93.1179 62.0638L93.0248 63.0105C92.7835 62.8612 92.1442 62.712 91.8902 62.712C91.3399 62.712 90.8573 62.9423 90.8573 63.4284C90.8573 64.6267 93.3889 64.2813 93.3889 66.162C93.3889 67.42 92.394 67.9957 91.3484 67.9957C90.798 67.9957 90.235 67.936 89.7439 67.6716L89.8032 66.7078Z" fill="#004A8F"/>
<path d="M95.9797 60.6607H94.7647V59.4368H95.9797V60.6607ZM94.8325 61.9784H95.9078V67.8635H94.8325V61.9784Z" fill="#004A8F"/>
<path d="M97.8805 61.9784H98.9219V62.9124H98.9431C99.2648 62.2428 100.044 61.8377 100.857 61.8377C102.368 61.8377 103.045 62.7844 103.045 64.3666V67.8635H101.97V64.8144C101.97 63.4412 101.674 62.7716 100.734 62.7119C99.5061 62.7119 98.9558 63.7056 98.9558 65.1342V67.8593H97.8805V61.9784V61.9784Z" fill="#004A8F"/>
<path d="M109.361 67.6205C108.951 67.7697 108.481 68 107.516 68C105.441 68 104.489 66.7292 104.489 64.8144C104.489 63.0702 105.577 61.8377 107.228 61.8377C109.175 61.8377 109.806 63.2706 109.806 65.1641H105.636C105.636 66.3283 106.542 67.1258 107.562 67.1258C108.273 67.1258 109.099 66.7547 109.361 66.5372V67.6205V67.6205ZM108.663 64.3538C108.663 63.454 108.134 62.7162 107.207 62.7162C106.153 62.7162 105.717 63.5947 105.636 64.3538H108.663Z" fill="#004A8F"/>
<path d="M110.818 66.7078C111.241 66.985 111.851 67.1215 112.16 67.1215C112.651 67.1215 113.26 66.9125 113.26 66.2771C113.26 65.2025 110.729 65.2963 110.729 63.6459C110.729 62.422 111.635 61.8335 112.791 61.8335C113.294 61.8335 113.709 61.9358 114.133 62.0638L114.039 63.0105C113.798 62.8612 113.159 62.712 112.905 62.712C112.355 62.712 111.872 62.9423 111.872 63.4284C111.872 64.6267 114.403 64.2813 114.403 66.162C114.403 67.42 113.409 67.9957 112.363 67.9957C111.813 67.9957 111.25 67.936 110.759 67.6716L110.818 66.7078Z" fill="#004A8F"/>
<path d="M115.276 66.7078C115.699 66.985 116.309 67.1215 116.618 67.1215C117.109 67.1215 117.718 66.9125 117.718 66.2771C117.718 65.2025 115.187 65.2963 115.187 63.6459C115.187 62.422 116.093 61.8335 117.248 61.8335C117.752 61.8335 118.167 61.9358 118.59 62.0638L118.497 63.0105C118.256 62.8612 117.617 62.712 117.363 62.712C116.812 62.712 116.33 62.9423 116.33 63.4284C116.33 64.6267 118.861 64.2813 118.861 66.162C118.861 67.42 117.866 67.9957 116.821 67.9957C116.27 67.9957 115.707 67.936 115.216 67.6716L115.276 66.7078Z" fill="#004A8F"/>
</g>
<defs>
<clipPath id="clip0_8:21">
<rect width="120" height="57" fill="white" transform="translate(0 11)"/>
</clipPath>
</defs>
</svg>
