<svg width="200" height="79" viewBox="0 0 200 79" fill="none" xmlns="http://www.w3.org/2000/svg">
<path d="M164.545 16.338C165.364 14.507 167.091 13.3168 169 13.1337L168.455 16.2464C165.818 16.1549 164.455 18.1689 164.091 20.6408L163.273 25.676H160L161.273 18.2605C161.545 16.6126 161.818 14.7816 162 13.4999L164.909 13.4084L164.545 16.338Z" fill="white"/>
<path d="M150.636 21.0985C150.636 22.4718 151.727 23.5704 153.091 23.5704C153.182 23.5704 153.273 23.5704 153.364 23.5704C154.545 23.5704 155.818 23.2957 156.909 22.838L157.182 25.1267C155.727 25.7675 154.091 26.1337 152.545 26.1337C149.273 26.1337 147.545 24.3028 147.545 21.1901C147.545 17.0704 150.182 13.4999 154.455 13.4999C157 13.4999 158.455 14.9647 158.545 16.8873C158.545 19.4506 156.364 20.8239 152.545 20.8239C151.909 20.8239 151.364 20.8239 150.727 20.7323C150.636 20.7323 150.636 20.9154 150.636 21.0985ZM152.455 18.6267C154.364 18.6267 155.545 17.8943 155.545 16.8873C155.545 16.2464 155 15.6971 154.091 15.6971C152.545 15.7887 151.364 16.9788 151.091 18.5352C151.455 18.5352 151.909 18.6267 152.455 18.6267Z" fill="white"/>
<path d="M146.273 15.6971L139.364 23.2042V23.2957H145.182L144.636 25.8591H135L135.364 23.845L142.455 16.338V16.1549H137.091L137.636 13.5915H146.636L146.273 15.6971Z" fill="white"/>
<path d="M131.546 13.5915L134.727 13.5L132.636 25.7676H129.455L131.546 13.5915ZM134 7.91547C134.818 7.91547 135.455 8.55631 135.455 9.38026V9.4718C135.455 10.5704 134.546 11.4859 133.455 11.5774C132.636 11.5774 132 10.9366 132 10.1126V10.0211C132 8.83096 132.909 7.91547 134 7.91547Z" fill="white"/>
<path d="M120.182 21.0985C120.182 22.4718 121.273 23.5704 122.636 23.5704C122.727 23.5704 122.818 23.5704 122.909 23.5704C124.091 23.5704 125.364 23.2957 126.455 22.838L126.727 25.1267C125.273 25.7675 123.636 26.1337 122.091 26.1337C118.818 26.1337 117.091 24.3028 117.091 21.1901C117.091 17.0704 119.727 13.4999 124 13.4999C126.545 13.4999 128 14.9647 128.091 16.8873C128.091 19.4506 125.909 20.8239 122.091 20.8239C121.455 20.8239 120.909 20.8239 120.273 20.7323C120.182 20.7323 120.182 20.9154 120.182 21.0985ZM122 18.6267C123.909 18.6267 125.091 17.8943 125.091 16.8873C125.091 16.2464 124.545 15.6971 123.636 15.6971C122.091 15.7887 120.909 16.9788 120.636 18.5352C121 18.5352 121.455 18.6267 122 18.6267Z" fill="white"/>
<path d="M109 20.3661L109.364 22.6549H109.455L110.818 20.3661L112.182 18.0774C113 16.7042 113.273 15.1478 112.909 13.5915H115.818C116.364 15.4225 116 17.345 115 18.9014L110.545 25.7675H107L106.364 21.1901H106.273L105.727 22.3802L103.545 25.7675H100L98.1818 13.5915H101.364L102.182 20.3661L102.455 22.6549H102.545L103.909 20.3661L105.818 16.9788L105.364 13.683H108.364L109 20.3661Z" fill="white"/>
<path d="M95.4545 16.6126C95.4545 16.9788 95.4545 17.345 95.3636 17.7112L94.0909 25.7676H90.8182L91.9091 19.176C92 18.6267 92.0909 18.0774 92.0909 17.5281C92.0909 16.7042 91.8182 15.9718 90.9091 15.9718C89.0909 15.9718 87.7273 19.2676 87.2727 21.1901C86.9091 22.838 86.7273 24.1197 86.4545 25.8591H83.2727L86.3636 7.73236L89.6363 7.64081L88.1818 16.0633H88.2727C89.0909 14.507 90.6363 13.4084 92.4545 13.3169C94.3636 13.3169 95.4545 14.507 95.4545 16.6126Z" fill="white"/>
<path d="M75.4545 20.7323C75.2727 22.1056 76.1818 23.2957 77.5454 23.4788C77.7272 23.4788 77.9091 23.4788 78.0909 23.4788C79.0909 23.4788 80.0909 23.2957 81 22.9295L81.1818 25.3098C79.9091 25.7675 78.5454 26.0422 77.1818 26.0422C74.0909 26.0422 72.1818 24.3028 72.1818 21.1901C72 17.0704 75.1818 13.5915 79.2727 13.4084C79.4545 13.4084 79.6363 13.4084 79.8182 13.4084C80.8182 13.4084 81.8182 13.5915 82.7272 13.8661L82.0909 16.338C81.3636 16.0633 80.6363 15.8802 79.9091 15.8802C77.2727 15.8802 75.4545 17.8028 75.4545 20.7323Z" fill="white"/>
<path d="M66.5454 22.3802C66.5454 20.7323 62.0909 20.5492 62.0909 17.345C62.0909 14.6901 64.4545 13.3168 67.1818 13.3168C68.2727 13.3168 69.3636 13.4999 70.3636 13.9577L69.7272 16.338C68.8182 15.9718 67.9091 15.7887 66.9091 15.7887C65.9091 15.7887 65.1818 16.2464 65.1818 16.9788C65.1818 18.5351 69.6363 18.7182 69.6363 21.7394C69.6363 24.7605 67.0909 26.0422 64.2727 26.0422C63 26.0422 61.6363 25.7675 60.4545 25.2182L61.0909 22.838C62.1818 23.2957 63.3636 23.5704 64.5454 23.6619C65.9091 23.6619 66.5454 23.1126 66.5454 22.3802Z" fill="white"/>
<path d="M3.09093 32.0845L6.27275 31.9929L4.90911 39.9577H5.00002C5.72729 38.5845 7.18184 37.669 8.8182 37.5774C11.3637 37.5774 12.4546 39.6831 12.4546 42.0633C12.4546 46.0915 10.0909 50.3028 5.00002 50.3028C2.72729 50.3028 1.36366 49.4788 0.727295 47.9225C0.727295 46.3662 0.909113 44.9014 1.18184 43.345L3.09093 32.0845ZM3.8182 46.9155C4.18184 47.5563 4.8182 47.9225 5.45457 47.8309C7.63639 47.8309 9.00002 44.9929 9.00002 42.4295C9.00002 41.0563 8.54548 40.1408 7.36366 40.1408C5.00002 40.2324 3.72729 44.2605 3.8182 46.9155Z" fill="white"/>
<path d="M25.5455 42.6126C25.0909 45.0844 24.7273 47.5563 24.6364 50.0281H21.5455L21.9091 47.007H21.8182C20.8182 49.0211 19.2728 50.3028 17.7273 50.3028C15.4546 50.3028 14.0909 48.5633 14.0909 46.0915C14.0909 41.8802 17.2728 37.6689 21 37.6689C21.8182 37.6689 22.6364 37.852 23.3637 38.3098H23.4546L23.7273 37.9436L26.3637 37.7605L25.5455 42.6126ZM22.8182 40.3239C22.4546 40.1408 22 39.9577 21.5455 39.9577C19.1819 39.9577 17.5455 42.6126 17.5455 45.5422C17.5455 46.8239 18 47.7394 19.0909 47.7394C20.2728 47.7394 21.8182 46.2746 22.3637 42.8873L22.8182 40.3239Z" fill="white"/>
<path d="M36.0909 47.1901C35.2727 49.0211 33.5454 50.2112 31.5454 50.3028C28.2727 50.3028 28.1818 47.5563 28.6363 44.8098L29.8182 37.8521H33L31.9091 44.4436C31.7272 45.5422 31.3636 47.7394 33.0909 47.7394C34.2727 47.7394 35.8182 46.3661 36.3636 43.5281C36.5454 42.8873 37.1818 38.5844 37.3636 37.8521H40.5454L39.7272 42.6126C39.2727 45.0845 38.9091 47.5563 38.8182 50.0281H35.7272L36.0909 47.1901Z" fill="white"/>
<path d="M45.4546 45.3591C45.4546 46.7323 46.5455 47.8309 47.9092 47.8309C48.0001 47.8309 48.091 47.8309 48.1819 47.8309C49.3637 47.8309 50.6364 47.5563 51.7273 47.0985L52.0001 49.3873C50.5455 50.0281 48.9092 50.3943 47.3637 50.3943C44.091 50.3943 42.3637 48.5633 42.3637 45.4506C42.3637 41.3309 45.0001 37.7605 49.2728 37.7605C51.8183 37.7605 53.2728 39.2253 53.3637 41.1478C53.3637 43.7112 51.1819 45.0844 47.3637 45.0844C46.7273 45.0844 46.1819 45.0844 45.5455 44.9929C45.4546 44.9929 45.4546 45.176 45.4546 45.3591ZM47.1819 42.8873C49.091 42.8873 50.2728 42.1549 50.2728 41.1478C50.2728 40.507 49.7273 39.9577 48.8183 39.9577C47.2728 40.0492 46.091 41.2394 45.8183 42.7957C46.1819 42.8873 46.7273 42.8873 47.1819 42.8873Z" fill="white"/>
<path d="M59.2728 40.6901C60.091 38.8591 61.8183 37.669 63.7273 37.4859L63.1819 40.5986C60.5455 40.507 59.1819 42.5211 58.8182 44.9929L58.0001 50.0282H54.8182L56.091 42.6127C56.3637 40.9648 56.6364 39.1338 56.8182 37.8521L59.7273 37.7605L59.2728 40.6901Z" fill="white"/>
<path d="M75.9091 41.7887L74.5454 50.0281H71.2727L72.3636 43.345C72.5454 42.1549 72.9091 40.1408 71.1818 40.1408C70 40.1408 68.2727 41.8802 67.7273 45.2675L67 50.0281H63.8182L65.0909 42.6126C65.3636 40.9647 65.6364 39.3168 65.8182 37.852L68.7273 37.7605L68.3636 40.5985H68.4545C69.3636 38.8591 71.0909 37.7605 73 37.5774C75.3636 37.5774 76.2727 39.4084 75.9091 41.7887Z" fill="white"/>
<path d="M80.1819 50.0281L78.3637 37.8521H81.5455L82.3637 44.6267L82.7273 46.9154L84.091 44.6267L85.4546 42.338C86.2728 40.9647 86.5455 39.4084 86.1819 37.8521H89.091C89.6364 39.683 89.2728 41.6056 88.2728 43.1619L83.7273 50.0281H80.1819Z" fill="white"/>
<path d="M93.5454 45.3591C93.5454 46.7323 94.6363 47.8309 96 47.8309C96.0909 47.8309 96.1818 47.8309 96.2727 47.8309C97.4545 47.8309 98.7273 47.5563 99.8182 47.0985L100.091 49.3873C98.6363 50.0281 97 50.3943 95.4545 50.3943C92.1818 50.3943 90.4545 48.5633 90.4545 45.4506C90.4545 41.3309 93.0909 37.7605 97.3636 37.7605C99.9091 37.7605 101.364 39.2253 101.455 41.1478C101.455 43.7112 99.2727 45.0844 95.4545 45.0844C94.8182 45.0844 94.2727 45.0844 93.6363 44.9929C93.5454 44.9929 93.5454 45.176 93.5454 45.3591ZM95.3636 42.8873C97.2727 42.8873 98.4545 42.1549 98.4545 41.1478C98.4545 40.507 97.9091 39.9577 97 39.9577C95.4545 40.0492 94.2727 41.2394 94 42.7957C94.3636 42.8873 94.8182 42.8873 95.3636 42.8873Z" fill="white"/>
<path d="M107.455 40.6901C108.273 38.8591 110 37.669 111.909 37.4859L111.364 40.5986C108.727 40.507 107.364 42.5211 107 44.9929L106.182 50.0282H103L104.273 42.6127C104.545 40.9648 104.818 39.1338 105 37.8521L107.909 37.7605L107.455 40.6901Z" fill="white"/>
<path d="M115 32.0845L118.182 31.9929L116.818 40.0493H116.909C117.636 38.676 119.091 37.7605 120.727 37.669C123.273 37.669 124.364 39.7746 124.364 42.1549C124.364 46.1831 122 50.3943 116.909 50.3943C114.636 50.3943 113.273 49.5704 112.636 48.014C112.636 46.4577 112.818 44.9929 113.091 43.4366L115 32.0845ZM115.727 46.9155C116.091 47.5563 116.727 47.9225 117.364 47.8309C119.546 47.8309 120.909 44.9929 120.909 42.4295C120.909 41.0563 120.455 40.1408 119.273 40.1408C116.909 40.2324 115.636 44.2605 115.727 46.9155Z" fill="white"/>
<path d="M137.455 42.6126C137 45.0844 136.636 47.5563 136.545 50.0281H133.455L133.818 47.007H133.727C132.727 49.0211 131.182 50.3028 129.636 50.3028C127.364 50.3028 126 48.5633 126 46.0915C126 41.8802 129.182 37.6689 132.909 37.6689C133.727 37.6689 134.546 37.852 135.273 38.3098H135.364L135.636 37.9436L138.273 37.7605L137.455 42.6126ZM134.727 40.3239C134.364 40.1408 133.909 39.9577 133.455 39.9577C131.091 39.9577 129.455 42.6126 129.455 45.5422C129.455 46.8239 129.909 47.7394 131 47.7394C132.182 47.7394 133.727 46.2746 134.273 42.8873L134.727 40.3239Z" fill="white"/>
<path d="M151.909 41.7887L150.545 50.0282H147.273L148.364 43.3451C148.545 42.1549 148.909 40.1408 147.182 40.1408C146 40.1408 144.273 41.8803 143.727 45.2676L142.909 49.9366H139.727L141 42.5211C141.273 40.8732 141.545 39.2253 141.727 37.7605L144.636 37.669L144.273 40.507H144.364C145.273 38.7676 147 37.669 148.909 37.4859C151.455 37.5775 152.364 39.4084 151.909 41.7887Z" fill="white"/>
<path d="M163.273 38.3098L164.273 32.0845L167.455 31.9929L165.455 43.9859C165.091 46 164.909 48.014 164.727 50.0281H161.636L162 47.007H161.909C160.909 49.0211 159.455 50.3028 157.727 50.3028C155.455 50.3028 154.091 48.4718 154.091 45.8169C154.091 42.2464 156.636 37.669 160.727 37.669C161.727 37.5774 162.546 37.8521 163.273 38.3098ZM162.909 40.507C162.455 40.1408 161.909 39.9577 161.364 40.0493C159.182 40.0493 157.545 42.7042 157.545 45.5422C157.545 47.007 158.091 47.8309 159.182 47.8309C160.364 47.8309 161.818 46.3662 162.364 43.345L162.909 40.507Z" fill="white"/>
<path d="M199 64.7676L187.182 70.6268L175.455 64.676L187 58.6338L199 64.7676Z" fill="#9EA600"/>
<path d="M185.364 57.7183L173.818 63.7606L161.455 57.4437C169.273 54.9719 177.636 55.155 185.364 57.7183Z" fill="#9EA600"/>
<path d="M198.091 51.1268L187 56.8944L175.727 51.1268H198.091Z" fill="#9EA600"/>
<path d="M197.909 49.5705L186.727 43.8944L175.636 49.5705H197.909Z" fill="#9EA600"/>
<path d="M172.091 64.676L160 70.8098V58.4507L172.091 64.676Z" fill="#9EA600"/>
<path d="M146.182 64.676L158.182 70.8098V58.5422L146.182 64.676Z" fill="#9EA600"/>
</svg>
