<?xml version="1.0" encoding="utf-8"?>
<!-- Generator: Adobe Illustrator 22.1.0, SVG Export Plug-In . SVG Version: 6.00 Build 0)  -->
<svg version="1.1" id="Ebene_1" xmlns="http://www.w3.org/2000/svg" xmlns:xlink="http://www.w3.org/1999/xlink" x="0px" y="0px"
	 viewBox="0 0 220 71" style="enable-background:new 0 0 220 71;" xml:space="preserve">
<style type="text/css">
	.st0{fill:#9EA600;}
</style>
<g id="logo" transform="translate(0)">
	<path id="Pfad_1" d="M181,10.2c0.9-2,2.8-3.3,4.9-3.5l-0.6,3.4c-2.9-0.1-4.4,2.1-4.8,4.8l-0.9,5.5H176l1.4-8.1
		c0.3-1.8,0.6-3.8,0.8-5.2l3.2-0.1L181,10.2L181,10.2z"/>
	<path id="Pfad_2" d="M165.7,15.4c0,1.5,1.2,2.7,2.7,2.7c0.1,0,0.2,0,0.3,0c1.3,0,2.7-0.3,3.9-0.8l0.3,2.5c-1.6,0.7-3.4,1.1-5.1,1.1
		c-3.6,0-5.5-2-5.5-5.4c0-4.5,2.9-8.4,7.6-8.4c2.8,0,4.4,1.6,4.5,3.7c0,2.8-2.4,4.3-6.6,4.3c-0.7,0-1.3,0-2-0.1
		C165.7,15,165.7,15.2,165.7,15.4z M167.7,12.7c2.1,0,3.4-0.8,3.4-1.9c0-0.7-0.6-1.3-1.6-1.3c-1.7,0.1-3,1.4-3.3,3.1
		C166.6,12.6,167.1,12.7,167.7,12.7L167.7,12.7z"/>
	<path id="Pfad_3" d="M160.9,9.5l-7.6,8.2v0.1h6.4l-0.6,2.8h-10.6l0.4-2.2l7.8-8.2V10h-5.9l0.6-2.8h9.9L160.9,9.5z"/>
	<path id="Pfad_4" d="M144.7,7.2l3.5-0.1l-2.3,13.4h-3.5L144.7,7.2z M147.4,1c0.9,0,1.6,0.7,1.6,1.6c0,0,0,0.1,0,0.1
		c0,1.2-1,2.2-2.2,2.3c-0.9,0-1.6-0.7-1.6-1.6c0,0,0-0.1,0-0.1C145.2,2,146.2,1,147.4,1z"/>
	<path id="Pfad_5" d="M132.2,15.4c0,1.5,1.2,2.7,2.7,2.7c0.1,0,0.2,0,0.3,0c1.3,0,2.7-0.3,3.9-0.8l0.3,2.5c-1.6,0.7-3.4,1.1-5.1,1.1
		c-3.6,0-5.5-2-5.5-5.4c0-4.5,2.9-8.4,7.6-8.4c2.8,0,4.4,1.6,4.5,3.7c0,2.8-2.4,4.3-6.6,4.3c-0.7,0-1.3,0-2-0.1
		C132.2,15,132.2,15.2,132.2,15.4z M134.2,12.7c2.1,0,3.4-0.8,3.4-1.9c0-0.7-0.6-1.3-1.6-1.3c-1.7,0.1-3,1.4-3.3,3.1
		C133.1,12.6,133.6,12.7,134.2,12.7z"/>
	<path id="Pfad_6" d="M119.9,14.6l0.4,2.5h0.1l1.5-2.5l1.5-2.5c0.9-1.5,1.2-3.2,0.8-4.9h3.2c0.6,2,0.2,4.1-0.9,5.8l-4.9,7.5h-3.9
		l-0.7-5h-0.1l-0.6,1.3l-2.4,3.7h-3.9l-2-13.3h3.5l0.9,7.4l0.3,2.5h0.1l1.5-2.5l2.1-3.7l-0.5-3.6h3.3L119.9,14.6z"/>
	<path id="Pfad_7" d="M105,10.5c0,0.4,0,0.8-0.1,1.2l-1.4,8.8h-3.6l1.2-7.2c0.1-0.6,0.2-1.2,0.2-1.8c0-0.9-0.3-1.7-1.3-1.7
		c-2,0-3.5,3.6-4,5.7c-0.4,1.8-0.6,3.2-0.9,5.1h-3.5L95,0.8l3.6-0.1L97,9.9h0.1c0.9-1.7,2.6-2.9,4.6-3C103.8,6.9,105,8.2,105,10.5z"
		/>
	<path id="Pfad_8" d="M83,15c-0.2,1.5,0.8,2.8,2.3,3c0.2,0,0.4,0,0.6,0c1.1,0,2.2-0.2,3.2-0.6l0.2,2.6c-1.4,0.5-2.9,0.8-4.4,0.8
		c-3.4,0-5.5-1.9-5.5-5.3c-0.2-4.5,3.3-8.3,7.8-8.5c0.2,0,0.4,0,0.6,0c1.1,0,2.2,0.2,3.2,0.5l-0.7,2.7c-0.8-0.3-1.6-0.5-2.4-0.5
		C85,9.7,83,11.8,83,15z"/>
	<path id="Pfad_9" d="M73.2,16.8c0-1.8-4.9-2-4.9-5.5c0-2.9,2.6-4.4,5.6-4.4c1.2,0,2.4,0.2,3.5,0.7l-0.7,2.6c-1-0.4-2-0.6-3.1-0.6
		c-1.1,0-1.9,0.5-1.9,1.3c0,1.7,4.9,1.9,4.9,5.2c0,3.3-2.8,4.7-5.9,4.7c-1.4,0-2.9-0.3-4.2-0.9l0.7-2.6c1.2,0.5,2.5,0.8,3.8,0.9
		C72.5,18.2,73.2,17.6,73.2,16.8z"/>
	<path id="Pfad_10" d="M3.4,27.4l3.5-0.1L5.4,36h0.1c0.8-1.5,2.4-2.5,4.2-2.6c2.8,0,4,2.3,4,4.9c0,4.4-2.6,9-8.2,9
		c-2.5,0-4-0.9-4.7-2.6c0-1.7,0.2-3.3,0.5-5L3.4,27.4z M4.2,43.6c0.4,0.7,1.1,1.1,1.8,1c2.4,0,3.9-3.1,3.9-5.9
		c0-1.5-0.5-2.5-1.8-2.5C5.5,36.3,4.1,40.7,4.2,43.6L4.2,43.6z"/>
	<path id="Pfad_11" d="M28.1,38.9c-0.5,2.7-0.9,5.4-1,8.1h-3.4l0.4-3.3h-0.1c-1.1,2.2-2.8,3.6-4.5,3.6c-2.5,0-4-1.9-4-4.6
		c0-4.6,3.5-9.2,7.6-9.2c0.9,0,1.8,0.2,2.6,0.7h0.1l0.3-0.4l2.9-0.2L28.1,38.9z M25.1,36.4c-0.4-0.2-0.9-0.4-1.4-0.4
		c-2.6,0-4.4,2.9-4.4,6.1c0,1.4,0.5,2.4,1.7,2.4c1.3,0,3-1.6,3.6-5.3L25.1,36.4z"/>
	<path id="Pfad_12" d="M39.7,43.9c-0.9,2-2.8,3.3-5,3.4c-3.6,0-3.7-3-3.2-6l1.3-7.6h3.5l-1.2,7.2c-0.2,1.2-0.6,3.6,1.3,3.6
		c1.3,0,3-1.5,3.6-4.6c0.2-0.7,0.9-5.4,1.1-6.2h3.5l-0.9,5.2c-0.5,2.7-0.9,5.4-1,8.1h-3.4L39.7,43.9L39.7,43.9L39.7,43.9z"/>
	<path id="Pfad_13" d="M50,41.9c0,1.5,1.2,2.7,2.7,2.7c0.1,0,0.2,0,0.3,0c1.3,0,2.7-0.3,3.9-0.8l0.3,2.5c-1.6,0.7-3.4,1.1-5.1,1.1
		c-3.6,0-5.5-2-5.5-5.4c0-4.5,2.9-8.4,7.6-8.4c2.8,0,4.4,1.6,4.5,3.7c0,2.8-2.4,4.3-6.6,4.3c-0.7,0-1.3,0-2-0.1
		C50,41.5,50,41.7,50,41.9z M51.9,39.2c2.1,0,3.4-0.8,3.4-1.9c0-0.7-0.6-1.3-1.6-1.3c-1.7,0.1-3,1.4-3.3,3.1
		C50.8,39.2,51.4,39.2,51.9,39.2L51.9,39.2z"/>
	<path id="Pfad_14" d="M65.2,36.8c0.9-2,2.8-3.3,4.9-3.5l-0.6,3.4c-2.9-0.1-4.4,2.1-4.8,4.8L63.8,47h-3.5l1.4-8.1
		c0.3-1.8,0.6-3.8,0.8-5.2l3.2-0.1L65.2,36.8L65.2,36.8z"/>
	<path id="Pfad_15" d="M83.5,38L82,47h-3.6l1.2-7.3c0.2-1.3,0.6-3.5-1.3-3.5c-1.3,0-3.2,1.9-3.8,5.6L73.7,47h-3.5l1.4-8.1
		c0.3-1.8,0.6-3.6,0.8-5.2l3.2-0.1l-0.4,3.1h0.1c1-1.9,2.9-3.1,5-3.3C82.9,33.4,83.9,35.4,83.5,38z"/>
	<path id="Pfad_16" d="M88.2,47l-2-13.3h3.5l0.9,7.4l0.4,2.5H91l1.5-2.5l1.5-2.5c0.9-1.5,1.2-3.2,0.8-4.9H98c0.6,2,0.2,4.1-0.9,5.8
		L92.1,47H88.2z"/>
	<path id="Pfad_17" d="M102.9,41.9c0,1.5,1.2,2.7,2.7,2.7c0.1,0,0.2,0,0.3,0c1.3,0,2.7-0.3,3.9-0.8l0.3,2.5
		c-1.6,0.7-3.4,1.1-5.1,1.1c-3.6,0-5.5-2-5.5-5.4c0-4.5,2.9-8.4,7.6-8.4c2.8,0,4.4,1.6,4.5,3.7c0,2.8-2.4,4.3-6.6,4.3
		c-0.7,0-1.3,0-2-0.1C102.9,41.5,102.9,41.7,102.9,41.9z M104.9,39.2c2.1,0,3.4-0.8,3.4-1.9c0-0.7-0.6-1.3-1.6-1.3
		c-1.7,0.1-3,1.4-3.3,3.1C103.8,39.2,104.3,39.2,104.9,39.2z"/>
	<path id="Pfad_18" d="M118.2,36.8c0.9-2,2.8-3.3,4.9-3.5l-0.6,3.4c-2.9-0.1-4.4,2.1-4.8,4.8l-0.9,5.5h-3.5l1.4-8.1
		c0.3-1.8,0.6-3.8,0.8-5.2l3.2-0.1L118.2,36.8L118.2,36.8z"/>
	<path id="Pfad_19" d="M126.5,27.4l3.5-0.1l-1.5,8.8h0.1c0.8-1.5,2.4-2.5,4.2-2.6c2.8,0,4,2.3,4,4.9c0,4.4-2.6,9-8.2,9
		c-2.5,0-4-0.9-4.7-2.6c0-1.7,0.2-3.3,0.5-5L126.5,27.4z M127.3,43.6c0.4,0.7,1.1,1.1,1.8,1c2.4,0,3.9-3.1,3.9-5.9
		c0-1.5-0.5-2.5-1.8-2.5C128.6,36.3,127.2,40.7,127.3,43.6L127.3,43.6z"/>
	<path id="Pfad_20" d="M151.2,38.9c-0.5,2.7-0.9,5.4-1,8.1h-3.4l0.4-3.3h-0.1c-1.1,2.2-2.8,3.6-4.5,3.6c-2.5,0-4-1.9-4-4.6
		c0-4.6,3.5-9.2,7.6-9.2c0.9,0,1.8,0.2,2.6,0.7h0.1l0.3-0.4l2.9-0.2L151.2,38.9z M148.2,36.4c-0.4-0.2-0.9-0.4-1.4-0.4
		c-2.6,0-4.4,2.9-4.4,6.1c0,1.4,0.5,2.4,1.7,2.4c1.3,0,3-1.6,3.6-5.3L148.2,36.4z"/>
	<path id="Pfad_21" d="M167.1,38l-1.5,9h-3.6l1.2-7.3c0.2-1.3,0.6-3.5-1.3-3.5c-1.3,0-3.2,1.9-3.8,5.6l-0.9,5.1h-3.5l1.4-8.1
		c0.3-1.8,0.6-3.6,0.8-5.2l3.2-0.1l-0.4,3.1h0.1c1-1.9,2.9-3.1,5-3.3C166.6,33.4,167.6,35.4,167.1,38z"/>
	<path id="Pfad_22" d="M179.6,34.2l1.1-6.8l3.5-0.1L182,40.4c-0.4,2.2-0.6,4.4-0.8,6.6h-3.4l0.4-3.3h-0.1c-1.1,2.2-2.7,3.6-4.6,3.6
		c-2.5,0-4-2-4-4.9c0-3.9,2.8-8.9,7.3-8.9C177.9,33.4,178.8,33.7,179.6,34.2L179.6,34.2L179.6,34.2z M179.2,36.6
		c-0.5-0.4-1.1-0.6-1.7-0.5c-2.4,0-4.2,2.9-4.2,6c0,1.6,0.6,2.5,1.8,2.5c1.3,0,2.9-1.6,3.5-4.9L179.2,36.6z"/>
	<path id="Pfad_23" class="st0" d="M218.9,63.1l-13,6.4L193,63l12.7-6.6L218.9,63.1z"/>
	<path id="Pfad_24" class="st0" d="M203.9,55.4L191.2,62l-13.6-6.9C186.2,52.4,195.4,52.6,203.9,55.4"/>
	<path id="Pfad_25" class="st0" d="M217.9,48.2l-12.2,6.3l-12.4-6.3H217.9z"/>
	<path id="Pfad_26" class="st0" d="M217.7,46.5l-12.3-6.2l-12.2,6.2H217.7z"/>
	<path id="Pfad_27" class="st0" d="M189.3,63L176,69.7V56.2L189.3,63z"/>
	<path id="Pfad_28" class="st0" d="M160.8,63l13.2,6.7V56.3L160.8,63z"/>
</g>
</svg>
