<svg width="134" height="79" viewBox="0 0 134 79" fill="none" xmlns="http://www.w3.org/2000/svg">
<path d="M46.4979 13.556C45.9087 12.4131 45.1075 11.4885 44.0817 10.7908C43.0601 10.0888 41.8604 9.57942 40.4827 9.26267C39.1051 8.94591 37.6256 8.78754 36.0402 8.78754H25.4088V14.4891H35.4722C36.0996 14.4891 36.7058 14.5319 37.2908 14.6133C37.88 14.6989 38.4056 14.8615 38.8677 15.1098C39.3297 15.3581 39.6985 15.7048 39.9741 16.1414C40.2454 16.5823 40.3852 17.1473 40.3852 17.8365C40.3852 18.5256 40.2496 19.0949 39.9741 19.5529C39.6985 20.0067 39.3255 20.3705 38.8465 20.6445C38.3675 20.9227 37.8291 21.1153 37.2314 21.2266C36.6295 21.3379 36.0021 21.3893 35.3493 21.3893H25.4088V38.0403H32.4074V27.0052H35.8834C37.384 27.0052 38.8295 26.8426 40.2199 26.5087C41.6103 26.1791 42.8396 25.6569 43.9036 24.9378C44.9676 24.2229 45.8112 23.2812 46.4386 22.1084C47.066 20.9398 47.3796 19.4973 47.3796 17.7894C47.3754 16.1114 47.0872 14.6989 46.4979 13.556Z" fill="#0071A6"/>
<path d="M109.494 14.8187H117.675V38.036H124.674V8.78754H109.494V14.8187Z" fill="#0071A6"/>
<path d="M134 8.78333H127.586V14.8145H134V8.78333Z" fill="#0071A6"/>
<path d="M65.6118 14.3608C66.8411 14.3608 67.9644 14.5876 68.986 15.0414C70.0076 15.4951 70.8809 16.1158 71.6057 16.8991C72.3264 17.6824 72.8944 18.6284 73.3056 19.7285C73.7168 20.8329 73.9203 22.0143 73.9203 23.2813C73.9203 24.604 73.7168 25.8239 73.3056 26.9368C72.8944 28.054 72.3264 29.0086 71.5888 29.809C71.4955 29.9117 71.3896 30.0059 71.2878 30.1001L74.0093 36.7134C75.086 36.1056 76.0567 35.3822 76.93 34.5389C78.3331 33.1777 79.431 31.5383 80.2195 29.6207C81.0079 27.7073 81.4064 25.5927 81.4064 23.2813C81.4064 20.9399 81.0079 18.8253 80.2195 16.9376C79.431 15.0499 78.3288 13.449 76.93 12.1264C75.5226 10.8037 73.8524 9.78496 71.9194 9.07012C69.9737 8.35956 67.8754 8 65.6118 8C64.4672 8 63.3651 8.09417 62.3096 8.27823L64.8275 14.3993C65.0819 14.3779 65.3447 14.3608 65.6118 14.3608Z" fill="#0071A6"/>
<path d="M61.6737 38.4042L74.8995 70.5335H82.2033L66.4807 32.3345C66.1967 32.3645 65.9042 32.3773 65.6117 32.3773C64.3824 32.3773 63.2675 32.1505 62.2587 31.6967C61.2498 31.2387 60.3808 30.6181 59.6601 29.8133C58.9353 29.0172 58.3672 28.0583 57.9603 26.9411C57.5491 25.8282 57.3456 24.6083 57.3456 23.2856C57.3456 22.0186 57.5449 20.8329 57.9391 19.7328C58.3333 18.6327 58.9013 17.6868 59.6389 16.9034C59.7492 16.7836 59.8763 16.6723 59.995 16.561L57.2948 9.99902C56.2053 10.5897 55.2219 11.3003 54.3402 12.1307C52.9328 13.4534 51.8391 15.0585 51.0464 16.942C50.258 18.8296 49.8595 20.9442 49.8595 23.2856C49.8595 25.6013 50.258 27.7116 51.0464 29.6293C51.8391 31.5426 52.937 33.1821 54.3402 34.5433C55.7475 35.9044 57.4092 36.9617 59.3337 37.7065C60.0883 37.9933 60.8683 38.2287 61.6737 38.4042Z" fill="#0071A6"/>
<path d="M87.5783 46.9866C87.7987 46.9866 88.0276 46.9994 88.2523 47.0122C88.5617 47.0336 88.8754 47.0636 89.2018 47.1107C89.7656 47.192 90.2701 47.3504 90.7236 47.5858C91.1772 47.8213 91.546 48.1508 91.8343 48.5789C92.1225 49.0069 92.2667 49.5634 92.2667 50.2483C92.2667 50.9931 92.1098 51.5966 91.7919 52.0675C91.5121 52.4827 91.1603 52.808 90.7364 53.0477C90.6813 53.0777 90.6346 53.1119 90.5795 53.1419C90.0878 53.3901 89.5367 53.5614 88.9348 53.6598C88.3328 53.7583 87.7436 53.8053 87.1671 53.8053H84.1871L91.0712 70.5334V70.5377H97.93L92.822 58.1243C94.9076 57.5636 96.5142 56.4806 97.5782 55.128C98.6422 53.7797 99.1763 52.1103 99.1763 50.1284C99.1763 48.4505 98.8626 47.0465 98.2352 45.9122C97.6078 44.7821 96.7685 43.8747 95.7172 43.1855C94.6659 42.4963 93.479 42.0084 92.1607 41.7173C90.8381 41.4305 89.4774 41.285 88.087 41.285H85.8911H75.9633H75.8955L78.2567 46.9866H87.5783V46.9866Z" fill="#0071A6"/>
<path d="M94.6067 14.4892C94.8271 14.4892 95.056 14.4978 95.2807 14.5149C95.5902 14.5363 95.9081 14.5663 96.2303 14.6134C96.794 14.6947 97.2985 14.8531 97.7521 15.0885C98.2014 15.3239 98.5744 15.6535 98.8585 16.0816C99.1467 16.5096 99.2908 17.0661 99.2908 17.751C99.2908 18.4958 99.134 19.0993 98.8161 19.5702C98.5363 19.9854 98.1844 20.3107 97.7605 20.5504C97.7054 20.5804 97.6546 20.6146 97.6037 20.6446C97.112 20.8928 96.5609 21.064 95.959 21.1625C95.357 21.261 94.7678 21.308 94.1913 21.308H91.2112L98.0954 38.0361V38.0404H104.954L99.8461 25.627C101.936 25.0663 103.543 23.9833 104.602 22.6307C105.666 21.2824 106.2 19.613 106.2 17.6311C106.2 15.9532 105.887 14.5492 105.259 13.4148C104.632 12.2848 103.793 11.3816 102.741 10.6882C101.69 9.99902 100.503 9.51105 99.1849 9.22426C97.8623 8.93319 96.5015 8.79193 95.1111 8.79193H92.9153H81.4572H81.3894L83.7463 14.4935H94.6067V14.4892Z" fill="#0071A6"/>
<path d="M125.064 48.9042C124.11 47.0294 122.856 45.5355 121.3 44.4226C119.744 43.3054 117.972 42.5092 115.984 42.0255C113.992 41.5418 111.974 41.3021 109.931 41.3021H99.4689L106.289 57.8804V47.3333H109.765C110.965 47.3333 112.131 47.4703 113.263 47.7485C114.394 48.0267 115.403 48.4848 116.289 49.1354C117.175 49.7817 117.887 50.6507 118.417 51.7336C118.947 52.8209 119.214 54.1906 119.214 55.8472C119.214 57.4738 118.951 58.8349 118.417 59.9393C117.883 61.0394 117.175 61.9212 116.289 62.5846C115.403 63.2438 114.382 63.719 113.22 64.01C112.063 64.3011 110.855 64.4424 109.6 64.4424H108.981L111.478 70.5164C113.051 70.4222 114.606 70.1568 116.145 69.7073C118.082 69.1423 119.82 68.2605 121.359 67.062C122.898 65.8635 124.144 64.3353 125.081 62.4776C126.022 60.6199 126.493 58.4112 126.493 55.8472C126.497 53.0905 126.018 50.7791 125.064 48.9042Z" fill="#0071A6"/>
<path d="M50.0332 70.5334H57.3328L63.259 56.1297L59.6049 47.252L50.0332 70.5334Z" fill="#0071A6"/>
<path d="M12.6408 8.04401C11.2758 8.04401 9.92781 8.21523 8.58828 8.56194C7.25298 8.90438 6.05334 9.448 4.98934 10.1928C3.92534 10.9376 3.06906 11.8836 2.41625 13.0436C1.7592 14.1993 1.43703 15.5905 1.43703 17.2128C1.43703 18.5354 1.64898 19.6569 2.06865 20.5815C2.49255 21.5061 3.04786 22.2894 3.7473 22.9358C4.44251 23.5821 5.2352 24.1129 6.12116 24.5238C7.00712 24.939 7.91427 25.2943 8.84262 25.5982C9.7964 25.9021 10.6484 26.1847 11.3988 26.4458C12.1491 26.7069 12.7764 26.9979 13.2809 27.3147C13.7853 27.6315 14.1753 27.9825 14.4466 28.3677C14.7179 28.7572 14.8578 29.2238 14.8578 29.7717C14.8578 30.3538 14.7476 30.8461 14.5314 31.2613C14.311 31.6765 14.0185 32.0061 13.6539 32.2501C13.2851 32.4984 12.857 32.6781 12.3653 32.7851C11.8735 32.8964 11.3691 32.9521 10.8519 32.9521C9.70738 32.9521 8.55013 32.6567 7.39711 32.066C6.23562 31.471 5.30303 30.7348 4.59511 29.8573L0 34.5658C1.28019 35.9142 2.89102 36.9586 4.82826 37.6863C6.76126 38.414 8.76632 38.7778 10.8434 38.7778C12.2593 38.7778 13.637 38.5852 14.9723 38.1999C16.3076 37.8147 17.4945 37.224 18.533 36.4235C19.5674 35.6274 20.394 34.6129 21.0086 33.3887C21.6233 32.1602 21.9285 30.7091 21.9285 29.0312C21.9285 27.5715 21.6403 26.3516 21.068 25.3756C20.4915 24.3997 19.7708 23.5778 18.9018 22.9187C18.0286 22.2595 17.0579 21.7287 15.9981 21.3306C14.9341 20.9282 13.9125 20.5644 12.929 20.2348C12.2466 20.0122 11.6319 19.8025 11.0851 19.597C10.5425 19.3873 10.0677 19.1647 9.67347 18.9164C9.275 18.6681 8.97827 18.3813 8.7748 18.0475C8.56708 17.7179 8.46535 17.3027 8.46535 16.8061C8.46535 16.2283 8.59676 15.7531 8.85534 15.3807C9.11392 15.0083 9.43609 14.7044 9.8176 14.4733C10.1991 14.2379 10.6273 14.0795 11.1063 13.9981C11.5853 13.9168 12.0558 13.874 12.5179 13.874C12.5603 13.874 12.6026 13.8783 13.0265 13.8783V8.04401C12.645 8.04401 12.645 8.04401 12.6408 8.04401Z" fill="#0071A6"/>
<path d="M42.8948 64.3995C38.1004 64.3995 34.2175 60.4743 34.2175 55.6331C34.2175 50.7961 38.1004 46.8709 42.8948 46.8709C46.4895 46.8709 49.5755 49.0797 50.8938 52.2258L53.8696 44.9918C51.1015 42.0811 47.2101 40.2662 42.899 40.2662C34.493 40.2662 27.6809 47.1492 27.6809 55.6331C27.6809 64.1213 34.4973 71 42.899 71C42.9923 71 43.0855 70.9957 43.1788 70.9914L46.1546 63.7531C45.1457 64.1684 44.0436 64.3995 42.8948 64.3995Z" fill="#0071A6"/>
</svg>
