<?xml version="1.0" encoding="utf-8"?>
<!-- Generator: Adobe Illustrator 25.4.1, SVG Export Plug-In . SVG Version: 6.00 Build 0)  -->
<svg version="1.1" id="Layer_1" xmlns="http://www.w3.org/2000/svg" xmlns:xlink="http://www.w3.org/1999/xlink" x="0px" y="0px"
	 viewBox="0 0 316.11 147.18" style="enable-background:new 0 0 316.11 147.18;" xml:space="preserve">
<style type="text/css">
	.st0{clip-path:url(#SVGID_00000011713994269470678500000007253664332694613419_);fill:#0071A6;}
</style>
<g>
	<defs>
		<rect id="SVGID_2_" x="0" width="316.11" height="147.18"/>
	</defs>
	<clipPath id="SVGID_00000150076650923285140570000006401644087640180900_">
		<use xlink:href="#SVGID_2_"  style="overflow:visible;"/>
	</clipPath>
	<path style="clip-path:url(#SVGID_00000150076650923285140570000006401644087640180900_);fill:#0071A6;" d="M109.69,12.98
		c-1.39-2.67-3.28-4.83-5.7-6.46c-2.41-1.64-5.24-2.83-8.49-3.57c-3.25-0.74-6.74-1.11-10.48-1.11H59.94v13.32h23.74
		c1.48,0,2.91,0.1,4.29,0.29c1.39,0.2,2.63,0.58,3.72,1.16c1.09,0.58,1.96,1.39,2.61,2.41c0.64,1.03,0.97,2.35,0.97,3.96
		c0,1.61-0.32,2.94-0.97,4.01c-0.65,1.06-1.53,1.91-2.66,2.55c-1.13,0.65-2.4,1.1-3.81,1.36c-1.42,0.26-2.9,0.38-4.44,0.38H59.94
		v38.9h16.51V44.4h8.2c3.54,0,6.95-0.38,10.23-1.16c3.28-0.77,6.18-1.99,8.69-3.67c2.51-1.67,4.5-3.87,5.98-6.61
		c1.48-2.73,2.22-6.1,2.22-10.09C111.76,18.95,111.08,15.65,109.69,12.98"/>
	<polygon style="clip-path:url(#SVGID_00000150076650923285140570000006401644087640180900_);fill:#0071A6;" points="258.3,15.93 
		277.6,15.93 277.6,70.17 294.11,70.17 294.11,1.84 258.3,1.84 	"/>
	
		<rect x="300.98" y="1.83" style="clip-path:url(#SVGID_00000150076650923285140570000006401644087640180900_);fill:#0071A6;" width="15.13" height="14.09"/>
	<path style="clip-path:url(#SVGID_00000150076650923285140570000006401644087640180900_);fill:#0071A6;" d="M154.78,14.86
		c2.9,0,5.55,0.53,7.96,1.59c2.41,1.06,4.47,2.51,6.18,4.34c1.7,1.83,3.04,4.04,4.01,6.61c0.97,2.58,1.45,5.34,1.45,8.3
		c0,3.09-0.48,5.94-1.45,8.54c-0.97,2.61-2.31,4.84-4.05,6.71c-0.22,0.24-0.47,0.46-0.71,0.68l6.42,15.45
		c2.54-1.42,4.83-3.11,6.89-5.08c3.31-3.18,5.9-7.01,7.76-11.49c1.86-4.47,2.8-9.41,2.8-14.81c0-5.47-0.94-10.41-2.8-14.82
		c-1.86-4.41-4.46-8.15-7.76-11.24c-3.32-3.09-7.26-5.47-11.82-7.14C165.07,0.84,160.12,0,154.78,0c-2.7,0-5.3,0.22-7.79,0.65
		l5.94,14.3C153.53,14.9,154.15,14.86,154.78,14.86"/>
	<path style="clip-path:url(#SVGID_00000150076650923285140570000006401644087640180900_);fill:#0071A6;" d="M145.49,71.03
		l31.2,75.06h17.23l-37.09-89.24c-0.67,0.07-1.36,0.1-2.05,0.1c-2.9,0-5.53-0.53-7.91-1.59c-2.38-1.07-4.43-2.52-6.13-4.4
		c-1.71-1.86-3.05-4.1-4.01-6.71c-0.97-2.6-1.45-5.45-1.45-8.54c0-2.96,0.47-5.73,1.4-8.3c0.93-2.57,2.27-4.78,4.01-6.61
		c0.26-0.28,0.56-0.54,0.84-0.8l-6.37-15.33c-2.57,1.38-4.89,3.04-6.97,4.98c-3.32,3.09-5.9,6.84-7.77,11.24
		c-1.86,4.41-2.8,9.35-2.8,14.82c0,5.41,0.94,10.34,2.8,14.82c1.87,4.47,4.46,8.3,7.77,11.48c3.32,3.18,7.24,5.65,11.78,7.39
		C141.75,70.07,143.59,70.62,145.49,71.03"/>
	<path style="clip-path:url(#SVGID_00000150076650923285140570000006401644087640180900_);fill:#0071A6;" d="M206.6,91.08
		c0.52,0,1.06,0.03,1.59,0.06c0.73,0.05,1.47,0.12,2.24,0.23c1.33,0.19,2.52,0.56,3.59,1.11c1.07,0.55,1.94,1.32,2.62,2.32
		c0.68,1,1.02,2.3,1.02,3.9c0,1.74-0.37,3.15-1.12,4.25c-0.66,0.97-1.49,1.73-2.49,2.29c-0.13,0.07-0.24,0.15-0.37,0.22
		c-1.16,0.58-2.46,0.98-3.88,1.21c-1.42,0.23-2.81,0.34-4.17,0.34h-7.03l16.24,39.08v0.01h16.18l-12.05-29
		c4.92-1.31,8.71-3.84,11.22-7c2.51-3.15,3.77-7.05,3.77-11.68c0-3.92-0.74-7.2-2.22-9.85c-1.48-2.64-3.46-4.76-5.94-6.37
		c-2.48-1.61-5.28-2.75-8.39-3.43c-3.12-0.67-6.33-1.01-9.61-1.01h-5.18H179.2h-0.16l5.57,13.32H206.6z"/>
	<path style="clip-path:url(#SVGID_00000150076650923285140570000006401644087640180900_);fill:#0071A6;" d="M223.18,15.16
		c0.52,0,1.06,0.02,1.59,0.06c0.73,0.05,1.48,0.12,2.24,0.23c1.33,0.19,2.52,0.56,3.59,1.11c1.06,0.55,1.94,1.32,2.61,2.32
		c0.68,1,1.02,2.3,1.02,3.9c0,1.74-0.37,3.15-1.12,4.25c-0.66,0.97-1.49,1.73-2.49,2.29c-0.13,0.07-0.25,0.15-0.37,0.22
		c-1.16,0.58-2.46,0.98-3.88,1.21c-1.42,0.23-2.81,0.34-4.17,0.34h-7.03l16.24,39.08v0.01h16.18l-12.05-29
		c4.93-1.31,8.72-3.84,11.22-7c2.51-3.15,3.77-7.05,3.77-11.68c0-3.92-0.74-7.2-2.22-9.85c-1.48-2.64-3.46-4.75-5.94-6.37
		c-2.48-1.61-5.28-2.75-8.39-3.42c-3.12-0.68-6.33-1.01-9.61-1.01h-5.18h-27.03h-0.16l5.56,13.32H223.18z"/>
	<path style="clip-path:url(#SVGID_00000150076650923285140570000006401644087640180900_);fill:#0071A6;" d="M295.03,95.56
		c-2.25-4.38-5.21-7.87-8.88-10.47c-3.67-2.61-7.85-4.47-12.54-5.6c-4.7-1.13-9.46-1.69-14.28-1.69h-24.68l16.09,38.73V91.89h8.2
		c2.83,0,5.58,0.32,8.25,0.97c2.67,0.65,5.05,1.72,7.14,3.24c2.09,1.51,3.77,3.54,5.02,6.07c1.25,2.54,1.88,5.74,1.88,9.61
		c0,3.8-0.62,6.98-1.88,9.56c-1.26,2.57-2.93,4.63-5.02,6.18c-2.09,1.54-4.5,2.65-7.24,3.33c-2.73,0.68-5.58,1.01-8.54,1.01h-1.46
		l5.89,14.19c3.71-0.22,7.38-0.84,11.01-1.89c4.57-1.32,8.67-3.38,12.3-6.18c3.63-2.8,6.57-6.37,8.78-10.71
		c2.22-4.34,3.33-9.5,3.33-15.49C298.41,105.34,297.28,99.94,295.03,95.56"/>
	<polygon style="clip-path:url(#SVGID_00000150076650923285140570000006401644087640180900_);fill:#0071A6;" points="118.03,146.09 
		135.25,146.09 149.23,112.44 140.61,91.7 	"/>
	<path style="clip-path:url(#SVGID_00000150076650923285140570000006401644087640180900_);fill:#0071A6;" d="M29.82,0.1
		c-3.22,0-6.4,0.4-9.56,1.21c-3.15,0.8-5.98,2.07-8.49,3.81C9.26,6.86,7.24,9.07,5.7,11.78c-1.55,2.7-2.31,5.95-2.31,9.74
		c0,3.09,0.5,5.71,1.49,7.87c1,2.16,2.31,3.99,3.96,5.5c1.64,1.51,3.51,2.75,5.6,3.71c2.09,0.97,4.23,1.8,6.42,2.51
		c2.25,0.71,4.26,1.37,6.03,1.98c1.77,0.61,3.25,1.29,4.44,2.03c1.19,0.74,2.11,1.56,2.75,2.46c0.64,0.91,0.97,2,0.97,3.28
		c0,1.36-0.26,2.51-0.77,3.48c-0.52,0.97-1.21,1.74-2.07,2.31c-0.87,0.58-1.88,1-3.04,1.25c-1.16,0.26-2.35,0.39-3.57,0.39
		c-2.7,0-5.43-0.69-8.15-2.07c-2.74-1.39-4.94-3.11-6.61-5.16L0,62.06c3.02,3.15,6.82,5.59,11.39,7.29
		c4.56,1.7,9.29,2.55,14.19,2.55c3.34,0,6.59-0.45,9.74-1.35c3.15-0.9,5.95-2.28,8.4-4.15c2.44-1.86,4.39-4.23,5.84-7.09
		c1.45-2.87,2.17-6.26,2.17-10.18c0-3.41-0.68-6.26-2.03-8.54c-1.36-2.28-3.06-4.2-5.11-5.74c-2.06-1.54-4.35-2.78-6.85-3.71
		c-2.51-0.94-4.92-1.79-7.24-2.56c-1.61-0.52-3.06-1.01-4.35-1.49c-1.28-0.49-2.4-1.01-3.33-1.59c-0.94-0.58-1.64-1.25-2.12-2.03
		c-0.49-0.77-0.73-1.74-0.73-2.9c0-1.35,0.31-2.46,0.92-3.33c0.61-0.87,1.37-1.58,2.27-2.12c0.9-0.55,1.91-0.92,3.04-1.11
		c1.13-0.19,2.24-0.29,3.33-0.29c0.1,0,0.2,0.01,1.2,0.01V0.1C29.83,0.1,29.83,0.1,29.82,0.1"/>
	<path style="clip-path:url(#SVGID_00000150076650923285140570000006401644087640180900_);fill:#0071A6;" d="M101.19,131.76
		c-11.31,0-20.47-9.17-20.47-20.48c0-11.3,9.16-20.47,20.47-20.47c8.48,0,15.76,5.16,18.87,12.51l7.02-16.9
		c-6.53-6.8-15.71-11.04-25.88-11.04c-19.83,0-35.9,16.08-35.9,35.9c0,19.83,16.08,35.9,35.9,35.9c0.22,0,0.44-0.01,0.66-0.02
		l7.02-16.91C106.5,131.22,103.9,131.76,101.19,131.76"/>
</g>
</svg>
