<?xml version="1.0" encoding="utf-8"?>
<!-- Generator: Adobe Illustrator 25.4.1, SVG Export Plug-In . SVG Version: 6.00 Build 0)  -->
<svg version="1.1" id="Ebene_1" xmlns="http://www.w3.org/2000/svg" xmlns:xlink="http://www.w3.org/1999/xlink" x="0px" y="0px"
	 viewBox="0 0 595.28 247.35" style="enable-background:new 0 0 595.28 247.35;" xml:space="preserve">
<style type="text/css">
	.st0{fill:#FFFFFF;}
	.st1{fill:#EA2026;}
</style>
<path class="st0" d="M297.24,164.32h-0.33l-0.21-0.26c-2.66-3.38-4.07-7.82-5.89-11.73c-0.31,0-0.63,0.01-0.95,0.01
	c-0.91-0.02-1.87-0.01-2.61-0.74l-0.19-0.2v-4.11c-0.06-0.02-0.2-0.04-0.37-0.04c-0.47,0-1.19,0.13-1.87,0.13
	c-0.25,0-0.49-0.01-0.75-0.08l-0.68-0.21l0.23-0.66c1.11-3.47,1.68-5.85,1.68-8.2c0-2.27-0.53-4.57-1.63-7.75
	c-1.36-2.77-7.25-2.08-11.29-3.55c-3.83,2.88-11.25,4.65-11.01,8.47c0,1.08,0.52,2.49,1.95,4.31l0.52,0.65l-0.74,0.38
	c-3.22,1.59-5.7,6.59-11.12,6.66c-1.05,0-2.17-0.19-3.41-0.62l-0.37-0.13l-0.07-0.39c-0.05-0.3-0.07-0.59-0.07-0.87
	c0.2-4.9,6.46-7.51,7.49-12.48c-1.65-1.48-2.51-3.37-2.51-5.24c-0.01-1.99,0.99-3.93,2.92-5.28c-0.4-1.09-0.72-2.29-0.83-3.68
	l-0.04-0.45l0.4-0.21c4.91-2.54,8.63-6.47,13.64-9.3c0.02-0.45,0.03-0.93,0.03-1.41c0-1.75-0.1-3.62-0.1-5.41
	c0.01-2.8,0.21-5.46,1.74-7.21l0.2-0.23h3.59c7.95-5.71,13.85-13.59,19.51-21.78c-1.73-0.4-2.81-1.23-4.37-1.33l-0.76-0.06
	l0.14-0.75c0.6-3.03,3.78-6.77,9.28-6.79c0.78,0,1.63,0.08,2.51,0.25l0.56,0.1v3.07c1.23,0.38,2.33,0.53,3.32,0.53
	c3.45,0,5.75-1.92,7.86-4c2.1-2.04,3.91-4.34,6.7-4.39c1.4,0,2.87,0.64,4.52,2.06c1.18-0.74,1.75-2.84,4.27-3.36l0.19-0.03
	l0.16,0.06c2.65,0.96,3.81,1.68,5.7,1.67c0.56,0,1.18-0.06,1.95-0.2c1.98-0.29,3.18-2.95,5.49-3.5c0.4-0.08,0.8-0.1,1.22-0.1
	c3.08,0.02,6.73,1.55,10.05,1.64l-0.04,1.37c-3.65-0.13-7.37-1.65-10-1.63c-0.36,0-0.68,0.02-0.97,0.08
	c-1.26,0.07-2.7,2.86-5.48,3.5c-0.84,0.15-1.56,0.23-2.21,0.23c-2.25-0.01-3.61-0.83-6.01-1.71c-1.61,0.31-1.96,2.34-4.14,3.43
	l-0.41,0.18l-0.32-0.29c-1.67-1.51-2.94-2.01-3.96-2.01c-1.86-0.05-3.59,1.84-5.74,4c-2.13,2.11-4.8,4.39-8.82,4.39
	c-1.28,0-2.68-0.24-4.21-0.75l-0.47-0.15v-2.92c-0.6-0.09-1.16-0.13-1.7-0.13c-4.38-0.01-6.94,2.69-7.75,4.98
	c1.89,0.38,2.99,1.3,4.68,1.39l1.2,0.09l-0.68,0.98c-5.9,8.58-12.08,17.03-20.65,23.13l-0.18,0.13h-3.39
	c-0.93,1.25-1.22,3.5-1.2,6.07c0,1.75,0.1,3.62,0.1,5.41c0,0.63-0.02,1.25-0.05,1.85l-0.02,0.38l-0.33,0.19
	c-4.81,2.62-8.53,6.54-13.6,9.29c0.15,1.25,0.48,2.33,0.92,3.34l0.23,0.54l-0.51,0.31c-1.89,1.15-2.74,2.76-2.74,4.42
	c0,1.54,0.74,3.15,2.32,4.46l0.31,0.25l-0.07,0.4c-1.19,6.06-7.75,8.97-7.53,12.62c0,0.08,0,0.15,0.01,0.23
	c0.94,0.29,1.77,0.41,2.55,0.41c4.16,0.07,6.42-3.88,9.81-6.09c-1.22-1.69-1.78-3.17-1.78-4.54c0.25-5.65,8.83-6.94,11.82-9.77
	l0.33-0.28l0.4,0.18c3.33,1.64,9.87,0.32,12.36,4.39c1.17,3.34,1.76,5.82,1.76,8.31c0,2.37-0.53,4.7-1.48,7.77
	c0.44-0.03,0.99-0.11,1.51-0.12c0.57-0.03,1.53,0.18,1.72,1.12l0.02,0.06v3.73c0.27,0.11,0.78,0.2,1.42,0.19
	c0.43,0,0.91-0.02,1.38-0.02h0.43l0.19,0.38c1.91,4.02,3.3,8.43,5.71,11.6c3.33-0.09,4.36-2.73,8.14-3.5c0.02,0,0.07-0.01,0.14-0.01
	c1.08-0.02,1.76,0.68,2.1,1.16c0.28,0.38,0.46,0.62,0.68,0.76c2.69-1.97,5.42-3.97,8.84-5.35l0.27-0.11l0.27,0.12
	c3.41,1.54,6.44,3.19,10.96,3.41c-0.01-0.12-0.01-0.24-0.01-0.36c-0.01-1.45,0.43-2.64,1.3-3.43l0.25-0.24l0.34,0.06
	c0.21,0.05,0.37,0.06,0.53,0.06c0.77,0.06,1.25-0.57,2.68-0.62c0.07,0,0.14,0,0.23,0.01c0.8-1.99,1.68-3.85,2.27-5.94l0.12-0.46
	l0.48-0.04c2.6-0.21,3.95-1.28,4.77-3.19c-1.29-1.63-1.85-3.73-2.8-5.26l-0.26-0.44l0.34-0.37c4.17-4.6,8.57-8.98,13.16-13.18
	l0.93,1c-4.44,4.06-8.7,8.3-12.74,12.73c0.97,1.78,1.57,3.74,2.66,4.93l0.28,0.31l-0.13,0.38c-0.83,2.42-2.73,4.09-5.63,4.41
	c-0.67,2.22-1.6,4.13-2.38,6.12l-0.22,0.53l-0.56-0.11c-0.21-0.04-0.37-0.06-0.53-0.06c-0.77-0.05-1.26,0.58-2.68,0.63
	c-0.13,0-0.27-0.01-0.4-0.03c-0.4,0.49-0.64,1.17-0.64,2.2c0,0.3,0.01,0.62,0.06,0.98l0.09,0.78l-0.77-0.01
	c-5.15-0.05-8.57-1.87-12-3.43c-3.2,1.35-5.85,3.31-8.57,5.3l-0.26,0.19l-0.3-0.07c-0.97-0.23-1.4-0.96-1.72-1.38
	c-0.36-0.43-0.45-0.59-1.01-0.62c0,0-0.03,0,0.01,0c-2.98,0.43-4.19,3.44-8.59,3.51H297.24z M287.08,147.28h0.01H287.08z"/>
<path class="st1" d="M391.65,137.06c4.71,3.23,9.06,6.83,15.59,8.23c-0.91,1.55-2.58,2.33-3.48,3.89c2.47,2.59,7.28,2.82,6.07,9.09
	c3.49,0.45,5.39-0.67,6.06-3.03c-0.98-1.92-3.28-2.5-3.89-4.78c2.12-5.95,7.26-8.88,9.52-14.7V123.2
	c9.69-1.79,7.35,9.99,12.57,10.83c5.23,0.83,6.06-7.32,13.85-5.2c0.54,3.48,3.54,8.23,7.36,5.64c0.2-2.5-2.45-2.16-2.59-4.34
	c0.56-1.15,1.14-2.28,1.72-3.46c-1.32-0.85-3.25-1.08-3.9-2.6c-1-5.76,2.28-7.25,4.77-9.51c2.43,2.47,5.14,4.65,10.39,4.32v-4.32
	c-0.94-0.66-2.7-0.48-3.03-1.74c1.16-4.16,1.58-9.1,3.03-12.99c-0.67-1.77-2.02-2.88-3.46-3.89c-1.46,1-2.11,2.8-5.18,2.17
	c-0.3,3.04-1.93,4.72-3.91,6.06c-2.24-2.23-5.29-3.67-9.53-3.9v-5.64c-3.48-0.7-7.58-0.78-10.38-2.15c-0.7-3.79-1.78-7.19-2.6-10.83
	c1.53-2.21,3.22-4.27,4.33-6.92c-3.18-5.08-7.52-11-14.29-12.55c-2.96-0.69-5.94,0.2-8.67-1.74c-1.65,0.5-3.17,1.15-4.75,1.74
	c-2.29-0.69-4.08-5.68-7.37-6.49c-4.61-1.16-9.25,0.56-9.52,5.63c1.16,2.08,4.47-0.26,5.63,2.16c-1.75,1.97-3.94,2.36-6.18,2.16
	v59.8"/>
<rect x="309.93" y="96.03" class="st1" width="18.03" height="18.03"/>
<polygon class="st0" points="325.65,102.89 321.11,102.89 321.11,98.39 316.81,98.39 316.81,102.89 312.26,102.89 312.26,107.21 
	316.81,107.21 316.81,111.76 321.11,111.76 321.11,107.21 325.65,107.21 "/>
<path class="st0" d="M36.49,186.74c-0.52-0.97-1.19-1.79-2.02-2.43c-0.84-0.64-1.81-1.11-2.92-1.41c-1.09-0.29-2.26-0.45-3.49-0.45
	c-0.96,0-1.93,0.1-2.92,0.31c-0.97,0.2-1.88,0.54-2.69,1.03c-0.82,0.48-1.48,1.1-1.99,1.89c-0.5,0.77-0.75,1.73-0.75,2.87
	c0,0.96,0.23,1.77,0.71,2.42c0.48,0.66,1.08,1.23,1.82,1.69c0.72,0.44,1.51,0.83,2.39,1.12c0.87,0.3,1.66,0.54,2.4,0.73l5.75,1.3
	c1.23,0.18,2.44,0.5,3.67,0.98c1.18,0.48,2.27,1.11,3.2,1.89c0.94,0.77,1.69,1.74,2.3,2.87c0.58,1.13,0.89,2.47,0.89,4.03
	c0,1.93-0.43,3.55-1.3,4.9c-0.87,1.34-1.97,2.45-3.33,3.28c-1.34,0.84-2.85,1.45-4.54,1.81c-1.69,0.37-3.36,0.55-5,0.55
	c-4.16,0-7.51-0.98-10.1-2.94c-2.58-1.95-4.05-5.1-4.41-9.44h4.31c0.18,2.92,1.24,5.12,3.17,6.59c1.95,1.48,4.36,2.24,7.23,2.24
	c1.04,0,2.13-0.13,3.25-0.35c1.12-0.24,2.16-0.61,3.12-1.16c0.96-0.56,1.73-1.25,2.37-2.1c0.6-0.85,0.92-1.88,0.92-3.12
	c0-1.03-0.23-1.92-0.64-2.63c-0.44-0.71-1.04-1.3-1.76-1.78c-0.74-0.48-1.56-0.88-2.5-1.19c-0.94-0.33-1.87-0.6-2.83-0.82
	l-5.54-1.25c-1.41-0.35-2.72-0.78-3.9-1.26s-2.24-1.07-3.11-1.78c-0.89-0.72-1.59-1.57-2.08-2.6c-0.5-1.02-0.76-2.28-0.76-3.8
	c0-1.77,0.4-3.3,1.2-4.58c0.79-1.28,1.84-2.29,3.12-3.08c1.27-0.77,2.7-1.34,4.28-1.71c1.57-0.36,3.12-0.54,4.69-0.54
	c1.78,0,3.43,0.22,4.96,0.69c1.53,0.45,2.88,1.16,4.04,2.11c1.15,0.97,2.09,2.15,2.77,3.58c0.69,1.41,1.07,3.08,1.17,4.98h-4.32
	C37.26,188.88,36.99,187.73,36.49,186.74"/>
<polygon class="st0" points="59,179.87 68.03,210.12 68.17,210.12 76.79,179.87 81.65,179.87 90.28,210.12 90.41,210.12 
	99.45,179.87 104.03,179.87 92.67,215.18 87.95,215.18 79.25,185.48 79.12,185.48 70.49,215.18 65.77,215.18 54.41,179.87 "/>
<path class="st0" d="M121.95,173.23h-4.31v-6.91h4.31V173.23z M121.95,215.18h-4.31v-35.31h4.31V215.18z"/>
<path class="st0" d="M159.46,186.74c-0.5-0.97-1.17-1.79-2.01-2.43c-0.84-0.64-1.82-1.11-2.92-1.41c-1.09-0.29-2.26-0.45-3.49-0.45
	c-0.96,0-1.93,0.1-2.92,0.31c-0.98,0.2-1.88,0.54-2.69,1.03c-0.82,0.48-1.48,1.1-1.99,1.89c-0.51,0.77-0.75,1.73-0.75,2.87
	c0,0.96,0.23,1.77,0.71,2.42c0.47,0.66,1.08,1.23,1.81,1.69c0.73,0.44,1.52,0.83,2.4,1.12c0.87,0.3,1.66,0.54,2.39,0.73l5.75,1.3
	c1.24,0.18,2.45,0.5,3.67,0.98c1.2,0.48,2.28,1.11,3.2,1.89c0.95,0.77,1.7,1.74,2.31,2.87c0.58,1.13,0.89,2.47,0.89,4.03
	c0,1.93-0.44,3.55-1.3,4.9c-0.87,1.34-1.98,2.45-3.33,3.28c-1.34,0.84-2.86,1.45-4.54,1.81c-1.7,0.37-3.36,0.55-5.01,0.55
	c-4.15,0-7.5-0.98-10.09-2.94c-2.58-1.95-4.06-5.1-4.41-9.44h4.31c0.18,2.92,1.24,5.12,3.18,6.59c1.94,1.48,4.35,2.24,7.22,2.24
	c1.04,0,2.13-0.13,3.24-0.35c1.12-0.24,2.17-0.61,3.13-1.16c0.96-0.56,1.74-1.25,2.37-2.1c0.6-0.85,0.91-1.88,0.91-3.12
	c0-1.03-0.22-1.92-0.64-2.63c-0.44-0.71-1.03-1.3-1.75-1.78c-0.74-0.48-1.57-0.88-2.5-1.19c-0.93-0.33-1.87-0.6-2.83-0.82
	l-5.54-1.25c-1.41-0.35-2.73-0.78-3.9-1.26c-1.18-0.48-2.23-1.07-3.11-1.78c-0.89-0.72-1.6-1.57-2.09-2.6
	c-0.5-1.02-0.74-2.28-0.74-3.8c0-1.77,0.39-3.3,1.18-4.58c0.79-1.28,1.84-2.29,3.12-3.08c1.28-0.77,2.69-1.34,4.27-1.71
	c1.58-0.36,3.14-0.54,4.69-0.54c1.79,0,3.44,0.22,4.97,0.69c1.54,0.45,2.88,1.16,4.04,2.11c1.16,0.97,2.09,2.15,2.77,3.58
	c0.68,1.41,1.07,3.08,1.16,4.98h-4.32C160.25,188.88,159.98,187.73,159.46,186.74"/>
<path class="st0" d="M201.28,186.74c-0.5-0.97-1.17-1.79-2.01-2.43c-0.86-0.64-1.82-1.11-2.92-1.41c-1.1-0.29-2.26-0.45-3.49-0.45
	c-0.95,0-1.93,0.1-2.92,0.31c-0.97,0.2-1.87,0.54-2.7,1.03c-0.81,0.48-1.47,1.1-1.98,1.89c-0.5,0.77-0.75,1.73-0.75,2.87
	c0,0.96,0.24,1.77,0.71,2.42c0.48,0.66,1.08,1.23,1.81,1.69c0.73,0.44,1.52,0.83,2.4,1.12c0.87,0.3,1.65,0.54,2.39,0.73l5.76,1.3
	c1.23,0.18,2.44,0.5,3.67,0.98c1.18,0.48,2.27,1.11,3.19,1.89c0.95,0.77,1.7,1.74,2.3,2.87c0.6,1.13,0.9,2.47,0.9,4.03
	c0,1.93-0.44,3.55-1.3,4.9c-0.87,1.34-1.98,2.45-3.33,3.28c-1.34,0.84-2.86,1.45-4.54,1.81c-1.7,0.37-3.35,0.55-5,0.55
	c-4.16,0-7.52-0.98-10.1-2.94c-2.58-1.95-4.06-5.1-4.41-9.44h4.31c0.19,2.92,1.24,5.12,3.18,6.59c1.94,1.48,4.35,2.24,7.22,2.24
	c1.04,0,2.13-0.13,3.25-0.35c1.12-0.24,2.15-0.61,3.12-1.16c0.95-0.56,1.73-1.25,2.36-2.1c0.61-0.85,0.92-1.88,0.92-3.12
	c0-1.03-0.22-1.92-0.64-2.63c-0.44-0.71-1.03-1.3-1.75-1.78c-0.74-0.48-1.56-0.88-2.5-1.19c-0.94-0.33-1.87-0.6-2.83-0.82
	l-5.54-1.25c-1.41-0.35-2.73-0.78-3.89-1.26c-1.19-0.48-2.24-1.07-3.13-1.78c-0.87-0.72-1.59-1.57-2.08-2.6
	c-0.5-1.02-0.75-2.28-0.75-3.8c0-1.77,0.4-3.3,1.2-4.58c0.79-1.28,1.84-2.29,3.12-3.08c1.27-0.77,2.7-1.34,4.27-1.71
	c1.58-0.36,3.13-0.54,4.7-0.54c1.77,0,3.44,0.22,4.96,0.69c1.54,0.45,2.87,1.16,4.04,2.11c1.16,0.97,2.09,2.15,2.78,3.58
	c0.68,1.41,1.06,3.08,1.15,4.98h-4.31C202.06,188.88,201.78,187.73,201.28,186.74"/>
<path class="st0" d="M239.38,190.64c0.7-2.2,1.71-4.16,3.06-5.84c1.34-1.69,2.99-3.04,4.96-4.08c1.97-1.02,4.23-1.54,6.83-1.54
	c2.57,0,4.83,0.51,6.78,1.54c1.98,1.04,3.62,2.39,4.98,4.08c1.34,1.68,2.35,3.64,3.04,5.84c0.69,2.22,1.02,4.54,1.02,6.96
	c0,2.42-0.33,4.73-1.02,6.94c-0.69,2.21-1.7,4.16-3.04,5.85c-1.36,1.68-3,3.04-4.98,4.03c-1.95,1-4.24,1.5-6.84,1.5
	c-2.54,0-4.8-0.5-6.77-1.5c-1.97-0.99-3.62-2.35-4.96-4.03c-1.35-1.69-2.36-3.65-3.06-5.85c-0.68-2.22-1.01-4.52-1.01-6.94
	C238.37,195.19,238.7,192.86,239.38,190.64 M240.65,204.03c0.62,2.05,1.54,3.86,2.76,5.43c1.24,1.58,2.75,2.84,4.55,3.76
	c1.81,0.95,3.89,1.41,6.25,1.41c2.35,0,4.4-0.46,6.2-1.41c1.81-0.92,3.33-2.18,4.54-3.76c1.24-1.57,2.16-3.38,2.78-5.43
	c0.62-2.06,0.92-4.2,0.92-6.43c0-2.19-0.3-4.32-0.92-6.37c-0.62-2.06-1.55-3.87-2.78-5.45c-1.22-1.58-2.73-2.83-4.54-3.79
	c-1.8-0.96-3.85-1.44-6.2-1.44c-2.36,0-4.44,0.48-6.25,1.44c-1.8,0.96-3.32,2.22-4.55,3.79c-1.23,1.58-2.14,3.39-2.76,5.45
	c-0.62,2.05-0.92,4.17-0.92,6.37C239.74,199.82,240.04,201.97,240.65,204.03"/>
<path class="st0" d="M311.52,208.51c-0.77,1.58-1.78,2.9-3.05,4c-1.25,1.09-2.71,1.95-4.38,2.54c-1.67,0.59-3.5,0.88-5.5,0.88
	c-2.5,0-4.74-0.46-6.68-1.39c-1.94-0.94-3.57-2.2-4.88-3.81c-1.34-1.59-2.34-3.45-3.02-5.57c-0.69-2.12-1.03-4.39-1.03-6.82
	c0-2.54,0.34-4.98,0.99-7.27c0.67-2.3,1.67-4.35,3.01-6.1c1.36-1.76,3.07-3.16,5.13-4.21c2.09-1.04,4.52-1.58,7.31-1.58
	c1.64,0,3.21,0.25,4.72,0.76c1.5,0.51,2.84,1.24,4.04,2.19c1.17,0.96,2.17,2.16,2.97,3.6c0.8,1.44,1.31,3.1,1.55,4.96h-1.37
	c-0.27-1.72-0.77-3.22-1.5-4.47c-0.74-1.26-1.63-2.3-2.67-3.15c-1.05-0.85-2.24-1.48-3.55-1.89c-1.33-0.42-2.73-0.6-4.17-0.6
	c-2.78,0-5.15,0.53-7.09,1.6c-1.94,1.07-3.49,2.46-4.66,4.17c-1.16,1.72-2.01,3.63-2.53,5.75c-0.52,2.12-0.78,4.2-0.78,6.25
	c0,2.15,0.31,4.21,0.93,6.17c0.61,1.96,1.51,3.7,2.71,5.19c1.17,1.5,2.66,2.71,4.44,3.6c1.78,0.9,3.83,1.33,6.16,1.33
	c1.74,0,3.36-0.26,4.85-0.77c1.51-0.53,2.83-1.29,4-2.31c1.17-1,2.11-2.18,2.85-3.59c0.72-1.4,1.15-2.98,1.3-4.76h1.36
	C312.78,205.17,312.3,206.94,311.52,208.51"/>
<path class="st0" d="M328.71,186.26c0.59-1.43,1.43-2.66,2.56-3.72c1.12-1.06,2.49-1.88,4.11-2.46c1.61-0.61,3.52-0.9,5.72-0.9
	c1.56,0,3.02,0.16,4.4,0.47c1.4,0.32,2.63,0.88,3.68,1.68c1.04,0.8,1.89,1.83,2.53,3.12c0.64,1.27,0.97,2.87,1.03,4.79v22.38
	c0,0.68,0.12,1.17,0.4,1.5c0.28,0.31,0.65,0.54,1.09,0.64c0.45,0.12,0.95,0.16,1.46,0.14c0.55-0.02,1.02-0.06,1.48-0.1v1.37h-2.05
	c-1.02,0-1.9-0.25-2.65-0.73s-1.11-1.39-1.11-2.69v-4.58h-0.14c-0.37,1.13-0.95,2.23-1.75,3.28c-0.78,1.06-1.79,1.98-3.01,2.81
	c-1.21,0.82-2.59,1.46-4.13,1.94c-1.57,0.48-3.25,0.73-5.07,0.73c-3.55,0-6.42-0.79-8.55-2.37c-2.15-1.58-3.22-3.93-3.22-7.07
	c0-2.19,0.36-3.96,1.06-5.27c0.71-1.33,1.63-2.37,2.77-3.12c1.14-0.75,2.44-1.27,3.9-1.58c1.47-0.3,2.92-0.49,4.39-0.57
	c2.41-0.14,4.48-0.27,6.22-0.38c1.72-0.11,3.14-0.35,4.27-0.69c1.12-0.34,1.95-0.87,2.46-1.58c0.54-0.7,0.8-1.71,0.8-3.04
	c0-1.05-0.1-2.15-0.28-3.29c-0.18-1.13-0.63-2.18-1.34-3.14c-0.71-0.96-1.74-1.75-3.11-2.37c-1.37-0.62-3.21-0.92-5.54-0.92
	c-3.69,0-6.57,0.89-8.62,2.7c-2.05,1.8-3.2,4.35-3.42,7.64h-1.37C327.78,189.25,328.12,187.7,328.71,186.26 M351.22,194.52
	c-0.45,0.63-1.16,1.12-2.12,1.46c-0.96,0.35-2.05,0.61-3.29,0.79c-1.23,0.18-2.57,0.3-4.01,0.34c-1.44,0.04-2.83,0.11-4.19,0.21
	c-1.38,0.08-2.72,0.26-4.02,0.5c-1.3,0.26-2.45,0.71-3.45,1.37c-1.01,0.68-1.8,1.58-2.4,2.74c-0.6,1.16-0.89,2.68-0.89,4.56
	c0,0.99,0.18,2,0.51,2.96c0.34,0.99,0.93,1.85,1.75,2.61c0.81,0.75,1.87,1.37,3.17,1.85c1.3,0.48,2.92,0.72,4.83,0.72
	c2.27,0,4.31-0.4,6.09-1.16c1.78-0.78,3.27-1.79,4.47-3.05c1.23-1.25,2.12-2.7,2.75-4.35c0.61-1.64,0.93-3.32,0.93-5.06v-6.5H351.22
	z"/>
<path class="st0" d="M401.72,179.87v3.63h-7.18v23.82c0,1.41,0.2,2.52,0.58,3.33c0.38,0.79,1.35,1.23,2.91,1.32
	c1.24,0,2.47-0.06,3.7-0.2v3.62c-0.64,0-1.29,0.03-1.91,0.07c-0.65,0.05-1.28,0.07-1.93,0.07c-2.86,0-4.88-0.57-6.02-1.69
	c-1.14-1.1-1.7-3.17-1.64-6.19v-24.16h-6.16v-3.63h6.16v-10.61h4.31v10.61H401.72z"/>
<path class="st0" d="M420.81,179.87v8.28h0.13c1.09-2.88,2.79-5.09,5.1-6.64c2.31-1.55,5.06-2.26,8.25-2.12v4.31
	c-1.96-0.09-3.75,0.17-5.34,0.78c-1.59,0.63-2.99,1.5-4.15,2.64c-1.15,1.13-2.05,2.49-2.7,4.08c-0.64,1.56-0.96,3.29-0.96,5.16
	v18.82h-4.31v-35.31H420.81z"/>
<path class="st0" d="M448.18,185.34c0.74-1.51,1.73-2.74,2.99-3.69c1.25-0.96,2.72-1.67,4.41-2.12c1.68-0.45,3.55-0.69,5.61-0.69
	c1.56,0,3.11,0.15,4.66,0.45c1.55,0.3,2.95,0.84,4.17,1.67c1.24,0.82,2.24,1.98,3.02,3.46c0.77,1.48,1.15,3.41,1.15,5.78v18.75
	c0,1.74,0.86,2.6,2.53,2.6c0.5,0,0.96-0.08,1.37-0.27v3.62c-0.5,0.1-0.94,0.16-1.32,0.21c-0.4,0.05-0.9,0.06-1.48,0.06
	c-1.1,0-1.97-0.15-2.64-0.44c-0.66-0.29-1.18-0.72-1.55-1.27c-0.36-0.55-0.6-1.19-0.72-1.94c-0.1-0.75-0.16-1.59-0.16-2.5h-0.13
	c-0.78,1.13-1.56,2.15-2.36,3.04c-0.8,0.89-1.69,1.63-2.67,2.22c-0.99,0.6-2.1,1.05-3.35,1.37c-1.26,0.31-2.75,0.47-4.49,0.47
	c-1.64,0-3.17-0.19-4.61-0.57c-1.44-0.4-2.7-1.01-3.77-1.85c-1.08-0.85-1.92-1.92-2.53-3.21c-0.61-1.3-0.92-2.85-0.92-4.63
	c0-2.46,0.54-4.39,1.64-5.77c1.09-1.4,2.53-2.46,4.35-3.19c1.79-0.73,3.82-1.25,6.09-1.53c2.26-0.3,4.54-0.59,6.87-0.87
	c0.92-0.08,1.71-0.2,2.4-0.34c0.68-0.13,1.26-0.36,1.71-0.71c0.44-0.34,0.79-0.8,1.05-1.41c0.26-0.59,0.38-1.37,0.38-2.33
	c0-1.46-0.24-2.65-0.71-3.58c-0.49-0.95-1.15-1.69-2-2.24c-0.83-0.55-1.82-0.92-2.93-1.14c-1.12-0.19-2.33-0.3-3.61-0.3
	c-2.74,0-4.97,0.65-6.7,1.95c-1.74,1.3-2.65,3.38-2.74,6.25h-4.32C447.02,188.62,447.45,186.85,448.18,185.34 M469.74,195.88
	c-0.28,0.51-0.79,0.87-1.58,1.1c-0.78,0.23-1.46,0.39-2.05,0.48c-1.82,0.33-3.71,0.61-5.65,0.87c-1.94,0.24-3.7,0.63-5.31,1.11
	c-1.61,0.52-2.91,1.24-3.95,2.15c-1.01,0.95-1.54,2.28-1.54,4.01c0,1.1,0.23,2.07,0.67,2.92c0.41,0.85,1.01,1.58,1.73,2.2
	c0.72,0.6,1.58,1.08,2.53,1.4c0.96,0.31,1.94,0.48,2.94,0.48c1.65,0,3.22-0.25,4.73-0.75c1.5-0.51,2.82-1.23,3.94-2.19
	c1.11-0.96,2-2.12,2.66-3.49c0.67-1.37,1-2.92,1-4.66v-5.62H469.74z"/>
<polygon class="st0" points="492.53,179.87 503.62,210.87 503.76,210.87 514.72,179.87 519.17,179.87 505.95,215.18 501.36,215.18 
	487.74,179.87 "/>
<path class="st0" d="M535.48,203.51c0.44,1.66,1.13,3.16,2.09,4.49c0.96,1.32,2.16,2.42,3.63,3.28c1.45,0.87,3.23,1.3,5.28,1.3
	c3.14,0,5.61-0.81,7.39-2.46c1.78-1.64,3.01-3.83,3.69-6.57h4.32c-0.92,4.02-2.59,7.12-5.04,9.31c-2.43,2.19-5.89,3.29-10.35,3.29
	c-2.78,0-5.2-0.49-7.23-1.48c-2.02-0.97-3.68-2.32-4.96-4.04c-1.29-1.71-2.23-3.69-2.84-5.96c-0.62-2.25-0.92-4.64-0.92-7.14
	c0-2.33,0.3-4.61,0.92-6.84c0.62-2.23,1.56-4.23,2.84-6c1.28-1.75,2.94-3.16,4.96-4.25c2.03-1.07,4.45-1.6,7.23-1.6
	c2.81,0,5.24,0.57,7.25,1.72c2,1.13,3.65,2.64,4.88,4.47c1.26,1.86,2.16,3.97,2.71,6.38c0.55,2.38,0.77,4.82,0.68,7.28h-27.16
	C534.84,200.24,535.05,201.85,535.48,203.51 M556.83,190.34c-0.51-1.5-1.26-2.84-2.22-3.99c-0.96-1.16-2.12-2.11-3.49-2.82
	c-1.36-0.7-2.93-1.05-4.65-1.05c-1.78,0-3.36,0.35-4.73,1.05c-1.37,0.71-2.52,1.66-3.48,2.82c-0.96,1.15-1.73,2.5-2.3,4.02
	c-0.57,1.54-0.95,3.11-1.12,4.7h22.85C557.65,193.42,557.37,191.84,556.83,190.34"/>
<rect x="576.79" y="167.39" class="st0" width="4.31" height="48.86"/>
<rect x="222.37" y="166.27" class="st0" width="1" height="49.02"/>
<line class="st0" x1="370.12" y1="40.42" x2="370.12" y2="215.22"/>
<rect x="369.62" y="40.42" class="st0" width="0.99" height="174.8"/>
</svg>
