<svg width="134" height="79" viewBox="0 0 134 79" fill="none" xmlns="http://www.w3.org/2000/svg">
<path d="M66.4066 44.8664H66.3296L66.2805 44.8065C65.6594 44.0276 65.3302 43.0044 64.9052 42.1034C64.8328 42.1034 64.7581 42.1057 64.6834 42.1057C64.4709 42.1011 64.2467 42.1034 64.0739 41.9351L64.0296 41.889V40.9419C64.0155 40.9373 63.9829 40.9327 63.9432 40.9327C63.8334 40.9327 63.6653 40.9627 63.5065 40.9627C63.4481 40.9627 63.3921 40.9604 63.3314 40.9442L63.1726 40.8958L63.2263 40.7437C63.4855 39.9441 63.6186 39.3957 63.6186 38.8541C63.6186 38.331 63.4948 37.801 63.238 37.0682C62.9204 36.4299 61.5451 36.5889 60.6017 36.2501C59.7074 36.9138 57.9748 37.3217 58.0308 38.202C58.0308 38.4508 58.1523 38.7758 58.4862 39.1952L58.6076 39.345L58.4348 39.4325C57.6829 39.7989 57.1038 40.9511 55.8382 40.9673C55.5931 40.9673 55.3315 40.9235 55.042 40.8244L54.9556 40.7944L54.9393 40.7046C54.9276 40.6354 54.9229 40.5686 54.9229 40.5041C54.9696 39.3749 56.4313 38.7735 56.6719 37.6282C56.2866 37.2871 56.0858 36.8516 56.0858 36.4206C56.0834 35.9621 56.3169 35.515 56.7676 35.2039C56.6742 34.9527 56.5995 34.6762 56.5738 34.3559L56.5644 34.2522L56.6578 34.2038C57.8043 33.6185 58.673 32.7128 59.8428 32.0607C59.8475 31.957 59.8498 31.8464 59.8498 31.7357C59.8498 31.3325 59.8265 30.9015 59.8265 30.4891C59.8288 29.8438 59.8755 29.2308 60.2328 28.8276L60.2795 28.7746H61.1178C62.9741 27.4587 64.3518 25.6428 65.6734 23.7555C65.2695 23.6633 65.0173 23.4721 64.653 23.449L64.4755 23.4352L64.5082 23.2624C64.6483 22.5641 65.3909 21.7023 66.6752 21.6977C66.8573 21.6977 67.0558 21.7161 67.2612 21.7553L67.392 21.7783V22.4858C67.6792 22.5733 67.9361 22.6079 68.1672 22.6079C68.9728 22.6079 69.5099 22.1655 70.0026 21.6861C70.4929 21.216 70.9156 20.686 71.5671 20.6745C71.894 20.6745 72.2372 20.822 72.6225 21.1492C72.898 20.9787 73.0311 20.4948 73.6196 20.3749L73.6639 20.368L73.7013 20.3818C74.3201 20.6031 74.5909 20.769 75.0322 20.7667C75.163 20.7667 75.3078 20.7528 75.4876 20.7206C75.9499 20.6538 76.2301 20.0408 76.7695 19.914C76.8629 19.8956 76.9563 19.891 77.0544 19.891C77.7736 19.8956 78.6259 20.2482 79.4011 20.2689L79.3918 20.5846C78.5395 20.5547 77.6708 20.2044 77.0567 20.209C76.9727 20.209 76.8979 20.2136 76.8302 20.2274C76.536 20.2436 76.1998 20.8865 75.5506 21.034C75.3545 21.0686 75.1864 21.087 75.0346 21.087C74.5092 21.0847 74.1916 20.8957 73.6312 20.6929C73.2553 20.7644 73.1736 21.2322 72.6645 21.4834L72.5688 21.5248L72.4941 21.458C72.1041 21.11 71.8076 20.9948 71.5694 20.9948C71.1351 20.9833 70.7311 21.4188 70.2291 21.9166C69.7317 22.4028 69.1083 22.9282 68.1696 22.9282C67.8707 22.9282 67.5438 22.8729 67.1865 22.7554L67.0768 22.7208V22.0479C66.9367 22.0272 66.8059 22.018 66.6798 22.018C65.6571 22.0157 65.0593 22.6379 64.8702 23.1656C65.3115 23.2532 65.5683 23.4652 65.963 23.4859L66.2432 23.5066L66.0844 23.7325C64.7067 25.7097 63.2637 27.6569 61.2625 29.0626L61.2205 29.0926H60.4289C60.2118 29.3806 60.1441 29.8991 60.1487 30.4914C60.1487 30.8946 60.1721 31.3256 60.1721 31.738C60.1721 31.8832 60.1674 32.0261 60.1604 32.1644L60.1557 32.2519L60.0787 32.2957C58.9555 32.8995 58.0869 33.8028 56.903 34.4365C56.9381 34.7246 57.0151 34.9735 57.1178 35.2062L57.1716 35.3307L57.0525 35.4021C56.6111 35.6671 56.4127 36.0381 56.4127 36.4206C56.4127 36.7755 56.5855 37.1465 56.9544 37.4484L57.0268 37.506L57.0104 37.5982C56.7326 38.9947 55.2008 39.6653 55.2522 40.5064C55.2522 40.5248 55.2522 40.541 55.2545 40.5594C55.474 40.6262 55.6678 40.6539 55.8499 40.6539C56.8213 40.67 57.349 39.7598 58.1406 39.2505C57.8557 38.861 57.725 38.52 57.725 38.2043C57.7833 36.9023 59.7868 36.605 60.485 35.9528L60.562 35.8883L60.6554 35.9298C61.433 36.3077 62.9601 36.0035 63.5415 36.9414C63.8147 37.7111 63.9525 38.2826 63.9525 38.8564C63.9525 39.4026 63.8287 39.9395 63.6069 40.647C63.7097 40.64 63.8381 40.6216 63.9595 40.6193C64.0926 40.6124 64.3168 40.6608 64.3611 40.8774L64.3658 40.8912V41.7508C64.4288 41.7761 64.5479 41.7969 64.6974 41.7946C64.7978 41.7946 64.9099 41.79 65.0196 41.79H65.12L65.1644 41.8775C65.6104 42.8039 65.9349 43.8202 66.4977 44.5507C67.2753 44.5299 67.5158 43.9216 68.3984 43.7441C68.4031 43.7441 68.4148 43.7418 68.4311 43.7418C68.6833 43.7372 68.8421 43.8985 68.9215 44.0091C68.9868 44.0967 69.0289 44.152 69.0802 44.1843C69.7084 43.7303 70.3458 43.2694 71.1444 42.9514L71.2075 42.926L71.2705 42.9537C72.0668 43.3086 72.7743 43.6888 73.8297 43.7395C73.8274 43.7118 73.8274 43.6842 73.8274 43.6565C73.825 43.3224 73.9278 43.0482 74.1309 42.8661L74.1893 42.8108L74.2687 42.8246C74.3177 42.8362 74.3551 42.8385 74.3924 42.8385C74.5722 42.8523 74.6843 42.7071 75.0182 42.6956C75.0346 42.6956 75.0509 42.6956 75.0719 42.6979C75.2587 42.2393 75.4642 41.8107 75.602 41.3291L75.63 41.2231L75.7421 41.2139C76.3492 41.1655 76.6644 40.9189 76.8559 40.4787C76.5547 40.1031 76.4239 39.6192 76.2021 39.2666L76.1414 39.1652L76.2208 39.08C77.1945 38.0199 78.2219 37.0106 79.2937 36.0427L79.5108 36.2732C78.4741 37.2088 77.4794 38.1858 76.536 39.2067C76.7625 39.6169 76.9026 40.0686 77.1571 40.3428L77.2225 40.4142L77.1922 40.5018C76.9983 41.0595 76.5547 41.4443 75.8775 41.518C75.7211 42.0296 75.5039 42.4698 75.3218 42.9283L75.2704 43.0505L75.1397 43.0251C75.0906 43.0159 75.0533 43.0113 75.0159 43.0113C74.8361 42.9998 74.7217 43.145 74.3901 43.1565C74.3598 43.1565 74.3271 43.1542 74.2967 43.1496C74.2033 43.2625 74.1473 43.4192 74.1473 43.6565C74.1473 43.7257 74.1496 43.7994 74.1613 43.8824L74.1823 44.0621L74.0025 44.0598C72.8 44.0483 72.0014 43.6289 71.2005 43.2694C70.4532 43.5805 69.8345 44.0322 69.1993 44.4907L69.1386 44.5345L69.0686 44.5184C68.8421 44.4654 68.7417 44.2972 68.6669 44.2004C68.5829 44.1013 68.5619 44.0644 68.4311 44.0575C68.4311 44.0575 68.4241 44.0575 68.4334 44.0575C67.7376 44.1566 67.4551 44.8502 66.4276 44.8664H66.4066V44.8664ZM64.0342 40.9396H64.0366H64.0342Z" fill="white"/>
<path d="M88.4517 38.5845C89.5515 39.3288 90.5672 40.1584 92.092 40.481C91.8795 40.8382 91.4896 41.0179 91.2794 41.3774C91.8562 41.9743 92.9793 42.0273 92.6968 43.4722C93.5117 43.5759 93.9554 43.3178 94.1118 42.7739C93.883 42.3315 93.3459 42.1978 93.2035 41.6724C93.6985 40.3013 94.8987 39.6261 95.4264 38.2849V35.3905C97.6891 34.978 97.1427 37.6927 98.3616 37.8862C99.5828 38.0775 99.7766 36.1994 101.596 36.6879C101.722 37.4899 102.422 38.5845 103.314 37.9876C103.361 37.4115 102.742 37.4899 102.709 36.9875C102.84 36.7225 102.976 36.4621 103.111 36.1902C102.803 35.9943 102.352 35.9413 102.2 35.591C101.967 34.2637 102.733 33.9203 103.314 33.3995C103.882 33.9687 104.514 34.4711 105.74 34.395V33.3995C105.521 33.2474 105.11 33.2889 105.033 32.9985C105.304 32.0399 105.402 30.9015 105.74 30.0051C105.584 29.5972 105.269 29.3414 104.932 29.1087C104.591 29.3391 104.44 29.7539 103.723 29.6087C103.653 30.3093 103.272 30.6964 102.81 31.0052C102.287 30.4913 101.575 30.1595 100.585 30.1065V28.8068C99.7719 28.6455 98.8146 28.6271 98.1608 28.3113C97.9973 27.438 97.7451 26.6545 97.5537 25.8157C97.9109 25.3064 98.3055 24.8317 98.5647 24.221C97.8222 23.0503 96.8088 21.6861 95.228 21.3289C94.5368 21.1699 93.8409 21.375 93.2035 20.928C92.8182 21.0432 92.4633 21.193 92.0943 21.3289C91.5596 21.1699 91.1416 20.02 90.3734 19.8334C89.297 19.5661 88.2135 19.9624 88.1505 21.1308C88.4213 21.6101 89.1942 21.0708 89.4651 21.6285C89.0565 22.0825 88.5451 22.1724 88.022 22.1263V35.9067" fill="#EA2026"/>
<path d="M73.5798 29.1294H69.3697V33.2843H73.5798V29.1294Z" fill="#EA2026"/>
<path d="M73.0404 30.7102H71.9803V29.6732H70.9763V30.7102H69.9138V31.7057H70.9763V32.7542H71.9803V31.7057H73.0404V30.7102Z" fill="white"/>
<path d="M5.52059 50.0329C5.39917 49.8093 5.24272 49.6204 5.04892 49.4729C4.85277 49.3254 4.62627 49.2171 4.36709 49.148C4.11257 49.0811 3.83937 49.0443 3.55216 49.0443C3.32799 49.0443 3.1015 49.0673 2.87033 49.1157C2.64383 49.1618 2.43134 49.2401 2.2422 49.3531C2.05073 49.4637 1.89662 49.6065 1.77753 49.7886C1.66078 49.966 1.6024 50.1873 1.6024 50.45C1.6024 50.6712 1.65611 50.8579 1.76819 51.0076C1.88027 51.1597 2.02037 51.2911 2.19317 51.3971C2.36129 51.4985 2.54576 51.5884 2.75124 51.6552C2.95439 51.7243 3.13886 51.7796 3.31165 51.8234L4.6543 52.123C4.9415 52.1645 5.22404 52.2382 5.51125 52.3488C5.78679 52.4594 6.04131 52.6046 6.25847 52.7844C6.47796 52.9618 6.65309 53.1853 6.79552 53.4457C6.93096 53.7061 7.00334 54.0149 7.00334 54.3744C7.00334 54.8192 6.90294 55.1925 6.69979 55.5036C6.49664 55.8124 6.23978 56.0682 5.92222 56.2594C5.60932 56.453 5.25673 56.5936 4.86211 56.6765C4.46749 56.7618 4.07754 56.8033 3.6946 56.8033C2.72322 56.8033 1.94098 56.5774 1.33621 56.1258C0.733769 55.6764 0.390519 54.9505 0.306458 53.9504H1.31286C1.35489 54.6233 1.6024 55.1303 2.05306 55.469C2.5084 55.8101 3.07114 55.9852 3.7413 55.9852C3.98414 55.9852 4.23866 55.9553 4.50018 55.9046C4.76171 55.8493 5.00455 55.764 5.22871 55.6372C5.45288 55.5082 5.63268 55.3492 5.78212 55.1533C5.92222 54.9574 5.99694 54.7201 5.99694 54.4343C5.99694 54.197 5.94324 53.9919 5.8475 53.8283C5.74476 53.6647 5.60466 53.5287 5.43653 53.4181C5.26374 53.3075 5.07227 53.2153 4.85277 53.1439C4.63328 53.0678 4.41612 53.0056 4.19196 52.9549L2.89835 52.6668C2.56911 52.5862 2.26322 52.4871 1.98768 52.3765C1.71215 52.2659 1.46464 52.1299 1.26149 51.9663C1.05367 51.8004 0.890217 51.6045 0.7758 51.3671C0.659048 51.1321 0.598337 50.8417 0.598337 50.4915C0.598337 50.0836 0.691739 49.731 0.878542 49.436C1.06301 49.1411 1.30819 48.9083 1.60707 48.7263C1.90362 48.5488 2.23753 48.4175 2.60647 48.3322C2.97307 48.2492 3.335 48.2078 3.7016 48.2078C4.11724 48.2078 4.50252 48.2585 4.85978 48.3668C5.21704 48.4705 5.53227 48.6341 5.80313 48.853C6.07166 49.0765 6.29116 49.3485 6.44994 49.678C6.61106 50.0029 6.69979 50.3878 6.72314 50.8256H5.7144C5.70039 50.526 5.63735 50.261 5.52059 50.0329Z" fill="white"/>
<path d="M10.7767 48.4498L12.8853 55.4207H12.918L14.9308 48.4498H16.0656L18.0807 55.4207H18.1111L20.222 48.4498H21.2914L18.6388 56.5867H17.5367L15.5052 49.7426H15.4748L13.4597 56.5867H12.3576L9.70496 48.4498H10.7767Z" fill="white"/>
<path d="M25.4758 46.9196H24.4694V45.3273H25.4758V46.9196ZM25.4758 56.5867H24.4694V48.4498H25.4758V56.5867Z" fill="white"/>
<path d="M34.2344 50.0329C34.1177 49.8093 33.9612 49.6204 33.7651 49.4729C33.569 49.3254 33.3401 49.2171 33.0833 49.148C32.8287 49.0811 32.5555 49.0443 32.2683 49.0443C32.0442 49.0443 31.8177 49.0673 31.5865 49.1157C31.3577 49.1618 31.1475 49.2401 30.9584 49.3531C30.7669 49.4637 30.6128 49.6065 30.4937 49.7886C30.3746 49.966 30.3186 50.1873 30.3186 50.45C30.3186 50.6712 30.3723 50.8579 30.4844 51.0076C30.5941 51.1597 30.7366 51.2911 30.907 51.3971C31.0775 51.4985 31.2619 51.5884 31.4674 51.6552C31.6706 51.7243 31.855 51.7796 32.0255 51.8234L33.3681 52.123C33.6577 52.1645 33.9402 52.2382 34.2251 52.3488C34.5053 52.4594 34.7575 52.6046 34.9723 52.7844C35.1941 52.9618 35.3693 53.1853 35.5117 53.4457C35.6471 53.7061 35.7195 54.0149 35.7195 54.3744C35.7195 54.8192 35.6168 55.1925 35.416 55.5036C35.2128 55.8124 34.9536 56.0682 34.6384 56.2594C34.3255 56.453 33.9706 56.5936 33.5783 56.6765C33.1813 56.7618 32.7937 56.8033 32.4084 56.8033C31.4394 56.8033 30.6572 56.5774 30.0524 56.1258C29.45 55.6764 29.1044 54.9505 29.0226 53.9504H30.029C30.0711 54.6233 30.3186 55.1303 30.7716 55.469C31.2246 55.8101 31.7873 55.9852 32.4575 55.9852C32.7003 55.9852 32.9548 55.9553 33.214 55.9046C33.4756 55.8493 33.7207 55.764 33.9449 55.6372C34.1691 55.5082 34.3512 55.3492 34.4983 55.1533C34.6384 54.9574 34.7108 54.7201 34.7108 54.4343C34.7108 54.197 34.6594 53.9919 34.5613 53.8283C34.4586 53.6647 34.3208 53.5287 34.1527 53.4181C33.9799 53.3075 33.7861 53.2153 33.569 53.1439C33.3518 53.0678 33.1323 53.0056 32.9081 52.9549L31.6145 52.6668C31.2853 52.5862 30.9771 52.4871 30.7039 52.3765C30.4283 52.2659 30.1832 52.1299 29.9777 51.9663C29.7699 51.8004 29.6041 51.6045 29.4897 51.3671C29.3729 51.1321 29.3169 50.8417 29.3169 50.4915C29.3169 50.0836 29.4079 49.731 29.5924 49.436C29.7769 49.1411 30.022 48.9083 30.3209 48.7263C30.6198 48.5488 30.949 48.4175 31.318 48.3322C31.6869 48.2492 32.0512 48.2078 32.4131 48.2078C32.8311 48.2078 33.2164 48.2585 33.5736 48.3668C33.9332 48.4705 34.2461 48.6341 34.517 48.853C34.7878 49.0765 35.005 49.3485 35.1638 49.678C35.3226 50.0029 35.4136 50.3878 35.4346 50.8256H34.4259C34.4189 50.526 34.3559 50.261 34.2344 50.0329Z" fill="white"/>
<path d="M43.9996 50.0329C43.8828 49.8093 43.7264 49.6204 43.5303 49.4729C43.3294 49.3254 43.1053 49.2171 42.8484 49.148C42.5916 49.0811 42.3207 49.0443 42.0335 49.0443C41.8117 49.0443 41.5828 49.0673 41.3517 49.1157C41.1252 49.1618 40.915 49.2401 40.7212 49.3531C40.5321 49.4637 40.3779 49.6065 40.2589 49.7886C40.1421 49.966 40.0837 50.1873 40.0837 50.45C40.0837 50.6712 40.1398 50.8579 40.2495 51.0076C40.3616 51.1597 40.5017 51.2911 40.6722 51.3971C40.8426 51.4985 41.0271 51.5884 41.2326 51.6552C41.4357 51.7243 41.6179 51.7796 41.7906 51.8234L43.1356 52.123C43.4228 52.1645 43.7054 52.2382 43.9926 52.3488C44.2681 52.4594 44.5227 52.6046 44.7375 52.7844C44.9593 52.9618 45.1344 53.1853 45.2745 53.4457C45.4146 53.7061 45.4847 54.0149 45.4847 54.3744C45.4847 54.8192 45.3819 55.1925 45.1811 55.5036C44.978 55.8124 44.7188 56.0682 44.4036 56.2594C44.0907 56.453 43.7357 56.5936 43.3435 56.6765C42.9465 56.7618 42.5612 56.8033 42.1759 56.8033C41.2046 56.8033 40.42 56.5774 39.8175 56.1258C39.2151 55.6764 38.8695 54.9505 38.7878 53.9504H39.7942C39.8386 54.6233 40.0837 55.1303 40.5367 55.469C40.9897 55.8101 41.5525 55.9852 42.2226 55.9852C42.4655 55.9852 42.72 55.9553 42.9815 55.9046C43.243 55.8493 43.4836 55.764 43.7101 55.6372C43.9319 55.5082 44.114 55.3492 44.2611 55.1533C44.4036 54.9574 44.476 54.7201 44.476 54.4343C44.476 54.197 44.4246 53.9919 44.3265 53.8283C44.2238 53.6647 44.086 53.5287 43.9179 53.4181C43.7451 53.3075 43.5536 53.2153 43.3341 53.1439C43.1146 53.0678 42.8975 53.0056 42.6733 52.9549L41.3797 52.6668C41.0504 52.5862 40.7422 52.4871 40.4713 52.3765C40.1935 52.2659 39.9483 52.1299 39.7405 51.9663C39.5373 51.8004 39.3692 51.6045 39.2548 51.3671C39.138 51.1321 39.0797 50.8417 39.0797 50.4915C39.0797 50.0836 39.1731 49.731 39.3599 49.436C39.5443 49.1411 39.7895 48.9083 40.0884 48.7263C40.3849 48.5488 40.7189 48.4175 41.0855 48.3322C41.4544 48.2492 41.8163 48.2078 42.1829 48.2078C42.5962 48.2078 42.9862 48.2585 43.3411 48.3668C43.7007 48.4705 44.0113 48.6341 44.2845 48.853C44.5553 49.0765 44.7725 49.3485 44.9336 49.678C45.0924 50.0029 45.1811 50.3878 45.2021 50.8256H44.1957C44.1817 50.526 44.1164 50.261 43.9996 50.0329Z" fill="white"/>
<path d="M52.8961 50.9316C53.0595 50.4246 53.2953 49.9729 53.6106 49.5858C53.9235 49.1964 54.3088 48.8853 54.7688 48.6456C55.2288 48.4105 55.7565 48.2907 56.3636 48.2907C56.9637 48.2907 57.4914 48.4082 57.9468 48.6456C58.4091 48.8853 58.792 49.1964 59.1096 49.5858C59.4225 49.9729 59.6583 50.4246 59.8194 50.9316C59.9806 51.4432 60.0576 51.9778 60.0576 52.5355C60.0576 53.0931 59.9806 53.6255 59.8194 54.1347C59.6583 54.644 59.4225 55.0934 59.1096 55.4828C58.792 55.87 58.4091 56.1834 57.9468 56.4115C57.4914 56.642 56.9567 56.7572 56.3496 56.7572C55.7565 56.7572 55.2288 56.642 54.7688 56.4115C54.3088 56.1834 53.9235 55.87 53.6106 55.4828C53.2953 55.0934 53.0595 54.6417 52.8961 54.1347C52.7373 53.6232 52.6602 53.0931 52.6602 52.5355C52.6602 51.9801 52.7373 51.4432 52.8961 50.9316ZM53.1926 54.0172C53.3374 54.4896 53.5522 54.9067 53.8371 55.2685C54.1266 55.6326 54.4792 55.923 54.8995 56.135C55.3222 56.3539 55.8079 56.4599 56.3589 56.4599C56.9077 56.4599 57.3863 56.3539 57.8066 56.135C58.2293 55.923 58.5842 55.6326 58.8668 55.2685C59.1563 54.9067 59.3711 54.4896 59.5159 54.0172C59.6607 53.5425 59.7307 53.0494 59.7307 52.5355C59.7307 52.0308 59.6607 51.54 59.5159 51.0675C59.3711 50.5928 59.154 50.1757 58.8668 49.8116C58.5819 49.4475 58.2293 49.1595 57.8066 48.9383C57.3863 48.717 56.9077 48.6064 56.3589 48.6064C55.8079 48.6064 55.3222 48.717 54.8995 48.9383C54.4792 49.1595 54.1243 49.4498 53.8371 49.8116C53.5499 50.1757 53.3374 50.5928 53.1926 51.0675C53.0478 51.54 52.9778 52.0285 52.9778 52.5355C52.9801 53.0471 53.0502 53.5425 53.1926 54.0172Z" fill="white"/>
<path d="M69.7411 55.0496C69.5613 55.4137 69.3254 55.7179 69.0289 55.9714C68.737 56.2225 68.3961 56.4207 68.0061 56.5567C67.6162 56.6926 67.1889 56.7595 66.7219 56.7595C66.1381 56.7595 65.6151 56.6535 65.1621 56.4392C64.7091 56.2225 64.3285 55.9322 64.0226 55.5612C63.7097 55.1948 63.4762 54.7661 63.3174 54.2776C63.1563 53.7891 63.0769 53.266 63.0769 52.706C63.0769 52.1207 63.1563 51.5584 63.3081 51.0307C63.4645 50.5007 63.698 50.0282 64.0109 49.625C64.3285 49.2194 64.7278 48.8968 65.2088 48.6548C65.6968 48.4151 66.2642 48.2907 66.9157 48.2907C67.2986 48.2907 67.6652 48.3483 68.0178 48.4658C68.3681 48.5834 68.681 48.7516 68.9612 48.9705C69.2344 49.1917 69.4679 49.4683 69.6547 49.8001C69.8415 50.1319 69.9605 50.5145 70.0166 50.9431H69.6967C69.6336 50.5467 69.5169 50.2011 69.3464 49.913C69.1736 49.6227 68.9658 49.383 68.723 49.1871C68.4778 48.9913 68.1999 48.8461 67.894 48.7516C67.5835 48.6548 67.2566 48.6133 66.9203 48.6133C66.2712 48.6133 65.7178 48.7355 65.2648 48.982C64.8118 49.2286 64.4499 49.5489 64.1767 49.943C63.9058 50.3393 63.7074 50.7795 63.5859 51.268C63.4645 51.7566 63.4038 52.2359 63.4038 52.7083C63.4038 53.2037 63.4762 53.6785 63.621 54.1301C63.7634 54.5818 63.9735 54.9828 64.2538 55.3261C64.5269 55.6718 64.8749 55.9506 65.2905 56.1557C65.7061 56.3631 66.1848 56.4622 66.7289 56.4622C67.1352 56.4622 67.5134 56.4023 67.8614 56.2848C68.214 56.1626 68.5222 55.9875 68.7954 55.7524C69.0686 55.522 69.2881 55.2501 69.4609 54.9252C69.629 54.6025 69.7294 54.2384 69.7644 53.8282H70.082C70.0353 54.2799 69.9232 54.6878 69.7411 55.0496Z" fill="white"/>
<path d="M73.7549 49.9222C73.8927 49.5927 74.0888 49.3093 74.3527 49.065C74.6142 48.8207 74.9341 48.6318 75.3124 48.4981C75.6884 48.3575 76.1343 48.2907 76.6481 48.2907C77.0123 48.2907 77.3532 48.3276 77.6755 48.399C78.0024 48.4728 78.2896 48.6018 78.5348 48.7862C78.7776 48.9705 78.9761 49.2079 79.1255 49.5051C79.275 49.7978 79.352 50.1665 79.366 50.609V55.7663C79.366 55.923 79.3941 56.0359 79.4595 56.1119C79.5248 56.1834 79.6112 56.2364 79.714 56.2594C79.819 56.2871 79.9358 56.2963 80.0549 56.2917C80.1833 56.2871 80.2931 56.2779 80.4005 56.2686V56.5843H79.9218C79.6836 56.5843 79.4781 56.5267 79.303 56.4161C79.1279 56.3055 79.0438 56.0958 79.0438 55.7962V54.7408H79.0111C78.9247 55.0012 78.7893 55.2547 78.6025 55.4967C78.4204 55.7409 78.1845 55.9529 77.8996 56.1442C77.6171 56.3332 77.2949 56.4806 76.9353 56.5913C76.5687 56.7019 76.1764 56.7595 75.7514 56.7595C74.9225 56.7595 74.2523 56.5774 73.7549 56.2133C73.2529 55.8492 73.0031 55.3077 73.0031 54.5841C73.0031 54.0794 73.0871 53.6715 73.2506 53.3697C73.4164 53.0632 73.6312 52.8235 73.8974 52.6507C74.1636 52.4779 74.4671 52.358 74.808 52.2866C75.1513 52.2175 75.4899 52.1737 75.8331 52.1552C76.3959 52.123 76.8792 52.093 77.2855 52.0677C77.6871 52.0423 78.0187 51.987 78.2826 51.9087C78.5441 51.8303 78.7379 51.7082 78.857 51.5446C78.9831 51.3833 79.0438 51.1505 79.0438 50.844C79.0438 50.6021 79.0205 50.3486 78.9784 50.0859C78.9364 49.8255 78.8313 49.5835 78.6655 49.3623C78.4997 49.141 78.2592 48.959 77.9393 48.8161C77.6194 48.6732 77.1898 48.6041 76.6457 48.6041C75.7841 48.6041 75.1116 48.8092 74.6329 49.2263C74.1542 49.6411 73.8857 50.2287 73.8343 50.9869H73.5144C73.5378 50.6113 73.6172 50.2541 73.7549 49.9222ZM79.0111 51.8257C78.906 51.9709 78.7403 52.0838 78.5161 52.1621C78.2919 52.2428 78.0374 52.3027 77.7479 52.3442C77.4607 52.3857 77.1478 52.4133 76.8115 52.4225C76.4753 52.4318 76.1507 52.4479 75.8331 52.4709C75.5109 52.4894 75.198 52.5309 74.8944 52.5862C74.5909 52.6461 74.3224 52.7498 74.0889 52.9019C73.853 53.0586 73.6685 53.266 73.5284 53.5333C73.3883 53.8006 73.3206 54.1509 73.3206 54.5841C73.3206 54.8122 73.3626 55.045 73.4397 55.2662C73.5191 55.4943 73.6569 55.6925 73.8483 55.8677C74.0375 56.0405 74.285 56.1834 74.5885 56.294C74.8921 56.4046 75.2704 56.4599 75.7164 56.4599C76.2464 56.4599 76.7228 56.3677 77.1384 56.1926C77.5541 56.0128 77.902 55.7801 78.1822 55.4897C78.4694 55.2017 78.6772 54.8675 78.8243 54.4873C78.9668 54.1094 79.0415 53.7222 79.0415 53.3213V51.8234H79.0111V51.8257Z" fill="white"/>
<path d="M90.8031 48.4497V49.2862H89.1265V54.7753C89.1265 55.1003 89.1732 55.3561 89.2619 55.5427C89.3507 55.7248 89.5772 55.8262 89.9414 55.8469C90.231 55.8469 90.5182 55.8331 90.8054 55.8008V56.635C90.6559 56.635 90.5042 56.6419 90.3594 56.6512C90.2076 56.6627 90.0605 56.6673 89.9087 56.6673C89.2409 56.6673 88.7692 56.5359 88.503 56.2778C88.2368 56.0243 88.1061 55.5473 88.1201 54.8514V49.2839H86.6817V48.4474H88.1201V46.0024H89.1265V48.4474H90.8031V48.4497Z" fill="white"/>
<path d="M95.2607 48.4497V50.3578H95.2911C95.5456 49.6941 95.9425 49.1849 96.4819 48.8277C97.0213 48.4705 97.6635 48.3069 98.4083 48.3391V49.3323C97.9507 49.3116 97.5327 49.3715 97.1614 49.5121C96.7902 49.6573 96.4632 49.8578 96.1924 50.1205C95.9239 50.3809 95.7137 50.6943 95.5619 51.0607C95.4125 51.4202 95.3378 51.8188 95.3378 52.2498V56.5867H94.3314V48.4497H95.2607Z" fill="white"/>
<path d="M101.652 49.7103C101.824 49.3623 102.056 49.0789 102.35 48.8599C102.642 48.6387 102.985 48.4751 103.38 48.3714C103.772 48.2677 104.208 48.2124 104.689 48.2124C105.054 48.2124 105.416 48.247 105.778 48.3161C106.14 48.3852 106.466 48.5097 106.751 48.7009C107.041 48.8899 107.274 49.1572 107.456 49.4983C107.636 49.8393 107.725 50.2841 107.725 50.8302V55.151C107.725 55.552 107.926 55.7502 108.316 55.7502C108.433 55.7502 108.54 55.7318 108.636 55.688V56.5222C108.519 56.5452 108.416 56.559 108.327 56.5706C108.234 56.5821 108.117 56.5844 107.982 56.5844C107.725 56.5844 107.522 56.5498 107.365 56.483C107.211 56.4162 107.09 56.3171 107.004 56.1903C106.919 56.0636 106.863 55.9161 106.835 55.7433C106.812 55.5704 106.798 55.3769 106.798 55.1672H106.768C106.586 55.4276 106.403 55.6626 106.217 55.8677C106.03 56.0728 105.822 56.2433 105.593 56.3793C105.362 56.5176 105.103 56.6213 104.811 56.695C104.517 56.7664 104.169 56.8033 103.762 56.8033C103.38 56.8033 103.022 56.7595 102.686 56.672C102.35 56.5798 102.056 56.4392 101.806 56.2456C101.554 56.0498 101.357 55.8032 101.215 55.5059C101.073 55.2063 101 54.8492 101 54.439C101 53.8721 101.126 53.4273 101.383 53.1093C101.638 52.7867 101.974 52.5424 102.399 52.3742C102.817 52.206 103.291 52.0861 103.821 52.0216C104.349 51.9525 104.881 51.8857 105.425 51.8211C105.64 51.8027 105.824 51.7751 105.985 51.7428C106.144 51.7128 106.28 51.6598 106.385 51.5792C106.487 51.5008 106.569 51.3948 106.63 51.2542C106.691 51.1183 106.719 50.9385 106.719 50.7173C106.719 50.3809 106.663 50.1066 106.553 49.8923C106.438 49.6734 106.284 49.5029 106.086 49.3761C105.892 49.2494 105.661 49.1641 105.402 49.1134C105.14 49.0697 104.858 49.0443 104.559 49.0443C103.919 49.0443 103.398 49.1941 102.994 49.4937C102.588 49.7932 102.375 50.2726 102.354 50.9339H101.346C101.381 50.4661 101.481 50.0582 101.652 49.7103ZM106.686 52.1391C106.621 52.2567 106.501 52.3396 106.317 52.3926C106.135 52.4456 105.976 52.4825 105.838 52.5033C105.413 52.5793 104.972 52.6438 104.519 52.7037C104.066 52.759 103.655 52.8489 103.279 52.9595C102.903 53.0794 102.6 53.2453 102.357 53.455C102.121 53.6739 101.997 53.9804 101.997 54.3791C101.997 54.6325 102.051 54.8561 102.154 55.0519C102.249 55.2478 102.389 55.416 102.558 55.5589C102.726 55.6972 102.927 55.8078 103.148 55.8815C103.373 55.953 103.601 55.9922 103.835 55.9922C104.22 55.9922 104.587 55.9345 104.939 55.8193C105.29 55.7018 105.598 55.5359 105.859 55.3147C106.119 55.0934 106.326 54.8261 106.48 54.5104C106.637 54.1947 106.714 53.8375 106.714 53.4365V52.1415H106.686V52.1391Z" fill="white"/>
<path d="M112.007 48.4498L114.597 55.5935H114.63L117.189 48.4498H118.228L115.141 56.5867H114.069L110.889 48.4498H112.007Z" fill="white"/>
<path d="M122.036 53.8974C122.139 54.28 122.3 54.6256 122.524 54.9321C122.749 55.2363 123.029 55.4898 123.372 55.688C123.711 55.8884 124.126 55.9875 124.605 55.9875C125.338 55.9875 125.915 55.8009 126.331 55.4206C126.746 55.0427 127.033 54.5381 127.192 53.9066H128.201C127.986 54.833 127.596 55.5474 127.024 56.0521C126.457 56.5567 125.649 56.8102 124.607 56.8102C123.958 56.8102 123.393 56.6973 122.919 56.4692C122.447 56.2456 122.06 55.9345 121.761 55.5382C121.46 55.1441 121.24 54.6878 121.098 54.1647C120.953 53.6462 120.883 53.0955 120.883 52.5194C120.883 51.9824 120.953 51.457 121.098 50.9431C121.242 50.4293 121.462 49.9684 121.761 49.5605C122.06 49.1572 122.447 48.8323 122.919 48.5811C123.393 48.3345 123.958 48.2124 124.607 48.2124C125.263 48.2124 125.831 48.3438 126.3 48.6088C126.767 48.8692 127.152 49.2171 127.44 49.6388C127.734 50.0675 127.944 50.5537 128.072 51.1091C128.201 51.6575 128.252 52.2198 128.231 52.7867H121.889C121.887 53.1439 121.936 53.5149 122.036 53.8974ZM127.022 50.8625C126.903 50.5168 126.727 50.208 126.503 49.943C126.279 49.6757 126.008 49.4568 125.688 49.2932C125.371 49.1319 125.004 49.0512 124.603 49.0512C124.187 49.0512 123.818 49.1319 123.498 49.2932C123.178 49.4568 122.91 49.6757 122.686 49.943C122.461 50.208 122.282 50.5191 122.148 50.8694C122.015 51.2243 121.927 51.5861 121.887 51.9525H127.223C127.213 51.5723 127.148 51.2082 127.022 50.8625Z" fill="white"/>
<path d="M132.689 45.5738H131.682V56.8332H132.689V45.5738Z" fill="white"/>
<path d="M49.1577 45.3157H48.9242V56.612H49.1577V45.3157Z" fill="white"/>
<path d="M83.5388 16.3145H83.3076V56.5959H83.5388V16.3145Z" fill="white"/>
</svg>
