<svg width="250" height="79" viewBox="0 0 250 79" fill="none" xmlns="http://www.w3.org/2000/svg">
<path d="M235.853 31.9916H238.356C238.634 31.9916 238.857 31.7692 238.857 31.4911V25.9848C238.857 25.7067 239.079 25.4842 239.357 25.4842H242.972C243.25 25.4842 243.473 25.7067 243.473 25.9848V31.4911C243.473 31.7692 243.695 31.9916 243.974 31.9916H247.172C247.45 31.9916 247.672 32.2141 247.672 32.4922V35.0507C247.672 35.3288 247.45 35.5513 247.172 35.5513H243.974C243.695 35.5513 243.473 35.7737 243.473 36.0518V47.2035C243.445 48.1768 243.556 48.9277 243.834 49.4282C244.113 49.9288 244.752 50.1791 245.726 50.1791C246.198 50.2069 246.643 50.1791 247.116 50.1235C247.422 50.0957 247.7 50.3182 247.7 50.6241V53.266C247.7 53.5163 247.505 53.7387 247.255 53.7665C246.393 53.8778 245.531 53.9334 244.669 53.9612C242.333 53.9334 240.775 53.4606 239.997 52.5429C239.19 51.5974 238.829 50.2347 238.857 48.3993V36.0796C238.857 35.8015 238.634 35.5791 238.356 35.5791H235.853C235.575 35.5791 235.353 35.3566 235.353 35.0785V32.52C235.353 32.2141 235.575 31.9916 235.853 31.9916Z" fill="white"/>
<path d="M213.8 23.7044H217.415C217.694 23.7044 217.916 23.9269 217.916 24.205V34.9673H217.999C218.611 33.9105 219.446 33.0762 220.558 32.4366C221.67 31.8248 222.922 31.5189 224.34 31.5189C229.207 31.5467 231.71 34.0218 231.821 38.9163V53.3216C231.821 53.5997 231.598 53.8222 231.32 53.8222H227.705C227.427 53.8222 227.204 53.5997 227.204 53.3216V40.1399C227.149 36.8862 225.786 35.2454 223.061 35.2732C221.476 35.301 220.252 35.8572 219.39 36.914C218.444 37.9985 217.944 39.3612 217.944 40.9742V53.266C217.944 53.5441 217.721 53.7666 217.443 53.7666H213.828C213.55 53.7666 213.327 53.5441 213.327 53.266V24.205C213.3 23.9269 213.522 23.7044 213.8 23.7044Z" fill="white"/>
<path d="M204.484 39.3612C204.261 39.3612 204.039 39.1943 203.983 38.9719C203.399 36.5524 201.814 35.301 199.228 35.2732C198.644 35.2732 198.032 35.3566 197.365 35.5235C196.725 35.7181 196.085 36.1353 195.501 36.7193C194.917 37.2755 194.445 38.0542 194.055 39.1109C193.638 40.1399 193.443 41.5025 193.443 43.1989C193.443 45.0622 193.888 46.7586 194.751 48.2325C195.613 49.7898 197.031 50.5963 199.033 50.6241C201.731 50.5685 203.372 49.0667 203.983 46.0911C204.039 45.8408 204.234 45.674 204.484 45.674H208.099C208.433 45.674 208.655 45.9799 208.6 46.2858C207.543 51.653 204.345 54.3506 199.033 54.4062C195.696 54.3506 193.193 53.266 191.469 51.1525C189.661 49.0667 188.771 46.4248 188.771 43.1711C188.771 39.8062 189.661 37.0252 191.413 34.8282C193.138 32.6313 195.724 31.5189 199.172 31.4911C201.703 31.4911 203.844 32.1307 205.624 33.3821C207.265 34.578 208.266 36.3856 208.628 38.7772C208.683 39.0831 208.433 39.3612 208.127 39.3612H204.484V39.3612Z" fill="white"/>
<path d="M184.072 48.9555C184.044 50.0957 184.405 50.6241 185.184 50.5963C185.351 50.5963 185.546 50.5963 185.768 50.5685C186.074 50.5407 186.324 50.7909 186.324 51.069V53.4607C186.324 53.6831 186.185 53.8778 185.963 53.9612C185.156 54.2115 184.294 54.3784 183.376 54.3784C182.431 54.3784 181.652 54.1837 181.04 53.7944C180.401 53.3772 179.984 52.682 179.789 51.7365C178.843 52.6264 177.731 53.2938 176.424 53.7109C175.089 54.1559 173.754 54.3784 172.447 54.3784C170.528 54.3784 168.832 53.85 167.414 52.7654C165.968 51.7087 165.245 50.0957 165.217 48.01C165.217 46.6473 165.467 45.5349 165.94 44.6728C166.413 43.8107 167.052 43.1711 167.831 42.7262C168.61 42.2812 169.499 41.9475 170.445 41.6694C171.391 41.4747 172.364 41.3357 173.337 41.2523C174.227 41.0854 175.034 40.9463 175.812 40.8351C176.563 40.7517 177.231 40.6404 177.815 40.5014C179.038 40.2511 179.678 39.4724 179.706 38.1932C179.678 36.9696 179.205 36.1631 178.259 35.7738C177.314 35.4122 176.341 35.2454 175.339 35.2732C174.005 35.2732 172.948 35.5513 172.169 36.0797C171.418 36.5802 170.946 37.3311 170.751 38.3044C170.695 38.5547 170.501 38.7216 170.25 38.7216H166.607C166.301 38.7216 166.051 38.4435 166.107 38.1376C166.274 36.9696 166.579 35.9684 167.08 35.1341C167.664 34.2164 168.387 33.4656 169.277 32.9372C171.112 31.936 173.254 31.4633 175.645 31.4911C177.815 31.4911 179.761 31.936 181.43 32.8538C183.154 33.8271 184.044 35.4679 184.099 37.7761V48.9555H184.072ZM179.427 42.893C178.732 43.3102 177.87 43.5883 176.841 43.7273C175.812 43.8664 174.755 44.0054 173.671 44.1723C172.67 44.3113 171.808 44.645 171.057 45.1456C170.278 45.674 169.861 46.5639 169.861 47.8153C169.889 48.8721 170.417 49.5951 171.418 49.9845C172.336 50.4294 173.254 50.6241 174.171 50.5963C174.728 50.5963 175.284 50.5128 175.896 50.346C176.48 50.1791 177.036 49.9288 177.592 49.6229C178.148 49.2892 178.593 48.8721 178.955 48.3715C179.288 47.8709 179.427 47.2313 179.427 46.4805V42.893V42.893Z" fill="white"/>
<path d="M106.705 29.5445H100.059C99.5861 29.5445 99.1968 29.1551 99.1968 28.6824V24.5387C99.1968 24.066 99.5861 23.6766 100.059 23.6766H106.705C107.178 23.6766 107.567 24.066 107.567 24.5387V28.7102C107.54 29.1829 107.178 29.5445 106.705 29.5445Z" fill="white"/>
<path d="M147.196 44.7285C146.89 44.7285 146.64 45.0066 146.696 45.3403C146.863 46.3414 147.252 47.1479 147.836 47.8153C148.531 48.594 149.56 48.9833 150.867 48.9833C151.535 48.9833 152.202 48.8443 152.869 48.594C153.453 48.3715 153.898 48.0378 154.232 47.6207C154.315 47.5094 154.482 47.426 154.621 47.426H161.407C161.768 47.426 162.019 47.8153 161.88 48.149C161.49 49.039 160.99 49.8176 160.406 50.5129C159.655 51.375 158.765 52.098 157.764 52.6542C156.763 53.2104 155.678 53.6275 154.51 53.9056C153.342 54.1837 152.146 54.3228 150.895 54.3228C149.143 54.3228 147.53 54.0725 146.028 53.5719C144.527 53.0713 143.219 52.3205 142.135 51.3471C141.05 50.3738 140.188 49.178 139.576 47.7597C138.965 46.3414 138.659 44.7285 138.659 42.893C138.659 41.2801 138.937 39.8062 139.493 38.4157C140.049 37.0252 140.828 35.8016 141.829 34.7448C142.83 33.6881 144.054 32.8538 145.472 32.2698C146.89 31.658 148.475 31.3521 150.227 31.3521C152.397 31.3521 154.26 31.658 155.845 32.242C157.43 32.826 158.709 33.6881 159.738 34.8282C160.74 35.9684 161.49 37.3589 161.963 39.0275C162.408 40.557 162.631 42.2812 162.686 44.2001C162.686 44.4782 162.464 44.7285 162.186 44.7285H147.196V44.7285ZM154.093 40.3902C154.399 40.3902 154.649 40.1121 154.594 39.8062C154.482 39.0275 154.149 38.3601 153.592 37.7761C152.897 37.053 152.035 36.6915 150.951 36.6915C149.699 36.6915 148.698 36.9974 148.003 37.637C147.447 38.1376 147.029 38.8328 146.779 39.7227C146.696 40.0565 146.946 40.3624 147.28 40.3624H154.093V40.3902Z" fill="white"/>
<path d="M112.323 23.7044H120.666V34.2721H120.749C121.444 33.4378 122.334 32.7425 123.363 32.1863C124.392 31.6301 125.811 31.352 127.59 31.352C128.564 31.352 129.509 31.5189 130.427 31.8248C131.317 32.1307 132.123 32.6035 132.819 33.1875C133.514 33.7993 134.07 34.5501 134.487 35.4957C134.904 36.4134 135.099 37.5258 135.099 38.7772V53.7944H126.756V42.3368C126.756 41.725 126.728 41.141 126.673 40.6126C126.617 40.0843 126.478 39.6115 126.283 39.25C126.089 38.8606 125.811 38.5825 125.449 38.3601C125.087 38.1376 124.615 38.0542 124.003 38.0542C123.641 38.0542 123.252 38.1098 122.863 38.221C122.473 38.3323 122.112 38.5547 121.778 38.8606C121.444 39.1665 121.194 39.6115 120.972 40.1399C120.749 40.6961 120.666 41.3913 120.666 42.2812V53.8222H112.323V23.7044V23.7044Z" fill="white"/>
<path d="M99.9199 34.717L106.205 32.8537C106.761 32.4644 107.54 32.8537 107.54 33.549V52.9601C107.54 53.4328 107.15 53.8222 106.678 53.8222H100.031C99.5584 53.8222 99.1691 53.4328 99.1691 52.9601V36.1074C99.1969 35.5513 99.475 35.0229 99.9199 34.717Z" fill="white"/>
<path d="M80.0916 44.7285C79.7857 44.7285 79.5354 45.0066 79.591 45.3403C79.7579 46.3414 80.1472 47.1479 80.7312 47.8153C81.4265 48.594 82.4554 48.9833 83.7625 48.9833C84.4299 48.9833 85.0973 48.8443 85.7648 48.594C86.3488 48.3715 86.7937 48.0378 87.1274 47.6207C87.2109 47.5094 87.3777 47.426 87.5168 47.426H94.3023C94.6638 47.426 94.9141 47.8153 94.7751 48.149C94.3857 49.039 93.8852 49.8176 93.3012 50.5129C92.5503 51.375 91.6604 52.098 90.6592 52.6542C89.6581 53.2104 88.5735 53.6275 87.4055 53.9056C86.2375 54.1837 85.0417 54.3228 83.7903 54.3228C82.0383 54.3228 80.4253 54.0725 78.9236 53.5719C77.4219 53.0713 76.1148 52.3205 75.0303 51.3471C73.9457 50.3738 73.0836 49.178 72.444 47.7597C71.8322 46.3414 71.5262 44.7285 71.5262 42.893C71.5262 41.2801 71.8043 39.8062 72.3605 38.4157C72.9167 37.0252 73.6954 35.8016 74.6965 34.7448C75.6977 33.6881 76.9213 32.8538 78.3396 32.2698C79.7579 31.658 81.343 31.3521 83.095 31.3521C85.2642 31.3521 87.1274 31.658 88.7126 32.242C90.2977 32.826 91.577 33.6881 92.6059 34.8282C93.6071 35.9684 94.3579 37.3589 94.8307 39.0275C95.2756 40.557 95.4981 42.2812 95.5537 44.2001C95.5537 44.4782 95.3313 44.7285 95.0532 44.7285H80.0916V44.7285ZM86.9606 40.3902C87.2665 40.3902 87.5168 40.1121 87.4611 39.8062C87.3499 39.0275 87.0162 38.3601 86.46 37.7761C85.7648 37.053 84.9027 36.6915 83.8181 36.6915C82.5667 36.6915 81.5655 36.9974 80.8703 37.637C80.3141 38.1376 79.8969 38.8328 79.6466 39.7227C79.5632 40.0565 79.8135 40.3624 80.1472 40.3624H86.9606V40.3902Z" fill="white"/>
<path d="M55.3411 31.9082H62.516V35.4122H62.5994C63.2668 34.0774 64.1011 33.0762 65.0466 32.4088C65.9922 31.7135 67.2436 31.3798 68.7453 31.3798C69.3015 31.3798 69.8855 31.4354 70.4973 31.5467C70.8866 31.6301 71.1925 31.9638 71.1925 32.381V37.9429C71.1925 38.4991 70.6642 38.9162 70.1358 38.7772C70.0524 38.7494 69.9689 38.7216 69.8577 38.7216C69.3849 38.6103 68.7453 38.5547 67.8832 38.5547C66.2146 38.5547 64.9632 39.0553 64.1011 40.0842C63.239 41.1132 62.8219 42.8096 62.8219 45.1734V52.9601C62.8219 53.4328 62.4325 53.8222 61.9598 53.8222H55.3133C54.8405 53.8222 54.4512 53.4328 54.4512 52.9601V32.7703C54.5068 32.2975 54.8961 31.9082 55.3411 31.9082Z" fill="white"/>
<path d="M34.6785 54.9067C29.1166 54.9067 24.2221 52.0424 21.3855 47.7319C18.5211 52.0424 13.6266 54.9067 8.09251 54.9067C5.70089 54.9067 3.44831 54.3784 1.41821 53.4328C6.09022 59.3285 13.2929 63.0828 21.3855 63.0828C29.4781 63.0828 36.6808 59.3007 41.3528 53.4328C39.3227 54.3784 37.0423 54.9067 34.6785 54.9067Z" fill="white"/>
<path d="M26.6138 38.9719C26.6138 43.4214 30.229 47.0367 34.6786 47.0367C39.1281 47.0367 42.7433 43.4214 42.7433 38.9719C42.7433 34.5224 39.1281 30.9071 34.6786 30.9071C30.229 30.9071 26.6138 34.5224 26.6138 38.9719Z" fill="white"/>
<path d="M0 38.9719C0 43.4214 3.61525 47.0367 8.06478 47.0367C12.5143 47.0367 16.1296 43.4214 16.1296 38.9719C16.1296 34.5224 12.5143 30.9071 8.06478 30.9071C3.61525 30.9071 0 34.5224 0 38.9719Z" fill="white"/>
<path d="M8.0648 23.176C13.6267 23.176 18.5212 26.0404 21.3578 30.3509C24.2222 26.0404 29.1167 23.176 34.6508 23.176C37.0424 23.176 39.295 23.7044 41.3251 24.6499C36.6531 18.7543 29.4504 15 21.3578 15C13.2652 15 6.06251 18.7821 1.3905 24.6499C3.4206 23.7044 5.67318 23.176 8.0648 23.176Z" fill="white"/>
<path d="M34.6785 54.9067C29.1166 54.9067 24.2221 52.0424 21.3855 47.7319C18.5211 52.0424 13.6266 54.9067 8.09251 54.9067C5.70089 54.9067 3.44831 54.3784 1.41821 53.4328C6.09022 59.3285 13.2929 63.0828 21.3855 63.0828C29.4781 63.0828 36.6808 59.3007 41.3528 53.4328C39.3227 54.3784 37.0423 54.9067 34.6785 54.9067Z" fill="white"/>
</svg>
