<svg width="89" height="89" viewBox="0 0 89 89" fill="none" xmlns="http://www.w3.org/2000/svg">
<circle cx="44.5" cy="44.5" r="44.5" fill="#C23E27"/>
<path fill-rule="evenodd" clip-rule="evenodd" d="M60.2933 29.0567C58.8889 27.6523 56.6119 27.6523 55.2075 29.0567L44.622 39.6422L34.1428 29.1629C32.7384 27.7586 30.4614 27.7586 29.057 29.1629C27.6526 30.5673 27.6526 32.8443 29.057 34.2487L39.5363 44.728L29.057 55.2073C27.6526 56.6116 27.6526 58.8886 29.057 60.293C30.4614 61.6974 32.7383 61.6974 34.1427 60.293L44.622 49.8137L55.2076 60.3993C56.612 61.8036 58.8889 61.8036 60.2933 60.3993C61.6977 58.9949 61.6977 56.7179 60.2933 55.3135L49.7078 44.728L60.2933 34.1425C61.6977 32.7381 61.6977 30.4611 60.2933 29.0567Z" fill="white"/>
</svg>
