<svg width="60" height="59" viewBox="0 0 60 59" fill="none" xmlns="http://www.w3.org/2000/svg">
<g clip-path="url(#clip0)">
<path d="M59.4377 13.4857C59.4377 13.4102 59.489 13.3598 59.489 13.2842L41.4968 30.3415L59.489 46.8446C59.489 46.7186 59.4634 46.6178 59.4634 46.4918L59.4377 13.4857Z" fill="white"/>
<path d="M38.7288 32.9619L31.373 39.9159C30.9886 40.2686 30.5272 40.445 30.0403 40.445C29.5789 40.445 29.092 40.2686 28.7332 39.9411L21.403 33.2391L3.3083 50.372C3.74401 50.5232 4.23098 50.6491 4.71795 50.6491H55.3882C56.1315 50.6491 56.8235 50.4224 57.413 50.0948L38.7288 32.9619Z" fill="white"/>
<path d="M30.0403 35.9602L57.4899 9.93331C56.8748 9.58057 56.1315 9.32861 55.3626 9.32861H4.71794C3.71837 9.32861 2.77007 9.70655 2.05243 10.3112L30.0403 35.9602Z" fill="white"/>
<path d="M0.489014 14.1157V46.4919C0.489014 46.8698 0.565903 47.2226 0.668423 47.5753L18.5325 30.644L0.489014 14.1157Z" fill="white"/>
</g>
<defs>
<clipPath id="clip0">
<rect width="59" height="58" fill="white" transform="translate(0.489014 0.989258)"/>
</clipPath>
</defs>
</svg>
