<?xml version="1.0" encoding="utf-8"?>
<!-- Generator: Adobe Illustrator 25.2.1, SVG Export Plug-In . SVG Version: 6.00 Build 0)  -->
<svg version="1.1" id="Layer_1" xmlns="http://www.w3.org/2000/svg" xmlns:xlink="http://www.w3.org/1999/xlink" x="0px" y="0px"
	 width="1000px" height="1000px" viewBox="0 0 1000 1000" style="enable-background:new 0 0 1000 1000;" xml:space="preserve">
<style type="text/css">
	.st0{fill:#F7ECDA;}
	.st1{fill:#F9BA16;}
	.st2{fill:none;stroke:#131527;stroke-width:8;stroke-miterlimit:10;}
	.st3{fill:#E83844;}
	.st4{fill:#0566B0;}
	.st5{fill:#131527;}
</style>
<g>
	<rect y="0.1" class="st0" width="1000" height="999.8"/>
	<rect x="65.6" y="52.2" class="st1" width="248.8" height="248.8"/>
	<path class="st2" d="M653.6,321.4c0,119-96.4,215.4-215.4,215.4s-215.4-96.4-215.4-215.4S319.2,106,438.2,106"/>
	<ellipse class="st3" cx="353.2" cy="536.7" rx="67.2" ry="67.2"/>
	<rect x="421.6" y="925.1" class="st4" width="578.4" height="75"/>
	<rect x="584.4" y="789.3" class="st3" width="415.6" height="86"/>
	<rect x="17.6" y="14.8" class="st5" width="96" height="96"/>
	<path class="st1" d="M0,639.3v285.5c75.2-1.6,135.6-65,135.6-142.8C135.6,704.1,75.2,640.9,0,639.3z"/>
	<line class="st2" x1="513" y1="414.4" x2="513" y2="699.7"/>
	<rect x="694.2" y="651.9" class="st1" width="305.8" height="59.8"/>
	<line class="st2" x1="421.6" y1="902.7" x2="555.2" y2="902.7"/>
	<line class="st2" x1="586.8" y1="758.7" x2="720.4" y2="758.7"/>
	<rect x="801.2" y="0.1" class="st4" width="40.2" height="196"/>
	<path class="st5" d="M831.6,100.2c-0.2,2.4-2.2,4.2-4.6,4c-2.4-0.2-4.2-2.2-4-4.6c0.2-2.4,2.2-4.2,4.6-4
		C829.8,95.8,831.6,97.8,831.6,100.2z"/>
	<path class="st5" d="M861.8,100.2c-0.2,2.4-2.2,4.2-4.6,4c-2.4-0.2-4.2-2.2-4-4.6c0.2-2.4,2.2-4.2,4.6-4
		C860.2,95.8,862,97.8,861.8,100.2z"/>
	<path class="st5" d="M892,100.2c-0.2,2.4-2.2,4.2-4.6,4c-2.4-0.2-4.2-2.2-4-4.6c0.2-2.4,2.2-4.2,4.6-4
		C890.4,95.8,892.2,97.8,892,100.2z"/>
	<path class="st5" d="M922.2,100.2c-0.2,2.4-2.2,4.2-4.6,4c-2.4-0.2-4.2-2.2-4-4.6c0.2-2.4,2.2-4.2,4.6-4
		C920.6,95.8,922.4,97.8,922.2,100.2z"/>
	<path class="st5" d="M952.6,100.2c-0.2,2.4-2.2,4.2-4.6,4c-2.4-0.2-4.2-2.2-4-4.6c0.2-2.4,2.2-4.2,4.6-4
		C950.8,95.8,952.6,97.8,952.6,100.2z"/>
	<path class="st5" d="M831.6,125.2c-0.2,2.4-2.2,4.2-4.6,4c-2.4-0.2-4.2-2.2-4-4.6s2.2-4.2,4.6-4
		C829.8,120.8,831.6,122.8,831.6,125.2z"/>
	<path class="st5" d="M861.8,125.2c-0.2,2.4-2.2,4.2-4.6,4c-2.4-0.2-4.2-2.2-4-4.6s2.2-4.2,4.6-4C860.2,120.8,862,122.8,861.8,125.2
		z"/>
	<path class="st5" d="M892,125.2c-0.2,2.4-2.2,4.2-4.6,4c-2.4-0.2-4.2-2.2-4-4.6s2.2-4.2,4.6-4C890.4,120.8,892.2,122.8,892,125.2z"
		/>
	<path class="st5" d="M922.2,125.2c-0.2,2.4-2.2,4.2-4.6,4c-2.4-0.2-4.2-2.2-4-4.6s2.2-4.2,4.6-4
		C920.6,120.8,922.4,122.8,922.2,125.2z"/>
	<path class="st5" d="M952.6,125.2c-0.2,2.4-2.2,4.2-4.6,4c-2.4-0.2-4.2-2.2-4-4.6s2.2-4.2,4.6-4
		C950.8,120.8,952.6,122.8,952.6,125.2z"/>
	<path class="st5" d="M831.6,150.2c-0.2,2.4-2.2,4.2-4.6,4c-2.4-0.2-4.2-2.2-4-4.6c0.2-2.4,2.2-4.2,4.6-4
		C829.8,145.8,831.6,147.8,831.6,150.2z"/>
	<path class="st5" d="M861.8,150.2c-0.2,2.4-2.2,4.2-4.6,4c-2.4-0.2-4.2-2.2-4-4.6c0.2-2.4,2.2-4.2,4.6-4
		C860.2,145.8,862,147.8,861.8,150.2z"/>
	<path class="st5" d="M892,150.2c-0.2,2.4-2.2,4.2-4.6,4c-2.4-0.2-4.2-2.2-4-4.6c0.2-2.4,2.2-4.2,4.6-4
		C890.4,145.8,892.2,147.8,892,150.2z"/>
	<path class="st5" d="M922.2,150.2c-0.2,2.4-2.2,4.2-4.6,4c-2.4-0.2-4.2-2.2-4-4.6c0.2-2.4,2.2-4.2,4.6-4S922.4,147.8,922.2,150.2z"
		/>
	<path class="st5" d="M952.6,150.2c-0.2,2.4-2.2,4.2-4.6,4c-2.4-0.2-4.2-2.2-4-4.6c0.2-2.4,2.2-4.2,4.6-4
		C950.8,145.8,952.6,147.8,952.6,150.2z"/>
</g>
</svg>
