<svg width="24" height="22" viewBox="0 0 24 22" fill="none" xmlns="http://www.w3.org/2000/svg">
<path d="M5.9126 7.86768H0.182617V21.957H5.9126V7.86768Z" fill="white"/>
<path d="M8.88281 7.86764H13.3228V9.81638C13.3228 9.81638 14.0128 7.84131 18.0928 7.84131C21.4828 7.84131 23.8828 9.00002 23.8828 12.1601C23.8828 13.9245 23.8828 21.9302 23.8828 21.9302H19.1428C19.1428 21.9302 19.1728 13.7139 19.2028 13.4505C19.2328 13.1872 18.9328 11.1331 16.5328 11.1331C14.1328 11.1331 13.3528 12.6605 13.3528 13.7929C13.3528 14.9252 13.3528 21.9038 13.3528 21.9038H8.88281V7.86764Z" fill="white"/>
<path d="M3.03235 5.9458C4.62293 5.9458 5.91235 4.81383 5.91235 3.41748C5.91235 2.02113 4.62293 0.88916 3.03235 0.88916C1.44177 0.88916 0.152344 2.02113 0.152344 3.41748C0.152344 4.81383 1.44177 5.9458 3.03235 5.9458Z" fill="white"/>
</svg>
