<?xml version="1.0" encoding="utf-8"?>
<!-- Generator: Adobe Illustrator 25.2.0, SVG Export Plug-In . SVG Version: 6.00 Build 0)  -->
<svg version="1.1" id="Layer_1" xmlns="http://www.w3.org/2000/svg" xmlns:xlink="http://www.w3.org/1999/xlink" x="0px" y="0px"
	 viewBox="0 0 405.1 170.1" style="enable-background:new 0 0 405.1 170.1;" xml:space="preserve">
<style type="text/css">
	.st0{fill:#FFFFFF;}
	.st1{fill:#BD1217;}
	.st2{fill:#141412;}
	.st3{fill:#F6F6F6;}
	.st4{clip-path:url(#SVGID_2_);fill:url(#SVGID_3_);}
</style>
<g id="Ebene_1">
	<g>
		<path class="st0" d="M66.2,57.2c0,4.5-3.7,8.2-8.2,8.2c-4.6,0-8.2-3.7-8.2-8.2c0-4.6,3.7-8.2,8.2-8.2S66.2,52.7,66.2,57.2"/>
	</g>
	<polygon class="st1" points="139,111.1 131.9,111.5 124.7,112.1 117.5,112.8 110.2,113.7 103,114.8 95.8,116.1 88.8,117.4 82,119 
		75.4,120.6 69.2,122.3 63.3,124.2 57.8,126.1 52.9,128.1 48.5,130.2 44.6,132.3 41.5,134.5 39,136.7 37.3,138.9 36.4,141.2 
		36.4,143.4 37.3,145.6 39.3,147.8 42.2,150 46.3,152.1 51.5,154.2 57.5,156 63.7,157.5 70.1,158.6 76.7,159.3 83.5,159.8 
		90.3,159.9 97.2,159.8 104.1,159.4 111,158.7 117.9,157.9 124.7,156.8 131.3,155.5 137.7,154 144,152.3 150.1,150.5 155.8,148.6 
		161.2,146.6 166.3,144.5 171,142.3 175.3,140.1 179.1,137.8 182.4,135.5 185.2,133.1 187.4,130.8 189,128.6 189.9,126.4 
		190.1,124.2 189.6,122.1 188.4,120.2 186.3,118.3 183.4,116.6 179.7,115.1 175.1,113.7 170.1,112.7 164.6,111.9 158.7,111.3 
		152.4,111 145.8,111 	"/>
	<g>
		<path class="st2" d="M128.4,140.5c0,10.8-20.8,19.5-46.6,19.5c-25.7,0-46.6-10.2-46.6-19.5c0-10.8,20.9-19.5,46.6-19.5
			S128.4,129.8,128.4,140.5"/>
	</g>
	<polygon class="st3" points="165,137.1 148.3,131.2 171.1,124.4 151.5,117.5 133.5,123.6 115.6,117.3 89.3,124.9 107.2,131.2 
		86.3,137.6 105.8,144.5 127.5,137.7 144.2,143.6 	"/>
	<g>
		<g>
			<g>
				<defs>
					<polygon id="SVGID_1_" points="71.2,10.2 65.7,11.5 60.5,13.5 55.6,16.2 50.9,19.5 46.5,23.5 42.4,28 38.7,32.9 35.2,38.4 
						32.1,44.1 29.4,50.2 27,56.6 25,63.1 23.4,69.9 22.2,76.7 21.4,83.6 21.1,90.5 21.2,97.3 21.7,104.1 22.8,110.6 24.3,117 
						26.3,123 28.8,128.8 31.9,134.1 35.4,139.1 39.6,143.5 44.3,147.4 49.5,150.7 55.4,153.4 61.9,155.3 68.9,156.5 76.6,156.9 
						84.3,156.4 91.4,155.2 97.9,153.2 103.8,150.4 109,147.1 113.8,143.1 117.9,138.7 121.5,133.7 124.6,128.3 127.1,122.5 
						129.1,116.4 130.7,110.1 131.7,103.5 132.3,96.8 132.4,89.9 132.1,83 131.4,76.2 130.2,69.3 128.6,62.6 126.6,56.1 124.2,49.7 
						121.5,43.7 118.5,37.9 115,32.6 111.3,27.6 107.2,23.2 102.8,19.3 98.2,16 93.2,13.3 88,11.4 82.6,10.2 76.9,9.8 					"/>
				</defs>
				<clipPath id="SVGID_2_">
					<use xlink:href="#SVGID_1_"  style="overflow:visible;"/>
				</clipPath>
				
					<radialGradient id="SVGID_3_" cx="-344.5237" cy="167.6121" r="1.0001" gradientTransform="matrix(108.0704 0 0 -142.4184 37293.1523 23934.3398)" gradientUnits="userSpaceOnUse">
					<stop  offset="0" style="stop-color:#FFFFFF"/>
					<stop  offset="0.1723" style="stop-color:#F6F4F4"/>
					<stop  offset="0.3933" style="stop-color:#EEEBEA"/>
					<stop  offset="0.4943" style="stop-color:#EBE8E7"/>
					<stop  offset="0.5697" style="stop-color:#E3DFDD"/>
					<stop  offset="0.6368" style="stop-color:#D5D0CD"/>
					<stop  offset="0.699" style="stop-color:#C1BAB7"/>
					<stop  offset="0.7573" style="stop-color:#A89F9A"/>
					<stop  offset="0.7865" style="stop-color:#998E88"/>
					<stop  offset="0.8854" style="stop-color:#A69C97"/>
					<stop  offset="1" style="stop-color:#B1A8A3"/>
				</radialGradient>
				<rect x="21.1" y="9.8" class="st4" width="111.4" height="147.1"/>
			</g>
		</g>
	</g>
	<g>
		<path class="st0" d="M66.2,57.2c0,4.5-3.7,8.2-8.2,8.2s-8.2-3.7-8.2-8.2S53.4,49,58,49S66.2,52.6,66.2,57.2"/>
	</g>
</g>
<g id="Ebene_4">
	<g>
		<path class="st0" d="M305.8,57.1c0.3,0.5,0.5,1.1,0.5,1.9c0,0.7-0.2,1.3-0.5,1.8s-0.7,0.8-1.2,0.8s-0.9-0.3-1.2-0.8
			c-0.3-0.5-0.5-1.1-0.5-1.8c0-0.8,0.2-1.4,0.5-1.9s0.8-0.8,1.2-0.8C305.1,56.4,305.5,56.6,305.8,57.1"/>
		<g>
			<path class="st0" d="M153.4,86.2l-1.4,1.2v1.1c1.3-0.2,2.3-0.3,3.1-0.3c0.5,0,1.6,0.1,3.5,0.1l1.9,0.1c3.7,0.1,6.8-1.7,9.1-5.1
				s3.5-7.7,3.5-12.8c0-2.5-0.3-4.8-0.9-6.8c-0.6-1.9-1.5-3.6-2.6-4.8c-1.2-1.3-2.4-2.2-3.8-2.6c-1.4-0.4-2.8-0.7-4.1-0.6l-3.3,0.1
				h-4.1c-0.6,0-1.7,0-3.4-0.1v1.4l1.2,0.3c0.7,0.2,1.2,0.3,1.2,0.5c0.1,0.2,0.2,0.8,0.3,2c0.1,2,0.2,4.3,0.2,7.1v6.7
				C153.6,79.6,153.6,83.8,153.4,86.2 M156.7,86c-0.1-2.4-0.2-5-0.2-7.8v-15c0-1.8,0.1-3.5,0.2-5c1.5-0.3,2.7-0.5,3.8-0.5
				c3.1,0,5.4,1.1,7,3.5s2.4,5.8,2.4,10.3c0,5.1-1,9-2.9,11.7c-1.6,2.2-3.8,3.3-6.6,3.3C159.3,86.5,158.1,86.4,156.7,86"/>
			<path class="st0" d="M176.3,72.5l0.8,0.3c0.2-1,0.5-2,0.8-3.2c0.4-0.3,0.7-0.6,1.2-0.8c0.4-0.2,0.9-0.3,1.4-0.3
				c1.3,0,2.3,0.6,3,1.8c0.5,0.9,0.8,2.4,0.8,4.3c-3.3,0.9-5.4,1.6-6.3,2.2c-0.9,0.6-1.6,1.4-2.1,2.6c-0.5,1.1-0.7,2.5-0.7,4
				c0,1.6,0.3,3,1,3.9c0.7,1,1.7,1.5,3,1.5c0.5,0,0.8,0,1.1-0.2c0.3-0.1,0.6-0.3,0.8-0.7l3.1-3.7c0,0.7,0,1.4,0,2v2
				c1-0.1,1.7-0.1,2.3-0.1c0.5,0,1.3,0,2.4,0.1v-1.5h-1.2c-0.4,0-0.7-0.2-0.7-0.6c-0.1-0.5-0.2-2.7-0.2-6.9c0-4.3-0.1-7.1-0.2-8.2
				c-0.2-1.5-0.7-2.7-1.5-3.6c-0.9-0.9-2-1.4-3.4-1.4c-0.6,0-1.2,0.1-1.8,0.4c-0.6,0.2-1.2,0.7-2,1.3l-1.7,1.4v1.6L176.3,72.5
				L176.3,72.5z M184.4,76.1v1.1v5.1c-0.6,1.3-1.3,2.2-2,2.9c-0.7,0.6-1.4,0.9-2.2,0.9c-0.7,0-1.2-0.3-1.7-1
				c-0.4-0.7-0.7-1.6-0.7-2.7c0-1.6,0.4-2.9,1.2-3.7C179.7,77.9,181.5,77,184.4,76.1"/>
			<path class="st0" d="M192.1,82.9c0,1.2,0.1,1.9,0.2,2.2c0.3,0.5,0.8,1,1.6,1.4c0.7,0.5,1.6,0.7,2.4,0.7c1,0,1.9-0.4,2.6-1.3
				c0.7-0.8,1-1.9,1-3.1c0-0.9-0.2-1.7-0.6-2.3c-0.4-0.6-1.1-1-2.2-1.3c-2-0.7-3.4-1.2-4-1.6c-0.7-0.4-1.2-1-1.5-1.8
				s-0.5-1.7-0.5-2.8c0-2,0.5-3.7,1.5-4.9c1-1.3,2.4-1.9,4.2-1.9c1.4,0,2.8,0.4,4.2,1.3c-0.1,1-0.2,2.8-0.2,5.2h-0.9
				c0-1.4-0.1-2.3-0.3-2.7c-0.3-0.6-0.7-1.1-1.3-1.5c-0.6-0.5-1.3-0.7-2-0.7c-0.9,0-1.7,0.3-2.2,1.1c-0.6,0.7-0.8,1.6-0.8,2.7
				c0,1,0.2,1.8,0.7,2.3c0.4,0.5,1.7,1.1,3.6,1.7c1.4,0.4,2.4,0.8,2.9,1.2c0.5,0.4,0.8,1,1.1,1.7c0.3,0.8,0.4,1.7,0.4,2.7
				c0,2.1-0.6,3.8-1.7,5.3c-1.2,1.5-2.7,2.3-4.7,2.3c-1.2,0-2.7-0.3-4.2-0.9c-0.3-0.1-0.4-0.3-0.4-0.5l0.1-0.3
				c0-0.2,0.1-0.6,0.1-1.2c0.1-1.5,0.2-2.6,0.1-3.5v-1.1h0.9L192.1,82.9L192.1,82.9z"/>
			<path class="st0" d="M226.2,63.6h-1.1v-1.8c0-1.2-0.1-2-0.3-2.4s-0.8-0.9-1.7-1.4s-1.8-0.7-2.8-0.7c-1.6,0-2.9,0.6-3.8,1.8
				c-0.9,1.3-1.4,2.9-1.4,4.8c0,1.2,0.2,2.3,0.6,3.2c0.4,0.9,0.9,1.5,1.6,1.9c0.6,0.4,2,0.7,4.1,1s3.5,0.7,4.2,1.2
				c0.8,0.5,1.3,1.3,1.8,2.4s0.7,2.4,0.7,4c0,3.1-0.8,5.7-2.6,8c-1.7,2.3-4,3.3-6.8,3.3c-1,0-1.9-0.1-2.9-0.4s-2-0.8-3-1.3
				c0.2-1.8,0.3-4.2,0.3-7.1h1.1v1.2c0,1.5,0,2.4,0.1,2.7c0.1,0.4,0.3,0.8,0.7,1.1c0.6,0.6,1.2,1.1,2,1.4s1.6,0.5,2.5,0.5
				c1.9,0,3.4-0.7,4.5-2s1.6-3.1,1.6-5.2c0-1.2-0.2-2.3-0.5-3.1c-0.3-0.8-0.8-1.5-1.5-1.9c-0.6-0.4-1.8-0.8-3.5-0.9
				c-2.3-0.3-3.9-0.7-4.7-1.2c-0.8-0.6-1.5-1.5-1.9-2.6c-0.5-1.2-0.7-2.6-0.7-4.4c0-3,0.7-5.4,2.2-7.3c1.4-1.9,3.4-2.8,5.9-2.8
				c1,0,2.1,0.1,3.1,0.5c1,0.3,2.1,0.8,3.1,1.5C226.4,58.9,226.2,61,226.2,63.6"/>
			<path class="st0" d="M242,85.7l-0.6,1.5c-0.7,0.6-1.4,1-2.2,1.3c-0.7,0.3-1.5,0.4-2.2,0.4c-1.5,0-2.8-0.4-3.8-1.3
				c-1.1-0.8-1.8-2.1-2.4-3.7c-0.6-1.6-0.8-3.6-0.8-5.8c0-2,0.2-3.7,0.7-5.2c0.4-1.5,1.1-2.6,1.8-3.4c0.8-0.8,1.8-1.6,2.9-2.4
				c0.8-0.6,1.8-0.8,2.8-0.8c0.8,0,1.4,0.1,2,0.3c0.6,0.2,1.2,0.6,1.8,1c-0.2,2-0.4,4-0.4,6.1h-1v-1.1c0-1-0.1-1.7-0.3-2.1
				s-0.6-0.8-1.3-1.2c-0.7-0.4-1.4-0.6-2.2-0.6c-1.4,0-2.4,0.6-3.1,1.9c-0.7,1.3-1.1,3.2-1.1,5.7c0,3.2,0.6,5.8,1.7,7.8
				c1,1.7,2.2,2.6,3.8,2.6c0.6,0,1.2-0.1,1.8-0.3c0.6-0.2,1.2-0.6,1.8-1L242,85.7z"/>
			<path class="st0" d="M250.6,68c0.5-0.7,0.9-1.1,1.4-1.4c0.5-0.2,1-0.4,1.7-0.4c1.1,0,2.1,0.3,2.9,1c0.8,0.7,1.4,1.6,1.7,2.6
				c0.3,1,0.5,2.9,0.5,5.4l-0.1,6.8c0,1.5,0,2.7,0.1,3.6c0,0.4,0.1,0.6,0.3,0.8c0.2,0.2,0.4,0.3,0.9,0.4l1.2,0.2v1.3
				c-1-0.1-1.9-0.1-2.9-0.1c-0.8,0-1.6,0-2.4,0.1c0.2-3.8,0.3-7.6,0.3-11.3c0-2.5-0.1-4.2-0.3-5.1s-0.6-1.6-1.1-2.1s-1.2-0.8-2-0.8
				s-1.6,0.3-2.3,0.9s-1.2,1.3-1.4,2.1c-0.2,0.6-0.3,1.9-0.3,4v4c0,3.6,0.1,5.6,0.2,6c0.1,0.4,0.5,0.6,1.2,0.7l1.3,0.2v1.3
				c-1.6-0.1-2.8-0.1-3.8-0.1s-2.3,0-4,0.1v-1.3l1-0.2c0.6-0.1,1-0.2,1.1-0.4c0.2-0.1,0.2-0.5,0.3-1c0.1-0.8,0.1-2.7,0.1-5.6V64.5
				c0-4.1-0.1-6.4-0.2-6.9c-0.1-0.3-0.5-0.5-1.2-0.5h-1.1v-1.4c1.6-0.3,2.8-0.6,3.8-1l1.2-0.7c0.2,0,0.3,0.1,0.2,0.5v0.9l-0.1,4.1
				c-0.1,2.1-0.1,3.7-0.1,4.8v6.2L250.6,68z"/>
			<path class="st0" d="M266.4,88.7c-0.9-4.4-1.8-9.3-2.9-14.5l-1-4.6c-0.1-0.5-0.3-0.9-0.6-1.2c-0.3-0.2-0.6-0.4-0.9-0.4h-0.7v-1.3
				c1.6,0.1,2.8,0.1,3.7,0.1c0.8,0,2.1,0,3.7-0.1V68h-0.8c-0.6,0-1.1,0.1-1.3,0.3c-0.2,0.1-0.3,0.4-0.3,0.7c0,0.8,0.9,5.5,2.6,14.3
				l3.3-10.8c0.5-1.7,1.1-3.8,1.7-6.2h0.7c0.4,1.8,0.9,3.6,1.3,5.4l3.1,12l2.3-9.4c0.4-1.8,0.7-3.2,0.9-4.2c0-0.4,0.1-0.7,0.1-0.9
				c0-0.4-0.1-0.7-0.3-0.8c-0.2-0.2-0.5-0.3-1-0.3h-1v-1.3c1.3,0.1,2.5,0.1,3.5,0.1c0.9,0,1.7,0,2.6-0.1V68h-0.7
				c-0.3,0-0.7,0.3-1,0.8c-0.3,0.6-1.2,3.4-2.6,8.5c-1.2,4.2-2.1,8-2.8,11.4h-1.5c-0.5-1.9-1.2-4.8-2.2-8.8l-1.9-7.4
				C271,77,269.8,80.9,269,84c-0.4,1.4-0.8,3-1.2,4.7H266.4L266.4,88.7z"/>
			<path class="st0" d="M288.5,77.3h3.8c1.9,0,3.4,0,4.5-0.2c0.6,0,1.2-0.2,1.9-0.5v-1.4c0.1-2.9-0.5-5.1-1.6-6.7s-2.5-2.4-4.3-2.4
				c-1.2,0-2.4,0.5-3.7,1.6c-1.2,1-2.1,2.2-2.6,3.4c-0.7,1.9-1.1,4.1-1.1,6.7c0,3.4,0.6,6.1,1.9,8c1.2,2,2.9,3,5,3
				c0.9,0,1.8-0.2,2.7-0.6c0.9-0.3,1.7-0.9,2.6-1.6l0.5-1.9l-0.2-0.3c-0.7,0.7-1.4,1.2-2.1,1.6c-0.7,0.3-1.4,0.5-2.1,0.5
				c-1.6,0-2.9-0.8-3.8-2.4C289.1,82.6,288.5,80.3,288.5,77.3 M288.5,75.6c0-2.6,0.4-4.6,1.1-5.8c0.7-1.3,1.6-1.9,2.7-1.9
				c0.7,0,1.4,0.2,1.9,0.8c0.6,0.5,1,1.1,1.2,1.9c0.3,1.2,0.5,2.4,0.5,3.8v1.3c-0.7,0.1-1.5,0.2-2.2,0.2
				C291.8,75.8,290.1,75.7,288.5,75.6"/>
			<path class="st0" d="M306.2,66.5c-0.1,1.1-0.1,2.4-0.2,3.8c-0.1,4.5-0.1,7.8-0.1,9.9c0,2,0,3.7,0.1,5.1c0.1,0.6,0.2,0.9,0.3,1.1
				c0.2,0.2,0.5,0.4,1.1,0.5l1,0.2v1.3c-1.5-0.1-2.8-0.1-4.1-0.1c-1.2,0-2.4,0-3.6,0.1v-1.3l1.3-0.2c0.5-0.1,0.8-0.2,0.9-0.4
				c0.1-0.2,0.2-1,0.2-2.2c0.1-2,0.1-4.7,0.1-8c0-2.4,0-4.2-0.1-5.5c0-0.5-0.1-0.8-0.3-1c-0.2-0.2-0.5-0.3-1-0.3h-1.2v-1.4
				c1.2-0.3,2.1-0.5,2.7-0.8c0.6-0.2,1.3-0.6,2.2-1.2L306.2,66.5z"/>
			<path class="st0" d="M310.2,87.3c1-1.6,2.3-4,4-7.1c2.3-4.2,4.3-8.2,6.1-11.9c-2.6,0-4.5,0.1-5.7,0.2c-0.9,0-1.4,0.2-1.5,0.4
				c-0.2,0.2-0.3,0.8-0.4,1.9l-0.2,2h-0.9c0.1-1.5,0.2-2.8,0.2-3.9v-2.1l0.1-0.2c3.1,0.1,5.5,0.1,7,0.1c1.7,0,3.4,0,5-0.1v1.2
				c-0.5,0.9-1.1,1.8-1.6,2.7l-2.4,4.5c-1,1.9-3,5.7-5.9,11.5h1.9c2.1,0,3.9-0.1,5.5-0.3c0.6-0.1,1-0.3,1.2-0.6
				c0.2-0.3,0.3-1.2,0.5-2.8l0.2-1.4h0.9c-0.3,2.8-0.3,5-0.3,6.6c-0.7,0.1-1.5,0.2-2.3,0.2l-5.5-0.1c-2.3,0-4.2,0-5.7,0.1
				L310.2,87.3z"/>
			<path class="st0" d="M328.5,77.3h3.8c1.9,0,3.4,0,4.5-0.2c0.6,0,1.2-0.2,1.9-0.5v-1.4c0.1-2.9-0.5-5.1-1.6-6.7s-2.5-2.4-4.3-2.4
				c-1.2,0-2.4,0.5-3.7,1.6c-1.2,1-2.1,2.2-2.6,3.4c-0.7,1.9-1.1,4.1-1.1,6.7c0,3.4,0.6,6.1,1.9,8c1.2,2,2.9,3,5,3
				c0.9,0,1.8-0.2,2.7-0.6c0.9-0.3,1.7-0.9,2.6-1.6l0.5-1.9l-0.2-0.3c-0.7,0.7-1.4,1.2-2.1,1.6c-0.7,0.3-1.4,0.5-2.1,0.5
				c-1.6,0-2.9-0.8-3.8-2.4C329.1,82.6,328.5,80.3,328.5,77.3 M328.5,75.6c0-2.6,0.4-4.6,1.1-5.8c0.7-1.3,1.6-1.9,2.7-1.9
				c0.7,0,1.4,0.2,1.9,0.8c0.6,0.5,1,1.1,1.2,1.9c0.3,1.2,0.5,2.4,0.5,3.8v1.3c-0.7,0.1-1.5,0.2-2.2,0.2
				C331.9,75.8,330.1,75.7,328.5,75.6"/>
			<path class="st0" d="M346.8,69.1c0.6-1.1,1.1-1.9,1.6-2.3s1-0.6,1.5-0.6c0.6,0,1,0.1,1.3,0.3c0.2,0.1,0.2,0.2,0.2,0.4v0.2
				c-0.1,1.3-0.2,3-0.3,5.2h-0.7c-0.2-0.8-0.5-1.3-0.8-1.6c-0.3-0.3-0.7-0.5-1.2-0.5c-0.6,0-1.2,0.3-1.7,0.9s-0.8,1.5-1,2.6
				s-0.2,3.2-0.2,6.5c0,2.1,0.1,3.9,0.2,5.4c0.1,0.6,0.2,0.9,0.3,1c0.4,0.3,1,0.5,1.7,0.5h0.9v1.3c-1.6-0.1-3-0.1-4.4-0.1
				s-2.7,0-4,0.1v-1.3l1.5-0.2c0.5,0,0.8-0.2,1-0.4c0.2-0.2,0.2-1,0.3-2.2c0.1-2.2,0.1-4.8,0.1-7.9c0-3.7-0.1-5.9-0.3-6.5
				c-0.1-0.4-0.5-0.6-1.2-0.6h-1.3V68c1-0.2,1.9-0.4,2.7-0.7c0.7-0.3,1.4-0.6,2.1-1c0.1-0.1,0.3-0.1,0.3-0.1c0.1,0,0.2,0,0.2,0.1
				s0.1,0.3,0.1,0.6v4.6C345.9,70.8,346.3,70.1,346.8,69.1"/>
			<path class="st0" d="M366.7,78.5v3.2c0,2,0,3.5,0.1,4.5c1.5,0.1,3.1,0.2,4.7,0.2c1.2,0,2.1-0.1,2.9-0.2c0.5-0.1,1-0.3,1.6-0.6
				c0.3-1.3,0.5-3,0.8-5h1c-0.3,3.3-0.5,5.6-0.4,6.7v1c-1.2,0.1-2.3,0.3-3.4,0.2l-2.4-0.1c-2.6,0-4.6-0.1-5.8-0.1
				c-1.2,0-2.8,0-4.7,0.1V87h0.5c0.9,0,1.4-0.1,1.7-0.4c0.2-0.2,0.4-0.8,0.4-1.8c0.1-0.9,0.1-3.1,0.1-6.4V65.8c0-2,0-3.7-0.1-5
				s-0.2-2.1-0.2-2.4c-0.1-0.3-0.2-0.5-0.3-0.6c-0.1-0.1-0.6-0.2-1.3-0.4l-1.2-0.2v-1.4h1.7l1.6,0.1c0.9,0,1.6,0,2.1,0l5.9-0.1h2.8
				c0.9,0,1.9,0,2.8,0.2c-0.4,1.8-0.6,4.1-0.6,7.1h-1c0-1.7-0.1-3.1-0.2-4.2c-1.2-0.7-2.7-1-4.4-1c-1.4,0-2.9,0.1-4.4,0.3
				c0,1.5,0,2.9,0,4.3V66v4.7c1,0.1,1.9,0.1,2.7,0.1c2.4,0,3.8-0.1,4.1-0.4c0.3-0.2,0.5-1,0.5-2.4v-1.5h1c-0.1,2.3-0.1,4.1-0.1,5.6
				s0,3.2,0.1,5.1h-1v-1.3c0-1.5-0.2-2.4-0.6-2.7c-0.4-0.3-1.7-0.5-4-0.5c-0.9,0-1.7,0-2.7,0.2L366.7,78.5L366.7,78.5z"/>
			<path class="st0" d="M385,66.5c-0.1,1.1-0.1,2.4-0.2,3.8c-0.1,4.5-0.1,7.8-0.1,9.9c0,2,0,3.7,0.1,5.1c0.1,0.6,0.2,0.9,0.3,1.1
				c0.2,0.2,0.5,0.4,1.1,0.5l1,0.2v1.3c-1.5-0.1-2.8-0.1-4.1-0.1c-1.2,0-2.4,0-3.6,0.1v-1.3l1.3-0.2c0.5-0.1,0.8-0.2,0.9-0.4
				c0.1-0.2,0.2-1,0.2-2.2c0.1-2,0.1-4.7,0.1-8c0-2.4,0-4.2-0.1-5.5c0-0.5-0.1-0.8-0.3-1c-0.2-0.2-0.5-0.3-1-0.3h-1.2v-1.4
				c1.2-0.3,2.2-0.5,2.7-0.8c0.6-0.2,1.3-0.6,2.2-1.2L385,66.5z M384.6,56.7c0.3,0.5,0.5,1.1,0.5,1.9c0,0.7-0.2,1.3-0.5,1.8
				s-0.8,0.8-1.2,0.8c-0.5,0-0.9-0.3-1.2-0.8c-0.3-0.5-0.5-1.1-0.5-1.8c0-0.8,0.2-1.4,0.5-1.9s0.7-0.8,1.2-0.8
				C383.9,56,384.3,56.2,384.6,56.7"/>
		</g>
	</g>
</g>
</svg>
