<?xml version="1.0" encoding="utf-8"?>
<!-- Generator: Adobe Illustrator 25.2.1, SVG Export Plug-In . SVG Version: 6.00 Build 0)  -->
<svg version="1.1" id="Ebene_1" xmlns="http://www.w3.org/2000/svg" xmlns:xlink="http://www.w3.org/1999/xlink" x="0px" y="0px"
	 width="530.7px" height="232.1px" viewBox="0 0 530.7 232.1" style="enable-background:new 0 0 530.7 232.1;" xml:space="preserve"
	>
<style type="text/css">
	.st0{fill:#FFEDA2;stroke:#000000;stroke-width:3.940000e-02;}
	.st1{fill:url(#SVGID_1_);}
	.st2{stroke:#000000;stroke-width:3.940000e-02;}
	.st3{fill:none;stroke:#000000;stroke-width:3.940000e-02;}
	.st4{fill:#FFEDA2;stroke:#A7A9AC;stroke-width:3.940000e-02;}
	.st5{fill:#FFFFFF;}
	.st6{fill:#ED1C24;}
</style>
<g>
	<rect x="396.1" y="183.3" class="st0" width="61.6" height="36.1"/>
	<path class="st0" d="M405.9,68.7V57.4l-5.1-2.5l-10.1-2.5h-7.6l10.1-16.5L379.3,32l-13.4-9.7l4.5-6.7h6.3l11,2.6l5.5,2.5L394.5,8
		l8.9,3.8l6.3,3.8l5.1,3.8l2.5-8.9h5.1l7.6,5.1c0,0,27.6,23.7,30.3,29.6c2.7,5.9,7.7,29.9,7.7,29.9l3.8,7.6l24.1,10.1l16.5,34.2
		l-2.5,38l-16.5,19l-21.5,7.6l-22.8,2.5l-13-13.6l-16.1-14.3l-10.1-22.8l-1.3-11.4l12.7-3.8l12.7,6.3l6.3,1.3l7.6-2.5
		c0,0,7.6-1.3,6.3-7.6c-1.3-6.3-5.1-19-5.1-19l-10.1-11.4l-13.9-15.2L409.3,75"/>
	<rect x="340.7" y="99.7" class="st0" width="62.1" height="64.7"/>
	
		<radialGradient id="SVGID_1_" cx="409.3285" cy="-87.6263" r="154.9421" gradientTransform="matrix(1 0 0 1 0 181.0127)" gradientUnits="userSpaceOnUse">
		<stop  offset="0" style="stop-color:#FFFCDF"/>
		<stop  offset="1" style="stop-color:#F0C868"/>
	</radialGradient>
	<path class="st1" d="M376.2,132.9c0-35.9,22-65,49.1-65c27.1,0,49.1,29.1,49.1,65s-22,65-49.1,65
		C398.2,198,376.2,168.8,376.2,132.9z"/>
	<g>
		<polygon class="st2" points="382.6,95.4 379.4,103.7 347.9,103.7 347.9,159.7 376.2,159.7 379,168.2 338.7,168.1 338.7,95.4 
			382.6,95.4 		"/>
		<polygon class="st2" points="463,192.2 454.7,194.5 454.7,216.4 398.7,216.4 398.7,190.3 390.3,187 390.3,226.2 463,226.2 
			463,192.2 		"/>
		<polygon class="st3" points="426.6,205.5 426.6,205.5 418.9,205.2 411.9,204 405.4,202 399.6,199.4 394.3,196.1 389.6,192.2 
			385.5,187.8 381.9,182.8 378.9,177.5 376.4,171.8 374.4,165.7 372.9,159.4 371.8,152.8 371.3,146.1 371.2,139.3 371.5,132.4 
			372.3,125.5 373.5,118.7 375.1,112 377.1,105.4 379.5,99.1 382.2,93 385.3,87.2 388.7,81.8 392.5,76.9 396.6,72.4 400.9,68.5 
			405.6,65.1 410.5,62.4 415.7,60.4 421.2,59.2 426.9,58.7 432.5,59.1 438,60.3 443.2,62.3 448.1,64.9 452.8,68.2 457.1,72.1 
			461.2,76.6 464.9,81.5 468.4,86.8 471.4,92.6 474.1,98.6 476.5,104.9 478.5,111.5 480,118.2 481.2,125 482,131.9 482.3,138.7 
			482.2,145.6 481.6,152.3 480.5,158.8 479,165.2 477,171.3 474.5,177 471.4,182.4 467.8,187.3 463.7,191.8 459,195.7 453.7,199.1 
			447.8,201.8 441.4,203.8 434.3,205.1 426.6,205.5 		"/>
		<path d="M426.6,205.5L426.6,205.5l-7.7-0.4l-7.1-1.2l-6.5-2l-5.9-2.6l-5.2-3.3l-4.7-3.9l-4.1-4.4l-3.6-4.9l-3-5.4l-2.5-5.7l-2-6.1
			l-1.5-6.3l-1-6.5l-0.6-6.7l-0.1-6.8l0.3-6.9l0.8-6.9l1.2-6.8l1.6-6.7l2-6.6l2.4-6.3l2.7-6.1l3.1-5.7l3.4-5.4l3.8-4.9l4.1-4.5
			l4.4-3.9l4.7-3.3l4.9-2.7l5.2-2l5.4-1.2l5.7-0.5l5.7,0.4l5.5,1.2l5.2,2l4.9,2.7l4.6,3.3l4.4,3.9l4.1,4.4l3.7,4.9l3.4,5.4l3.1,5.7
			l2.7,6.1l2.4,6.3l2,6.5l1.6,6.7l1.2,6.8l0.8,6.9l0.3,6.9l-0.1,6.8l-0.6,6.7l-1.1,6.6l-1.5,6.3l-2,6.1l-2.5,5.7l-3.1,5.4l-3.6,5
			l-4.1,4.5l-4.7,3.9l-5.3,3.4l-5.9,2.7l-6.5,2l-7.1,1.3L426.6,205.5L426.6,205.5z M432.9,194.3L432.9,194.3l5.8-1.1l5.3-1.7
			l4.8-2.3l4.4-2.9l3.9-3.4l3.4-3.8l3-4.2l2.5-4.6l2.1-4.9l1.7-5.2l1.3-5.4l0.9-5.6l0.5-5.7l0.1-5.8l-0.3-5.9l-0.6-5.9l-0.9-5.8
			l-1.3-5.7l-1.6-5.6l-1.9-5.4l-2.2-5.1l-2.5-4.9l-2.8-4.6l-3.1-4.2l-3.3-3.8l-3.6-3.3l-3.8-2.8l-4.1-2.3l-4.3-1.7l-4.5-1l-4.7-0.3
			l-4.7,0.4l-4.5,1.1l-4.3,1.7l-4.1,2.3l-3.8,2.8l-3.6,3.4l-3.4,3.8l-3.1,4.2l-2.8,4.6l-2.5,4.9l-2.2,5.2l-2,5.4l-1.6,5.6l-1.3,5.7
			l-1,5.8l-0.6,5.9l-0.3,5.9l0.1,5.8l0.4,5.7l0.8,5.6l1.2,5.4l1.7,5.2l2.1,4.9l2.5,4.6l2.9,4.2l3.4,3.8l3.9,3.3l4.3,2.8l4.8,2.3
			l5.3,1.7l5.8,1l6.4,0.3L432.9,194.3L432.9,194.3z"/>
		<polygon class="st3" points="426.6,194.7 426.6,194.7 420.2,194.4 414.4,193.4 409.1,191.7 404.3,189.4 400,186.6 396.1,183.3 
			392.7,179.5 389.8,175.3 387.3,170.8 385.2,165.9 383.6,160.7 382.3,155.3 381.5,149.8 381.1,144 381,138.2 381.3,132.3 
			381.9,126.5 382.9,120.7 384.2,114.9 385.8,109.4 387.8,103.9 390,98.7 392.6,93.8 395.4,89.2 398.5,85 401.9,81.2 405.5,77.9 
			409.3,75 413.4,72.7 417.6,71 422.1,69.9 426.8,69.5 431.5,69.9 436,70.9 440.2,72.6 444.3,74.8 448.1,77.7 451.7,81 455.1,84.8 
			458.2,89 461,93.5 463.5,98.4 465.7,103.6 467.7,109 469.3,114.5 470.6,120.2 471.6,126 472.2,131.9 472.5,137.8 472.4,143.6 
			471.9,149.3 471,154.9 469.8,160.3 468.1,165.5 466,170.4 463.5,175 460.5,179.2 457.1,183 453.2,186.4 448.9,189.2 444.1,191.5 
			438.8,193.3 432.9,194.3 426.6,194.7 		"/>
		<path class="st2" d="M396.1,73.3c5.7-15.3,11-21.8-21.1-18.5l15.3-16.3c-34.1-6.2-28.5-22.3-22.8-25.8c8.3-4.5,20.3,2.8,21.7,3.4
			c-4-13.5,13.5-12.7,26.1-2.6c8.5-22.8,52.2,16.7,59.7,66.1c41.5,11.6,54.8,73.5,29.1,100c-27.1,27.9-73.8,26.1-76.1-1.4
			c-9-2.4-18.9-15.4-14-23.1c-17.8-13.4-6.7-30.2-2.6-27.4c3.3,2.2,12.2,5.9,17.6,7.3c60.3,13.8,86.3-46.5,35.7-45.1
			c-3.3-72.7-63.5-93.4-39.5-63.5l-7.8-0.1c-17.8-24.3-33.5-12.2-12.2,0.1h-9.2c-5.5-4.4-25.3-15.1-26.1-5.7
			c-1.3,7.4,23.2,14.9,36,13.2l5,7.9l-13.3-1.2l-8.2,8.1C419.1,46.3,415,70,396.1,73.3L396.1,73.3z"/>
		<path class="st4" d="M499.4,106c0.1,36.7-57.6,47.4-88.1,29.5c-4.7,25.1,50.5,31.5,67.8,17.1l4.7,4.2
			c-20.9,15.3-46.9,11.3-63.6,3.5c-1.4,9.1,25.3,25.1,57.5,11.5v5.2c-13,8.5-30.5,7.3-41.7,3.6c3.3,19.9,52.8,14,70.4-16.5
			C511.3,155.2,513.6,126.5,499.4,106L499.4,106z"/>
	</g>
	<g>
		<path class="st5" d="M141.9,102.1c0,4.7,0.7,8.1,3.2,9.3c0.4,0.5,0.4,1.6-0.1,2c-1.5,0-3.9,0.4-6.4,1.1
			c-8.3,1.9-18.3,3.6-25.9,3.6c-16,0-31.1-4.3-41.1-14.7c-7.9-8.1-11.7-19.4-11.7-30.6c0-11.2,3.9-22.7,12.3-31.4
			c9.5-10,24-15.8,42.6-15.8c6.3,0,13.1,1.1,17.8,2c3.1,0.7,6.9,1.2,8.5,1.2c0.1,4,1.1,10.8,1.7,21.2c-0.7,1.3-3.6,1.5-4.3,0.3
			c-2.9-12.9-12.4-19.4-25.6-19.4c-23.5,0-34.8,17-34.8,39.6c0,10.7,2.4,22.2,9.6,30.7c7.2,8.5,17.9,11.3,25.8,11.3
			c6.4,0,10.3-1.1,11.9-3.1c0.8-1.2,1.2-3.6,1.2-8.4v-4.8c0-9.5-0.1-10.3-9.1-11.7l-4.8-0.8c-0.9-0.9-0.9-3.2,0.1-3.9
			c5.2,0.3,11.6,0.4,20.8,0.4c6,0,10.5-0.1,16.3-0.4c1.3,0.7,1.5,2.9,0.3,3.9l-2.4,0.4c-4.9,0.7-5.7,1.9-5.7,10V102.1z"/>
		<path class="st5" d="M181.9,104.1c-0.1,3.2-1.6,6.4-6.4,6.4c-5.1,0-7.5-4.3-7.5-7.7c0-5.7,3.5-7.6,7.2-8.9
			c2.4-0.9,4.8-1.6,5.9-1.6c0.7,0,1.1,0.8,1.1,2.3L181.9,104.1z M196.2,78.2c0.5-11.7-6-16.7-16.6-16.7c-6.8,0-16.4,4.5-20.6,8.4
			c-4.4,4.1-5.2,6.9-5.2,8.5c0,1.2,0.8,2.1,2.5,2.1c2.9,0,6.7-1.2,8.5-2.4c1.5-0.9,2.3-2.3,2.5-4.8c0.5-3.9,3.3-5.9,7.1-5.9
			c6.5,0,8.4,5.9,8.1,12.7l-0.1,3.5c0,1.3-0.4,2.5-3.1,3.5c-4.9,1.9-10,3.7-14.7,5.3c-9.2,3.2-11.1,7.6-11.1,12.4
			c0,6.7,4.5,12.9,13.6,12.9c4.8,0,8.8-1.9,11.3-3.5c2-1.2,2.9-1.9,3.6-1.9c0.7,0,1.2,0.7,2.1,1.6c2.5,2.8,6.3,3.7,9.6,3.7
			c4.1,0,10.7-2.1,13.3-5.9c0.4-1.2-0.5-2.7-1.2-2.7c-0.4,0-2.3,1.5-4.5,1.5c-4.8,0-6.8-4-6.4-11.7L196.2,78.2z"/>
		<path class="st5" d="M215.8,42.9c0-8.9-0.1-9.9-3.5-11.9l-1.5-0.9c-0.8-0.5-0.9-2.7,0-3.1c5.2-1.5,12.1-4.3,17.5-6.4
			c0.8-0.1,1.6,0.4,1.9,1.1c-0.3,5.3-0.4,13.6-0.4,19.4v59.1c0,9.9,0.5,11.3,5.1,12l2.9,0.4c0.9,0.9,0.8,3.3-0.3,3.9
			c-5.5-0.3-10-0.4-14.9-0.4c-4.4,0-8.9,0.1-14.4,0.4c-1.1-0.5-1.2-2.9-0.3-3.9l2.8-0.4c4.5-0.7,5.1-2.1,5.1-12V42.9z"/>
		<path class="st5" d="M246.1,42.9c0-8.9-0.1-9.9-3.5-11.9l-1.5-0.9c-0.8-0.5-0.9-2.7,0-3.1c5.2-1.5,12.1-4.3,17.5-6.4
			c0.8-0.1,1.6,0.4,1.9,1.1c-0.3,5.3-0.4,13.6-0.4,19.4v59.1c0,9.9,0.5,11.3,5.1,12l2.9,0.4c0.9,0.9,0.8,3.3-0.3,3.9
			c-5.5-0.3-10-0.4-14.9-0.4c-4.4,0-8.9,0.1-14.4,0.4c-1.1-0.5-1.2-2.9-0.3-3.9l2.8-0.4c4.5-0.7,5.1-2.1,5.1-12V42.9z"/>
		<path class="st5" d="M285.2,88.7c0-14.8,5.3-21.8,12.1-21.8c9.9,0,13.7,13.2,13.7,24.4c0,10.3-2.7,21.2-11.9,21.2
			C289.6,112.5,285.2,100.8,285.2,88.7z M298.6,61.6c-15.6,0-29.2,11.2-29.2,29.1c0,17.5,12.8,27.2,28.2,27.2
			c15.9,0,29.2-9.9,29.2-28.8C326.8,71.7,313.7,61.6,298.6,61.6z"/>
		<path class="st6" d="M17.5,180.5c-2.4-2.8-4.1-12-4-20.3c0.8-1.3,3.1-1.5,4.1-0.5c2.4,6.8,9.6,21.1,22.7,21.1
			c10.1,0,15.9-6.1,15.9-14.3c0-7.6-3.6-13.7-13.6-19.4l-5.7-3.2c-10-5.6-18.8-13.7-18.8-25.8c0-13.2,9.9-24.4,29.4-24.4
			c6.9,0,12,1.6,18.3,2.8c1.5,2.9,2.8,11.7,2.8,18c-0.7,1.2-3.1,1.3-4.3,0.4c-2-6.9-6.7-15.9-18-15.9c-10.7,0-15.1,6.9-15.1,14
			c0,5.6,3.9,11.6,12.7,16.3l8.3,4.4c8.7,4.5,18.3,12.8,18.3,26.3c0,15.2-11.6,26-31,26C27.1,186.2,20.2,182.1,17.5,180.5z"/>
		<path class="st6" d="M131.1,164.4c0,7.5,0.1,14.1,3.3,14.1c1.9,0,3.9-0.4,5.7-0.9c1.1,0.7,1.3,3.5-0.4,4.5
			c-5.9,0.7-16.2,2.4-21.9,5.1c-0.7-0.1-1.1-0.7-1.2-1.3c0.3-1.6,0.5-3.6,0.4-4.9c-0.1-1.1-0.5-1.5-1.3-1.5
			c-5.6,3.3-11.5,6.4-18.2,6.4c-12,0-15.9-6.7-15.9-17.8v-20.8c0-9.3-0.5-10.3-3.9-11.3l-1.9-0.5c-0.8-0.7-0.8-3.1,0.3-3.5
			c8-0.1,15.6-1.3,18.6-2.4c0.7,0.1,1.2,0.5,1.3,1.2c-0.3,1.6-0.4,4.8-0.4,11.3v20.6c0,7.9,1.5,15.2,10.9,15.2
			c3.1,0,6.5-1.2,8.8-3.3c1.3-1.3,1.6-2.5,1.6-7.5V147c0-8.5-0.8-9.2-5.9-10.7l-2.1-0.7c-0.9-0.7-0.9-3.1,0.1-3.6
			c8.9-0.1,18.3-1.1,21-2.4c0.7,0.1,1.2,0.5,1.3,1.2c-0.3,2.5-0.4,6.4-0.4,11.3V164.4z"/>
		<path class="st6" d="M168.9,169.2c0,9.9,0.5,11.3,5.1,12l2.4,0.4c0.9,0.9,0.8,3.3-0.3,3.9c-4.9-0.3-9.5-0.4-14.4-0.4
			c-4.4,0-8.9,0.1-14,0.4c-1.1-0.5-1.2-2.9-0.3-3.9l2.4-0.4c4.5-0.7,5.1-2.1,5.1-12v-19.6c0-6,0-7.6-3.3-9.6l-1.6-0.9
			c-0.4-0.5-0.4-2.4,0.1-3.1c6.9-2,13.6-4.9,17.4-7.2c0.8,0.1,1.5,0.4,1.9,1.1c-0.3,4.4-0.4,10.8-0.4,16.3V169.2z"/>
		<path class="st6" d="M187.4,181.7c-1.3-2.5-2.1-9.3-1.9-15.1c0.8-1.1,2.8-1.2,3.7-0.3c2.4,7.5,7.3,14.5,14.4,14.5
			c4.1,0,7.5-2.8,7.5-7.5c0-4.9-4.4-8.1-9.1-10.4c-6.9-3.3-14.1-8.3-14.1-16.8c-0.1-10.4,8.8-16.6,19.9-16.6
			c5.5,0,10.5,1.6,12.4,2.7c1.3,2.8,2,6.9,2,12.9c-0.4,1.1-2.7,1.5-3.6,0.7c-2-6.1-6.3-11.2-11.5-11.2c-4.3,0-7.5,3.1-7.5,6.9
			c0,3.9,3.9,6.7,8.9,9.1c7.2,3.5,14.8,8,14.8,18.6c0,11.6-10.3,16.7-20.8,16.7C197.1,185.9,191.7,184.9,187.4,181.7z"/>
		<path class="st6" d="M235.6,181.7c-1.3-2.5-2.1-9.3-1.9-15.1c0.8-1.1,2.8-1.2,3.7-0.3c2.4,7.5,7.3,14.5,14.4,14.5
			c4.1,0,7.5-2.8,7.5-7.5c0-4.9-4.4-8.1-9.1-10.4c-6.9-3.3-14.1-8.3-14.1-16.8c-0.1-10.4,8.8-16.6,19.9-16.6
			c5.5,0,10.5,1.6,12.4,2.7c1.3,2.8,2,6.9,2,12.9c-0.4,1.1-2.7,1.5-3.6,0.7c-2-6.1-6.3-11.2-11.5-11.2c-4.3,0-7.5,3.1-7.5,6.9
			c0,3.9,3.9,6.7,8.9,9.1c7.2,3.5,14.8,8,14.8,18.6c0,11.6-10.3,16.7-20.8,16.7C245.3,185.9,239.9,184.9,235.6,181.7z"/>
		<path class="st6" d="M293.8,147c-1.6,0-1.9-0.4-1.9-0.9c0-2.8,4.1-11.5,13.1-11.5c5.7,0,8.8,3.9,8.8,8.7c0,1.2-0.5,2.3-1.3,2.8
			c-0.9,0.5-2.7,0.9-6.5,0.9H293.8z M316.8,152.4c5.3,0,8.4-0.5,9.2-1.7c0.5-1.1,0.7-1.9,0.7-3.1c0-11.6-10.1-18-20-18
			c-17.9,0-28.2,14.5-28.2,29.6c0,15.2,10.3,26.7,25.8,26.7c8.1,0,18-4,22.6-14.7c-0.1-1.2-1.6-2.5-2.9-2.1
			c-3.1,4.9-7.5,6.7-12.8,6.7c-11.9,0-20.2-9.6-20.2-21.6c0-1.6,0.3-1.7,2.8-1.7H316.8z"/>
	</g>
</g>
</svg>
