<svg width="282" height="79" viewBox="0 0 282 79" fill="none" xmlns="http://www.w3.org/2000/svg">
<path fill-rule="evenodd" clip-rule="evenodd" d="M30.3042 42.274V27.5271L22.7771 23.8403V39.2017C23.5452 39.6625 24.3133 40.1234 25.2349 40.4306C26.9247 41.1987 28.6144 41.8131 30.3042 42.274ZM12.1778 30.753C14.3284 33.0572 16.6326 35.0541 19.0904 36.7439V21.997L15.2501 20L0.195923 27.5271V40.1234L10.7953 29.3704L12.1778 30.753ZM30.3042 46.2679C28 45.6535 25.8494 44.7318 23.6988 43.8101C23.3916 43.6565 23.238 43.5029 22.9307 43.3493V49.9547H30.4578V46.2679" fill="#DA291C"/>
<path fill-rule="evenodd" clip-rule="evenodd" d="M19.0901 41.3526C16.0178 39.5092 13.2528 37.3586 10.795 34.9008L0.349243 45.6538V50.2622H19.0901V41.3526Z" fill="#DA291C"/>
<path fill-rule="evenodd" clip-rule="evenodd" d="M60.8735 39.9699H49.6597V50.1084H45.3585V27.5272H49.6597V35.9759H60.8735V27.5272H65.1747V49.9548H60.8735V39.9699ZM77.1565 46.5753C79.6144 46.5753 81.3041 44.7319 81.3041 42.2741C81.3041 39.9699 79.6144 37.9729 77.1565 37.9729C74.6987 37.9729 73.009 39.9699 73.009 42.2741C73.009 44.5783 74.6987 46.5753 77.1565 46.5753ZM77.1565 34.1326C81.9186 34.1326 85.4517 37.8193 85.4517 42.2741C85.4517 46.7289 81.7649 50.4156 77.1565 50.4156C72.5481 50.4156 68.8614 46.8825 68.8614 42.2741C68.8614 37.8193 72.3945 34.1326 77.1565 34.1326ZM100.352 50.1084C99.7377 50.262 98.5088 50.4156 97.7408 50.4156C95.2829 50.4156 93.4396 49.6475 92.3643 48.1114C91.5962 47.0361 91.1354 45.6536 91.1354 43.503V37.9729H86.8342V34.4398H91.1354V30.1386H95.2829V34.4398H100.352V37.9729H95.2829V43.9638C95.2829 44.8855 95.4366 45.5 95.7438 45.9608C96.2046 46.4217 96.8191 46.7289 97.8944 46.7289C98.5088 46.7289 99.2769 46.5753 99.5841 46.5753L100.352 50.1084ZM113.256 40.2771C113.102 38.8946 111.873 37.5121 110.183 37.5121C108.494 37.5121 106.958 38.8946 106.804 40.2771H113.256ZM117.096 47.497C115.56 49.3403 113.102 50.262 110.644 50.262C106.036 50.262 102.503 47.0361 102.503 42.1205C102.503 37.8193 105.421 33.979 110.03 33.979C114.331 33.979 117.403 37.6657 117.403 41.9669C117.403 42.4277 117.403 42.7349 117.25 43.1958H106.497C106.804 45.3464 108.494 46.8825 110.644 46.8825C112.488 46.8825 113.87 45.9608 114.638 45.0391L117.096 47.497ZM120.783 50.1084H124.93V27.22H120.783V50.1084ZM129.385 50.1084H133.533V27.22H129.385V50.1084ZM147.512 40.2771C147.358 38.8946 146.129 37.5121 144.439 37.5121C142.75 37.5121 141.213 38.8946 141.06 40.2771C141.06 40.2771 147.512 40.2771 147.512 40.2771ZM151.506 47.497C149.969 49.3403 147.512 50.262 145.054 50.262C140.445 50.262 136.912 47.0361 136.912 42.1205C136.912 37.8193 139.831 33.979 144.439 33.979C148.74 33.979 151.813 37.6657 151.813 41.9669C151.813 42.4277 151.813 42.7349 151.659 43.1958H140.906C141.213 45.3464 142.903 46.8825 145.054 46.8825C146.897 46.8825 148.28 45.9608 149.048 45.0391L151.506 47.497ZM164.716 38.1265C164.409 37.9729 163.795 37.9729 163.18 37.9729C161.337 37.9729 159.954 39.3554 159.34 40.2771V50.1084H155.192V34.4398H159.186V35.9759C160.108 34.747 161.798 34.1326 163.641 34.1326C164.255 34.1326 164.563 34.1326 165.024 34.2862L164.716 38.1265ZM167.789 50.1084H171.936V34.4398H167.789V50.1084ZM169.939 26.2983C171.475 26.2983 172.704 27.5272 172.704 28.9097C172.704 30.4458 171.475 31.5211 169.939 31.5211C168.403 31.5211 167.174 30.2922 167.174 28.9097C167.174 27.5272 168.403 26.2983 169.939 26.2983ZM185.761 40.2771C185.608 38.8946 184.379 37.5121 182.689 37.5121C180.999 37.5121 179.463 38.8946 179.31 40.2771H185.761ZM189.755 47.497C188.219 49.3403 185.761 50.262 183.304 50.262C178.695 50.262 175.162 47.0361 175.162 42.1205C175.162 37.8193 178.081 33.979 182.689 33.979C186.99 33.979 190.063 37.6657 190.063 41.9669C190.063 42.4277 190.063 42.7349 189.909 43.1958H179.156C179.463 45.3464 181.153 46.8825 183.304 46.8825C185.147 46.8825 186.529 45.9608 187.298 45.0391L189.755 47.497ZM194.978 44.1175C196.207 45.5 198.204 46.5753 200.201 46.5753C202.198 46.5753 203.427 45.3464 203.427 43.8102C203.427 40.8916 199.279 40.5843 196.207 38.741C194.364 37.6657 192.981 36.1296 192.981 33.6717C192.981 29.6778 196.668 27.3736 200.355 27.3736C202.659 27.3736 204.809 27.988 206.806 29.5242L204.502 32.7501C203.581 31.982 202.044 31.2139 200.662 31.2139C198.972 31.2139 197.129 31.982 197.129 33.6717C197.129 37.3585 207.575 36.1296 207.575 43.8102C207.575 47.8042 204.041 50.5692 199.894 50.5692C196.822 50.5692 194.057 49.3403 191.752 47.1897L194.978 44.1175ZM225.855 34.4398V49.9548H221.861V48.7259C220.632 49.8012 219.096 50.262 217.713 50.262C215.716 50.262 213.719 49.3403 212.49 47.8042C211.568 46.5753 210.954 45.0391 210.954 42.5813V34.4398H215.102V42.8886C215.102 44.2711 215.409 45.0391 215.87 45.5C216.484 46.268 217.406 46.4217 218.174 46.4217C219.864 46.4217 221.246 45.1928 221.861 44.4247V34.4398H225.855ZM230.309 50.1084H234.457V34.4398H230.309V50.1084ZM232.46 26.2983C233.996 26.2983 235.225 27.5272 235.225 28.9097C235.225 30.4458 233.996 31.5211 232.46 31.5211C230.924 31.5211 229.695 30.4458 229.695 28.9097C229.695 27.3736 230.924 26.2983 232.46 26.2983ZM239.373 45.3464C240.448 46.2681 242.138 46.8825 243.674 46.8825C244.749 46.8825 245.671 46.268 245.671 45.5C245.671 43.1958 238.144 43.9638 238.144 39.0482C238.144 36.1296 241.062 34.1326 244.135 34.1326C246.132 34.1326 248.436 34.9006 249.357 35.6687L247.36 38.741C246.592 38.1265 245.517 37.6657 244.442 37.6657C243.213 37.6657 242.291 38.1265 242.291 38.8946C242.291 40.8916 249.818 40.1235 249.818 45.5C249.818 48.5723 246.9 50.262 243.674 50.262C241.523 50.262 239.219 49.4939 237.376 48.1114L239.373 45.3464ZM253.812 45.3464C254.888 46.2681 256.577 46.8825 258.113 46.8825C259.189 46.8825 260.11 46.268 260.11 45.5C260.11 43.1958 252.583 43.9638 252.583 39.0482C252.583 36.1296 255.502 34.1326 258.574 34.1326C260.571 34.1326 262.875 34.9006 263.797 35.6687L261.8 38.741C261.032 38.1265 259.957 37.6657 258.881 37.6657C257.653 37.6657 256.731 38.1265 256.731 38.8946C256.731 40.8916 264.258 40.1235 264.258 45.5C264.258 48.5723 261.339 50.262 258.113 50.262C255.963 50.262 253.659 49.4939 251.815 48.1114L253.812 45.3464ZM277.161 40.2771C277.008 38.8946 275.779 37.5121 274.089 37.5121C272.399 37.5121 270.863 38.8946 270.71 40.2771H277.161ZM281.002 47.497C279.466 49.3403 277.008 50.262 274.55 50.262C269.942 50.262 266.409 47.0361 266.409 42.1205C266.409 37.8193 269.327 33.979 273.936 33.979C278.237 33.979 281.309 37.6657 281.309 41.9669C281.309 42.4277 281.309 42.7349 281.155 43.1958H270.402C270.556 45.3464 272.399 46.8825 274.55 46.8825C276.24 46.8825 277.776 45.9608 278.544 45.0391L281.002 47.497Z" fill="white"/>
</svg>
