<?xml version="1.0" encoding="utf-8"?>
<!-- Generator: Adobe Illustrator 25.2.1, SVG Export Plug-In . SVG Version: 6.00 Build 0)  -->
<svg version="1.1" id="Ebene_1" xmlns="http://www.w3.org/2000/svg" xmlns:xlink="http://www.w3.org/1999/xlink" x="0px" y="0px"
	 viewBox="0 0 566.9 175.8" style="enable-background:new 0 0 566.9 175.8;" xml:space="preserve">
<style type="text/css">
	.st0{fill:#FFFFFF;}
	.st1{fill:#EA2026;}
</style>
<path class="st0" d="M283.1,123.9h-0.3l-0.2-0.3c-2.7-3.4-4.1-7.8-5.9-11.7c-0.3,0-0.6,0-0.9,0c-0.9,0-1.9,0-2.6-0.7l-0.2-0.2v-4.1
	c-0.1,0-0.2,0-0.4,0c-0.5,0-1.2,0.1-1.9,0.1c-0.2,0-0.5,0-0.8-0.1l-0.7-0.2l0.2-0.7c1.1-3.5,1.7-5.8,1.7-8.2c0-2.3-0.5-4.6-1.6-7.7
	c-1.4-2.8-7.3-2.1-11.3-3.6c-3.8,2.9-11.3,4.6-11,8.5c0,1.1,0.5,2.5,1.9,4.3l0.5,0.7l-0.7,0.4c-3.2,1.6-5.7,6.6-11.1,6.7
	c-1.1,0-2.2-0.2-3.4-0.6l-0.4-0.1l-0.1-0.4c-0.1-0.3-0.1-0.6-0.1-0.9c0.2-4.9,6.5-7.5,7.5-12.5c-1.6-1.5-2.5-3.4-2.5-5.2
	c0-2,1-3.9,2.9-5.3c-0.4-1.1-0.7-2.3-0.8-3.7l0-0.4l0.4-0.2c4.9-2.5,8.6-6.5,13.6-9.3c0-0.5,0-0.9,0-1.4c0-1.7-0.1-3.6-0.1-5.4
	c0-2.8,0.2-5.5,1.7-7.2l0.2-0.2h3.6c8-5.7,13.8-13.6,19.5-21.8c-1.7-0.4-2.8-1.2-4.4-1.3l-0.8-0.1l0.1-0.8c0.6-3,3.8-6.8,9.3-6.8
	c0.8,0,1.6,0.1,2.5,0.3l0.6,0.1v3.1c1.2,0.4,2.3,0.5,3.3,0.5c3.5,0,5.7-1.9,7.9-4c2.1-2,3.9-4.3,6.7-4.4c1.4,0,2.9,0.6,4.5,2.1
	c1.2-0.7,1.8-2.8,4.3-3.4l0.2,0l0.2,0.1c2.6,1,3.8,1.7,5.7,1.7c0.6,0,1.2-0.1,1.9-0.2c2-0.3,3.2-2.9,5.5-3.5
	c0.4-0.1,0.8-0.1,1.2-0.1c3.1,0,6.7,1.5,10,1.6l0,1.4c-3.6-0.1-7.4-1.7-10-1.6c-0.4,0-0.7,0-1,0.1c-1.3,0.1-2.7,2.9-5.5,3.5
	c-0.8,0.2-1.6,0.2-2.2,0.2c-2.2,0-3.6-0.8-6-1.7c-1.6,0.3-2,2.3-4.1,3.4l-0.4,0.2l-0.3-0.3c-1.7-1.5-2.9-2-4-2c-1.9,0-3.6,1.8-5.7,4
	c-2.1,2.1-4.8,4.4-8.8,4.4c-1.3,0-2.7-0.2-4.2-0.8l-0.5-0.2v-2.9c-0.6-0.1-1.2-0.1-1.7-0.1c-4.4,0-6.9,2.7-7.7,5
	c1.9,0.4,3,1.3,4.7,1.4l1.2,0.1l-0.7,1c-5.9,8.6-12.1,17-20.6,23.1l-0.2,0.1h-3.4c-0.9,1.2-1.2,3.5-1.2,6.1c0,1.7,0.1,3.6,0.1,5.4
	c0,0.6,0,1.2-0.1,1.8l0,0.4l-0.3,0.2c-4.8,2.6-8.5,6.5-13.6,9.3c0.2,1.3,0.5,2.3,0.9,3.3l0.2,0.5l-0.5,0.3c-1.9,1.1-2.7,2.8-2.7,4.4
	c0,1.5,0.7,3.2,2.3,4.5l0.3,0.2l-0.1,0.4c-1.2,6.1-7.7,9-7.5,12.6c0,0.1,0,0.2,0,0.2c0.9,0.3,1.8,0.4,2.5,0.4
	c4.2,0.1,6.4-3.9,9.8-6.1c-1.2-1.7-1.8-3.2-1.8-4.5c0.2-5.7,8.8-6.9,11.8-9.8l0.3-0.3l0.4,0.2c3.3,1.6,9.9,0.3,12.4,4.4
	c1.2,3.3,1.8,5.8,1.8,8.3c0,2.4-0.5,4.7-1.5,7.8c0.4,0,1-0.1,1.5-0.1c0.6,0,1.5,0.2,1.7,1.1l0,0.1v3.7c0.3,0.1,0.8,0.2,1.4,0.2
	c0.4,0,0.9,0,1.4,0h0.4l0.2,0.4c1.9,4,3.3,8.4,5.7,11.6c3.3-0.1,4.4-2.7,8.1-3.5c0,0,0.1,0,0.1,0c1.1,0,1.8,0.7,2.1,1.2
	c0.3,0.4,0.5,0.6,0.7,0.8c2.7-2,5.4-4,8.8-5.3l0.3-0.1l0.3,0.1c3.4,1.5,6.4,3.2,11,3.4c0-0.1,0-0.2,0-0.4c0-1.5,0.4-2.6,1.3-3.4
	l0.2-0.2l0.3,0.1c0.2,0,0.4,0.1,0.5,0.1c0.8,0.1,1.2-0.6,2.7-0.6c0.1,0,0.1,0,0.2,0c0.8-2,1.7-3.8,2.3-5.9l0.1-0.5l0.5,0
	c2.6-0.2,3.9-1.3,4.8-3.2c-1.3-1.6-1.9-3.7-2.8-5.3l-0.3-0.4l0.3-0.4c4.2-4.6,8.6-9,13.2-13.2l0.9,1c-4.4,4.1-8.7,8.3-12.7,12.7
	c1,1.8,1.6,3.7,2.7,4.9l0.3,0.3l-0.1,0.4c-0.8,2.4-2.7,4.1-5.6,4.4c-0.7,2.2-1.6,4.1-2.4,6.1L321,116l-0.6-0.1
	c-0.2,0-0.4-0.1-0.5-0.1c-0.8,0-1.3,0.6-2.7,0.6c-0.1,0-0.3,0-0.4,0c-0.4,0.5-0.6,1.2-0.6,2.2c0,0.3,0,0.6,0.1,1l0.1,0.8l-0.8,0
	c-5.2-0.1-8.6-1.9-12-3.4c-3.2,1.3-5.9,3.3-8.6,5.3l-0.3,0.2l-0.3-0.1c-1-0.2-1.4-1-1.7-1.4c-0.4-0.4-0.5-0.6-1-0.6c0,0,0,0,0,0
	C288.7,120.8,287.5,123.8,283.1,123.9L283.1,123.9z M272.9,106.9L272.9,106.9L272.9,106.9z"/>
<path class="st0" d="M377.5,96.6c4.7,3.2,9.1,6.8,15.6,8.2c-0.9,1.6-2.6,2.3-3.5,3.9c2.5,2.6,7.3,2.8,6.1,9.1c3.5,0.4,5.4-0.7,6.1-3
	c-1-1.9-3.3-2.5-3.9-4.8c2.1-6,7.3-8.9,9.5-14.7V82.8c9.7-1.8,7.3,10,12.6,10.8c5.2,0.8,6.1-7.3,13.8-5.2c0.5,3.5,3.5,8.2,7.4,5.6
	c0.2-2.5-2.5-2.2-2.6-4.3c0.6-1.1,1.1-2.3,1.7-3.5c-1.3-0.8-3.2-1.1-3.9-2.6c-1-5.8,2.3-7.3,4.8-9.5c2.4,2.5,5.1,4.6,10.4,4.3v-4.3
	c-0.9-0.7-2.7-0.5-3-1.7c1.2-4.2,1.6-9.1,3-13c-0.7-1.8-2-2.9-3.5-3.9c-1.5,1-2.1,2.8-5.2,2.2c-0.3,3-1.9,4.7-3.9,6.1
	c-2.2-2.2-5.3-3.7-9.5-3.9v-5.6c-3.5-0.7-7.6-0.8-10.4-2.1c-0.7-3.8-1.8-7.2-2.6-10.8c1.5-2.2,3.2-4.3,4.3-6.9
	c-3.2-5.1-7.5-11-14.3-12.5c-3-0.7-5.9,0.2-8.7-1.7c-1.6,0.5-3.2,1.1-4.7,1.7c-2.3-0.7-4.1-5.7-7.4-6.5c-4.6-1.2-9.3,0.6-9.5,5.6
	c1.2,2.1,4.5-0.3,5.6,2.2c-1.8,2-3.9,2.4-6.2,2.2V85"/>
<rect x="295.8" y="55.6" class="st1" width="18" height="18"/>
<polygon class="st0" points="311.5,62.5 306.9,62.5 306.9,58 302.6,58 302.6,62.5 298.1,62.5 298.1,66.8 302.6,66.8 302.6,71.3 
	306.9,71.3 306.9,66.8 311.5,66.8 "/>
<path class="st0" d="M22.3,146.3c-0.5-1-1.2-1.8-2-2.4c-0.8-0.6-1.8-1.1-2.9-1.4c-1.1-0.3-2.3-0.4-3.5-0.4c-1,0-1.9,0.1-2.9,0.3
	c-1,0.2-1.9,0.5-2.7,1c-0.8,0.5-1.5,1.1-2,1.9c-0.5,0.8-0.8,1.7-0.8,2.9c0,1,0.2,1.8,0.7,2.4c0.5,0.7,1.1,1.2,1.8,1.7
	c0.7,0.4,1.5,0.8,2.4,1.1c0.9,0.3,1.7,0.5,2.4,0.7l5.7,1.3c1.2,0.2,2.4,0.5,3.7,1c1.2,0.5,2.3,1.1,3.2,1.9c0.9,0.8,1.7,1.7,2.3,2.9
	c0.6,1.1,0.9,2.5,0.9,4c0,1.9-0.4,3.6-1.3,4.9c-0.9,1.3-2,2.4-3.3,3.3c-1.3,0.8-2.9,1.5-4.5,1.8c-1.7,0.4-3.4,0.6-5,0.6
	c-4.2,0-7.5-1-10.1-2.9c-2.6-2-4-5.1-4.4-9.4h4.3c0.2,2.9,1.2,5.1,3.2,6.6c1.9,1.5,4.4,2.2,7.2,2.2c1,0,2.1-0.1,3.2-0.3
	c1.1-0.2,2.2-0.6,3.1-1.2c1-0.6,1.7-1.2,2.4-2.1c0.6-0.8,0.9-1.9,0.9-3.1c0-1-0.2-1.9-0.6-2.6c-0.4-0.7-1-1.3-1.8-1.8
	c-0.7-0.5-1.6-0.9-2.5-1.2c-0.9-0.3-1.9-0.6-2.8-0.8l-5.5-1.2c-1.4-0.4-2.7-0.8-3.9-1.3c-1.2-0.5-2.2-1.1-3.1-1.8
	c-0.9-0.7-1.6-1.6-2.1-2.6c-0.5-1-0.8-2.3-0.8-3.8c0-1.8,0.4-3.3,1.2-4.6c0.8-1.3,1.8-2.3,3.1-3.1c1.3-0.8,2.7-1.3,4.3-1.7
	c1.6-0.4,3.1-0.5,4.7-0.5c1.8,0,3.4,0.2,5,0.7c1.5,0.4,2.9,1.2,4,2.1c1.2,1,2.1,2.1,2.8,3.6c0.7,1.4,1.1,3.1,1.2,5h-4.3
	C23.1,148.5,22.8,147.3,22.3,146.3"/>
<polygon class="st0" points="44.8,139.4 53.9,169.7 54,169.7 62.6,139.4 67.5,139.4 76.1,169.7 76.2,169.7 85.3,139.4 89.9,139.4 
	78.5,174.8 73.8,174.8 65.1,145.1 64.9,145.1 56.3,174.8 51.6,174.8 40.2,139.4 "/>
<path class="st0" d="M107.8,132.8h-4.3v-6.9h4.3V132.8z M107.8,174.8h-4.3v-35.3h4.3V174.8z"/>
<path class="st0" d="M145.3,146.3c-0.5-1-1.2-1.8-2-2.4c-0.8-0.6-1.8-1.1-2.9-1.4c-1.1-0.3-2.3-0.4-3.5-0.4c-1,0-1.9,0.1-2.9,0.3
	c-1,0.2-1.9,0.5-2.7,1c-0.8,0.5-1.5,1.1-2,1.9c-0.5,0.8-0.8,1.7-0.8,2.9c0,1,0.2,1.8,0.7,2.4c0.5,0.7,1.1,1.2,1.8,1.7
	c0.7,0.4,1.5,0.8,2.4,1.1c0.9,0.3,1.7,0.5,2.4,0.7l5.7,1.3c1.2,0.2,2.5,0.5,3.7,1c1.2,0.5,2.3,1.1,3.2,1.9c0.9,0.8,1.7,1.7,2.3,2.9
	c0.6,1.1,0.9,2.5,0.9,4c0,1.9-0.4,3.6-1.3,4.9c-0.9,1.3-2,2.4-3.3,3.3c-1.3,0.8-2.9,1.5-4.5,1.8c-1.7,0.4-3.4,0.6-5,0.6
	c-4.2,0-7.5-1-10.1-2.9c-2.6-2-4.1-5.1-4.4-9.4h4.3c0.2,2.9,1.2,5.1,3.2,6.6c1.9,1.5,4.3,2.2,7.2,2.2c1,0,2.1-0.1,3.2-0.3
	c1.1-0.2,2.2-0.6,3.1-1.2c1-0.6,1.7-1.2,2.4-2.1c0.6-0.8,0.9-1.9,0.9-3.1c0-1-0.2-1.9-0.6-2.6c-0.4-0.7-1-1.3-1.8-1.8
	c-0.7-0.5-1.6-0.9-2.5-1.2c-0.9-0.3-1.9-0.6-2.8-0.8l-5.5-1.2c-1.4-0.4-2.7-0.8-3.9-1.3c-1.2-0.5-2.2-1.1-3.1-1.8
	c-0.9-0.7-1.6-1.6-2.1-2.6c-0.5-1-0.7-2.3-0.7-3.8c0-1.8,0.4-3.3,1.2-4.6c0.8-1.3,1.8-2.3,3.1-3.1c1.3-0.8,2.7-1.3,4.3-1.7
	c1.6-0.4,3.1-0.5,4.7-0.5c1.8,0,3.4,0.2,5,0.7c1.5,0.4,2.9,1.2,4,2.1c1.2,1,2.1,2.1,2.8,3.6c0.7,1.4,1.1,3.1,1.2,5h-4.3
	C146.1,148.5,145.8,147.3,145.3,146.3"/>
<path class="st0" d="M187.1,146.3c-0.5-1-1.2-1.8-2-2.4c-0.9-0.6-1.8-1.1-2.9-1.4c-1.1-0.3-2.3-0.4-3.5-0.4c-0.9,0-1.9,0.1-2.9,0.3
	c-1,0.2-1.9,0.5-2.7,1c-0.8,0.5-1.5,1.1-2,1.9c-0.5,0.8-0.8,1.7-0.8,2.9c0,1,0.2,1.8,0.7,2.4c0.5,0.7,1.1,1.2,1.8,1.7
	c0.7,0.4,1.5,0.8,2.4,1.1c0.9,0.3,1.6,0.5,2.4,0.7l5.8,1.3c1.2,0.2,2.4,0.5,3.7,1c1.2,0.5,2.3,1.1,3.2,1.9c0.9,0.8,1.7,1.7,2.3,2.9
	c0.6,1.1,0.9,2.5,0.9,4c0,1.9-0.4,3.6-1.3,4.9c-0.9,1.3-2,2.4-3.3,3.3c-1.3,0.8-2.9,1.5-4.5,1.8c-1.7,0.4-3.3,0.6-5,0.6
	c-4.2,0-7.5-1-10.1-2.9c-2.6-2-4.1-5.1-4.4-9.4h4.3c0.2,2.9,1.2,5.1,3.2,6.6c1.9,1.5,4.3,2.2,7.2,2.2c1,0,2.1-0.1,3.2-0.3
	c1.1-0.2,2.2-0.6,3.1-1.2c0.9-0.6,1.7-1.2,2.4-2.1c0.6-0.8,0.9-1.9,0.9-3.1c0-1-0.2-1.9-0.6-2.6c-0.4-0.7-1-1.3-1.8-1.8
	c-0.7-0.5-1.6-0.9-2.5-1.2c-0.9-0.3-1.9-0.6-2.8-0.8l-5.5-1.2c-1.4-0.4-2.7-0.8-3.9-1.3c-1.2-0.5-2.2-1.1-3.1-1.8
	c-0.9-0.7-1.6-1.6-2.1-2.6c-0.5-1-0.8-2.3-0.8-3.8c0-1.8,0.4-3.3,1.2-4.6c0.8-1.3,1.8-2.3,3.1-3.1c1.3-0.8,2.7-1.3,4.3-1.7
	c1.6-0.4,3.1-0.5,4.7-0.5c1.8,0,3.4,0.2,5,0.7c1.5,0.4,2.9,1.2,4,2.1c1.2,1,2.1,2.1,2.8,3.6c0.7,1.4,1.1,3.1,1.2,5h-4.3
	C187.9,148.5,187.6,147.3,187.1,146.3"/>
<path class="st0" d="M225.2,150.2c0.7-2.2,1.7-4.2,3.1-5.8c1.3-1.7,3-3,5-4.1c2-1,4.2-1.5,6.8-1.5c2.6,0,4.8,0.5,6.8,1.5
	c2,1,3.6,2.4,5,4.1c1.3,1.7,2.3,3.6,3,5.8c0.7,2.2,1,4.5,1,7c0,2.4-0.3,4.7-1,6.9c-0.7,2.2-1.7,4.2-3,5.9c-1.4,1.7-3,3-5,4
	c-1.9,1-4.2,1.5-6.8,1.5c-2.5,0-4.8-0.5-6.8-1.5c-2-1-3.6-2.4-5-4c-1.3-1.7-2.4-3.6-3.1-5.9c-0.7-2.2-1-4.5-1-6.9
	C224.2,154.8,224.5,152.4,225.2,150.2 M226.5,163.6c0.6,2.1,1.5,3.9,2.8,5.4c1.2,1.6,2.8,2.8,4.6,3.8c1.8,0.9,3.9,1.4,6.3,1.4
	c2.3,0,4.4-0.5,6.2-1.4c1.8-0.9,3.3-2.2,4.5-3.8c1.2-1.6,2.2-3.4,2.8-5.4c0.6-2.1,0.9-4.2,0.9-6.4c0-2.2-0.3-4.3-0.9-6.4
	c-0.6-2.1-1.5-3.9-2.8-5.5c-1.2-1.6-2.7-2.8-4.5-3.8c-1.8-1-3.9-1.4-6.2-1.4c-2.4,0-4.4,0.5-6.3,1.4c-1.8,1-3.3,2.2-4.6,3.8
	c-1.2,1.6-2.1,3.4-2.8,5.5c-0.6,2-0.9,4.2-0.9,6.4C225.6,159.4,225.9,161.6,226.5,163.6"/>
<path class="st0" d="M297.3,168.1c-0.8,1.6-1.8,2.9-3,4c-1.2,1.1-2.7,1.9-4.4,2.5c-1.7,0.6-3.5,0.9-5.5,0.9c-2.5,0-4.7-0.5-6.7-1.4
	c-1.9-0.9-3.6-2.2-4.9-3.8c-1.3-1.6-2.3-3.4-3-5.6c-0.7-2.1-1-4.4-1-6.8c0-2.5,0.3-5,1-7.3c0.7-2.3,1.7-4.3,3-6.1
	c1.4-1.8,3.1-3.2,5.1-4.2c2.1-1,4.5-1.6,7.3-1.6c1.6,0,3.2,0.3,4.7,0.8c1.5,0.5,2.8,1.2,4,2.2c1.2,1,2.2,2.2,3,3.6
	c0.8,1.4,1.3,3.1,1.5,5h-1.4c-0.3-1.7-0.8-3.2-1.5-4.5c-0.7-1.3-1.6-2.3-2.7-3.1c-1.1-0.9-2.2-1.5-3.6-1.9c-1.3-0.4-2.7-0.6-4.2-0.6
	c-2.8,0-5.2,0.5-7.1,1.6c-1.9,1.1-3.5,2.5-4.7,4.2c-1.2,1.7-2,3.6-2.5,5.7c-0.5,2.1-0.8,4.2-0.8,6.3c0,2.2,0.3,4.2,0.9,6.2
	c0.6,2,1.5,3.7,2.7,5.2c1.2,1.5,2.7,2.7,4.4,3.6c1.8,0.9,3.8,1.3,6.2,1.3c1.7,0,3.4-0.3,4.9-0.8c1.5-0.5,2.8-1.3,4-2.3
	c1.2-1,2.1-2.2,2.9-3.6c0.7-1.4,1.2-3,1.3-4.8h1.4C298.6,164.8,298.1,166.5,297.3,168.1"/>
<path class="st0" d="M314.5,145.8c0.6-1.4,1.4-2.7,2.6-3.7s2.5-1.9,4.1-2.5c1.6-0.6,3.5-0.9,5.7-0.9c1.6,0,3,0.2,4.4,0.5
	c1.4,0.3,2.6,0.9,3.7,1.7c1,0.8,1.9,1.8,2.5,3.1c0.6,1.3,1,2.9,1,4.8v22.4c0,0.7,0.1,1.2,0.4,1.5c0.3,0.3,0.6,0.5,1.1,0.6
	c0.5,0.1,0.9,0.2,1.5,0.1c0.5,0,1-0.1,1.5-0.1v1.4h-2.1c-1,0-1.9-0.2-2.6-0.7s-1.1-1.4-1.1-2.7v-4.6H337c-0.4,1.1-0.9,2.2-1.8,3.3
	c-0.8,1.1-1.8,2-3,2.8c-1.2,0.8-2.6,1.5-4.1,1.9c-1.6,0.5-3.2,0.7-5.1,0.7c-3.6,0-6.4-0.8-8.6-2.4c-2.2-1.6-3.2-3.9-3.2-7.1
	c0-2.2,0.4-4,1.1-5.3c0.7-1.3,1.6-2.4,2.8-3.1c1.1-0.8,2.4-1.3,3.9-1.6c1.5-0.3,2.9-0.5,4.4-0.6c2.4-0.1,4.5-0.3,6.2-0.4
	c1.7-0.1,3.1-0.3,4.3-0.7c1.1-0.3,1.9-0.9,2.5-1.6c0.5-0.7,0.8-1.7,0.8-3c0-1.1-0.1-2.1-0.3-3.3c-0.2-1.1-0.6-2.2-1.3-3.1
	c-0.7-1-1.7-1.8-3.1-2.4c-1.4-0.6-3.2-0.9-5.5-0.9c-3.7,0-6.6,0.9-8.6,2.7c-2,1.8-3.2,4.3-3.4,7.6h-1.4
	C313.6,148.8,313.9,147.3,314.5,145.8 M337,154.1c-0.5,0.6-1.2,1.1-2.1,1.5c-1,0.3-2.1,0.6-3.3,0.8c-1.2,0.2-2.6,0.3-4,0.3
	c-1.4,0-2.8,0.1-4.2,0.2c-1.4,0.1-2.7,0.3-4,0.5c-1.3,0.3-2.5,0.7-3.5,1.4c-1,0.7-1.8,1.6-2.4,2.7c-0.6,1.2-0.9,2.7-0.9,4.6
	c0,1,0.2,2,0.5,3c0.3,1,0.9,1.9,1.8,2.6c0.8,0.8,1.9,1.4,3.2,1.8c1.3,0.5,2.9,0.7,4.8,0.7c2.3,0,4.3-0.4,6.1-1.2
	c1.8-0.8,3.3-1.8,4.5-3.1c1.2-1.2,2.1-2.7,2.8-4.3c0.6-1.6,0.9-3.3,0.9-5.1v-6.5H337z"/>
<path class="st0" d="M387.5,139.4v3.6h-7.2v23.8c0,1.4,0.2,2.5,0.6,3.3c0.4,0.8,1.3,1.2,2.9,1.3c1.2,0,2.5-0.1,3.7-0.2v3.6
	c-0.6,0-1.3,0-1.9,0.1c-0.6,0.1-1.3,0.1-1.9,0.1c-2.9,0-4.9-0.6-6-1.7c-1.1-1.1-1.7-3.2-1.6-6.2v-24.2h-6.2v-3.6h6.2v-10.6h4.3v10.6
	H387.5z"/>
<path class="st0" d="M406.6,139.4v8.3h0.1c1.1-2.9,2.8-5.1,5.1-6.6c2.3-1.5,5.1-2.3,8.3-2.1v4.3c-2-0.1-3.8,0.2-5.3,0.8
	c-1.6,0.6-3,1.5-4.2,2.6c-1.2,1.1-2.1,2.5-2.7,4.1c-0.6,1.6-1,3.3-1,5.2v18.8h-4.3v-35.3H406.6z"/>
<path class="st0" d="M434,144.9c0.7-1.5,1.7-2.7,3-3.7c1.2-1,2.7-1.7,4.4-2.1c1.7-0.5,3.6-0.7,5.6-0.7c1.6,0,3.1,0.1,4.7,0.4
	c1.5,0.3,2.9,0.8,4.2,1.7c1.2,0.8,2.2,2,3,3.5c0.8,1.5,1.2,3.4,1.2,5.8v18.8c0,1.7,0.9,2.6,2.5,2.6c0.5,0,1-0.1,1.4-0.3v3.6
	c-0.5,0.1-0.9,0.2-1.3,0.2c-0.4,0.1-0.9,0.1-1.5,0.1c-1.1,0-2-0.1-2.6-0.4c-0.7-0.3-1.2-0.7-1.5-1.3c-0.4-0.5-0.6-1.2-0.7-1.9
	c-0.1-0.8-0.2-1.6-0.2-2.5h-0.1c-0.8,1.1-1.6,2.2-2.4,3c-0.8,0.9-1.7,1.6-2.7,2.2c-1,0.6-2.1,1.1-3.3,1.4c-1.3,0.3-2.8,0.5-4.5,0.5
	c-1.6,0-3.2-0.2-4.6-0.6c-1.4-0.4-2.7-1-3.8-1.9c-1.1-0.8-1.9-1.9-2.5-3.2c-0.6-1.3-0.9-2.8-0.9-4.6c0-2.5,0.5-4.4,1.6-5.8
	c1.1-1.4,2.5-2.5,4.3-3.2c1.8-0.7,3.8-1.2,6.1-1.5c2.3-0.3,4.5-0.6,6.9-0.9c0.9-0.1,1.7-0.2,2.4-0.3c0.7-0.1,1.3-0.4,1.7-0.7
	c0.4-0.3,0.8-0.8,1.1-1.4c0.3-0.6,0.4-1.4,0.4-2.3c0-1.5-0.2-2.6-0.7-3.6c-0.5-0.9-1.2-1.7-2-2.2c-0.8-0.6-1.8-0.9-2.9-1.1
	c-1.1-0.2-2.3-0.3-3.6-0.3c-2.7,0-5,0.7-6.7,2c-1.7,1.3-2.6,3.4-2.7,6.3h-4.3C432.8,148.2,433.3,146.4,434,144.9 M455.6,155.5
	c-0.3,0.5-0.8,0.9-1.6,1.1c-0.8,0.2-1.5,0.4-2.1,0.5c-1.8,0.3-3.7,0.6-5.6,0.9c-1.9,0.2-3.7,0.6-5.3,1.1c-1.6,0.5-2.9,1.2-3.9,2.2
	c-1,0.9-1.5,2.3-1.5,4c0,1.1,0.2,2.1,0.7,2.9c0.4,0.8,1,1.6,1.7,2.2c0.7,0.6,1.6,1.1,2.5,1.4c1,0.3,1.9,0.5,2.9,0.5
	c1.6,0,3.2-0.2,4.7-0.8c1.5-0.5,2.8-1.2,3.9-2.2c1.1-1,2-2.1,2.7-3.5c0.7-1.4,1-2.9,1-4.7v-5.6H455.6z"/>
<polygon class="st0" points="478.4,139.4 489.4,170.4 489.6,170.4 500.5,139.4 505,139.4 491.8,174.8 487.2,174.8 473.6,139.4 "/>
<path class="st0" d="M521.3,163.1c0.4,1.7,1.1,3.2,2.1,4.5c1,1.3,2.2,2.4,3.6,3.3c1.5,0.9,3.2,1.3,5.3,1.3c3.1,0,5.6-0.8,7.4-2.5
	c1.8-1.6,3-3.8,3.7-6.6h4.3c-0.9,4-2.6,7.1-5,9.3c-2.4,2.2-5.9,3.3-10.4,3.3c-2.8,0-5.2-0.5-7.2-1.5c-2-1-3.7-2.3-5-4
	c-1.3-1.7-2.2-3.7-2.8-6c-0.6-2.3-0.9-4.6-0.9-7.1c0-2.3,0.3-4.6,0.9-6.8c0.6-2.2,1.6-4.2,2.8-6c1.3-1.8,2.9-3.2,5-4.2
	c2-1.1,4.5-1.6,7.2-1.6c2.8,0,5.2,0.6,7.3,1.7c2,1.1,3.6,2.6,4.9,4.5c1.3,1.9,2.2,4,2.7,6.4c0.5,2.4,0.8,4.8,0.7,7.3h-27.2
	C520.7,159.8,520.9,161.4,521.3,163.1 M542.6,149.9c-0.5-1.5-1.3-2.8-2.2-4c-1-1.2-2.1-2.1-3.5-2.8c-1.4-0.7-2.9-1.1-4.6-1.1
	c-1.8,0-3.4,0.4-4.7,1.1c-1.4,0.7-2.5,1.7-3.5,2.8c-1,1.1-1.7,2.5-2.3,4c-0.6,1.5-0.9,3.1-1.1,4.7h22.9
	C543.5,153,543.2,151.4,542.6,149.9"/>
<rect x="562.6" y="127" class="st0" width="4.3" height="48.9"/>
<rect x="208.2" y="125.8" class="st0" width="1" height="49"/>
<line class="st0" x1="355.9" y1="0" x2="355.9" y2="174.8"/>
<rect x="355.4" class="st0" width="1" height="174.8"/>
</svg>
