<?xml version="1.0" encoding="utf-8"?>
<!-- Generator: Adobe Illustrator 25.2.0, SVG Export Plug-In . SVG Version: 6.00 Build 0)  -->
<svg version="1.1" id="Layer_1" xmlns="http://www.w3.org/2000/svg" xmlns:xlink="http://www.w3.org/1999/xlink" x="0px" y="0px"
	 viewBox="0 0 500 500" style="enable-background:new 0 0 500 500;" xml:space="preserve">
<style type="text/css">
	.st0{fill:#72C383;}
	.st1{fill:#FEF6E5;}
	.st2{fill:#A7B4A9;}
	.st3{fill:#68796C;}
	.st4{fill:#7D9181;}
	.st5{fill:#81585C;}
	.st6{fill:#C8DDEA;}
	.st7{fill:#D4EFFC;}
	.st8{fill:#87819D;}
	.st9{fill:#A9A1C4;}
	.st10{fill:#D6D0E8;}
	.st11{fill:#6B6483;}
	.st12{fill:#48435A;}
	.st13{fill:#424242;}
	.st14{fill:#FFCF82;}
	.st15{fill:#5F5874;}
	.st16{fill:#EFB4A9;}
	.st17{fill:#EFE2C9;}
	.st18{fill:#FFFDFA;}
	.st19{fill:#E0E0E0;}
	.st20{fill:#B5465B;}
	.st21{fill:#F1617F;}
	.st22{fill:#F58765;}
	.st23{fill:#2C1913;}
	.st24{fill:#503126;}
	.st25{fill:#76A4BB;}
	.st26{fill:#D77254;}
	.st27{fill:#EA7C5A;}
	.st28{fill:#72D0F1;}
	.st29{fill:#E0B3A8;}
	.st30{fill:#CCCCCC;}
	.st31{fill:#B3B3B3;}
	.st32{fill:#595174;}
	.st33{fill:#8F88A6;}
	.st34{fill:#6C494C;}
	.st35{fill:#4E3537;}
	.st36{fill:#F04D4C;}
</style>
<rect class="st0" width="500" height="500"/>
<g>
	<g>
		<path class="st1" d="M74.8,387.2c-51-21.7-76.5-150.4-11.5-215.9s154.9-66.5,210.9-6.5s82.5,73.5,129.5,69c47-4.5,88,130,7,154.2
			L74.8,387.2z"/>
		<path class="st1" d="M342.8,132.3c-52.2-12.1-46.5,52.1-12,66.7C360.8,211.7,420.8,150.3,342.8,132.3z"/>
		<path class="st2" d="M439.8,388H68.3c-7.6,0-13.8,6.2-13.8,13.8v0.4h399.1v-0.4C453.6,394.1,447.4,388,439.8,388z"/>
	</g>
	<g>
		<g>
			<path class="st2" d="M206.9,178.2c-0.3,0-0.5,0-0.8,0c-0.2,0-0.3-0.2-0.3-0.4c0-0.2,0.2-0.3,0.4-0.3c1.4,0,2.8,0,4.2-0.2
				c0.2,0,0.4,0.1,0.4,0.3c0,0.2-0.1,0.4-0.3,0.4C209.2,178.1,208.1,178.2,206.9,178.2z M202,177.8
				C201.9,177.8,201.9,177.8,202,177.8c-1.5-0.2-2.8-0.5-4.2-0.9c-0.2-0.1-0.3-0.2-0.2-0.4c0.1-0.2,0.2-0.3,0.4-0.2
				c1.3,0.4,2.7,0.7,4.1,0.9c0.2,0,0.3,0.2,0.3,0.4C202.3,177.7,202.1,177.8,202,177.8z M214.5,177.3c-0.2,0-0.3-0.1-0.3-0.3
				c0-0.2,0.1-0.4,0.3-0.4c1.3-0.3,2.7-0.7,4-1.2c0.2-0.1,0.4,0,0.5,0.2c0.1,0.2,0,0.4-0.2,0.5C217.3,176.5,215.9,176.9,214.5,177.3
				C214.5,177.3,214.5,177.3,214.5,177.3z M193.9,175.4c0,0-0.1,0-0.1,0c-1.3-0.6-2.6-1.2-3.8-2c-0.2-0.1-0.2-0.3-0.1-0.5
				c0.1-0.2,0.3-0.2,0.5-0.1c1.2,0.7,2.4,1.4,3.7,1.9c0.2,0.1,0.3,0.3,0.2,0.5C194.2,175.3,194.1,175.4,193.9,175.4z M222.3,174.3
				c-0.1,0-0.2-0.1-0.3-0.2c-0.1-0.2,0-0.4,0.1-0.5c1.2-0.7,2.4-1.4,3.5-2.2c0.2-0.1,0.4-0.1,0.5,0.1c0.1,0.2,0.1,0.4-0.1,0.5
				c-1.1,0.8-2.3,1.6-3.6,2.3C222.4,174.3,222.3,174.3,222.3,174.3z M186.8,171c-0.1,0-0.2,0-0.2-0.1c-1.1-0.9-2.1-1.9-3.1-2.9
				c-0.1-0.1-0.1-0.4,0-0.5c0.1-0.1,0.4-0.1,0.5,0c1,1,2,1.9,3.1,2.8c0.2,0.1,0.2,0.3,0.1,0.5C187,171,186.9,171,186.8,171z
				 M229.1,169.3c-0.1,0-0.2,0-0.3-0.1c-0.1-0.1-0.1-0.4,0-0.5c1-1,1.9-2,2.8-3.1c0.1-0.2,0.3-0.2,0.5-0.1c0.2,0.1,0.2,0.3,0.1,0.5
				c-0.9,1.1-1.9,2.1-2.9,3.1C229.2,169.3,229.1,169.3,229.1,169.3z M181,165c-0.1,0-0.2,0-0.3-0.1c-0.8-1.1-1.6-2.3-2.3-3.6
				c-0.1-0.2,0-0.4,0.1-0.5c0.2-0.1,0.4,0,0.5,0.1c0.7,1.2,1.4,2.4,2.2,3.5c0.1,0.2,0.1,0.4-0.1,0.5C181.1,164.9,181.1,165,181,165z
				 M234.3,162.8c-0.1,0-0.1,0-0.2-0.1c-0.2-0.1-0.2-0.3-0.1-0.5c0.7-1.2,1.4-2.4,1.9-3.7c0.1-0.2,0.3-0.3,0.5-0.2
				c0.2,0.1,0.3,0.3,0.2,0.5c-0.6,1.3-1.2,2.6-2,3.8C234.6,162.7,234.4,162.8,234.3,162.8z M177,157.6c-0.1,0-0.3-0.1-0.3-0.2
				c-0.5-1.3-0.9-2.7-1.3-4.1c0-0.2,0.1-0.4,0.3-0.4c0.2,0,0.4,0.1,0.4,0.3c0.3,1.3,0.7,2.7,1.2,4c0.1,0.2,0,0.4-0.2,0.5
				C177.1,157.6,177,157.6,177,157.6z M175,149.5c-0.2,0-0.3-0.1-0.3-0.3c-0.1-1.1-0.2-2.3-0.2-3.4c0-0.3,0-0.6,0-0.8
				c0-0.2,0.2-0.4,0.4-0.3c0.2,0,0.3,0.2,0.3,0.4c0,0.3,0,0.5,0,0.8c0,1.1,0.1,2.2,0.2,3.3C175.4,149.3,175.3,149.4,175,149.5
				C175.1,149.5,175.1,149.5,175,149.5z M175.3,141.1C175.2,141.1,175.2,141.1,175.3,141.1c-0.2,0-0.4-0.2-0.3-0.4
				c0.2-1.4,0.5-2.8,0.9-4.1c0.1-0.2,0.2-0.3,0.4-0.2c0.2,0.1,0.3,0.2,0.2,0.4c-0.4,1.3-0.7,2.7-0.9,4.1
				C175.6,141,175.4,141.1,175.3,141.1z M177.6,133.1c0,0-0.1,0-0.1,0c-0.2-0.1-0.3-0.3-0.2-0.5c0.6-1.3,1.2-2.6,2-3.8
				c0.1-0.2,0.3-0.2,0.5-0.1c0.2,0.1,0.2,0.3,0.1,0.5c-0.7,1.2-1.4,2.4-1.9,3.7C177.9,133,177.8,133.1,177.6,133.1z M235.2,130.9
				c-0.1,0-0.2-0.1-0.3-0.2c-0.7-1.2-1.4-2.4-2.2-3.5c-0.1-0.2-0.1-0.4,0.1-0.5c0.2-0.1,0.4-0.1,0.5,0.1c0.8,1.1,1.6,2.4,2.3,3.6
				c0.1,0.2,0,0.4-0.1,0.5C235.3,130.8,235.2,130.9,235.2,130.9z M182,125.9c-0.1,0-0.2,0-0.2-0.1c-0.2-0.1-0.2-0.3-0.1-0.5
				c0.9-1.1,1.9-2.1,2.9-3.1c0.1-0.1,0.4-0.1,0.5,0c0.1,0.1,0.1,0.4,0,0.5c-1,1-2,2-2.8,3C182.2,125.9,182.1,125.9,182,125.9z
				 M230.2,124.1c-0.1,0-0.2,0-0.3-0.1c-0.9-1-2-2-3-2.8c-0.2-0.1-0.2-0.3-0.1-0.5c0.1-0.1,0.3-0.2,0.5-0.1c1.1,0.9,2.1,1.9,3.1,2.9
				c0.1,0.1,0.1,0.4,0,0.5C230.4,124,230.3,124.1,230.2,124.1z M188.1,120.1c-0.1,0-0.2,0-0.3-0.1c-0.1-0.2-0.1-0.4,0.1-0.5
				c1.1-0.8,2.3-1.6,3.6-2.3c0.2-0.1,0.4,0,0.5,0.1c0.1,0.2,0,0.4-0.1,0.5c-1.2,0.7-2.4,1.4-3.5,2.2
				C188.2,120.1,188.2,120.1,188.1,120.1z M223.7,118.8c-0.1,0-0.1,0-0.2-0.1c-1.2-0.7-2.4-1.4-3.7-1.9c-0.2-0.1-0.3-0.3-0.2-0.5
				c0.1-0.2,0.3-0.3,0.5-0.2c1.3,0.6,2.6,1.2,3.8,2c0.2,0.1,0.2,0.3,0.1,0.5C224,118.7,223.9,118.8,223.7,118.8z M195.5,116.2
				c-0.1,0-0.3-0.1-0.3-0.2c-0.1-0.2,0-0.4,0.2-0.5c1.3-0.5,2.7-0.9,4.1-1.3c0.2,0,0.4,0.1,0.4,0.3c0,0.2-0.1,0.4-0.3,0.4
				c-1.3,0.3-2.7,0.7-4,1.2C195.5,116.1,195.5,116.2,195.5,116.2z M216.1,115.4C216.1,115.4,216,115.4,216.1,115.4
				c-1.4-0.4-2.8-0.7-4.2-0.9c-0.2,0-0.3-0.2-0.3-0.4c0-0.2,0.2-0.3,0.4-0.3c1.4,0.2,2.8,0.5,4.1,0.9c0.2,0.1,0.3,0.3,0.2,0.4
				C216.4,115.3,216.2,115.4,216.1,115.4z M203.6,114.2c-0.2,0-0.3-0.1-0.3-0.3c0-0.2,0.1-0.4,0.3-0.4c1.4-0.1,2.8-0.2,4.2-0.2
				c0.2,0,0.3,0.2,0.3,0.4c0,0.2-0.2,0.3-0.4,0.3C206.4,114,205,114.1,203.6,114.2C203.6,114.2,203.6,114.2,203.6,114.2z"/>
		</g>
	</g>
	<g>
		<path class="st2" d="M260.6,149.9h-34.2l-0.1-0.4c-0.2-1.3,0.3-2.5,1.4-3.3c1.3-1,3.2-1.3,5-0.8c0.1-3.2,1.1-5.9,2.9-7.8
			c1.9-1.9,4.7-3,7.9-3c3.1,0,5.9,1,7.9,3c1.9,1.9,2.9,4.6,2.9,7.8c1.8-0.5,3.7-0.2,5,0.8c1,0.8,1.5,2,1.4,3.3L260.6,149.9z
			 M227.3,148.9h32.4c0-1-0.5-1.7-1-2c-1.2-0.9-3.1-1.1-4.7-0.4l-0.7,0.3l0-0.7c0.1-3.2-0.8-5.9-2.6-7.7c-1.7-1.8-4.3-2.7-7.2-2.7
			c-2.9,0-5.5,0.9-7.2,2.7c-1.8,1.8-2.7,4.5-2.6,7.7l0,0.7l-0.7-0.3c-1.6-0.6-3.6-0.5-4.7,0.4C227.8,147.3,227.3,147.9,227.3,148.9z
			"/>
	</g>
	<g>
		<g>
			<g>
				<path class="st2" d="M449.5,181.4c0.2,0,0.4-0.1,0.4-0.3c0-0.2-0.1-0.4-0.3-0.5c-0.8-0.1-1.6-0.3-2.4-0.4
					c-0.2,0-0.4,0.1-0.5,0.3c0,0.2,0.1,0.4,0.3,0.5C447.9,181.1,448.7,181.3,449.5,181.4C449.5,181.4,449.5,181.4,449.5,181.4z"/>
			</g>
		</g>
		<g>
			<g>
				<path class="st2" d="M426.4,182.6c0,0,0.1,0,0.1,0c0.8-0.2,1.6-0.4,2.3-0.6c0.2-0.1,0.4-0.3,0.3-0.5c-0.1-0.2-0.3-0.4-0.5-0.3
					c-0.8,0.2-1.6,0.4-2.4,0.6c-0.2,0.1-0.3,0.3-0.3,0.5C426.1,182.5,426.2,182.6,426.4,182.6z"/>
			</g>
			<g>
				<path class="st2" d="M439.8,284.1c-1.6,0-3.3-0.1-4.9-0.3c-0.2,0-0.4-0.2-0.4-0.4c0-0.2,0.2-0.4,0.4-0.4
					c1.6,0.2,3.2,0.3,4.9,0.3c0.2,0,0.4,0.2,0.4,0.4C440.2,283.9,440,284.1,439.8,284.1C439.8,284.1,439.8,284.1,439.8,284.1z
					 M444.3,283.6c0-0.2,0.1-0.4,0.4-0.4c1.6-0.1,3.2-0.3,4.8-0.6c0.2,0,0.4,0.1,0.5,0.3c0,0.2-0.1,0.4-0.3,0.5
					c-1.6,0.3-3.3,0.5-4.9,0.6c0,0,0,0,0,0C444.5,283.9,444.3,283.8,444.3,283.6z M430,283c-1.6-0.3-3.2-0.7-4.8-1.2
					c-0.2-0.1-0.3-0.3-0.3-0.5c0.1-0.2,0.3-0.3,0.5-0.3c1.5,0.5,3.1,0.9,4.7,1.2c0.2,0,0.4,0.3,0.3,0.5
					C430.4,282.9,430.2,283.1,430,283C430,283.1,430,283,430,283z M454,281.9c-0.1-0.2,0.1-0.4,0.3-0.5c1.6-0.4,3.1-0.9,4.6-1.5
					c0.2-0.1,0.4,0,0.5,0.2c0.1,0.2,0,0.4-0.2,0.5c-1.5,0.6-3.1,1.1-4.7,1.6c0,0-0.1,0-0.1,0C454.2,282.2,454,282.1,454,281.9z
					 M420.5,280.1c-1.5-0.6-3-1.3-4.5-2.1c-0.2-0.1-0.3-0.3-0.2-0.5c0.1-0.2,0.3-0.3,0.5-0.2c1.4,0.8,2.9,1.5,4.4,2.1
					c0.2,0.1,0.3,0.3,0.2,0.5c-0.1,0.2-0.2,0.2-0.4,0.2C420.6,280.2,420.5,280.2,420.5,280.1z M463.2,278.5c-0.1-0.2,0-0.4,0.2-0.5
					c1.4-0.7,2.9-1.5,4.3-2.4c0.2-0.1,0.4-0.1,0.6,0.1c0.1,0.2,0.1,0.4-0.1,0.6c-1.4,0.9-2.9,1.7-4.3,2.4c-0.1,0-0.1,0-0.2,0
					C463.4,278.7,463.3,278.6,463.2,278.5z M411.8,275.5c-1.4-0.9-2.7-1.9-4-2.9c-0.2-0.1-0.2-0.4-0.1-0.6c0.1-0.2,0.4-0.2,0.6-0.1
					c1.3,1,2.6,2,3.9,2.9c0.2,0.1,0.2,0.4,0.1,0.6c-0.1,0.1-0.2,0.2-0.3,0.2C411.9,275.5,411.8,275.5,411.8,275.5z M471.6,273.4
					c-0.1-0.2-0.1-0.4,0.1-0.6c1.3-1,2.5-2,3.7-3.1c0.2-0.2,0.4-0.1,0.6,0c0.2,0.2,0.1,0.4,0,0.6c-1.2,1.1-2.5,2.2-3.8,3.2
					c-0.1,0.1-0.2,0.1-0.2,0.1C471.8,273.5,471.7,273.5,471.6,273.4z M404.1,269.3c-1.2-1.2-2.3-2.4-3.4-3.6c-0.1-0.2-0.1-0.4,0-0.6
					c0.2-0.1,0.4-0.1,0.6,0c1,1.2,2.2,2.4,3.3,3.6c0.2,0.2,0.2,0.4,0,0.6c-0.1,0.1-0.2,0.1-0.3,0.1
					C404.2,269.4,404.1,269.3,404.1,269.3z M397.7,261.7c-0.9-1.4-1.8-2.8-2.6-4.2c-0.1-0.2,0-0.4,0.2-0.5c0.2-0.1,0.4,0,0.5,0.2
					c0.8,1.4,1.7,2.8,2.6,4.1c0.1,0.2,0.1,0.4-0.1,0.6c-0.1,0-0.2,0.1-0.2,0.1C397.9,261.9,397.7,261.8,397.7,261.7z M392.8,253.1
					c-0.7-1.5-1.3-3.1-1.8-4.6c-0.1-0.2,0-0.4,0.3-0.5c0.2-0.1,0.4,0,0.5,0.3c0.5,1.5,1.1,3.1,1.8,4.6c0.1,0.2,0,0.4-0.2,0.5
					c-0.1,0-0.1,0-0.2,0C393,253.3,392.9,253.2,392.8,253.1z M389.7,243.7c-0.4-1.6-0.7-3.2-0.9-4.9c0-0.2,0.1-0.4,0.3-0.5
					c0.2,0,0.4,0.1,0.5,0.3c0.2,1.6,0.5,3.2,0.9,4.8c0,0.2-0.1,0.4-0.3,0.5c0,0-0.1,0-0.1,0C389.9,244,389.7,243.9,389.7,243.7z
					 M388.4,233.9c0-0.6,0-1.3,0-1.9c0-1,0-2,0.1-3.1c0-0.2,0.2-0.4,0.4-0.4c0.2,0,0.4,0.2,0.4,0.4c-0.1,1-0.1,2-0.1,3
					c0,0.6,0,1.2,0,1.9c0,0.2-0.2,0.4-0.4,0.4c0,0,0,0,0,0C388.6,234.2,388.4,234.1,388.4,233.9z M389.3,224.4
					c-0.2,0-0.4-0.2-0.3-0.5c0.3-1.6,0.6-3.3,1-4.9c0.1-0.2,0.3-0.3,0.5-0.3c0.2,0.1,0.3,0.3,0.3,0.5c-0.4,1.6-0.7,3.2-1,4.8
					C389.7,224.3,389.6,224.4,389.3,224.4C389.4,224.4,389.3,224.4,389.3,224.4z M391.6,214.9c-0.2-0.1-0.3-0.3-0.2-0.5
					c0.6-1.5,1.2-3.1,1.9-4.6c0.1-0.2,0.3-0.3,0.5-0.2c0.2,0.1,0.3,0.3,0.2,0.5c-0.7,1.5-1.3,3-1.9,4.5c-0.1,0.2-0.2,0.3-0.4,0.3
					C391.7,214.9,391.7,214.9,391.6,214.9z M395.8,206c-0.2-0.1-0.3-0.4-0.1-0.6c0.8-1.4,1.8-2.8,2.7-4.1c0.1-0.2,0.4-0.2,0.6-0.1
					c0.2,0.1,0.2,0.4,0.1,0.6c-1,1.3-1.9,2.7-2.7,4.1c-0.1,0.1-0.2,0.2-0.3,0.2C395.9,206,395.8,206,395.8,206z M401.5,198
					c-0.2-0.1-0.2-0.4,0-0.6c1.1-1.2,2.3-2.4,3.5-3.6c0.2-0.2,0.4-0.1,0.6,0c0.2,0.2,0.1,0.4,0,0.6c-1.2,1.1-2.3,2.3-3.4,3.5
					c-0.1,0.1-0.2,0.1-0.3,0.1C401.7,198.1,401.6,198.1,401.5,198z M408.6,191.2c-0.1-0.2-0.1-0.4,0.1-0.6c1.3-1,2.7-2,4.1-2.8
					c0.2-0.1,0.4-0.1,0.6,0.1c0.1,0.2,0.1,0.4-0.1,0.6c-1.4,0.9-2.7,1.8-4,2.8c-0.1,0.1-0.2,0.1-0.2,0.1
					C408.8,191.4,408.7,191.3,408.6,191.2z M416.9,185.9c-0.1-0.2,0-0.4,0.2-0.5c1.5-0.7,3-1.4,4.5-2c0.2-0.1,0.4,0,0.5,0.2
					c0.1,0.2,0,0.4-0.2,0.5c-1.5,0.6-3,1.3-4.5,2c-0.1,0-0.1,0-0.2,0C417.1,186.1,416.9,186.1,416.9,185.9z"/>
			</g>
		</g>
		<g>
			<g>
				<path class="st2" d="M449.5,181.4c0.2,0,0.4-0.1,0.4-0.3c0-0.2-0.1-0.4-0.3-0.5c-0.8-0.1-1.6-0.3-2.4-0.4
					c-0.2,0-0.4,0.1-0.5,0.3c0,0.2,0.1,0.4,0.3,0.5C447.9,181.1,448.7,181.3,449.5,181.4C449.5,181.4,449.5,181.4,449.5,181.4z"/>
			</g>
		</g>
		<g>
			<path class="st2" d="M435.3,182.1l-6.4-4.6h7.9l2.4-7.5l2.4,7.5h7.9l-6.4,4.6l2.4,7.5l-6.4-4.6l-6.4,4.6L435.3,182.1z
				 M444.1,187.5l-1.9-5.7l4.9-3.5h-6l-1.9-5.7l-1.9,5.7h-6l4.9,3.5l-1.9,5.7l4.9-3.5L444.1,187.5z"/>
		</g>
	</g>
	<g>
		<g>
			<path class="st2" d="M99.5,189.1c-0.3,0-0.5-0.3-0.4-0.5c0-0.3,0.3-0.5,0.5-0.4c1.9,0.2,3.9,0.3,5.9,0.2c0.3,0,0.5,0.2,0.5,0.5
				c0,0.3-0.2,0.5-0.5,0.5c-0.4,0-0.8,0-1.1,0C102.7,189.3,101.1,189.3,99.5,189.1z M110.9,188.4c0-0.3,0.1-0.5,0.4-0.6
				c1.9-0.3,3.9-0.7,5.7-1.3c0.3-0.1,0.5,0.1,0.6,0.3c0.1,0.3-0.1,0.5-0.3,0.6c-1.9,0.6-3.9,1-5.8,1.3c0,0-0.1,0-0.1,0
				C111.1,188.8,110.9,188.6,110.9,188.4z M93.6,188.1c-1.9-0.5-3.9-1.1-5.7-1.8c-0.3-0.1-0.4-0.4-0.3-0.6c0.1-0.3,0.4-0.4,0.6-0.3
				c1.8,0.7,3.7,1.3,5.6,1.7c0.3,0.1,0.4,0.3,0.4,0.6c-0.1,0.2-0.3,0.4-0.5,0.4C93.7,188.1,93.6,188.1,93.6,188.1z M122.3,185.2
				c-0.1-0.2,0-0.5,0.3-0.7c1.8-0.8,3.5-1.7,5.2-2.7c0.2-0.1,0.5-0.1,0.7,0.2c0.1,0.2,0.1,0.5-0.2,0.7c-1.7,1-3.5,2-5.3,2.8
				c-0.1,0-0.1,0-0.2,0C122.5,185.5,122.4,185.4,122.3,185.2z M82.4,183.8c-1.7-1-3.4-2-5.1-3.2c-0.2-0.2-0.3-0.5-0.1-0.7
				c0.2-0.2,0.5-0.3,0.7-0.1c1.6,1.2,3.2,2.2,5,3.1c0.2,0.1,0.3,0.4,0.2,0.7c-0.1,0.2-0.3,0.3-0.4,0.3
				C82.6,183.8,82.5,183.8,82.4,183.8z M132.4,179.1c-0.2-0.2-0.1-0.5,0.1-0.7c1.5-1.2,3-2.6,4.3-4c0.2-0.2,0.5-0.2,0.7,0
				c0.2,0.2,0.2,0.5,0,0.7c-1.4,1.4-2.9,2.8-4.4,4.1c-0.1,0.1-0.2,0.1-0.3,0.1C132.7,179.3,132.5,179.2,132.4,179.1z M72.8,176.7
				c-1.4-1.4-2.8-2.9-4.1-4.4c-0.2-0.2-0.1-0.5,0.1-0.7c0.2-0.2,0.5-0.1,0.7,0.1c1.2,1.5,2.6,3,4,4.3c0.2,0.2,0.2,0.5,0,0.7
				c-0.1,0.1-0.2,0.2-0.4,0.2C73,176.9,72.9,176.8,72.8,176.7z M140.7,170.6c-0.2-0.2-0.3-0.5-0.1-0.7c1.1-1.6,2.2-3.2,3.1-5
				c0.1-0.2,0.4-0.3,0.7-0.2c0.2,0.1,0.3,0.4,0.2,0.7c-1,1.7-2,3.5-3.2,5.1c-0.1,0.1-0.2,0.2-0.4,0.2
				C140.9,170.7,140.8,170.7,140.7,170.6z M65.3,167.4c-1-1.7-2-3.5-2.8-5.3c-0.1-0.2,0-0.5,0.3-0.7c0.2-0.1,0.5,0,0.7,0.3
				c0.8,1.8,1.7,3.5,2.7,5.2c0.1,0.2,0.1,0.5-0.2,0.7c-0.1,0-0.2,0.1-0.3,0.1C65.5,167.6,65.3,167.6,65.3,167.4z M146.4,160.3
				c-0.3-0.1-0.4-0.4-0.3-0.6c0.7-1.8,1.3-3.7,1.7-5.6c0.1-0.3,0.3-0.4,0.6-0.4c0.3,0.1,0.4,0.3,0.4,0.6c-0.5,1.9-1.1,3.9-1.8,5.7
				c-0.1,0.2-0.3,0.3-0.5,0.3C146.6,160.3,146.5,160.3,146.4,160.3z M149.3,148.8c-0.3,0-0.5-0.3-0.4-0.5c0.2-1.5,0.2-3.1,0.2-4.7
				c0-0.4,0-0.8,0-1.2c0-0.3,0.2-0.5,0.5-0.5c0.3,0,0.5,0.2,0.5,0.5c0,0.4,0,0.8,0,1.2c0,1.6-0.1,3.2-0.2,4.8
				C149.8,148.6,149.6,148.8,149.3,148.8C149.4,148.8,149.3,148.8,149.3,148.8z M148.6,136.6c-0.3-1.9-0.7-3.9-1.3-5.7
				c-0.1-0.3,0.1-0.5,0.3-0.6c0.3-0.1,0.5,0.1,0.6,0.3c0.6,1.9,1,3.9,1.3,5.8c0,0.3-0.1,0.5-0.4,0.6c0,0-0.1,0-0.1,0
				C148.8,137,148.6,136.8,148.6,136.6z M145.3,125.3c-0.8-1.8-1.7-3.5-2.7-5.2c-0.1-0.2-0.1-0.5,0.2-0.7c0.2-0.1,0.5-0.1,0.7,0.2
				c1,1.7,2,3.5,2.8,5.3c0.1,0.2,0,0.5-0.3,0.7c-0.1,0-0.1,0-0.2,0C145.5,125.6,145.4,125.5,145.3,125.3z M64.3,122.5
				c-0.2-0.1-0.3-0.4-0.2-0.7c0.9-1.8,2-3.5,3.2-5.1c0.2-0.2,0.5-0.3,0.7-0.1c0.2,0.2,0.3,0.5,0.1,0.7c-1.1,1.6-2.2,3.3-3.1,5
				c-0.1,0.2-0.3,0.3-0.4,0.3C64.4,122.5,64.3,122.5,64.3,122.5z M139.1,115.4c-1.2-1.5-2.6-3-4-4.3c-0.2-0.2-0.2-0.5,0-0.7
				c0.2-0.2,0.5-0.2,0.7,0c1.4,1.4,2.8,2.9,4.1,4.4c0.2,0.2,0.1,0.5-0.1,0.7c-0.1,0.1-0.2,0.1-0.3,0.1
				C139.4,115.6,139.2,115.5,139.1,115.4z M71.1,112.8c-0.2-0.2-0.2-0.5,0-0.7c1.4-1.4,2.8-2.8,4.4-4.1c0.2-0.2,0.5-0.1,0.7,0.1
				c0.2,0.2,0.1,0.5-0.1,0.7c-1.5,1.2-3,2.6-4.3,4c-0.1,0.1-0.2,0.2-0.4,0.2C71.3,113,71.2,112.9,71.1,112.8z M130.6,107.3
				c-1.6-1.1-3.2-2.2-5-3.1c-0.2-0.1-0.3-0.4-0.2-0.7c0.1-0.2,0.4-0.3,0.7-0.2c1.7,1,3.5,2,5.1,3.2c0.2,0.2,0.3,0.5,0.1,0.7
				c-0.1,0.1-0.2,0.2-0.4,0.2C130.8,107.4,130.7,107.4,130.6,107.3z M80.2,105.3c-0.1-0.2-0.1-0.5,0.2-0.7c1.7-1,3.5-2,5.3-2.8
				c0.2-0.1,0.5,0,0.7,0.2c0.1,0.2,0,0.5-0.2,0.7c-1.8,0.8-3.5,1.7-5.2,2.7c-0.1,0-0.2,0.1-0.3,0.1
				C80.5,105.5,80.3,105.4,80.2,105.3z M120.4,101.7c-1.8-0.7-3.7-1.3-5.6-1.7c-0.3-0.1-0.4-0.3-0.4-0.6c0.1-0.3,0.3-0.4,0.6-0.4
				c1.9,0.5,3.9,1.1,5.7,1.8c0.3,0.1,0.4,0.4,0.3,0.6c-0.1,0.2-0.3,0.3-0.5,0.3C120.5,101.8,120.4,101.8,120.4,101.7z M91,100.3
				c-0.1-0.3,0.1-0.5,0.3-0.6c1.9-0.6,3.9-1,5.8-1.3c0.3,0,0.5,0.1,0.6,0.4c0,0.3-0.1,0.5-0.4,0.6c-1.9,0.3-3.9,0.7-5.7,1.3
				c0,0-0.1,0-0.1,0C91.2,100.7,91,100.5,91,100.3z M109,99c-1.9-0.2-3.9-0.3-5.9-0.2c-0.3,0-0.5-0.2-0.5-0.5c0-0.3,0.2-0.5,0.5-0.5
				c2-0.1,4,0,6,0.2c0.3,0,0.5,0.3,0.4,0.5C109.5,98.8,109.3,99,109,99C109,99,109,99,109,99z"/>
		</g>
	</g>
	<g>
		<g>
			<path class="st2" d="M59.4,155.7h14.9c3.7,0,6.6-3,6.6-6.6v-18.1c0-0.8-0.6-1.4-1.4-1.4v0.5c0.5,0,0.9,0.4,0.9,0.9v18.1
				c0,3.3-2.7,6.1-6.1,6.1H59.4c-0.5,0-0.9-0.4-0.9-0.9v-1.2H58v1.2C58,155.1,58.6,155.7,59.4,155.7z"/>
		</g>
		<g>
			<path class="st2" d="M59.1,139.8c0-5.6,4.5-10.1,10.1-10.1h10.5v13.7c0,5.6-4.5,10.1-10.1,10.1H59.1V139.8z M69.3,130.2
				c-5.3,0-9.6,4.3-9.6,9.6v13.1h10c5.3,0,9.6-4.3,9.6-9.6v-13.1H69.3z"/>
		</g>
		<g>
			<path class="st2" d="M44.4,155.7h14.9c0.8,0,1.4-0.6,1.4-1.4v-1.2h-0.5v1.2c0,0.5-0.4,0.9-0.9,0.9H44.4c-3.3,0-6.1-2.7-6.1-6.1
				v-18.1c0-0.5,0.4-0.9,0.9-0.9v-0.5c-0.8,0-1.4,0.6-1.4,1.4v18.1C37.8,152.8,40.7,155.7,44.4,155.7z"/>
		</g>
		<g>
			<path class="st2" d="M38.9,143.3v-13.7h10.5c5.6,0,10.1,4.5,10.1,10.1v13.7H49.1C43.5,153.4,38.9,148.9,38.9,143.3z M59,139.8
				c0-5.3-4.3-9.6-9.6-9.6h-10v13.1c0,5.3,4.3,9.6,9.6,9.6h10V139.8z"/>
		</g>
	</g>
	<g>
		<path class="st3" d="M395.1,378.5c33.4-31.1,95.5-36.4,95.5-36.4c-7.7,3-9.2,7-12.2,11.7c-3.1,4.8-11.7,1.3-16.1,0.2
			s-3.3,17.3-10.4,20.5s-12.8-6.6-18-1.7c-5.2,4.9-6.6,16-15.1,13.4c-8.5-2.6-9.8-6.1-13.9-0.9c-4.2,5.2-11.1-0.3-16.5-0.9
			C383.1,383.7,395.1,378.5,395.1,378.5z"/>
		<path class="st2" d="M406,366.1c23.4-39.2,81.5-61.6,81.5-61.6c-6.6,5-6.9,9.2-8.5,14.7c-1.6,5.4-10.9,4.5-15.4,4.7
			c-4.5,0.2,1.7,17.5-4.2,22.6c-5.9,5.1-14.1-2.8-17.8,3.4c-3.7,6.1-1.8,17.2-10.7,17s-11.1-3.1-13.6,3c-2.6,6.1-10.7,2.8-16,3.8
			C395.8,374.5,406,366.1,406,366.1z"/>
		<path class="st4" d="M408.2,363.7c10-58.7,68.5-113.2,68.5-113.2c-5.5,9.2-3.9,14.5-3.4,21.9c0.5,7.4-10.8,10.5-16.1,12.9
			s4.2,14.7-0.5,23.7c-4.7,9-17.9,3.2-19.5,12.4c-1.6,9.2,5.5,21.9-5,25.8c-10.5,3.9-14.5,1.3-14.7,10c-0.3,8.7-5.8,14.2-11.6,17.9
			C400.1,378.7,408.2,363.7,408.2,363.7z"/>
		<path class="st3" d="M407.7,358.7c-5.1-35.4,19.2-77.9,19.2-77.9c-1.5,6.3,0.4,9,2.1,13.1c1.7,4.1-4.4,8.1-7.1,10.5
			c-2.7,2.4,9.7,9.8,8.6,15.8c-1.1,6-10,5.3-9.2,10.8c0.8,5.6,7.4,11.4,1.9,15.7c-5.5,4.3-8.3,3.6-6.8,8.6c1.5,5-5.2,7-7.9,10.2
			C405.7,368.9,407.7,358.7,407.7,358.7z"/>
	</g>
	<path class="st4" d="M104.4,282.2c-31.7-29.5-90.6-34.6-90.6-34.6c7.4,2.8,8.7,6.6,11.6,11.1s11.1,1.2,15.3,0.2
		c4.2-1,3.1,16.4,9.8,19.4c6.8,3,12.1-6.3,17.1-1.7c5,4.6,6.2,15.2,14.3,12.7s9.3-5.8,13.2-0.9c4,4.9,10.5-0.3,15.6-0.8
		C115.9,287.2,104.4,282.2,104.4,282.2z"/>
	<path class="st3" d="M94.1,270.4c-22.2-37.2-77.4-58.5-77.4-58.5c6.3,4.8,6.5,8.8,8,13.9c1.5,5.1,10.3,4.3,14.6,4.5
		c4.3,0.2-1.6,16.6,4,21.4c5.6,4.8,13.4-2.6,16.9,3.2c3.5,5.8,1.7,16.3,10.2,16.2c8.4-0.1,10.5-3,13,2.8c2.4,5.8,10.2,2.6,15.2,3.6
		C103.7,278.4,94.1,270.4,94.1,270.4z"/>
	<path class="st4" d="M92,268.1c-9.5-55.7-65-107.5-65-107.5c5.2,8.7,3.7,13.7,3.2,20.7c-0.5,7,10.2,10,15.2,12.2
		c5,2.2-4,14,0.5,22.5c4.5,8.5,17,3,18.5,11.7c1.5,8.7-5.2,20.7,4.7,24.5c10,3.7,13.7,1.2,14,9.5c0.2,8.2,5.5,13.5,11,17
		C99.7,282.4,92,268.1,92,268.1z"/>
	<path class="st2" d="M92.5,263.5c4.9-33.6-18.2-73.9-18.2-73.9c1.5,6-0.4,8.6-2,12.5c-1.6,3.9,4.2,7.7,6.7,9.9
		c2.5,2.3-9.2,9.3-8.1,15c1.1,5.7,9.5,5,8.7,10.3c-0.8,5.3-7,10.8-1.8,14.9c5.2,4.1,7.9,3.4,6.5,8.1c-1.4,4.8,4.9,6.6,7.5,9.7
		C94.4,273.1,92.5,263.5,92.5,263.5z"/>
	<g>
		<path class="st5" d="M249,172.5l5.6,209.2l-126.3-4.1V147.7C161.7,163.5,235.9,177.3,249,172.5z"/>
		<path class="st6" d="M238.5,388l-126.3-4.1V154.1c33.4,15.7,113.2,25.9,126.3,21V388z"/>
		<path class="st7" d="M238.5,388H92V158.2c33.4,15.7,133.4,21.7,146.5,16.9V388z"/>
		<path class="st5" d="M244.2,172.5l-5.6,209.2l126.3-4.1V147.7C331.5,163.5,257.3,177.3,244.2,172.5z"/>
		<path class="st5" d="M237.8,172.1h16.9C250.5,165.3,241.4,166.5,237.8,172.1z"/>
		<path class="st6" d="M239.3,174h14.2C249.9,167.3,242.3,168.4,239.3,174z"/>
		<rect x="237.8" y="175.1" class="st6" width="16.9" height="212.9"/>
		<rect x="237.8" y="172.1" class="st7" width="16.9" height="3"/>
		<path class="st6" d="M254.7,388l126.3-4.1V154.1c-33.4,15.7-113.2,25.9-126.3,21V388z"/>
		<path class="st7" d="M254.7,388h146.5V158.2C367.9,174,267.8,180,254.7,175.1V388z"/>
	</g>
	<g>
		<rect x="271.7" y="299.2" class="st8" width="149.9" height="89"/>
		<rect x="271.7" y="280.7" class="st9" width="164.9" height="18.5"/>
		<g>
			<polygon class="st10" points="354.1,280.7 335.6,299.2 358.6,299.2 377.1,280.7 			"/>
			<polygon class="st10" points="281.8,299.2 305.8,299.2 324.3,280.7 300.3,280.7 			"/>
			<polygon class="st10" points="430.2,280.7 404.8,280.7 386.3,299.2 411.7,299.2 			"/>
		</g>
		
			<rect x="261.5" y="230.3" transform="matrix(0.9198 -0.3923 0.3923 0.9198 -66.4149 154.1256)" class="st9" width="164.9" height="18.5"/>
		<g>
			<polygon class="st10" points="344.8,229.1 334.7,253.5 356.1,244.4 366.2,220 			"/>
			<polygon class="st10" points="284.8,274.9 307,265.4 317.1,240.9 294.8,250.4 			"/>
			<polygon class="st10" points="415.5,199 392,209 381.9,233.4 405.4,223.4 			"/>
		</g>
		<circle class="st8" cx="279.2" cy="269.9" r="13"/>
		<circle class="st11" cx="279.2" cy="269.9" r="8"/>
		<rect x="272.4" y="324.4" class="st9" width="148.2" height="1.7"/>
		<rect x="312.2" y="300.9" class="st9" width="1.2" height="86.2"/>
		<rect x="319.7" y="357.9" class="st9" width="97.5" height="2"/>
	</g>
	<g>
		<rect x="107.5" y="203.7" class="st12" width="12.2" height="89.2"/>
		<g>
			<path class="st12" d="M106.1,162.7l-1.8-0.7l5.1-13.3l17-5.7l24.6,0.4l11.6,10.6c3,2.7,4,7.1,2.6,10.9l-6.7,17.7l-1.8-0.7
				l8.7-22.8l-15.2-13.8l-23.5-0.4l-15.9,5.3L106.1,162.7z"/>
			
				<rect x="91.4" y="169.2" transform="matrix(0.9342 0.3567 -0.3567 0.9342 75.9577 -31.7915)" class="st8" width="65.5" height="41.7"/>
			
				<rect x="154.4" y="192.7" transform="matrix(-0.9342 -0.3567 0.3567 -0.9342 236.7455 451.0484)" class="st12" width="11.1" height="22"/>
			<polygon class="st8" points="161.2,215.9 171.1,225.6 182.9,194.7 169.1,195.4 			"/>
			<path class="st13" d="M161.5,197l-2.9-1.1c-0.5-0.2-0.8-0.8-0.6-1.3l0-0.1c0.2-0.5,0.8-0.8,1.3-0.6l2.9,1.1
				c0.5,0.2,0.8,0.8,0.6,1.3l0,0.1C162.6,197,162,197.2,161.5,197z"/>
			<path class="st13" d="M164.6,198.2L164.6,198.2c-0.6-0.2-0.9-0.8-0.7-1.3l0-0.1c0.2-0.5,0.8-0.8,1.3-0.6l0.1,0
				c0.5,0.2,0.8,0.8,0.6,1.3l0,0.1C165.7,198.1,165.1,198.4,164.6,198.2z"/>
			<polygon class="st13" points="168.9,197.6 169.3,196.5 181.8,195.8 180.6,199 			"/>
			<polygon class="st13" points="168,199.9 168.4,198.8 180.2,200.2 177.6,207 			"/>
			
				<rect x="119.2" y="179.9" transform="matrix(0.9342 0.3567 -0.3567 0.9342 75.5053 -36.2857)" class="st11" width="33.8" height="13.3"/>
			
				<rect x="156" y="182.9" transform="matrix(0.9342 0.3567 -0.3567 0.9342 75.9985 -43.9751)" class="st14" width="2.4" height="2.4"/>
			
				<rect x="128.8" y="195.2" transform="matrix(0.9342 0.3567 -0.3567 0.9342 78.8028 -33.5106)" class="st14" width="3" height="3.4"/>
			
				<rect x="133.3" y="196.9" transform="matrix(0.9342 0.3567 -0.3567 0.9342 79.7185 -35.0099)" class="st14" width="3" height="3.4"/>
			
				<rect x="137.8" y="198.6" transform="matrix(0.9342 0.3567 -0.3567 0.9342 80.6309 -36.5086)" class="st14" width="3" height="3.4"/>
			<g>
				
					<ellipse transform="matrix(0.1415 -0.9899 0.9899 0.1415 -28.8225 285.9567)" class="st11" cx="150.5" cy="159.6" rx="16.8" ry="16.8"/>
				
					<ellipse transform="matrix(0.9883 -0.1525 0.1525 0.9883 -22.5794 24.8124)" class="st8" cx="150.5" cy="159.6" rx="5.4" ry="5.4"/>
				
					<ellipse transform="matrix(4.777196e-02 -0.9989 0.9989 4.777196e-02 -16.1451 302.2559)" class="st12" cx="150.5" cy="159.6" rx="3.4" ry="3.4"/>
				<path class="st12" d="M155,152.4l-3.2-1.2c-1.3-0.5-2-2-1.5-3.3l0.1-0.1c0.5-1.3,2-2,3.3-1.5l3.2,1.2c1.3,0.5,2,2,1.5,3.3
					l-0.1,0.1C157.8,152.2,156.3,152.9,155,152.4z"/>
				<path class="st12" d="M157.7,164.2l1.2-3.2c0.5-1.3,2-2,3.3-1.5l0.1,0.1c1.3,0.5,2,2,1.5,3.3l-1.2,3.2c-0.5,1.3-2,2-3.3,1.5
					l-0.1-0.1C157.8,166.9,157.2,165.5,157.7,164.2z"/>
				<path class="st12" d="M145.9,166.8l3.2,1.2c1.3,0.5,2,2,1.5,3.3l-0.1,0.1c-0.5,1.3-2,2-3.3,1.5l-3.2-1.2c-1.3-0.5-2-2-1.5-3.3
					l0.1-0.1C143.1,167,144.6,166.3,145.9,166.8z"/>
				<path class="st12" d="M143.2,155l-1.2,3.2c-0.5,1.3-2,2-3.3,1.5l-0.1-0.1c-1.3-0.5-2-2-1.5-3.3l1.2-3.2c0.5-1.3,2-2,3.3-1.5
					l0.1,0.1C143.1,152.2,143.7,153.7,143.2,155z"/>
			</g>
			<g>
				
					<ellipse transform="matrix(3.885780e-02 -0.9992 0.9992 3.885780e-02 -37.8588 267.0513)" class="st11" cx="119.9" cy="153.2" rx="11.8" ry="11.8"/>
				
					<ellipse transform="matrix(0.1172 -0.9931 0.9931 0.1172 -46.3134 254.3093)" class="st8" cx="119.9" cy="153.2" rx="3.8" ry="3.8"/>
				<path class="st12" d="M120.9,155.4c-1.2,0.5-2.6,0-3.1-1.2c-0.5-1.2,0-2.6,1.2-3.1c1.2-0.5,2.6,0,3.1,1.2S122,154.8,120.9,155.4
					z"/>
				<path class="st12" d="M125.8,151.9l-1-2.2c-0.4-0.9,0-2,0.9-2.4l0.1,0c0.9-0.4,2,0,2.4,0.9l1,2.2c0.4,0.9,0,2-0.9,2.4l-0.1,0
					C127.2,153.2,126.2,152.8,125.8,151.9z"/>
				<path class="st12" d="M121.2,159.1l2.2-1c0.9-0.4,2,0,2.4,0.9l0,0.1c0.4,0.9,0,2-0.9,2.4l-2.2,1c-0.9,0.4-2,0-2.4-0.9l0-0.1
					C119.9,160.5,120.3,159.5,121.2,159.1z"/>
				<path class="st12" d="M114,154.5l1,2.2c0.4,0.9,0,2-0.9,2.4l-0.1,0c-0.9,0.4-2,0-2.4-0.9l-1-2.2c-0.4-0.9,0-2,0.9-2.4l0.1,0
					C112.5,153.2,113.6,153.6,114,154.5z"/>
				<path class="st12" d="M118.6,147.3l-2.2,1c-0.9,0.4-2,0-2.4-0.9l0-0.1c-0.4-0.9,0-2,0.9-2.4l2.2-1c0.9-0.4,2,0,2.4,0.9l0,0.1
					C119.9,145.9,119.5,146.9,118.6,147.3z"/>
			</g>
			<path class="st12" d="M146.4,225.5c-3-1.1-6.6-3.5-10.5-7c-5-4.4-9.9-10.1-13.4-15.5c-5.8-9.1-15.4-12.2-22.5-14.5
				c-1.5-0.5-2.9-0.9-4.1-1.4l0.2-0.6c1.2,0.5,2.6,0.9,4.1,1.4c7.1,2.3,16.9,5.5,22.8,14.7c3.5,5.4,8.3,11,13.3,15.4
				c5.2,4.6,9.8,7.2,13,7.5c2.7,0.3,5-1.4,6.7-5.1c1.3-2.8,1.8-5.6,1.8-5.7l0.6,0.1c0,0.1-0.5,3-1.8,5.8c-1.8,3.8-4.3,5.7-7.3,5.4
				C148.4,226.1,147.4,225.9,146.4,225.5z"/>
			
				<rect x="156.8" y="214.7" transform="matrix(0.9342 0.3567 -0.3567 0.9342 87.1477 -42.2136)" class="st12" width="2.5" height="0.9"/>
			
				<rect x="94" y="184.6" transform="matrix(0.9342 0.3567 -0.3567 0.9342 72.993 -21.8472)" class="st14" width="3.4" height="4.7"/>
		</g>
	</g>
	<g>
		<path class="st15" d="M247.4,375.1H131v12.5h128.5v-0.4C259.5,380.6,254.1,375.1,247.4,375.1z"/>
		<path class="st8" d="M140.1,375.1H67.8v0.4c0,6.7,5.4,12.1,12.1,12.1h72.3v-0.4C152.2,380.6,146.8,375.1,140.1,375.1z"/>
		<path class="st8" d="M163.4,276.3H50.5c-5.6,0-9.6,5.4-8.1,10.7l25.6,88h127.5l-27.8-95.5C167.1,277.6,165.4,276.3,163.4,276.3z"
			/>
		<path class="st12" d="M165.3,276.3H52.4c-5.6,0-9.6,5.4-8.1,10.7l25.6,88h127.5l-27.8-95.5C169,277.6,167.3,276.3,165.3,276.3z"/>
		<path class="st8" d="M71.4,373.2l-25.2-86.6c-0.6-2-0.2-4.1,1-5.7c1.2-1.6,3.1-2.6,5.2-2.6h112.9c1.1,0,2.2,0.8,2.5,1.9l27.1,93.1
			H71.4z"/>
		<path class="st16" d="M72.8,371.3l-24.3-84.7l118.9-0.2c0.3,0,0.6,0.2,0.6,0.5l24.2,84.4H72.8z"/>
		<g>
			<g>
				<path class="st17" d="M92.5,268.1c-9.2,0.7-7.7,18.5-7,28.5c0.7,10-1.7,14.7-5.7,15.2h38.7L106,272.3
					C106,272.3,94.8,267.6,92.5,268.1z"/>
				<path class="st1" d="M178.6,332.3c1.2-27-3-64-13.2-64.2H92.5c10.2,0.3,14.5,37.2,13.2,64.2c-1.2,27,4,32.7,12.5,34.5h72.8
					C182.6,365,177.3,359.3,178.6,332.3z"/>
				<path class="st18" d="M204.6,345H127c0,0,5,21.7-8.7,21.7h77.6C209.6,366.8,204.6,345,204.6,345z"/>
			</g>
			<path class="st19" d="M206.7,299.5h-44.8c-4.7,0-8.4,3.8-8.4,8.4v21v9.3l7.8-9.3h45.5c4.7,0,8.4-3.8,8.4-8.4V308
				C215.1,303.3,211.3,299.5,206.7,299.5z"/>
			<path class="st14" d="M206.4,293.9h-46.9c-4.9,0-8.8,3.9-8.8,8.8v21.9v9.7l8.1-9.7h47.5c4.9,0,8.8-3.9,8.8-8.8v-13.1
				C215.2,297.9,211.3,293.9,206.4,293.9z"/>
			<rect x="158.2" y="300.4" class="st19" width="30.2" height="3"/>
			<rect x="158.2" y="311" class="st19" width="48.9" height="3"/>
		</g>
	</g>
	<g>
		<polygon class="st20" points="138.7,361.8 159.5,361.8 157.5,351.9 130.2,338.8 117.5,308.6 99,308.4 106.4,349.9 109.7,357.6 		
			"/>
		<path class="st21" d="M138.7,361.8C138.6,361.8,138.6,361.8,138.7,361.8l-26.5-0.8c-4.3-0.1-7.9-3.3-8.6-7.5l-6.9-41.8
			c-0.3-1.6,0.8-3.1,2.4-3.3c1.6-0.3,3.1,0.8,3.3,2.4l6.9,41.8c0.2,1.5,1.5,2.6,3,2.7l26.5,0.8c1.6,0,2.8,1.4,2.8,3
			C141.5,360.5,140.2,361.8,138.7,361.8z"/>
		<path class="st22" d="M175.7,374.8l3.2,9.2c4.8,1.5,10.1,3.7,11.5,5.8c-13.6-1.7-18.5,0.5-18.5,0.5c-0.6-1.9-0.3-4.3,0-5.5
			c0.3-1.2,0.5-9.1,0.5-9.1L175.7,374.8z"/>
		<path class="st23" d="M178.4,387c1.5-0.7,1.1-1.8,1.4-2.7c4.5,1.5,9.3,3.5,10.6,5.5c-11.2,0.4-18.5,0.5-18.5,0.5
			c-0.5-1.6-0.4-3.5-0.2-4.8C172.8,386.4,176.4,387.8,178.4,387z"/>
		<path class="st24" d="M180.9,387C180.9,387,181,386.9,180.9,387c0.1-0.1,0.1-2.1,1-2.3c0,0,0.1-0.1,0.1-0.1c0,0-0.1-0.1-0.1-0.1
			c-1,0.3-1.1,2.3-1.1,2.4C180.8,386.9,180.8,387,180.9,387C180.9,387,180.9,387,180.9,387z"/>
		<path class="st24" d="M183.3,387.8C183.4,387.8,183.4,387.8,183.3,387.8c0.1-0.1,0.1-2.1,1-2.3c0,0,0.1-0.1,0.1-0.1
			c0,0-0.1-0.1-0.1-0.1c-1,0.3-1.1,2.3-1.1,2.4C183.2,387.8,183.2,387.8,183.3,387.8C183.3,387.8,183.3,387.8,183.3,387.8z"/>
		<path class="st24" d="M189.1,389.2C189.1,389.2,189.1,389.1,189.1,389.2c0.1-0.1,0-0.2,0-0.2l-16.3,0.1c-0.1,0-0.1,0-0.1,0.1
			c0,0.1,0,0.1,0.1,0.1L189.1,389.2C189,389.2,189.1,389.2,189.1,389.2z"/>
		<path class="st25" d="M117.6,349.6c0.3,0.7,1.6,5.9,6.3,7.3s32.6,0.1,32.7,0.6c0.1,4.4,14.6,26.5,14.6,26.5
			c5.5,0.5,8.6-2.1,8.6-2.1l-6.2-17c0,0,0.8-21.5-1.3-23.8c-2.2-2.4-29.3-3.4-29.3-3.4L117.6,349.6z"/>
		<path class="st26" d="M173.5,303.4c-1.7,2.3-3.8,2.9-3.9,2.9s-0.4-2.3-0.3-2.6c0.1-0.3,2.1-2.4,2.1-2.4L173.5,303.4z"/>
		<path class="st27" d="M173.9,299.2c0.1,0.1,1.8,2.2,1.6,2.5c-0.2,0.3-0.9,2.2-1.4,2.4s-0.8-0.4-0.8-0.4c-1,0.3-1.7-0.4-1.7-0.4
			s-2.5,0.5-2.7,0c-0.2-0.5-0.4-1.9-0.1-2.4c0.2-0.5,1.8-1.8,2.1-2c0.3-0.2,1.4-0.3,1.7-0.3C172.7,298.5,173.9,299.2,173.9,299.2z"
			/>
		<path class="st22" d="M160.7,309.6c0,0,4.6-4.9,5.1-5.8c0.5-0.9,1.7-4.8,2.1-5.3c0.4-0.5,3.6-1.6,3.6-1.6l3.4,1.2l2.2,2
			c-0.3,0.7-2.3-0.2-2.7-0.4c-0.5-0.3-1.5-0.4-2.3-0.4c-0.8,0-2.5,2-2.2,2.8c0.3,0.8,1.2-0.5,2.7-0.8c1.5-0.3,1.8,0.9,0.7,1.3
			c-1.1,0.5-2.1,1.2-2.4,2.7c-0.3,1.4-1,2.6-2,3c-0.9,0.4-3.5,6.3-3.5,6.3s-3.4-0.3-3.5-1C161.8,312.8,160.7,309.6,160.7,309.6z"/>
		<path class="st28" d="M121.4,299.7c-5.3-0.2-8.1,0.7-11.4,9.6c-3.3,8.8-4.6,25.3-3,26.9c1.6,1.6,4.6,1.8,4.6,1.8
			c0.3,4.2,3.1,12.5,5.3,13.5c9.4,0,26.2-13.2,26.5-13.5c0.3-0.9,0.3-7.2,0.3-7.2l8,1.3c0,0,3.6,0.3,5.9-2.3
			c2.3-2.6,8.6-16.3,8.6-16.3c-3.1-1-5.7-4-5.7-4s-7.8,9.1-10.8,9.4c-3,0.2-7.1-8.7-10.2-11.8c-3.1-3.1-7.5-4.1-7.5-4.1l-4.3-0.5
			C127.9,302.5,122.4,299.4,121.4,299.7z"/>
		<path class="st17" d="M158,319.6c-7.5,7.8-6.1,14-6.1,14s-14.8,2.3-14.8,2.1c0.2-3.7,5.5-19.8,11.9-20.2
			C153.7,316.5,158,319.6,158,319.6z"/>
		<path class="st23" d="M120.4,288.3c-1.7-2.6-2.3-6.9,0.9-7.9c2.3-2.1,6.6-2,8.5-1.7s2.3-0.2,2.5,0.3c0.2,0.5,0,1.3,0,1.3
			c1.6,1.7,1.1,4.6,0.8,5.5s-0.3,3.8,0.1,5.1c0.3,1.3,0.3,6.6-0.2,7s-2.7,0.5-2.7,0.5s-3.4,0.6-4,0.6c-0.5-0.1-2.8-1.6-2.8-1.6
			l-0.9-2.9l-0.3-2.1c0,0-0.7-2.2-0.8-2.3c-0.1-0.2-0.9-1.7-0.9-1.7H120.4z"/>
		<path class="st22" d="M122,289c-1.2-2.2-2.8-0.3-2.4,1.7c0.4,2,2.6,1.8,2.6,1.8c0.4,3.1-0.2,7-0.7,7.2c2.5,1.2,3.3,2.6,5.1,5.2
			c1.8,2.6,5.3,3.1,5.5,2.6c0.3-0.5,0.8-2.6,0.1-4.5c-2.2-1.3-2.2-2-2.2-2.4c0-0.4,0.2-2.2,0.2-2.2s-4-0.5-5.4-1.2
			c-1.4-0.7-2.1-3.3-2.3-4.5C122.3,291.4,122,289,122,289z"/>
		<path class="st22" d="M131.2,280.6c-0.8,1.1-4.9,0.6-5.3,0.7c-0.5,0.1-0.7,0.7-0.5,0.9c0.4,0.5,0.4,2.1-0.8,2.2
			c-0.2,0.6-0.9,0.5-0.7,1c0.2,0.5,1.4,2.6,1.3,2.9c-0.1,0.3-1,1.7-1,1.7c0,1.2,1.7,3.8,3,4.2c1.3,0.4,2.3,0.3,2.4,0.5
			c0.8,1,3.3,0.7,3.5-0.4c0.3-1.1,0.4-2.9,0.3-3.5c-0.1-0.7-0.2-3.3,0-4.6C133.5,284.8,133.2,280.8,131.2,280.6z"/>
		<path class="st23" d="M131.3,292.9c-0.8-0.6-1.5-0.8-2.4,0.2c-0.9,1-2.4,0.1-2.4,0.1c0.3,0.5,2.2,2.5,3,2c0.8-0.5,1.7-1.6,1.8-1.6
			c0.5,0.8,1.6,1.4,2.2,1.1s1.2-1.7,1.2-1.7s-0.9,0.8-1,0.6S132.8,291.8,131.3,292.9z"/>
		<path class="st29" d="M130.9,294.7c-0.1,0-0.2,0-0.4,0c0,0-0.1-0.1-0.1-0.1c0,0,0.1-0.1,0.1-0.1c0.5,0.1,1-0.1,1-0.1
			c0,0,0.1,0,0.1,0.1c0,0,0,0.1-0.1,0.1C131.7,294.6,131.3,294.7,130.9,294.7z"/>
		<path class="st23" d="M130.9,292.1C130.9,292.1,130.8,292.1,130.9,292.1c-0.1-0.1-0.1-0.2,0-0.2c0.8-0.3,1.7-0.7,1.9-0.8
			c-0.1-0.2-0.4-0.7-0.7-1.1c-0.4-0.7-0.7-1.1-0.8-1.3c-0.1-0.2,0-0.7,0.2-1.3c0-0.2,0.1-0.4,0.1-0.4c0-0.1,0-0.1,0.1-0.1
			c0.1,0,0.1,0,0.1,0.1c0,0.1,0,0.2-0.1,0.5c-0.1,0.4-0.2,1.1-0.2,1.3c0,0.1,0.4,0.7,0.7,1.2c0.6,1,0.7,1.2,0.7,1.3
			C132.9,291.2,132.9,291.4,130.9,292.1C130.9,292.1,130.9,292.1,130.9,292.1z M132.7,291.2L132.7,291.2L132.7,291.2z M132.8,291.1
			L132.8,291.1L132.8,291.1z"/>
		<path class="st29" d="M128.7,290c-0.1,0-0.2,0-0.3-0.1c-0.2-0.1-0.3-0.3-0.4-0.6c0,0,0-0.1,0.1-0.1c0,0,0.1,0,0.1,0.1
			c0.1,0.2,0.2,0.4,0.3,0.5c0.2,0.1,0.3,0.1,0.3,0.1c0,0,0.1,0,0.1,0.1c0,0,0,0.1-0.1,0.1C128.9,290,128.8,290,128.7,290z"/>
		<path class="st29" d="M121.6,291.8C121.6,291.8,121.6,291.8,121.6,291.8c-0.6,0-0.9-0.4-0.9-0.8c0-0.4,0.3-0.9,0.9-1
			c-0.1-0.1-0.3-0.4-0.5-0.6c-0.2-0.1-0.4-0.2-0.7-0.1c0,0-0.1,0-0.1-0.1c0,0,0-0.1,0.1-0.1c0.8-0.2,1.3,0.6,1.4,0.7
			c0.1,0.2,0.1,0.2,0,0.3c0,0,0,0-0.1,0c-0.6,0.1-0.9,0.5-0.9,0.8c0,0.3,0.2,0.6,0.7,0.6C121.6,291.6,121.7,291.6,121.6,291.8
			C121.7,291.7,121.6,291.8,121.6,291.8z"/>
		<path class="st30" d="M122.8,308.7C122.8,308.7,122.7,308.6,122.8,308.7c-0.1-0.1-1.3-6.7-6.7-7c-0.1,0-0.1,0-0.1-0.1
			c0-0.1,0-0.1,0.1-0.1c5.6,0.4,6.8,7,6.8,7.1C122.9,308.6,122.9,308.6,122.8,308.7C122.8,308.7,122.8,308.7,122.8,308.7z"/>
		<path class="st30" d="M117.2,326.8C117.2,326.8,117.2,326.8,117.2,326.8c-0.1-0.1-0.1-0.1-0.1-0.1c0-0.1,2.2-7.5,4.3-12.3
			c0,0,0.1-0.1,0.1,0c0,0,0.1,0.1,0,0.1c-1.9,4.5-4,11.2-4.3,12.1l8.8-0.5c0.1,0,0.1,0,0.1,0.1c0,0.1,0,0.1-0.1,0.1L117.2,326.8
			C117.2,326.8,117.2,326.8,117.2,326.8z"/>
		<path class="st30" d="M116.6,329.2C116.6,329.2,116.5,329.2,116.6,329.2c-0.1,0-0.1-0.1-0.1-0.1c0,0,0.5-1.5,0.6-1.9
			c-0.3,0.1-1.1,0.8-2.1,1.8c0,0-0.1,0-0.1,0c0,0,0-0.1,0-0.1c0.3-0.3,2.1-2,2.4-1.9c0,0,0.1,0.1,0.1,0.2
			C117.2,327.5,116.7,329.1,116.6,329.2C116.6,329.2,116.6,329.2,116.6,329.2z"/>
		<path class="st30" d="M114.9,337.8c-0.4,0-0.9,0-1.3,0c-0.1,0-0.1,0-0.1-0.1c0-0.1,0-0.1,0.1-0.1c6.9,0.4,12.2-2.2,12.3-2.3
			c0,0,0.1,0,0.1,0c0,0,0,0.1,0,0.1C125.9,335.5,121.2,337.8,114.9,337.8z"/>
		<path class="st30" d="M138.4,321C138.4,321,138.4,321,138.4,321c-0.1,0-0.1-0.1-0.1-0.1c0,0,0.5-2.6,0.1-7.5c0-0.1,0-0.1,0.1-0.1
			c0.1,0,0.1,0,0.1,0.1C139,318.4,138.5,320.9,138.4,321C138.5,321,138.4,321,138.4,321z"/>
		<path class="st31" d="M173.1,364.5C173.1,364.5,173,364.5,173.1,364.5c-0.1-0.3-4.1-18-4.8-19.2c-0.3-0.5-4.6-1.4-23.6-3.1
			c-1.1-0.1-1.6-0.1-1.6-0.1c0,0-0.1-0.1-0.1-0.1c0,0,0.1-0.1,0.1-0.1l0,0c0.1,0,0.7,0.1,1.6,0.1c15.8,1.4,23.3,2.4,23.8,3.2
			c0.7,1.3,4.6,18.5,4.7,19.2C173.2,364.5,173.2,364.5,173.1,364.5C173.1,364.5,173.1,364.5,173.1,364.5z"/>
		<path class="st30" d="M158,357.3c-0.1,0-0.2,0-0.2-0.1c-0.1-0.1,0-0.3,0.3-0.7c0.4-0.5,0.9-1.3,1-2.4c0-0.1,0.1-0.1,0.1-0.1
			c0.1,0,0.1,0.1,0.1,0.1c-0.1,1.1-0.7,1.9-1.1,2.4c-0.1,0.2-0.3,0.4-0.3,0.5c0,0,0.1,0,0.3,0c1.2-0.3,1.9-1.4,1.9-1.4
			c0,0,0.1-0.1,0.1,0c0,0,0.1,0.1,0,0.1c0,0-0.7,1.2-2,1.5C158.2,357.3,158.1,357.3,158,357.3z M158,357.1L158,357.1L158,357.1z"/>
		<path class="st30" d="M129.9,351.4C129.9,351.4,129.9,351.4,129.9,351.4c-0.1,0-0.1-0.1-0.1-0.1c0,0,1.4-2.2-0.2-3.9
			c0,0,0-0.1,0-0.1c0,0,0.1,0,0.1,0C131.5,349.1,130,351.4,129.9,351.4C130,351.4,130,351.4,129.9,351.4z"/>
		<path class="st30" d="M172.9,380.4C172.9,380.4,172.8,380.4,172.9,380.4c-4.2-6.3-10.8-25.1-10.8-26.4c0-0.7-0.1-0.7-0.4-0.8
			c-0.2-0.1-0.6-0.2-0.9-0.6c-0.6-0.6-0.4-0.9-0.2-1.1c0,0,0,0,0,0c0,0,0,0,0,0c-0.4-0.1-12.6,0-20.7,0c-3.4,0-6,0-7.2,0
			c-0.7,0-1.4,0-2,0c-3,0.1-5.2,0.1-6.5-1.5c0,0,0-0.1,0-0.1c0,0,0.1,0,0.1,0c1.3,1.5,3.5,1.5,6.4,1.4c0.6,0,1.3,0,2,0
			c1.1,0,3.8,0,7.2,0c11.2-0.1,20.5-0.2,20.8,0c0.1,0,0.1,0.1,0.1,0.2c0,0.1,0,0.1-0.1,0.2c-0.1,0.1-0.3,0.3,0.2,0.8
			c0.4,0.4,0.6,0.5,0.9,0.5c0.3,0.1,0.5,0.2,0.5,1c0,1.3,6.5,20,10.7,26.3C173,380.3,173,380.4,172.9,380.4
			C172.9,380.4,172.9,380.4,172.9,380.4z"/>
		<path class="st23" d="M126,287c3.2-0.8,4.2-0.5,4.2-0.5C128.7,285.1,126.8,285.6,126,287z"/>
		<path class="st29" d="M130.7,286.8C130.6,286.8,130.6,286.8,130.7,286.8c-0.1,0-0.1-0.1-0.1-0.1c0.1-0.1,0-1-0.7-1.6
			c0,0,0-0.1,0-0.1c0,0,0.1,0,0.1,0C130.8,285.5,130.9,286.6,130.7,286.8C130.7,286.8,130.7,286.8,130.7,286.8z"/>
		<path class="st23" d="M129.2,288.8c0,0.4-0.2,0.7-0.4,0.7c-0.2,0-0.4-0.3-0.4-0.7c0-0.4,0.2-0.7,0.4-0.7
			C129,288,129.2,288.4,129.2,288.8z"/>
		<path class="st23" d="M132.7,288.7c0,0.4-0.2,0.7-0.4,0.7c-0.2,0-0.4-0.3-0.4-0.7c0-0.4,0.2-0.7,0.4-0.7
			C132.6,288,132.7,288.3,132.7,288.7z"/>
		<path class="st23" d="M131.9,286.6c0.8-0.3,1.4,0.2,1.4,0.2C133,285.5,132.2,285.9,131.9,286.6z"/>
		<path class="st22" d="M126.9,326.4c-0.9,7.2-0.4,8.8-0.4,8.8s12.4-5,13.7-4.9s3.2-0.4,3.6-0.6c0.4-0.2,2.1-1.2,2.1-1.2
			c0-0.2-0.4-0.4-1.1-0.2c0.7-0.9,1.5-1.7,1.4-2.2c0.8-0.9,0.5-1.7,0.5-1.7c0.8-0.8,1.4-1.8,0.9-1.8s-2.1,1-3.9,1.3
			c-1.8,0.3-3.4,0.1-3.4-0.3c0.1-0.4,0.1-1.1,1.3-1.4c1.5-0.4,1.8-1.8,1.5-2s-0.7,0.4-1.2,0.4s-2.1,0.2-2.9,0.9
			c-0.8,0.8-2.1,3.4-2.3,3.8S126.9,326.4,126.9,326.4z"/>
		<path class="st12" d="M131.6,326c-0.5,2,0.4,6.3,0.7,7l1.8-0.7c-0.6-2.2-0.6-6.2-0.5-6.5C132.3,325.9,131.6,326,131.6,326z"/>
		<path class="st32" d="M134.1,329.9c0.1,0.6-0.5,1.1-1.2,1.2c-0.7,0.1-1.4-0.3-1.5-0.9c-0.1-0.6,0.5-1.1,1.2-1.2
			C133.4,329,134.1,329.4,134.1,329.9z"/>
		<path class="st33" d="M133.9,329.9c0.1,0.5-0.4,1-1.1,1c-0.6,0.1-1.2-0.3-1.3-0.7c-0.1-0.5,0.4-1,1.1-1
			C133.3,329.1,133.9,329.5,133.9,329.9z"/>
		<path class="st29" d="M143.1,325.9C143.1,325.9,143,325.8,143.1,325.9c-0.1-0.1-0.1-0.2,0-0.2c0,0,1.1-0.1,3.2-1.4
			c0,0,0.1,0,0.1,0c0,0,0,0.1,0,0.1C144.3,325.7,143.2,325.9,143.1,325.9C143.1,325.9,143.1,325.9,143.1,325.9z"/>
		<path class="st29" d="M142.9,328.1C142.8,328.1,142.8,328.1,142.9,328.1c-0.1-0.1-0.1-0.2,0-0.2c0,0,1.5-0.7,3.1-2.4
			c0,0,0.1,0,0.1,0c0,0,0,0.1,0,0.1C144.4,327.4,142.9,328.1,142.9,328.1C142.9,328.1,142.9,328.1,142.9,328.1z"/>
		<path class="st1" d="M149,315.5c2.5,2,0.4,6.4,1.3,7l13.7-2.1c0,0-0.6-0.8-0.6-1.4c0-0.6,0.2-3.7-0.5-4.5L149,315.5z"/>
		<path class="st29" d="M172.3,301.1C172.3,301.1,172.3,301.1,172.3,301.1c-0.1,0-0.1-0.1-0.1-0.1l0.1-0.4l-0.5-0.8c0,0,0-0.1,0-0.1
			c0,0,0.1,0,0.1,0l0.6,0.8c0,0,0,0.1,0,0.1L172.3,301.1C172.4,301.1,172.3,301.1,172.3,301.1z"/>
		<path class="st29" d="M173.8,303.2C173.8,303.2,173.8,303.2,173.8,303.2c-0.1,0-0.1-0.1-0.1-0.1c0.2-0.3,0.6-1.3,0.6-1.6
			c0-0.3-0.3-1-0.5-1.3c0-0.1-0.1-0.1-0.1-0.1c0,0,0-0.1,0.1-0.1c0,0,0.1,0,0.1,0.1c0,0,0,0.1,0.1,0.1c0.2,0.5,0.5,1.1,0.5,1.4
			C174.5,301.9,174,303,173.8,303.2C173.9,303.2,173.8,303.2,173.8,303.2z"/>
		<path class="st34" d="M126.5,390.5c-15.4,0-28.5-5.3-35.9-15c-0.3-0.4-0.2-1,0.2-1.3c0.4-0.3,1-0.2,1.3,0.2
			c9.1,11.9,27.3,16.9,47.5,13.1c5.6-1.1,10.8-4.3,14.6-9c3.4-4.3,5.2-9.5,4.6-13.8c-0.8-6.9-7.1-10.5-17.3-9.9
			c-0.5,0-0.9-0.4-1-0.9c0-0.5,0.4-0.9,0.9-1c5.9-0.3,10.5,0.6,13.9,2.8c3,2,4.9,5,5.3,8.7c0.6,4.8-1.2,10.4-5,15.2
			c-4,5.1-9.6,8.5-15.7,9.7C135.3,390.1,130.8,390.5,126.5,390.5z"/>
		<polygon class="st34" points="107.8,340.7 102.4,384.7 103.6,384.3 109.3,340.7 		"/>
		<polygon class="st35" points="109,340.7 103.6,384.7 104.8,384.3 110.5,340.7 		"/>
		<g>
			<polygon class="st34" points="126.9,341.4 141.9,386.8 143.2,386.4 128.4,341.4 			"/>
			<polygon class="st35" points="128.1,341.4 143.1,386.8 144.4,386.4 129.6,341.4 			"/>
		</g>
		<path class="st34" d="M135.1,341.4h-33.6v-3.6h30.1c1.9,0,3.5,1.6,3.5,3.5V341.4z"/>
		<circle class="st35" cx="103" cy="339.6" r="1"/>
		<path class="st35" d="M125.3,390.5c-15.4,0-28.5-5.3-35.9-15c-0.3-0.4-0.2-1,0.2-1.3c0.4-0.3,1-0.2,1.3,0.2
			c9.1,11.9,27.3,16.9,47.5,13.1c5.6-1.1,10.8-4.3,14.6-9c3.4-4.3,5.2-9.5,4.6-13.8c-0.8-6.9-7.1-10.5-17.3-9.9
			c-0.5,0-0.9-0.4-1-0.9c0-0.5,0.4-0.9,0.9-1c5.9-0.3,10.5,0.6,13.9,2.8c3,2,4.9,5,5.3,8.7c0.6,4.8-1.2,10.4-5,15.2
			c-4,5.1-9.6,8.5-15.7,9.7C134.1,390.1,129.6,390.5,125.3,390.5z"/>
	</g>
	<g>
		<path class="st1" d="M337.7,223.4c-2.4-3.6-5.1-4.9-5.1-4.9c-1.8,2.5-14,8.7-14,8.7c5.8,2.8,10.5,14.6,8.8,22.2
			c7.8-5.1,14-6.9,14-6.9c0.3-1.6-1.4-11.3-1.4-11.3l-0.9-5L337.7,223.4z"/>
		<path class="st22" d="M364.8,231.6c-2.7-2-20.1-5.4-21.4-6.1c-1.3-0.7-3.1-2.8-3.8-3c-0.7-0.2-2.4,0.7-3.5,0.5
			c-1.1-0.2-1.4-0.3-1.4-0.3c-0.1,0.8,0.2,1.6,1.2,1.8c0.9,0.3,1.9,0.2,2.2,0.5c0.3,0.3,1.2,6,1.9,6c2.3-0.5,3.6-1.6,5-0.1
			c1.4,1.4,18.7,9,19.6,8.8c0.8-0.1,1.1-0.2,1.1-0.4C365.7,239.4,364.8,231.6,364.8,231.6z"/>
		<g>
			<path class="st22" d="M372.1,304.5c0,0,2.7,18.5,2.6,18.7c-4.9,6.8-5.6,14.5-5.6,14.5l14.3-10.5c0.1-1.8-2.1-5.1-2.6-6.2
				c-0.5-1.1,1.6-14.5,1.4-17.4C382,300.6,372.1,304.5,372.1,304.5z"/>
			<path class="st23" d="M383.4,327.2c0-1.2-0.9-3.1-1.7-4.5c-1.4,2.6-5.1,3.9-5.8,3c-0.5-0.7-0.5-1.7-1.4-2.2
				c-4.7,6.8-5.5,14.2-5.5,14.2L383.4,327.2z"/>
			<path class="st24" d="M374.9,326.4C374.9,326.4,374.8,326.3,374.9,326.4c-0.1-0.1-0.7-1.5-1.7-1.5c-0.1,0-0.1,0-0.1-0.1
				c0-0.1,0-0.1,0.1-0.1c1.2,0,1.8,1.5,1.8,1.5C375,326.3,375,326.3,374.9,326.4C374.9,326.4,374.9,326.4,374.9,326.4z"/>
			<path class="st24" d="M373.8,328.7C373.7,328.7,373.7,328.6,373.8,328.7c-0.1-0.1-0.7-1.5-1.7-1.5c-0.1,0-0.1,0-0.1-0.1
				c0-0.1,0-0.1,0.1-0.1c1.2,0,1.8,1.5,1.8,1.5C373.9,328.6,373.8,328.6,373.8,328.7C373.8,328.7,373.8,328.7,373.8,328.7z"/>
			<path class="st24" d="M372.5,331.7C372.4,331.7,372.4,331.7,372.5,331.7c-0.1-0.1-0.7-1.5-1.7-1.5c-0.1,0-0.1,0-0.1-0.1
				c0-0.1,0-0.1,0.1-0.1c1.2,0,1.8,1.5,1.8,1.5C372.6,331.6,372.6,331.7,372.5,331.7C372.5,331.7,372.5,331.7,372.5,331.7z"/>
			<path class="st24" d="M370.3,335.7C370.2,335.7,370.2,335.7,370.3,335.7c-0.1-0.1-0.1-0.2-0.1-0.2l12.7-9.4c0,0,0.1,0,0.1,0
				c0,0,0,0.1,0,0.1L370.3,335.7C370.3,335.7,370.3,335.7,370.3,335.7z"/>
		</g>
		<g>
			<path class="st22" d="M351.1,302.4c0,0-3,18.4-3.2,18.6c-6.7,5-9.8,12.1-9.8,12.1l16.8-5.7c0.6-1.7-0.5-5.5-0.6-6.7
				c-0.1-1.2,5.9-13.4,6.7-16.2C361.8,301.8,351.1,302.4,351.1,302.4z"/>
			<path class="st23" d="M355,327.5c0.4-1.1,0.1-3.2-0.3-4.8c-2.1,2.1-6,2.2-6.4,1.1c-0.3-0.8,0-1.8-0.6-2.5
				c-6.5,5-9.5,11.9-9.5,11.9L355,327.5z"/>
			<path class="st24" d="M347.2,324.1C347.1,324.1,347.1,324.1,347.2,324.1c-0.1-0.1-0.2-1.6-1.2-1.9c-0.1,0-0.1-0.1-0.1-0.1
				s0.1-0.1,0.1-0.1c1.1,0.3,1.3,1.9,1.3,2C347.3,324.1,347.3,324.1,347.2,324.1C347.2,324.1,347.2,324.1,347.2,324.1z"/>
			<path class="st24" d="M345.4,326C345.3,326,345.3,325.9,345.4,326c-0.1-0.1-0.2-1.6-1.2-1.9c-0.1,0-0.1-0.1-0.1-0.1
				c0-0.1,0.1-0.1,0.1-0.1c1.1,0.3,1.3,1.9,1.3,2C345.5,325.9,345.5,326,345.4,326C345.4,326,345.4,326,345.4,326z"/>
			<path class="st24" d="M343.3,328.5C343.2,328.5,343.2,328.4,343.3,328.5c-0.1-0.1-0.2-1.6-1.2-1.9c-0.1,0-0.1-0.1-0.1-0.1
				c0-0.1,0.1-0.1,0.1-0.1c1.1,0.3,1.3,1.9,1.3,2C343.4,328.4,343.4,328.5,343.3,328.5C343.3,328.5,343.3,328.5,343.3,328.5z"/>
			<path class="st24" d="M339.9,331.6C339.9,331.6,339.9,331.6,339.9,331.6c-0.1-0.1-0.1-0.2,0-0.2l15-5.1c0.1,0,0.1,0,0.1,0.1
				c0,0.1,0,0.1-0.1,0.1L339.9,331.6C340,331.6,339.9,331.6,339.9,331.6z"/>
		</g>
		<path class="st28" d="M384.2,253.4c-0.8,0.7-4.2,6.9-4.8,7.1c-1.7,0.5-20.5,5.7-23.7,12.3c-3.2,6.6-5.8,30-5.7,30.6
			c4.6,3.3,11.4,1.3,11.4,1.3c2.6-4.7,6.6-21.5,6.6-21.5l1.2-0.6c0,0-0.6,1.3-0.2,4.5c0.4,3.2,2.4,18.5,2.6,19
			c6.2,2.3,11.8-1.1,11.8-1.7c0-0.6,1.1-16.4,1.5-17.1c0.5-0.7,19.1-8.2,20.5-14.4c1.4-6.2-3.2-19-3.2-19L384.2,253.4z"/>
		<path class="st23" d="M384.5,251c0,1.1-0.4,2.1-0.3,2.3c1.7,1.5,12.4,2.6,18,0.7c-0.7-1.5-0.7-2.5-0.7-2.5L384.5,251z"/>
		<path class="st21" d="M389.7,223.7c0,0-1.1,0.5-2.2,0.9c-4.4,1.7-19.9,6.3-23.1,6c-0.8,5.1,0.6,9.4,0.6,9.4l16.5-1.3
			c0,0-0.9,2.4-0.1,3.9s2.4,8.5,3.1,9.1c8.9,2.5,17.2,0.6,17.2,0.6c0.7-0.6,1.5-8.5,1.9-8.2c0.4,0.2,5.4,11.1,5.4,11.1
			c4.9,0.9,8-1.5,8-1.5s-5.1-18.8-8.3-22.4s-9.5-5.9-9.8-6.1c-0.9-1-2.9-2.2-3.9-2.3C393.9,222.7,389.7,223.7,389.7,223.7z"/>
		<path class="st23" d="M387.1,204.1c-1.7,0.5-2.1,3.4-1.7,5.3c0.4,1.9-0.7,3.4-2,4.7c-1.2,1.2,1.1,5.3,6.4,5.3s12.6,0.5,12.9-3.1
			c0.3-3.6-1.7-5.4-1.3-7.2C401.8,207.2,395.7,198,387.1,204.1z"/>
		<path class="st22" d="M387.4,206.4c0.4,3.6,4.1,4.6,6,4.9s2.9,1.6,2.9,1.6c0.5-1.7,2.4-1.6,2.5,0c0.2,1.7-2.3,3.4-3.2,2.5
			c-1.1,6.4,0.8,8.1,0.8,8.4c-0.7,1.9-3.8,2.8-3.8,3c0,1.1-1.7,3.8-2,3.5c-0.4-0.9,0.1-3.6-0.1-3.8c-0.2-0.2-1.1-2-1.1-2
			c0.4,0,0.6-3.1,0.4-4.1c-2.3-0.4-2.8-3.7-3.1-5.7c-0.3-2,0-2.9,0.1-4.5C386.8,208.7,387.4,206.4,387.4,206.4z"/>
		<path class="st23" d="M392.7,213.2c0,0.5-0.2,0.8-0.5,0.8s-0.5-0.4-0.5-0.8c0-0.5,0.2-0.8,0.5-0.8S392.7,212.7,392.7,213.2z"/>
		<path class="st23" d="M388.8,213.1c0,0.5-0.2,0.8-0.5,0.8c-0.3,0-0.5-0.4-0.5-0.8c0-0.5,0.2-0.8,0.5-0.8
			C388.6,212.3,388.8,212.6,388.8,213.1z"/>
		<path class="st23" d="M390,215.8c-0.2,0-0.9,0-1.4-0.2c-0.1,0-0.1-0.1-0.2-0.2c0-0.1,0-0.2,0.1-0.2c0.4-0.4,1.2-1.8,0.7-3.5
			c0-0.1,0-0.1,0.1-0.1c0.1,0,0.1,0,0.1,0.1c0.5,1.8-0.3,3.3-0.8,3.7c0,0,0,0,0,0c0,0,0,0,0,0c0.6,0.2,1.4,0.2,1.4,0.2
			c0.1,0,0.1,0,0.1,0.1C390.2,215.7,390.1,215.8,390,215.8C390.1,215.8,390,215.8,390,215.8z"/>
		<path class="st29" d="M390.2,220.6c-0.1,0-0.1,0-0.2,0c-0.1,0-0.1-0.1-0.1-0.1c0-0.1,0.1-0.1,0.1-0.1c2,0.1,4.4-2.1,4.5-2.3
			c0-0.1,0.1-0.1,0.1,0c0.1,0,0.1,0.1,0,0.1C394.5,218.5,392.2,220.6,390.2,220.6z"/>
		<path class="st29" d="M396.7,214.8c-0.1,0-0.2,0-0.4,0c-0.1,0-0.1-0.1-0.1-0.1c0-0.1,0.1-0.1,0.1-0.1c0.4,0.1,0.7,0,0.8-0.2
			c0.1-0.2,0.1-0.5,0-0.7c-0.1-0.1-0.2-0.2-0.5-0.2c0,0-0.1,0-0.1,0c0,0,0-0.1,0-0.1c0,0,0.5-1.3,1.7-0.9c0.1,0,0.1,0.1,0.1,0.1
			c0,0.1-0.1,0.1-0.1,0.1c-0.8-0.2-1.2,0.3-1.4,0.6c0.2,0,0.4,0.1,0.5,0.3c0.2,0.3,0.2,0.7,0,0.9
			C397.3,214.6,397.1,214.8,396.7,214.8z"/>
		<g>
			<g>
				<path class="st23" d="M390.1,213.3C390.1,213.3,390.1,213.3,390.1,213.3c-0.1,0-0.6-0.3-1.1,0c-0.1,0-0.1,0-0.1,0
					c0-0.1,0-0.1,0-0.1c0.6-0.4,1.2,0,1.3,0C390.2,213.2,390.3,213.2,390.1,213.3C390.2,213.3,390.2,213.3,390.1,213.3z"/>
				<path class="st23" d="M392.2,211.1c-1.2,0-2.1,1-2.1,2.1c0,1.2,1,2.1,2.1,2.1s2.1-1,2.1-2.1C394.3,212,393.3,211.1,392.2,211.1z
					 M392.2,215.2c-1.1,0-1.9-0.9-1.9-1.9c0-1.1,0.9-1.9,1.9-1.9s1.9,0.9,1.9,1.9C394.1,214.3,393.2,215.2,392.2,215.2z"/>
				<path class="st23" d="M387.1,211.1c-1.1,0-1.9,1-1.9,2.1c0,1.2,0.9,2.1,1.9,2.1c1.1,0,1.9-1,1.9-2.1
					C389.1,212,388.2,211.1,387.1,211.1z M387.1,215.2c-1,0-1.8-0.9-1.8-2c0-1.1,0.8-2,1.8-2c1,0,1.8,0.9,1.8,2
					C388.9,214.3,388.1,215.2,387.1,215.2z"/>
				<path class="st23" d="M394.2,213.4c0,0-0.1,0-0.1-0.1c0-0.1,0-0.1,0.1-0.1l2-0.5c0.1,0,0.1,0,0.1,0.1c0,0.1,0,0.1-0.1,0.1
					L394.2,213.4C394.2,213.4,394.2,213.4,394.2,213.4z"/>
			</g>
		</g>
		<path class="st36" d="M388.6,216.7c0.1-0.7,1-0.7,3.2,0C390,218.9,388.7,218.6,388.6,216.7z"/>
		<path class="st23" d="M386.8,210.8c1.3-0.2,2.2,0.2,2.2,0.2C388.1,209.7,387.1,209.7,386.8,210.8z"/>
		<path class="st23" d="M390.2,217.1c-0.6,0-1.3-0.1-1.9-0.3c-0.1,0-0.1-0.1-0.1-0.1c0-0.1,0.1-0.1,0.1-0.1c1.4,0.5,2.9,0.4,3.5-0.1
			c0.1,0,0.1,0,0.1,0c0,0.1,0,0.1,0,0.1C391.7,217,391,217.1,390.2,217.1z"/>
		<path class="st30" d="M389.9,230.4C389.9,230.4,389.8,230.4,389.9,230.4c-0.8-0.5-0.5-2.4-0.3-3.4c0-0.1,0-0.2,0-0.2
			c-0.3-0.1-2,1.3-2.2,1.9c0,0-0.1,0.1-0.1,0.1c0,0-0.1-0.1-0.1-0.1c0,0,0-1.8,0.3-3.3c0-0.1,0.1-0.1,0.1-0.1c0.1,0,0.1,0.1,0.1,0.1
			c-0.3,1.1-0.3,2.3-0.3,2.9c0.5-0.7,1.8-1.8,2.3-1.7c0.1,0,0.2,0.1,0.1,0.4c-0.4,1.7-0.3,2.9,0.1,3.2
			C390,230.3,390,230.3,389.9,230.4C389.9,230.4,389.9,230.4,389.9,230.4z"/>
		<path class="st30" d="M394.4,230.8C394.4,230.8,394.4,230.8,394.4,230.8c-0.1,0-0.1,0-0.1-0.1c0,0-0.3-1.3-0.6-2.2
			c-0.1-0.4-0.3-0.6-0.5-0.6c-0.2,0-0.4,0.2-0.6,0.6c0,0.1-0.1,0.1-0.1,0.1c-0.1,0-0.1-0.1-0.1-0.1c0.3-0.7,0.6-0.8,0.8-0.8
			c0.3,0,0.5,0.3,0.7,0.8c0.2,0.7,0.4,1.6,0.5,2c0.6-0.6,2.7-3.1,3.1-4.4c0-0.1,0.1-0.1,0.1-0.1c0.1,0,0.1,0.1,0.1,0.1
			C397.3,227.7,394.6,230.6,394.4,230.8C394.4,230.8,394.4,230.8,394.4,230.8z"/>
		<path class="st30" d="M389.1,245.4c-0.1,0-0.1,0-0.1-0.1c0,0-0.4-2.9-0.6-4.4c-0.1-0.9,0.4-3.5,0.8-5.7c0.3-1.4,0.6-2.7,0.6-3.3
			c0-0.1,0.1-0.1,0.1-0.1c0.1,0,0.1,0.1,0.1,0.1c0,0.6-0.3,1.9-0.6,3.3c-0.4,2.2-1,4.8-0.8,5.7c0.2,1.5,0.6,4.4,0.6,4.4
			C389.2,245.3,389.2,245.4,389.1,245.4C389.1,245.4,389.1,245.4,389.1,245.4z"/>
		<path class="st30" d="M382.4,238.2C382.4,238.2,382.4,238.2,382.4,238.2c-0.1,0-0.1-0.1-0.1-0.1c0,0,1.3-4.5,1-7.2
			c0-0.1,0-0.1,0.1-0.1c0.1,0,0.1,0,0.1,0.1c0.2,2.8-1,7.3-1,7.3C382.5,238.2,382.4,238.2,382.4,238.2z"/>
		<path class="st30" d="M402.6,236C402.6,236,402.6,236,402.6,236c-0.1,0-0.1-0.1-0.1-0.1c0,0,0.6-4.5,3.1-6.8c0,0,0.1,0,0.2,0
			c0,0,0,0.1,0,0.2c-2.4,2.3-3,6.7-3.1,6.7C402.7,235.9,402.7,236,402.6,236z"/>
		<path class="st30" d="M387.2,263.1c-0.1,0-0.1,0-0.1-0.1c0,0-0.7-4,0.9-7.9c0-0.1,0.1-0.1,0.1-0.1c0.1,0,0.1,0.1,0.1,0.1
			c-1.6,3.9-0.9,7.7-0.9,7.8C387.3,263,387.3,263,387.2,263.1C387.2,263.1,387.2,263.1,387.2,263.1z"/>
		<path class="st30" d="M370.1,282C370.1,282,370.1,282,370.1,282c-0.1,0-0.1-0.1-0.1-0.1c1.1-5.6,14.6-13.3,15.2-13.6
			c0.1,0,0.1,0,0.1,0c0,0.1,0,0.1,0,0.1c-0.1,0.1-14,8-15.1,13.5C370.2,282,370.1,282,370.1,282z"/>
		<path class="st30" d="M379.8,303.6c-0.1,0-0.1,0-0.1-0.1c0-0.1-0.5-14.7-0.5-15.9c0-0.7,0.3-0.9,0.6-1.1c0.3-0.2,0.5-0.3,0.6-0.8
			c0.1-0.4,0.1-0.7,0-0.9c0-0.5,0-0.7,0.7-1.1c1.2-0.7,18.4-11.4,19.4-14.3c1-2.9-0.3-13.1-0.3-13.2c0-0.1,0-0.1,0.1-0.1
			c0.1,0,0.1,0,0.1,0.1c0.1,0.4,1.3,10.3,0.3,13.3c-1.1,3.1-19.3,14.3-19.5,14.4c-0.7,0.4-0.6,0.5-0.6,0.9c0,0.2,0,0.5,0,1
			c-0.1,0.6-0.4,0.8-0.7,1c-0.3,0.2-0.5,0.3-0.5,0.9c0,1.2,0.5,15.8,0.5,15.9C379.9,303.5,379.9,303.6,379.8,303.6
			C379.8,303.6,379.8,303.6,379.8,303.6z"/>
		<path class="st30" d="M384.2,287c-0.1,0-0.1,0-0.2,0c-0.6-0.2-1.7-0.4-1.7-0.4c-0.1,0-0.1-0.1-0.1-0.1c0-0.1,0.1-0.1,0.1-0.1
			c0,0,1.1,0.2,1.7,0.4c0.1,0,0.1,0,0.1,0c-0.1-0.1-0.4-0.5-0.8-1c-0.1-0.1-0.2-0.3-0.3-0.4c0,0,0-0.1,0-0.1c0,0,0.1,0,0.1,0
			c0.1,0.1,0.2,0.3,0.3,0.4c0.7,0.8,0.9,1.1,0.8,1.2C384.3,287,384.3,287,384.2,287z M384.2,286.8L384.2,286.8L384.2,286.8z"/>
		<path class="st30" d="M367.2,283.1c-0.1,0-0.1,0-0.2,0c-0.6-0.2-1.7-0.4-1.7-0.4c-0.1,0-0.1-0.1-0.1-0.1c0-0.1,0.1-0.1,0.1-0.1
			c0,0,1.1,0.2,1.7,0.4c0.1,0,0.1,0,0.1,0c-0.1-0.1-0.4-0.5-0.8-1c-0.1-0.1-0.2-0.3-0.3-0.4c0,0,0-0.1,0-0.1c0,0,0.1,0,0.1,0
			c0.1,0.1,0.2,0.3,0.3,0.4c0.7,0.8,0.9,1.1,0.8,1.2C367.3,283.1,367.3,283.1,367.2,283.1z M367.2,282.9L367.2,282.9L367.2,282.9z"
			/>
		
			<rect x="386.7" y="252.2" transform="matrix(0.9929 0.1191 -0.1191 0.9929 32.9768 -44.6025)" class="st14" width="5.8" height="2.7"/>
		<rect x="395.2" y="252.5" class="st28" width="0.7" height="2.9"/>
		<path class="st22" d="M409.3,255l0.2,1.7c-3.2,2.8-9.7,10-10.9,10.3c-1.2,0.3-5.4-2.7-5.4-2.7l-3.6,0.7c0,0-3.4,3-3.3,3.2
			c0.5,0.4,3.2-1.5,3.2-1.5h0.9c0,0-0.9,0.6-1,1c-0.1,0.4-1.3,3.8-1.1,3.9c0.2,0.1,0.8-0.2,0.8-0.2c0,0.3-0.5,0.5,0.1,0.4
			c0.6-0.1,1.9-1.9,1.9-1.9l-0.1,2.1c0.5,0,0.9-1.6,1.2-2.1c0.3-0.5,3.4-0.6,4.3,0.5c0.9,1.1,2.6,2.3,5.1,0.1
			c6.5-2.8,15.8-9.5,15.9-11.3c0-1.7-0.9-5.6-0.9-5.6C414.2,254.6,410.8,255.2,409.3,255z"/>
		<path class="st29" d="M389.3,270.7C389.3,270.7,389.3,270.7,389.3,270.7c-0.1,0-0.1-0.1-0.1-0.1c0.1-0.2,0.9-2.3,1.2-2.5
			c0.3-0.2,1.3-0.8,1.4-0.8c0.1,0,0.1,0,0.1,0c0,0.1,0,0.1,0,0.1c0,0-1.1,0.6-1.3,0.8C390.4,268.4,389.7,269.8,389.3,270.7
			C389.4,270.7,389.3,270.7,389.3,270.7z"/>
		<polygon class="st23" points="389.9,267.2 383.2,264.7 381.7,264.8 382.9,265.6 389.3,268.2 389.5,267.6 		"/>
		<path class="st1" d="M336.9,250.2H354c-8.2,13.3-1.3,23.4-1.3,23.4s-18.9,1.4-19.2,1.4C328.5,265.7,334.9,251.9,336.9,250.2z"/>
	</g>
	<g>
		<g>
			<path class="st2" d="M21.1,339.1v-1.3c0-1.8-0.7-3.6-2-5.1c-1.3-1.5-2-3.4-2-5.4c0-2.3,0.9-4.5,2.6-6.1c1.7-1.6,3.9-2.4,6.2-2.3
				c4.2,0.2,7.7,3.7,8,7.9c0.1,2.1-0.6,4.1-1.9,5.8c-1.4,1.6-2.1,3.5-2.1,5.5v1.1c0,2.4-2,4.4-4.4,4.4S21.1,341.5,21.1,339.1z
				 M20.3,321.8c-1.5,1.4-2.3,3.3-2.3,5.4c0,1.8,0.6,3.5,1.8,4.8c1.4,1.7,2.2,3.7,2.2,5.7v1.3c0,1.9,1.6,3.5,3.5,3.5
				s3.5-1.6,3.5-3.5V338c0-2.1,0.8-4.3,2.3-6.1c1.2-1.4,1.8-3.3,1.7-5.1c-0.2-3.8-3.3-6.9-7.1-7c-0.1,0-0.2,0-0.4,0
				C23.6,319.8,21.7,320.5,20.3,321.8z"/>
		</g>
		<g>
			<rect x="25" y="311.1" class="st2" width="0.9" height="5.8"/>
		</g>
		<g>
			
				<rect x="15.7" y="315.1" transform="matrix(0.7071 -0.7071 0.7071 0.7071 -220.1259 104.5466)" class="st2" width="0.9" height="5.8"/>
		</g>
		<g>
			<rect x="9.4" y="326.9" class="st2" width="5.8" height="0.9"/>
		</g>
		<g>
			
				<rect x="32" y="317.4" transform="matrix(0.7071 -0.7071 0.7071 0.7071 -214.526 117.7733)" class="st2" width="5.8" height="0.9"/>
		</g>
		<g>
			<rect x="35.9" y="326.8" class="st2" width="5.8" height="0.9"/>
		</g>
		<g>
			<rect x="22.2" y="336.1" class="st2" width="6.7" height="0.9"/>
		</g>
		<g>
			<rect x="22.6" y="338.8" class="st2" width="6" height="0.9"/>
		</g>
	</g>
	<g>
		<g>
			<rect x="283.7" y="148.5" class="st2" width="0.9" height="3"/>
		</g>
		<g>
			<rect x="283.7" y="153.6" class="st2" width="0.9" height="3"/>
		</g>
		<g>
			<rect x="280.1" y="152.1" class="st2" width="3" height="0.9"/>
		</g>
		<g>
			<rect x="285.2" y="152.1" class="st2" width="3" height="0.9"/>
		</g>
	</g>
	<g>
		<g>
			<rect x="49.2" y="352.4" class="st2" width="0.9" height="3"/>
		</g>
		<g>
			<rect x="49.2" y="357.5" class="st2" width="0.9" height="3"/>
		</g>
		<g>
			<rect x="45.6" y="356" class="st2" width="3" height="0.9"/>
		</g>
		<g>
			<rect x="50.7" y="356" class="st2" width="3" height="0.9"/>
		</g>
	</g>
	<g>
		<g>
			<line class="st2" x1="475.7" y1="290.5" x2="475.7" y2="291.3"/>
		</g>
	</g>
	<g>
		<g>
			<rect x="109.3" y="114" class="st2" width="0.9" height="3"/>
		</g>
		<g>
			<rect x="109.3" y="119.1" class="st2" width="0.9" height="3"/>
		</g>
		<g>
			<rect x="105.7" y="117.6" class="st2" width="3" height="0.9"/>
		</g>
		<g>
			<rect x="110.8" y="117.6" class="st2" width="3" height="0.9"/>
		</g>
	</g>
	<g>
		<g>
			<path class="st2" d="M428.4,135.8l2.6,2l-9.7,12.2l-2.6-2L428.4,135.8z M430.4,137.9l-2-1.5l-9.2,11.6l2,1.5L430.4,137.9z"/>
		</g>
		<g>
			<path class="st2" d="M431.2,134.8l-0.4,3.4L428,136L431.2,134.8z M430.8,135.4l-2,0.7l1.7,1.4L430.8,135.4z"/>
		</g>
		<g>
			<path class="st2" d="M420.7,145.5l2.6,2l-2,2.6l-2.6-2L420.7,145.5z M422.8,147.6l-2-1.5l-1.5,2l2,1.5L422.8,147.6z"/>
		</g>
	</g>
	<g>
		<g>
			<path class="st2" d="M303.7,125.7h14.8l3.8,3.8V151h-18.6V125.7z M321.6,129.8l-3.4-3.4h-13.8v24h17.3V129.8z"/>
		</g>
		<g>
			<polygon class="st2" points="316.8,131.2 321,131.2 321,130.6 317.5,130.6 317.5,127.1 316.8,127.1 			"/>
		</g>
	</g>
	<g>
		<g>
			<path class="st2" d="M451.1,251.7c0-0.1-3.4-5.7-13.1-16l-0.4,0.4c9.6,10.2,13,15.8,13,15.9L451.1,251.7z"/>
		</g>
		<g>
			<path class="st2" d="M447.9,248.1c-0.3,0-6.8-0.2-10.3-4.3l-0.4-0.5l0.6,0c1.5-0.1,2.6-0.2,3.3-0.2c-1.1-0.3-2.7-0.8-4.8-1.4
				l-0.1,0l-0.1-0.1c-1.8-3.9-1.2-8.3-1.1-8.5l0-0.3l0.3,0c0.1,0,3.5,0.1,6.7,1.6l0.2,0.1l0,0.2c-0.1,0.7-0.1,1.6-0.2,2.3l1.3-1.9
				l0.3,0.2c0.8,0.5,1.5,1.2,2.1,1.9c3.5,4.2,2.7,10.6,2.6,10.9l0,0.3L447.9,248.1z M441.2,239l0.1-1.1c0,0,0.1-1.8,0.2-3.2
				c-2.5-1.2-5.1-1.4-6-1.5c-0.1,1-0.3,4.6,1.1,7.8c6.3,1.9,6.3,1.9,6.3,2.2l0,0.2l-0.2,0c0,0-0.2,0-4.2,0.3c3,3.1,8,3.7,9.3,3.7
				c0.1-1.3,0.4-6.7-2.5-10.1c-0.5-0.6-1.1-1.1-1.7-1.6L441.2,239z"/>
		</g>
	</g>
</g>
</svg>
