<?xml version="1.0" encoding="utf-8"?>
<!-- Generator: Adobe Illustrator 25.2.1, SVG Export Plug-In . SVG Version: 6.00 Build 0)  -->
<svg version="1.1" id="Layer_1" xmlns="http://www.w3.org/2000/svg" xmlns:xlink="http://www.w3.org/1999/xlink" x="0px" y="0px"
	 width="1000px" height="1000px" viewBox="0 0 1000 1000" style="enable-background:new 0 0 1000 1000;" xml:space="preserve">
<style type="text/css">
	.st0{fill:#72C383;}
	.st1{fill:#FEF6E5;}
	.st2{fill:#A7B4A9;}
	.st3{fill:#68796C;}
	.st4{fill:#7D9181;}
	.st5{fill:#81585C;}
	.st6{fill:#C8DDEA;}
	.st7{fill:#D4EFFC;}
	.st8{fill:#87819D;}
	.st9{fill:#A9A1C4;}
	.st10{fill:#D6D0E8;}
	.st11{fill:#6B6483;}
	.st12{fill:#48435A;}
	.st13{fill:#424242;}
	.st14{fill:#FFCF82;}
	.st15{fill:#5F5874;}
	.st16{fill:#EFB4A9;}
	.st17{fill:#EFE2C9;}
	.st18{fill:#FFFDFA;}
	.st19{fill:#E0E0E0;}
	.st20{fill:#B5465B;}
	.st21{fill:#F1617F;}
	.st22{fill:#F58765;}
	.st23{fill:#2C1913;}
	.st24{fill:#503126;}
	.st25{fill:#76A4BB;}
	.st26{fill:#D77254;}
	.st27{fill:#EA7C5A;}
	.st28{fill:#72D0F1;}
	.st29{fill:#E0B3A8;}
	.st30{fill:#CCCCCC;}
	.st31{fill:#B3B3B3;}
	.st32{fill:#595174;}
	.st33{fill:#8F88A6;}
	.st34{fill:#6C494C;}
	.st35{fill:#4E3537;}
	.st36{fill:#F04D4C;}
	.st37{fill:none;}
</style>
<g>
	<rect class="st0" width="1000" height="1000"/>
	<g>
		<g>
			<path class="st1" d="M149.6,774.4c-102-43.4-153-300.8-23-431.8s309.8-133,421.8-13s165,147,259,138s176,260,14,308.4
				L149.6,774.4z"/>
			<path class="st1" d="M685.6,264.6c-104.4-24.2-93,104.2-24,133.4C721.6,423.4,841.6,300.6,685.6,264.6z"/>
			<path class="st2" d="M879.6,776h-743c-15.2,0-27.6,12.4-27.6,27.6v0.8h798.2v-0.8C907.2,788.2,894.8,776,879.6,776z"/>
		</g>
		<g>
			<g>
				<path class="st2" d="M413.8,356.4c-0.6,0-1,0-1.6,0c-0.4,0-0.6-0.4-0.6-0.8s0.4-0.6,0.8-0.6c2.8,0,5.6,0,8.4-0.4
					c0.4,0,0.8,0.2,0.8,0.6s-0.2,0.8-0.6,0.8C418.4,356.2,416.2,356.4,413.8,356.4z M404,355.6C403.8,355.6,403.8,355.6,404,355.6
					c-3-0.4-5.6-1-8.4-1.8c-0.4-0.2-0.6-0.4-0.4-0.8s0.4-0.6,0.8-0.4c2.6,0.8,5.4,1.4,8.2,1.8c0.4,0,0.6,0.4,0.6,0.8
					C404.6,355.4,404.2,355.6,404,355.6z M429,354.6c-0.4,0-0.6-0.2-0.6-0.6s0.2-0.8,0.6-0.8c2.6-0.6,5.4-1.4,8-2.4
					c0.4-0.2,0.8,0,1,0.4s0,0.8-0.4,1C434.6,353,431.8,353.8,429,354.6L429,354.6z M387.8,350.8h-0.2c-2.6-1.2-5.2-2.4-7.6-4
					c-0.4-0.2-0.4-0.6-0.2-1c0.2-0.4,0.6-0.4,1-0.2c2.4,1.4,4.8,2.8,7.4,3.8c0.4,0.2,0.6,0.6,0.4,1
					C388.4,350.6,388.2,350.8,387.8,350.8z M444.6,348.6c-0.2,0-0.4-0.2-0.6-0.4c-0.2-0.4,0-0.8,0.2-1c2.4-1.4,4.8-2.8,7-4.4
					c0.4-0.2,0.8-0.2,1,0.2c0.2,0.4,0.2,0.8-0.2,1c-2.2,1.6-4.6,3.2-7.2,4.6C444.8,348.6,444.6,348.6,444.6,348.6z M373.6,342
					c-0.2,0-0.4,0-0.4-0.2C371,340,369,338,367,336c-0.2-0.2-0.2-0.8,0-1s0.8-0.2,1,0c2,2,4,3.8,6.2,5.6c0.4,0.2,0.4,0.6,0.2,1
					C374,342,373.8,342,373.6,342z M458.2,338.6c-0.2,0-0.4,0-0.6-0.2s-0.2-0.8,0-1c2-2,3.8-4,5.6-6.2c0.2-0.4,0.6-0.4,1-0.2
					c0.4,0.2,0.4,0.6,0.2,1c-1.8,2.2-3.8,4.2-5.8,6.2C458.4,338.6,458.2,338.6,458.2,338.6z M362,330c-0.2,0-0.4,0-0.6-0.2
					c-1.6-2.2-3.2-4.6-4.6-7.2c-0.2-0.4,0-0.8,0.2-1c0.4-0.2,0.8,0,1,0.2c1.4,2.4,2.8,4.8,4.4,7c0.2,0.4,0.2,0.8-0.2,1
					C362.2,329.8,362.2,330,362,330z M468.6,325.6c-0.2,0-0.2,0-0.4-0.2c-0.4-0.2-0.4-0.6-0.2-1c1.4-2.4,2.8-4.8,3.8-7.4
					c0.2-0.4,0.6-0.6,1-0.4s0.6,0.6,0.4,1c-1.2,2.6-2.4,5.2-4,7.6C469.2,325.4,468.8,325.6,468.6,325.6z M354,315.2
					c-0.2,0-0.6-0.2-0.6-0.4c-1-2.6-1.8-5.4-2.6-8.2c0-0.4,0.2-0.8,0.6-0.8s0.8,0.2,0.8,0.6c0.6,2.6,1.4,5.4,2.4,8
					c0.2,0.4,0,0.8-0.4,1C354.2,315.2,354,315.2,354,315.2z M350,299c-0.4,0-0.6-0.2-0.6-0.6c-0.2-2.2-0.4-4.6-0.4-6.8
					c0-0.6,0-1.2,0-1.6s0.4-0.8,0.8-0.6c0.4,0,0.6,0.4,0.6,0.8c0,0.6,0,1,0,1.6c0,2.2,0.2,4.4,0.4,6.6
					C350.8,298.6,350.6,298.8,350,299C350.2,299,350.2,299,350,299z M350.6,282.2C350.4,282.2,350.4,282.2,350.6,282.2
					c-0.4,0-0.8-0.4-0.6-0.8c0.4-2.8,1-5.6,1.8-8.2c0.2-0.4,0.4-0.6,0.8-0.4s0.6,0.4,0.4,0.8c-0.8,2.6-1.4,5.4-1.8,8.2
					C351.2,282,350.8,282.2,350.6,282.2z M355.2,266.2H355c-0.4-0.2-0.6-0.6-0.4-1c1.2-2.6,2.4-5.2,4-7.6c0.2-0.4,0.6-0.4,1-0.2
					c0.4,0.2,0.4,0.6,0.2,1c-1.4,2.4-2.8,4.8-3.8,7.4C355.8,266,355.6,266.2,355.2,266.2z M470.4,261.8c-0.2,0-0.4-0.2-0.6-0.4
					c-1.4-2.4-2.8-4.8-4.4-7c-0.2-0.4-0.2-0.8,0.2-1c0.4-0.2,0.8-0.2,1,0.2c1.6,2.2,3.2,4.8,4.6,7.2c0.2,0.4,0,0.8-0.2,1
					C470.6,261.6,470.4,261.8,470.4,261.8z M364,251.8c-0.2,0-0.4,0-0.4-0.2c-0.4-0.2-0.4-0.6-0.2-1c1.8-2.2,3.8-4.2,5.8-6.2
					c0.2-0.2,0.8-0.2,1,0s0.2,0.8,0,1c-2,2-4,4-5.6,6C364.4,251.8,364.2,251.8,364,251.8z M460.4,248.2c-0.2,0-0.4,0-0.6-0.2
					c-1.8-2-4-4-6-5.6c-0.4-0.2-0.4-0.6-0.2-1c0.2-0.2,0.6-0.4,1-0.2c2.2,1.8,4.2,3.8,6.2,5.8c0.2,0.2,0.2,0.8,0,1
					C460.8,248,460.6,248.2,460.4,248.2z M376.2,240.2c-0.2,0-0.4,0-0.6-0.2c-0.2-0.4-0.2-0.8,0.2-1c2.2-1.6,4.6-3.2,7.2-4.6
					c0.4-0.2,0.8,0,1,0.2c0.2,0.4,0,0.8-0.2,1c-2.4,1.4-4.8,2.8-7,4.4C376.4,240.2,376.4,240.2,376.2,240.2z M447.4,237.6
					c-0.2,0-0.2,0-0.4-0.2c-2.4-1.4-4.8-2.8-7.4-3.8c-0.4-0.2-0.6-0.6-0.4-1s0.6-0.6,1-0.4c2.6,1.2,5.2,2.4,7.6,4
					c0.4,0.2,0.4,0.6,0.2,1C448,237.4,447.8,237.6,447.4,237.6z M391,232.4c-0.2,0-0.6-0.2-0.6-0.4c-0.2-0.4,0-0.8,0.4-1
					c2.6-1,5.4-1.8,8.2-2.6c0.4,0,0.8,0.2,0.8,0.6c0,0.4-0.2,0.8-0.6,0.8c-2.6,0.6-5.4,1.4-8,2.4C391,232.2,391,232.4,391,232.4z
					 M432.2,230.8C432.2,230.8,432,230.8,432.2,230.8c-2.8-0.8-5.6-1.4-8.4-1.8c-0.4,0-0.6-0.4-0.6-0.8c0-0.4,0.4-0.6,0.8-0.6
					c2.8,0.4,5.6,1,8.2,1.8c0.4,0.2,0.6,0.6,0.4,0.8C432.8,230.6,432.4,230.8,432.2,230.8z M407.2,228.4c-0.4,0-0.6-0.2-0.6-0.6
					c0-0.4,0.2-0.8,0.6-0.8c2.8-0.2,5.6-0.4,8.4-0.4c0.4,0,0.6,0.4,0.6,0.8c0,0.4-0.4,0.6-0.8,0.6C412.8,228,410,228.2,407.2,228.4
					L407.2,228.4z"/>
			</g>
		</g>
		<g>
			<path class="st2" d="M521.2,299.8h-68.4l-0.2-0.8c-0.4-2.6,0.6-5,2.8-6.6c2.6-2,6.4-2.6,10-1.6c0.2-6.4,2.2-11.8,5.8-15.6
				c3.8-3.8,9.4-6,15.8-6c6.2,0,11.8,2,15.8,6c3.8,3.8,5.8,9.2,5.8,15.6c3.6-1,7.4-0.4,10,1.6c2,1.6,3,4,2.8,6.6L521.2,299.8z
				 M454.6,297.8h64.8c0-2-1-3.4-2-4c-2.4-1.8-6.2-2.2-9.4-0.8l-1.4,0.6v-1.4c0.2-6.4-1.6-11.8-5.2-15.4c-3.4-3.6-8.6-5.4-14.4-5.4
				s-11,1.8-14.4,5.4c-3.6,3.6-5.4,9-5.2,15.4v1.4L466,293c-3.2-1.2-7.2-1-9.4,0.8C455.6,294.6,454.6,295.8,454.6,297.8z"/>
		</g>
		<g>
			<g>
				<g>
					<path class="st2" d="M899,362.8c0.4,0,0.8-0.2,0.8-0.6s-0.2-0.8-0.6-1c-1.6-0.2-3.2-0.6-4.8-0.8c-0.4,0-0.8,0.2-1,0.6
						c0,0.4,0.2,0.8,0.6,1C895.8,362.2,897.4,362.6,899,362.8L899,362.8z"/>
				</g>
			</g>
			<g>
				<g>
					<path class="st2" d="M852.8,365.2h0.2c1.6-0.4,3.2-0.8,4.6-1.2c0.4-0.2,0.8-0.6,0.6-1s-0.6-0.8-1-0.6c-1.6,0.4-3.2,0.8-4.8,1.2
						c-0.4,0.2-0.6,0.6-0.6,1C852.2,365,852.4,365.2,852.8,365.2z"/>
				</g>
				<g>
					<path class="st2" d="M879.6,568.2c-3.2,0-6.6-0.2-9.8-0.6c-0.4,0-0.8-0.4-0.8-0.8c0-0.4,0.4-0.8,0.8-0.8
						c3.2,0.4,6.4,0.6,9.8,0.6c0.4,0,0.8,0.4,0.8,0.8C880.4,567.8,880,568.2,879.6,568.2L879.6,568.2z M888.6,567.2
						c0-0.4,0.2-0.8,0.8-0.8c3.2-0.2,6.4-0.6,9.6-1.2c0.4,0,0.8,0.2,1,0.6c0,0.4-0.2,0.8-0.6,1c-3.2,0.6-6.6,1-9.8,1.2l0,0
						C889,567.8,888.6,567.6,888.6,567.2z M860,566c-3.2-0.6-6.4-1.4-9.6-2.4c-0.4-0.2-0.6-0.6-0.6-1c0.2-0.4,0.6-0.6,1-0.6
						c3,1,6.2,1.8,9.4,2.4c0.4,0,0.8,0.6,0.6,1C860.8,565.8,860.4,566.2,860,566C860,566.2,860,566,860,566z M908,563.8
						c-0.2-0.4,0.2-0.8,0.6-1c3.2-0.8,6.2-1.8,9.2-3c0.4-0.2,0.8,0,1,0.4s0,0.8-0.4,1c-3,1.2-6.2,2.2-9.4,3.2h-0.2
						C908.4,564.4,908,564.2,908,563.8z M841,560.2c-3-1.2-6-2.6-9-4.2c-0.4-0.2-0.6-0.6-0.4-1c0.2-0.4,0.6-0.6,1-0.4
						c2.8,1.6,5.8,3,8.8,4.2c0.4,0.2,0.6,0.6,0.4,1C841.6,560.2,841.4,560.2,841,560.2C841.2,560.4,841,560.4,841,560.2z M926.4,557
						c-0.2-0.4,0-0.8,0.4-1c2.8-1.4,5.8-3,8.6-4.8c0.4-0.2,0.8-0.2,1.2,0.2c0.2,0.4,0.2,0.8-0.2,1.2c-2.8,1.8-5.8,3.4-8.6,4.8
						c-0.2,0-0.2,0-0.4,0C926.8,557.4,926.6,557.2,926.4,557z M823.6,551c-2.8-1.8-5.4-3.8-8-5.8c-0.4-0.2-0.4-0.8-0.2-1.2
						s0.8-0.4,1.2-0.2c2.6,2,5.2,4,7.8,5.8c0.4,0.2,0.4,0.8,0.2,1.2c-0.2,0.2-0.4,0.4-0.6,0.4C823.8,551,823.6,551,823.6,551z
						 M943.2,546.8c-0.2-0.4-0.2-0.8,0.2-1.2c2.6-2,5-4,7.4-6.2c0.4-0.4,0.8-0.2,1.2,0c0.4,0.4,0.2,0.8,0,1.2
						c-2.4,2.2-5,4.4-7.6,6.4c-0.2,0.2-0.4,0.2-0.4,0.2C943.6,547,943.4,547,943.2,546.8z M808.2,538.6c-2.4-2.4-4.6-4.8-6.8-7.2
						c-0.2-0.4-0.2-0.8,0-1.2c0.4-0.2,0.8-0.2,1.2,0c2,2.4,4.4,4.8,6.6,7.2c0.4,0.4,0.4,0.8,0,1.2c-0.2,0.2-0.4,0.2-0.6,0.2
						C808.4,538.8,808.2,538.6,808.2,538.6z M795.4,523.4c-1.8-2.8-3.6-5.6-5.2-8.4c-0.2-0.4,0-0.8,0.4-1s0.8,0,1,0.4
						c1.6,2.8,3.4,5.6,5.2,8.2c0.2,0.4,0.2,0.8-0.2,1.2c-0.2,0-0.4,0.2-0.4,0.2C795.8,523.8,795.4,523.6,795.4,523.4z M785.6,506.2
						c-1.4-3-2.6-6.2-3.6-9.2c-0.2-0.4,0-0.8,0.6-1c0.4-0.2,0.8,0,1,0.6c1,3,2.2,6.2,3.6,9.2c0.2,0.4,0,0.8-0.4,1
						c-0.2,0-0.2,0-0.4,0C786,506.6,785.8,506.4,785.6,506.2z M779.4,487.4c-0.8-3.2-1.4-6.4-1.8-9.8c0-0.4,0.2-0.8,0.6-1
						c0.4,0,0.8,0.2,1,0.6c0.4,3.2,1,6.4,1.8,9.6c0,0.4-0.2,0.8-0.6,1h-0.2C779.8,488,779.4,487.8,779.4,487.4z M776.8,467.8
						c0-1.2,0-2.6,0-3.8c0-2,0-4,0.2-6.2c0-0.4,0.4-0.8,0.8-0.8c0.4,0,0.8,0.4,0.8,0.8c-0.2,2-0.2,4-0.2,6c0,1.2,0,2.4,0,3.8
						c0,0.4-0.4,0.8-0.8,0.8l0,0C777.2,468.4,776.8,468.2,776.8,467.8z M778.6,448.8c-0.4,0-0.8-0.4-0.6-1c0.6-3.2,1.2-6.6,2-9.8
						c0.2-0.4,0.6-0.6,1-0.6c0.4,0.2,0.6,0.6,0.6,1c-0.8,3.2-1.4,6.4-2,9.6C779.4,448.6,779.2,448.8,778.6,448.8
						C778.8,448.8,778.6,448.8,778.6,448.8z M783.2,429.8c-0.4-0.2-0.6-0.6-0.4-1c1.2-3,2.4-6.2,3.8-9.2c0.2-0.4,0.6-0.6,1-0.4
						s0.6,0.6,0.4,1c-1.4,3-2.6,6-3.8,9c-0.2,0.4-0.4,0.6-0.8,0.6C783.4,429.8,783.4,429.8,783.2,429.8z M791.6,412
						c-0.4-0.2-0.6-0.8-0.2-1.2c1.6-2.8,3.6-5.6,5.4-8.2c0.2-0.4,0.8-0.4,1.2-0.2c0.4,0.2,0.4,0.8,0.2,1.2c-2,2.6-3.8,5.4-5.4,8.2
						c-0.2,0.2-0.4,0.4-0.6,0.4C791.8,412,791.6,412,791.6,412z M803,396c-0.4-0.2-0.4-0.8,0-1.2c2.2-2.4,4.6-4.8,7-7.2
						c0.4-0.4,0.8-0.2,1.2,0c0.4,0.4,0.2,0.8,0,1.2c-2.4,2.2-4.6,4.6-6.8,7c-0.2,0.2-0.4,0.2-0.6,0.2
						C803.4,396.2,803.2,396.2,803,396z M817.2,382.4c-0.2-0.4-0.2-0.8,0.2-1.2c2.6-2,5.4-4,8.2-5.6c0.4-0.2,0.8-0.2,1.2,0.2
						c0.2,0.4,0.2,0.8-0.2,1.2c-2.8,1.8-5.4,3.6-8,5.6c-0.2,0.2-0.4,0.2-0.4,0.2C817.6,382.8,817.4,382.6,817.2,382.4z M833.8,371.8
						c-0.2-0.4,0-0.8,0.4-1c3-1.4,6-2.8,9-4c0.4-0.2,0.8,0,1,0.4s0,0.8-0.4,1c-3,1.2-6,2.6-9,4c-0.2,0-0.2,0-0.4,0
						C834.2,372.2,833.8,372.2,833.8,371.8z"/>
				</g>
			</g>
			<g>
				<g>
					<path class="st2" d="M899,362.8c0.4,0,0.8-0.2,0.8-0.6s-0.2-0.8-0.6-1c-1.6-0.2-3.2-0.6-4.8-0.8c-0.4,0-0.8,0.2-1,0.6
						c0,0.4,0.2,0.8,0.6,1C895.8,362.2,897.4,362.6,899,362.8L899,362.8z"/>
				</g>
			</g>
			<g>
				<path class="st2" d="M870.6,364.2l-12.8-9.2h15.8l4.8-15l4.8,15H899l-12.8,9.2l4.8,15l-12.8-9.2l-12.8,9.2L870.6,364.2z
					 M888.2,375l-3.8-11.4l9.8-7h-12l-3.8-11.4l-3.8,11.4h-12l9.8,7l-3.8,11.4l9.8-7L888.2,375z"/>
			</g>
		</g>
		<g>
			<g>
				<path class="st2" d="M199,378.2c-0.6,0-1-0.6-0.8-1c0-0.6,0.6-1,1-0.8c3.8,0.4,7.8,0.6,11.8,0.4c0.6,0,1,0.4,1,1s-0.4,1-1,1
					c-0.8,0-1.6,0-2.2,0C205.4,378.6,202.2,378.6,199,378.2z M221.8,376.8c0-0.6,0.2-1,0.8-1.2c3.8-0.6,7.8-1.4,11.4-2.6
					c0.6-0.2,1,0.2,1.2,0.6c0.2,0.6-0.2,1-0.6,1.2c-3.8,1.2-7.8,2-11.6,2.6h-0.2C222.2,377.6,221.8,377.2,221.8,376.8z M187.2,376.2
					c-3.8-1-7.8-2.2-11.4-3.6c-0.6-0.2-0.8-0.8-0.6-1.2c0.2-0.6,0.8-0.8,1.2-0.6c3.6,1.4,7.4,2.6,11.2,3.4c0.6,0.2,0.8,0.6,0.8,1.2
					c-0.2,0.4-0.6,0.8-1,0.8C187.4,376.2,187.2,376.2,187.2,376.2z M244.6,370.4c-0.2-0.4,0-1,0.6-1.4c3.6-1.6,7-3.4,10.4-5.4
					c0.4-0.2,1-0.2,1.4,0.4c0.2,0.4,0.2,1-0.4,1.4c-3.4,2-7,4-10.6,5.6c-0.2,0-0.2,0-0.4,0C245,371,244.8,370.8,244.6,370.4z
					 M164.8,367.6c-3.4-2-6.8-4-10.2-6.4c-0.4-0.4-0.6-1-0.2-1.4c0.4-0.4,1-0.6,1.4-0.2c3.2,2.4,6.4,4.4,10,6.2
					c0.4,0.2,0.6,0.8,0.4,1.4c-0.2,0.4-0.6,0.6-0.8,0.6C165.2,367.6,165,367.6,164.8,367.6z M264.8,358.2c-0.4-0.4-0.2-1,0.2-1.4
					c3-2.4,6-5.2,8.6-8c0.4-0.4,1-0.4,1.4,0s0.4,1,0,1.4c-2.8,2.8-5.8,5.6-8.8,8.2c-0.2,0.2-0.4,0.2-0.6,0.2
					C265.4,358.6,265,358.4,264.8,358.2z M145.6,353.4c-2.8-2.8-5.6-5.8-8.2-8.8c-0.4-0.4-0.2-1,0.2-1.4s1-0.2,1.4,0.2
					c2.4,3,5.2,6,8,8.6c0.4,0.4,0.4,1,0,1.4c-0.2,0.2-0.4,0.4-0.8,0.4C146,353.8,145.8,353.6,145.6,353.4z M281.4,341.2
					c-0.4-0.4-0.6-1-0.2-1.4c2.2-3.2,4.4-6.4,6.2-10c0.2-0.4,0.8-0.6,1.4-0.4c0.4,0.2,0.6,0.8,0.4,1.4c-2,3.4-4,7-6.4,10.2
					c-0.2,0.2-0.4,0.4-0.8,0.4C281.8,341.4,281.6,341.4,281.4,341.2z M130.6,334.8c-2-3.4-4-7-5.6-10.6c-0.2-0.4,0-1,0.6-1.4
					c0.4-0.2,1,0,1.4,0.6c1.6,3.6,3.4,7,5.4,10.4c0.2,0.4,0.2,1-0.4,1.4c-0.2,0-0.4,0.2-0.6,0.2C131,335.2,130.6,335.2,130.6,334.8z
					 M292.8,320.6c-0.6-0.2-0.8-0.8-0.6-1.2c1.4-3.6,2.6-7.4,3.4-11.2c0.2-0.6,0.6-0.8,1.2-0.8c0.6,0.2,0.8,0.6,0.8,1.2
					c-1,3.8-2.2,7.8-3.6,11.4c-0.2,0.4-0.6,0.6-1,0.6C293.2,320.6,293,320.6,292.8,320.6z M298.6,297.6c-0.6,0-1-0.6-0.8-1
					c0.4-3,0.4-6.2,0.4-9.4c0-0.8,0-1.6,0-2.4c0-0.6,0.4-1,1-1s1,0.4,1,1c0,0.8,0,1.6,0,2.4c0,3.2-0.2,6.4-0.4,9.6
					C299.6,297.2,299.2,297.6,298.6,297.6C298.8,297.6,298.6,297.6,298.6,297.6z M297.2,273.2c-0.6-3.8-1.4-7.8-2.6-11.4
					c-0.2-0.6,0.2-1,0.6-1.2c0.6-0.2,1,0.2,1.2,0.6c1.2,3.8,2,7.8,2.6,11.6c0,0.6-0.2,1-0.8,1.2H298
					C297.6,274,297.2,273.6,297.2,273.2z M290.6,250.6c-1.6-3.6-3.4-7-5.4-10.4c-0.2-0.4-0.2-1,0.4-1.4c0.4-0.2,1-0.2,1.4,0.4
					c2,3.4,4,7,5.6,10.6c0.2,0.4,0,1-0.6,1.4c-0.2,0-0.2,0-0.4,0C291,251.2,290.8,251,290.6,250.6z M128.6,245
					c-0.4-0.2-0.6-0.8-0.4-1.4c1.8-3.6,4-7,6.4-10.2c0.4-0.4,1-0.6,1.4-0.2c0.4,0.4,0.6,1,0.2,1.4c-2.2,3.2-4.4,6.6-6.2,10
					c-0.2,0.4-0.6,0.6-0.8,0.6C128.8,245,128.6,245,128.6,245z M278.2,230.8c-2.4-3-5.2-6-8-8.6c-0.4-0.4-0.4-1,0-1.4s1-0.4,1.4,0
					c2.8,2.8,5.6,5.8,8.2,8.8c0.4,0.4,0.2,1-0.2,1.4c-0.2,0.2-0.4,0.2-0.6,0.2S278.4,231,278.2,230.8z M142.2,225.6
					c-0.4-0.4-0.4-1,0-1.4c2.8-2.8,5.6-5.6,8.8-8.2c0.4-0.4,1-0.2,1.4,0.2s0.2,1-0.2,1.4c-3,2.4-6,5.2-8.6,8
					c-0.2,0.2-0.4,0.4-0.8,0.4C142.6,226,142.4,225.8,142.2,225.6z M261.2,214.6c-3.2-2.2-6.4-4.4-10-6.2c-0.4-0.2-0.6-0.8-0.4-1.4
					c0.2-0.4,0.8-0.6,1.4-0.4c3.4,2,7,4,10.2,6.4c0.4,0.4,0.6,1,0.2,1.4c-0.2,0.2-0.4,0.4-0.8,0.4
					C261.6,214.8,261.4,214.8,261.2,214.6z M160.4,210.6c-0.2-0.4-0.2-1,0.4-1.4c3.4-2,7-4,10.6-5.6c0.4-0.2,1,0,1.4,0.4
					c0.2,0.4,0,1-0.4,1.4c-3.6,1.6-7,3.4-10.4,5.4c-0.2,0-0.4,0.2-0.6,0.2C161,211,160.6,210.8,160.4,210.6z M240.8,203.4
					c-3.6-1.4-7.4-2.6-11.2-3.4c-0.6-0.2-0.8-0.6-0.8-1.2c0.2-0.6,0.6-0.8,1.2-0.8c3.8,1,7.8,2.2,11.4,3.6c0.6,0.2,0.8,0.8,0.6,1.2
					s-0.6,0.6-1,0.6C241,203.6,240.8,203.6,240.8,203.4z M182,200.6c-0.2-0.6,0.2-1,0.6-1.2c3.8-1.2,7.8-2,11.6-2.6
					c0.6,0,1,0.2,1.2,0.8c0,0.6-0.2,1-0.8,1.2c-3.8,0.6-7.8,1.4-11.4,2.6H183C182.4,201.4,182,201,182,200.6z M218,198
					c-3.8-0.4-7.8-0.6-11.8-0.4c-0.6,0-1-0.4-1-1s0.4-1,1-1c4-0.2,8,0,12,0.4c0.6,0,1,0.6,0.8,1C219,197.6,218.6,198,218,198
					L218,198z"/>
			</g>
		</g>
		<g>
			<g>
				<path class="st2" d="M118.8,311.4h29.8c7.4,0,13.2-6,13.2-13.2V262c0-1.6-1.2-2.8-2.8-2.8v1c1,0,1.8,0.8,1.8,1.8v36.2
					c0,6.6-5.4,12.2-12.2,12.2h-29.8c-1,0-1.8-0.8-1.8-1.8v-2.4h-1v2.4C116,310.2,117.2,311.4,118.8,311.4z"/>
			</g>
			<g>
				<path class="st2" d="M118.2,279.6c0-11.2,9-20.2,20.2-20.2h21v27.4c0,11.2-9,20.2-20.2,20.2h-21V279.6z M138.6,260.4
					c-10.6,0-19.2,8.6-19.2,19.2v26.2h20c10.6,0,19.2-8.6,19.2-19.2v-26.2H138.6z"/>
			</g>
			<g>
				<path class="st2" d="M88.8,311.4h29.8c1.6,0,2.8-1.2,2.8-2.8v-2.4h-1v2.4c0,1-0.8,1.8-1.8,1.8H88.8c-6.6,0-12.2-5.4-12.2-12.2
					V262c0-1,0.8-1.8,1.8-1.8v-1c-1.6,0-2.8,1.2-2.8,2.8v36.2C75.6,305.6,81.4,311.4,88.8,311.4z"/>
			</g>
			<g>
				<path class="st2" d="M77.8,286.6v-27.4h21c11.2,0,20.2,9,20.2,20.2v27.4H98.2C87,306.8,77.8,297.8,77.8,286.6z M118,279.6
					c0-10.6-8.6-19.2-19.2-19.2h-20v26.2c0,10.6,8.6,19.2,19.2,19.2h20V279.6z"/>
			</g>
		</g>
		<g>
			<path class="st3" d="M790.2,757c66.8-62.2,191-72.8,191-72.8c-15.4,6-18.4,14-24.4,23.4c-6.2,9.6-23.4,2.6-32.2,0.4
				s-6.6,34.6-20.8,41s-25.6-13.2-36-3.4s-13.2,32-30.2,26.8s-19.6-12.2-27.8-1.8c-8.4,10.4-22.2-0.6-33-1.8
				C766.2,767.4,790.2,757,790.2,757z"/>
			<path class="st2" d="M812,732.2C858.8,653.8,975,609,975,609c-13.2,10-13.8,18.4-17,29.4c-3.2,10.8-21.8,9-30.8,9.4
				s3.4,35-8.4,45.2c-11.8,10.2-28.2-5.6-35.6,6.8c-7.4,12.2-3.6,34.4-21.4,34s-22.2-6.2-27.2,6c-5.2,12.2-21.4,5.6-32,7.6
				C791.6,749,812,732.2,812,732.2z"/>
			<path class="st4" d="M816.4,727.4c20-117.4,137-226.4,137-226.4c-11,18.4-7.8,29-6.8,43.8c1,14.8-21.6,21-32.2,25.8
				s8.4,29.4-1,47.4s-35.8,6.4-39,24.8c-3.2,18.4,11,43.8-10,51.6s-29,2.6-29.4,20c-0.6,17.4-11.6,28.4-23.2,35.8
				C800.2,757.4,816.4,727.4,816.4,727.4z"/>
			<path class="st3" d="M815.4,717.4c-10.2-70.8,38.4-155.8,38.4-155.8c-3,12.6,0.8,18,4.2,26.2s-8.8,16.2-14.2,21
				s19.4,19.6,17.2,31.6S841,651,842.6,662c1.6,11.2,14.8,22.8,3.8,31.4c-11,8.6-16.6,7.2-13.6,17.2s-10.4,14-15.8,20.4
				C811.4,737.8,815.4,717.4,815.4,717.4z"/>
		</g>
		<path class="st4" d="M208.8,564.4c-63.4-59-181.2-69.2-181.2-69.2c14.8,5.6,17.4,13.2,23.2,22.2s22.2,2.4,30.6,0.4
			s6.2,32.8,19.6,38.8c13.6,6,24.2-12.6,34.2-3.4c10,9.2,12.4,30.4,28.6,25.4s18.6-11.6,26.4-1.8c8,9.8,21-0.6,31.2-1.6
			C231.8,574.4,208.8,564.4,208.8,564.4z"/>
		<path class="st3" d="M188.2,540.8c-44.4-74.4-154.8-117-154.8-117c12.6,9.6,13,17.6,16,27.8c3,10.2,20.6,8.6,29.2,9
			s-3.2,33.2,8,42.8s26.8-5.2,33.8,6.4s3.4,32.6,20.4,32.4c16.8-0.2,21-6,26,5.6c4.8,11.6,20.4,5.2,30.4,7.2
			C207.4,556.8,188.2,540.8,188.2,540.8z"/>
		<path class="st4" d="M184,536.2c-19-111.4-130-215-130-215c10.4,17.4,7.4,27.4,6.4,41.4s20.4,20,30.4,24.4s-8,28,1,45
			s34,6,37,23.4s-10.4,41.4,9.4,49c20,7.4,27.4,2.4,28,19c0.4,16.4,11,27,22,34C199.4,564.8,184,536.2,184,536.2z"/>
		<path class="st2" d="M185,527c9.8-67.2-36.4-147.8-36.4-147.8c3,12-0.8,17.2-4,25S153,419.6,158,424c5,4.6-18.4,18.6-16.2,30
			s19,10,17.4,20.6s-14,21.6-3.6,29.8s15.8,6.8,13,16.2c-2.8,9.6,9.8,13.2,15,19.4C188.8,546.2,185,527,185,527z"/>
		<g>
			<path class="st5" d="M498,345l11.2,418.4l-252.6-8.2V295.4C323.4,327,471.8,354.6,498,345z"/>
			<path class="st6" d="M477,776l-252.6-8.2V308.2c66.8,31.4,226.4,51.8,252.6,42V776z"/>
			<path class="st7" d="M477,776H184V316.4c66.8,31.4,266.8,43.4,293,33.8V776z"/>
			<path class="st5" d="M488.4,345l-11.2,418.4l252.6-8.2V295.4C663,327,514.6,354.6,488.4,345z"/>
			<path class="st5" d="M475.6,344.2h33.8C501,330.6,482.8,333,475.6,344.2z"/>
			<path class="st6" d="M478.6,348H507C499.8,334.6,484.6,336.8,478.6,348z"/>
			<rect x="475.6" y="350.2" class="st6" width="33.8" height="425.8"/>
			<rect x="475.6" y="344.2" class="st7" width="33.8" height="6"/>
			<path class="st6" d="M509.4,776l252.6-8.2V308.2c-66.8,31.4-226.4,51.8-252.6,42V776z"/>
			<path class="st7" d="M509.4,776h293V316.4c-66.6,31.6-266.8,43.6-293,33.8V776z"/>
		</g>
		<g>
			<rect x="543.4" y="598.4" class="st8" width="299.8" height="178"/>
			<rect x="543.4" y="561.4" class="st9" width="329.8" height="37"/>
			<g>
				<polygon class="st10" points="708.2,561.4 671.2,598.4 717.2,598.4 754.2,561.4 				"/>
				<polygon class="st10" points="563.6,598.4 611.6,598.4 648.6,561.4 600.6,561.4 				"/>
				<polygon class="st10" points="860.4,561.4 809.6,561.4 772.6,598.4 823.4,598.4 				"/>
			</g>
			
				<rect x="523" y="460.6" transform="matrix(0.9198 -0.3923 0.3923 0.9198 -132.7994 308.2592)" class="st9" width="329.8" height="37"/>
			<g>
				<polygon class="st10" points="689.6,458.2 669.4,507 712.2,488.8 732.4,440 				"/>
				<polygon class="st10" points="569.6,549.8 614,530.8 634.2,481.8 589.6,500.8 				"/>
				<polygon class="st10" points="831,398 784,418 763.8,466.8 810.8,446.8 				"/>
			</g>
			<circle class="st8" cx="558.4" cy="539.8" r="26"/>
			<circle class="st11" cx="558.4" cy="539.8" r="16"/>
			<rect x="544.8" y="648.8" class="st9" width="296.4" height="3.4"/>
			<rect x="624.4" y="601.8" class="st9" width="2.4" height="172.4"/>
			<rect x="639.4" y="715.8" class="st9" width="195" height="4"/>
		</g>
		<g>
			<rect x="215" y="407.4" class="st12" width="24.4" height="178.4"/>
			<g>
				<path class="st12" d="M212.2,325.4l-3.6-1.4l10.2-26.6l34-11.4l49.2,0.8l23.2,21.2c6,5.4,8,14.2,5.2,21.8L317,365.2l-3.6-1.4
					l17.4-45.6l-30.4-27.6l-47-0.8l-31.8,10.6L212.2,325.4z"/>
				
					<rect x="206.6" y="314.6" transform="matrix(0.3567 -0.9342 0.9342 0.3567 -195.3454 476.4617)" class="st8" width="83.4" height="131"/>
				
					<rect x="298" y="396.3" transform="matrix(0.3567 -0.9342 0.9342 0.3567 -174.7673 560.9868)" class="st12" width="44" height="22.2"/>
				<polygon class="st8" points="322.4,431.8 342.2,451.2 365.8,389.4 338.2,390.8 				"/>
				<path class="st13" d="M323,394l-5.8-2.2c-1-0.4-1.6-1.6-1.2-2.6V389c0.4-1,1.6-1.6,2.6-1.2l5.8,2.2c1,0.4,1.6,1.6,1.2,2.6v0.2
					C325.2,394,324,394.4,323,394z"/>
				<path class="st13" d="M329.2,396.4L329.2,396.4c-1.2-0.4-1.8-1.6-1.4-2.6v-0.2c0.4-1,1.6-1.6,2.6-1.2h0.2c1,0.4,1.6,1.6,1.2,2.6
					v0.2C331.4,396.2,330.2,396.8,329.2,396.4z"/>
				<polygon class="st13" points="337.8,395.2 338.6,393 363.6,391.6 361.2,398 				"/>
				<polygon class="st13" points="336,399.8 336.8,397.6 360.4,400.4 355.2,414 				"/>
				
					<rect x="258.9" y="339.3" transform="matrix(0.3567 -0.9342 0.9342 0.3567 -173.4161 494.3029)" class="st11" width="26.6" height="67.6"/>
				
					<rect x="312" y="365.8" transform="matrix(0.3567 -0.9342 0.9342 0.3567 -141.7154 530.5326)" class="st14" width="4.8" height="4.8"/>
				
					<rect x="257.2" y="390.8" transform="matrix(0.3567 -0.9342 0.9342 0.3567 -200.2801 496.7909)" class="st14" width="6.8" height="6"/>
				
					<rect x="266.2" y="394.2" transform="matrix(0.3567 -0.9342 0.9342 0.3567 -197.6385 507.403)" class="st14" width="6.8" height="6"/>
				
					<rect x="275.2" y="397.6" transform="matrix(0.3567 -0.9342 0.9342 0.3567 -195.0024 518.0097)" class="st14" width="6.8" height="6"/>
				<g>
					<ellipse class="st11" cx="300.9" cy="319.1" rx="33.6" ry="33.6"/>
					<ellipse class="st8" cx="301" cy="319.2" rx="10.8" ry="10.8"/>
					<ellipse class="st12" cx="300.9" cy="319.1" rx="6.8" ry="6.8"/>
					<path class="st12" d="M310,304.8l-6.4-2.4c-2.6-1-4-4-3-6.6l0.2-0.2c1-2.6,4-4,6.6-3l6.4,2.4c2.6,1,4,4,3,6.6l-0.2,0.2
						C315.6,304.4,312.6,305.8,310,304.8z"/>
					<path class="st12" d="M315.4,328.4l2.4-6.4c1-2.6,4-4,6.6-3l0.2,0.2c2.6,1,4,4,3,6.6l-2.4,6.4c-1,2.6-4,4-6.6,3l-0.2-0.2
						C315.6,333.8,314.4,331,315.4,328.4z"/>
					<path class="st12" d="M291.8,333.6l6.4,2.4c2.6,1,4,4,3,6.6l-0.2,0.2c-1,2.6-4,4-6.6,3l-6.4-2.4c-2.6-1-4-4-3-6.6l0.2-0.2
						C286.2,334,289.2,332.6,291.8,333.6z"/>
					<path class="st12" d="M286.4,310l-2.4,6.4c-1,2.6-4,4-6.6,3l-0.2-0.2c-2.6-1-4-4-3-6.6l2.4-6.4c1-2.6,4-4,6.6-3l0.2,0.2
						C286.2,304.4,287.4,307.4,286.4,310z"/>
				</g>
				<g>
					
						<ellipse transform="matrix(0.1984 -0.9801 0.9801 0.1984 -108.1251 480.5932)" class="st11" cx="239.8" cy="306.4" rx="23.6" ry="23.6"/>
					<ellipse class="st8" cx="239.8" cy="306.4" rx="7.6" ry="7.6"/>
					<path class="st12" d="M241.8,310.8c-2.4,1-5.2,0-6.2-2.4s0-5.2,2.4-6.2s5.2,0,6.2,2.4S244,309.6,241.8,310.8z"/>
					<path class="st12" d="M251.6,303.8l-2-4.4c-0.8-1.8,0-4,1.8-4.8h0.2c1.8-0.8,4,0,4.8,1.8l2,4.4c0.8,1.8,0,4-1.8,4.8h-0.2
						C254.4,306.4,252.4,305.6,251.6,303.8z"/>
					<path class="st12" d="M242.4,318.2l4.4-2c1.8-0.8,4,0,4.8,1.8v0.2c0.8,1.8,0,4-1.8,4.8l-4.4,2c-1.8,0.8-4,0-4.8-1.8V323
						C239.8,321,240.6,319,242.4,318.2z"/>
					<path class="st12" d="M228,309l2,4.4c0.8,1.8,0,4-1.8,4.8H228c-1.8,0.8-4,0-4.8-1.8l-2-4.4c-0.8-1.8,0-4,1.8-4.8h0.2
						C225,306.4,227.2,307.2,228,309z"/>
					<path class="st12" d="M237.2,294.6l-4.4,2c-1.8,0.8-4,0-4.8-1.8v-0.2c-0.8-1.8,0-4,1.8-4.8l4.4-2c1.8-0.8,4,0,4.8,1.8v0.2
						C239.8,291.8,239,293.8,237.2,294.6z"/>
				</g>
				<path class="st12" d="M292.8,451c-6-2.2-13.2-7-21-14c-10-8.8-19.8-20.2-26.8-31c-11.6-18.2-30.8-24.4-45-29
					c-3-1-5.8-1.8-8.2-2.8l0.4-1.2c2.4,1,5.2,1.8,8.2,2.8c14.2,4.6,33.8,11,45.6,29.4c7,10.8,16.6,22,26.6,30.8
					c10.4,9.2,19.6,14.4,26,15c5.4,0.6,10-2.8,13.4-10.2c2.6-5.6,3.6-11.2,3.6-11.4l1.2,0.2c0,0.2-1,6-3.6,11.6
					c-3.6,7.6-8.6,11.4-14.6,10.8C296.8,452.2,294.8,451.8,292.8,451z"/>
				
					<rect x="315.2" y="427.8" transform="matrix(0.3567 -0.9342 0.9342 0.3567 -198.6542 572.1302)" class="st12" width="1.8" height="5"/>
				
					<rect x="186.7" y="370.5" transform="matrix(0.3567 -0.9342 0.9342 0.3567 -226.1402 419.341)" class="st14" width="9.4" height="6.8"/>
			</g>
		</g>
		<g>
			<path class="st15" d="M494.8,750.2H262v25h257v-0.8C519,761.2,508.2,750.2,494.8,750.2z"/>
			<path class="st8" d="M280.2,750.2H135.6v0.8c0,13.4,10.8,24.2,24.2,24.2h144.6v-0.8C304.4,761.2,293.6,750.2,280.2,750.2z"/>
			<path class="st8" d="M326.8,552.6H101c-11.2,0-19.2,10.8-16.2,21.4L136,750h255l-55.6-191C334.2,555.2,330.8,552.6,326.8,552.6z"
				/>
			<path class="st12" d="M330.6,552.6H104.8c-11.2,0-19.2,10.8-16.2,21.4l51.2,176h255l-55.6-191C338,555.2,334.6,552.6,330.6,552.6
				z"/>
			<path class="st8" d="M142.8,746.4L92.4,573.2c-1.2-4-0.4-8.2,2-11.4s6.2-5.2,10.4-5.2h225.8c2.2,0,4.4,1.6,5,3.8l54.2,186.2h-247
				V746.4z"/>
			<path class="st16" d="M145.6,742.6L97,573.2l237.8-0.4c0.6,0,1.2,0.4,1.2,1l48.4,168.8L145.6,742.6L145.6,742.6z"/>
			<g>
				<g>
					<path class="st17" d="M185,536.2c-18.4,1.4-15.4,37-14,57s-3.4,29.4-11.4,30.4H237l-25-79C212,544.6,189.6,535.2,185,536.2z"/>
					<path class="st1" d="M357.2,664.6c2.4-54-6-128-26.4-128.4H185c20.4,0.6,29,74.4,26.4,128.4c-2.4,54,8,65.4,25,69H382
						C365.2,730,354.6,718.6,357.2,664.6z"/>
					<path class="st18" d="M409.2,690H254c0,0,10,43.4-17.4,43.4h155.2C419.2,733.6,409.2,690,409.2,690z"/>
				</g>
				<path class="st19" d="M413.4,599h-89.6c-9.4,0-16.8,7.6-16.8,16.8v42v18.6l15.6-18.6h91c9.4,0,16.8-7.6,16.8-16.8v-25
					C430.2,606.6,422.6,599,413.4,599z"/>
				<path class="st14" d="M412.8,587.8H319c-9.8,0-17.6,7.8-17.6,17.6v43.8v19.4l16.2-19.4h95c9.8,0,17.6-7.8,17.6-17.6v-26.2
					C430.4,595.8,422.6,587.8,412.8,587.8z"/>
				<rect x="316.4" y="600.8" class="st19" width="60.4" height="6"/>
				<rect x="316.4" y="622" class="st19" width="97.8" height="6"/>
			</g>
		</g>
		<g>
			<polygon class="st20" points="277.4,723.6 319,723.6 315,703.8 260.4,677.6 235,617.2 198,616.8 212.8,699.8 219.4,715.2 			"/>
			<path class="st21" d="M277.4,723.6C277.2,723.6,277.2,723.6,277.4,723.6l-53-1.6c-8.6-0.2-15.8-6.6-17.2-15l-13.8-83.6
				c-0.6-3.2,1.6-6.2,4.8-6.6c3.2-0.6,6.2,1.6,6.6,4.8l13.8,83.6c0.4,3,3,5.2,6,5.4l53,1.6c3.2,0,5.6,2.8,5.6,6
				C283,721,280.4,723.6,277.4,723.6z"/>
			<path class="st22" d="M351.4,749.6l6.4,18.4c9.6,3,20.2,7.4,23,11.6c-27.2-3.4-37,1-37,1c-1.2-3.8-0.6-8.6,0-11s1-18.2,1-18.2
				L351.4,749.6z"/>
			<path class="st23" d="M356.8,774c3-1.4,2.2-3.6,2.8-5.4c9,3,18.6,7,21.2,11c-22.4,0.8-37,1-37,1c-1-3.2-0.8-7-0.4-9.6
				C345.6,772.8,352.8,775.6,356.8,774z"/>
			<path class="st24" d="M361.8,774C361.8,774,362,773.8,361.8,774c0.2-0.2,0.2-4.2,2-4.6l0.2-0.2l-0.2-0.2c-2,0.6-2.2,4.6-2.2,4.8
				C361.6,773.8,361.6,774,361.8,774L361.8,774z"/>
			<path class="st24" d="M366.6,775.6C366.8,775.6,366.8,775.6,366.6,775.6c0.2-0.2,0.2-4.2,2-4.6l0.2-0.2l-0.2-0.2
				c-2,0.6-2.2,4.6-2.2,4.8S366.4,775.6,366.6,775.6L366.6,775.6z"/>
			<path class="st24" d="M378.2,778.4C378.2,778.4,378.2,778.2,378.2,778.4c0.2-0.2,0-0.4,0-0.4l-32.6,0.2c-0.2,0-0.2,0-0.2,0.2
				s0,0.2,0.2,0.2L378.2,778.4C378,778.4,378.2,778.4,378.2,778.4z"/>
			<path class="st25" d="M235.2,699.2c0.6,1.4,3.2,11.8,12.6,14.6s65.2,0.2,65.4,1.2c0.2,8.8,29.2,53,29.2,53
				c11,1,17.2-4.2,17.2-4.2l-12.4-34c0,0,1.6-43-2.6-47.6c-4.4-4.8-58.6-6.8-58.6-6.8L235.2,699.2z"/>
			<path class="st26" d="M347,606.8c-3.4,4.6-7.6,5.8-7.8,5.8s-0.8-4.6-0.6-5.2c0.2-0.6,4.2-4.8,4.2-4.8L347,606.8z"/>
			<path class="st27" d="M347.8,598.4c0.2,0.2,3.6,4.4,3.2,5s-1.8,4.4-2.8,4.8s-1.6-0.8-1.6-0.8c-2,0.6-3.4-0.8-3.4-0.8s-5,1-5.4,0
				s-0.8-3.8-0.2-4.8c0.4-1,3.6-3.6,4.2-4s2.8-0.6,3.4-0.6C345.4,597,347.8,598.4,347.8,598.4z"/>
			<path class="st22" d="M321.4,619.2c0,0,9.2-9.8,10.2-11.6s3.4-9.6,4.2-10.6c0.8-1,7.2-3.2,7.2-3.2l6.8,2.4l4.4,4
				c-0.6,1.4-4.6-0.4-5.4-0.8c-1-0.6-3-0.8-4.6-0.8s-5,4-4.4,5.6s2.4-1,5.4-1.6s3.6,1.8,1.4,2.6c-2.2,1-4.2,2.4-4.8,5.4
				c-0.6,2.8-2,5.2-4,6c-1.8,0.8-7,12.6-7,12.6s-6.8-0.6-7-2C323.6,625.6,321.4,619.2,321.4,619.2z"/>
			<path class="st28" d="M242.8,599.4c-10.6-0.4-16.2,1.4-22.8,19.2c-6.6,17.6-9.2,50.6-6,53.8s9.2,3.6,9.2,3.6
				c0.6,8.4,6.2,25,10.6,27c18.8,0,52.4-26.4,53-27c0.6-1.8,0.6-14.4,0.6-14.4l16,2.6c0,0,7.2,0.6,11.8-4.6
				c4.6-5.2,17.2-32.6,17.2-32.6c-6.2-2-11.4-8-11.4-8s-15.6,18.2-21.6,18.8c-6,0.4-14.2-17.4-20.4-23.6c-6.2-6.2-15-8.2-15-8.2
				l-8.6-1C255.8,605,244.8,598.8,242.8,599.4z"/>
			<path class="st17" d="M316,639.2c-15,15.6-12.2,28-12.2,28s-29.6,4.6-29.6,4.2c0.4-7.4,11-39.6,23.8-40.4
				C307.4,633,316,639.2,316,639.2z"/>
			<path class="st23" d="M240.8,576.6c-3.4-5.2-4.6-13.8,1.8-15.8c4.6-4.2,13.2-4,17-3.4c3.8,0.6,4.6-0.4,5,0.6s0,2.6,0,2.6
				c3.2,3.4,2.2,9.2,1.6,11s-0.6,7.6,0.2,10.2c0.6,2.6,0.6,13.2-0.4,14s-5.4,1-5.4,1s-6.8,1.2-8,1.2c-1-0.2-5.6-3.2-5.6-3.2
				l-1.8-5.8l-0.6-4.2c0,0-1.4-4.4-1.6-4.6c-0.2-0.4-1.8-3.4-1.8-3.4h-0.4V576.6z"/>
			<path class="st22" d="M244,578c-2.4-4.4-5.6-0.6-4.8,3.4s5.2,3.6,5.2,3.6c0.8,6.2-0.4,14-1.4,14.4c5,2.4,6.6,5.2,10.2,10.4
				s10.6,6.2,11,5.2c0.6-1,1.6-5.2,0.2-9c-4.4-2.6-4.4-4-4.4-4.8s0.4-4.4,0.4-4.4s-8-1-10.8-2.4s-4.2-6.6-4.6-9
				C244.6,582.8,244,578,244,578z"/>
			<path class="st22" d="M262.4,561.2c-1.6,2.2-9.8,1.2-10.6,1.4c-1,0.2-1.4,1.4-1,1.8c0.8,1,0.8,4.2-1.6,4.4c-0.4,1.2-1.8,1-1.4,2
				c0.4,1,2.8,5.2,2.6,5.8s-2,3.4-2,3.4c0,2.4,3.4,7.6,6,8.4c2.6,0.8,4.6,0.6,4.8,1c1.6,2,6.6,1.4,7-0.8c0.6-2.2,0.8-5.8,0.6-7
				c-0.2-1.4-0.4-6.6,0-9.2C267,569.6,266.4,561.6,262.4,561.2z"/>
			<path class="st23" d="M262.6,585.8c-1.6-1.2-3-1.6-4.8,0.4s-4.8,0.2-4.8,0.2c0.6,1,4.4,5,6,4c1.6-1,3.4-3.2,3.6-3.2
				c1,1.6,3.2,2.8,4.4,2.2s2.4-3.4,2.4-3.4s-1.8,1.6-2,1.2S265.6,583.6,262.6,585.8z"/>
			<path class="st29" d="M261.8,589.4c-0.2,0-0.4,0-0.8,0l-0.2-0.2l0.2-0.2c1,0.2,2-0.2,2-0.2s0.2,0,0.2,0.2c0,0,0,0.2-0.2,0.2
				C263.4,589.2,262.6,589.4,261.8,589.4z"/>
			<path class="st23" d="M261.8,584.2C261.8,584.2,261.6,584.2,261.8,584.2c-0.2-0.2-0.2-0.4,0-0.4c1.6-0.6,3.4-1.4,3.8-1.6
				c-0.2-0.4-0.8-1.4-1.4-2.2c-0.8-1.4-1.4-2.2-1.6-2.6c-0.2-0.4,0-1.4,0.4-2.6c0-0.4,0.2-0.8,0.2-0.8c0-0.2,0-0.2,0.2-0.2
				s0.2,0,0.2,0.2s0,0.4-0.2,1c-0.2,0.8-0.4,2.2-0.4,2.6c0,0.2,0.8,1.4,1.4,2.4c1.2,2,1.4,2.4,1.4,2.6
				C265.8,582.4,265.8,582.8,261.8,584.2L261.8,584.2z M265.4,582.4L265.4,582.4L265.4,582.4z M265.6,582.2L265.6,582.2L265.6,582.2
				z"/>
			<path class="st29" d="M257.4,580c-0.2,0-0.4,0-0.6-0.2c-0.4-0.2-0.6-0.6-0.8-1.2c0,0,0-0.2,0.2-0.2c0,0,0.2,0,0.2,0.2
				c0.2,0.4,0.4,0.8,0.6,1c0.4,0.2,0.6,0.2,0.6,0.2s0.2,0,0.2,0.2c0,0,0,0.2-0.2,0.2C257.8,580,257.6,580,257.4,580z"/>
			<path class="st29" d="M243.2,583.6L243.2,583.6c-1.2,0-1.8-0.8-1.8-1.6s0.6-1.8,1.8-2c-0.2-0.2-0.6-0.8-1-1.2
				c-0.4-0.2-0.8-0.4-1.4-0.2c0,0-0.2,0-0.2-0.2c0,0,0-0.2,0.2-0.2c1.6-0.4,2.6,1.2,2.8,1.4c0.2,0.4,0.2,0.4,0,0.6c0,0,0,0-0.2,0
				c-1.2,0.2-1.8,1-1.8,1.6s0.4,1.2,1.4,1.2C243.2,583.2,243.4,583.2,243.2,583.6C243.4,583.4,243.2,583.6,243.2,583.6z"/>
			<path class="st30" d="M245.6,617.4C245.6,617.4,245.4,617.2,245.6,617.4c-0.2-0.2-2.6-13.4-13.4-14c-0.2,0-0.2,0-0.2-0.2
				s0-0.2,0.2-0.2c11.2,0.8,13.6,14,13.6,14.2C245.8,617.2,245.8,617.2,245.6,617.4L245.6,617.4z"/>
			<path class="st30" d="M234.4,653.6L234.4,653.6c-0.2-0.2-0.2-0.2-0.2-0.2c0-0.2,4.4-15,8.6-24.6c0,0,0.2-0.2,0.2,0
				c0,0,0.2,0.2,0,0.2c-3.8,9-8,22.4-8.6,24.2l17.6-1c0.2,0,0.2,0,0.2,0.2s0,0.2-0.2,0.2L234.4,653.6L234.4,653.6z"/>
			<path class="st30" d="M233.2,658.4C233.2,658.4,233,658.4,233.2,658.4c-0.2,0-0.2-0.2-0.2-0.2s1-3,1.2-3.8
				c-0.6,0.2-2.2,1.6-4.2,3.6h-0.2v-0.2c0.6-0.6,4.2-4,4.8-3.8c0,0,0.2,0.2,0.2,0.4C234.4,655,233.4,658.2,233.2,658.4L233.2,658.4z
				"/>
			<path class="st30" d="M229.8,675.6c-0.8,0-1.8,0-2.6,0c-0.2,0-0.2,0-0.2-0.2s0-0.2,0.2-0.2c13.8,0.8,24.4-4.4,24.6-4.6h0.2v0.2
				C251.8,671,242.4,675.6,229.8,675.6z"/>
			<path class="st30" d="M276.8,642L276.8,642c-0.2,0-0.2-0.2-0.2-0.2s1-5.2,0.2-15c0-0.2,0-0.2,0.2-0.2s0.2,0,0.2,0.2
				C278,636.8,277,641.8,276.8,642C277,642,276.8,642,276.8,642z"/>
			<path class="st31" d="M346.2,729C346.2,729,346,729,346.2,729c-0.2-0.6-8.2-36-9.6-38.4c-0.6-1-9.2-2.8-47.2-6.2
				c-2.2-0.2-3.2-0.2-3.2-0.2L286,684l0.2-0.2l0,0c0.2,0,1.4,0.2,3.2,0.2c31.6,2.8,46.6,4.8,47.6,6.4c1.4,2.6,9.2,37,9.4,38.4
				C346.4,729,346.4,729,346.2,729L346.2,729z"/>
			<path class="st30" d="M316,714.6c-0.2,0-0.4,0-0.4-0.2c-0.2-0.2,0-0.6,0.6-1.4c0.8-1,1.8-2.6,2-4.8c0-0.2,0.2-0.2,0.2-0.2
				c0.2,0,0.2,0.2,0.2,0.2c-0.2,2.2-1.4,3.8-2.2,4.8c-0.2,0.4-0.6,0.8-0.6,1c0,0,0.2,0,0.6,0c2.4-0.6,3.8-2.8,3.8-2.8s0.2-0.2,0.2,0
				c0,0,0.2,0.2,0,0.2c0,0-1.4,2.4-4,3C316.4,714.6,316.2,714.6,316,714.6z M316,714.2L316,714.2L316,714.2z"/>
			<path class="st30" d="M259.8,702.8L259.8,702.8c-0.2,0-0.2-0.2-0.2-0.2s2.8-4.4-0.4-7.8v-0.2h0.2
				C263,698.2,260,702.8,259.8,702.8C260,702.8,260,702.8,259.8,702.8z"/>
			<path class="st30" d="M345.8,760.8C345.8,760.8,345.6,760.8,345.8,760.8c-8.4-12.6-21.6-50.2-21.6-52.8c0-1.4-0.2-1.4-0.8-1.6
				c-0.4-0.2-1.2-0.4-1.8-1.2c-1.2-1.2-0.8-1.8-0.4-2.2l0,0l0,0c-0.8-0.2-25.2,0-41.4,0c-6.8,0-12,0-14.4,0c-1.4,0-2.8,0-4,0
				c-6,0.2-10.4,0.2-13-3v-0.2h0.2c2.6,3,7,3,12.8,2.8c1.2,0,2.6,0,4,0c2.2,0,7.6,0,14.4,0c22.4-0.2,41-0.4,41.6,0
				c0.2,0,0.2,0.2,0.2,0.4s0,0.2-0.2,0.4s-0.6,0.6,0.4,1.6c0.8,0.8,1.2,1,1.8,1c0.6,0.2,1,0.4,1,2c0,2.6,13,40,21.4,52.6
				C346,760.6,346,760.8,345.8,760.8L345.8,760.8z"/>
			<path class="st23" d="M252,574c6.4-1.6,8.4-1,8.4-1C257.4,570.2,253.6,571.2,252,574z"/>
			<path class="st29" d="M261.4,573.6C261.2,573.6,261.2,573.6,261.4,573.6c-0.2,0-0.2-0.2-0.2-0.2c0.2-0.2,0-2-1.4-3.2V570h0.2
				C261.6,571,261.8,573.2,261.4,573.6L261.4,573.6z"/>
			<path class="st23" d="M258.4,577.6c0,0.8-0.4,1.4-0.8,1.4s-0.8-0.6-0.8-1.4c0-0.8,0.4-1.4,0.8-1.4
				C258,576,258.4,576.8,258.4,577.6z"/>
			<path class="st23" d="M265.4,577.4c0,0.8-0.4,1.4-0.8,1.4s-0.8-0.6-0.8-1.4c0-0.8,0.4-1.4,0.8-1.4
				C265.2,576,265.4,576.6,265.4,577.4z"/>
			<path class="st23" d="M263.8,573.2c1.6-0.6,2.8,0.4,2.8,0.4C266,571,264.4,571.8,263.8,573.2z"/>
			<path class="st22" d="M253.8,652.8c-1.8,14.4-0.8,17.6-0.8,17.6s24.8-10,27.4-9.8s6.4-0.8,7.2-1.2c0.8-0.4,4.2-2.4,4.2-2.4
				c0-0.4-0.8-0.8-2.2-0.4c1.4-1.8,3-3.4,2.8-4.4c1.6-1.8,1-3.4,1-3.4c1.6-1.6,2.8-3.6,1.8-3.6s-4.2,2-7.8,2.6
				c-3.6,0.6-6.8,0.2-6.8-0.6c0.2-0.8,0.2-2.2,2.6-2.8c3-0.8,3.6-3.6,3-4s-1.4,0.8-2.4,0.8s-4.2,0.4-5.8,1.8
				c-1.6,1.6-4.2,6.8-4.6,7.6S253.8,652.8,253.8,652.8z"/>
			<path class="st12" d="M263.2,652c-1,4,0.8,12.6,1.4,14l3.6-1.4c-1.2-4.4-1.2-12.4-1-13C264.6,651.8,263.2,652,263.2,652z"/>
			<path class="st32" d="M268.2,659.8c0.2,1.2-1,2.2-2.4,2.4s-2.8-0.6-3-1.8s1-2.2,2.4-2.4C266.8,658,268.2,658.8,268.2,659.8z"/>
			<path class="st33" d="M267.8,659.8c0.2,1-0.8,2-2.2,2c-1.2,0.2-2.4-0.6-2.6-1.4c-0.2-1,0.8-2,2.2-2
				C266.6,658.2,267.8,659,267.8,659.8z"/>
			<path class="st29" d="M286.2,651.8C286.2,651.8,286,651.6,286.2,651.8c-0.2-0.2-0.2-0.4,0-0.4c0,0,2.2-0.2,6.4-2.8h0.2v0.2
				C288.6,651.4,286.4,651.8,286.2,651.8L286.2,651.8z"/>
			<path class="st29" d="M285.8,656.2C285.6,656.2,285.6,656.2,285.8,656.2c-0.2-0.2-0.2-0.4,0-0.4c0,0,3-1.4,6.2-4.8h0.2v0.2
				C288.8,654.8,285.8,656.2,285.8,656.2L285.8,656.2z"/>
			<path class="st1" d="M298,631c5,4,0.8,12.8,2.6,14l27.4-4.2c0,0-1.2-1.6-1.2-2.8s0.4-7.4-1-9L298,631z"/>
			<path class="st29" d="M344.6,602.2L344.6,602.2c-0.2,0-0.2-0.2-0.2-0.2l0.2-0.8l-1-1.6v-0.2h0.2l1.2,1.6v0.2L344.6,602.2
				C344.8,602.2,344.6,602.2,344.6,602.2z"/>
			<path class="st29" d="M347.6,606.4L347.6,606.4c-0.2,0-0.2-0.2-0.2-0.2c0.4-0.6,1.2-2.6,1.2-3.2c0-0.6-0.6-2-1-2.6
				c0-0.2-0.2-0.2-0.2-0.2s0-0.2,0.2-0.2c0,0,0.2,0,0.2,0.2c0,0,0,0.2,0.2,0.2c0.4,1,1,2.2,1,2.8C349,603.8,348,606,347.6,606.4
				C347.8,606.4,347.6,606.4,347.6,606.4z"/>
			<path class="st34" d="M253,781c-30.8,0-57-10.6-71.8-30c-0.6-0.8-0.4-2,0.4-2.6c0.8-0.6,2-0.4,2.6,0.4
				c18.2,23.8,54.6,33.8,95,26.2c11.2-2.2,21.6-8.6,29.2-18c6.8-8.6,10.4-19,9.2-27.6c-1.6-13.8-14.2-21-34.6-19.8
				c-1,0-1.8-0.8-2-1.8c0-1,0.8-1.8,1.8-2c11.8-0.6,21,1.2,27.8,5.6c6,4,9.8,10,10.6,17.4c1.2,9.6-2.4,20.8-10,30.4
				c-8,10.2-19.2,17-31.4,19.4C270.6,780.2,261.6,781,253,781z"/>
			<polygon class="st34" points="215.6,681.4 204.8,769.4 207.2,768.6 218.6,681.4 			"/>
			<polygon class="st35" points="218,681.4 207.2,769.4 209.6,768.6 221,681.4 			"/>
			<g>
				<polygon class="st34" points="253.8,682.8 283.8,773.6 286.4,772.8 256.8,682.8 				"/>
				<polygon class="st35" points="256.2,682.8 286.2,773.6 288.8,772.8 259.2,682.8 				"/>
			</g>
			<path class="st34" d="M270.2,682.8H203v-7.2h60.2c3.8,0,7,3.2,7,7V682.8z"/>
			<circle class="st35" cx="206" cy="679.2" r="2"/>
			<path class="st35" d="M250.6,781c-30.8,0-57-10.6-71.8-30c-0.6-0.8-0.4-2,0.4-2.6c0.8-0.6,2-0.4,2.6,0.4
				c18.2,23.8,54.6,33.8,95,26.2c11.2-2.2,21.6-8.6,29.2-18c6.8-8.6,10.4-19,9.2-27.6c-1.6-13.8-14.2-21-34.6-19.8
				c-1,0-1.8-0.8-2-1.8c0-1,0.8-1.8,1.8-2c11.8-0.6,21,1.2,27.8,5.6c6,4,9.8,10,10.6,17.4c1.2,9.6-2.4,20.8-10,30.4
				c-8,10.2-19.2,17-31.4,19.4C268.2,780.2,259.2,781,250.6,781z"/>
		</g>
		<g>
			<path class="st1" d="M675.4,446.8c-4.8-7.2-10.2-9.8-10.2-9.8c-3.6,5-28,17.4-28,17.4c11.6,5.6,21,29.2,17.6,44.4
				c15.6-10.2,28-13.8,28-13.8c0.6-3.2-2.8-22.6-2.8-22.6l-1.8-10L675.4,446.8z"/>
			<path class="st22" d="M729.6,463.2c-5.4-4-40.2-10.8-42.8-12.2c-2.6-1.4-6.2-5.6-7.6-6c-1.4-0.4-4.8,1.4-7,1s-2.8-0.6-2.8-0.6
				c-0.2,1.6,0.4,3.2,2.4,3.6c1.8,0.6,3.8,0.4,4.4,1c0.6,0.6,2.4,12,3.8,12c4.6-1,7.2-3.2,10-0.2c2.8,2.8,37.4,18,39.2,17.6
				c1.6-0.2,2.2-0.4,2.2-0.8C731.4,478.8,729.6,463.2,729.6,463.2z"/>
			<g>
				<path class="st22" d="M744.2,609c0,0,5.4,37,5.2,37.4c-9.8,13.6-11.2,29-11.2,29l28.6-21c0.2-3.6-4.2-10.2-5.2-12.4
					s3.2-29,2.8-34.8C764,601.2,744.2,609,744.2,609z"/>
				<path class="st23" d="M766.8,654.4c0-2.4-1.8-6.2-3.4-9c-2.8,5.2-10.2,7.8-11.6,6c-1-1.4-1-3.4-2.8-4.4
					c-9.4,13.6-11,28.4-11,28.4L766.8,654.4z"/>
				<path class="st24" d="M749.8,652.8C749.8,652.8,749.6,652.6,749.8,652.8c-0.2-0.2-1.4-3-3.4-3c-0.2,0-0.2,0-0.2-0.2
					s0-0.2,0.2-0.2c2.4,0,3.6,3,3.6,3C750,652.6,750,652.6,749.8,652.8L749.8,652.8z"/>
				<path class="st24" d="M747.6,657.4C747.4,657.4,747.4,657.2,747.6,657.4c-0.2-0.2-1.4-3-3.4-3c-0.2,0-0.2,0-0.2-0.2
					s0-0.2,0.2-0.2c2.4,0,3.6,3,3.6,3C747.8,657.2,747.6,657.2,747.6,657.4L747.6,657.4z"/>
				<path class="st24" d="M745,663.4C744.8,663.4,744.8,663.4,745,663.4c-0.2-0.2-1.4-3-3.4-3c-0.2,0-0.2,0-0.2-0.2s0-0.2,0.2-0.2
					c2.4,0,3.6,3,3.6,3C745.2,663.2,745.2,663.4,745,663.4L745,663.4z"/>
				<path class="st24" d="M740.6,671.4C740.4,671.4,740.4,671.4,740.6,671.4c-0.2-0.2-0.2-0.4-0.2-0.4l25.4-18.8h0.2v0.2
					L740.6,671.4L740.6,671.4z"/>
			</g>
			<g>
				<path class="st22" d="M702.2,604.8c0,0-6,36.8-6.4,37.2c-13.4,10-19.6,24.2-19.6,24.2l33.6-11.4c1.2-3.4-1-11-1.2-13.4
					s11.8-26.8,13.4-32.4C723.6,603.6,702.2,604.8,702.2,604.8z"/>
				<path class="st23" d="M710,655c0.8-2.2,0.2-6.4-0.6-9.6c-4.2,4.2-12,4.4-12.8,2.2c-0.6-1.6,0-3.6-1.2-5c-13,10-19,23.8-19,23.8
					L710,655z"/>
				<path class="st24" d="M694.4,648.2C694.2,648.2,694.2,648.2,694.4,648.2c-0.2-0.2-0.4-3.2-2.4-3.8c-0.2,0-0.2-0.2-0.2-0.2
					l0.2-0.2c2.2,0.6,2.6,3.8,2.6,4S694.6,648.2,694.4,648.2L694.4,648.2z"/>
				<path class="st24" d="M690.8,652C690.6,652,690.6,651.8,690.8,652c-0.2-0.2-0.4-3.2-2.4-3.8c-0.2,0-0.2-0.2-0.2-0.2
					c0-0.2,0.2-0.2,0.2-0.2c2.2,0.6,2.6,3.8,2.6,4C691,651.8,691,652,690.8,652L690.8,652z"/>
				<path class="st24" d="M686.6,657C686.4,657,686.4,656.8,686.6,657c-0.2-0.2-0.4-3.2-2.4-3.8c-0.2,0-0.2-0.2-0.2-0.2
					c0-0.2,0.2-0.2,0.2-0.2c2.2,0.6,2.6,3.8,2.6,4C686.8,656.8,686.8,657,686.6,657L686.6,657z"/>
				<path class="st24" d="M679.8,663.2L679.8,663.2c-0.2-0.2-0.2-0.4,0-0.4l30-10.2c0.2,0,0.2,0,0.2,0.2s0,0.2-0.2,0.2L679.8,663.2
					C680,663.2,679.8,663.2,679.8,663.2z"/>
			</g>
			<path class="st28" d="M768.4,506.8c-1.6,1.4-8.4,13.8-9.6,14.2c-3.4,1-41,11.4-47.4,24.6c-6.4,13.2-11.6,60-11.4,61.2
				c9.2,6.6,22.8,2.6,22.8,2.6c5.2-9.4,13.2-43,13.2-43l2.4-1.2c0,0-1.2,2.6-0.4,9s4.8,37,5.2,38c12.4,4.6,23.6-2.2,23.6-3.4
				s2.2-32.8,3-34.2c1-1.4,38.2-16.4,41-28.8c2.8-12.4-6.4-38-6.4-38L768.4,506.8z"/>
			<path class="st23" d="M769,502c0,2.2-0.8,4.2-0.6,4.6c3.4,3,24.8,5.2,36,1.4c-1.4-3-1.4-5-1.4-5L769,502z"/>
			<path class="st21" d="M779.4,447.4c0,0-2.2,1-4.4,1.8c-8.8,3.4-39.8,12.6-46.2,12c-1.6,10.2,1.2,18.8,1.2,18.8l33-2.6
				c0,0-1.8,4.8-0.2,7.8s4.8,17,6.2,18.2c17.8,5,34.4,1.2,34.4,1.2c1.4-1.2,3-17,3.8-16.4c0.8,0.4,10.8,22.2,10.8,22.2
				c9.8,1.8,16-3,16-3s-10.2-37.6-16.6-44.8s-19-11.8-19.6-12.2c-1.8-2-5.8-4.4-7.8-4.6C787.8,445.4,779.4,447.4,779.4,447.4z"/>
			<path class="st23" d="M774.2,408.2c-3.4,1-4.2,6.8-3.4,10.6c0.8,3.8-1.4,6.8-4,9.4c-2.4,2.4,2.2,10.6,12.8,10.6s25.2,1,25.8-6.2
				s-3.4-10.8-2.6-14.4C803.6,414.4,791.4,396,774.2,408.2z"/>
			<path class="st22" d="M774.8,412.8c0.8,7.2,8.2,9.2,12,9.8s5.8,3.2,5.8,3.2c1-3.4,4.8-3.2,5,0c0.4,3.4-4.6,6.8-6.4,5
				c-2.2,12.8,1.6,16.2,1.6,16.8c-1.4,3.8-7.6,5.6-7.6,6c0,2.2-3.4,7.6-4,7c-0.8-1.8,0.2-7.2-0.2-7.6s-2.2-4-2.2-4
				c0.8,0,1.2-6.2,0.8-8.2c-4.6-0.8-5.6-7.4-6.2-11.4c-0.6-4,0-5.8,0.2-9C773.6,417.4,774.8,412.8,774.8,412.8z"/>
			<path class="st23" d="M785.4,426.4c0,1-0.4,1.6-1,1.6s-1-0.8-1-1.6c0-1,0.4-1.6,1-1.6S785.4,425.4,785.4,426.4z"/>
			<path class="st23" d="M777.6,426.2c0,1-0.4,1.6-1,1.6s-1-0.8-1-1.6c0-1,0.4-1.6,1-1.6C777.2,424.6,777.6,425.2,777.6,426.2z"/>
			<path class="st23" d="M780,431.6c-0.4,0-1.8,0-2.8-0.4c-0.2,0-0.2-0.2-0.4-0.4c0-0.2,0-0.4,0.2-0.4c0.8-0.8,2.4-3.6,1.4-7
				c0-0.2,0-0.2,0.2-0.2s0.2,0,0.2,0.2c1,3.6-0.6,6.6-1.6,7.4l0,0l0,0c1.2,0.4,2.8,0.4,2.8,0.4c0.2,0,0.2,0,0.2,0.2
				C780.4,431.4,780.2,431.6,780,431.6C780.2,431.6,780,431.6,780,431.6z"/>
			<path class="st29" d="M780.4,441.2c-0.2,0-0.2,0-0.4,0s-0.2-0.2-0.2-0.2c0-0.2,0.2-0.2,0.2-0.2c4,0.2,8.8-4.2,9-4.6
				c0-0.2,0.2-0.2,0.2,0c0.2,0,0.2,0.2,0,0.2C789,437,784.4,441.2,780.4,441.2z"/>
			<path class="st29" d="M793.4,429.6c-0.2,0-0.4,0-0.8,0c-0.2,0-0.2-0.2-0.2-0.2c0-0.2,0.2-0.2,0.2-0.2c0.8,0.2,1.4,0,1.6-0.4
				c0.2-0.4,0.2-1,0-1.4c-0.2-0.2-0.4-0.4-1-0.4H793v-0.2c0,0,1-2.6,3.4-1.8c0.2,0,0.2,0.2,0.2,0.2c0,0.2-0.2,0.2-0.2,0.2
				c-1.6-0.4-2.4,0.6-2.8,1.2c0.4,0,0.8,0.2,1,0.6c0.4,0.6,0.4,1.4,0,1.8C794.6,429.2,794.2,429.6,793.4,429.6z"/>
			<g>
				<g>
					<path class="st23" d="M780.2,426.6L780.2,426.6c-0.2,0-1.2-0.6-2.2,0c-0.2,0-0.2,0-0.2,0c0-0.2,0-0.2,0-0.2
						c1.2-0.8,2.4,0,2.6,0C780.4,426.4,780.6,426.4,780.2,426.6C780.4,426.6,780.4,426.6,780.2,426.6z"/>
					<path class="st23" d="M784.4,422.2c-2.4,0-4.2,2-4.2,4.2c0,2.4,2,4.2,4.2,4.2s4.2-2,4.2-4.2C788.6,424,786.6,422.2,784.4,422.2
						z M784.4,430.4c-2.2,0-3.8-1.8-3.8-3.8c0-2.2,1.8-3.8,3.8-3.8s3.8,1.8,3.8,3.8S786.4,430.4,784.4,430.4z"/>
					<path class="st23" d="M774.2,422.2c-2.2,0-3.8,2-3.8,4.2c0,2.4,1.8,4.2,3.8,4.2c2.2,0,3.8-2,3.8-4.2
						C778.2,424,776.4,422.2,774.2,422.2z M774.2,430.4c-2,0-3.6-1.8-3.6-4s1.6-4,3.6-4s3.6,1.8,3.6,4S776.2,430.4,774.2,430.4z"/>
					<path class="st23" d="M788.4,426.8c0,0-0.2,0-0.2-0.2s0-0.2,0.2-0.2l4-1c0.2,0,0.2,0,0.2,0.2s0,0.2-0.2,0.2L788.4,426.8
						L788.4,426.8z"/>
				</g>
			</g>
			<path class="st36" d="M777.2,433.4c0.2-1.4,2-1.4,6.4,0C780,437.8,777.4,437.2,777.2,433.4z"/>
			<path class="st23" d="M773.6,421.6c2.6-0.4,4.4,0.4,4.4,0.4C776.2,419.4,774.2,419.4,773.6,421.6z"/>
			<path class="st23" d="M780.4,434.2c-1.2,0-2.6-0.2-3.8-0.6c-0.2,0-0.2-0.2-0.2-0.2c0-0.2,0.2-0.2,0.2-0.2c2.8,1,5.8,0.8,7-0.2
				c0.2,0,0.2,0,0.2,0c0,0.2,0,0.2,0,0.2C783.4,434,782,434.2,780.4,434.2z"/>
			<path class="st30" d="M779.8,460.8C779.8,460.8,779.6,460.8,779.8,460.8c-1.6-1-1-4.8-0.6-6.8c0-0.2,0-0.4,0-0.4
				c-0.6-0.2-4,2.6-4.4,3.8l-0.2,0.2l-0.2-0.2c0,0,0-3.6,0.6-6.6c0-0.2,0.2-0.2,0.2-0.2c0.2,0,0.2,0.2,0.2,0.2
				c-0.6,2.2-0.6,4.6-0.6,5.8c1-1.4,3.6-3.6,4.6-3.4c0.2,0,0.4,0.2,0.2,0.8c-0.8,3.4-0.6,5.8,0.2,6.4
				C780,460.6,780,460.6,779.8,460.8L779.8,460.8z"/>
			<path class="st30" d="M788.8,461.6L788.8,461.6c-0.2,0-0.2,0-0.2-0.2c0,0-0.6-2.6-1.2-4.4c-0.2-0.8-0.6-1.2-1-1.2
				s-0.8,0.4-1.2,1.2c0,0.2-0.2,0.2-0.2,0.2c-0.2,0-0.2-0.2-0.2-0.2c0.6-1.4,1.2-1.6,1.6-1.6c0.6,0,1,0.6,1.4,1.6
				c0.4,1.4,0.8,3.2,1,4c1.2-1.2,5.4-6.2,6.2-8.8c0-0.2,0.2-0.2,0.2-0.2c0.2,0,0.2,0.2,0.2,0.2C794.6,455.4,789.2,461.2,788.8,461.6
				L788.8,461.6z"/>
			<path class="st30" d="M778.2,490.8c-0.2,0-0.2,0-0.2-0.2c0,0-0.8-5.8-1.2-8.8c-0.2-1.8,0.8-7,1.6-11.4c0.6-2.8,1.2-5.4,1.2-6.6
				c0-0.2,0.2-0.2,0.2-0.2c0.2,0,0.2,0.2,0.2,0.2c0,1.2-0.6,3.8-1.2,6.6c-0.8,4.4-2,9.6-1.6,11.4c0.4,3,1.2,8.8,1.2,8.8
				C778.4,490.6,778.4,490.8,778.2,490.8L778.2,490.8z"/>
			<path class="st30" d="M764.8,476.4L764.8,476.4c-0.2,0-0.2-0.2-0.2-0.2s2.6-9,2-14.4c0-0.2,0-0.2,0.2-0.2s0.2,0,0.2,0.2
				c0.4,5.6-2,14.6-2,14.6H764.8z"/>
			<path class="st30" d="M805.2,472L805.2,472c-0.2,0-0.2-0.2-0.2-0.2s1.2-9,6.2-13.6c0,0,0.2,0,0.4,0c0,0,0,0.2,0,0.4
				c-4.8,4.6-6,13.4-6.2,13.4C805.4,471.8,805.4,472,805.2,472z"/>
			<path class="st30" d="M774.4,526.2c-0.2,0-0.2,0-0.2-0.2c0,0-1.4-8,1.8-15.8c0-0.2,0.2-0.2,0.2-0.2c0.2,0,0.2,0.2,0.2,0.2
				c-3.2,7.8-1.8,15.4-1.8,15.6C774.6,526,774.6,526,774.4,526.2L774.4,526.2z"/>
			<path class="st30" d="M740.2,564L740.2,564c-0.2,0-0.2-0.2-0.2-0.2c2.2-11.2,29.2-26.6,30.4-27.2c0.2,0,0.2,0,0.2,0
				c0,0.2,0,0.2,0,0.2c-0.2,0.2-28,16-30.2,27C740.4,564,740.2,564,740.2,564z"/>
			<path class="st30" d="M759.6,607.2c-0.2,0-0.2,0-0.2-0.2s-1-29.4-1-31.8c0-1.4,0.6-1.8,1.2-2.2c0.6-0.4,1-0.6,1.2-1.6
				c0.2-0.8,0.2-1.4,0-1.8c0-1,0-1.4,1.4-2.2c2.4-1.4,36.8-22.8,38.8-28.6s-0.6-26.2-0.6-26.4s0-0.2,0.2-0.2s0.2,0,0.2,0.2
				c0.2,0.8,2.6,20.6,0.6,26.6c-2.2,6.2-38.6,28.6-39,28.8c-1.4,0.8-1.2,1-1.2,1.8c0,0.4,0,1,0,2c-0.2,1.2-0.8,1.6-1.4,2
				c-0.6,0.4-1,0.6-1,1.8c0,2.4,1,31.6,1,31.8C759.8,607,759.8,607.2,759.6,607.2L759.6,607.2z"/>
			<path class="st30" d="M768.4,574c-0.2,0-0.2,0-0.4,0c-1.2-0.4-3.4-0.8-3.4-0.8c-0.2,0-0.2-0.2-0.2-0.2c0-0.2,0.2-0.2,0.2-0.2
				s2.2,0.4,3.4,0.8c0.2,0,0.2,0,0.2,0c-0.2-0.2-0.8-1-1.6-2c-0.2-0.2-0.4-0.6-0.6-0.8v-0.2h0.2c0.2,0.2,0.4,0.6,0.6,0.8
				c1.4,1.6,1.8,2.2,1.6,2.4C768.6,574,768.6,574,768.4,574z M768.4,573.6L768.4,573.6L768.4,573.6z"/>
			<path class="st30" d="M734.4,566.2c-0.2,0-0.2,0-0.4,0c-1.2-0.4-3.4-0.8-3.4-0.8c-0.2,0-0.2-0.2-0.2-0.2c0-0.2,0.2-0.2,0.2-0.2
				s2.2,0.4,3.4,0.8c0.2,0,0.2,0,0.2,0c-0.2-0.2-0.8-1-1.6-2c-0.2-0.2-0.4-0.6-0.6-0.8v-0.2h0.2c0.2,0.2,0.4,0.6,0.6,0.8
				c1.4,1.6,1.8,2.2,1.6,2.4C734.6,566.2,734.6,566.2,734.4,566.2z M734.4,565.8L734.4,565.8L734.4,565.8z"/>
			
				<rect x="776.5" y="501.3" transform="matrix(0.1191 -0.9929 0.9929 0.1191 182.9335 1220.3827)" class="st14" width="5.4" height="11.6"/>
			<rect x="790.4" y="505" class="st28" width="1.4" height="5.8"/>
			<path class="st22" d="M818.6,510l0.4,3.4c-6.4,5.6-19.4,20-21.8,20.6c-2.4,0.6-10.8-5.4-10.8-5.4l-7.2,1.4c0,0-6.8,6-6.6,6.4
				c1,0.8,6.4-3,6.4-3h1.8c0,0-1.8,1.2-2,2s-2.6,7.6-2.2,7.8c0.4,0.2,1.6-0.4,1.6-0.4c0,0.6-1,1,0.2,0.8s3.8-3.8,3.8-3.8L782,544
				c1,0,1.8-3.2,2.4-4.2c0.6-1,6.8-1.2,8.6,1s5.2,4.6,10.2,0.2c13-5.6,31.6-19,31.8-22.6c0-3.4-1.8-11.2-1.8-11.2
				C828.4,509.2,821.6,510.4,818.6,510z"/>
			<path class="st29" d="M778.6,541.4L778.6,541.4c-0.2,0-0.2-0.2-0.2-0.2c0.2-0.4,1.8-4.6,2.4-5c0.6-0.4,2.6-1.6,2.8-1.6
				s0.2,0,0.2,0c0,0.2,0,0.2,0,0.2s-2.2,1.2-2.6,1.6C780.8,536.8,779.4,539.6,778.6,541.4C778.8,541.4,778.6,541.4,778.6,541.4z"/>
			<polygon class="st23" points="779.8,534.4 766.4,529.4 763.4,529.6 765.8,531.2 778.6,536.4 779,535.2 			"/>
			<path class="st1" d="M673.8,500.4H708c-16.4,26.6-2.6,46.8-2.6,46.8S667.6,550,667,550C657,531.4,669.8,503.8,673.8,500.4z"/>
		</g>
		<g>
			<g>
				<path class="st2" d="M42.2,678.2v-2.6c0-3.6-1.4-7.2-4-10.2s-4-6.8-4-10.8c0-4.6,1.8-9,5.2-12.2s7.8-4.8,12.4-4.6
					c8.4,0.4,15.4,7.4,16,15.8c0.2,4.2-1.2,8.2-3.8,11.6c-2.8,3.2-4.2,7-4.2,11v2.2c0,4.8-4,8.8-8.8,8.8S42.2,683,42.2,678.2z
					 M40.6,643.6c-3,2.8-4.6,6.6-4.6,10.8c0,3.6,1.2,7,3.6,9.6c2.8,3.4,4.4,7.4,4.4,11.4v2.6c0,3.8,3.2,7,7,7s7-3.2,7-7v-2
					c0-4.2,1.6-8.6,4.6-12.2c2.4-2.8,3.6-6.6,3.4-10.2c-0.4-7.6-6.6-13.8-14.2-14c-0.2,0-0.4,0-0.8,0
					C47.2,639.6,43.4,641,40.6,643.6z"/>
			</g>
			<g>
				<rect x="50" y="622.2" class="st2" width="1.8" height="11.6"/>
			</g>
			<g>
				
					<rect x="31.4" y="630.2" transform="matrix(0.7071 -0.7071 0.7071 0.7071 -440.2369 209.1129)" class="st2" width="1.8" height="11.6"/>
			</g>
			<g>
				<rect x="18.8" y="653.8" class="st2" width="11.6" height="1.8"/>
			</g>
			<g>
				
					<rect x="64" y="634.8" transform="matrix(0.7071 -0.7071 0.7071 0.7071 -429.0579 235.5516)" class="st2" width="11.6" height="1.8"/>
			</g>
			<g>
				<rect x="71.8" y="653.6" class="st2" width="11.6" height="1.8"/>
			</g>
			<g>
				<rect x="44.4" y="672.2" class="st2" width="13.4" height="1.8"/>
			</g>
			<g>
				<rect x="45.2" y="677.6" class="st2" width="12" height="1.8"/>
			</g>
		</g>
		<g>
			<g>
				<rect x="567.4" y="297" class="st2" width="1.8" height="6"/>
			</g>
			<g>
				<rect x="567.4" y="307.2" class="st2" width="1.8" height="6"/>
			</g>
			<g>
				<rect x="560.2" y="304.2" class="st2" width="6" height="1.8"/>
			</g>
			<g>
				<rect x="570.4" y="304.2" class="st2" width="6" height="1.8"/>
			</g>
		</g>
		<g>
			<g>
				<rect x="98.4" y="704.8" class="st2" width="1.8" height="6"/>
			</g>
			<g>
				<rect x="98.4" y="715" class="st2" width="1.8" height="6"/>
			</g>
			<g>
				<rect x="91.2" y="712" class="st2" width="6" height="1.8"/>
			</g>
			<g>
				<rect x="101.4" y="712" class="st2" width="6" height="1.8"/>
			</g>
		</g>
		<g>
			<g>
				<line class="st37" x1="951.4" y1="581" x2="951.4" y2="582.6"/>
			</g>
		</g>
		<g>
			<g>
				<rect x="218.6" y="228" class="st2" width="1.8" height="6"/>
			</g>
			<g>
				<rect x="218.6" y="238.2" class="st2" width="1.8" height="6"/>
			</g>
			<g>
				<rect x="211.4" y="235.2" class="st2" width="6" height="1.8"/>
			</g>
			<g>
				<rect x="221.6" y="235.2" class="st2" width="6" height="1.8"/>
			</g>
		</g>
		<g>
			<g>
				<path class="st2" d="M856.8,271.6l5.2,4L842.6,300l-5.2-4L856.8,271.6z M860.8,275.8l-4-3L838.4,296l4,3L860.8,275.8z"/>
			</g>
			<g>
				<path class="st2" d="M862.4,269.6l-0.8,6.8L856,272L862.4,269.6z M861.6,270.8l-4,1.4l3.4,2.8L861.6,270.8z"/>
			</g>
			<g>
				<path class="st2" d="M841.4,291l5.2,4l-4,5.2l-5.2-4L841.4,291z M845.6,295.2l-4-3l-3,4l4,3L845.6,295.2z"/>
			</g>
		</g>
		<g>
			<g>
				<path class="st2" d="M607.4,251.4H637l7.6,7.6v43h-37.2L607.4,251.4L607.4,251.4z M643.2,259.6l-6.8-6.8h-27.6v48h34.6v-41.2
					H643.2z"/>
			</g>
			<g>
				<polygon class="st2" points="633.6,262.4 642,262.4 642,261.2 635,261.2 635,254.2 633.6,254.2 				"/>
			</g>
		</g>
		<g>
			<g>
				<path class="st2" d="M902.2,503.4c0-0.2-6.8-11.4-26.2-32l-0.8,0.8c19.2,20.4,26,31.6,26,31.8L902.2,503.4z"/>
			</g>
			<g>
				<path class="st2" d="M895.8,496.2c-0.6,0-13.6-0.4-20.6-8.6l-0.8-1h1.2c3-0.2,5.2-0.4,6.6-0.4c-2.2-0.6-5.4-1.6-9.6-2.8h-0.2
					l-0.2-0.2c-3.6-7.8-2.4-16.6-2.2-17v-0.6h0.6c0.2,0,7,0.2,13.4,3.2l0.4,0.2v0.4c-0.2,1.4-0.2,3.2-0.4,4.6l2.6-3.8l0.6,0.4
					c1.6,1,3,2.4,4.2,3.8c7,8.4,5.4,21.2,5.2,21.8v0.6L895.8,496.2z M882.4,478l0.2-2.2c0,0,0.2-3.6,0.4-6.4c-5-2.4-10.2-2.8-12-3
					c-0.2,2-0.6,9.2,2.2,15.6c12.6,3.8,12.6,3.8,12.6,4.4v0.4h-0.4c0,0-0.4,0-8.4,0.6c6,6.2,16,7.4,18.6,7.4
					c0.2-2.6,0.8-13.4-5-20.2c-1-1.2-2.2-2.2-3.4-3.2L882.4,478z"/>
			</g>
		</g>
	</g>
</g>
</svg>
