<?xml version="1.0" encoding="utf-8"?>
<!-- Generator: Adobe Illustrator 25.2.1, SVG Export Plug-In . SVG Version: 6.00 Build 0)  -->
<svg version="1.1" id="Layer_1" xmlns="http://www.w3.org/2000/svg" xmlns:xlink="http://www.w3.org/1999/xlink" x="0px" y="0px"
	 width="1000px" height="1000px" viewBox="0 0 1000 1000" style="enable-background:new 0 0 1000 1000;" xml:space="preserve">
<style type="text/css">
	.st0{fill:#72C383;}
	.st1{fill:#FEF6E5;}
	.st2{fill:#A7B4A9;}
	.st3{fill:#68796C;}
	.st4{fill:#7D9181;}
	.st5{fill:#81585C;}
	.st6{fill:#C8DDEA;}
	.st7{fill:#D4EFFC;}
	.st8{fill:#87819D;}
	.st9{fill:#A9A1C4;}
	.st10{fill:#D6D0E8;}
	.st11{fill:#6B6483;}
	.st12{fill:#48435A;}
	.st13{fill:#424242;}
	.st14{fill:#FFCF82;}
	.st15{fill:#5F5874;}
	.st16{fill:#EFB4A9;}
	.st17{fill:#EFE2C9;}
	.st18{fill:#FFFDFA;}
	.st19{fill:#E0E0E0;}
	.st20{fill:#B5465B;}
	.st21{fill:#F1617F;}
	.st22{fill:#F58765;}
	.st23{fill:#2C1913;}
	.st24{fill:#503126;}
	.st25{fill:#76A4BB;}
	.st26{fill:#D77254;}
	.st27{fill:#EA7C5A;}
	.st28{fill:#72D0F1;}
	.st29{fill:#E0B3A8;}
	.st30{fill:#CCCCCC;}
	.st31{fill:#B3B3B3;}
	.st32{fill:#595174;}
	.st33{fill:#8F88A6;}
	.st34{fill:#6C494C;}
	.st35{fill:#4E3537;}
	.st36{fill:#F04D4C;}
	.st37{fill:none;}
</style>
<g>
	<rect class="st0" width="1000" height="1000"/>
	<g>
		<g>
			<path class="st1" d="M149.6,699.8c-102-43.4-153-300.8-23-431.8s309.8-133,421.8-13s165,147,259,138s176,260,14,308.4
				L149.6,699.8z"/>
			<path class="st1" d="M685.6,190c-104.4-24.2-93,104.2-24,133.4C721.6,348.8,841.6,226,685.6,190z"/>
			<path class="st2" d="M879.6,701.4h-743c-15.2,0-27.6,12.4-27.6,27.6v0.8h798.2V729C907.2,713.6,894.8,701.4,879.6,701.4z"/>
		</g>
		<g>
			<g>
				<path class="st2" d="M413.8,281.8c-0.6,0-1,0-1.6,0c-0.4,0-0.6-0.4-0.6-0.8s0.4-0.6,0.8-0.6c2.8,0,5.6,0,8.4-0.4
					c0.4,0,0.8,0.2,0.8,0.6s-0.2,0.8-0.6,0.8C418.4,281.6,416.2,281.8,413.8,281.8z M404,281C403.8,281,403.8,281,404,281
					c-3-0.4-5.6-1-8.4-1.8c-0.4-0.2-0.6-0.4-0.4-0.8s0.4-0.6,0.8-0.4c2.6,0.8,5.4,1.4,8.2,1.8c0.4,0,0.6,0.4,0.6,0.8
					C404.6,280.8,404.2,281,404,281z M429,280c-0.4,0-0.6-0.2-0.6-0.6s0.2-0.8,0.6-0.8c2.6-0.6,5.4-1.4,8-2.4c0.4-0.2,0.8,0,1,0.4
					s0,0.8-0.4,1C434.6,278.4,431.8,279.2,429,280L429,280z M387.8,276.2h-0.2c-2.6-1.2-5.2-2.4-7.6-4c-0.4-0.2-0.4-0.6-0.2-1
					c0.2-0.4,0.6-0.4,1-0.2c2.4,1.4,4.8,2.8,7.4,3.8c0.4,0.2,0.6,0.6,0.4,1C388.4,276,388.2,276.2,387.8,276.2z M444.6,274
					c-0.2,0-0.4-0.2-0.6-0.4c-0.2-0.4,0-0.8,0.2-1c2.4-1.4,4.8-2.8,7-4.4c0.4-0.2,0.8-0.2,1,0.2c0.2,0.4,0.2,0.8-0.2,1
					c-2.2,1.6-4.6,3.2-7.2,4.6C444.8,274,444.6,274,444.6,274z M373.6,267.4c-0.2,0-0.4,0-0.4-0.2c-2.2-1.8-4.2-3.8-6.2-5.8
					c-0.2-0.2-0.2-0.8,0-1s0.8-0.2,1,0c2,2,4,3.8,6.2,5.6c0.4,0.2,0.4,0.6,0.2,1C374,267.4,373.8,267.4,373.6,267.4z M458.2,264
					c-0.2,0-0.4,0-0.6-0.2s-0.2-0.8,0-1c2-2,3.8-4,5.6-6.2c0.2-0.4,0.6-0.4,1-0.2c0.4,0.2,0.4,0.6,0.2,1c-1.8,2.2-3.8,4.2-5.8,6.2
					C458.4,264,458.2,264,458.2,264z M362,255.4c-0.2,0-0.4,0-0.6-0.2c-1.6-2.2-3.2-4.6-4.6-7.2c-0.2-0.4,0-0.8,0.2-1
					c0.4-0.2,0.8,0,1,0.2c1.4,2.4,2.8,4.8,4.4,7c0.2,0.4,0.2,0.8-0.2,1C362.2,255.2,362.2,255.4,362,255.4z M468.6,251
					c-0.2,0-0.2,0-0.4-0.2c-0.4-0.2-0.4-0.6-0.2-1c1.4-2.4,2.8-4.8,3.8-7.4c0.2-0.4,0.6-0.6,1-0.4s0.6,0.6,0.4,1
					c-1.2,2.6-2.4,5.2-4,7.6C469.2,250.8,468.8,251,468.6,251z M354,240.6c-0.2,0-0.6-0.2-0.6-0.4c-1-2.6-1.8-5.4-2.6-8.2
					c0-0.4,0.2-0.8,0.6-0.8s0.8,0.2,0.8,0.6c0.6,2.6,1.4,5.4,2.4,8c0.2,0.4,0,0.8-0.4,1C354.2,240.6,354,240.6,354,240.6z
					 M350,224.4c-0.4,0-0.6-0.2-0.6-0.6c-0.2-2.2-0.4-4.6-0.4-6.8c0-0.6,0-1.2,0-1.6s0.4-0.8,0.8-0.6c0.4,0,0.6,0.4,0.6,0.8
					c0,0.6,0,1,0,1.6c0,2.2,0.2,4.4,0.4,6.6C350.8,224,350.6,224.2,350,224.4C350.2,224.4,350.2,224.4,350,224.4z M350.6,207.6
					C350.4,207.6,350.4,207.6,350.6,207.6c-0.4,0-0.8-0.4-0.6-0.8c0.4-2.8,1-5.6,1.8-8.2c0.2-0.4,0.4-0.6,0.8-0.4s0.6,0.4,0.4,0.8
					c-0.8,2.6-1.4,5.4-1.8,8.2C351.2,207.4,350.8,207.6,350.6,207.6z M355.2,191.6H355c-0.4-0.2-0.6-0.6-0.4-1
					c1.2-2.6,2.4-5.2,4-7.6c0.2-0.4,0.6-0.4,1-0.2c0.4,0.2,0.4,0.6,0.2,1c-1.4,2.4-2.8,4.8-3.8,7.4
					C355.8,191.4,355.6,191.6,355.2,191.6z M470.4,187.2c-0.2,0-0.4-0.2-0.6-0.4c-1.4-2.4-2.8-4.8-4.4-7c-0.2-0.4-0.2-0.8,0.2-1
					c0.4-0.2,0.8-0.2,1,0.2c1.6,2.2,3.2,4.8,4.6,7.2c0.2,0.4,0,0.8-0.2,1C470.6,187,470.4,187.2,470.4,187.2z M364,177.2
					c-0.2,0-0.4,0-0.4-0.2c-0.4-0.2-0.4-0.6-0.2-1c1.8-2.2,3.8-4.2,5.8-6.2c0.2-0.2,0.8-0.2,1,0s0.2,0.8,0,1c-2,2-4,4-5.6,6
					C364.4,177.2,364.2,177.2,364,177.2z M460.4,173.6c-0.2,0-0.4,0-0.6-0.2c-1.8-2-4-4-6-5.6c-0.4-0.2-0.4-0.6-0.2-1
					c0.2-0.2,0.6-0.4,1-0.2c2.2,1.8,4.2,3.8,6.2,5.8c0.2,0.2,0.2,0.8,0,1C460.8,173.4,460.6,173.6,460.4,173.6z M376.2,165.6
					c-0.2,0-0.4,0-0.6-0.2c-0.2-0.4-0.2-0.8,0.2-1c2.2-1.6,4.6-3.2,7.2-4.6c0.4-0.2,0.8,0,1,0.2c0.2,0.4,0,0.8-0.2,1
					c-2.4,1.4-4.8,2.8-7,4.4C376.4,165.6,376.4,165.6,376.2,165.6z M447.4,163c-0.2,0-0.2,0-0.4-0.2c-2.4-1.4-4.8-2.8-7.4-3.8
					c-0.4-0.2-0.6-0.6-0.4-1s0.6-0.6,1-0.4c2.6,1.2,5.2,2.4,7.6,4c0.4,0.2,0.4,0.6,0.2,1C448,162.8,447.8,163,447.4,163z M391,157.8
					c-0.2,0-0.6-0.2-0.6-0.4c-0.2-0.4,0-0.8,0.4-1c2.6-1,5.4-1.8,8.2-2.6c0.4,0,0.8,0.2,0.8,0.6c0,0.4-0.2,0.8-0.6,0.8
					c-2.6,0.6-5.4,1.4-8,2.4C391,157.6,391,157.8,391,157.8z M432.2,156.2C432.2,156.2,432,156.2,432.2,156.2
					c-2.8-0.8-5.6-1.4-8.4-1.8c-0.4,0-0.6-0.4-0.6-0.8c0-0.4,0.4-0.6,0.8-0.6c2.8,0.4,5.6,1,8.2,1.8c0.4,0.2,0.6,0.6,0.4,0.8
					C432.8,156,432.4,156.2,432.2,156.2z M407.2,153.8c-0.4,0-0.6-0.2-0.6-0.6c0-0.4,0.2-0.8,0.6-0.8c2.8-0.2,5.6-0.4,8.4-0.4
					c0.4,0,0.6,0.4,0.6,0.8c0,0.4-0.4,0.6-0.8,0.6C412.8,153.4,410,153.6,407.2,153.8L407.2,153.8z"/>
			</g>
		</g>
		<g>
			<path class="st2" d="M521.2,225.2h-68.4l-0.2-0.8c-0.4-2.6,0.6-5,2.8-6.6c2.6-2,6.4-2.6,10-1.6c0.2-6.4,2.2-11.8,5.8-15.6
				c3.8-3.8,9.4-6,15.8-6c6.2,0,11.8,2,15.8,6c3.8,3.8,5.8,9.2,5.8,15.6c3.6-1,7.4-0.4,10,1.6c2,1.6,3,4,2.8,6.6L521.2,225.2z
				 M454.6,223.2h64.8c0-2-1-3.4-2-4c-2.4-1.8-6.2-2.2-9.4-0.8l-1.4,0.6v-1.4c0.2-6.4-1.6-11.8-5.2-15.4c-3.4-3.6-8.6-5.4-14.4-5.4
				s-11,1.8-14.4,5.4c-3.6,3.6-5.4,9-5.2,15.4v1.4l-1.4-0.6c-3.2-1.2-7.2-1-9.4,0.8C455.6,220,454.6,221.2,454.6,223.2z"/>
		</g>
		<g>
			<g>
				<g>
					<path class="st2" d="M899,288.2c0.4,0,0.8-0.2,0.8-0.6s-0.2-0.8-0.6-1c-1.6-0.2-3.2-0.6-4.8-0.8c-0.4,0-0.8,0.2-1,0.6
						c0,0.4,0.2,0.8,0.6,1C895.8,287.6,897.4,288,899,288.2L899,288.2z"/>
				</g>
			</g>
			<g>
				<g>
					<path class="st2" d="M852.8,290.6h0.2c1.6-0.4,3.2-0.8,4.6-1.2c0.4-0.2,0.8-0.6,0.6-1s-0.6-0.8-1-0.6c-1.6,0.4-3.2,0.8-4.8,1.2
						c-0.4,0.2-0.6,0.6-0.6,1C852.2,290.4,852.4,290.6,852.8,290.6z"/>
				</g>
				<g>
					<path class="st2" d="M879.6,493.6c-3.2,0-6.6-0.2-9.8-0.6c-0.4,0-0.8-0.4-0.8-0.8c0-0.4,0.4-0.8,0.8-0.8
						c3.2,0.4,6.4,0.6,9.8,0.6c0.4,0,0.8,0.4,0.8,0.8C880.4,493.2,880,493.6,879.6,493.6L879.6,493.6z M888.6,492.6
						c0-0.4,0.2-0.8,0.8-0.8c3.2-0.2,6.4-0.6,9.6-1.2c0.4,0,0.8,0.2,1,0.6c0,0.4-0.2,0.8-0.6,1c-3.2,0.6-6.6,1-9.8,1.2l0,0
						C889,493.2,888.6,493,888.6,492.6z M860,491.4c-3.2-0.6-6.4-1.4-9.6-2.4c-0.4-0.2-0.6-0.6-0.6-1c0.2-0.4,0.6-0.6,1-0.6
						c3,1,6.2,1.8,9.4,2.4c0.4,0,0.8,0.6,0.6,1C860.8,491.2,860.4,491.6,860,491.4C860,491.6,860,491.4,860,491.4z M908,489.2
						c-0.2-0.4,0.2-0.8,0.6-1c3.2-0.8,6.2-1.8,9.2-3c0.4-0.2,0.8,0,1,0.4s0,0.8-0.4,1c-3,1.2-6.2,2.2-9.4,3.2h-0.2
						C908.4,489.8,908,489.6,908,489.2z M841,485.6c-3-1.2-6-2.6-9-4.2c-0.4-0.2-0.6-0.6-0.4-1c0.2-0.4,0.6-0.6,1-0.4
						c2.8,1.6,5.8,3,8.8,4.2c0.4,0.2,0.6,0.6,0.4,1C841.6,485.6,841.4,485.6,841,485.6C841.2,485.8,841,485.8,841,485.6z
						 M926.4,482.4c-0.2-0.4,0-0.8,0.4-1c2.8-1.4,5.8-3,8.6-4.8c0.4-0.2,0.8-0.2,1.2,0.2c0.2,0.4,0.2,0.8-0.2,1.2
						c-2.8,1.8-5.8,3.4-8.6,4.8c-0.2,0-0.2,0-0.4,0C926.8,482.8,926.6,482.6,926.4,482.4z M823.6,476.4c-2.8-1.8-5.4-3.8-8-5.8
						c-0.4-0.2-0.4-0.8-0.2-1.2s0.8-0.4,1.2-0.2c2.6,2,5.2,4,7.8,5.8c0.4,0.2,0.4,0.8,0.2,1.2c-0.2,0.2-0.4,0.4-0.6,0.4
						C823.8,476.4,823.6,476.4,823.6,476.4z M943.2,472.2c-0.2-0.4-0.2-0.8,0.2-1.2c2.6-2,5-4,7.4-6.2c0.4-0.4,0.8-0.2,1.2,0
						c0.4,0.4,0.2,0.8,0,1.2c-2.4,2.2-5,4.4-7.6,6.4c-0.2,0.2-0.4,0.2-0.4,0.2C943.6,472.4,943.4,472.4,943.2,472.2z M808.2,464
						c-2.4-2.4-4.6-4.8-6.8-7.2c-0.2-0.4-0.2-0.8,0-1.2c0.4-0.2,0.8-0.2,1.2,0c2,2.4,4.4,4.8,6.6,7.2c0.4,0.4,0.4,0.8,0,1.2
						c-0.2,0.2-0.4,0.2-0.6,0.2C808.4,464.2,808.2,464,808.2,464z M795.4,448.8c-1.8-2.8-3.6-5.6-5.2-8.4c-0.2-0.4,0-0.8,0.4-1
						s0.8,0,1,0.4c1.6,2.8,3.4,5.6,5.2,8.2c0.2,0.4,0.2,0.8-0.2,1.2c-0.2,0-0.4,0.2-0.4,0.2C795.8,449.2,795.4,449,795.4,448.8z
						 M785.6,431.6c-1.4-3-2.6-6.2-3.6-9.2c-0.2-0.4,0-0.8,0.6-1c0.4-0.2,0.8,0,1,0.6c1,3,2.2,6.2,3.6,9.2c0.2,0.4,0,0.8-0.4,1
						c-0.2,0-0.2,0-0.4,0C786,432,785.8,431.8,785.6,431.6z M779.4,412.8c-0.8-3.2-1.4-6.4-1.8-9.8c0-0.4,0.2-0.8,0.6-1
						c0.4,0,0.8,0.2,1,0.6c0.4,3.2,1,6.4,1.8,9.6c0,0.4-0.2,0.8-0.6,1h-0.2C779.8,413.4,779.4,413.2,779.4,412.8z M776.8,393.2
						c0-1.2,0-2.6,0-3.8c0-2,0-4,0.2-6.2c0-0.4,0.4-0.8,0.8-0.8c0.4,0,0.8,0.4,0.8,0.8c-0.2,2-0.2,4-0.2,6c0,1.2,0,2.4,0,3.8
						c0,0.4-0.4,0.8-0.8,0.8l0,0C777.2,393.8,776.8,393.6,776.8,393.2z M778.6,374.2c-0.4,0-0.8-0.4-0.6-1c0.6-3.2,1.2-6.6,2-9.8
						c0.2-0.4,0.6-0.6,1-0.6c0.4,0.2,0.6,0.6,0.6,1c-0.8,3.2-1.4,6.4-2,9.6C779.4,374,779.2,374.2,778.6,374.2
						C778.8,374.2,778.6,374.2,778.6,374.2z M783.2,355.2c-0.4-0.2-0.6-0.6-0.4-1c1.2-3,2.4-6.2,3.8-9.2c0.2-0.4,0.6-0.6,1-0.4
						s0.6,0.6,0.4,1c-1.4,3-2.6,6-3.8,9c-0.2,0.4-0.4,0.6-0.8,0.6C783.4,355.2,783.4,355.2,783.2,355.2z M791.6,337.4
						c-0.4-0.2-0.6-0.8-0.2-1.2c1.6-2.8,3.6-5.6,5.4-8.2c0.2-0.4,0.8-0.4,1.2-0.2c0.4,0.2,0.4,0.8,0.2,1.2c-2,2.6-3.8,5.4-5.4,8.2
						c-0.2,0.2-0.4,0.4-0.6,0.4C791.8,337.4,791.6,337.4,791.6,337.4z M803,321.4c-0.4-0.2-0.4-0.8,0-1.2c2.2-2.4,4.6-4.8,7-7.2
						c0.4-0.4,0.8-0.2,1.2,0c0.4,0.4,0.2,0.8,0,1.2c-2.4,2.2-4.6,4.6-6.8,7c-0.2,0.2-0.4,0.2-0.6,0.2
						C803.4,321.6,803.2,321.6,803,321.4z M817.2,307.8c-0.2-0.4-0.2-0.8,0.2-1.2c2.6-2,5.4-4,8.2-5.6c0.4-0.2,0.8-0.2,1.2,0.2
						c0.2,0.4,0.2,0.8-0.2,1.2c-2.8,1.8-5.4,3.6-8,5.6c-0.2,0.2-0.4,0.2-0.4,0.2C817.6,308.2,817.4,308,817.2,307.8z M833.8,297.2
						c-0.2-0.4,0-0.8,0.4-1c3-1.4,6-2.8,9-4c0.4-0.2,0.8,0,1,0.4s0,0.8-0.4,1c-3,1.2-6,2.6-9,4c-0.2,0-0.2,0-0.4,0
						C834.2,297.6,833.8,297.6,833.8,297.2z"/>
				</g>
			</g>
			<g>
				<g>
					<path class="st2" d="M899,288.2c0.4,0,0.8-0.2,0.8-0.6s-0.2-0.8-0.6-1c-1.6-0.2-3.2-0.6-4.8-0.8c-0.4,0-0.8,0.2-1,0.6
						c0,0.4,0.2,0.8,0.6,1C895.8,287.6,897.4,288,899,288.2L899,288.2z"/>
				</g>
			</g>
			<g>
				<path class="st2" d="M870.6,289.6l-12.8-9.2h15.8l4.8-15l4.8,15H899l-12.8,9.2l4.8,15l-12.8-9.2l-12.8,9.2L870.6,289.6z
					 M888.2,300.4l-3.8-11.4l9.8-7h-12l-3.8-11.4l-3.8,11.4h-12l9.8,7l-3.8,11.4l9.8-7L888.2,300.4z"/>
			</g>
		</g>
		<g>
			<g>
				<path class="st2" d="M199,303.6c-0.6,0-1-0.6-0.8-1c0-0.6,0.6-1,1-0.8c3.8,0.4,7.8,0.6,11.8,0.4c0.6,0,1,0.4,1,1s-0.4,1-1,1
					c-0.8,0-1.6,0-2.2,0C205.4,304,202.2,304,199,303.6z M221.8,302.2c0-0.6,0.2-1,0.8-1.2c3.8-0.6,7.8-1.4,11.4-2.6
					c0.6-0.2,1,0.2,1.2,0.6c0.2,0.6-0.2,1-0.6,1.2c-3.8,1.2-7.8,2-11.6,2.6h-0.2C222.2,303,221.8,302.6,221.8,302.2z M187.2,301.6
					c-3.8-1-7.8-2.2-11.4-3.6c-0.6-0.2-0.8-0.8-0.6-1.2c0.2-0.6,0.8-0.8,1.2-0.6c3.6,1.4,7.4,2.6,11.2,3.4c0.6,0.2,0.8,0.6,0.8,1.2
					c-0.2,0.4-0.6,0.8-1,0.8C187.4,301.6,187.2,301.6,187.2,301.6z M244.6,295.8c-0.2-0.4,0-1,0.6-1.4c3.6-1.6,7-3.4,10.4-5.4
					c0.4-0.2,1-0.2,1.4,0.4c0.2,0.4,0.2,1-0.4,1.4c-3.4,2-7,4-10.6,5.6c-0.2,0-0.2,0-0.4,0C245,296.4,244.8,296.2,244.6,295.8z
					 M164.8,293c-3.4-2-6.8-4-10.2-6.4c-0.4-0.4-0.6-1-0.2-1.4c0.4-0.4,1-0.6,1.4-0.2c3.2,2.4,6.4,4.4,10,6.2
					c0.4,0.2,0.6,0.8,0.4,1.4c-0.2,0.4-0.6,0.6-0.8,0.6C165.2,293,165,293,164.8,293z M264.8,283.6c-0.4-0.4-0.2-1,0.2-1.4
					c3-2.4,6-5.2,8.6-8c0.4-0.4,1-0.4,1.4,0s0.4,1,0,1.4c-2.8,2.8-5.8,5.6-8.8,8.2c-0.2,0.2-0.4,0.2-0.6,0.2
					C265.4,284,265,283.8,264.8,283.6z M145.6,278.8c-2.8-2.8-5.6-5.8-8.2-8.8c-0.4-0.4-0.2-1,0.2-1.4s1-0.2,1.4,0.2
					c2.4,3,5.2,6,8,8.6c0.4,0.4,0.4,1,0,1.4c-0.2,0.2-0.4,0.4-0.8,0.4C146,279.2,145.8,279,145.6,278.8z M281.4,266.6
					c-0.4-0.4-0.6-1-0.2-1.4c2.2-3.2,4.4-6.4,6.2-10c0.2-0.4,0.8-0.6,1.4-0.4c0.4,0.2,0.6,0.8,0.4,1.4c-2,3.4-4,7-6.4,10.2
					c-0.2,0.2-0.4,0.4-0.8,0.4C281.8,266.8,281.6,266.8,281.4,266.6z M130.6,260.2c-2-3.4-4-7-5.6-10.6c-0.2-0.4,0-1,0.6-1.4
					c0.4-0.2,1,0,1.4,0.6c1.6,3.6,3.4,7,5.4,10.4c0.2,0.4,0.2,1-0.4,1.4c-0.2,0-0.4,0.2-0.6,0.2C131,260.6,130.6,260.6,130.6,260.2z
					 M292.8,246c-0.6-0.2-0.8-0.8-0.6-1.2c1.4-3.6,2.6-7.4,3.4-11.2c0.2-0.6,0.6-0.8,1.2-0.8c0.6,0.2,0.8,0.6,0.8,1.2
					c-1,3.8-2.2,7.8-3.6,11.4c-0.2,0.4-0.6,0.6-1,0.6C293.2,246,293,246,292.8,246z M298.6,223c-0.6,0-1-0.6-0.8-1
					c0.4-3,0.4-6.2,0.4-9.4c0-0.8,0-1.6,0-2.4c0-0.6,0.4-1,1-1s1,0.4,1,1c0,0.8,0,1.6,0,2.4c0,3.2-0.2,6.4-0.4,9.6
					C299.6,222.6,299.2,223,298.6,223C298.8,223,298.6,223,298.6,223z M297.2,198.6c-0.6-3.8-1.4-7.8-2.6-11.4
					c-0.2-0.6,0.2-1,0.6-1.2c0.6-0.2,1,0.2,1.2,0.6c1.2,3.8,2,7.8,2.6,11.6c0,0.6-0.2,1-0.8,1.2H298
					C297.6,199.4,297.2,199,297.2,198.6z M290.6,176c-1.6-3.6-3.4-7-5.4-10.4c-0.2-0.4-0.2-1,0.4-1.4c0.4-0.2,1-0.2,1.4,0.4
					c2,3.4,4,7,5.6,10.6c0.2,0.4,0,1-0.6,1.4c-0.2,0-0.2,0-0.4,0C291,176.6,290.8,176.4,290.6,176z M128.6,170.4
					c-0.4-0.2-0.6-0.8-0.4-1.4c1.8-3.6,4-7,6.4-10.2c0.4-0.4,1-0.6,1.4-0.2c0.4,0.4,0.6,1,0.2,1.4c-2.2,3.2-4.4,6.6-6.2,10
					c-0.2,0.4-0.6,0.6-0.8,0.6C128.8,170.4,128.6,170.4,128.6,170.4z M278.2,156.2c-2.4-3-5.2-6-8-8.6c-0.4-0.4-0.4-1,0-1.4
					s1-0.4,1.4,0c2.8,2.8,5.6,5.8,8.2,8.8c0.4,0.4,0.2,1-0.2,1.4c-0.2,0.2-0.4,0.2-0.6,0.2S278.4,156.4,278.2,156.2z M142.2,151
					c-0.4-0.4-0.4-1,0-1.4c2.8-2.8,5.6-5.6,8.8-8.2c0.4-0.4,1-0.2,1.4,0.2s0.2,1-0.2,1.4c-3,2.4-6,5.2-8.6,8
					c-0.2,0.2-0.4,0.4-0.8,0.4C142.6,151.4,142.4,151.2,142.2,151z M261.2,140c-3.2-2.2-6.4-4.4-10-6.2c-0.4-0.2-0.6-0.8-0.4-1.4
					c0.2-0.4,0.8-0.6,1.4-0.4c3.4,2,7,4,10.2,6.4c0.4,0.4,0.6,1,0.2,1.4c-0.2,0.2-0.4,0.4-0.8,0.4
					C261.6,140.2,261.4,140.2,261.2,140z M160.4,136c-0.2-0.4-0.2-1,0.4-1.4c3.4-2,7-4,10.6-5.6c0.4-0.2,1,0,1.4,0.4
					c0.2,0.4,0,1-0.4,1.4c-3.6,1.6-7,3.4-10.4,5.4c-0.2,0-0.4,0.2-0.6,0.2C161,136.4,160.6,136.2,160.4,136z M240.8,128.8
					c-3.6-1.4-7.4-2.6-11.2-3.4c-0.6-0.2-0.8-0.6-0.8-1.2c0.2-0.6,0.6-0.8,1.2-0.8c3.8,1,7.8,2.2,11.4,3.6c0.6,0.2,0.8,0.8,0.6,1.2
					s-0.6,0.6-1,0.6C241,129,240.8,129,240.8,128.8z M182,126c-0.2-0.6,0.2-1,0.6-1.2c3.8-1.2,7.8-2,11.6-2.6c0.6,0,1,0.2,1.2,0.8
					c0,0.6-0.2,1-0.8,1.2c-3.8,0.6-7.8,1.4-11.4,2.6H183C182.4,126.8,182,126.4,182,126z M218,123.4c-3.8-0.4-7.8-0.6-11.8-0.4
					c-0.6,0-1-0.4-1-1s0.4-1,1-1c4-0.2,8,0,12,0.4c0.6,0,1,0.6,0.8,1C219,123,218.6,123.4,218,123.4L218,123.4z"/>
			</g>
		</g>
		<g>
			<g>
				<path class="st2" d="M118.8,236.8h29.8c7.4,0,13.2-6,13.2-13.2v-36.2c0-1.6-1.2-2.8-2.8-2.8v1c1,0,1.8,0.8,1.8,1.8v36.2
					c0,6.6-5.4,12.2-12.2,12.2h-29.8c-1,0-1.8-0.8-1.8-1.8v-2.4h-1v2.4C116,235.6,117.2,236.8,118.8,236.8z"/>
			</g>
			<g>
				<path class="st2" d="M118.2,205c0-11.2,9-20.2,20.2-20.2h21v27.4c0,11.2-9,20.2-20.2,20.2h-21V205z M138.6,185.8
					c-10.6,0-19.2,8.6-19.2,19.2v26.2h20c10.6,0,19.2-8.6,19.2-19.2v-26.2H138.6z"/>
			</g>
			<g>
				<path class="st2" d="M88.8,236.8h29.8c1.6,0,2.8-1.2,2.8-2.8v-2.4h-1v2.4c0,1-0.8,1.8-1.8,1.8H88.8c-6.6,0-12.2-5.4-12.2-12.2
					v-36.2c0-1,0.8-1.8,1.8-1.8v-1c-1.6,0-2.8,1.2-2.8,2.8v36.2C75.6,231,81.4,236.8,88.8,236.8z"/>
			</g>
			<g>
				<path class="st2" d="M77.8,212v-27.4h21c11.2,0,20.2,9,20.2,20.2v27.4H98.2C87,232.2,77.8,223.2,77.8,212z M118,205
					c0-10.6-8.6-19.2-19.2-19.2h-20V212c0,10.6,8.6,19.2,19.2,19.2h20V205z"/>
			</g>
		</g>
		<g>
			<path class="st3" d="M790.2,682.4c66.8-62.2,191-72.8,191-72.8c-15.4,6-18.4,14-24.4,23.4c-6.2,9.6-23.4,2.6-32.2,0.4
				s-6.6,34.6-20.8,41s-25.6-13.2-36-3.4s-13.2,32-30.2,26.8s-19.6-12.2-27.8-1.8c-8.4,10.4-22.2-0.6-33-1.8
				C766.2,692.8,790.2,682.4,790.2,682.4z"/>
			<path class="st2" d="M812,657.6c46.8-78.4,163-123.2,163-123.2c-13.2,10-13.8,18.4-17,29.4c-3.2,10.8-21.8,9-30.8,9.4
				s3.4,35-8.4,45.2c-11.8,10.2-28.2-5.6-35.6,6.8c-7.4,12.2-3.6,34.4-21.4,34s-22.2-6.2-27.2,6c-5.2,12.2-21.4,5.6-32,7.6
				C791.6,674.4,812,657.6,812,657.6z"/>
			<path class="st4" d="M816.4,652.8c20-117.4,137-226.4,137-226.4c-11,18.4-7.8,29-6.8,43.8c1,14.8-21.6,21-32.2,25.8
				s8.4,29.4-1,47.4s-35.8,6.4-39,24.8c-3.2,18.4,11,43.8-10,51.6s-29,2.6-29.4,20c-0.6,17.4-11.6,28.4-23.2,35.8
				C800.2,682.8,816.4,652.8,816.4,652.8z"/>
			<path class="st3" d="M815.4,642.8C805.2,572,853.8,487,853.8,487c-3,12.6,0.8,18,4.2,26.2s-8.8,16.2-14.2,21s19.4,19.6,17.2,31.6
				s-20,10.6-18.4,21.6c1.6,11.2,14.8,22.8,3.8,31.4c-11,8.6-16.6,7.2-13.6,17.2s-10.4,14-15.8,20.4
				C811.4,663.2,815.4,642.8,815.4,642.8z"/>
		</g>
		<path class="st4" d="M208.8,489.8c-63.4-59-181.2-69.2-181.2-69.2c14.8,5.6,17.4,13.2,23.2,22.2s22.2,2.4,30.6,0.4
			S87.6,476,101,482c13.6,6,24.2-12.6,34.2-3.4c10,9.2,12.4,30.4,28.6,25.4s18.6-11.6,26.4-1.8c8,9.8,21-0.6,31.2-1.6
			C231.8,499.8,208.8,489.8,208.8,489.8z"/>
		<path class="st3" d="M188.2,466.2c-44.4-74.4-154.8-117-154.8-117c12.6,9.6,13,17.6,16,27.8c3,10.2,20.6,8.6,29.2,9
			s-3.2,33.2,8,42.8s26.8-5.2,33.8,6.4s3.4,32.6,20.4,32.4c16.8-0.2,21-6,26,5.6c4.8,11.6,20.4,5.2,30.4,7.2
			C207.4,482.2,188.2,466.2,188.2,466.2z"/>
		<path class="st4" d="M184,461.6c-19-111.4-130-215-130-215C64.4,264,61.4,274,60.4,288s20.4,20,30.4,24.4s-8,28,1,45s34,6,37,23.4
			s-10.4,41.4,9.4,49c20,7.4,27.4,2.4,28,19c0.4,16.4,11,27,22,34C199.4,490.2,184,461.6,184,461.6z"/>
		<path class="st2" d="M185,452.4c9.8-67.2-36.4-147.8-36.4-147.8c3,12-0.8,17.2-4,25S153,345,158,349.4c5,4.6-18.4,18.6-16.2,30
			s19,10,17.4,20.6s-14,21.6-3.6,29.8s15.8,6.8,13,16.2c-2.8,9.6,9.8,13.2,15,19.4C188.8,471.6,185,452.4,185,452.4z"/>
		<g>
			<path class="st5" d="M498,270.4l11.2,418.4l-252.6-8.2V220.8C323.4,252.4,471.8,280,498,270.4z"/>
			<path class="st6" d="M477,701.4l-252.6-8.2V233.6c66.8,31.4,226.4,51.8,252.6,42V701.4z"/>
			<path class="st7" d="M477,701.4H184V241.8c66.8,31.4,266.8,43.4,293,33.8V701.4z"/>
			<path class="st5" d="M488.4,270.4l-11.2,418.4l252.6-8.2V220.8C663,252.4,514.6,280,488.4,270.4z"/>
			<path class="st5" d="M475.6,269.6h33.8C501,256,482.8,258.4,475.6,269.6z"/>
			<path class="st6" d="M478.6,273.4H507C499.8,260,484.6,262.2,478.6,273.4z"/>
			<rect x="475.6" y="275.6" class="st6" width="33.8" height="425.8"/>
			<rect x="475.6" y="269.6" class="st7" width="33.8" height="6"/>
			<path class="st6" d="M509.4,701.4l252.6-8.2V233.6c-66.8,31.4-226.4,51.8-252.6,42V701.4z"/>
			<path class="st7" d="M509.4,701.4h293V241.8c-66.6,31.6-266.8,43.6-293,33.8L509.4,701.4L509.4,701.4z"/>
		</g>
		<g>
			<rect x="543.4" y="523.8" class="st8" width="299.8" height="178"/>
			<rect x="543.4" y="486.8" class="st9" width="329.8" height="37"/>
			<g>
				<polygon class="st10" points="708.2,486.8 671.2,523.8 717.2,523.8 754.2,486.8 				"/>
				<polygon class="st10" points="563.6,523.8 611.6,523.8 648.6,486.8 600.6,486.8 				"/>
				<polygon class="st10" points="860.4,486.8 809.6,486.8 772.6,523.8 823.4,523.8 				"/>
			</g>
			
				<rect x="523" y="386" transform="matrix(0.9198 -0.3923 0.3923 0.9198 -103.5489 302.2944)" class="st9" width="329.8" height="37"/>
			<g>
				<polygon class="st10" points="689.6,383.6 669.4,432.4 712.2,414.2 732.4,365.4 				"/>
				<polygon class="st10" points="569.6,475.2 614,456.2 634.2,407.2 589.6,426.2 				"/>
				<polygon class="st10" points="831,323.4 784,343.4 763.8,392.2 810.8,372.2 				"/>
			</g>
			<circle class="st8" cx="558.4" cy="465.2" r="26"/>
			<circle class="st11" cx="558.4" cy="465.2" r="16"/>
			<rect x="544.8" y="574.2" class="st9" width="296.4" height="3.4"/>
			<rect x="624.4" y="527.2" class="st9" width="2.4" height="172.4"/>
			<rect x="639.4" y="641.2" class="st9" width="195" height="4"/>
		</g>
		<g>
			<rect x="215" y="332.8" class="st12" width="24.4" height="178.4"/>
			<g>
				<path class="st12" d="M212.2,250.8l-3.6-1.4l10.2-26.6l34-11.4l49.2,0.8l23.2,21.2c6,5.4,8,14.2,5.2,21.8L317,290.6l-3.6-1.4
					l17.4-45.6L300.4,216l-47-0.8l-31.8,10.6L212.2,250.8z"/>
				
					<rect x="206.6" y="240" transform="matrix(0.3567 -0.9342 0.9342 0.3567 -125.6846 428.5173)" class="st8" width="83.4" height="131"/>
				
					<rect x="298" y="321.7" transform="matrix(0.3567 -0.9342 0.9342 0.3567 -105.0742 513.0103)" class="st12" width="44" height="22.2"/>
				<polygon class="st8" points="322.4,357.2 342.2,376.6 365.8,314.8 338.2,316.2 				"/>
				<path class="st13" d="M323,319.4l-5.8-2.2c-1-0.4-1.6-1.6-1.2-2.6v-0.2c0.4-1,1.6-1.6,2.6-1.2l5.8,2.2c1,0.4,1.6,1.6,1.2,2.6
					v0.2C325.2,319.4,324,319.8,323,319.4z"/>
				<path class="st13" d="M329.2,321.8L329.2,321.8c-1.2-0.4-1.8-1.6-1.4-2.6V319c0.4-1,1.6-1.6,2.6-1.2h0.2c1,0.4,1.6,1.6,1.2,2.6
					v0.2C331.4,321.6,330.2,322.2,329.2,321.8z"/>
				<polygon class="st13" points="337.8,320.6 338.6,318.4 363.6,317 361.2,323.4 				"/>
				<polygon class="st13" points="336,325.2 336.8,323 360.4,325.8 355.2,339.4 				"/>
				
					<rect x="258.9" y="264.7" transform="matrix(0.3567 -0.9342 0.9342 0.3567 -103.7765 446.3669)" class="st11" width="26.6" height="67.6"/>
				
					<rect x="312" y="291.2" transform="matrix(0.3567 -0.9342 0.9342 0.3567 -72.0287 482.5896)" class="st14" width="4.8" height="4.8"/>
				
					<rect x="257.2" y="316.2" transform="matrix(0.3567 -0.9342 0.9342 0.3567 -130.6259 448.792)" class="st14" width="6.8" height="6"/>
				
					<rect x="266.2" y="319.7" transform="matrix(0.3567 -0.9342 0.9342 0.3567 -128.0104 459.4245)" class="st14" width="6.8" height="6"/>
				
					<rect x="275.2" y="323.1" transform="matrix(0.3567 -0.9342 0.9342 0.3567 -125.3934 470.0484)" class="st14" width="6.8" height="6"/>
				<g>
					<ellipse class="st11" cx="300.9" cy="244.5" rx="33.6" ry="33.6"/>
					<ellipse class="st8" cx="301" cy="244.6" rx="10.8" ry="10.8"/>
					<ellipse class="st12" cx="300.9" cy="244.5" rx="6.8" ry="6.8"/>
					<path class="st12" d="M310,230.2l-6.4-2.4c-2.6-1-4-4-3-6.6l0.2-0.2c1-2.6,4-4,6.6-3l6.4,2.4c2.6,1,4,4,3,6.6l-0.2,0.2
						C315.6,229.8,312.6,231.2,310,230.2z"/>
					<path class="st12" d="M315.4,253.8l2.4-6.4c1-2.6,4-4,6.6-3l0.2,0.2c2.6,1,4,4,3,6.6l-2.4,6.4c-1,2.6-4,4-6.6,3l-0.2-0.2
						C315.6,259.2,314.4,256.4,315.4,253.8z"/>
					<path class="st12" d="M291.8,259l6.4,2.4c2.6,1,4,4,3,6.6l-0.2,0.2c-1,2.6-4,4-6.6,3l-6.4-2.4c-2.6-1-4-4-3-6.6l0.2-0.2
						C286.2,259.4,289.2,258,291.8,259z"/>
					<path class="st12" d="M286.4,235.4l-2.4,6.4c-1,2.6-4,4-6.6,3l-0.2-0.2c-2.6-1-4-4-3-6.6l2.4-6.4c1-2.6,4-4,6.6-3l0.2,0.2
						C286.2,229.8,287.4,232.8,286.4,235.4z"/>
				</g>
				<g>
					
						<ellipse transform="matrix(0.3528 -0.9357 0.9357 0.3528 -61.727 374.3417)" class="st11" cx="239.8" cy="231.8" rx="23.6" ry="23.6"/>
					<ellipse class="st8" cx="239.8" cy="231.8" rx="7.6" ry="7.6"/>
					<path class="st12" d="M241.8,236.2c-2.4,1-5.2,0-6.2-2.4s0-5.2,2.4-6.2s5.2,0,6.2,2.4S244,235,241.8,236.2z"/>
					<path class="st12" d="M251.6,229.2l-2-4.4c-0.8-1.8,0-4,1.8-4.8h0.2c1.8-0.8,4,0,4.8,1.8l2,4.4c0.8,1.8,0,4-1.8,4.8h-0.2
						C254.4,231.8,252.4,231,251.6,229.2z"/>
					<path class="st12" d="M242.4,243.6l4.4-2c1.8-0.8,4,0,4.8,1.8v0.2c0.8,1.8,0,4-1.8,4.8l-4.4,2c-1.8,0.8-4,0-4.8-1.8v-0.2
						C239.8,246.4,240.6,244.4,242.4,243.6z"/>
					<path class="st12" d="M228,234.4l2,4.4c0.8,1.8,0,4-1.8,4.8H228c-1.8,0.8-4,0-4.8-1.8l-2-4.4c-0.8-1.8,0-4,1.8-4.8h0.2
						C225,231.8,227.2,232.6,228,234.4z"/>
					<path class="st12" d="M237.2,220l-4.4,2c-1.8,0.8-4,0-4.8-1.8V220c-0.8-1.8,0-4,1.8-4.8l4.4-2c1.8-0.8,4,0,4.8,1.8v0.2
						C239.8,217.2,239,219.2,237.2,220z"/>
				</g>
				<path class="st12" d="M292.8,376.4c-6-2.2-13.2-7-21-14c-10-8.8-19.8-20.2-26.8-31c-11.6-18.2-30.8-24.4-45-29
					c-3-1-5.8-1.8-8.2-2.8l0.4-1.2c2.4,1,5.2,1.8,8.2,2.8c14.2,4.6,33.8,11,45.6,29.4c7,10.8,16.6,22,26.6,30.8
					c10.4,9.2,19.6,14.4,26,15c5.4,0.6,10-2.8,13.4-10.2c2.6-5.6,3.6-11.2,3.6-11.4l1.2,0.2c0,0.2-1,6-3.6,11.6
					c-3.6,7.6-8.6,11.4-14.6,10.8C296.8,377.6,294.8,377.2,292.8,376.4z"/>
				
					<rect x="315.2" y="353.3" transform="matrix(0.3567 -0.9342 0.9342 0.3567 -129.0185 524.1478)" class="st12" width="1.8" height="5"/>
				
					<rect x="186.7" y="295.9" transform="matrix(0.3567 -0.9342 0.9342 0.3567 -156.5071 371.403)" class="st14" width="9.4" height="6.8"/>
			</g>
		</g>
		<g>
			<path class="st15" d="M494.8,675.6H262v25h257v-0.8C519,686.6,508.2,675.6,494.8,675.6z"/>
			<path class="st8" d="M280.2,675.6H135.6v0.8c0,13.4,10.8,24.2,24.2,24.2h144.6v-0.8C304.4,686.6,293.6,675.6,280.2,675.6z"/>
			<path class="st8" d="M326.8,478H101c-11.2,0-19.2,10.8-16.2,21.4l51.2,176h255l-55.6-191C334.2,480.6,330.8,478,326.8,478z"/>
			<path class="st12" d="M330.6,478H104.8c-11.2,0-19.2,10.8-16.2,21.4l51.2,176h255l-55.6-191C338,480.6,334.6,478,330.6,478z"/>
			<path class="st8" d="M142.8,671.8L92.4,498.6c-1.2-4-0.4-8.2,2-11.4s6.2-5.2,10.4-5.2h225.8c2.2,0,4.4,1.6,5,3.8L389.8,672h-247
				L142.8,671.8L142.8,671.8z"/>
			<path class="st16" d="M145.6,668L97,498.6l237.8-0.4c0.6,0,1.2,0.4,1.2,1L384.4,668H145.6L145.6,668z"/>
			<g>
				<g>
					<path class="st17" d="M185,461.6c-18.4,1.4-15.4,37-14,57s-3.4,29.4-11.4,30.4H237l-25-79C212,470,189.6,460.6,185,461.6z"/>
					<path class="st1" d="M357.2,590c2.4-54-6-128-26.4-128.4H185c20.4,0.6,29,74.4,26.4,128.4c-2.4,54,8,65.4,25,69H382
						C365.2,655.4,354.6,644,357.2,590z"/>
					<path class="st18" d="M409.2,615.4H254c0,0,10,43.4-17.4,43.4h155.2C419.2,659,409.2,615.4,409.2,615.4z"/>
				</g>
				<path class="st19" d="M413.4,524.4h-89.6c-9.4,0-16.8,7.6-16.8,16.8v42v18.6l15.6-18.6h91c9.4,0,16.8-7.6,16.8-16.8v-25
					C430.2,532,422.6,524.4,413.4,524.4z"/>
				<path class="st14" d="M412.8,513.2H319c-9.8,0-17.6,7.8-17.6,17.6v43.8V594l16.2-19.4h95c9.8,0,17.6-7.8,17.6-17.6v-26.2
					C430.4,521.2,422.6,513.2,412.8,513.2z"/>
				<rect x="316.4" y="526.2" class="st19" width="60.4" height="6"/>
				<rect x="316.4" y="547.4" class="st19" width="97.8" height="6"/>
			</g>
		</g>
		<g>
			<polygon class="st20" points="277.4,649 319,649 315,629.2 260.4,603 235,542.6 198,542.2 212.8,625.2 219.4,640.6 			"/>
			<path class="st21" d="M277.4,649C277.2,649,277.2,649,277.4,649l-53-1.6c-8.6-0.2-15.8-6.6-17.2-15l-13.8-83.6
				c-0.6-3.2,1.6-6.2,4.8-6.6c3.2-0.6,6.2,1.6,6.6,4.8l13.8,83.6c0.4,3,3,5.2,6,5.4l53,1.6c3.2,0,5.6,2.8,5.6,6
				C283,646.4,280.4,649,277.4,649z"/>
			<path class="st22" d="M351.4,675l6.4,18.4c9.6,3,20.2,7.4,23,11.6c-27.2-3.4-37,1-37,1c-1.2-3.8-0.6-8.6,0-11s1-18.2,1-18.2
				L351.4,675z"/>
			<path class="st23" d="M356.8,699.4c3-1.4,2.2-3.6,2.8-5.4c9,3,18.6,7,21.2,11c-22.4,0.8-37,1-37,1c-1-3.2-0.8-7-0.4-9.6
				C345.6,698.2,352.8,701,356.8,699.4z"/>
			<path class="st24" d="M361.8,699.4C361.8,699.4,362,699.2,361.8,699.4c0.2-0.2,0.2-4.2,2-4.6l0.2-0.2l-0.2-0.2
				c-2,0.6-2.2,4.6-2.2,4.8C361.6,699.2,361.6,699.4,361.8,699.4L361.8,699.4z"/>
			<path class="st24" d="M366.6,701C366.8,701,366.8,701,366.6,701c0.2-0.2,0.2-4.2,2-4.6l0.2-0.2l-0.2-0.2c-2,0.6-2.2,4.6-2.2,4.8
				S366.4,701,366.6,701L366.6,701z"/>
			<path class="st24" d="M378.2,703.8C378.2,703.8,378.2,703.6,378.2,703.8c0.2-0.2,0-0.4,0-0.4l-32.6,0.2c-0.2,0-0.2,0-0.2,0.2
				s0,0.2,0.2,0.2L378.2,703.8C378,703.8,378.2,703.8,378.2,703.8z"/>
			<path class="st25" d="M235.2,624.6c0.6,1.4,3.2,11.8,12.6,14.6s65.2,0.2,65.4,1.2c0.2,8.8,29.2,53,29.2,53
				c11,1,17.2-4.2,17.2-4.2l-12.4-34c0,0,1.6-43-2.6-47.6c-4.4-4.8-58.6-6.8-58.6-6.8L235.2,624.6z"/>
			<path class="st26" d="M347,532.2c-3.4,4.6-7.6,5.8-7.8,5.8s-0.8-4.6-0.6-5.2c0.2-0.6,4.2-4.8,4.2-4.8L347,532.2z"/>
			<path class="st27" d="M347.8,523.8c0.2,0.2,3.6,4.4,3.2,5s-1.8,4.4-2.8,4.8s-1.6-0.8-1.6-0.8c-2,0.6-3.4-0.8-3.4-0.8s-5,1-5.4,0
				s-0.8-3.8-0.2-4.8c0.4-1,3.6-3.6,4.2-4s2.8-0.6,3.4-0.6C345.4,522.4,347.8,523.8,347.8,523.8z"/>
			<path class="st22" d="M321.4,544.6c0,0,9.2-9.8,10.2-11.6s3.4-9.6,4.2-10.6c0.8-1,7.2-3.2,7.2-3.2l6.8,2.4l4.4,4
				c-0.6,1.4-4.6-0.4-5.4-0.8c-1-0.6-3-0.8-4.6-0.8s-5,4-4.4,5.6s2.4-1,5.4-1.6s3.6,1.8,1.4,2.6c-2.2,1-4.2,2.4-4.8,5.4
				c-0.6,2.8-2,5.2-4,6c-1.8,0.8-7,12.6-7,12.6s-6.8-0.6-7-2C323.6,551,321.4,544.6,321.4,544.6z"/>
			<path class="st28" d="M242.8,524.8c-10.6-0.4-16.2,1.4-22.8,19.2c-6.6,17.6-9.2,50.6-6,53.8s9.2,3.6,9.2,3.6
				c0.6,8.4,6.2,25,10.6,27c18.8,0,52.4-26.4,53-27c0.6-1.8,0.6-14.4,0.6-14.4l16,2.6c0,0,7.2,0.6,11.8-4.6
				c4.6-5.2,17.2-32.6,17.2-32.6c-6.2-2-11.4-8-11.4-8s-15.6,18.2-21.6,18.8c-6,0.4-14.2-17.4-20.4-23.6c-6.2-6.2-15-8.2-15-8.2
				l-8.6-1C255.8,530.4,244.8,524.2,242.8,524.8z"/>
			<path class="st17" d="M316,564.6c-15,15.6-12.2,28-12.2,28s-29.6,4.6-29.6,4.2c0.4-7.4,11-39.6,23.8-40.4
				C307.4,558.4,316,564.6,316,564.6z"/>
			<path class="st23" d="M240.8,502c-3.4-5.2-4.6-13.8,1.8-15.8c4.6-4.2,13.2-4,17-3.4c3.8,0.6,4.6-0.4,5,0.6s0,2.6,0,2.6
				c3.2,3.4,2.2,9.2,1.6,11s-0.6,7.6,0.2,10.2c0.6,2.6,0.6,13.2-0.4,14s-5.4,1-5.4,1s-6.8,1.2-8,1.2c-1-0.2-5.6-3.2-5.6-3.2
				l-1.8-5.8l-0.6-4.2c0,0-1.4-4.4-1.6-4.6c-0.2-0.4-1.8-3.4-1.8-3.4h-0.4L240.8,502L240.8,502z"/>
			<path class="st22" d="M244,503.4c-2.4-4.4-5.6-0.6-4.8,3.4s5.2,3.6,5.2,3.6c0.8,6.2-0.4,14-1.4,14.4c5,2.4,6.6,5.2,10.2,10.4
				s10.6,6.2,11,5.2c0.6-1,1.6-5.2,0.2-9c-4.4-2.6-4.4-4-4.4-4.8s0.4-4.4,0.4-4.4s-8-1-10.8-2.4s-4.2-6.6-4.6-9
				C244.6,508.2,244,503.4,244,503.4z"/>
			<path class="st22" d="M262.4,486.6c-1.6,2.2-9.8,1.2-10.6,1.4c-1,0.2-1.4,1.4-1,1.8c0.8,1,0.8,4.2-1.6,4.4c-0.4,1.2-1.8,1-1.4,2
				c0.4,1,2.8,5.2,2.6,5.8s-2,3.4-2,3.4c0,2.4,3.4,7.6,6,8.4c2.6,0.8,4.6,0.6,4.8,1c1.6,2,6.6,1.4,7-0.8c0.6-2.2,0.8-5.8,0.6-7
				c-0.2-1.4-0.4-6.6,0-9.2C267,495,266.4,487,262.4,486.6z"/>
			<path class="st23" d="M262.6,511.2c-1.6-1.2-3-1.6-4.8,0.4s-4.8,0.2-4.8,0.2c0.6,1,4.4,5,6,4c1.6-1,3.4-3.2,3.6-3.2
				c1,1.6,3.2,2.8,4.4,2.2s2.4-3.4,2.4-3.4s-1.8,1.6-2,1.2S265.6,509,262.6,511.2z"/>
			<path class="st29" d="M261.8,514.8c-0.2,0-0.4,0-0.8,0l-0.2-0.2l0.2-0.2c1,0.2,2-0.2,2-0.2s0.2,0,0.2,0.2c0,0,0,0.2-0.2,0.2
				C263.4,514.6,262.6,514.8,261.8,514.8z"/>
			<path class="st23" d="M261.8,509.6C261.8,509.6,261.6,509.6,261.8,509.6c-0.2-0.2-0.2-0.4,0-0.4c1.6-0.6,3.4-1.4,3.8-1.6
				c-0.2-0.4-0.8-1.4-1.4-2.2c-0.8-1.4-1.4-2.2-1.6-2.6c-0.2-0.4,0-1.4,0.4-2.6c0-0.4,0.2-0.8,0.2-0.8c0-0.2,0-0.2,0.2-0.2
				s0.2,0,0.2,0.2s0,0.4-0.2,1c-0.2,0.8-0.4,2.2-0.4,2.6c0,0.2,0.8,1.4,1.4,2.4c1.2,2,1.4,2.4,1.4,2.6
				C265.8,507.8,265.8,508.2,261.8,509.6L261.8,509.6z M265.4,507.8L265.4,507.8L265.4,507.8z M265.6,507.6L265.6,507.6L265.6,507.6
				z"/>
			<path class="st29" d="M257.4,505.4c-0.2,0-0.4,0-0.6-0.2c-0.4-0.2-0.6-0.6-0.8-1.2c0,0,0-0.2,0.2-0.2c0,0,0.2,0,0.2,0.2
				c0.2,0.4,0.4,0.8,0.6,1c0.4,0.2,0.6,0.2,0.6,0.2s0.2,0,0.2,0.2c0,0,0,0.2-0.2,0.2C257.8,505.4,257.6,505.4,257.4,505.4z"/>
			<path class="st29" d="M243.2,509L243.2,509c-1.2,0-1.8-0.8-1.8-1.6s0.6-1.8,1.8-2c-0.2-0.2-0.6-0.8-1-1.2
				c-0.4-0.2-0.8-0.4-1.4-0.2c0,0-0.2,0-0.2-0.2c0,0,0-0.2,0.2-0.2c1.6-0.4,2.6,1.2,2.8,1.4c0.2,0.4,0.2,0.4,0,0.6c0,0,0,0-0.2,0
				c-1.2,0.2-1.8,1-1.8,1.6s0.4,1.2,1.4,1.2C243.2,508.6,243.4,508.6,243.2,509C243.4,508.8,243.2,509,243.2,509z"/>
			<path class="st30" d="M245.6,542.8C245.6,542.8,245.4,542.6,245.6,542.8c-0.2-0.2-2.6-13.4-13.4-14c-0.2,0-0.2,0-0.2-0.2
				s0-0.2,0.2-0.2c11.2,0.8,13.6,14,13.6,14.2C245.8,542.6,245.8,542.6,245.6,542.8L245.6,542.8z"/>
			<path class="st30" d="M234.4,579L234.4,579c-0.2-0.2-0.2-0.2-0.2-0.2c0-0.2,4.4-15,8.6-24.6c0,0,0.2-0.2,0.2,0c0,0,0.2,0.2,0,0.2
				c-3.8,9-8,22.4-8.6,24.2l17.6-1c0.2,0,0.2,0,0.2,0.2s0,0.2-0.2,0.2L234.4,579L234.4,579z"/>
			<path class="st30" d="M233.2,583.8C233.2,583.8,233,583.8,233.2,583.8c-0.2,0-0.2-0.2-0.2-0.2s1-3,1.2-3.8
				c-0.6,0.2-2.2,1.6-4.2,3.6h-0.2v-0.2c0.6-0.6,4.2-4,4.8-3.8c0,0,0.2,0.2,0.2,0.4C234.4,580.4,233.4,583.6,233.2,583.8
				L233.2,583.8z"/>
			<path class="st30" d="M229.8,601c-0.8,0-1.8,0-2.6,0c-0.2,0-0.2,0-0.2-0.2s0-0.2,0.2-0.2c13.8,0.8,24.4-4.4,24.6-4.6h0.2v0.2
				C251.8,596.4,242.4,601,229.8,601z"/>
			<path class="st30" d="M276.8,567.4L276.8,567.4c-0.2,0-0.2-0.2-0.2-0.2s1-5.2,0.2-15c0-0.2,0-0.2,0.2-0.2s0.2,0,0.2,0.2
				C278,562.2,277,567.2,276.8,567.4C277,567.4,276.8,567.4,276.8,567.4z"/>
			<path class="st31" d="M346.2,654.4C346.2,654.4,346,654.4,346.2,654.4c-0.2-0.6-8.2-36-9.6-38.4c-0.6-1-9.2-2.8-47.2-6.2
				c-2.2-0.2-3.2-0.2-3.2-0.2l-0.2-0.2l0.2-0.2l0,0c0.2,0,1.4,0.2,3.2,0.2c31.6,2.8,46.6,4.8,47.6,6.4c1.4,2.6,9.2,37,9.4,38.4
				C346.4,654.4,346.4,654.4,346.2,654.4L346.2,654.4z"/>
			<path class="st30" d="M316,640c-0.2,0-0.4,0-0.4-0.2c-0.2-0.2,0-0.6,0.6-1.4c0.8-1,1.8-2.6,2-4.8c0-0.2,0.2-0.2,0.2-0.2
				c0.2,0,0.2,0.2,0.2,0.2c-0.2,2.2-1.4,3.8-2.2,4.8c-0.2,0.4-0.6,0.8-0.6,1c0,0,0.2,0,0.6,0c2.4-0.6,3.8-2.8,3.8-2.8s0.2-0.2,0.2,0
				c0,0,0.2,0.2,0,0.2c0,0-1.4,2.4-4,3C316.4,640,316.2,640,316,640z M316,639.6L316,639.6L316,639.6z"/>
			<path class="st30" d="M259.8,628.2L259.8,628.2c-0.2,0-0.2-0.2-0.2-0.2s2.8-4.4-0.4-7.8V620h0.2C263,623.6,260,628.2,259.8,628.2
				C260,628.2,260,628.2,259.8,628.2z"/>
			<path class="st30" d="M345.8,686.2C345.8,686.2,345.6,686.2,345.8,686.2c-8.4-12.6-21.6-50.2-21.6-52.8c0-1.4-0.2-1.4-0.8-1.6
				c-0.4-0.2-1.2-0.4-1.8-1.2c-1.2-1.2-0.8-1.8-0.4-2.2l0,0l0,0c-0.8-0.2-25.2,0-41.4,0c-6.8,0-12,0-14.4,0c-1.4,0-2.8,0-4,0
				c-6,0.2-10.4,0.2-13-3v-0.2h0.2c2.6,3,7,3,12.8,2.8c1.2,0,2.6,0,4,0c2.2,0,7.6,0,14.4,0c22.4-0.2,41-0.4,41.6,0
				c0.2,0,0.2,0.2,0.2,0.4s0,0.2-0.2,0.4s-0.6,0.6,0.4,1.6c0.8,0.8,1.2,1,1.8,1c0.6,0.2,1,0.4,1,2c0,2.6,13,40,21.4,52.6
				C346,686,346,686.2,345.8,686.2L345.8,686.2z"/>
			<path class="st23" d="M252,499.4c6.4-1.6,8.4-1,8.4-1C257.4,495.6,253.6,496.6,252,499.4z"/>
			<path class="st29" d="M261.4,499C261.2,499,261.2,499,261.4,499c-0.2,0-0.2-0.2-0.2-0.2c0.2-0.2,0-2-1.4-3.2v-0.2h0.2
				C261.6,496.4,261.8,498.6,261.4,499L261.4,499z"/>
			<path class="st23" d="M258.4,503c0,0.8-0.4,1.4-0.8,1.4s-0.8-0.6-0.8-1.4c0-0.8,0.4-1.4,0.8-1.4C258,501.4,258.4,502.2,258.4,503
				z"/>
			<path class="st23" d="M265.4,502.8c0,0.8-0.4,1.4-0.8,1.4s-0.8-0.6-0.8-1.4c0-0.8,0.4-1.4,0.8-1.4
				C265.2,501.4,265.4,502,265.4,502.8z"/>
			<path class="st23" d="M263.8,498.6c1.6-0.6,2.8,0.4,2.8,0.4C266,496.4,264.4,497.2,263.8,498.6z"/>
			<path class="st22" d="M253.8,578.2c-1.8,14.4-0.8,17.6-0.8,17.6s24.8-10,27.4-9.8s6.4-0.8,7.2-1.2c0.8-0.4,4.2-2.4,4.2-2.4
				c0-0.4-0.8-0.8-2.2-0.4c1.4-1.8,3-3.4,2.8-4.4c1.6-1.8,1-3.4,1-3.4c1.6-1.6,2.8-3.6,1.8-3.6s-4.2,2-7.8,2.6
				c-3.6,0.6-6.8,0.2-6.8-0.6c0.2-0.8,0.2-2.2,2.6-2.8c3-0.8,3.6-3.6,3-4s-1.4,0.8-2.4,0.8s-4.2,0.4-5.8,1.8
				c-1.6,1.6-4.2,6.8-4.6,7.6S253.8,578.2,253.8,578.2z"/>
			<path class="st12" d="M263.2,577.4c-1,4,0.8,12.6,1.4,14l3.6-1.4c-1.2-4.4-1.2-12.4-1-13C264.6,577.2,263.2,577.4,263.2,577.4z"
				/>
			<path class="st32" d="M268.2,585.2c0.2,1.2-1,2.2-2.4,2.4s-2.8-0.6-3-1.8s1-2.2,2.4-2.4C266.8,583.4,268.2,584.2,268.2,585.2z"/>
			<path class="st33" d="M267.8,585.2c0.2,1-0.8,2-2.2,2c-1.2,0.2-2.4-0.6-2.6-1.4c-0.2-1,0.8-2,2.2-2
				C266.6,583.6,267.8,584.4,267.8,585.2z"/>
			<path class="st29" d="M286.2,577.2C286.2,577.2,286,577,286.2,577.2c-0.2-0.2-0.2-0.4,0-0.4c0,0,2.2-0.2,6.4-2.8h0.2v0.2
				C288.6,576.8,286.4,577.2,286.2,577.2L286.2,577.2z"/>
			<path class="st29" d="M285.8,581.6C285.6,581.6,285.6,581.6,285.8,581.6c-0.2-0.2-0.2-0.4,0-0.4c0,0,3-1.4,6.2-4.8h0.2v0.2
				C288.8,580.2,285.8,581.6,285.8,581.6L285.8,581.6z"/>
			<path class="st1" d="M298,556.4c5,4,0.8,12.8,2.6,14l27.4-4.2c0,0-1.2-1.6-1.2-2.8s0.4-7.4-1-9L298,556.4z"/>
			<path class="st29" d="M344.6,527.6L344.6,527.6c-0.2,0-0.2-0.2-0.2-0.2l0.2-0.8l-1-1.6v-0.2h0.2l1.2,1.6v0.2L344.6,527.6
				C344.8,527.6,344.6,527.6,344.6,527.6z"/>
			<path class="st29" d="M347.6,531.8L347.6,531.8c-0.2,0-0.2-0.2-0.2-0.2c0.4-0.6,1.2-2.6,1.2-3.2c0-0.6-0.6-2-1-2.6
				c0-0.2-0.2-0.2-0.2-0.2s0-0.2,0.2-0.2c0,0,0.2,0,0.2,0.2c0,0,0,0.2,0.2,0.2c0.4,1,1,2.2,1,2.8C349,529.2,348,531.4,347.6,531.8
				C347.8,531.8,347.6,531.8,347.6,531.8z"/>
			<path class="st34" d="M253,706.4c-30.8,0-57-10.6-71.8-30c-0.6-0.8-0.4-2,0.4-2.6c0.8-0.6,2-0.4,2.6,0.4
				c18.2,23.8,54.6,33.8,95,26.2c11.2-2.2,21.6-8.6,29.2-18c6.8-8.6,10.4-19,9.2-27.6c-1.6-13.8-14.2-21-34.6-19.8
				c-1,0-1.8-0.8-2-1.8c0-1,0.8-1.8,1.8-2c11.8-0.6,21,1.2,27.8,5.6c6,4,9.8,10,10.6,17.4c1.2,9.6-2.4,20.8-10,30.4
				c-8,10.2-19.2,17-31.4,19.4C270.6,705.6,261.6,706.4,253,706.4z"/>
			<polygon class="st34" points="215.6,606.8 204.8,694.8 207.2,694 218.6,606.8 			"/>
			<polygon class="st35" points="218,606.8 207.2,694.8 209.6,694 221,606.8 			"/>
			<g>
				<polygon class="st34" points="253.8,608.2 283.8,699 286.4,698.2 256.8,608.2 				"/>
				<polygon class="st35" points="256.2,608.2 286.2,699 288.8,698.2 259.2,608.2 				"/>
			</g>
			<path class="st34" d="M270.2,608.2H203V601h60.2c3.8,0,7,3.2,7,7V608.2z"/>
			<circle class="st35" cx="206" cy="604.6" r="2"/>
			<path class="st35" d="M250.6,706.4c-30.8,0-57-10.6-71.8-30c-0.6-0.8-0.4-2,0.4-2.6c0.8-0.6,2-0.4,2.6,0.4
				c18.2,23.8,54.6,33.8,95,26.2c11.2-2.2,21.6-8.6,29.2-18c6.8-8.6,10.4-19,9.2-27.6c-1.6-13.8-14.2-21-34.6-19.8
				c-1,0-1.8-0.8-2-1.8c0-1,0.8-1.8,1.8-2c11.8-0.6,21,1.2,27.8,5.6c6,4,9.8,10,10.6,17.4c1.2,9.6-2.4,20.8-10,30.4
				c-8,10.2-19.2,17-31.4,19.4C268.2,705.6,259.2,706.4,250.6,706.4z"/>
		</g>
		<g>
			<path class="st1" d="M675.4,372.2c-4.8-7.2-10.2-9.8-10.2-9.8c-3.6,5-28,17.4-28,17.4c11.6,5.6,21,29.2,17.6,44.4
				c15.6-10.2,28-13.8,28-13.8c0.6-3.2-2.8-22.6-2.8-22.6l-1.8-10L675.4,372.2z"/>
			<path class="st22" d="M729.6,388.6c-5.4-4-40.2-10.8-42.8-12.2c-2.6-1.4-6.2-5.6-7.6-6c-1.4-0.4-4.8,1.4-7,1s-2.8-0.6-2.8-0.6
				c-0.2,1.6,0.4,3.2,2.4,3.6c1.8,0.6,3.8,0.4,4.4,1c0.6,0.6,2.4,12,3.8,12c4.6-1,7.2-3.2,10-0.2c2.8,2.8,37.4,18,39.2,17.6
				c1.6-0.2,2.2-0.4,2.2-0.8C731.4,404.2,729.6,388.6,729.6,388.6z"/>
			<g>
				<path class="st22" d="M744.2,534.4c0,0,5.4,37,5.2,37.4c-9.8,13.6-11.2,29-11.2,29l28.6-21c0.2-3.6-4.2-10.2-5.2-12.4
					s3.2-29,2.8-34.8C764,526.6,744.2,534.4,744.2,534.4z"/>
				<path class="st23" d="M766.8,579.8c0-2.4-1.8-6.2-3.4-9c-2.8,5.2-10.2,7.8-11.6,6c-1-1.4-1-3.4-2.8-4.4
					c-9.4,13.6-11,28.4-11,28.4L766.8,579.8z"/>
				<path class="st24" d="M749.8,578.2C749.8,578.2,749.6,578,749.8,578.2c-0.2-0.2-1.4-3-3.4-3c-0.2,0-0.2,0-0.2-0.2s0-0.2,0.2-0.2
					c2.4,0,3.6,3,3.6,3C750,578,750,578,749.8,578.2L749.8,578.2z"/>
				<path class="st24" d="M747.6,582.8C747.4,582.8,747.4,582.6,747.6,582.8c-0.2-0.2-1.4-3-3.4-3c-0.2,0-0.2,0-0.2-0.2
					s0-0.2,0.2-0.2c2.4,0,3.6,3,3.6,3C747.8,582.6,747.6,582.6,747.6,582.8L747.6,582.8z"/>
				<path class="st24" d="M745,588.8C744.8,588.8,744.8,588.8,745,588.8c-0.2-0.2-1.4-3-3.4-3c-0.2,0-0.2,0-0.2-0.2s0-0.2,0.2-0.2
					c2.4,0,3.6,3,3.6,3C745.2,588.6,745.2,588.8,745,588.8L745,588.8z"/>
				<path class="st24" d="M740.6,596.8C740.4,596.8,740.4,596.8,740.6,596.8c-0.2-0.2-0.2-0.4-0.2-0.4l25.4-18.8h0.2v0.2
					L740.6,596.8L740.6,596.8z"/>
			</g>
			<g>
				<path class="st22" d="M702.2,530.2c0,0-6,36.8-6.4,37.2c-13.4,10-19.6,24.2-19.6,24.2l33.6-11.4c1.2-3.4-1-11-1.2-13.4
					s11.8-26.8,13.4-32.4C723.6,529,702.2,530.2,702.2,530.2z"/>
				<path class="st23" d="M710,580.4c0.8-2.2,0.2-6.4-0.6-9.6c-4.2,4.2-12,4.4-12.8,2.2c-0.6-1.6,0-3.6-1.2-5
					c-13,10-19,23.8-19,23.8L710,580.4z"/>
				<path class="st24" d="M694.4,573.6C694.2,573.6,694.2,573.6,694.4,573.6c-0.2-0.2-0.4-3.2-2.4-3.8c-0.2,0-0.2-0.2-0.2-0.2
					l0.2-0.2c2.2,0.6,2.6,3.8,2.6,4S694.6,573.6,694.4,573.6L694.4,573.6z"/>
				<path class="st24" d="M690.8,577.4C690.6,577.4,690.6,577.2,690.8,577.4c-0.2-0.2-0.4-3.2-2.4-3.8c-0.2,0-0.2-0.2-0.2-0.2
					c0-0.2,0.2-0.2,0.2-0.2c2.2,0.6,2.6,3.8,2.6,4C691,577.2,691,577.4,690.8,577.4L690.8,577.4z"/>
				<path class="st24" d="M686.6,582.4C686.4,582.4,686.4,582.2,686.6,582.4c-0.2-0.2-0.4-3.2-2.4-3.8c-0.2,0-0.2-0.2-0.2-0.2
					c0-0.2,0.2-0.2,0.2-0.2c2.2,0.6,2.6,3.8,2.6,4C686.8,582.2,686.8,582.4,686.6,582.4L686.6,582.4z"/>
				<path class="st24" d="M679.8,588.6L679.8,588.6c-0.2-0.2-0.2-0.4,0-0.4l30-10.2c0.2,0,0.2,0,0.2,0.2s0,0.2-0.2,0.2L679.8,588.6
					C680,588.6,679.8,588.6,679.8,588.6z"/>
			</g>
			<path class="st28" d="M768.4,432.2c-1.6,1.4-8.4,13.8-9.6,14.2c-3.4,1-41,11.4-47.4,24.6c-6.4,13.2-11.6,60-11.4,61.2
				c9.2,6.6,22.8,2.6,22.8,2.6c5.2-9.4,13.2-43,13.2-43l2.4-1.2c0,0-1.2,2.6-0.4,9s4.8,37,5.2,38c12.4,4.6,23.6-2.2,23.6-3.4
				s2.2-32.8,3-34.2c1-1.4,38.2-16.4,41-28.8c2.8-12.4-6.4-38-6.4-38L768.4,432.2z"/>
			<path class="st23" d="M769,427.4c0,2.2-0.8,4.2-0.6,4.6c3.4,3,24.8,5.2,36,1.4c-1.4-3-1.4-5-1.4-5L769,427.4z"/>
			<path class="st21" d="M779.4,372.8c0,0-2.2,1-4.4,1.8c-8.8,3.4-39.8,12.6-46.2,12c-1.6,10.2,1.2,18.8,1.2,18.8l33-2.6
				c0,0-1.8,4.8-0.2,7.8s4.8,17,6.2,18.2c17.8,5,34.4,1.2,34.4,1.2c1.4-1.2,3-17,3.8-16.4c0.8,0.4,10.8,22.2,10.8,22.2
				c9.8,1.8,16-3,16-3s-10.2-37.6-16.6-44.8s-19-11.8-19.6-12.2c-1.8-2-5.8-4.4-7.8-4.6C787.8,370.8,779.4,372.8,779.4,372.8z"/>
			<path class="st23" d="M774.2,333.6c-3.4,1-4.2,6.8-3.4,10.6c0.8,3.8-1.4,6.8-4,9.4c-2.4,2.4,2.2,10.6,12.8,10.6s25.2,1,25.8-6.2
				s-3.4-10.8-2.6-14.4C803.6,339.8,791.4,321.4,774.2,333.6z"/>
			<path class="st22" d="M774.8,338.2c0.8,7.2,8.2,9.2,12,9.8s5.8,3.2,5.8,3.2c1-3.4,4.8-3.2,5,0c0.4,3.4-4.6,6.8-6.4,5
				c-2.2,12.8,1.6,16.2,1.6,16.8c-1.4,3.8-7.6,5.6-7.6,6c0,2.2-3.4,7.6-4,7c-0.8-1.8,0.2-7.2-0.2-7.6s-2.2-4-2.2-4
				c0.8,0,1.2-6.2,0.8-8.2c-4.6-0.8-5.6-7.4-6.2-11.4c-0.6-4,0-5.8,0.2-9C773.6,342.8,774.8,338.2,774.8,338.2z"/>
			<path class="st23" d="M785.4,351.8c0,1-0.4,1.6-1,1.6s-1-0.8-1-1.6c0-1,0.4-1.6,1-1.6S785.4,350.8,785.4,351.8z"/>
			<path class="st23" d="M777.6,351.6c0,1-0.4,1.6-1,1.6s-1-0.8-1-1.6c0-1,0.4-1.6,1-1.6C777.2,350,777.6,350.6,777.6,351.6z"/>
			<path class="st23" d="M780,357c-0.4,0-1.8,0-2.8-0.4c-0.2,0-0.2-0.2-0.4-0.4c0-0.2,0-0.4,0.2-0.4c0.8-0.8,2.4-3.6,1.4-7
				c0-0.2,0-0.2,0.2-0.2s0.2,0,0.2,0.2c1,3.6-0.6,6.6-1.6,7.4l0,0l0,0c1.2,0.4,2.8,0.4,2.8,0.4c0.2,0,0.2,0,0.2,0.2
				C780.4,356.8,780.2,357,780,357C780.2,357,780,357,780,357z"/>
			<path class="st29" d="M780.4,366.6c-0.2,0-0.2,0-0.4,0s-0.2-0.2-0.2-0.2c0-0.2,0.2-0.2,0.2-0.2c4,0.2,8.8-4.2,9-4.6
				c0-0.2,0.2-0.2,0.2,0c0.2,0,0.2,0.2,0,0.2C789,362.4,784.4,366.6,780.4,366.6z"/>
			<path class="st29" d="M793.4,355c-0.2,0-0.4,0-0.8,0c-0.2,0-0.2-0.2-0.2-0.2c0-0.2,0.2-0.2,0.2-0.2c0.8,0.2,1.4,0,1.6-0.4
				c0.2-0.4,0.2-1,0-1.4c-0.2-0.2-0.4-0.4-1-0.4H793v-0.2c0,0,1-2.6,3.4-1.8c0.2,0,0.2,0.2,0.2,0.2c0,0.2-0.2,0.2-0.2,0.2
				c-1.6-0.4-2.4,0.6-2.8,1.2c0.4,0,0.8,0.2,1,0.6c0.4,0.6,0.4,1.4,0,1.8C794.6,354.6,794.2,355,793.4,355z"/>
			<g>
				<g>
					<path class="st23" d="M780.2,352L780.2,352c-0.2,0-1.2-0.6-2.2,0c-0.2,0-0.2,0-0.2,0c0-0.2,0-0.2,0-0.2c1.2-0.8,2.4,0,2.6,0
						C780.4,351.8,780.6,351.8,780.2,352C780.4,352,780.4,352,780.2,352z"/>
					<path class="st23" d="M784.4,347.6c-2.4,0-4.2,2-4.2,4.2c0,2.4,2,4.2,4.2,4.2s4.2-2,4.2-4.2
						C788.6,349.4,786.6,347.6,784.4,347.6z M784.4,355.8c-2.2,0-3.8-1.8-3.8-3.8c0-2.2,1.8-3.8,3.8-3.8s3.8,1.8,3.8,3.8
						S786.4,355.8,784.4,355.8z"/>
					<path class="st23" d="M774.2,347.6c-2.2,0-3.8,2-3.8,4.2c0,2.4,1.8,4.2,3.8,4.2c2.2,0,3.8-2,3.8-4.2
						C778.2,349.4,776.4,347.6,774.2,347.6z M774.2,355.8c-2,0-3.6-1.8-3.6-4s1.6-4,3.6-4s3.6,1.8,3.6,4S776.2,355.8,774.2,355.8z"
						/>
					<path class="st23" d="M788.4,352.2c0,0-0.2,0-0.2-0.2s0-0.2,0.2-0.2l4-1c0.2,0,0.2,0,0.2,0.2s0,0.2-0.2,0.2L788.4,352.2
						L788.4,352.2z"/>
				</g>
			</g>
			<path class="st36" d="M777.2,358.8c0.2-1.4,2-1.4,6.4,0C780,363.2,777.4,362.6,777.2,358.8z"/>
			<path class="st23" d="M773.6,347c2.6-0.4,4.4,0.4,4.4,0.4C776.2,344.8,774.2,344.8,773.6,347z"/>
			<path class="st23" d="M780.4,359.6c-1.2,0-2.6-0.2-3.8-0.6c-0.2,0-0.2-0.2-0.2-0.2c0-0.2,0.2-0.2,0.2-0.2c2.8,1,5.8,0.8,7-0.2
				c0.2,0,0.2,0,0.2,0c0,0.2,0,0.2,0,0.2C783.4,359.4,782,359.6,780.4,359.6z"/>
			<path class="st30" d="M779.8,386.2C779.8,386.2,779.6,386.2,779.8,386.2c-1.6-1-1-4.8-0.6-6.8c0-0.2,0-0.4,0-0.4
				c-0.6-0.2-4,2.6-4.4,3.8l-0.2,0.2l-0.2-0.2c0,0,0-3.6,0.6-6.6c0-0.2,0.2-0.2,0.2-0.2c0.2,0,0.2,0.2,0.2,0.2
				c-0.6,2.2-0.6,4.6-0.6,5.8c1-1.4,3.6-3.6,4.6-3.4c0.2,0,0.4,0.2,0.2,0.8c-0.8,3.4-0.6,5.8,0.2,6.4C780,386,780,386,779.8,386.2
				L779.8,386.2z"/>
			<path class="st30" d="M788.8,387L788.8,387c-0.2,0-0.2,0-0.2-0.2c0,0-0.6-2.6-1.2-4.4c-0.2-0.8-0.6-1.2-1-1.2s-0.8,0.4-1.2,1.2
				c0,0.2-0.2,0.2-0.2,0.2c-0.2,0-0.2-0.2-0.2-0.2c0.6-1.4,1.2-1.6,1.6-1.6c0.6,0,1,0.6,1.4,1.6c0.4,1.4,0.8,3.2,1,4
				c1.2-1.2,5.4-6.2,6.2-8.8c0-0.2,0.2-0.2,0.2-0.2c0.2,0,0.2,0.2,0.2,0.2C794.6,380.8,789.2,386.6,788.8,387L788.8,387z"/>
			<path class="st30" d="M778.2,416.2c-0.2,0-0.2,0-0.2-0.2c0,0-0.8-5.8-1.2-8.8c-0.2-1.8,0.8-7,1.6-11.4c0.6-2.8,1.2-5.4,1.2-6.6
				c0-0.2,0.2-0.2,0.2-0.2c0.2,0,0.2,0.2,0.2,0.2c0,1.2-0.6,3.8-1.2,6.6c-0.8,4.4-2,9.6-1.6,11.4c0.4,3,1.2,8.8,1.2,8.8
				C778.4,416,778.4,416.2,778.2,416.2L778.2,416.2z"/>
			<path class="st30" d="M764.8,401.8L764.8,401.8c-0.2,0-0.2-0.2-0.2-0.2s2.6-9,2-14.4c0-0.2,0-0.2,0.2-0.2s0.2,0,0.2,0.2
				c0.4,5.6-2,14.6-2,14.6H764.8z"/>
			<path class="st30" d="M805.2,397.4L805.2,397.4c-0.2,0-0.2-0.2-0.2-0.2s1.2-9,6.2-13.6c0,0,0.2,0,0.4,0c0,0,0,0.2,0,0.4
				c-4.8,4.6-6,13.4-6.2,13.4C805.4,397.2,805.4,397.4,805.2,397.4z"/>
			<path class="st30" d="M774.4,451.6c-0.2,0-0.2,0-0.2-0.2c0,0-1.4-8,1.8-15.8c0-0.2,0.2-0.2,0.2-0.2c0.2,0,0.2,0.2,0.2,0.2
				c-3.2,7.8-1.8,15.4-1.8,15.6C774.6,451.4,774.6,451.4,774.4,451.6L774.4,451.6z"/>
			<path class="st30" d="M740.2,489.4L740.2,489.4c-0.2,0-0.2-0.2-0.2-0.2c2.2-11.2,29.2-26.6,30.4-27.2c0.2,0,0.2,0,0.2,0
				c0,0.2,0,0.2,0,0.2c-0.2,0.2-28,16-30.2,27C740.4,489.4,740.2,489.4,740.2,489.4z"/>
			<path class="st30" d="M759.6,532.6c-0.2,0-0.2,0-0.2-0.2s-1-29.4-1-31.8c0-1.4,0.6-1.8,1.2-2.2c0.6-0.4,1-0.6,1.2-1.6
				c0.2-0.8,0.2-1.4,0-1.8c0-1,0-1.4,1.4-2.2c2.4-1.4,36.8-22.8,38.8-28.6s-0.6-26.2-0.6-26.4s0-0.2,0.2-0.2s0.2,0,0.2,0.2
				c0.2,0.8,2.6,20.6,0.6,26.6c-2.2,6.2-38.6,28.6-39,28.8c-1.4,0.8-1.2,1-1.2,1.8c0,0.4,0,1,0,2c-0.2,1.2-0.8,1.6-1.4,2
				c-0.6,0.4-1,0.6-1,1.8c0,2.4,1,31.6,1,31.8C759.8,532.4,759.8,532.6,759.6,532.6L759.6,532.6z"/>
			<path class="st30" d="M768.4,499.4c-0.2,0-0.2,0-0.4,0c-1.2-0.4-3.4-0.8-3.4-0.8c-0.2,0-0.2-0.2-0.2-0.2c0-0.2,0.2-0.2,0.2-0.2
				s2.2,0.4,3.4,0.8c0.2,0,0.2,0,0.2,0c-0.2-0.2-0.8-1-1.6-2c-0.2-0.2-0.4-0.6-0.6-0.8V496h0.2c0.2,0.2,0.4,0.6,0.6,0.8
				c1.4,1.6,1.8,2.2,1.6,2.4C768.6,499.4,768.6,499.4,768.4,499.4z M768.4,499L768.4,499L768.4,499z"/>
			<path class="st30" d="M734.4,491.6c-0.2,0-0.2,0-0.4,0c-1.2-0.4-3.4-0.8-3.4-0.8c-0.2,0-0.2-0.2-0.2-0.2c0-0.2,0.2-0.2,0.2-0.2
				s2.2,0.4,3.4,0.8c0.2,0,0.2,0,0.2,0c-0.2-0.2-0.8-1-1.6-2c-0.2-0.2-0.4-0.6-0.6-0.8v-0.2h0.2c0.2,0.2,0.4,0.6,0.6,0.8
				c1.4,1.6,1.8,2.2,1.6,2.4C734.6,491.6,734.6,491.6,734.4,491.6z M734.4,491.2L734.4,491.2L734.4,491.2z"/>
			
				<rect x="776.5" y="426.7" transform="matrix(0.1191 -0.9929 0.9929 0.1191 256.9593 1154.7236)" class="st14" width="5.4" height="11.6"/>
			<rect x="790.4" y="430.4" class="st28" width="1.4" height="5.8"/>
			<path class="st22" d="M818.6,435.4l0.4,3.4c-6.4,5.6-19.4,20-21.8,20.6c-2.4,0.6-10.8-5.4-10.8-5.4l-7.2,1.4c0,0-6.8,6-6.6,6.4
				c1,0.8,6.4-3,6.4-3h1.8c0,0-1.8,1.2-2,2s-2.6,7.6-2.2,7.8c0.4,0.2,1.6-0.4,1.6-0.4c0,0.6-1,1,0.2,0.8s3.8-3.8,3.8-3.8l-0.2,4.2
				c1,0,1.8-3.2,2.4-4.2c0.6-1,6.8-1.2,8.6,1s5.2,4.6,10.2,0.2c13-5.6,31.6-19,31.8-22.6c0-3.4-1.8-11.2-1.8-11.2
				C828.4,434.6,821.6,435.8,818.6,435.4z"/>
			<path class="st29" d="M778.6,466.8L778.6,466.8c-0.2,0-0.2-0.2-0.2-0.2c0.2-0.4,1.8-4.6,2.4-5c0.6-0.4,2.6-1.6,2.8-1.6
				s0.2,0,0.2,0c0,0.2,0,0.2,0,0.2s-2.2,1.2-2.6,1.6C780.8,462.2,779.4,465,778.6,466.8C778.8,466.8,778.6,466.8,778.6,466.8z"/>
			<polygon class="st23" points="779.8,459.8 766.4,454.8 763.4,455 765.8,456.6 778.6,461.8 779,460.6 			"/>
			<path class="st1" d="M673.8,425.8H708c-16.4,26.6-2.6,46.8-2.6,46.8s-37.8,2.8-38.4,2.8C657,456.8,669.8,429.2,673.8,425.8z"/>
		</g>
		<g>
			<g>
				<path class="st2" d="M42.2,603.6V601c0-3.6-1.4-7.2-4-10.2s-4-6.8-4-10.8c0-4.6,1.8-9,5.2-12.2s7.8-4.8,12.4-4.6
					c8.4,0.4,15.4,7.4,16,15.8c0.2,4.2-1.2,8.2-3.8,11.6c-2.8,3.2-4.2,7-4.2,11v2.2c0,4.8-4,8.8-8.8,8.8S42.2,608.4,42.2,603.6z
					 M40.6,569c-3,2.8-4.6,6.6-4.6,10.8c0,3.6,1.2,7,3.6,9.6c2.8,3.4,4.4,7.4,4.4,11.4v2.6c0,3.8,3.2,7,7,7s7-3.2,7-7v-2
					c0-4.2,1.6-8.6,4.6-12.2c2.4-2.8,3.6-6.6,3.4-10.2c-0.4-7.6-6.6-13.8-14.2-14c-0.2,0-0.4,0-0.8,0C47.2,565,43.4,566.4,40.6,569z
					"/>
			</g>
			<g>
				<rect x="50" y="547.6" class="st2" width="1.8" height="11.6"/>
			</g>
			<g>
				
					<rect x="31.4" y="555.6" transform="matrix(0.7071 -0.7071 0.7071 0.7071 -387.5241 187.2908)" class="st2" width="1.8" height="11.6"/>
			</g>
			<g>
				<rect x="18.8" y="579.2" class="st2" width="11.6" height="1.8"/>
			</g>
			<g>
				
					<rect x="64" y="560.2" transform="matrix(0.7071 -0.7071 0.7071 0.7071 -376.3407 213.7106)" class="st2" width="11.6" height="1.8"/>
			</g>
			<g>
				<rect x="71.8" y="579" class="st2" width="11.6" height="1.8"/>
			</g>
			<g>
				<rect x="44.4" y="597.6" class="st2" width="13.4" height="1.8"/>
			</g>
			<g>
				<rect x="45.2" y="603" class="st2" width="12" height="1.8"/>
			</g>
		</g>
		<g>
			<g>
				<rect x="567.4" y="222.4" class="st2" width="1.8" height="6"/>
			</g>
			<g>
				<rect x="567.4" y="232.6" class="st2" width="1.8" height="6"/>
			</g>
			<g>
				<rect x="560.2" y="229.6" class="st2" width="6" height="1.8"/>
			</g>
			<g>
				<rect x="570.4" y="229.6" class="st2" width="6" height="1.8"/>
			</g>
		</g>
		<g>
			<g>
				<rect x="98.4" y="630.2" class="st2" width="1.8" height="6"/>
			</g>
			<g>
				<rect x="98.4" y="640.4" class="st2" width="1.8" height="6"/>
			</g>
			<g>
				<rect x="91.2" y="637.4" class="st2" width="6" height="1.8"/>
			</g>
			<g>
				<rect x="101.4" y="637.4" class="st2" width="6" height="1.8"/>
			</g>
		</g>
		<g>
			<g>
				<line class="st37" x1="951.4" y1="506.4" x2="951.4" y2="508"/>
			</g>
		</g>
		<g>
			<g>
				<rect x="218.6" y="153.4" class="st2" width="1.8" height="6"/>
			</g>
			<g>
				<rect x="218.6" y="163.6" class="st2" width="1.8" height="6"/>
			</g>
			<g>
				<rect x="211.4" y="160.6" class="st2" width="6" height="1.8"/>
			</g>
			<g>
				<rect x="221.6" y="160.6" class="st2" width="6" height="1.8"/>
			</g>
		</g>
		<g>
			<g>
				<path class="st2" d="M856.8,197l5.2,4l-19.4,24.4l-5.2-4L856.8,197z M860.8,201.2l-4-3l-18.4,23.2l4,3L860.8,201.2z"/>
			</g>
			<g>
				<path class="st2" d="M862.4,195l-0.8,6.8l-5.6-4.4L862.4,195z M861.6,196.2l-4,1.4l3.4,2.8L861.6,196.2z"/>
			</g>
			<g>
				<path class="st2" d="M841.4,216.4l5.2,4l-4,5.2l-5.2-4L841.4,216.4z M845.6,220.6l-4-3l-3,4l4,3L845.6,220.6z"/>
			</g>
		</g>
		<g>
			<g>
				<path class="st2" d="M607.4,176.8H637l7.6,7.6v43h-37.2L607.4,176.8L607.4,176.8z M643.2,185l-6.8-6.8h-27.6v48h34.6V185
					L643.2,185L643.2,185z"/>
			</g>
			<g>
				<polygon class="st2" points="633.6,187.8 642,187.8 642,186.6 635,186.6 635,179.6 633.6,179.6 				"/>
			</g>
		</g>
		<g>
			<g>
				<path class="st2" d="M902.2,428.8c0-0.2-6.8-11.4-26.2-32l-0.8,0.8c19.2,20.4,26,31.6,26,31.8L902.2,428.8z"/>
			</g>
			<g>
				<path class="st2" d="M895.8,421.6c-0.6,0-13.6-0.4-20.6-8.6l-0.8-1h1.2c3-0.2,5.2-0.4,6.6-0.4c-2.2-0.6-5.4-1.6-9.6-2.8h-0.2
					l-0.2-0.2c-3.6-7.8-2.4-16.6-2.2-17V391h0.6c0.2,0,7,0.2,13.4,3.2l0.4,0.2v0.4c-0.2,1.4-0.2,3.2-0.4,4.6l2.6-3.8l0.6,0.4
					c1.6,1,3,2.4,4.2,3.8c7,8.4,5.4,21.2,5.2,21.8v0.6L895.8,421.6z M882.4,403.4l0.2-2.2c0,0,0.2-3.6,0.4-6.4c-5-2.4-10.2-2.8-12-3
					c-0.2,2-0.6,9.2,2.2,15.6c12.6,3.8,12.6,3.8,12.6,4.4v0.4h-0.4c0,0-0.4,0-8.4,0.6c6,6.2,16,7.4,18.6,7.4
					c0.2-2.6,0.8-13.4-5-20.2c-1-1.2-2.2-2.2-3.4-3.2L882.4,403.4z"/>
			</g>
		</g>
	</g>
</g>
</svg>
