<?xml version="1.0" encoding="utf-8"?>
<!-- Generator: Adobe Illustrator 25.2.1, SVG Export Plug-In . SVG Version: 6.00 Build 0)  -->
<svg version="1.1" id="Layer_1" xmlns="http://www.w3.org/2000/svg" xmlns:xlink="http://www.w3.org/1999/xlink" x="0px" y="0px"
	 width="1000px" height="1000px" viewBox="0 0 1000 1000" style="enable-background:new 0 0 1000 1000;" xml:space="preserve">
<style type="text/css">
	.st0{fill:#00937E;}
	.st1{fill:#DDEDEE;}
	.st2{fill:none;stroke:#DDEDEE;stroke-width:3;stroke-miterlimit:10;}
	.st3{fill:#412308;}
	.st4{fill:#E5AC2F;}
	.st5{fill:#0E1920;}
	.st6{fill:#345C68;}
	.st7{fill:#3E6E7D;}
	.st8{fill:#F1CC30;}
	.st9{fill:#EBC280;}
	.st10{fill:#DAA05E;}
	.st11{fill:url(#SVGID_1_);}
	.st12{fill:#643619;}
	.st13{fill:#994D1D;}
	.st14{fill:#254148;}
	.st15{fill:#ECC78E;}
	.st16{fill:#91B242;}
	.st17{fill:#BFCD3C;}
	.st18{fill:#DBBDA6;}
	.st19{fill:#BF9C80;}
	.st20{fill:#381C14;}
	.st21{fill:#926053;}
	.st22{fill:url(#SVGID_2_);}
	.st23{fill:#5E443D;}
	.st24{fill:none;stroke:#452F20;stroke-width:0.6145;stroke-miterlimit:10;}
	.st25{fill:url(#SVGID_3_);}
	.st26{fill:#1F3649;}
	.st27{fill:#274658;}
	.st28{fill:#5699B4;}
	.st29{fill:#79BDD2;}
	.st30{fill:#F1CA8E;}
	.st31{fill:#E5B381;}
	.st32{fill:url(#SVGID_4_);}
	.st33{fill:#A56052;}
	.st34{fill:url(#SVGID_5_);}
	.st35{fill:url(#SVGID_6_);}
	.st36{fill:#E9A29D;}
	.st37{fill:#EBC086;}
	.st38{fill:#C48D54;}
	.st39{fill:none;stroke:#345A6E;stroke-width:1.5;stroke-miterlimit:10;stroke-dasharray:5.1369;}
	.st40{fill:#365E6B;}
	.st41{fill:#F1DA3D;}
	.st42{fill:none;stroke:#345A6E;stroke-width:1.0274;stroke-miterlimit:10;}
	.st43{fill:#FFFFFF;}
	.st44{fill:none;stroke:#919CA2;stroke-width:0.8566;stroke-linecap:round;stroke-miterlimit:10;}
	.st45{fill:url(#SVGID_7_);}
	.st46{fill:#8F8F8F;}
	.st47{fill:#BEBEBE;}
	.st48{fill:#1C2828;}
</style>
<g>
	<g id="BACKGROUND">
		<rect class="st0" width="1000" height="1000"/>
	</g>
	<g>
		<path class="st1" d="M556.1,842.2c-92.8,15.3-168.8,12.8-254.5-6.9C203,812.4,97.4,732.6,102.1,614.4
			c4.8-118.2,65.7-149.9,110.8-153.5c33.8-2.7,66.9,9.2,99.2,19.7c83.7,27.5,142.5,39.9,229.9,31.9c135-12.4,209.6-84,282.3-46
			c62.8,32.8,94.9,130.2,29.8,219C782.9,782.3,680.6,821.6,556.1,842.2z"/>
	</g>
	<path class="st2" d="M566.1,838.4c-92,20.4-168,22.3-254.5,7.1c-99.6-17.4-209.4-91.3-211.1-209.5S157.8,482.8,203,476.7
		c33.6-4.6,67.3,5.5,100,14.3c84.9,22.7,144.4,31.9,231.3,19.1c134.2-19.7,204.8-95.3,279.4-61.5c64.4,29.4,101.7,124.7,41.6,216.9
		C789.5,766.2,689.5,811.1,566.1,838.4z"/>
	<g>
		<path class="st1" d="M759.7,393.1h157.4c0,0-7-26.9-29.2-13.2c-10.4-37-48.3-28.6-57-6.1c-5.4-16-22.2-6.1-20.9,3.4
			C793.5,360.1,765.7,372.5,759.7,393.1z"/>
		<path class="st1" d="M375.3,236.1h-76.8c0,0,3.5-13.2,14.3-6.5c5-18.1,23.6-13.9,27.8-2.9c2.7-7.8,10.8-2.9,10.1,1.7
			C358.7,219.9,372.4,226,375.3,236.1z"/>
		<path class="st1" d="M107.5,349c0,0,123,0,148.1,0c0-17.6-29.6-34.9-55.7-14.9c-1-38.8-57-34.9-60.7,4.4
			C112.9,328.4,107.5,349,107.5,349z"/>
	</g>
	<g>
		<path class="st3" d="M697,413c-8.1,4.4-9.1,18.5-6.4,29c2.7,10.5,21.7,48.1,11.4,71.2c25.5-0.4,35.6-16.2,35.6-16.2
			s5-31.3-1.7-44.5C729.1,439.1,697,413,697,413z"/>
		<path class="st4" d="M728.2,520.3c-5.2-0.8-8.3-1.5-18.6,12.4c-10.6,14.3-14.7,23.1-23.8,35.7s-6,18.9,1.4,21.8
			c12.8,5.2,28.4,5.2,28.4,5.2l-8.7-20.6L728.2,520.3z"/>
		<path class="st5" d="M726,890.9l2.9,17.8h-41.2c0,0,0-2.7,3.5-4s21.1-4.4,25.3-6.7c4.1-2.3,3.7-6.5,3.7-6.5L726,890.9z"/>
		<path class="st5" d="M794.5,898.5l2.9,17.8h-41.2c0,0,0-2.7,3.5-4c3.5-1.3,21.1-4.4,25.3-6.7c4.1-2.3,3.7-6.5,3.7-6.5L794.5,898.5
			z"/>
		<path class="st6" d="M697.4,642.5c-2.1,14.3,7.7,102.9,12,151.4c4.3,48.5,9.3,100.1,9.3,100.1l8.3-1.5c0,0,15.9-108.8,15.5-134.8
			c-0.2-25.8-21.7-110-21.7-110L697.4,642.5z"/>
		<path class="st7" d="M703.6,646.7c0.8,9.9,27.1,92.2,46.8,147.2c19.7,55.2,36,106.9,36,106.9h12.4c0,0-17.8-140.2-22.4-170.9
			c-4.8-30.7-2.3-64.5-13.9-90.9C749.2,628.2,703.6,646.7,703.6,646.7z"/>
		<path class="st8" d="M730.3,514.9c-3.3,1-6.8,6.5-15.9,17.4c-6.8,8.2-19.7,19.7-19.1,26.5c0.6,6.5,6,12.4,10.8,13.2
			c-2.1,13.2-9.7,54.6-13.5,71c8.9,14.7,59.9,11.1,72.5-5.5c-4.1-9.2-8.5-46-7.2-63.2c1.2-17.2-0.2-37.6-3.5-48.5
			C751,515.3,738.4,512.6,730.3,514.9z"/>
		<path class="st4" d="M746.7,525c2.3-3.8,5.8-4.8,8.7-4c3.9,1,7.9,6.9,7.5,22.3c-0.2,8.2-7.2,56.7-12.4,61.5
			c-6.8,6.5-21.1-4.4-17.6-12.6c3.3-8.2,6.6-16.8,8.7-28.6C744,549.5,744.2,529.4,746.7,525z"/>
		<path class="st9" d="M702.8,573.2c-7.9-1.5-13.5,2.5-10.4,5.7C696.8,578.3,702.8,573.2,702.8,573.2z"/>
		<path class="st4" d="M743.2,583.1c-5.2-2.7-16.2-6.5-39.8-10.1c-6.6,0.2-11.6,6.1-11.6,6.1s28,19.9,38.1,25.4
			c9.9,5.5,18.2,6.3,22-1.3C755.6,595.7,743.2,583.1,743.2,583.1z"/>
		<path class="st9" d="M731.8,579.3c8.9-4.2,21.7-2.1,26.3,8.4c4.1,9.2-0.2,16.6-5,10.1c-4.3-5.9-5.8-11.3-12.6-14.3
			C737.8,581.6,731.8,579.3,731.8,579.3z"/>
		<path class="st10" d="M723.5,523.1c-3.1,3.8-6,9-1.7,10.5s16.2-5.5,19.5-13.6c3.5-8.2-2.5-32.5-2.5-32.5l-10.6,0.2
			c0,0,0.6,18.5,0.6,24.1C728.9,514.9,727.4,518.2,723.5,523.1z"/>
		<g>
			<path class="st9" d="M748.1,496.2c0,0-41.2,16.8-49.7,7.1c-1.4-1.7-2.3-3.6-3.9-8.8c-0.4-1.5-2.1-7.6-2.5-9.2
				c-3.3-14.7-5-33.6-1.2-46.2c6.2-20.8,24.6-36.7,44.3-29C754.8,417.7,798.9,434,748.1,496.2z"/>
			<path class="st9" d="M699,458L699,458l-0.8-2.7c-5.6,6.1-12,10.3-18,14.7c11.8,12.2,24.2,1.9,21.7-12.6
				C700.7,457.3,699.7,457.8,699,458C698.2,458.4,698.4,458.2,699,458z"/>
			<g>
				
					<linearGradient id="SVGID_1_" gradientUnits="userSpaceOnUse" x1="-1496.8574" y1="2232.6997" x2="-1493.6543" y2="2243.5674" gradientTransform="matrix(-0.9934 0.1149 0.1149 0.9934 -1043.7607 -1595.3419)">
					<stop  offset="0" style="stop-color:#DA9C68"/>
					<stop  offset="1" style="stop-color:#DA9C68;stop-opacity:0"/>
				</linearGradient>
				<path class="st11" d="M694.9,449.4c-4.1,6.3-5.4,12.4,3.3,14.3c8.9,2.1,7.2-10.1,7.2-10.1S698.8,450.4,694.9,449.4z"/>
				<path class="st12" d="M692.8,458.8c0,0.6,0.6,1.3,1.4,1c0.6,0,1.2-0.6,1-1.5c0-0.6-0.6-1.3-1.4-1
					C693.2,457.6,692.6,458.2,692.8,458.8z"/>
				<path class="st13" d="M697.4,449.8c9.5,2.9,9.9,5,5.4,3.8C696.3,451.7,690.8,447.7,697.4,449.8z"/>
			</g>
			<g>
				<path class="st13" d="M703,488.8c2.1-0.2,3.7-1.3,5.4-2.5c0.8-0.6,1.4-1.3,2.3-1.9c0.6-0.6,1.2-1.5,1.9-2.3
					c-0.2,1-0.6,2.1-1.2,2.9s-1.4,1.7-2.3,2.3c-0.8,0.6-1.9,1.3-2.9,1.5S704,489.3,703,488.8z"/>
			</g>
		</g>
	</g>
	<g>
		<path class="st14" d="M285.6,908.1c0,0-6.2,12.8-3.1,14.1c3.3,1.3,18,1.3,16.4-2.5c-1.7-3.8-7.9-11.3-7.9-11.3L285.6,908.1z"/>
		<path class="st14" d="M331.8,906.8c-4.1,5.9-9.5,14.5-3.7,14.9s39.1,0,43.1,0c0.2-3.1-2.3-3.1-26.7-6.7c-3.3-0.4-2.3-6.9-2.3-6.9
			L331.8,906.8z"/>
		<path class="st6" d="M384.8,785.3c-3.3-17.4-15.5-81.9-21.7-115.1c-9.9,20.8-35.2,27.3-49.7,33.6c12.2,33,29.2,77.9,33.1,89.9
			c1.2,4,1.9,7.8,0,13.9c-1.9,6.1-19.9,100.6-19.9,100.6l20.1,4.4c0,0,34.6-92.6,37.5-102.2C387.3,800.8,386.1,792.2,384.8,785.3z"
			/>
		<path class="st7" d="M363.7,653c-1.2,0.2-72.1,8.2-83.7,9c-2.3-0.2-4.1-0.4-5.4-0.6l5.6,250.5l17.4-2.1c0,0,17-175.9,20.5-207.4
			c0.2,0,40-8.2,45.2-32.1C364.1,665,364.3,659.1,363.7,653z"/>
		<path class="st15" d="M421.1,551.4c0.6-1-0.8-18.1-0.8-18.1l5-12.4l7.5-9l2.3,0.4l-5,9.2l-2.5,6.9l7.5-10.7l9.1-14.5l2.5,1.5
			l-8.7,18.1l11.4-16l1,1l-8.5,16.6l9.7-10.3l0.8,2.1l-7.7,11.1l5-5.9l0.4,1.7l-10.8,13.9l-14.5,16.4L421.1,551.4z"/>
		<path class="st16" d="M324,515.9c17.8,2.7,32.1,9.9,40.4,26c7.2,14.5,17.4,37.8,18.6,40.3c1.2,2.7,3.7,2.1,6.4-0.6
			c2.5-2.9,29.8-40.3,29.8-40.3s6.4,2.1,9.5,8c-10.8,25.4-27.3,59.2-30.2,63.6c-2.9,4.4-10.6,4.8-14.7,2.3c-3.9-2.3-31.9-22-31.9-22
			S326.2,526.4,324,515.9z"/>
		<path class="st17" d="M302.6,515.3c-17.2,2.7-32.3,10.5-32.3,35.9c0,13,1.9,117.6,1.9,117.6s66.1,9.7,91.3-12
			c-2.5-36.3-10.8-94.1-13.7-109.6C345.5,525.4,332.4,510.5,302.6,515.3z"/>
		<path class="st15" d="M263.9,681.6c0.2,1.3,13.3,15.1,13.3,15.1l4.1,14.3l-0.2,13.2l-2.3,1.3l-1.9-11.5l-2.5-7.8l0.8,14.7
			l2.1,19.1l-3.1,0.4l-4.8-22l0.8,22l-1.7-0.2l-4.1-20.6l-1.4,16l-2.3-1.3l-1-15.1l-0.4,8.6l-1.7-1.3v-19.7l1.4-24.8L263.9,681.6z"
			/>
		<g>
			<path class="st18" d="M321.1,513c0,0,0.2,7.8,0.2,9.2c0.2,1.5-18,4.8-19.3-3.8c-0.4-3.1-0.4-8-0.4-8
				C309.9,513.6,317.7,513.2,321.1,513z"/>
			<path class="st19" d="M301.8,510.7l-0.2-9.2l19.3-0.4l0.4,12.2C317.7,513.2,309.9,513.6,301.8,510.7z"/>
		</g>
		<g>
			<path class="st20" d="M340.3,500.4c0,0,19.3-21.6,19.9-51.2c0.4-32.1-18.6-45.8-42.9-46c-26.5-0.4-38.7,8.4-47.2,25.6
				c-7.5,15.5-5,31.5,1,46C280.5,497,301.2,501.2,340.3,500.4z"/>
			<path class="st18" d="M355.6,451.7c0,27.7,2.7,37-1.7,44.9c-4.1,7.6-16.4,18.1-44.9,10.7c-20.5-5.2-25.7-21.2-25.7-21.2
				s-2.7,1.7-6.2,1.3c-2.9-0.4-6.8-3.4-6.4-8.6c0.4-7.3,3.9-9.4,6.6-10.3c5-1.5,8.3,3.4,8.3,3.4s0-10.5,1.2-18.3s2.5-16,38.5-18.1
				c8.9-0.6,21.1-0.8,25.9,1.5C355.4,439.3,355.6,444.3,355.6,451.7z"/>
			<g>
				<g>
					<path class="st21" d="M333.3,472.9c1.2-0.6,2.5-1.3,3.9-1.3c1.4-0.2,2.9,0,4.1,1c0.6,0.6,1,1.5,0.8,2.3c0,0.4-0.2,0.6-0.4,1
						c-0.2,0.2-0.4,0.6-0.6,0.8c-1,1-2.3,1.7-3.5,2.3c1-0.8,2.3-1.7,3.1-2.7c0.8-1,1.2-2.5,0.2-3.1c-0.8-0.8-2.3-1-3.5-1
						C336,472.3,334.5,472.5,333.3,472.9z"/>
				</g>
			</g>
			<g>
				<path class="st21" d="M316.1,491.4c-0.2,1.7,0.8,3.1,1.9,4c1,1,2.5,1.7,3.9,1.9c1.4,0.2,3.1,0.2,4.6,0c0.8,0,1.4-0.2,2.3-0.4
					c0.8-0.2,1.4-0.4,2.3-0.6c-0.6,0.4-1.4,0.6-2.1,1c-0.8,0.2-1.4,0.6-2.3,0.8c-1.7,0.4-3.3,0.4-5,0.2c-1.7-0.2-3.3-1-4.3-2.3
					C316.3,494.7,315.5,493,316.1,491.4z"/>
			</g>
			<g>
				
					<linearGradient id="SVGID_2_" gradientUnits="userSpaceOnUse" x1="2192.1262" y1="1431.8419" x2="2187.5723" y2="1442.4108" gradientTransform="matrix(-0.9915 -0.13 -0.13 0.9915 2681.5249 -676.6545)">
					<stop  offset="0" style="stop-color:#B88F6C"/>
					<stop  offset="1" style="stop-color:#B88F6C;stop-opacity:0"/>
				</linearGradient>
				<path class="st22" d="M329.3,456.5c0.8,3.4,3.9,12.8-5.2,14.7c-9.1,1.9-8.3-9.7-8.3-9.7S325.2,457.3,329.3,456.5z"/>
				<path class="st23" d="M327.3,456.1c-10.6,2.1-15.7,7.1-9.1,6.1C325,461.3,334.3,454.6,327.3,456.1z"/>
				<path class="st24" d="M328.9,470.8c-1.7-3.8-5.6-3.1-6.8,0.8"/>
			</g>
			<g>
				
					<linearGradient id="SVGID_3_" gradientUnits="userSpaceOnUse" x1="2168.2312" y1="1429.1893" x2="2169.95" y2="1440.1034" gradientTransform="matrix(-0.9915 -0.13 -0.13 0.9915 2681.5249 -676.6545)">
					<stop  offset="0" style="stop-color:#B88F6C"/>
					<stop  offset="1" style="stop-color:#B88F6C;stop-opacity:0"/>
				</linearGradient>
				<path class="st25" d="M340.5,456.1c-0.8,2.5-3.9,11.5,3.1,13.9c7,2.1,7.2-9.7,7.2-9.7S343.8,457.1,340.5,456.1z"/>
				<path class="st23" d="M342.4,455.9c7.9,1.5,12.6,6.5,5.4,4.6C340.7,458.8,338.2,455,342.4,455.9z"/>
				<path class="st24" d="M346.3,469.5c-1.2-4.6-6-4-6.6-0.4"/>
			</g>
			<path class="st20" d="M285.4,438.7c3.9,4,7.7,5.7,25.3,6.3c25.3,1,42.3-5,43.5-6.3l-5.8-14.5c-4.6-1.7-18-5.9-34-1
				C297,428.4,288.1,434.9,285.4,438.7z"/>
		</g>
	</g>
	<g>
		<g>
			<path class="st5" d="M507.7,902.7c-2.5,4.4-11.6,14.5-1.7,15.1c9.9,0.6,18,0.6,14.7-5c-3.1-5.7-5.6-9.9-5.6-9.9L507.7,902.7z"/>
			<path class="st5" d="M548.7,896.1l-2.9,17.8H587c0,0,0-2.7-3.5-4c-3.5-1.3-21.1-4.4-25.3-6.7c-4.1-2.3-3.7-6.5-3.7-6.5
				L548.7,896.1z"/>
			<path class="st26" d="M583.1,663.9c1.2,16.6-2.3,79.2-7.5,120.3c-5.2,41.2-19.3,114.2-19.3,114.2l-9.1-1.5
				c0,0-3.1-121.4-4.6-148.6c-1.4-27.1,5.2-61.9,5.2-61.9L583.1,663.9z"/>
			<path class="st27" d="M584.3,658.3c-0.2,6.5-1.9,37.6-30.2,42.6c-39.6,7.1-55.5-18.7-52.6-38.2
				C544.7,670.4,584.3,658.3,584.3,658.3z"/>
			<path class="st27" d="M558.4,694c-2.3,8.8-17.8,79.2-26.3,119.7c-8.3,40.7-13,88.2-13,88.2s-5.4,6.1-15.7,0
				c-0.2-25.6-3.5-202.4-0.6-231.6C522,694.8,558.4,694,558.4,694z"/>
			<path class="st28" d="M555.9,524.1c11.4,1,19.5,7.1,25.1,17c6.8,12.4,11.4,26,13.9,33.2c4.1,11.8-0.6,33-13,24.6
				C577.3,595.7,557.4,533.8,555.9,524.1z"/>
			<path class="st29" d="M533.8,521c-20.1,2.7-31.3,16.2-35,35.3c-3.7,19.1-1.2,91.3,1,108.3c22.4,7.6,66.1,7.6,85.5-2.7
				c-0.6-26.2-3.7-82.3-5.8-103.1C577.7,537.8,562.5,517.2,533.8,521z"/>
			<g>
				<path class="st30" d="M489.9,597.2c6.8,1,9.5,16.2,11,24.1l1.2,60.5l-11.2-0.6c0,0-9.1-46.8-9.7-59.4
					C480.7,609.4,484.3,596.3,489.9,597.2z"/>
				<path class="st30" d="M488.6,574.5c0,0-5.2,26.9-6.4,34.2c-1.2,7.3,4.6,14.3,10.1,15.7c5.6,1.5,7.5,1.3,8.3-2.9
					c0.8-4.2,9.5-40.9,9.5-40.9L488.6,574.5z"/>
				<path class="st30" d="M497.9,671.7c0,1,8.1,16.6,8.1,16.6l3.3,14.9l-1.9,2.1l-6.6-13.2l-0.6,11.3l-1.9,16.2h-2.9l-0.4-18.9
					l-1.7,17.4l-1.4-0.4l-1.4-16.6l1,15.1l-1.9-1.3l-2.7-14.5l1.2,12.4l-1.9-1.5l-2.7-13.9l7.7-26L497.9,671.7z"/>
			</g>
			<path class="st28" d="M519.5,531.9c-9.9-7.8-24.9,0.2-36.2,41.8c14.9,8.6,32.1,8.8,32.1,8.8S531.3,541.1,519.5,531.9z"/>
			<path class="st30" d="M594,603.5c-9.1,1.5-14.3-12-9.9-23.3s8.9-32.1,9.5-49.8c0.2-4,8.1-4,7.9,1.9c-0.2,5.9,0.2,23.9,1,47
				C602.7,591.5,600.5,602.4,594,603.5z"/>
			<path class="st31" d="M552.4,504.2c-0.2,12.4-0.4,17.2,0.2,21.2c0.6,5.9,6,15.3,1,18.1s-17.6-8.8-20.9-16.2
				c-1.7-3.8-1.4-4.4-1.7-7.1c-0.2-5.2-0.4-17.6-0.4-17.6L552.4,504.2z"/>
			<g>
				<path class="st13" d="M500.4,459.4c-0.8,1-1,18.1,7.7,31.7c8.5,13.6,26.7,16.2,27.5,14.7C536.7,504.6,526.5,424.2,500.4,459.4z"
					/>
				<path class="st30" d="M579.7,480.2c-2.3,26.5-17.4,38.6-34.6,38.6c-23.4,0-37.9-30.4-38.1-55.2c-0.2-24.8-6.8-42.6,31.5-43.2
					C580.8,419.8,583.5,435.1,579.7,480.2z"/>
				<path class="st30" d="M570,468.5c0.6,6.5,2.9,10.5,7.7,10.1s12-6.7,11.4-13.2s-5-11.3-9.7-10.9C574.8,454.8,569.6,462,570,468.5
					z"/>
				<path class="st13" d="M581.8,467.4c3.9-11.1,2.7-26.9,2.5-35.5c-0.6-20.2-12.4-23.7-21.3-26c1.7,0,0.4-1,2.1-1
					c-6-5.2-23.2-8.2-29.6-4.2c-11,1.9-17.8,4.4-24.4,10.3c-14.1,12.2-14.3,29.2-8.9,56.9c1.2,0.4,7.2,5.2,8.7,5
					c-3.5-11.1-2.9-34,8.5-40.1c5.6-2.9,12.4-1,18.2-0.4c4.3,0.4,17.4,0,26.3-1.3c5-0.8,8.5,0,9.7,1.3c5.6,6.5,8.5,14.9,7,30.4
					C580.8,464.9,581,466.6,581.8,467.4z"/>
				<path class="st30" d="M514.7,467.6c2.5,6.1,2.5,10.7-1.4,12.2c-3.9,1.7-12.6-0.8-15.1-6.9c-2.5-6.1-1.2-12.2,2.7-13.9
					C505,457.6,512.2,461.5,514.7,467.6z"/>
				<g>
					
						<linearGradient id="SVGID_4_" gradientUnits="userSpaceOnUse" x1="757.7161" y1="316.8788" x2="748.2888" y2="322.7388" gradientTransform="matrix(0.9679 0.2513 -0.2513 0.9679 -98.3068 -23.4419)">
						<stop  offset="0" style="stop-color:#D38278"/>
						<stop  offset="1" style="stop-color:#EEB9AD;stop-opacity:0"/>
					</linearGradient>
					<path class="st32" d="M543.9,470.8c5.8-1.3,10.8-0.2,12,4.2c1,4.4-4.8,7.1-9.7,7.8C541.2,483.4,539.4,471.8,543.9,470.8z"/>
					<g>
						<path class="st33" d="M541.4,471.6c2.3-0.8,4.6-1.5,7-1.5c2.5,0,5.2,0.6,7,2.7c0.8,1,1.2,2.7,0.8,4c-0.4,1.3-1.2,2.3-2.3,3.1
							c-1.9,1.7-4.3,2.5-6.6,3.1c2.1-1,4.3-2.3,6-4c1.7-1.5,2.7-4,1-5.5c-1.4-1.7-3.7-2.3-6-2.5S543.7,471.2,541.4,471.6z"/>
					</g>
					<path class="st12" d="M553,495.8c-8.1,1.7-13.5,1.3-15.9-1C536.5,511.5,545.6,512.1,553,495.8z"/>
					<g>
						
							<linearGradient id="SVGID_5_" gradientUnits="userSpaceOnUse" x1="731.1963" y1="304.8878" x2="735.158" y2="318.3295" gradientTransform="matrix(0.9679 0.2513 -0.2513 0.9679 -98.3068 -23.4419)">
							<stop  offset="0" style="stop-color:#DA9C68"/>
							<stop  offset="1" style="stop-color:#DA9C68;stop-opacity:0"/>
						</linearGradient>
						<path class="st34" d="M541.4,454.6c0.6,4,2.9,16.2-8.5,17c-11.4,1-8.7-13-8.7-13S536.2,455.2,541.4,454.6z"/>
						<path class="st12" d="M537.7,470.6c-0.2,0.8-1,1.3-1.9,1s-1.2-1-1-1.9s1-1.3,1.9-1C537.3,468.9,537.9,469.7,537.7,470.6z"/>
						<path class="st13" d="M538.9,454c-13,0.8-20.1,6.1-11.8,6.1C535.2,460.1,547.4,453.4,538.9,454z"/>
					</g>
					<g>
						
							<linearGradient id="SVGID_6_" gradientUnits="userSpaceOnUse" x1="905.113" y1="259.7336" x2="909.0748" y2="273.1751" gradientTransform="matrix(-0.9679 0.2513 0.2513 0.9679 1373.4681 -23.4419)">
							<stop  offset="0" style="stop-color:#DA9C68"/>
							<stop  offset="1" style="stop-color:#DA9C68;stop-opacity:0"/>
						</linearGradient>
						<path class="st35" d="M554.1,454.6c-0.6,4-2.9,16.2,8.5,17c11.4,1,8.7-13,8.7-13S559.2,455.2,554.1,454.6z"/>
						<path class="st12" d="M557.8,470.6c0.2,0.8,1,1.3,1.9,1c0.8-0.2,1.2-1,1-1.9c-0.2-0.8-1-1.3-1.9-1
							C558.2,468.9,557.6,469.7,557.8,470.6z"/>
						<path class="st13" d="M556.5,454c13,0.8,20.1,6.1,11.8,6.1C560.3,460.1,548.1,453.4,556.5,454z"/>
					</g>
					<path class="st36" d="M526.3,474.8c0,0.8-2.3,1.7-5,1.7c-2.7,0-5-0.6-5-1.7c0-0.8,2.3-1.7,5-1.7
						C524,473.1,526.3,473.9,526.3,474.8z"/>
					<path class="st36" d="M579.5,474.8c0,0.8-2.3,1.7-5,1.7c-2.7,0-5-0.6-5-1.7c0-0.8,2.3-1.7,5-1.7
						C577.3,473.1,579.5,473.9,579.5,474.8z"/>
				</g>
				<path class="st13" d="M527.3,429.2c1.9,3.6,13.9,17,28.4,15.5c-5.6-1-8.3-3.1-8.3-3.1s11,3.4,23-2.9c-3.9,0.4-10.1-0.2-10.1-0.2
					s10.4-2.9,12.2-8.4C547.6,425.9,527.3,429.2,527.3,429.2z"/>
			</g>
			<g>
				<path class="st37" d="M595.3,516.1c0.6-6.3,0.4-18.5,0.6-22.7c0.4-4.2-2.5-4.8-4.3-3.8c-1.7,1-1.9,6.5-1.9,12.6
					c0,5.2,0.2,15.3,0.2,15.3L595.3,516.1z"/>
				<path class="st30" d="M601.5,532.3c2.3-5.5,3.7-12.8,3.1-16.8c-0.8-6.9-7-8.4-11.2-7.8c-4.1,0.4-6.6,8.4-6.2,11.3
					c1.2,7.8,6.2,10.3,6.4,13.6C594.7,534.6,600.7,534.6,601.5,532.3z"/>
				<path class="st30" d="M600,506.3c-6.6-0.6-7.2,2.3-8.7,6.9c-1,3.8,3.1,5.7,7.9,6.5c3.5,0.6,5.4-1.5,5.4-1.5
					S605.8,506.9,600,506.3z"/>
				<g>
					<path class="st38" d="M602.3,514.9c-0.2,1-0.4,2.1-0.8,2.9c-0.6,1-1.7,1.5-2.7,1.7c-1,0.2-2.1,0-3.1-0.2s-2.1-0.4-2.9-1
						c-1.9-1.3-2.7-3.8-2.1-5.9c0.2-1,0.8-2.1,1.4-2.9c0.6-0.8,1.4-1.7,2.3-2.1c-0.8,0.6-1.4,1.5-2.1,2.3s-1,1.7-1.2,2.7
						c-0.4,1.9,0.2,4.2,1.9,5.2c0.8,0.6,1.9,0.8,2.7,1c1,0.2,2.1,0.4,2.9,0.2c1,0,1.9-0.6,2.5-1.5
						C601.9,517,602.1,515.9,602.3,514.9z"/>
				</g>
				<path class="st37" d="M592.8,521.2c-3.3,2.9-6.4,0.4-7.9-2.9c-1.4-3.4-1.9-5.9,0-7.3c1.9-1.5,9.9,1,9.9,3.8
					c0,2.7-2.3,2.9-4.3,1.9C593.6,519.3,592.8,521.2,592.8,521.2"/>
				<g>
					<path class="st38" d="M602.9,513.4c0.2,0.4,0,1-0.2,1.5c-0.2,0.2-0.4,0.4-0.6,0.4c-0.4,0-0.6-0.2-0.6-0.4c0.2,0,0.4,0,0.6,0
						c0,0,0.2-0.2,0.2-0.4c0.2-0.2,0.2-0.4,0.2-0.4C602.7,513.6,602.9,513.6,602.9,513.4z"/>
				</g>
				<g>
					<path class="st38" d="M592,522c0.4-0.6,0.6-1.5,0.4-2.1c-0.2-0.8-0.4-1.5-0.8-2.1c-0.8-1.3-2.3-2.1-3.5-2.7
						c1.4,0.4,2.9,1.3,3.9,2.5c0.4,0.6,0.8,1.5,0.8,2.3C592.8,520.8,592.6,521.6,592,522z"/>
				</g>
				<g>
					<path class="st38" d="M594.2,513.8c0.2,0.4,0.4,0.8,0.4,1.5c0,0.6-0.4,1-0.8,1.5c-0.4,0.4-1,0.4-1.4,0.6c-0.6,0-1,0-1.4-0.2
						c1,0,2.1,0,2.7-0.6C594.4,515.7,594.4,514.7,594.2,513.8z"/>
				</g>
			</g>
		</g>
	</g>
	<path class="st13" d="M504.1,458.6c1.2,10.3,3.9,17.2,7.5,22.7c0.8,0.6,2.7,1.9,2.7,1.9s-9.5-21.2,1-40.3
		c-2.5,6.1-0.2,11.3-0.2,11.3s1.7-10.7,7.5-16.6c2.7,4.4,16.4,5,16.4,5s-8.3-6.1-9.7-12.2c-7.9-5.5-18.2,0-21.5,8.2
		C505,445.4,503.3,451,504.1,458.6z"/>
	<path class="st13" d="M569.6,428.8c6,5,7.2,16.6,7,22.3c0.8-0.6,2.1-5.2,2.1-5.2s1.7,27.3,0,32.1c1.7-1.5,2.1-2.3,2.1-2.3
		s2.5-13.9,1.7-23.5c-0.8-9.9-3.7-18.7-6.2-20.8C573.7,429.2,569.6,428.8,569.6,428.8z"/>
	<path class="st20" d="M355.8,437.6c-0.6,3.4-14.7,12.4-42.7,13.9c8.9-0.8,24.9-4.2,35.8-12.6C350.9,437,355.8,437.6,355.8,437.6z"
		/>
	<path class="st20" d="M269.1,468.3c-2.1-4-5.2-14.1-4.8-18.3c-2.7,4.2-1.7,15.5-1.7,15.5s-9.7-23.1,7.5-42.8
		c-3.3,0.2-7.2,4.4-7.2,4.4s3.1-8.8,15.5-13.9c-0.4-3.1,1.9-10.3,5.6-12.4c-2.3,4.4-2.9,10.9-2.9,10.9s16.6-18.1,53.6-10.5
		c-9.3-0.6-14.5,0.4-14.5,0.4s29.4,0.8,42.3,21.8c-6.2-2.7-12.4-9-12.4-9s9.7,10.1,8.3,19.5c-10.4-9-51.4-6.7-61.3-3.4
		c-9.9,3.4-24.6,35.1-24.6,35.1L269.1,468.3z"/>
	<path class="st20" d="M328.9,439.7c-2.7,4-17,8.6-26.3,8.2c10.1,3.4,45.4-2.3,43.3-9C343.6,435.3,328.9,439.7,328.9,439.7z"/>
	<path class="st20" d="M286.1,454.2c-0.2,9.4,0.4,26.9,3.5,33c-6.4-2.5-10.6-21.2-10.6-21.4S286.1,454.2,286.1,454.2z"/>
	<path class="st16" d="M285.8,519.3c-10.4-0.2-19.7,7.6-25.7,29.2c-7,25.6-11.2,45.6-10.8,51.6c0.2,6.1,19.7,20.8,26.7,0.6
		c8.7-25.2,13.9-43.5,16.6-54.8C297,526.8,294.5,519.5,285.8,519.3z"/>
	<path class="st16" d="M249.4,600.3c1.9,13.6,6.8,83.4,7.7,91.5c5.4,5.5,15.5-0.8,15.5-0.8s-0.4-43.7,2.7-88.2
		C275.9,592.1,249.4,600.3,249.4,600.3z"/>
	<path class="st3" d="M731.1,508.6c4.8-26.9-4.1-51.2-4.1-51.2s2.1,17.2-0.4,21.4c2.7-16.8-10.8-32.3-10.8-32.3s-0.2,3.8,3.9,11.3
		c-8.1-8-18-21.4-18-21.4s6.2,11.1,12,16.8c-15.9-9.7-25.1-24.1-19.7-38.2c1.9-4.8,5-10.7,15.9-12.4c9.1-1.3,39.6-0.4,57.8,13.2
		c18.2,13.6,24.6,35.1,10.1,58.4c-11.2,17-15.1,18.5-15.1,18.5s2.3-3.1,3.1-5.5c-4.3,5-19.1,15.1-19.1,15.1s1.2-1.3,2.7-4.2
		C742.5,503.5,731.1,508.6,731.1,508.6z"/>
	<path class="st39" d="M546.8,359.5c40.8-20.8,73.5-57.7,88.6-101.6c3.3-9.7,2.9-24.1-7-25.4c-4.8-0.6-9.1,2.7-12.2,6.5
		c-9.9,12.8-8.3,32.1,1,45.6c9.1,13.2,24.4,21.2,40,25.2c13.5,3.4,27.3,4.4,41.2,5.7"/>
	<path class="st39" d="M244.8,433.8c-22.8,1.7-44.7-9.9-61.5-25.6c-23.8-22.3-39.1-56.7-30.2-88.4c7.9-27.5,33.8-47.7,61.5-52.7
		c28-5,57,3.4,80.8,18.7c19.3,12.4,35.6,29,53,44.1"/>
	<path class="st40" d="M404.3,347.5v-14.7l-12.6-1.5c-0.8-3.4-2.3-6.7-3.9-9.7l7.9-10.1l-7.2-10.3h-3.1l-9.9,8.2
		c-2.9-1.7-6-3.1-9.5-4l-1.4-12.8h-14.5l-1.4,12.8c-3.3,0.8-6.6,2.3-9.5,4l-6.8-8.2h-3.1l-10.1,10.3l7.9,10.1
		c-1.7,2.9-3.1,6.1-3.9,9.7l-12.6,1.5v14.7l12.6,1.5c0.8,3.4,2.3,6.7,3.9,9.7l-7.9,10.1l10.1,10.3h3.1l6.8-8c2.9,1.7,6.2,3.1,9.5,4
		l1.4,12.8h14.5l1.4-12.8c3.3-0.8,6.6-2.3,9.5-4l9.9,8h3.1l7.2-10.3l-7.9-10.1c1.7-2.9,3.1-6.3,3.9-9.7L404.3,347.5z M357.3,356.2
		c-8.7,0-15.7-7.1-15.7-16c0-8.8,7-16,15.7-16c8.7,0,15.7,7.1,15.7,16C373,349,366,356.2,357.3,356.2z"/>
	<path class="st41" d="M407.4,347.5v-14.7l-12.6-1.5c-0.8-3.4-2.3-6.7-3.9-9.7l7.9-10.1l-10.1-10.3l-9.9,8.2c-2.9-1.7-6-3.1-9.5-4
		l-1.4-12.8h-14.5l-1.4,12.8c-3.3,0.8-6.6,2.3-9.5,4l-9.9-8.2l-10.1,10.3l7.9,10.1c-1.7,2.9-3.1,6.1-3.9,9.7l-12.6,1.5v14.7L326,349
		c0.8,3.4,2.3,6.7,3.9,9.7l-7.9,10.1l10.1,10.3l9.9-8c2.9,1.7,6.2,3.1,9.5,4l1.4,12.8h14.5l1.4-12.8c3.3-0.8,6.6-2.3,9.5-4l9.9,8
		l10.1-10.3l-7.9-10.1c1.7-2.9,3.1-6.3,3.9-9.7L407.4,347.5z M360.4,356.2c-8.7,0-15.7-7.1-15.7-16c0-8.8,7-16,15.7-16
		s15.7,7.1,15.7,16C376.1,349,369.1,356.2,360.4,356.2z"/>
	<path class="st40" d="M752.1,324v-13.2l-11.4-1.3c-0.8-3.1-2.1-6.1-3.5-8.6l7.2-9l-6.6-9.4h-2.7l-8.9,7.3c-2.7-1.7-5.4-2.7-8.5-3.6
		l-1.2-11.5h-13l-1.2,11.5c-3.1,0.8-6,1.9-8.5,3.6l-6.2-7.3h-2.7l-9.3,9.4l7.2,9c-1.7,2.7-2.7,5.7-3.5,8.6l-11.4,1.3V324l11.4,1.3
		c0.8,3.1,2.1,6.1,3.5,8.6l-7,9l9.3,9.4h2.7l6.2-7.1c2.7,1.7,5.6,2.7,8.5,3.6l1.2,11.5h13l1.2-11.5c3.1-0.8,6-2.1,8.5-3.6l8.9,7.1
		h2.7l6.6-9.4l-7-9c1.7-2.7,2.7-5.7,3.5-8.6L752.1,324z M709.8,332c-7.9,0-14.3-6.5-14.3-14.5s6.4-14.5,14.3-14.5
		c7.9,0,14.3,6.5,14.3,14.5S717.7,332,709.8,332z"/>
	<path class="st41" d="M754.8,324v-13.2l-11.4-1.3c-0.8-3.1-2.1-6.1-3.5-8.6l7.2-9l-9.3-9.4l-8.9,7.3c-2.7-1.7-5.4-2.7-8.5-3.6
		l-1.2-11.5h-13l-1.2,11.5c-3.1,0.8-6,1.9-8.5,3.6l-8.9-7.3l-9.3,9.4l7.2,9c-1.7,2.7-2.7,5.7-3.5,8.6l-11.4,1.3V324l11.4,1.3
		c0.8,3.1,2.1,6.1,3.5,8.6l-7,9l9.3,9.4l8.9-7.1c2.7,1.7,5.6,2.7,8.5,3.6l1.2,11.5h13l1.2-11.5c3.1-0.8,6-2.1,8.5-3.6l8.9,7.1
		l9.3-9.4l-7-9c1.7-2.7,2.7-5.7,3.5-8.6L754.8,324z M712.5,332c-7.9,0-14.3-6.5-14.3-14.5s6.4-14.5,14.3-14.5s14.3,6.5,14.3,14.5
		S720.2,332,712.5,332z"/>
	<path class="st39" d="M698.6,315.2c2.1,0.2,4.3,0.4,6.4,0.6c22.2,2.3,62.5,11.1,82.2,21.8c31.5,17.2,37.7,64.9,0.4,86.5"/>
	<path class="st40" d="M564.2,365.2v-7.3l-6.4-0.6c-0.4-1.7-1-3.4-2.1-4.8l3.9-5l-5.2-5.2H553l-3.5,4c-1.4-0.8-3.1-1.5-4.8-2.1
		l-0.6-6.5h-7.2l-0.6,6.5c-1.7,0.4-3.3,1-4.8,2.1l-5-4h-1.4l-3.7,5.2l3.9,5c-0.8,1.5-1.4,3.1-2.1,4.8l-6.4,0.6v7.3l6.4,0.6
		c0.4,1.7,1,3.4,2.1,4.8l-3.9,5l3.7,5.2h1.4l5-4c1.4,0.8,3.1,1.7,4.8,2.1l0.6,6.5h7.2l0.6-6.5c1.7-0.4,3.3-1,4.8-2.1l3.5,4h1.4
		l5.2-5.2l-3.9-5c0.8-1.5,1.4-3.1,2.1-4.8L564.2,365.2z M540.6,369.6c-4.3,0-7.9-3.6-7.9-8c0-4.4,3.5-8,7.9-8s7.9,3.6,7.9,8
		C548.5,366,545.2,369.6,540.6,369.6z"/>
	<path class="st41" d="M563,365.2v-7.3l-6.4-0.6c-0.4-1.7-1-3.4-2.1-4.8l3.9-5l-5.2-5.2l-5,4c-1.4-0.8-3.1-1.5-4.8-2.1l-0.6-6.5
		h-7.2L535,344c-1.7,0.4-3.3,1-4.8,2.1l-5-4l-5.2,5.2l3.9,5c-0.8,1.5-1.4,3.1-2.1,4.8l-6.4,0.6v7.3l6.4,0.6c0.4,1.7,1,3.4,2.1,4.8
		l-3.9,5l5.2,5.2l5-4c1.4,0.8,3.1,1.7,4.8,2.1l0.6,6.5h7.2l0.6-6.5c1.7-0.4,3.3-1,4.8-2.1l5,4l5.2-5.2l-3.9-5
		c0.8-1.5,1.4-3.1,2.1-4.8L563,365.2z M539.4,369.6c-4.3,0-7.9-3.6-7.9-8c0-4.4,3.5-8,7.9-8c4.3,0,7.9,3.6,7.9,8
		C547.2,366,543.7,369.6,539.4,369.6z"/>
	<path class="st39" d="M348.6,330.1c6.4,5.7,13,11.1,20.1,16c44.5,31.3,103.6,40.1,154.9,23.1c7.9-2.7,15.7-5.9,23.2-9.7"/>
	<ellipse class="st42" cx="832.8" cy="318.2" rx="11.8" ry="12"/>
	<path class="st42" d="M762.8,218.4c0,2.7-2.1,4.8-4.8,4.8c-2.7,0-4.8-2.1-4.8-4.8c0-2.7,2.1-4.8,4.8-4.8
		C760.8,213.6,762.8,215.7,762.8,218.4z"/>
	<path class="st42" d="M918.6,428.2c0,2.9-2.3,5.2-5.2,5.2s-5.2-2.3-5.2-5.2s2.3-5.2,5.2-5.2S918.6,425.2,918.6,428.2z"/>
	<ellipse class="st42" cx="642.1" cy="419.8" rx="5.6" ry="5.7"/>
	<path class="st42" d="M867.8,263.8c0,1.3-1,2.3-2.3,2.3c-1.2,0-2.3-1-2.3-2.3c0-1.3,1-2.3,2.3-2.3
		C866.8,261.5,867.8,262.5,867.8,263.8z"/>
	<path class="st42" d="M860.2,751.5c0,4.2-3.3,7.6-7.5,7.6c-4.1,0-7.5-3.4-7.5-7.6s3.3-7.6,7.5-7.6
		C856.9,743.9,860.2,747.3,860.2,751.5z"/>
	<path class="st42" d="M815,564.8c0,5.2-4.1,9.4-9.3,9.4c-5.2,0-9.3-4.2-9.3-9.4c0-5.2,4.1-9.4,9.3-9.4
		C810.9,555.4,815,559.6,815,564.8z"/>
	<path class="st42" d="M925,558.5c0,1.9-1.7,3.6-3.5,3.6c-1.9,0-3.5-1.7-3.5-3.6c0-1.9,1.7-3.6,3.5-3.6
		C923.3,555,925,556.4,925,558.5z"/>
	<ellipse class="st42" cx="429.2" cy="452.3" rx="5" ry="5"/>
	<path class="st42" d="M465.8,300.9c0,2.7-2.3,5-5,5c-2.7,0-5-2.3-5-5s2.3-5,5-5C463.5,295.9,465.8,298.2,465.8,300.9z"/>
	<path class="st42" d="M304.3,179.4c0,5.2-4.1,9.4-9.3,9.4c-5.2,0-9.3-4.2-9.3-9.4c0-5.2,4.1-9.4,9.3-9.4
		C300.1,169.9,304.3,174.1,304.3,179.4z"/>
	<ellipse class="st42" cx="247.9" cy="393.5" rx="5" ry="5"/>
	<ellipse class="st42" cx="121" cy="460.3" rx="6.6" ry="6.7"/>
	<path class="st42" d="M226.6,530.4c0,2.3-1.9,4-3.9,4c-2.3,0-3.9-1.9-3.9-4s1.9-4,3.9-4C224.7,526.2,226.6,528.1,226.6,530.4z"/>
	<path class="st42" d="M223.9,622.8c0,2.3-1.9,4-3.9,4c-2.3,0-3.9-1.9-3.9-4c0-2.3,1.9-4,3.9-4C222.1,618.8,223.9,620.7,223.9,622.8
		z"/>
	<ellipse class="st42" cx="81.6" cy="741.2" rx="6.6" ry="6.7"/>
	<path class="st42" d="M229.3,803.3c0,6.7-5.4,12.2-12,12.2c-6.6,0-12-5.5-12-12.2c0-6.7,5.4-12.2,12-12.2S229.3,796.6,229.3,803.3z
		"/>
	<ellipse class="st42" cx="428.8" cy="702.1" rx="3.5" ry="3.6"/>
	<ellipse class="st42" cx="635.7" cy="620.1" rx="3.5" ry="3.6"/>
	<ellipse class="st42" cx="625.9" cy="797.5" rx="5.4" ry="5.5"/>
	<ellipse class="st42" cx="178.1" cy="228.7" rx="3.3" ry="3.4"/>
	<g>
		<path class="st41" d="M579.5,198.3c0-30.2-25.3-54.6-55.5-52.3c-25.5,1.7-46.2,22.7-48.1,48.5c-1,14.7,3.9,28.1,12.4,38.2
			c8.5,10.1,12.8,23.1,12.8,36.3v2.3H553v-2.1c0-13.4,5.2-26.2,13.9-36.5C575,223.3,579.5,211.3,579.5,198.3z"/>
		<g>
			<path class="st43" d="M528.2,154.2c5.8-0.8,12,0.4,17.4,2.9c5.6,2.5,10.6,6.1,14.5,10.7c4.1,4.4,7.2,9.9,9.1,15.7s2.3,12,1,17.8
				c-1-5.9-2.5-11.3-5-16.4c-2.5-5-5.6-9.4-9.1-13.6c-3.7-4-7.9-7.6-12.6-10.5C538.9,157.7,533.8,155.4,528.2,154.2z"/>
		</g>
		<path class="st44" d="M519.3,274.1c0,0,0-19.1-0.4-29.8c-0.4-13.6-0.2-22-3.1-29c-2.5-6.1-6-7.6-8.7-4.2s-0.2,12,6.8,14.5
			c6,2.1,14.9,2.7,22.6,0.8c5.2-1.3,8.7-3.1,11.6-6.1c3.7-3.8,3.1-9.9,0.8-11.1c-3.1-1.9-6.8,0.2-9.1,6.3c-1,2.5-3.5,8.4-3.7,26.7
			c0,9-0.6,31.5-0.6,31.5"/>
		
			<linearGradient id="SVGID_7_" gradientUnits="userSpaceOnUse" x1="495.4703" y1="162.0781" x2="537.9417" y2="85.8275" gradientTransform="matrix(1 0 0 1 0 100)">
			<stop  offset="0" style="stop-color:#E7C13C"/>
			<stop  offset="1" style="stop-color:#E7C13C;stop-opacity:0"/>
		</linearGradient>
		<path class="st45" d="M498.6,154.8c-12.6,8.8-21.3,23.1-22.4,39.5c-1,14.7,3.9,28.1,12.4,38.2c8.5,10.1,12.8,23.1,12.8,36.3v2.3
			h51.8V269c0-13.4,5.2-26.2,13.9-36.5c2.7-3.1,5-6.5,6.8-10.1C510.8,247.8,485.9,193.9,498.6,154.8z"/>
		<ellipse class="st46" cx="527.1" cy="295.9" rx="24.2" ry="13.2"/>
		<g>
			<g>
				<path class="st47" d="M501,279.3h52.6c2.3,0,4.3-1.9,4.3-4.4c0-2.5-1.9-4.4-4.3-4.4H501c-2.3,0-4.3,1.9-4.3,4.4
					C496.7,277.4,498.8,279.3,501,279.3z"/>
				<path class="st47" d="M553.6,287.9H501c-2.3,0-4.3,1.9-4.3,4.4c0,2.5,1.9,4.4,4.3,4.4h52.6c2.3,0,4.3-1.9,4.3-4.4
					C558,289.8,556.1,287.9,553.6,287.9z"/>
			</g>
			<path class="st46" d="M553.6,279.3H501c-2.3,0-4.3,1.9-4.3,4.4c0,2.5,1.9,4.4,4.3,4.4h52.6c2.3,0,4.3-1.9,4.3-4.4
				C558,281.2,556.1,279.3,553.6,279.3z"/>
		</g>
	</g>
	<g>
		<polygon class="st48" points="519.1,131.5 508.9,72.9 524.9,74.4 		"/>
		<polygon class="st48" points="544.9,132.6 557.6,93.9 563.6,100.4 		"/>
		<polygon class="st48" points="582.8,152.3 635.7,109.3 637.5,127.3 		"/>
		<polygon class="st48" points="478.7,151 449.3,111.4 438.9,122.3 		"/>
		<polygon class="st48" points="460.6,191.8 395.2,168.2 393.5,189.9 		"/>
		<polygon class="st48" points="602.1,194.7 638.6,190.7 638.1,198.5 		"/>
	</g>
	<g id="DESIGNED_BY_FREEPIK">
	</g>
</g>
</svg>
