<?xml version="1.0" encoding="utf-8"?>
<!-- Generator: Adobe Illustrator 25.2.0, SVG Export Plug-In . SVG Version: 6.00 Build 0)  -->
<svg version="1.1" id="Layer_1" xmlns="http://www.w3.org/2000/svg" xmlns:xlink="http://www.w3.org/1999/xlink" x="0px" y="0px"
	 viewBox="0 0 500 500" style="enable-background:new 0 0 500 500;" xml:space="preserve">
<style type="text/css">
	.st0{fill:#FFFFFF;}
	.st1{fill:#DDEDEE;}
	.st2{fill:none;stroke:#DDEDEE;stroke-width:3;stroke-miterlimit:10;}
	.st3{fill:#412308;}
	.st4{fill:#E5AC2F;}
	.st5{fill:#0E1920;}
	.st6{fill:#345C68;}
	.st7{fill:#3E6E7D;}
	.st8{fill:#F1CC30;}
	.st9{fill:#EBC280;}
	.st10{fill:#DAA05E;}
	.st11{fill:url(#SVGID_1_);}
	.st12{fill:#643619;}
	.st13{fill:#994D1D;}
	.st14{fill:#254148;}
	.st15{fill:#ECC78E;}
	.st16{fill:#91B242;}
	.st17{fill:#BFCD3C;}
	.st18{fill:#DBBDA6;}
	.st19{fill:#BF9C80;}
	.st20{fill:#381C14;}
	.st21{fill:#926053;}
	.st22{fill:url(#SVGID_2_);}
	.st23{fill:#5E443D;}
	.st24{fill:none;stroke:#452F20;stroke-width:0.6145;stroke-miterlimit:10;}
	.st25{fill:url(#SVGID_3_);}
	.st26{fill:#1F3649;}
	.st27{fill:#274658;}
	.st28{fill:#5699B4;}
	.st29{fill:#79BDD2;}
	.st30{fill:#F1CA8E;}
	.st31{fill:#E5B381;}
	.st32{fill:url(#SVGID_4_);}
	.st33{fill:#A56052;}
	.st34{fill:url(#SVGID_5_);}
	.st35{fill:url(#SVGID_6_);}
	.st36{fill:#E9A29D;}
	.st37{fill:#EBC086;}
	.st38{fill:#C48D54;}
	.st39{fill:none;stroke:#345A6E;stroke-width:1.5;stroke-miterlimit:10;stroke-dasharray:5.1369;}
	.st40{fill:#365E6B;}
	.st41{fill:#5DA1BA;}
	.st42{fill:none;stroke:#345A6E;stroke-width:1.0274;stroke-miterlimit:10;}
	.st43{fill:#F1DA3D;}
	.st44{fill:none;stroke:#919CA2;stroke-width:0.8566;stroke-linecap:round;stroke-miterlimit:10;}
	.st45{fill:url(#SVGID_7_);}
	.st46{fill:#8F8F8F;}
	.st47{fill:#BEBEBE;}
	.st48{fill:#345A6E;}
</style>
<g id="BACKGROUND">
	<rect class="st0" width="500" height="500"/>
</g>
<g id="OBJECTS">
	<g>
		<g>
			<g>
				<path class="st1" d="M277.1,411.9c-44.8,7.3-81.5,6.1-122.9-3.3c-47.6-10.9-98.6-48.9-96.3-105.2s31.7-71.4,53.5-73.1
					c16.3-1.3,32.3,4.4,47.9,9.4c40.4,13.1,68.8,19,111,15.2c65.2-5.9,101.2-40,136.3-21.9c30.3,15.6,45.8,62,14.4,104.3
					C386.6,383.4,337.2,402.1,277.1,411.9z"/>
			</g>
			<path class="st2" d="M281.9,410.1c-44.4,9.7-81.1,10.6-122.9,3.4c-48.1-8.3-101.1-43.5-101.9-99.8c-0.8-56.3,27.7-73,49.5-75.9
				c16.2-2.2,32.5,2.6,48.3,6.8c41,10.8,69.7,15.2,111.7,9.1c64.8-9.4,98.9-45.4,134.9-29.3c31.1,14,49.1,59.4,20.1,103.3
				C389.8,375.7,341.5,397.1,281.9,410.1z"/>
			<g>
				<path class="st1" d="M375.4,198h76c0,0-3.4-12.8-14.1-6.3c-5-17.6-23.3-13.6-27.5-2.9c-2.6-7.6-10.7-2.9-10.1,1.6
					C391.7,182.3,378.3,188.2,375.4,198z"/>
				<path class="st1" d="M189.8,123.2h-37.1c0,0,1.7-6.3,6.9-3.1c2.4-8.6,11.4-6.6,13.4-1.4c1.3-3.7,5.2-1.4,4.9,0.8
					C181.8,115.5,188.4,118.4,189.8,123.2z"/>
				<path class="st1" d="M60.5,177c0,0,59.4,0,71.5,0c0-8.4-14.3-16.6-26.9-7.1c-0.5-18.5-27.5-16.6-29.3,2.1
					C63.1,167.2,60.5,177,60.5,177z"/>
			</g>
		</g>
		<g>
			<g>
				<path class="st3" d="M345.1,207.5c-3.9,2.1-4.4,8.8-3.1,13.8s10.5,22.9,5.5,33.9c12.3-0.2,17.2-7.7,17.2-7.7s2.4-14.9-0.8-21.2
					C360.6,219.9,345.1,207.5,345.1,207.5z"/>
				<path class="st4" d="M360.2,258.6c-2.5-0.4-4-0.7-9,5.9c-5.1,6.8-7.1,11-11.5,17s-2.9,9,0.7,10.4c6.2,2.5,13.7,2.5,13.7,2.5
					l-4.2-9.8L360.2,258.6z"/>
				<path class="st5" d="M359.1,435.1l1.4,8.5h-19.9c0,0,0-1.3,1.7-1.9s10.2-2.1,12.2-3.2s1.8-3.1,1.8-3.1L359.1,435.1z"/>
				<path class="st5" d="M392.2,438.7l1.4,8.5h-19.9c0,0,0-1.3,1.7-1.9s10.2-2.1,12.2-3.2s1.8-3.1,1.8-3.1L392.2,438.7z"/>
				<path class="st6" d="M345.3,316.8c-1,6.8,3.7,49,5.8,72.1c2.1,23.1,4.5,47.7,4.5,47.7l4-0.7c0,0,7.7-51.8,7.5-64.2
					c-0.1-12.3-10.5-52.4-10.5-52.4L345.3,316.8z"/>
				<path class="st7" d="M348.3,318.8c0.4,4.7,13.1,43.9,22.6,70.1c9.5,26.3,17.4,50.9,17.4,50.9h6c0,0-8.6-66.8-10.8-81.4
					c-2.3-14.6-1.1-30.7-6.7-43.3C370.3,310,348.3,318.8,348.3,318.8z"/>
				<path class="st8" d="M361.2,256c-1.6,0.5-3.3,3.1-7.7,8.3c-3.3,3.9-9.5,9.4-9.2,12.6c0.3,3.1,2.9,5.9,5.2,6.3
					c-1,6.3-4.7,26-6.5,33.8c4.3,7,28.9,5.3,35-2.6c-2-4.4-4.1-21.9-3.5-30.1s-0.1-17.9-1.7-23.1C371.2,256.2,365.1,254.9,361.2,256
					z"/>
				<path class="st4" d="M369.1,260.8c1.1-1.8,2.8-2.3,4.2-1.9c1.9,0.5,3.8,3.3,3.6,10.6c-0.1,3.9-3.5,27-6,29.3
					c-3.3,3.1-10.2-2.1-8.5-6c1.6-3.9,3.2-8,4.2-13.6C367.8,272.5,367.9,262.9,369.1,260.8z"/>
				<path class="st9" d="M347.9,283.8c-3.8-0.7-6.5,1.2-5,2.7C345,286.2,347.9,283.8,347.9,283.8z"/>
				<path class="st4" d="M367.4,288.5c-2.5-1.3-7.8-3.1-19.2-4.8c-3.2,0.1-5.6,2.9-5.6,2.9s13.5,9.5,18.4,12.1
					c4.8,2.6,8.8,3,10.6-0.6S367.4,288.5,367.4,288.5z"/>
				<path class="st9" d="M361.9,286.7c4.3-2,10.5-1,12.7,4c2,4.4-0.1,7.9-2.4,4.8c-2.1-2.8-2.8-5.4-6.1-6.8
					C364.8,287.8,361.9,286.7,361.9,286.7z"/>
				<path class="st10" d="M357.9,259.9c-1.5,1.8-2.9,4.3-0.8,5s7.8-2.6,9.4-6.5c1.7-3.9-1.2-15.5-1.2-15.5l-5.1,0.1
					c0,0,0.3,8.8,0.3,11.5C360.5,256,359.8,257.6,357.9,259.9z"/>
				<g>
					<path class="st9" d="M369.8,247.1c0,0-19.9,8-24,3.4c-0.7-0.8-1.1-1.7-1.9-4.2c-0.2-0.7-1-3.6-1.2-4.4c-1.6-7-2.4-16-0.6-22
						c3-9.9,11.9-17.5,21.4-13.8C373,209.7,394.3,217.5,369.8,247.1z"/>
					<path class="st9" d="M346.1,228.9L346.1,228.9l-0.4-1.3c-2.7,2.9-5.8,4.9-8.7,7c5.7,5.8,11.7,0.9,10.5-6
						C346.9,228.6,346.4,228.8,346.1,228.9C345.7,229.1,345.8,229,346.1,228.9z"/>
					<g>
						
							<linearGradient id="SVGID_1_" gradientUnits="userSpaceOnUse" x1="-1735.3041" y1="-1600.8499" x2="-1733.7794" y2="-1606.0227" gradientTransform="matrix(-0.9934 0.1149 -0.1149 -0.9934 -1561.3507 -1165.4919)">
							<stop  offset="0" style="stop-color:#DA9C68"/>
							<stop  offset="1" style="stop-color:#DA9C68;stop-opacity:0"/>
						</linearGradient>
						<path class="st11" d="M344.1,224.8c-2,3-2.6,5.9,1.6,6.8c4.3,1,3.5-4.8,3.5-4.8S346,225.3,344.1,224.8z"/>
						<path class="st12" d="M343.1,229.3c0,0.3,0.3,0.6,0.7,0.5c0.3,0,0.6-0.3,0.5-0.7c0-0.3-0.3-0.6-0.7-0.5
							C343.3,228.7,343,229,343.1,229.3z"/>
						<path class="st13" d="M345.3,225c4.6,1.4,4.8,2.4,2.6,1.8C344.8,225.9,342.1,224,345.3,225z"/>
					</g>
					<g>
						<path class="st13" d="M348,243.6c1-0.1,1.8-0.6,2.6-1.2c0.4-0.3,0.7-0.6,1.1-0.9c0.3-0.3,0.6-0.7,0.9-1.1
							c-0.1,0.5-0.3,1-0.6,1.4c-0.3,0.4-0.7,0.8-1.1,1.1s-0.9,0.6-1.4,0.7S348.5,243.8,348,243.6z"/>
					</g>
				</g>
			</g>
			<g>
				<path class="st14" d="M146.5,443.3c0,0-3,6.1-1.5,6.7c1.6,0.6,8.7,0.6,7.9-1.2c-0.8-1.8-3.8-5.4-3.8-5.4L146.5,443.3z"/>
				<path class="st14" d="M168.8,442.7c-2,2.8-4.6,6.9-1.8,7.1s18.9,0,20.8,0c0.1-1.5-1.1-1.5-12.9-3.2c-1.6-0.2-1.1-3.3-1.1-3.3
					L168.8,442.7z"/>
				<path class="st6" d="M194.4,384.8c-1.6-8.3-7.5-39-10.5-54.8c-4.8,9.9-17,13-24,16c5.9,15.7,14.1,37.1,16,42.8
					c0.6,1.9,0.9,3.7,0,6.6s-9.6,47.9-9.6,47.9l9.7,2.1c0,0,16.7-44.1,18.1-48.7C195.6,392.2,195,388.1,194.4,384.8z"/>
				<path class="st7" d="M184.2,321.8c-0.6,0.1-34.8,3.9-40.4,4.3c-1.1-0.1-2-0.2-2.6-0.3l2.7,119.3l8.4-1c0,0,8.2-83.8,9.9-98.8
					c0.1,0,19.3-3.9,21.8-15.3C184.4,327.5,184.5,324.7,184.2,321.8z"/>
				<path class="st15" d="M211.9,273.4c0.3-0.5-0.4-8.6-0.4-8.6l2.4-5.9l3.6-4.3l1.1,0.2l-2.4,4.4l-1.2,3.3l3.6-5.1l4.4-6.9l1.2,0.7
					l-4.2,8.6l5.5-7.6l0.5,0.5l-4.1,7.9l4.7-4.9l0.4,1l-3.7,5.3l2.4-2.8l0.2,0.8l-5.2,6.6l-7,7.8L211.9,273.4z"/>
				<path class="st16" d="M165,256.5c8.6,1.3,15.5,4.7,19.5,12.4c3.5,6.9,8.4,18,9,19.2c0.6,1.3,1.8,1,3.1-0.3
					c1.2-1.4,14.4-19.2,14.4-19.2s3.1,1,4.6,3.8c-5.2,12.1-13.2,28.2-14.6,30.3c-1.4,2.1-5.1,2.3-7.1,1.1
					c-1.9-1.1-15.4-10.5-15.4-10.5S166.1,261.5,165,256.5z"/>
				<path class="st17" d="M154.7,256.2c-8.3,1.3-15.6,5-15.6,17.1c0,6.2,0.9,56,0.9,56s31.9,4.6,44.1-5.7
					c-1.2-17.3-5.2-44.8-6.6-52.2C175.4,261,169.1,253.9,154.7,256.2z"/>
				<path class="st15" d="M136,335.4c0.1,0.6,6.4,7.2,6.4,7.2l2,6.8l-0.1,6.3l-1.1,0.6l-0.9-5.5l-1.2-3.7l0.4,7l1,9.1l-1.5,0.2
					l-2.3-10.5l0.4,10.5l-0.8-0.1l-2-9.8l-0.7,7.6l-1.1-0.6l-0.5-7.2l-0.2,4.1l-0.8-0.6v-9.4l0.7-11.8L136,335.4z"/>
				<g>
					<path class="st18" d="M163.6,255.1c0,0,0.1,3.7,0.1,4.4c0.1,0.7-8.7,2.3-9.3-1.8c-0.2-1.5-0.2-3.8-0.2-3.8
						C158.2,255.4,162,255.2,163.6,255.1z"/>
					<path class="st19" d="M154.3,254l-0.1-4.4l9.3-0.2l0.2,5.8C162,255.2,158.2,255.4,154.3,254z"/>
				</g>
				<g>
					<path class="st20" d="M172.9,249.1c0,0,9.3-10.3,9.6-24.4c0.2-15.3-9-21.8-20.7-21.9c-12.8-0.2-18.7,4-22.8,12.2
						c-3.6,7.4-2.4,15,0.5,21.9C144,247.5,154,249.5,172.9,249.1z"/>
					<path class="st18" d="M180.3,225.9c0,13.2,1.3,17.6-0.8,21.4c-2,3.6-7.9,8.6-21.7,5.1c-9.9-2.5-12.4-10.1-12.4-10.1
						s-1.3,0.8-3,0.6c-1.4-0.2-3.3-1.6-3.1-4.1c0.2-3.5,1.9-4.5,3.2-4.9c2.4-0.7,4,1.6,4,1.6s0-5,0.6-8.7s1.2-7.6,18.6-8.6
						c4.3-0.3,10.2-0.4,12.5,0.7C180.2,220,180.3,222.4,180.3,225.9z"/>
					<g>
						<g>
							<path class="st21" d="M169.5,236c0.6-0.3,1.2-0.6,1.9-0.6c0.7-0.1,1.4,0,2,0.5c0.3,0.3,0.5,0.7,0.4,1.1
								c0,0.2-0.1,0.3-0.2,0.5c-0.1,0.1-0.2,0.3-0.3,0.4c-0.5,0.5-1.1,0.8-1.7,1.1c0.5-0.4,1.1-0.8,1.5-1.3s0.6-1.2,0.1-1.5
								c-0.4-0.4-1.1-0.5-1.7-0.5C170.8,235.7,170.1,235.8,169.5,236z"/>
						</g>
					</g>
					<g>
						<path class="st21" d="M161.2,244.8c-0.1,0.8,0.4,1.5,0.9,1.9c0.5,0.5,1.2,0.8,1.9,0.9c0.7,0.1,1.5,0.1,2.2,0
							c0.4,0,0.7-0.1,1.1-0.2c0.4-0.1,0.7-0.2,1.1-0.3c-0.3,0.2-0.7,0.3-1,0.5c-0.4,0.1-0.7,0.3-1.1,0.4c-0.8,0.2-1.6,0.2-2.4,0.1
							c-0.8-0.1-1.6-0.5-2.1-1.1C161.3,246.4,160.9,245.6,161.2,244.8z"/>
					</g>
					<g>
						
							<linearGradient id="SVGID_2_" gradientUnits="userSpaceOnUse" x1="1741.9913" y1="-783.6635" x2="1739.8241" y2="-788.6932" gradientTransform="matrix(-0.9915 -0.13 0.13 -0.9915 1993.075 -321.6045)">
							<stop  offset="0" style="stop-color:#B88F6C"/>
							<stop  offset="1" style="stop-color:#B88F6C;stop-opacity:0"/>
						</linearGradient>
						<path class="st22" d="M167.6,228.2c0.4,1.6,1.9,6.1-2.5,7s-4-4.6-4-4.6S165.6,228.6,167.6,228.2z"/>
						<path class="st23" d="M166.6,228c-5.1,1-7.6,3.4-4.4,2.9C165.5,230.5,170,227.3,166.6,228z"/>
						<path class="st24" d="M167.4,235c-0.8-1.8-2.7-1.5-3.3,0.4"/>
					</g>
					<g>
						
							<linearGradient id="SVGID_3_" gradientUnits="userSpaceOnUse" x1="1730.4714" y1="-782.3806" x2="1731.2893" y2="-787.574" gradientTransform="matrix(-0.9915 -0.13 0.13 -0.9915 1993.075 -321.6045)">
							<stop  offset="0" style="stop-color:#B88F6C"/>
							<stop  offset="1" style="stop-color:#B88F6C;stop-opacity:0"/>
						</linearGradient>
						<path class="st25" d="M173,228c-0.4,1.2-1.9,5.5,1.5,6.6c3.4,1,3.5-4.6,3.5-4.6S174.6,228.5,173,228z"/>
						<path class="st23" d="M173.9,227.9c3.8,0.7,6.1,3.1,2.6,2.2C173.1,229.3,171.9,227.5,173.9,227.9z"/>
						<path class="st24" d="M175.8,234.4c-0.6-2.2-2.9-1.9-3.2-0.2"/>
					</g>
					<path class="st20" d="M146.4,219.7c1.9,1.9,3.7,2.7,12.2,3c12.2,0.5,20.4-2.4,21-3l-2.8-6.9c-2.2-0.8-8.7-2.8-16.4-0.5
						C152,214.8,147.7,217.9,146.4,219.7z"/>
				</g>
			</g>
			<g>
				<g>
					<path class="st5" d="M253.7,440.7c-1.2,2.1-5.6,6.9-0.8,7.2c4.8,0.3,8.7,0.3,7.1-2.4c-1.5-2.7-2.7-4.7-2.7-4.7L253.7,440.7z"/>
					<path class="st5" d="M273.5,437.6l-1.4,8.5H292c0,0,0-1.3-1.7-1.9s-10.2-2.1-12.2-3.2s-1.8-3.1-1.8-3.1L273.5,437.6z"/>
					<path class="st26" d="M290.1,327c0.6,7.9-1.1,37.7-3.6,57.3c-2.5,19.6-9.3,54.4-9.3,54.4l-4.4-0.7c0,0-1.5-57.8-2.2-70.8
						c-0.7-12.9,2.5-29.5,2.5-29.5L290.1,327z"/>
					<path class="st27" d="M290.7,324.3c-0.1,3.1-0.9,17.9-14.6,20.3c-19.1,3.4-26.8-8.9-25.4-18.2
						C271.6,330.1,290.7,324.3,290.7,324.3z"/>
					<path class="st27" d="M278.2,341.3c-1.1,4.2-8.6,37.7-12.7,57c-4,19.4-6.3,42-6.3,42s-2.6,2.9-7.6,0
						c-0.1-12.2-1.7-96.4-0.3-110.3C260.6,341.7,278.2,341.3,278.2,341.3z"/>
					<path class="st28" d="M277,260.4c5.5,0.5,9.4,3.4,12.1,8.1c3.3,5.9,5.5,12.4,6.7,15.8c2,5.6-0.3,15.7-6.3,11.7
						C287.3,294.5,277.7,265,277,260.4z"/>
					<path class="st29" d="M266.3,258.9c-9.7,1.3-15.1,7.7-16.9,16.8c-1.8,9.1-0.6,43.5,0.5,51.6c10.8,3.6,31.9,3.6,41.3-1.3
						c-0.3-12.5-1.8-39.2-2.8-49.1C287.5,266.9,280.2,257.1,266.3,258.9z"/>
					<g>
						<path class="st30" d="M245.1,295.2c3.3,0.5,4.6,7.7,5.3,11.5l0.6,28.8l-5.4-0.3c0,0-4.4-22.3-4.7-28.3
							C240.7,301,242.4,294.8,245.1,295.2z"/>
						<path class="st30" d="M244.5,284.4c0,0-2.5,12.8-3.1,16.3s2.2,6.8,4.9,7.5s3.6,0.6,4-1.4s4.6-19.5,4.6-19.5L244.5,284.4z"/>
						<path class="st30" d="M249,330.7c0,0.5,3.9,7.9,3.9,7.9l1.6,7.1l-0.9,1l-3.2-6.3l-0.3,5.4l-0.9,7.7h-1.4l-0.2-9l-0.8,8.3
							l-0.7-0.2l-0.7-7.9l0.5,7.2l-0.9-0.6l-1.3-6.9l0.6,5.9l-0.9-0.7l-1.3-6.6l3.7-12.4L249,330.7z"/>
					</g>
					<path class="st28" d="M259.4,264.1c-4.8-3.7-12,0.1-17.5,19.9c7.2,4.1,15.5,4.2,15.5,4.2S265.1,268.5,259.4,264.1z"/>
					<path class="st30" d="M295.4,298.2c-4.4,0.7-6.9-5.7-4.8-11.1s4.3-15.3,4.6-23.7c0.1-1.9,3.9-1.9,3.8,0.9s0.1,11.4,0.5,22.4
						C299.6,292.5,298.5,297.7,295.4,298.2z"/>
					<path class="st31" d="M275.3,250.9c-0.1,5.9-0.2,8.2,0.1,10.1c0.3,2.8,2.9,7.3,0.5,8.6s-8.5-4.2-10.1-7.7
						c-0.8-1.8-0.7-2.1-0.8-3.4c-0.1-2.5-0.2-8.4-0.2-8.4L275.3,250.9z"/>
					<g>
						<path class="st13" d="M250.2,229.6c-0.4,0.5-0.5,8.6,3.7,15.1c4.1,6.5,12.9,7.7,13.3,7C267.7,251.1,262.8,212.8,250.2,229.6z"
							/>
						<path class="st30" d="M288.5,239.5c-1.1,12.6-8.4,18.4-16.7,18.4c-11.3,0-18.3-14.5-18.4-26.3c-0.1-11.8-3.3-20.3,15.2-20.6
							C289,210.7,290.3,218,288.5,239.5z"/>
						<path class="st30" d="M283.8,233.9c0.3,3.1,1.4,5,3.7,4.8c2.3-0.2,5.8-3.2,5.5-6.3s-2.4-5.4-4.7-5.2
							C286.1,227.4,283.6,230.8,283.8,233.9z"/>
						<path class="st13" d="M289.5,233.4c1.9-5.3,1.3-12.8,1.2-16.9c-0.3-9.6-6-11.3-10.3-12.4c0.8,0,0.2-0.5,1-0.5
							c-2.9-2.5-11.2-3.9-14.3-2c-5.3,0.9-8.6,2.1-11.8,4.9c-6.8,5.8-6.9,13.9-4.3,27.1c0.6,0.2,3.5,2.5,4.2,2.4
							c-1.7-5.3-1.4-16.2,4.1-19.1c2.7-1.4,6-0.5,8.8-0.2c2.1,0.2,8.4,0,12.7-0.6c2.4-0.4,4.1,0,4.7,0.6c2.7,3.1,4.1,7.1,3.4,14.5
							C289,232.2,289.1,233,289.5,233.4z"/>
						<path class="st30" d="M257.1,233.5c1.2,2.9,1.2,5.1-0.7,5.8c-1.9,0.8-6.1-0.4-7.3-3.3c-1.2-2.9-0.6-5.8,1.3-6.6
							C252.4,228.7,255.9,230.6,257.1,233.5z"/>
						<g>
							
								<linearGradient id="SVGID_4_" gradientUnits="userSpaceOnUse" x1="494.1017" y1="327.8065" x2="489.5549" y2="324.9802" gradientTransform="matrix(0.9679 0.2513 0.2513 -0.9679 -283.8468 429.4781)">
								<stop  offset="0" style="stop-color:#D38278"/>
								<stop  offset="1" style="stop-color:#EEB9AD;stop-opacity:0"/>
							</linearGradient>
							<path class="st32" d="M271.2,235c2.8-0.6,5.2-0.1,5.8,2c0.5,2.1-2.3,3.4-4.7,3.7C269.9,241,269,235.5,271.2,235z"/>
							<g>
								<path class="st33" d="M270,235.4c1.1-0.4,2.2-0.7,3.4-0.7c1.2,0,2.5,0.3,3.4,1.3c0.4,0.5,0.6,1.3,0.4,1.9
									c-0.2,0.6-0.6,1.1-1.1,1.5c-0.9,0.8-2.1,1.2-3.2,1.5c1-0.5,2.1-1.1,2.9-1.9c0.8-0.7,1.3-1.9,0.5-2.6
									c-0.7-0.8-1.8-1.1-2.9-1.2C272.3,235.1,271.1,235.2,270,235.4z"/>
							</g>
							<path class="st12" d="M275.6,246.9c-3.9,0.8-6.5,0.6-7.7-0.5C267.6,254.4,272,254.7,275.6,246.9z"/>
							<g>
								
									<linearGradient id="SVGID_5_" gradientUnits="userSpaceOnUse" x1="481.3361" y1="333.4637" x2="483.2226" y2="327.063" gradientTransform="matrix(0.9679 0.2513 0.2513 -0.9679 -283.8468 429.4781)">
									<stop  offset="0" style="stop-color:#DA9C68"/>
									<stop  offset="1" style="stop-color:#DA9C68;stop-opacity:0"/>
								</linearGradient>
								<path class="st34" d="M270,227.3c0.3,1.9,1.4,7.7-4.1,8.1c-5.5,0.5-4.2-6.2-4.2-6.2S267.5,227.6,270,227.3z"/>
								<path class="st12" d="M268.2,234.9c-0.1,0.4-0.5,0.6-0.9,0.5s-0.6-0.5-0.5-0.9s0.5-0.6,0.9-0.5
									C268,234.1,268.3,234.5,268.2,234.9z"/>
								<path class="st13" d="M268.8,227c-6.3,0.4-9.7,2.9-5.7,2.9C267,229.9,272.9,226.7,268.8,227z"/>
							</g>
							<g>
								
									<linearGradient id="SVGID_6_" gradientUnits="userSpaceOnUse" x1="606.2568" y1="365.8972" x2="608.1433" y2="359.4965" gradientTransform="matrix(-0.9679 0.2513 -0.2513 -0.9679 959.0081 429.4781)">
									<stop  offset="0" style="stop-color:#DA9C68"/>
									<stop  offset="1" style="stop-color:#DA9C68;stop-opacity:0"/>
								</linearGradient>
								<path class="st35" d="M276.1,227.3c-0.3,1.9-1.4,7.7,4.1,8.1c5.5,0.5,4.2-6.2,4.2-6.2S278.6,227.6,276.1,227.3z"/>
								<path class="st12" d="M277.9,234.9c0.1,0.4,0.5,0.6,0.9,0.5s0.6-0.5,0.5-0.9s-0.5-0.6-0.9-0.5
									C278.1,234.1,277.8,234.5,277.9,234.9z"/>
								<path class="st13" d="M277.3,227c6.3,0.4,9.7,2.9,5.7,2.9C279.1,229.9,273.2,226.7,277.3,227z"/>
							</g>
							<path class="st36" d="M262.7,236.9c0,0.4-1.1,0.8-2.4,0.8s-2.4-0.3-2.4-0.8c0-0.4,1.1-0.8,2.4-0.8
								C261.6,236.1,262.7,236.5,262.7,236.9z"/>
							<path class="st36" d="M288.4,236.9c0,0.4-1.1,0.8-2.4,0.8s-2.4-0.3-2.4-0.8c0-0.4,1.1-0.8,2.4-0.8
								C287.3,236.1,288.4,236.5,288.4,236.9z"/>
						</g>
						<path class="st13" d="M263.2,215.2c0.9,1.7,6.7,8.1,13.7,7.4c-2.7-0.5-4-1.5-4-1.5s5.3,1.6,11.1-1.4c-1.9,0.2-4.9-0.1-4.9-0.1
							s5-1.4,5.9-4C273,213.6,263.2,215.2,263.2,215.2z"/>
					</g>
					<g>
						<path class="st37" d="M296,256.6c0.3-3,0.2-8.8,0.3-10.8c0.2-2-1.2-2.3-2.1-1.8c-0.8,0.5-0.9,3.1-0.9,6c0,2.5,0.1,7.3,0.1,7.3
							L296,256.6z"/>
						<path class="st30" d="M299,264.3c1.1-2.6,1.8-6.1,1.5-8c-0.4-3.3-3.4-4-5.4-3.7c-2,0.2-3.2,4-3,5.4c0.6,3.7,3,4.9,3.1,6.5
							C295.7,265.4,298.6,265.4,299,264.3z"/>
						<path class="st30" d="M298.3,251.9c-3.2-0.3-3.5,1.1-4.2,3.3c-0.5,1.8,1.5,2.7,3.8,3.1c1.7,0.3,2.6-0.7,2.6-0.7
							S301.1,252.2,298.3,251.9z"/>
						<g>
							<path class="st38" d="M299.4,256c-0.1,0.5-0.2,1-0.4,1.4c-0.3,0.5-0.8,0.7-1.3,0.8c-0.5,0.1-1,0-1.5-0.1s-1-0.2-1.4-0.5
								c-0.9-0.6-1.3-1.8-1-2.8c0.1-0.5,0.4-1,0.7-1.4c0.3-0.4,0.7-0.8,1.1-1c-0.4,0.3-0.7,0.7-1,1.1c-0.3,0.4-0.5,0.8-0.6,1.3
								c-0.2,0.9,0.1,2,0.9,2.5c0.4,0.3,0.9,0.4,1.3,0.5c0.5,0.1,1,0.2,1.4,0.1c0.5,0,0.9-0.3,1.2-0.7
								C299.2,257,299.3,256.5,299.4,256z"/>
						</g>
						<path class="st37" d="M294.8,259c-1.6,1.4-3.1,0.2-3.8-1.4c-0.7-1.6-0.9-2.8,0-3.5s4.8,0.5,4.8,1.8s-1.1,1.4-2.1,0.9
							C295.2,258.1,294.8,259,294.8,259"/>
						<g>
							<path class="st38" d="M299.7,255.3c0.1,0.2,0,0.5-0.1,0.7c-0.1,0.1-0.2,0.2-0.3,0.2c-0.2,0-0.3-0.1-0.3-0.2
								c0.1,0,0.2,0,0.3,0c0,0,0.1-0.1,0.1-0.2c0.1-0.1,0.1-0.2,0.1-0.2C299.6,255.4,299.7,255.4,299.7,255.3z"/>
						</g>
						<g>
							<path class="st38" d="M294.4,259.4c0.2-0.3,0.3-0.7,0.2-1c-0.1-0.4-0.2-0.7-0.4-1c-0.4-0.6-1.1-1-1.7-1.3
								c0.7,0.2,1.4,0.6,1.9,1.2c0.2,0.3,0.4,0.7,0.4,1.1C294.8,258.8,294.7,259.2,294.4,259.4z"/>
						</g>
						<g>
							<path class="st38" d="M295.5,255.5c0.1,0.2,0.2,0.4,0.2,0.7c0,0.3-0.2,0.5-0.4,0.7c-0.2,0.2-0.5,0.2-0.7,0.3
								c-0.3,0-0.5,0-0.7-0.1c0.5,0,1,0,1.3-0.3C295.6,256.4,295.6,255.9,295.5,255.5z"/>
						</g>
					</g>
				</g>
			</g>
		</g>
		<path class="st13" d="M252,229.2c0.6,4.9,1.9,8.2,3.6,10.8c0.4,0.3,1.3,0.9,1.3,0.9s-4.6-10.1,0.5-19.2c-1.2,2.9-0.1,5.4-0.1,5.4
			s0.8-5.1,3.6-7.9c1.3,2.1,7.9,2.4,7.9,2.4s-4-2.9-4.7-5.8c-3.8-2.6-8.8,0-10.4,3.9C252.4,222.9,251.6,225.6,252,229.2z"/>
		<path class="st13" d="M283.6,215c2.9,2.4,3.5,7.9,3.4,10.6c0.4-0.3,1-2.5,1-2.5s0.8,13,0,15.3c0.8-0.7,1-1.1,1-1.1
			s1.2-6.6,0.8-11.2c-0.4-4.7-1.8-8.9-3-9.9S283.6,215,283.6,215z"/>
		<path class="st20" d="M180.4,219.2c-0.3,1.6-7.1,5.9-20.6,6.6c4.3-0.4,12-2,17.3-6C178,218.9,180.4,219.2,180.4,219.2z"/>
		<path class="st20" d="M138.5,233.8c-1-1.9-2.5-6.7-2.3-8.7c-1.3,2-0.8,7.4-0.8,7.4s-4.7-11,3.6-20.4c-1.6,0.1-3.5,2.1-3.5,2.1
			s1.5-4.2,7.5-6.6c-0.2-1.5,0.9-4.9,2.7-5.9c-1.1,2.1-1.4,5.2-1.4,5.2s8-8.6,25.9-5c-4.5-0.3-7,0.2-7,0.2s14.2,0.4,20.4,10.4
			c-3-1.3-6-4.3-6-4.3s4.7,4.8,4,9.3c-5-4.3-24.8-3.2-29.6-1.6c-4.8,1.6-11.9,16.7-11.9,16.7L138.5,233.8z"/>
		<path class="st20" d="M167.4,220.2c-1.3,1.9-8.2,4.1-12.7,3.9c4.9,1.6,21.9-1.1,20.9-4.3C174.5,218.1,167.4,220.2,167.4,220.2z"/>
		<path class="st20" d="M146.7,227.1c-0.1,4.5,0.2,12.8,1.7,15.7c-3.1-1.2-5.1-10.1-5.1-10.2S146.7,227.1,146.7,227.1z"/>
		<path class="st16" d="M146.6,258.1c-5-0.1-9.5,3.6-12.4,13.9c-3.4,12.2-5.4,21.7-5.2,24.6c0.1,2.9,9.5,9.9,12.9,0.3
			c4.2-12,6.7-20.7,8-26.1C152,261.7,150.8,258.2,146.6,258.1z"/>
		<path class="st16" d="M129,296.7c0.9,6.5,3.3,39.7,3.7,43.6c2.6,2.6,7.5-0.4,7.5-0.4s-0.2-20.8,1.3-42
			C141.8,292.8,129,296.7,129,296.7z"/>
		<path class="st3" d="M361.6,253c2.3-12.8-2-24.4-2-24.4s1,8.2-0.2,10.2c1.3-8-5.2-15.4-5.2-15.4s-0.1,1.8,1.9,5.4
			c-3.9-3.8-8.7-10.2-8.7-10.2s3,5.3,5.8,8c-7.7-4.6-12.1-11.5-9.5-18.2c0.9-2.3,2.4-5.1,7.7-5.9c4.4-0.6,19.1-0.2,27.9,6.3
			s11.9,16.7,4.9,27.8c-5.4,8.1-7.3,8.8-7.3,8.8s1.1-1.5,1.5-2.6c-2.1,2.4-9.2,7.2-9.2,7.2s0.6-0.6,1.3-2
			C367.1,250.6,361.6,253,361.6,253z"/>
		<g>
			<path class="st39" d="M272.6,182c19.7-9.9,35.5-27.5,42.8-48.4c1.6-4.6,1.4-11.5-3.4-12.1c-2.3-0.3-4.4,1.3-5.9,3.1
				c-4.8,6.1-4,15.3,0.5,21.7c4.4,6.3,11.8,10.1,19.3,12c6.5,1.6,13.2,2.1,19.9,2.7"/>
			<path class="st39" d="M126.8,217.4c-11,0.8-21.6-4.7-29.7-12.2c-11.5-10.6-18.9-27-14.6-42.1c3.8-13.1,16.3-22.7,29.7-25.1
				c13.5-2.4,27.5,1.6,39,8.9c9.3,5.9,17.2,13.8,25.6,21"/>
			<path class="st40" d="M203.8,176.3v-7l-6.1-0.7c-0.4-1.6-1.1-3.2-1.9-4.6l3.8-4.8l-3.5-4.9h-1.5l-4.8,3.9
				c-1.4-0.8-2.9-1.5-4.6-1.9l-0.7-6.1h-7l-0.7,6.1c-1.6,0.4-3.2,1.1-4.6,1.9l-3.3-3.9h-1.5l-4.9,4.9l3.8,4.8
				c-0.8,1.4-1.5,2.9-1.9,4.6l-6.1,0.7v7l6.1,0.7c0.4,1.6,1.1,3.2,1.9,4.6l-3.8,4.8l4.9,4.9h1.5l3.3-3.8c1.4,0.8,3,1.5,4.6,1.9
				l0.7,6.1h7l0.7-6.1c1.6-0.4,3.2-1.1,4.6-1.9l4.8,3.8h1.5l3.5-4.9l-3.8-4.8c0.8-1.4,1.5-3,1.9-4.6L203.8,176.3z M181.1,180.4
				c-4.2,0-7.6-3.4-7.6-7.6c0-4.2,3.4-7.6,7.6-7.6c4.2,0,7.6,3.4,7.6,7.6C188.7,177,185.3,180.4,181.1,180.4z"/>
			<path class="st41" d="M205.3,176.3v-7l-6.1-0.7c-0.4-1.6-1.1-3.2-1.9-4.6l3.8-4.8l-4.9-4.9l-4.8,3.9c-1.4-0.8-2.9-1.5-4.6-1.9
				l-0.7-6.1h-7l-0.7,6.1c-1.6,0.4-3.2,1.1-4.6,1.9l-4.8-3.9l-4.9,4.9l3.8,4.8c-0.8,1.4-1.5,2.9-1.9,4.6l-6.1,0.7v7l6.1,0.7
				c0.4,1.6,1.1,3.2,1.9,4.6l-3.8,4.8l4.9,4.9l4.8-3.8c1.4,0.8,3,1.5,4.6,1.9l0.7,6.1h7l0.7-6.1c1.6-0.4,3.2-1.1,4.6-1.9l4.8,3.8
				l4.9-4.9l-3.8-4.8c0.8-1.4,1.5-3,1.9-4.6L205.3,176.3z M182.6,180.4c-4.2,0-7.6-3.4-7.6-7.6c0-4.2,3.4-7.6,7.6-7.6
				c4.2,0,7.6,3.4,7.6,7.6C190.2,177,186.8,180.4,182.6,180.4z"/>
			<path class="st40" d="M371.7,165.1v-6.3l-5.5-0.6c-0.4-1.5-1-2.9-1.7-4.1l3.5-4.3l-3.2-4.5h-1.3l-4.3,3.5
				c-1.3-0.8-2.6-1.3-4.1-1.7l-0.6-5.5h-6.3l-0.6,5.5c-1.5,0.4-2.9,0.9-4.1,1.7l-3-3.5h-1.3l-4.5,4.5l3.5,4.3
				c-0.8,1.3-1.3,2.7-1.7,4.1l-5.5,0.6v6.3l5.5,0.6c0.4,1.5,1,2.9,1.7,4.1l-3.4,4.3l4.5,4.5h1.3l3-3.4c1.3,0.8,2.7,1.3,4.1,1.7
				l0.6,5.5h6.3l0.6-5.5c1.5-0.4,2.9-1,4.1-1.7l4.3,3.4h1.3l3.2-4.5l-3.4-4.3c0.8-1.3,1.3-2.7,1.7-4.1L371.7,165.1z M351.3,168.9
				c-3.8,0-6.9-3.1-6.9-6.9s3.1-6.9,6.9-6.9s6.9,3.1,6.9,6.9S355.1,168.9,351.3,168.9z"/>
			<path class="st41" d="M373,165.1v-6.3l-5.5-0.6c-0.4-1.5-1-2.9-1.7-4.1l3.5-4.3l-4.5-4.5l-4.3,3.5c-1.3-0.8-2.6-1.3-4.1-1.7
				l-0.6-5.5h-6.3l-0.6,5.5c-1.5,0.4-2.9,0.9-4.1,1.7l-4.3-3.5l-4.5,4.5l3.5,4.3c-0.8,1.3-1.3,2.7-1.7,4.1l-5.5,0.6v6.3l5.5,0.6
				c0.4,1.5,1,2.9,1.7,4.1l-3.4,4.3l4.5,4.5l4.3-3.4c1.3,0.8,2.7,1.3,4.1,1.7l0.6,5.5h6.3l0.6-5.5c1.5-0.4,2.9-1,4.1-1.7l4.3,3.4
				l4.5-4.5l-3.4-4.3c0.8-1.3,1.3-2.7,1.7-4.1L373,165.1z M352.6,168.9c-3.8,0-6.9-3.1-6.9-6.9s3.1-6.9,6.9-6.9s6.9,3.1,6.9,6.9
				S356.3,168.9,352.6,168.9z"/>
			<path class="st39" d="M345.9,160.9c1,0.1,2.1,0.2,3.1,0.3c10.7,1.1,30.2,5.3,39.7,10.4c15.2,8.2,18.2,30.9,0.2,41.2"/>
			<path class="st40" d="M281,184.7v-3.5l-3.1-0.3c-0.2-0.8-0.5-1.6-1-2.3l1.9-2.4l-2.5-2.5h-0.7l-1.7,1.9c-0.7-0.4-1.5-0.7-2.3-1
				l-0.3-3.1h-3.5l-0.3,3.1c-0.8,0.2-1.6,0.5-2.3,1l-2.4-1.9h-0.7l-1.8,2.5l1.9,2.4c-0.4,0.7-0.7,1.5-1,2.3l-3.1,0.3v3.5l3.1,0.3
				c0.2,0.8,0.5,1.6,1,2.3l-1.9,2.4l1.8,2.5h0.7l2.4-1.9c0.7,0.4,1.5,0.8,2.3,1l0.3,3.1h3.5l0.3-3.1c0.8-0.2,1.6-0.5,2.3-1l1.7,1.9
				h0.7l2.5-2.5l-1.9-2.4c0.4-0.7,0.7-1.5,1-2.3L281,184.7z M269.6,186.8c-2.1,0-3.8-1.7-3.8-3.8s1.7-3.8,3.8-3.8s3.8,1.7,3.8,3.8
				S271.8,186.8,269.6,186.8z"/>
			<path class="st41" d="M280.4,184.7v-3.5l-3.1-0.3c-0.2-0.8-0.5-1.6-1-2.3l1.9-2.4l-2.5-2.5l-2.4,1.9c-0.7-0.4-1.5-0.7-2.3-1
				l-0.3-3.1h-3.5l-0.3,3.1c-0.8,0.2-1.6,0.5-2.3,1l-2.4-1.9l-2.5,2.5l1.9,2.4c-0.4,0.7-0.7,1.5-1,2.3l-3.1,0.3v3.5l3.1,0.3
				c0.2,0.8,0.5,1.6,1,2.3l-1.9,2.4l2.5,2.5l2.4-1.9c0.7,0.4,1.5,0.8,2.3,1l0.3,3.1h3.5l0.3-3.1c0.8-0.2,1.6-0.5,2.3-1l2.4,1.9
				l2.5-2.5l-1.9-2.4c0.4-0.7,0.7-1.5,1-2.3L280.4,184.7z M269,186.8c-2.1,0-3.8-1.7-3.8-3.8s1.7-3.8,3.8-3.8c2.1,0,3.8,1.7,3.8,3.8
				S271.1,186.8,269,186.8z"/>
			<path class="st39" d="M176.9,168c3.1,2.7,6.3,5.3,9.7,7.6c21.5,14.9,50,19.1,74.8,11c3.8-1.3,7.6-2.8,11.2-4.6"/>
		</g>
		<g>
			<circle class="st42" cx="410.7" cy="162.3" r="5.7"/>
			<path class="st42" d="M376.9,114.8c0,1.3-1,2.3-2.3,2.3s-2.3-1-2.3-2.3s1-2.3,2.3-2.3S376.9,113.5,376.9,114.8z"/>
			<path class="st42" d="M452.1,214.7c0,1.4-1.1,2.5-2.5,2.5s-2.5-1.1-2.5-2.5s1.1-2.5,2.5-2.5S452.1,213.3,452.1,214.7z"/>
			<circle class="st42" cx="318.6" cy="210.7" r="2.7"/>
			<path class="st42" d="M427.6,136.4c0,0.6-0.5,1.1-1.1,1.1s-1.1-0.5-1.1-1.1s0.5-1.1,1.1-1.1C427.1,135.3,427.6,135.8,427.6,136.4
				z"/>
			<path class="st42" d="M423.9,368.7c0,2-1.6,3.6-3.6,3.6s-3.6-1.6-3.6-3.6s1.6-3.6,3.6-3.6S423.9,366.7,423.9,368.7z"/>
			<path class="st42" d="M402.1,279.8c0,2.5-2,4.5-4.5,4.5s-4.5-2-4.5-4.5s2-4.5,4.5-4.5S402.1,277.3,402.1,279.8z"/>
			<path class="st42" d="M455.2,276.8c0,0.9-0.8,1.7-1.7,1.7s-1.7-0.8-1.7-1.7c0-0.9,0.8-1.7,1.7-1.7S455.2,275.8,455.2,276.8z"/>
			<circle class="st42" cx="215.8" cy="226.2" r="2.4"/>
			<path class="st42" d="M233.5,154.1c0,1.3-1.1,2.4-2.4,2.4c-1.3,0-2.4-1.1-2.4-2.4c0-1.3,1.1-2.4,2.4-2.4
				C232.4,151.7,233.5,152.8,233.5,154.1z"/>
			<path class="st42" d="M155.5,96.2c0,2.5-2,4.5-4.5,4.5s-4.5-2-4.5-4.5s2-4.5,4.5-4.5S155.5,93.7,155.5,96.2z"/>
			<circle class="st42" cx="128.3" cy="198.2" r="2.4"/>
			<circle class="st42" cx="67" cy="230" r="3.2"/>
			<path class="st42" d="M118,263.4c0,1.1-0.9,1.9-1.9,1.9c-1.1,0-1.9-0.9-1.9-1.9s0.9-1.9,1.9-1.9C117.1,261.4,118,262.3,118,263.4
				z"/>
			<path class="st42" d="M116.7,307.4c0,1.1-0.9,1.9-1.9,1.9c-1.1,0-1.9-0.9-1.9-1.9c0-1.1,0.9-1.9,1.9-1.9
				C115.8,305.5,116.7,306.4,116.7,307.4z"/>
			<circle class="st42" cx="48" cy="363.8" r="3.2"/>
			<path class="st42" d="M119.3,393.4c0,3.2-2.6,5.8-5.8,5.8c-3.2,0-5.8-2.6-5.8-5.8c0-3.2,2.6-5.8,5.8-5.8
				C116.7,387.6,119.3,390.2,119.3,393.4z"/>
			<circle class="st42" cx="215.6" cy="345.2" r="1.7"/>
			<circle class="st42" cx="315.5" cy="306.1" r="1.7"/>
			<circle class="st42" cx="310.8" cy="390.6" r="2.6"/>
			<circle class="st42" cx="94.6" cy="119.7" r="1.6"/>
		</g>
		<g>
			<g>
				<path class="st43" d="M288.4,105.2c0-14.4-12.2-26-26.8-24.9c-12.3,0.8-22.3,10.8-23.2,23.1c-0.5,7,1.9,13.4,6,18.2
					c4.1,4.8,6.2,11,6.2,17.3v1.1h25v-1c0-6.4,2.5-12.5,6.7-17.4C286.2,117.1,288.4,111.4,288.4,105.2z"/>
				<g>
					<path class="st0" d="M263.6,84.2c2.8-0.4,5.8,0.2,8.4,1.4c2.7,1.2,5.1,2.9,7,5.1c2,2.1,3.5,4.7,4.4,7.5s1.1,5.7,0.5,8.5
						c-0.5-2.8-1.2-5.4-2.4-7.8c-1.2-2.4-2.7-4.5-4.4-6.5c-1.8-1.9-3.8-3.6-6.1-5C268.8,85.9,266.3,84.8,263.6,84.2z"/>
				</g>
				<path class="st44" d="M259.3,141.3c0,0,0-9.1-0.2-14.2c-0.2-6.5-0.1-10.5-1.5-13.8c-1.2-2.9-2.9-3.6-4.2-2s-0.1,5.7,3.3,6.9
					c2.9,1,7.2,1.3,10.9,0.4c2.5-0.6,4.2-1.5,5.6-2.9c1.8-1.8,1.5-4.7,0.4-5.3c-1.5-0.9-3.3,0.1-4.4,3c-0.5,1.2-1.7,4-1.8,12.7
					c0,4.3-0.3,15-0.3,15"/>
				
					<linearGradient id="SVGID_7_" gradientUnits="userSpaceOnUse" x1="247.9335" y1="364.3617" x2="268.1589" y2="400.6732" gradientTransform="matrix(1 0 0 -1 0 500)">
					<stop  offset="0" style="stop-color:#E7C13C"/>
					<stop  offset="1" style="stop-color:#E7C13C;stop-opacity:0"/>
				</linearGradient>
				<path class="st45" d="M249.3,84.5c-6.1,4.2-10.3,11-10.8,18.8c-0.5,7,1.9,13.4,6,18.2c4.1,4.8,6.2,11,6.2,17.3v1.1h25v-1
					c0-6.4,2.5-12.5,6.7-17.4c1.3-1.5,2.4-3.1,3.3-4.8C255.2,128.8,243.2,103.1,249.3,84.5z"/>
				<ellipse class="st46" cx="263.1" cy="151.7" rx="11.7" ry="6.3"/>
				<g>
					<g>
						<path class="st47" d="M250.5,143.8h25.4c1.1,0,2.1-0.9,2.1-2.1s-0.9-2.1-2.1-2.1h-25.4c-1.1,0-2.1,0.9-2.1,2.1
							S249.4,143.8,250.5,143.8z"/>
						<path class="st47" d="M275.9,147.9h-25.4c-1.1,0-2.1,0.9-2.1,2.1s0.9,2.1,2.1,2.1h25.4c1.1,0,2.1-0.9,2.1-2.1
							S277.1,147.9,275.9,147.9z"/>
					</g>
					<path class="st46" d="M275.9,143.8h-25.4c-1.1,0-2.1,0.9-2.1,2.1s0.9,2.1,2.1,2.1h25.4c1.1,0,2.1-0.9,2.1-2.1
						S277.1,143.8,275.9,143.8z"/>
				</g>
			</g>
			<g>
				<polygon class="st48" points="259.2,73.4 254.3,45.5 262,46.2 				"/>
				<polygon class="st48" points="271.7,73.9 277.8,55.5 280.7,58.6 				"/>
				<polygon class="st48" points="290,83.3 315.5,62.8 316.4,71.4 				"/>
				<polygon class="st48" points="239.7,82.7 225.5,63.8 220.5,69 				"/>
				<polygon class="st48" points="231,102.1 199.4,90.9 198.6,101.2 				"/>
				<polygon class="st48" points="299.3,103.5 316.9,101.6 316.7,105.3 				"/>
			</g>
		</g>
	</g>
</g>
<g id="DESIGNED_BY_FREEPIK">
</g>
</svg>
