<?xml version="1.0" encoding="utf-8"?>
<!-- Generator: Adobe Illustrator 25.2.1, SVG Export Plug-In . SVG Version: 6.00 Build 0)  -->
<svg version="1.1" id="Layer_1" xmlns="http://www.w3.org/2000/svg" xmlns:xlink="http://www.w3.org/1999/xlink" x="0px" y="0px"
	 width="1000px" height="1000px" viewBox="0 0 1000 1000" style="enable-background:new 0 0 1000 1000;" xml:space="preserve">
<style type="text/css">
	.st0{fill:#00937E;}
	.st1{fill:#DDEDEE;}
	.st2{fill:none;stroke:#DDEDEE;stroke-width:3;stroke-miterlimit:10;}
	.st3{fill:#412308;}
	.st4{fill:#E5AC2F;}
	.st5{fill:#0E1920;}
	.st6{fill:#345C68;}
	.st7{fill:#3E6E7D;}
	.st8{fill:#F1CC30;}
	.st9{fill:#EBC280;}
	.st10{fill:#DAA05E;}
	.st11{fill:url(#SVGID_1_);}
	.st12{fill:#643619;}
	.st13{fill:#994D1D;}
	.st14{fill:#254148;}
	.st15{fill:#ECC78E;}
	.st16{fill:#91B242;}
	.st17{fill:#BFCD3C;}
	.st18{fill:#DBBDA6;}
	.st19{fill:#BF9C80;}
	.st20{fill:#381C14;}
	.st21{fill:#926053;}
	.st22{fill:url(#SVGID_2_);}
	.st23{fill:#5E443D;}
	.st24{fill:none;stroke:#452F20;stroke-width:0.6145;stroke-miterlimit:10;}
	.st25{fill:url(#SVGID_3_);}
	.st26{fill:#1F3649;}
	.st27{fill:#274658;}
	.st28{fill:#5699B4;}
	.st29{fill:#79BDD2;}
	.st30{fill:#F1CA8E;}
	.st31{fill:#E5B381;}
	.st32{fill:url(#SVGID_4_);}
	.st33{fill:#A56052;}
	.st34{fill:url(#SVGID_5_);}
	.st35{fill:url(#SVGID_6_);}
	.st36{fill:#E9A29D;}
	.st37{fill:#EBC086;}
	.st38{fill:#C48D54;}
	.st39{fill:none;stroke:#345A6E;stroke-width:1.5;stroke-miterlimit:10;stroke-dasharray:5.1369;}
	.st40{fill:#365E6B;}
	.st41{fill:#F1DA3D;}
	.st42{fill:none;stroke:#345A6E;stroke-width:1.0274;stroke-miterlimit:10;}
	.st43{fill:#FFFFFF;}
	.st44{fill:none;stroke:#919CA2;stroke-width:0.8566;stroke-linecap:round;stroke-miterlimit:10;}
	.st45{fill:url(#SVGID_7_);}
	.st46{fill:#8F8F8F;}
	.st47{fill:#BEBEBE;}
	.st48{fill:#1C2828;}
</style>
<g>
	<g id="BACKGROUND">
		<rect class="st0" width="1000" height="1000"/>
	</g>
	<g>
		<path class="st1" d="M550,739.1c-82.8,13.6-150.5,11.4-227-6.2c-87.9-20.4-182.1-91.6-177.9-197c4.3-105.4,58.6-133.7,98.8-136.9
			c30.1-2.4,59.7,8.2,88.5,17.6c74.6,24.5,127.1,35.6,205,28.4c120.4-11.1,186.9-74.9,251.8-41c56,29.3,84.6,116.1,26.6,195.3
			C752.3,685.7,661.1,720.7,550,739.1z"/>
	</g>
	<path class="st2" d="M558.9,735.7c-82,18.2-149.8,19.9-227,6.3c-88.8-15.5-186.7-81.4-188.3-186.8s51.1-136.6,91.4-142.1
		c30-4.1,60,4.9,89.2,12.8c75.7,20.2,128.8,28.4,206.3,17c119.7-17.6,182.6-85,249.2-54.8c57.4,26.2,90.7,111.2,37.1,193.4
		C758.2,671.3,669,711.4,558.9,735.7z"/>
	<g>
		<path class="st1" d="M731.6,338.6H872c0,0-6.2-24-26-11.8c-9.3-33-43.1-25.5-50.8-5.4c-4.8-14.3-19.8-5.4-18.6,3
			C761.7,309.2,737,320.2,731.6,338.6z"/>
		<path class="st1" d="M388.8,198.6h-68.5c0,0,3.1-11.8,12.8-5.8c4.5-16.1,21-12.4,24.8-2.6c2.4-7,9.6-2.6,9,1.5
			C374,184.1,386.2,189.6,388.8,198.6z"/>
		<path class="st1" d="M150,299.3c0,0,109.7,0,132.1,0c0-15.7-26.4-31.1-49.7-13.3c-0.9-34.6-50.8-31.1-54.1,3.9
			C154.8,280.9,150,299.3,150,299.3z"/>
	</g>
	<g>
		<path class="st3" d="M675.7,356.3c-7.2,3.9-8.1,16.5-5.7,25.9c2.4,9.4,19.4,42.9,10.2,63.5c22.7-0.4,31.7-14.4,31.7-14.4
			s4.5-27.9-1.5-39.7C704.3,379.6,675.7,356.3,675.7,356.3z"/>
		<path class="st4" d="M703.5,452c-4.6-0.7-7.4-1.3-16.6,11.1c-9.5,12.8-13.1,20.6-21.2,31.8c-8.1,11.2-5.4,16.9,1.2,19.4
			c11.4,4.6,25.3,4.6,25.3,4.6l-7.8-18.4L703.5,452z"/>
		<path class="st5" d="M701.6,782.5l2.6,15.9h-36.7c0,0,0-2.4,3.1-3.6c3.1-1.2,18.8-3.9,22.6-6c3.7-2.1,3.3-5.8,3.3-5.8L701.6,782.5
			z"/>
		<path class="st5" d="M762.6,789.3l2.6,15.9h-36.7c0,0,0-2.4,3.1-3.6c3.1-1.2,18.8-3.9,22.6-6c3.7-2.1,3.3-5.8,3.3-5.8L762.6,789.3
			z"/>
		<path class="st6" d="M676,561c-1.9,12.8,6.9,91.8,10.7,135c3.8,43.3,8.3,89.3,8.3,89.3l7.4-1.3c0,0,14.2-97,13.8-120.2
			c-0.2-23-19.4-98.1-19.4-98.1L676,561z"/>
		<path class="st7" d="M681.6,564.8c0.7,8.8,24.2,82.2,41.7,131.3c17.6,49.2,32.1,95.3,32.1,95.3h11.1c0,0-15.9-125-20-152.4
			c-4.3-27.4-2.1-57.5-12.4-81.1C722.2,548.3,681.6,564.8,681.6,564.8z"/>
		<path class="st8" d="M705.4,447.2c-2.9,0.9-6.1,5.8-14.2,15.5c-6.1,7.3-17.6,17.6-17,23.6c0.5,5.8,5.4,11.1,9.6,11.8
			c-1.9,11.8-8.7,48.7-12,63.3c7.9,13.1,53.4,9.9,64.7-4.9c-3.7-8.2-7.6-41-6.4-56.4c1.1-15.3-0.2-33.5-3.1-43.3
			C723.8,447.6,712.6,445.2,705.4,447.2z"/>
		<path class="st4" d="M720,456.2c2.1-3.4,5.2-4.3,7.8-3.6c3.5,0.9,7,6.2,6.7,19.9c-0.2,7.3-6.4,50.6-11.1,54.8
			c-6.1,5.8-18.8-3.9-15.7-11.2c2.9-7.3,5.9-15,7.8-25.5C717.6,478.1,717.8,460.1,720,456.2z"/>
		<path class="st9" d="M680.9,499.2c-7-1.3-12,2.2-9.3,5.1C675.5,503.8,680.9,499.2,680.9,499.2z"/>
		<path class="st4" d="M716.9,508c-4.6-2.4-14.4-5.8-35.5-9c-5.9,0.2-10.3,5.4-10.3,5.4s25,17.7,34,22.7c8.8,4.9,16.2,5.6,19.6-1.2
			C727.9,519.3,716.9,508,716.9,508z"/>
		<path class="st9" d="M706.7,504.6c7.9-3.7,19.4-1.9,23.5,7.5c3.7,8.2-0.2,14.8-4.5,9c-3.8-5.3-5.2-10.1-11.2-12.8
			C712.1,506.7,706.7,504.6,706.7,504.6z"/>
		<path class="st10" d="M699.3,454.5c-2.8,3.4-5.4,8-1.5,9.4c3.8,1.3,14.4-4.9,17.4-12.1c3.1-7.3-2.2-29-2.2-29l-9.5,0.2
			c0,0,0.5,16.5,0.5,21.5C704.1,447.2,702.8,450.2,699.3,454.5z"/>
		<g>
			<path class="st9" d="M721.3,430.5c0,0-36.7,15-44.3,6.3c-1.2-1.5-2.1-3.2-3.5-7.8c-0.4-1.3-1.9-6.8-2.2-8.2
				c-2.9-13.1-4.5-30-1.1-41.2c5.5-18.5,21.9-32.7,39.5-25.9C727.2,360.5,766.6,375.1,721.3,430.5z"/>
			<path class="st9" d="M677.5,396.5L677.5,396.5l-0.7-2.4c-5,5.4-10.7,9.2-16.1,13.1c10.5,10.9,21.6,1.7,19.4-11.2
				C679,395.8,678.1,396.3,677.5,396.5C676.8,396.8,676.9,396.6,677.5,396.5z"/>
			<g>
				
					<linearGradient id="SVGID_1_" gradientUnits="userSpaceOnUse" x1="-2392.835" y1="-1220.3622" x2="-2389.9783" y2="-1230.0542" gradientTransform="matrix(-0.9934 0.1149 -0.1149 -0.9934 -1839.1205 -547.4734)">
					<stop  offset="0" style="stop-color:#DA9C68"/>
					<stop  offset="1" style="stop-color:#DA9C68;stop-opacity:0"/>
				</linearGradient>
				<path class="st11" d="M673.8,388.8c-3.7,5.6-4.8,11.1,2.9,12.8c7.9,1.9,6.4-9,6.4-9S677.3,389.7,673.8,388.8z"/>
				<path class="st12" d="M671.9,397.2c0,0.5,0.5,1.2,1.2,0.9c0.5,0,1.1-0.5,0.9-1.3c0-0.5-0.5-1.2-1.2-0.9
					C672.3,396.1,671.8,396.6,671.9,397.2z"/>
				<path class="st13" d="M676,389.2c8.5,2.6,8.8,4.5,4.8,3.4C675.1,390.8,670.2,387.3,676,389.2z"/>
			</g>
			<g>
				<path class="st13" d="M681,423.9c1.9-0.2,3.3-1.2,4.8-2.2c0.7-0.5,1.2-1.2,2.1-1.7c0.5-0.5,1.1-1.3,1.7-2.1
					c-0.2,0.9-0.5,1.9-1.1,2.6c-0.5,0.7-1.2,1.5-2.1,2.1c-0.7,0.5-1.7,1.2-2.6,1.3C683,424.1,681.9,424.4,681,423.9z"/>
			</g>
		</g>
	</g>
	<g>
		<path class="st14" d="M308.8,797.9c0,0-5.5,11.4-2.8,12.6c2.9,1.2,16.1,1.2,14.6-2.2c-1.5-3.4-7-10.1-7-10.1L308.8,797.9z"/>
		<path class="st14" d="M350,796.7c-3.7,5.3-8.5,12.9-3.3,13.3c5.2,0.4,34.9,0,38.4,0c0.2-2.8-2.1-2.8-23.8-6
			c-2.9-0.4-2.1-6.2-2.1-6.2L350,796.7z"/>
		<path class="st6" d="M397.3,688.4c-2.9-15.5-13.8-73-19.4-102.6c-8.8,18.5-31.4,24.3-44.3,30c10.9,29.4,26,69.5,29.5,80.2
			c1.1,3.6,1.7,7,0,12.4c-1.7,5.4-17.7,89.7-17.7,89.7l17.9,3.9c0,0,30.9-82.6,33.4-91.1C399.5,702.2,398.4,694.5,397.3,688.4z"/>
		<path class="st7" d="M378.4,570.4c-1.1,0.2-64.3,7.3-74.6,8c-2.1-0.2-3.7-0.4-4.8-0.5l5,223.4l15.5-1.9c0,0,15.2-156.9,18.3-185
			c0.2,0,35.7-7.3,40.3-28.6C378.8,581.1,379,575.8,378.4,570.4z"/>
		<path class="st15" d="M429.6,479.8c0.5-0.9-0.7-16.1-0.7-16.1l4.5-11.1l6.7-8l2.1,0.4l-4.5,8.2l-2.2,6.2l6.7-9.5l8.1-12.9l2.2,1.3
			l-7.8,16.1l10.2-14.3l0.9,0.9l-7.6,14.8l8.7-9.2l0.7,1.9l-6.9,9.9l4.5-5.3l0.4,1.5l-9.6,12.4l-12.9,14.6L429.6,479.8z"/>
		<path class="st16" d="M343,448.1c15.9,2.4,28.6,8.8,36,23.2c6.4,12.9,15.5,33.7,16.6,35.9c1.1,2.4,3.3,1.9,5.7-0.5
			c2.2-2.6,26.6-35.9,26.6-35.9s5.7,1.9,8.5,7.1c-9.6,22.7-24.3,52.8-26.9,56.7c-2.6,3.9-9.5,4.3-13.1,2.1
			c-3.5-2.1-28.4-19.6-28.4-19.6S345,457.5,343,448.1z"/>
		<path class="st17" d="M324,447.6c-15.3,2.4-28.8,9.4-28.8,32c0,11.6,1.7,104.9,1.7,104.9s58.9,8.7,81.4-10.7
			c-2.2-32.4-9.6-83.9-12.2-97.7C362.2,456.6,350.5,443.3,324,447.6z"/>
		<path class="st15" d="M289.4,595.9c0.2,1.2,11.9,13.5,11.9,13.5l3.7,12.8l-0.2,11.8l-2.1,1.2l-1.7-10.3l-2.2-7l0.7,13.1l1.9,17
			l-2.8,0.4l-4.3-19.6l0.7,19.6l-1.5-0.2l-3.7-18.4l-1.2,14.3l-2.1-1.2l-0.9-13.5l-0.4,7.7l-1.5-1.2v-17.6l1.2-22.1L289.4,595.9z"/>
		<g>
			<path class="st18" d="M340.5,445.5c0,0,0.2,7,0.2,8.2c0.2,1.3-16.1,4.3-17.2-3.4c-0.4-2.8-0.4-7.1-0.4-7.1
				C330.5,446.1,337.4,445.7,340.5,445.5z"/>
			<path class="st19" d="M323.2,443.5l-0.2-8.2l17.2-0.4l0.4,10.9C337.4,445.7,330.5,446.1,323.2,443.5z"/>
		</g>
		<g>
			<path class="st20" d="M357.6,434.3c0,0,17.2-19.3,17.7-45.7c0.4-28.6-16.6-40.8-38.3-41c-23.6-0.4-34.5,7.5-42.1,22.8
				c-6.7,13.8-4.5,28.1,0.9,41C304.2,431.2,322.7,435,357.6,434.3z"/>
			<path class="st18" d="M371.2,390.8c0,24.7,2.4,33-1.5,40c-3.7,6.8-14.6,16.1-40,9.5c-18.3-4.6-22.9-18.9-22.9-18.9
				s-2.4,1.5-5.5,1.2c-2.6-0.4-6.1-3-5.7-7.7c0.4-6.5,3.5-8.4,5.9-9.2c4.5-1.3,7.4,3,7.4,3s0-9.4,1.1-16.3c1.1-7,2.2-14.3,34.3-16.1
				c7.9-0.5,18.8-0.7,23.1,1.3C371,379.8,371.2,384.3,371.2,390.8z"/>
			<g>
				<g>
					<path class="st21" d="M351.3,409.8c1.1-0.5,2.2-1.2,3.5-1.2c1.2-0.2,2.6,0,3.7,0.9c0.5,0.5,0.9,1.3,0.7,2.1
						c0,0.4-0.2,0.5-0.4,0.9c-0.2,0.2-0.4,0.5-0.5,0.7c-0.9,0.9-2.1,1.5-3.1,2.1c0.9-0.7,2.1-1.5,2.8-2.4c0.7-0.9,1.1-2.2,0.2-2.8
						c-0.7-0.7-2.1-0.9-3.1-0.9C353.7,409.2,352.4,409.4,351.3,409.8z"/>
				</g>
			</g>
			<g>
				<path class="st21" d="M336,426.3c-0.2,1.5,0.7,2.8,1.7,3.6c0.9,0.9,2.2,1.5,3.5,1.7c1.2,0.2,2.8,0.2,4.1,0
					c0.7,0,1.2-0.2,2.1-0.4c0.7-0.2,1.2-0.4,2.1-0.5c-0.5,0.4-1.2,0.5-1.9,0.9c-0.7,0.2-1.2,0.5-2.1,0.7c-1.5,0.4-2.9,0.4-4.5,0.2
					c-1.5-0.2-2.9-0.9-3.8-2.1C336.2,429.2,335.5,427.7,336,426.3z"/>
			</g>
			<g>
				
					<linearGradient id="SVGID_2_" gradientUnits="userSpaceOnUse" x1="1261.876" y1="-306.3356" x2="1257.8147" y2="-315.7611" gradientTransform="matrix(-0.9915 -0.13 0.13 -0.9915 1632.0964 256.8271)">
					<stop  offset="0" style="stop-color:#B88F6C"/>
					<stop  offset="1" style="stop-color:#B88F6C;stop-opacity:0"/>
				</linearGradient>
				<path class="st22" d="M347.8,395.1c0.7,3,3.5,11.4-4.6,13.1c-8.1,1.7-7.4-8.7-7.4-8.7S344.1,395.8,347.8,395.1z"/>
				<path class="st23" d="M346,394.8c-9.5,1.9-14,6.3-8.1,5.4C343.9,399.4,352.2,393.4,346,394.8z"/>
				<path class="st24" d="M347.4,407.9c-1.5-3.4-5-2.8-6.1,0.7"/>
			</g>
			<g>
				
					<linearGradient id="SVGID_3_" gradientUnits="userSpaceOnUse" x1="1240.5593" y1="-303.9498" x2="1242.092" y2="-313.6831" gradientTransform="matrix(-0.9915 -0.13 0.13 -0.9915 1632.0964 256.8271)">
					<stop  offset="0" style="stop-color:#B88F6C"/>
					<stop  offset="1" style="stop-color:#B88F6C;stop-opacity:0"/>
				</linearGradient>
				<path class="st25" d="M357.8,394.8c-0.7,2.2-3.5,10.3,2.8,12.4c6.2,1.9,6.4-8.7,6.4-8.7S360.7,395.7,357.8,394.8z"/>
				<path class="st23" d="M359.4,394.6c7,1.3,11.2,5.8,4.8,4.1C357.9,397.2,355.7,393.8,359.4,394.6z"/>
				<path class="st24" d="M362.9,406.7c-1.1-4.1-5.4-3.6-5.9-0.4"/>
			</g>
			<path class="st20" d="M308.6,379.3c3.5,3.6,6.9,5.1,22.6,5.6c22.6,0.9,37.7-4.5,38.8-5.6l-5.2-12.9c-4.1-1.5-16.1-5.3-30.3-0.9
				C319,370.1,311,375.9,308.6,379.3z"/>
		</g>
	</g>
	<g>
		<g>
			<path class="st5" d="M506.9,793.1c-2.2,3.9-10.3,12.9-1.5,13.5c8.8,0.5,16.1,0.5,13.1-4.5c-2.8-5.1-5-8.8-5-8.8L506.9,793.1z"/>
			<path class="st5" d="M543.4,787.2l-2.6,15.9h36.7c0,0,0-2.4-3.1-3.6c-3.1-1.2-18.8-3.9-22.6-6c-3.7-2.1-3.3-5.8-3.3-5.8
				L543.4,787.2z"/>
			<path class="st26" d="M574.1,580.1c1.1,14.8-2.1,70.6-6.7,107.3c-4.6,36.7-17.2,101.8-17.2,101.8l-8.1-1.3
				c0,0-2.8-108.3-4.1-132.5c-1.2-24.2,4.6-55.2,4.6-55.2L574.1,580.1z"/>
			<path class="st27" d="M575.2,575.1c-0.2,5.8-1.7,33.5-26.9,38c-35.3,6.3-49.5-16.7-46.9-34.1
				C539.9,585.9,575.2,575.1,575.2,575.1z"/>
			<path class="st27" d="M552.1,606.9c-2.1,7.8-15.9,70.6-23.5,106.8c-7.4,36.3-11.6,78.7-11.6,78.7s-4.8,5.4-14,0
				c-0.2-22.8-3.1-180.5-0.5-206.5C519.6,607.7,552.1,606.9,552.1,606.9z"/>
			<path class="st28" d="M549.9,455.4c10.2,0.9,17.4,6.3,22.4,15.2c6.1,11.1,10.2,23.2,12.4,29.6c3.7,10.5-0.5,29.4-11.6,21.9
				C568.9,519.3,551.2,464.1,549.9,455.4z"/>
			<path class="st29" d="M530.1,452.7c-17.9,2.4-27.9,14.4-31.2,31.5c-3.3,17-1.1,81.4,0.9,96.6c20,6.8,58.9,6.8,76.3-2.4
				c-0.5-23.4-3.3-73.4-5.2-91.9C569.3,467.6,555.7,449.3,530.1,452.7z"/>
			<g>
				<path class="st30" d="M491,520.6c6.1,0.9,8.5,14.4,9.8,21.5l1.1,54l-10-0.5c0,0-8.1-41.7-8.7-53
					C482.8,531.5,486,519.8,491,520.6z"/>
				<path class="st30" d="M489.8,500.4c0,0-4.6,24-5.7,30.5c-1.1,6.5,4.1,12.8,9,14c5,1.3,6.7,1.2,7.4-2.6
					c0.7-3.7,8.5-36.5,8.5-36.5L489.8,500.4z"/>
				<path class="st30" d="M498.1,587c0,0.9,7.2,14.8,7.2,14.8l2.9,13.3l-1.7,1.9l-5.9-11.8l-0.5,10.1l-1.7,14.4h-2.6l-0.4-16.9
					l-1.5,15.5l-1.2-0.4l-1.2-14.8l0.9,13.5l-1.7-1.2l-2.4-12.9l1.1,11.1l-1.7-1.3l-2.4-12.4l6.9-23.2L498.1,587z"/>
			</g>
			<path class="st28" d="M517.4,462.4c-8.8-7-22.2,0.2-32.3,37.3c13.3,7.7,28.6,7.8,28.6,7.8S527.9,470.6,517.4,462.4z"/>
			<path class="st30" d="M583.8,526.2c-8.1,1.3-12.8-10.7-8.8-20.8s7.9-28.6,8.5-44.4c0.2-3.6,7.2-3.6,7,1.7
				c-0.2,5.3,0.2,21.3,0.9,41.9C591.6,515.5,589.6,525.2,583.8,526.2z"/>
			<path class="st31" d="M546.7,437.7c-0.2,11.1-0.4,15.3,0.2,18.9c0.5,5.3,5.4,13.6,0.9,16.1c-4.5,2.5-15.7-7.8-18.6-14.4
				c-1.5-3.4-1.2-3.9-1.5-6.3c-0.2-4.6-0.4-15.7-0.4-15.7L546.7,437.7z"/>
			<g>
				<path class="st13" d="M500.4,397.7c-0.7,0.9-0.9,16.1,6.9,28.3c7.6,12.1,23.8,14.4,24.5,13.1C532.7,438,523.6,366.3,500.4,397.7
					z"/>
				<path class="st30" d="M571.1,416.3c-2.1,23.6-15.5,34.4-30.9,34.4c-20.9,0-33.8-27.1-34-49.2c-0.2-22.1-6.1-38,28.1-38.5
					C572.1,362.4,574.5,376,571.1,416.3z"/>
				<path class="st30" d="M562.4,405.8c0.5,5.8,2.6,9.4,6.9,9c4.3-0.4,10.7-6,10.2-11.8c-0.5-5.8-4.5-10.1-8.7-9.7
					C566.7,393.6,562.1,400,562.4,405.8z"/>
				<path class="st13" d="M573,404.9c3.5-9.9,2.4-24,2.2-31.7c-0.5-18-11.1-21.1-19-23.2c1.5,0,0.4-0.9,1.9-0.9
					c-5.4-4.6-20.7-7.3-26.4-3.7c-9.8,1.7-15.9,3.9-21.8,9.2c-12.6,10.9-12.8,26-7.9,50.7c1.1,0.4,6.4,4.6,7.8,4.5
					c-3.1-9.9-2.6-30.3,7.6-35.8c5-2.6,11.1-0.9,16.2-0.4c3.8,0.4,15.5,0,23.5-1.2c4.5-0.7,7.6,0,8.7,1.2c5,5.8,7.6,13.3,6.2,27.1
					C572.1,402.6,572.2,404.1,573,404.9z"/>
				<path class="st30" d="M513.1,405c2.2,5.4,2.2,9.5-1.2,10.9c-3.5,1.5-11.2-0.7-13.5-6.2s-1.1-10.9,2.4-12.4
					C504.5,396.1,510.9,399.6,513.1,405z"/>
				<g>
					
						<linearGradient id="SVGID_4_" gradientUnits="userSpaceOnUse" x1="731.0993" y1="861.4057" x2="722.6919" y2="856.1796" gradientTransform="matrix(0.9679 0.2513 0.2513 -0.9679 -374.644 1060.4886)">
						<stop  offset="0" style="stop-color:#D38278"/>
						<stop  offset="1" style="stop-color:#EEB9AD;stop-opacity:0"/>
					</linearGradient>
					<path class="st32" d="M539.2,407.9c5.2-1.2,9.6-0.2,10.7,3.7c0.9,3.9-4.3,6.3-8.7,7C536.7,419.1,535.1,408.8,539.2,407.9z"/>
					<g>
						<path class="st33" d="M536.9,408.6c2.1-0.7,4.1-1.3,6.2-1.3c2.2,0,4.6,0.5,6.2,2.4c0.7,0.9,1.1,2.4,0.7,3.6
							c-0.4,1.2-1.1,2.1-2.1,2.8c-1.7,1.5-3.8,2.2-5.9,2.8c1.9-0.9,3.8-2.1,5.4-3.6c1.5-1.3,2.4-3.6,0.9-4.9
							c-1.2-1.5-3.3-2.1-5.4-2.2C541,407.9,539,408.2,536.9,408.6z"/>
					</g>
					<path class="st12" d="M547.3,430.2c-7.2,1.5-12,1.2-14.2-0.9C532.6,444.2,540.7,444.7,547.3,430.2z"/>
					<g>
						
							<linearGradient id="SVGID_5_" gradientUnits="userSpaceOnUse" x1="707.4158" y1="872.0986" x2="710.9489" y2="860.111" gradientTransform="matrix(0.9679 0.2513 0.2513 -0.9679 -374.644 1060.4886)">
							<stop  offset="0" style="stop-color:#DA9C68"/>
							<stop  offset="1" style="stop-color:#DA9C68;stop-opacity:0"/>
						</linearGradient>
						<path class="st34" d="M536.9,393.4c0.5,3.6,2.6,14.4-7.6,15.2c-10.2,0.9-7.8-11.6-7.8-11.6S532.3,394,536.9,393.4z"/>
						<path class="st12" d="M533.6,407.7c-0.2,0.7-0.9,1.2-1.7,0.9c-0.8-0.3-1.1-0.9-0.9-1.7c0.2-0.8,0.9-1.2,1.7-0.9
							C533.3,406.2,533.8,406.9,533.6,407.7z"/>
						<path class="st13" d="M534.7,392.9c-11.6,0.7-17.9,5.4-10.5,5.4C531.4,398.3,542.3,392.4,534.7,392.9z"/>
					</g>
					<g>
						
							<linearGradient id="SVGID_6_" gradientUnits="userSpaceOnUse" x1="2.7653" y1="689.1461" x2="6.2985" y2="677.1587" gradientTransform="matrix(-0.9679 0.2513 -0.2513 -0.9679 731.8054 1060.4886)">
							<stop  offset="0" style="stop-color:#DA9C68"/>
							<stop  offset="1" style="stop-color:#DA9C68;stop-opacity:0"/>
						</linearGradient>
						<path class="st35" d="M548.2,393.4c-0.5,3.6-2.6,14.4,7.6,15.2c10.2,0.9,7.8-11.6,7.8-11.6S552.8,394,548.2,393.4z"/>
						<path class="st12" d="M551.5,407.7c0.2,0.7,0.9,1.2,1.7,0.9c0.7-0.2,1.1-0.9,0.9-1.7c-0.2-0.7-0.9-1.2-1.7-0.9
							C551.9,406.2,551.4,406.9,551.5,407.7z"/>
						<path class="st13" d="M550.4,392.9c11.6,0.7,17.9,5.4,10.5,5.4C553.8,398.3,542.9,392.4,550.4,392.9z"/>
					</g>
					<path class="st36" d="M523.5,411.5c0,0.7-2.1,1.5-4.5,1.5c-2.4,0-4.5-0.5-4.5-1.5c0-0.7,2.1-1.5,4.5-1.5
						C521.4,409.9,523.5,410.6,523.5,411.5z"/>
					<path class="st36" d="M570.9,411.5c0,0.7-2.1,1.5-4.5,1.5c-2.4,0-4.5-0.5-4.5-1.5c0-0.7,2.1-1.5,4.5-1.5
						C568.9,409.9,570.9,410.6,570.9,411.5z"/>
				</g>
				<path class="st13" d="M524.3,370.8c1.7,3.2,12.4,15.2,25.3,13.8c-5-0.9-7.4-2.8-7.4-2.8s9.8,3,20.5-2.6c-3.5,0.4-9-0.2-9-0.2
					s9.3-2.6,10.9-7.5C542.5,367.8,524.3,370.8,524.3,370.8z"/>
			</g>
			<g>
				<path class="st37" d="M585,448.3c0.5-5.6,0.4-16.5,0.5-20.2c0.4-3.7-2.2-4.3-3.8-3.4c-1.5,0.9-1.7,5.8-1.7,11.2
					c0,4.6,0.2,13.6,0.2,13.6L585,448.3z"/>
				<path class="st30" d="M590.5,462.7c2.1-4.9,3.3-11.4,2.8-15c-0.7-6.2-6.2-7.5-10-7c-3.7,0.4-5.9,7.5-5.5,10.1
					c1.1,7,5.5,9.2,5.7,12.1C584.5,464.8,589.8,464.8,590.5,462.7z"/>
				<path class="st30" d="M589.2,439.5c-5.9-0.5-6.4,2.1-7.8,6.2c-0.9,3.4,2.8,5.1,7,5.8c3.1,0.5,4.8-1.3,4.8-1.3
					S594.4,440.1,589.2,439.5z"/>
				<g>
					<path class="st38" d="M591.2,447.2c-0.2,0.9-0.4,1.9-0.7,2.6c-0.5,0.9-1.5,1.3-2.4,1.5c-0.9,0.2-1.9,0-2.8-0.2
						c-0.9-0.2-1.9-0.4-2.6-0.9c-1.7-1.2-2.4-3.4-1.9-5.3c0.2-0.9,0.7-1.9,1.2-2.6c0.5-0.7,1.2-1.5,2.1-1.9
						c-0.7,0.5-1.2,1.3-1.9,2.1c-0.6,0.7-0.9,1.5-1.1,2.4c-0.4,1.7,0.2,3.7,1.7,4.6c0.7,0.5,1.7,0.7,2.4,0.9
						c0.9,0.2,1.9,0.4,2.6,0.2c0.9,0,1.7-0.5,2.2-1.3C590.9,449.1,591.1,448.1,591.2,447.2z"/>
				</g>
				<path class="st37" d="M582.8,452.8c-2.9,2.6-5.7,0.4-7-2.6c-1.2-3-1.7-5.3,0-6.5c1.7-1.3,8.8,0.9,8.8,3.4c0,2.4-2.1,2.6-3.8,1.7
					C583.5,451.1,582.8,452.8,582.8,452.8"/>
				<g>
					<path class="st38" d="M591.8,445.9c0.2,0.4,0,0.9-0.2,1.3c-0.2,0.2-0.4,0.4-0.5,0.4c-0.4,0-0.5-0.2-0.5-0.4c0.2,0,0.4,0,0.5,0
						c0,0,0.2-0.2,0.2-0.4c0.2-0.2,0.2-0.4,0.2-0.4C591.6,446.1,591.8,446.1,591.8,445.9z"/>
				</g>
				<g>
					<path class="st38" d="M582,453.5c0.4-0.5,0.5-1.3,0.4-1.9c-0.2-0.7-0.4-1.3-0.7-1.9c-0.7-1.2-2.1-1.9-3.1-2.4
						c1.2,0.4,2.6,1.2,3.5,2.2c0.4,0.5,0.7,1.3,0.7,2.1C582.8,452.5,582.6,453.2,582,453.5z"/>
				</g>
				<g>
					<path class="st38" d="M584,446.2c0.2,0.4,0.4,0.7,0.4,1.3c0,0.5-0.4,0.9-0.7,1.3c-0.4,0.4-0.9,0.4-1.2,0.5
						c-0.5,0-0.9,0-1.2-0.2c0.9,0,1.9,0,2.4-0.5C584.2,447.9,584.2,447,584,446.2z"/>
				</g>
			</g>
		</g>
	</g>
	<path class="st13" d="M503.7,397c1.1,9.2,3.5,15.3,6.7,20.2c0.7,0.5,2.4,1.7,2.4,1.7s-8.5-18.9,0.9-35.9
		c-2.2,5.4-0.2,10.1-0.2,10.1s1.5-9.5,6.7-14.8c2.4,3.9,14.6,4.5,14.6,4.5s-7.4-5.4-8.7-10.9c-7-4.9-16.2,0-19.2,7.3
		C504.5,385.2,502.9,390.2,503.7,397z"/>
	<path class="st13" d="M562.1,370.4c5.4,4.5,6.4,14.8,6.2,19.9c0.7-0.5,1.9-4.6,1.9-4.6s1.5,24.3,0,28.6c1.5-1.3,1.9-2.1,1.9-2.1
		s2.2-12.4,1.5-21c-0.7-8.8-3.3-16.7-5.5-18.5C565.7,370.8,562.1,370.4,562.1,370.4z"/>
	<path class="st20" d="M371.4,378.3c-0.5,3-13.1,11.1-38.1,12.4c7.9-0.7,22.2-3.7,31.9-11.2C367,377.7,371.4,378.3,371.4,378.3z"/>
	<path class="st20" d="M294.1,405.7c-1.9-3.6-4.6-12.6-4.3-16.3c-2.4,3.7-1.5,13.8-1.5,13.8s-8.7-20.6,6.7-38.2
		c-2.9,0.2-6.4,3.9-6.4,3.9s2.8-7.8,13.8-12.4c-0.4-2.8,1.7-9.2,5-11.1c-2.1,3.9-2.6,9.7-2.6,9.7s14.8-16.1,47.8-9.4
		c-8.3-0.5-12.9,0.4-12.9,0.4s26.2,0.7,37.7,19.4c-5.5-2.4-11.1-8-11.1-8s8.7,9,7.4,17.4c-9.3-8-45.8-6-54.7-3
		c-8.8,3-21.9,31.3-21.9,31.3L294.1,405.7z"/>
	<path class="st20" d="M347.4,380.1c-2.4,3.6-15.2,7.7-23.5,7.3c9,3,40.5-2.1,38.6-8C360.5,376.2,347.4,380.1,347.4,380.1z"/>
	<path class="st20" d="M309.2,393.1c-0.2,8.4,0.4,24,3.1,29.4c-5.7-2.2-9.5-18.9-9.5-19.1S309.2,393.1,309.2,393.1z"/>
	<path class="st16" d="M309,451.1c-9.3-0.2-17.6,6.8-22.9,26c-6.2,22.8-10,40.7-9.6,46c0.2,5.4,17.6,18.5,23.8,0.5
		c7.8-22.5,12.4-38.8,14.8-48.9C319,457.8,316.7,451.3,309,451.1z"/>
	<path class="st16" d="M276.5,523.4c1.7,12.1,6.1,74.4,6.9,81.6c4.8,4.9,13.8-0.7,13.8-0.7s-0.4-39,2.4-78.7
		C300.1,516.1,276.5,523.4,276.5,523.4z"/>
	<path class="st3" d="M706.1,441.6c4.3-24-3.7-45.7-3.7-45.7s1.9,15.3-0.4,19.1c2.4-15-9.6-28.8-9.6-28.8s-0.2,3.4,3.5,10.1
		c-7.2-7.1-16.1-19.1-16.1-19.1s5.5,9.9,10.7,15c-14.2-8.7-22.4-21.5-17.6-34.1c1.7-4.3,4.5-9.5,14.2-11.1
		c8.1-1.2,35.3-0.4,51.5,11.8c16.2,12.1,21.9,31.3,9,52.1c-10,15.2-13.5,16.5-13.5,16.5s2.1-2.8,2.8-4.9c-3.8,4.5-17,13.5-17,13.5
		s1.1-1.2,2.4-3.7C716.3,437,706.1,441.6,706.1,441.6z"/>
	<path class="st39" d="M541.7,308.6c36.4-18.5,65.5-51.5,79-90.6c2.9-8.7,2.6-21.5-6.2-22.7c-4.3-0.5-8.1,2.4-10.9,5.8
		c-8.8,11.4-7.4,28.6,0.9,40.7c8.1,11.8,21.8,18.9,35.7,22.5c12,3,24.3,3.9,36.7,5.1"/>
	<path class="st39" d="M272.4,374.9c-20.3,1.5-39.9-8.8-54.8-22.8c-21.2-19.9-34.9-50.6-26.9-78.8c7-24.5,30.1-42.5,54.8-47
		c25-4.5,50.8,3,72.1,16.7c17.2,11.1,31.7,25.9,47.3,39.3"/>
	<path class="st40" d="M414.7,297.9v-13.1l-11.2-1.3c-0.7-3-2.1-6-3.5-8.7l7-9l-6.4-9.2h-2.8l-8.8,7.3c-2.6-1.5-5.4-2.8-8.5-3.6
		l-1.2-11.4h-12.9l-1.2,11.4c-2.9,0.7-5.9,2.1-8.5,3.6l-6.1-7.3h-2.8l-9,9.2l7,9c-1.5,2.6-2.8,5.4-3.5,8.7l-11.2,1.3v13.1l11.2,1.3
		c0.7,3,2.1,6,3.5,8.7l-7,9l9,9.2h2.8l6.1-7.1c2.6,1.5,5.5,2.8,8.5,3.6l1.2,11.4h12.9l1.2-11.4c2.9-0.7,5.9-2.1,8.5-3.6l8.8,7.1h2.8
		l6.4-9.2l-7-9c1.5-2.6,2.8-5.6,3.5-8.7L414.7,297.9z M372.7,305.7c-7.8,0-14-6.3-14-14.3c0-7.8,6.2-14.3,14-14.3s14,6.3,14,14.3
		C386.7,299.3,380.5,305.7,372.7,305.7z"/>
	<path class="st41" d="M417.4,297.9v-13.1l-11.2-1.3c-0.7-3-2.1-6-3.5-8.7l7-9l-9-9.2l-8.8,7.3c-2.6-1.5-5.4-2.8-8.5-3.6l-1.2-11.4
		h-12.9l-1.2,11.4c-2.9,0.7-5.9,2.1-8.5,3.6l-8.8-7.3l-9,9.2l7,9c-1.5,2.6-2.8,5.4-3.5,8.7l-11.2,1.3v13.1l10.8,1.3
		c0.7,3,2.1,6,3.5,8.7l-7,9l9,9.2l8.8-7.1c2.6,1.5,5.5,2.8,8.5,3.6l1.2,11.4h12.9l1.2-11.4c2.9-0.7,5.9-2.1,8.5-3.6l8.8,7.1l9-9.2
		l-7-9c1.5-2.6,2.8-5.6,3.5-8.7L417.4,297.9z M375.5,305.7c-7.8,0-14-6.3-14-14.3c0-7.8,6.2-14.3,14-14.3c7.8,0,14,6.3,14,14.3
		C389.5,299.3,383.3,305.7,375.5,305.7z"/>
	<path class="st40" d="M724.8,277v-11.8l-10.2-1.2c-0.7-2.8-1.9-5.4-3.1-7.7l6.4-8l-5.9-8.4h-2.4l-7.9,6.5c-2.4-1.5-4.8-2.4-7.6-3.2
		l-1.1-10.3h-11.6l-1.1,10.3c-2.8,0.7-5.4,1.7-7.6,3.2l-5.5-6.5h-2.4l-8.3,8.4l6.4,8c-1.5,2.4-2.4,5.1-3.1,7.7l-10.2,1.2V277
		l10.2,1.2c0.7,2.8,1.9,5.4,3.1,7.7l-6.2,8l8.3,8.4h2.4l5.5-6.3c2.4,1.5,5,2.4,7.6,3.2l1.1,10.3h11.6l1.1-10.3
		c2.8-0.7,5.4-1.9,7.6-3.2l7.9,6.3h2.4l5.9-8.4l-6.2-8c1.5-2.4,2.4-5.1,3.1-7.7L724.8,277z M687.1,284.1c-7,0-12.8-5.8-12.8-12.9
		s5.7-12.9,12.8-12.9c7,0,12.8,5.8,12.8,12.9S694.1,284.1,687.1,284.1z"/>
	<path class="st41" d="M727.2,277v-11.8l-10.2-1.2c-0.7-2.8-1.9-5.4-3.1-7.7l6.4-8l-8.3-8.4l-7.9,6.5c-2.4-1.5-4.8-2.4-7.6-3.2
		l-1.1-10.3h-11.6l-1.1,10.3c-2.8,0.7-5.4,1.7-7.6,3.2l-7.9-6.5l-8.3,8.4l6.4,8c-1.5,2.4-2.4,5.1-3.1,7.7l-10.2,1.2V277l10.2,1.2
		c0.7,2.8,1.9,5.4,3.1,7.7l-6.2,8l8.3,8.4l7.9-6.3c2.4,1.5,5,2.4,7.6,3.2l1.1,10.3h11.6l1.1-10.3c2.8-0.7,5.4-1.9,7.6-3.2l7.9,6.3
		l8.3-8.4l-6.2-8c1.5-2.4,2.4-5.1,3.1-7.7L727.2,277z M689.5,284.1c-7,0-12.8-5.8-12.8-12.9s5.7-12.9,12.8-12.9
		c7,0,12.8,5.8,12.8,12.9S696.4,284.1,689.5,284.1z"/>
	<path class="st39" d="M677.1,269.1c1.9,0.2,3.8,0.4,5.7,0.5c19.8,2.1,55.7,9.9,73.3,19.4c28.1,15.3,33.6,57.9,0.4,77.1"/>
	<path class="st40" d="M557.3,313.7v-6.5l-5.7-0.5c-0.4-1.5-0.9-3-1.9-4.3l3.5-4.5l-4.6-4.6h-1.2l-3.1,3.6c-1.2-0.7-2.8-1.3-4.3-1.9
		l-0.5-5.8h-6.4l-0.5,5.8c-1.5,0.4-2.9,0.9-4.3,1.9l-4.5-3.6h-1.2l-3.3,4.6l3.5,4.5c-0.7,1.3-1.2,2.8-1.9,4.3l-5.7,0.5v6.5l5.7,0.5
		c0.4,1.5,0.9,3,1.9,4.3l-3.5,4.5l3.3,4.6h1.2l4.5-3.6c1.2,0.7,2.8,1.5,4.3,1.9l0.5,5.8h6.4l0.5-5.8c1.5-0.4,2.9-0.9,4.3-1.9
		l3.1,3.6h1.2l4.6-4.6l-3.5-4.5c0.7-1.3,1.2-2.8,1.9-4.3L557.3,313.7z M536.2,317.6c-3.8,0-7-3.2-7-7.1c0-3.9,3.1-7.1,7-7.1
		c3.9,0,7,3.2,7,7.1C543.3,314.4,540.3,317.6,536.2,317.6z"/>
	<path class="st41" d="M556.2,313.7v-6.5l-5.7-0.5c-0.4-1.5-0.9-3-1.9-4.3l3.5-4.5l-4.6-4.6l-4.5,3.6c-1.2-0.7-2.8-1.3-4.3-1.9
		l-0.5-5.8h-6.4l-0.5,5.6c-1.5,0.4-2.9,0.9-4.3,1.9l-4.5-3.6l-4.6,4.6l3.5,4.5c-0.7,1.3-1.2,2.8-1.9,4.3l-5.7,0.5v6.5l5.7,0.5
		c0.4,1.5,0.9,3,1.9,4.3l-3.5,4.5l4.6,4.6l4.5-3.6c1.2,0.7,2.8,1.5,4.3,1.9l0.5,5.8h6.4l0.5-5.8c1.5-0.4,2.9-0.9,4.3-1.9l4.5,3.6
		l4.6-4.6l-3.5-4.5c0.7-1.3,1.2-2.8,1.9-4.3L556.2,313.7z M535.1,317.6c-3.8,0-7-3.2-7-7.1c0-3.9,3.1-7.1,7-7.1c3.8,0,7,3.2,7,7.1
		C542.1,314.4,539,317.6,535.1,317.6z"/>
	<path class="st39" d="M365,282.4c5.7,5.1,11.6,9.9,17.9,14.3c39.7,27.9,92.4,35.8,138.1,20.6c7-2.4,14-5.3,20.7-8.7"/>
	<ellipse class="st42" cx="796.8" cy="271.8" rx="10.5" ry="10.7"/>
	<path class="st42" d="M734.4,182.8c0,2.4-1.9,4.3-4.3,4.3s-4.3-1.9-4.3-4.3s1.9-4.3,4.3-4.3C732.6,178.5,734.4,180.4,734.4,182.8z"
		/>
	<path class="st42" d="M873.3,369.9c0,2.6-2.1,4.6-4.6,4.6s-4.6-2.1-4.6-4.6c0-2.6,2.1-4.6,4.6-4.6S873.3,367.2,873.3,369.9z"/>
	<ellipse class="st42" cx="626.7" cy="362.4" rx="5" ry="5.1"/>
	<path class="st42" d="M828,223.3c0,1.2-0.9,2.1-2.1,2.1c-1.1,0-2.1-0.9-2.1-2.1s0.9-2.1,2.1-2.1C827.1,221.2,828,222.1,828,223.3z"
		/>
	<path class="st42" d="M821.2,658.2c0,3.7-2.9,6.8-6.7,6.8c-3.7,0-6.7-3-6.7-6.8c0-3.7,2.9-6.8,6.7-6.8
		C818.3,651.4,821.2,654.5,821.2,658.2z"/>
	<path class="st42" d="M780.9,491.7c0,4.6-3.7,8.4-8.3,8.4s-8.3-3.7-8.3-8.4s3.7-8.4,8.3-8.4C777.3,483.3,780.9,487.1,780.9,491.7z"
		/>
	<path class="st42" d="M879,486.1c0,1.7-1.5,3.2-3.1,3.2c-1.7,0-3.1-1.5-3.1-3.2c0-1.7,1.5-3.2,3.1-3.2
		C877.5,483,879,484.2,879,486.1z"/>
	<ellipse class="st42" cx="436.9" cy="391.4" rx="4.5" ry="4.5"/>
	<path class="st42" d="M469.5,256.4c0,2.4-2.1,4.5-4.5,4.5c-2.4,0-4.5-2.1-4.5-4.5c0-2.4,2.1-4.5,4.5-4.5
		C467.4,251.9,469.5,254,469.5,256.4z"/>
	<path class="st42" d="M325.5,148c0,4.6-3.7,8.4-8.3,8.4c-4.6,0-8.3-3.7-8.3-8.4c0-4.6,3.7-8.4,8.3-8.4
		C321.7,139.5,325.5,143.3,325.5,148z"/>
	<ellipse class="st42" cx="275.2" cy="338.9" rx="4.5" ry="4.5"/>
	<ellipse class="st42" cx="162" cy="398.5" rx="5.9" ry="6"/>
	<path class="st42" d="M256.2,461c0,2.1-1.7,3.6-3.5,3.6c-2.1,0-3.5-1.7-3.5-3.6c0-1.9,1.7-3.6,3.5-3.6
		C254.5,457.3,256.2,459,256.2,461z"/>
	<path class="st42" d="M253.8,543.4c0,2.1-1.7,3.6-3.5,3.6c-2.1,0-3.5-1.7-3.5-3.6c0-2.1,1.7-3.6,3.5-3.6
		C252.2,539.9,253.8,541.6,253.8,543.4z"/>
	<ellipse class="st42" cx="126.9" cy="649" rx="5.9" ry="6"/>
	<path class="st42" d="M258.6,704.4c0,6-4.8,10.9-10.7,10.9s-10.7-4.9-10.7-10.9c0-6,4.8-10.9,10.7-10.9S258.6,698.4,258.6,704.4z"
		/>
	<ellipse class="st42" cx="436.5" cy="614.2" rx="3.1" ry="3.2"/>
	<ellipse class="st42" cx="621" cy="541" rx="3.1" ry="3.2"/>
	<ellipse class="st42" cx="612.3" cy="699.2" rx="4.8" ry="4.9"/>
	<ellipse class="st42" cx="212.9" cy="192" rx="2.9" ry="3"/>
	<g>
		<path class="st41" d="M570.9,164.9c0-26.9-22.6-48.7-49.5-46.6c-22.7,1.5-41.2,20.2-42.9,43.3c-0.9,13.1,3.5,25.1,11.1,34.1
			c7.6,9,11.4,20.6,11.4,32.4v2.1h46.3v-1.9c0-12,4.6-23.4,12.4-32.6C566.9,187.2,570.9,176.5,570.9,164.9z"/>
		<g>
			<path class="st43" d="M525.1,125.5c5.2-0.7,10.7,0.4,15.5,2.6c5,2.2,9.5,5.4,12.9,9.5c3.7,3.9,6.4,8.8,8.1,14
				c1.7,5.2,2.1,10.7,0.9,15.9c-0.9-5.3-2.2-10.1-4.5-14.6c-2.2-4.5-5-8.4-8.1-12.1c-3.3-3.6-7-6.8-11.2-9.4
				C534.7,128.7,530.1,126.6,525.1,125.5z"/>
		</g>
		<path class="st44" d="M517.2,232.5c0,0,0-17-0.4-26.6c-0.4-12.1-0.2-19.6-2.8-25.9c-2.2-5.4-5.4-6.8-7.8-3.7
			c-2.4,3-0.2,10.7,6.1,12.9c5.4,1.9,13.3,2.4,20.2,0.7c4.6-1.2,7.8-2.8,10.3-5.4c3.3-3.4,2.8-8.8,0.7-9.9c-2.8-1.7-6.1,0.2-8.1,5.6
			c-0.9,2.2-3.1,7.5-3.3,23.8c0,8-0.5,28.1-0.5,28.1"/>
		
			<linearGradient id="SVGID_7_" gradientUnits="userSpaceOnUse" x1="495.9685" y1="880.2537" x2="533.8452" y2="948.2552" gradientTransform="matrix(1 0 0 -1 0 1102)">
			<stop  offset="0" style="stop-color:#E7C13C"/>
			<stop  offset="1" style="stop-color:#E7C13C;stop-opacity:0"/>
		</linearGradient>
		<path class="st45" d="M498.8,126.1c-11.2,7.8-19,20.6-20,35.2c-0.9,13.1,3.5,25.1,11.1,34.1c7.6,9,11.4,20.6,11.4,32.4v2.1h46.2
			v-1.9c0-12,4.6-23.4,12.4-32.6c2.4-2.8,4.5-5.8,6.1-9C509.6,209,487.4,160.9,498.8,126.1z"/>
		<ellipse class="st46" cx="524.2" cy="251.9" rx="21.6" ry="11.8"/>
		<g>
			<g>
				<path class="st47" d="M500.9,237.1h46.9c2.1,0,3.8-1.7,3.8-3.9s-1.7-3.9-3.8-3.9h-46.9c-2.1,0-3.8,1.7-3.8,3.9
					S498.9,237.1,500.9,237.1z"/>
				<path class="st47" d="M547.8,244.8h-46.9c-2.1,0-3.8,1.7-3.8,3.9s1.7,3.9,3.8,3.9h46.9c2.1,0,3.8-1.7,3.8-3.9
					C551.7,246.5,550,244.8,547.8,244.8z"/>
			</g>
			<path class="st46" d="M547.8,237.1h-46.9c-2.1,0-3.8,1.7-3.8,3.9s1.7,3.9,3.8,3.9h46.9c2.1,0,3.8-1.7,3.8-3.9
				C551.7,238.8,550,237.1,547.8,237.1z"/>
		</g>
	</g>
	<g>
		<polygon class="st48" points="517,105.3 507.9,53 522.2,54.4 		"/>
		<polygon class="st48" points="540,106.3 551.4,71.8 556.7,77.6 		"/>
		<polygon class="st48" points="573.8,123.8 621,85.5 622.6,101.5 		"/>
		<polygon class="st48" points="481,122.7 454.8,87.4 445.5,97.1 		"/>
		<polygon class="st48" points="464.9,159.1 406.5,138 405,157.4 		"/>
		<polygon class="st48" points="591.1,161.7 623.6,158.1 623.2,165 		"/>
	</g>
	<g id="DESIGNED_BY_FREEPIK">
	</g>
</g>
</svg>
