<?xml version="1.0" encoding="utf-8"?>
<!-- Generator: Adobe Illustrator 25.2.0, SVG Export Plug-In . SVG Version: 6.00 Build 0)  -->
<svg version="1.1" id="Layer_1" xmlns="http://www.w3.org/2000/svg" xmlns:xlink="http://www.w3.org/1999/xlink" x="0px" y="0px"
	 viewBox="0 0 500 500" style="enable-background:new 0 0 500 500;" xml:space="preserve">
<style type="text/css">
	.st0{fill:#F7ECDA;}
	.st1{fill:#F9BA16;}
	.st2{fill:none;stroke:#131527;stroke-width:8;stroke-miterlimit:10;}
	.st3{fill:#E83844;}
	.st4{fill:#0566B0;}
	.st5{fill:#131527;}
</style>
<rect class="st0" width="500" height="500"/>
<rect x="32.8" y="26.1" class="st1" width="124.4" height="124.4"/>
<path class="st2" d="M326.8,160.7c0,59.5-48.2,107.7-107.7,107.7s-107.7-48.2-107.7-107.7S159.6,53,219.1,53"/>
<ellipse class="st3" cx="176.6" cy="268.4" rx="33.6" ry="33.6"/>
<rect x="210.8" y="462.6" class="st4" width="289.2" height="37.5"/>
<rect x="292.2" y="394.7" class="st3" width="207.8" height="43"/>
<rect x="8.8" y="7.4" class="st5" width="48" height="48"/>
<path class="st1" d="M0,319.7v142.8c37.6-0.8,67.8-32.5,67.8-71.4C67.8,352.1,37.6,320.5,0,319.7z"/>
<line class="st2" x1="256.5" y1="207.2" x2="256.5" y2="349.9"/>
<rect x="347.1" y="326" class="st1" width="152.9" height="29.9"/>
<line class="st2" x1="210.8" y1="451.4" x2="277.6" y2="451.4"/>
<line class="st2" x1="293.4" y1="379.4" x2="360.2" y2="379.4"/>
<rect x="400.6" class="st4" width="20.1" height="98"/>
<path class="st5" d="M415.8,50.1c-0.1,1.2-1.1,2.1-2.3,2c-1.2-0.1-2.1-1.1-2-2.3s1.1-2.1,2.3-2C414.9,47.9,415.8,48.9,415.8,50.1z"
	/>
<path class="st5" d="M430.9,50.1c-0.1,1.2-1.1,2.1-2.3,2c-1.2-0.1-2.1-1.1-2-2.3s1.1-2.1,2.3-2C430.1,47.9,431,48.9,430.9,50.1z"/>
<path class="st5" d="M446,50.1c-0.1,1.2-1.1,2.1-2.3,2c-1.2-0.1-2.1-1.1-2-2.3s1.1-2.1,2.3-2C445.2,47.9,446.1,48.9,446,50.1z"/>
<path class="st5" d="M461.1,50.1c-0.1,1.2-1.1,2.1-2.3,2c-1.2-0.1-2.1-1.1-2-2.3s1.1-2.1,2.3-2C460.3,47.9,461.2,48.9,461.1,50.1z"
	/>
<path class="st5" d="M476.3,50.1c-0.1,1.2-1.1,2.1-2.3,2c-1.2-0.1-2.1-1.1-2-2.3s1.1-2.1,2.3-2C475.4,47.9,476.3,48.9,476.3,50.1z"
	/>
<path class="st5" d="M415.8,62.6c-0.1,1.2-1.1,2.1-2.3,2c-1.2-0.1-2.1-1.1-2-2.3s1.1-2.1,2.3-2C414.9,60.4,415.8,61.4,415.8,62.6z"
	/>
<path class="st5" d="M430.9,62.6c-0.1,1.2-1.1,2.1-2.3,2c-1.2-0.1-2.1-1.1-2-2.3s1.1-2.1,2.3-2C430.1,60.4,431,61.4,430.9,62.6z"/>
<path class="st5" d="M446,62.6c-0.1,1.2-1.1,2.1-2.3,2c-1.2-0.1-2.1-1.1-2-2.3s1.1-2.1,2.3-2C445.2,60.4,446.1,61.4,446,62.6z"/>
<path class="st5" d="M461.1,62.6c-0.1,1.2-1.1,2.1-2.3,2c-1.2-0.1-2.1-1.1-2-2.3s1.1-2.1,2.3-2C460.3,60.4,461.2,61.4,461.1,62.6z"
	/>
<path class="st5" d="M476.3,62.6c-0.1,1.2-1.1,2.1-2.3,2c-1.2-0.1-2.1-1.1-2-2.3s1.1-2.1,2.3-2C475.4,60.4,476.3,61.4,476.3,62.6z"
	/>
<path class="st5" d="M415.8,75.1c-0.1,1.2-1.1,2.1-2.3,2c-1.2-0.1-2.1-1.1-2-2.3c0.1-1.2,1.1-2.1,2.3-2
	C414.9,72.9,415.8,73.9,415.8,75.1z"/>
<path class="st5" d="M430.9,75.1c-0.1,1.2-1.1,2.1-2.3,2c-1.2-0.1-2.1-1.1-2-2.3c0.1-1.2,1.1-2.1,2.3-2
	C430.1,72.9,431,73.9,430.9,75.1z"/>
<path class="st5" d="M446,75.1c-0.1,1.2-1.1,2.1-2.3,2c-1.2-0.1-2.1-1.1-2-2.3c0.1-1.2,1.1-2.1,2.3-2
	C445.2,72.9,446.1,73.9,446,75.1z"/>
<path class="st5" d="M461.1,75.1c-0.1,1.2-1.1,2.1-2.3,2c-1.2-0.1-2.1-1.1-2-2.3c0.1-1.2,1.1-2.1,2.3-2
	C460.3,72.9,461.2,73.9,461.1,75.1z"/>
<path class="st5" d="M476.3,75.1c-0.1,1.2-1.1,2.1-2.3,2c-1.2-0.1-2.1-1.1-2-2.3c0.1-1.2,1.1-2.1,2.3-2
	C475.4,72.9,476.3,73.9,476.3,75.1z"/>
</svg>
