<?xml version="1.0" encoding="utf-8"?>
<!-- Generator: Adobe Illustrator 25.2.0, SVG Export Plug-In . SVG Version: 6.00 Build 0)  -->
<svg version="1.1" xmlns="http://www.w3.org/2000/svg" xmlns:xlink="http://www.w3.org/1999/xlink" x="0px" y="0px"
	 viewBox="0 0 500 500" style="enable-background:new 0 0 500 500;" xml:space="preserve">
<style type="text/css">
	.st0{fill:#F9FAFC;}
	.st1{clip-path:url(#SVGID_2_);fill:#FFDC5E;}
	.st2{clip-path:url(#SVGID_2_);}
	.st3{fill:url(#SVGID_3_);}
	.st4{fill:url(#SVGID_4_);}
	.st5{fill:url(#SVGID_5_);}
	.st6{fill:url(#SVGID_6_);}
	.st7{fill:url(#SVGID_7_);}
	.st8{fill:url(#SVGID_8_);}
	.st9{fill:url(#SVGID_9_);}
	.st10{fill:url(#SVGID_10_);}
	.st11{fill:url(#SVGID_11_);}
	.st12{fill:url(#SVGID_12_);}
</style>
<g id="BACKGROUND_2">
	<g>
		<g id="XMLID_141_">
			<g id="XMLID_160_">
				<path id="XMLID_168_" class="st0" d="M260.1,465.5c-0.4,0.4-0.8,0.9-1.1,1.5l-0.5-0.2c-0.1-0.3-0.3-0.5-0.7-0.5
					c-0.3,0-0.6,0.3-0.5,0.7c0,0.3,0.3,0.6,0.7,0.5c0.1,0,0.1,0,0.2-0.1l0.5,0.2c-0.3,0.6-0.4,1.1-0.5,1.7l0.7,0.1
					c0.2-1.3,0.8-2.5,1.8-3.5L260.1,465.5z"/>
				<path id="XMLID_167_" class="st0" d="M265.6,463.2c-0.2,0-0.3,0-0.5,0l-0.1-0.6c0.2-0.1,0.3-0.4,0.3-0.6c0-0.4-0.4-0.7-0.8-0.6
					c-0.4,0-0.7,0.4-0.6,0.8c0,0.3,0.2,0.5,0.4,0.6l0.1,0.6c-0.7,0.1-1.4,0.3-2.1,0.6l0.3,0.7c0.9-0.4,1.9-0.7,3-0.7
					c0.5,0,1,0.1,1.5,0.2l0.2-0.7C266.7,463.2,266.1,463.2,265.6,463.2z"/>
				<path id="XMLID_166_" class="st0" d="M272.2,465.7c0.3,0,0.6-0.3,0.5-0.7c0-0.3-0.3-0.6-0.7-0.5c-0.3,0-0.5,0.3-0.5,0.6
					l-0.4,0.4c-0.4-0.4-0.9-0.8-1.4-1.1l-0.4,0.6c1.1,0.7,2,1.7,2.6,2.9l0.7-0.3c-0.3-0.6-0.6-1.1-0.9-1.5l0.4-0.4
					C272.1,465.7,272.1,465.7,272.2,465.7z"/>
				<path id="XMLID_165_" class="st0" d="M265,473.4c-0.4,0-0.8,0-1.2,0c-0.9,0-1.7-0.1-2.5-0.2c-0.4-0.1-0.8-0.2-1.3-0.3
					c1,1.9,3.1,3.1,5.4,3.1c2.9,0,5.3-1.9,5.9-4.5c-0.7,0.4-1.5,0.8-2.5,1.1C267.8,473,266.5,473.3,265,473.4z"/>
				<path id="XMLID_161_" class="st0" d="M265.6,464.7c-3.4,0-6.1,2.7-6.1,5.9c0,0.4,0,0.8,0.1,1.3c0.7,0.5,2.7,0.9,5.3,0.7
					c2.9-0.2,5.3-1,6.7-2.2c0-0.2,0-0.4,0-0.6C271.2,466.9,268.7,464.7,265.6,464.7z M263.4,471.2c-1,0-1.8-0.8-1.8-1.8
					c0-1,0.8-1.8,1.8-1.8c1,0,1.8,0.8,1.8,1.8C265.3,470.4,264.5,471.2,263.4,471.2z M268.2,470.3c-0.8,0-1.4-0.6-1.4-1.4
					s0.6-1.4,1.4-1.4c0.8,0,1.4,0.6,1.4,1.4S268.9,470.3,268.2,470.3z"/>
			</g>
			<path id="XMLID_158_" class="st0" d="M281.6,466.5c-0.3-0.1-0.8-0.3-1.4-0.2c-0.6,0.1-0.8,0.3-0.8,1v0.9h2.2v1.7h-2.2v5.5h-1.9
				v-5.5h-1.3v-1.7h1.3v-0.9c0-1.7,0.9-2.8,2.6-2.8c0.6,0,1.2,0.1,1.6,0.3L281.6,466.5z"/>
			<path id="XMLID_156_" class="st0" d="M286.3,469.9c-0.2,0-0.4,0-0.5,0c-0.9,0-1.5,0.5-1.5,1.6v3.9h-1.9v-7.2h1.9v0.8
				c0.5-0.7,1.1-1,2-1c0.4,0,0.8,0.1,1.1,0.3L286.3,469.9z"/>
			<path id="XMLID_153_" class="st0" d="M294,471.8c0,0.2,0,0.5,0,0.7h-5.1c0.2,1,0.9,1.5,1.8,1.5c0.6,0,1.3-0.3,1.8-0.7l1.1,1.2
				c-0.8,0.7-1.9,1.1-3.1,1.1c-2.2,0-3.7-1.5-3.7-3.8c0-2.3,1.5-3.8,3.6-3.8C292.5,468,294,469.5,294,471.8z M288.9,471.1h3.2
				c-0.2-0.9-0.7-1.4-1.6-1.4C289.6,469.7,289,470.2,288.9,471.1z"/>
			<path id="XMLID_150_" class="st0" d="M301.6,471.8c0,0.2,0,0.5,0,0.7h-5.1c0.2,1,0.9,1.5,1.8,1.5c0.6,0,1.3-0.3,1.8-0.7l1.1,1.2
				c-0.8,0.7-1.9,1.1-3.1,1.1c-2.2,0-3.7-1.5-3.7-3.8c0-2.3,1.5-3.8,3.6-3.8C300.2,468,301.6,469.5,301.6,471.8z M296.5,471.1h3.2
				c-0.2-0.9-0.7-1.4-1.6-1.4C297.2,469.7,296.7,470.2,296.5,471.1z"/>
			<path id="XMLID_147_" class="st0" d="M310,471.8c0,2.2-1.5,3.8-3.5,3.8c-1,0-1.6-0.4-2.1-0.9v3.7h-1.9v-10.1h1.9v0.8
				c0.5-0.6,1.2-1,2.1-1C308.5,468,310,469.6,310,471.8z M304.3,471.8c0,1.1,0.7,2,1.8,2c1.1,0,1.9-0.9,1.9-2c0-1.1-0.7-2-1.9-2
				C305,469.8,304.3,470.6,304.3,471.8z"/>
			<path id="XMLID_144_" class="st0" d="M313.1,465.8c0,0.7-0.5,1.2-1.2,1.2c-0.7,0-1.2-0.5-1.2-1.2c0-0.7,0.5-1.2,1.2-1.2
				C312.5,464.6,313.1,465.1,313.1,465.8z M312.8,475.4h-1.9v-7.2h1.9V475.4z"/>
			<path id="XMLID_142_" class="st0" d="M316,470.7l2.7-2.6h2.4l-3.5,3.4l3.5,3.8h-2.4l-2.7-2.9v2.9h-1.9v-10.7h1.9V470.7z"/>
		</g>
		<g>
			<path class="st0" d="M184.4,475.3v-1.1c-0.5,0.7-1.4,1.2-2.4,1.2c-1.8,0-3.1-1.4-3.1-3.7c0-2.3,1.3-3.7,3.1-3.7
				c1,0,1.8,0.5,2.4,1.2v-3.8h1.1v9.8H184.4z M184.4,473.4v-3.2c-0.4-0.6-1.2-1.1-2.1-1.1c-1.4,0-2.3,1.2-2.3,2.7
				c0,1.6,0.8,2.7,2.3,2.7C183.2,474.5,184,474,184.4,473.4z"/>
			<path class="st0" d="M186.9,471.7c0-2.1,1.5-3.7,3.5-3.7c2.1,0,3.4,1.7,3.4,3.8v0.3h-5.7c0.1,1.3,1,2.4,2.5,2.4
				c0.8,0,1.6-0.3,2.2-0.9l0.5,0.7c-0.7,0.7-1.7,1.1-2.8,1.1C188.4,475.5,186.9,474,186.9,471.7z M190.4,468.9
				c-1.5,0-2.3,1.3-2.3,2.4h4.6C192.7,470.2,192,468.9,190.4,468.9z"/>
			<path class="st0" d="M194.6,474.4l0.6-0.8c0.5,0.5,1.4,1,2.3,1c1.1,0,1.7-0.5,1.7-1.2c0-1.7-4.4-0.7-4.4-3.3c0-1.1,1-2,2.6-2
				c1.2,0,2.1,0.5,2.6,1l-0.5,0.8c-0.4-0.5-1.2-0.9-2.1-0.9c-1,0-1.6,0.5-1.6,1.1c0,1.6,4.4,0.5,4.4,3.3c0,1.2-1,2.1-2.8,2.1
				C196.3,475.5,195.3,475.1,194.6,474.4z"/>
			<path class="st0" d="M201.5,466.5c0-0.4,0.3-0.7,0.7-0.7c0.4,0,0.7,0.3,0.7,0.7c0,0.4-0.3,0.7-0.7,0.7
				C201.8,467.2,201.5,466.9,201.5,466.5z M201.7,475.3v-7.1h1.1v7.1H201.7z"/>
			<path class="st0" d="M204.6,477.1l0.6-0.8c0.6,0.7,1.3,1,2.3,1c1.2,0,2.3-0.6,2.3-2.1v-1c-0.5,0.7-1.4,1.3-2.4,1.3
				c-1.8,0-3.1-1.4-3.1-3.7c0-2.3,1.3-3.7,3.1-3.7c1,0,1.8,0.5,2.4,1.2v-1.1h1.1v6.9c0,2.3-1.6,3.1-3.4,3.1
				C206.2,478.2,205.4,477.9,204.6,477.1z M209.7,473.3v-3.1c-0.4-0.6-1.2-1.1-2.1-1.1c-1.4,0-2.3,1.1-2.3,2.7
				c0,1.6,0.8,2.7,2.3,2.7C208.5,474.4,209.3,473.9,209.7,473.3z"/>
			<path class="st0" d="M217.4,475.3v-4.6c0-1.2-0.6-1.6-1.6-1.6c-0.9,0-1.7,0.5-2.1,1.1v5.2h-1.1v-7.1h1.1v1
				c0.5-0.6,1.5-1.2,2.5-1.2c1.5,0,2.3,0.7,2.3,2.3v5H217.4z"/>
			<path class="st0" d="M219.9,471.7c0-2.1,1.5-3.7,3.5-3.7c2.1,0,3.4,1.7,3.4,3.8v0.3h-5.7c0.1,1.3,1,2.4,2.5,2.4
				c0.8,0,1.6-0.3,2.2-0.9l0.5,0.7c-0.7,0.7-1.7,1.1-2.8,1.1C221.4,475.5,219.9,474,219.9,471.7z M223.4,468.9
				c-1.5,0-2.3,1.3-2.3,2.4h4.6C225.7,470.2,225,468.9,223.4,468.9z"/>
			<path class="st0" d="M233.4,475.3v-1.1c-0.5,0.7-1.4,1.2-2.4,1.2c-1.8,0-3.1-1.4-3.1-3.7c0-2.3,1.3-3.7,3.1-3.7
				c1,0,1.8,0.5,2.4,1.2v-3.8h1.1v9.8H233.4z M233.4,473.4v-3.2c-0.4-0.6-1.2-1.1-2.1-1.1c-1.4,0-2.3,1.2-2.3,2.7
				c0,1.6,0.8,2.7,2.3,2.7C232.1,474.5,233,474,233.4,473.4z"/>
			<path class="st0" d="M239.7,475.3v-9.8h1.1v3.8c0.6-0.8,1.4-1.2,2.4-1.2c1.8,0,3.1,1.5,3.1,3.7c0,2.3-1.3,3.7-3.1,3.7
				c-1,0-1.9-0.5-2.4-1.2v1.1H239.7z M242.9,474.5c1.4,0,2.3-1.2,2.3-2.7c0-1.6-0.8-2.7-2.3-2.7c-0.9,0-1.7,0.5-2.1,1.1v3.2
				C241.2,474,242,474.5,242.9,474.5z"/>
			<path class="st0" d="M247.5,477.1c0.2,0.1,0.4,0.1,0.6,0.1c0.5,0,0.8-0.2,1.1-0.7l0.5-1.1l-3-7.1h1.2l2.4,5.8l2.3-5.8h1.2
				l-3.5,8.5c-0.4,1-1.1,1.4-2.1,1.4c-0.2,0-0.6,0-0.8-0.1L247.5,477.1z"/>
		</g>
	</g>
</g>
<g id="BACKGROUND_1">
	<g>
		<defs>
			<rect id="SVGID_1_" width="500" height="500"/>
		</defs>
		<clipPath id="SVGID_2_">
			<use xlink:href="#SVGID_1_"  style="overflow:visible;"/>
		</clipPath>
		<rect class="st1" width="500" height="500"/>
		<g class="st2">
			<linearGradient id="SVGID_3_" gradientUnits="userSpaceOnUse" x1="266.7585" y1="327.9415" x2="96.7613" y2="303.3506">
				<stop  offset="0" style="stop-color:#553AD0;stop-opacity:0"/>
				<stop  offset="1" style="stop-color:#553AD0"/>
			</linearGradient>
			<path class="st3" d="M87.9,259.7c28.4,106.2,110.3,165.8,214.5,21.9l-78.5,34.3L87.9,259.7z"/>
			<g>
				<linearGradient id="SVGID_4_" gradientUnits="userSpaceOnUse" x1="241.117" y1="302.2575" x2="172.6903" y2="243.4534">
					<stop  offset="0" style="stop-color:#5A0389"/>
					<stop  offset="1" style="stop-color:#553BD2"/>
				</linearGradient>
				<path class="st4" d="M164.3,267.6c-7.5,9.2-14.5,17.3-21.1,24.2c43.9,17,84,28.6,105,23.7c21.1-4.9,34.9-20.9,49.6-37.1
					C240.9,225.4,214.2,205.8,164.3,267.6z"/>
				<linearGradient id="SVGID_5_" gradientUnits="userSpaceOnUse" x1="131.9825" y1="224.8514" x2="119.1526" y2="322.1454">
					<stop  offset="0" style="stop-color:#5A0389"/>
					<stop  offset="1" style="stop-color:#553BD2"/>
				</linearGradient>
				<path class="st5" d="M163.9,290.1c-25.4-9.8-52.3-21.8-76.7-33"/>
				<linearGradient id="SVGID_6_" gradientUnits="userSpaceOnUse" x1="517.9862" y1="207.6506" x2="491.257" y2="260.0397">
					<stop  offset="0" style="stop-color:#5A0389"/>
					<stop  offset="1" style="stop-color:#553BD2"/>
				</linearGradient>
				<path class="st6" d="M476.4,212.6c-6.8,8.4-19.5,32.8-36.6,56.7c17.5,5,35.8,6.1,57.6-4.3h38.2
					C518.3,229.8,498.1,185.5,476.4,212.6z"/>
				<linearGradient id="SVGID_7_" gradientUnits="userSpaceOnUse" x1="299.7286" y1="340.0567" x2="465.4494" y2="214.9643">
					<stop  offset="0" style="stop-color:#5A0389"/>
					<stop  offset="1" style="stop-color:#553BD2"/>
				</linearGradient>
				<path class="st7" d="M368.8,238.5c-34.3,0.5-53.2,20.3-71,39.9c10.5,9.8,22,20.7,34.9,32.4c53.3,48.5,101.3,3.5,135-43.4
					C436,258.2,406.8,237.9,368.8,238.5z"/>
			</g>
			<linearGradient id="SVGID_8_" gradientUnits="userSpaceOnUse" x1="265.1283" y1="162.5422" x2="256.8846" y2="331.1623">
				<stop  offset="0" style="stop-color:#F44CE1"/>
				<stop  offset="0.9877" style="stop-color:#565DE9"/>
			</linearGradient>
			<path class="st8" d="M2.8,244.3c-17.4,2.9-31.3,12.9-49,6.8c-14.8-5.1-27.1-17.4-32.7-31.9c-8.6-22.2-3.6-47.8,7.5-68.9
				c4.8-9.1,13.1-18.7,23.2-16.9c6.4,1.1,11.2,6.6,14.5,12.3c7.5,12.8,13.8,23.7,30.4,24.2c10,0.3,19.7-3,29.1-6.5
				c9.4-3.4,19-7,28.9-7.1c40-0.4,55.3,44,70.8,72.7c14.5,26.7,36.9,58.6,68.4,60.6c27.6,1.7,57.6-21.7,75.4-40.8
				c20.1-21.5,40.8-44.8,63.7-63.9c55.4-46.2,83.7,19.8,130.1,38.9c27.2,11.2,47.1,1,63.2-22.8c13.3-19.6,22.4-43.1,41.4-57.2
				c13-9.8,35.4-11.8,42.7,2.8c6.1,12.3-3,26.4-11.7,37.1c-16.2,20-32.6,40.1-52.6,56.4c-20,16.2-44.1,28.5-69.8,30.1
				c-50.2,3.1-100.3-33.8-147.8-17.4c-23.1,8-40.2,27.2-58.2,43.7c-18.1,16.5-40.8,31.7-65,28.4c-23.8-3.2-41.4-22.8-60.1-37.9
				C105.1,254.4,53.7,235.8,2.8,244.3z"/>
			<g>
				<linearGradient id="SVGID_9_" gradientUnits="userSpaceOnUse" x1="-63.3486" y1="193.1097" x2="86.2768" y2="193.1097">
					<stop  offset="0" style="stop-color:#F44CE1"/>
					<stop  offset="0.9877" style="stop-color:#565DE9"/>
				</linearGradient>
				<path class="st9" d="M-33.7,145.6c-3.3-5.6-8-11.1-14.5-12.3c-5.8-1-10.9,1.7-15.2,5.9l16.6,50.8c0,0,23.8,16.4,82.5,43.1
					c8.5,3.9,18.3,8.4,28.9,13.4c7.3,1.7,14.6,3.9,21.7,6.5c-17.2-72.4-39.5-83.5-86-83.2c-1.2,0.1-2.4,0.1-3.6,0
					C-19.8,169.3-26.2,158.4-33.7,145.6z"/>
			</g>
			<linearGradient id="SVGID_10_" gradientUnits="userSpaceOnUse" x1="242.3498" y1="333.0117" x2="254.6362" y2="179.9879">
				<stop  offset="0" style="stop-color:#FF4B9A"/>
				<stop  offset="0.999" style="stop-color:#FFEC7E"/>
			</linearGradient>
			<path class="st10" d="M568,218.2c-2.6,8.2-8.8,14.7-15.2,20.4c-18.5,16.7-39.6,32.9-64.3,39.2c-32.8,8.3-62.1-9.3-92.1-19.6
				c-17.5-6.1-36.7-8.9-54.5-3.5c-38.7,11.8-81.4,84.4-123.7,84.8c-34.9,0.3-55.8-24-78.6-41.7c-16.7-13-33.7-27.8-51.8-38.1
				c-23.9-13.7-49.6-19.3-78.5-2.1c-0.3,0.2-0.6,0.4-0.9,0.5c-15.4,9.4-34.8,24.1-52.7,11.7c-9.7-6.8-13.2-19.4-15.1-31.2
				c-0.3-1.6-0.5-3.2-0.7-4.8c-0.2-1.6-0.5-3.2-0.7-4.8c-3.5-27.6-2.6-55.7,2.7-83c1.1-5.6,3.7-12.4,9.4-12.7
				c6-0.4,9.3,6.6,11.4,12.2c10,26.9,27.8,48,49.4,65.1c22,17.5,48,30.8,73.5,41.9c0.2,0.1,0.3,0.1,0.5,0.2
				c19,8.3,37.1,17.6,56.1,25.8c38.1,16.3,77.8,21.8,114.6-1.2c33.8-21.1,57.1-60.5,101.6-58.2c41.7,2.1,64.3,51.4,105,49.7
				c13.7-0.6,26.2-8.3,35.6-18.2c11.9-12.7,18.4-28.9,28.9-42.6c1.8-2.4,3.8-4.7,5.9-6.8c2.6-2.5,5.5-4.8,8.8-6.3
				c6-2.9,13.4-3.3,19,0.3C568.7,199.8,570.6,210.1,568,218.2z"/>
			<linearGradient id="SVGID_11_" gradientUnits="userSpaceOnUse" x1="401.661" y1="277.7431" x2="441.2201" y2="218.939">
				<stop  offset="0" style="stop-color:#FF17D0"/>
				<stop  offset="0.6014" style="stop-color:#FF88AC"/>
				<stop  offset="1" style="stop-color:#FFD394"/>
			</linearGradient>
			<path class="st11" d="M488.5,277.8c7.8-2,15.3-5,22.5-8.7c-120.4-89.4-132.6-67.9-227.5,30.2l0,0c20.1-19.1,39.7-39,58.4-44.7
				c17.7-5.4,37-2.5,54.5,3.5C426.4,268.6,455.7,286.2,488.5,277.8z"/>
			<linearGradient id="SVGID_12_" gradientUnits="userSpaceOnUse" x1="-28.6993" y1="328.8499" x2="37.7894" y2="186.5951">
				<stop  offset="0" style="stop-color:#FF17D0"/>
				<stop  offset="1" style="stop-color:#FFD394"/>
			</linearGradient>
			<path class="st12" d="M87.9,259.7c-23.9-13.7-49.6-19.3-78.5-2.1c-0.3,0.2-0.6,0.4-0.9,0.5c-15.4,9.4-34.8,24.1-52.7,11.7
				c-9.7-6.8-13.2-19.4-15.1-31.2c-0.3-1.6-0.5-3.2-0.7-4.8c-0.2-1.6-0.5-3.2-0.7-4.8c-0.4-3.2-0.8-6.4-1-9.6
				c19.1-0.2,47.1-7.6,73.9-8.8c2.4-0.1,4.8-0.2,7.1-0.2c28.5,0,54.7,8.5,66.4,42C86.5,254.8,87.2,257.2,87.9,259.7z"/>
		</g>
	</g>
</g>
</svg>
