<?xml version="1.0" encoding="utf-8"?>
<!-- Generator: Adobe Illustrator 25.2.0, SVG Export Plug-In . SVG Version: 6.00 Build 0)  -->
<svg version="1.1" id="Layer_1" xmlns="http://www.w3.org/2000/svg" xmlns:xlink="http://www.w3.org/1999/xlink" x="0px" y="0px"
	 viewBox="0 0 500 500" style="enable-background:new 0 0 500 500;" xml:space="preserve">
<style type="text/css">
	.st0{fill:#86D6FF;}
	.st1{fill:#FFFFFF;}
	.st2{fill:#1F202D;}
	.st3{fill:url(#SVGID_1_);}
	.st4{fill:#A4B4C0;}
	.st5{fill:#48546E;}
	.st6{fill:url(#SVGID_2_);}
	.st7{fill:url(#SVGID_3_);}
	.st8{fill:#D8DFE4;}
	.st9{fill:#93A7B8;}
	.st10{fill:url(#SVGID_4_);}
	.st11{fill:#4C5966;}
	.st12{fill:#FEB782;}
	.st13{fill:#F09F70;}
	.st14{fill:url(#SVGID_5_);}
	.st15{fill:url(#SVGID_6_);}
	.st16{fill:#FFDCB8;}
	.st17{fill:url(#SVGID_7_);}
	.st18{fill:url(#SVGID_8_);}
</style>
<g>
	<rect class="st0" width="500" height="500"/>
	<g>
		<path class="st1" d="M402.9,275.3v-68.5c0-15-12.1-27.1-27.1-27.1H149.6c-15,0-27.1,12.1-27.1,27.1v68.5c0,15,12.1,27.1,27.1,27.1
			h226.2C390.8,302.4,402.9,290.3,402.9,275.3z"/>
		<path class="st0" d="M375.8,203.9H149.6c-15,0-27.1,12.1-27.1,27.1v4.1c0-15,12.1-27.1,27.1-27.1h226.2c15,0,27.1,12.1,27.1,27.1
			V231C402.9,216.1,390.8,203.9,375.8,203.9z"/>
		<rect x="170.4" y="179.6" class="st2" width="184.7" height="24.2"/>
		<linearGradient id="SVGID_1_" gradientUnits="userSpaceOnUse" x1="262.7208" y1="311.7261" x2="262.7208" y2="211.5434">
			<stop  offset="0" style="stop-color:#FFFFFF"/>
			<stop  offset="0.9744" style="stop-color:#86D6FF"/>
		</linearGradient>
		<path class="st3" d="M122.5,267.7v82c0,15.3,12.4,27.8,27.8,27.8h224.9c15.3,0,27.8-12.4,27.8-27.8v-82
			c0-15.3-12.4-27.8-27.8-27.8H150.3C135,239.9,122.5,252.4,122.5,267.7z"/>
		<g>
			<path class="st2" d="M151.2,367.6h223.1c6.9,0,12.5-5.6,12.5-12.5v-84.6c0-6.9-5.6-12.5-12.5-12.5H151.2
				c-6.9,0-12.5,5.6-12.5,12.5v84.6C138.7,362,144.2,367.6,151.2,367.6z"/>
			<g>
				<g>
					<circle class="st4" cx="172.2" cy="271.9" r="7.7"/>
					<circle class="st4" cx="190.4" cy="271.9" r="7.7"/>
					<circle class="st4" cx="208.6" cy="271.9" r="7.7"/>
					<circle class="st4" cx="226.8" cy="271.9" r="7.7"/>
					<circle class="st4" cx="245.1" cy="271.9" r="7.7"/>
					<circle class="st4" cx="263.3" cy="271.9" r="7.7"/>
					<circle class="st4" cx="281.5" cy="271.9" r="7.7"/>
					<circle class="st4" cx="299.7" cy="271.9" r="7.7"/>
					<circle class="st4" cx="317.9" cy="271.9" r="7.7"/>
					<circle class="st4" cx="336.1" cy="271.9" r="7.7"/>
					<circle class="st4" cx="354.3" cy="271.9" r="7.7"/>
					<circle class="st4" cx="372.5" cy="271.9" r="7.7"/>
				</g>
				<g>
					<circle class="st4" cx="162.7" cy="291" r="7.7"/>
					<circle class="st4" cx="180.9" cy="291" r="7.7"/>
					<circle class="st4" cx="199.1" cy="291" r="7.7"/>
					<circle class="st4" cx="217.3" cy="291" r="7.7"/>
					<circle class="st4" cx="235.5" cy="291" r="7.7"/>
					<circle class="st4" cx="253.7" cy="291" r="7.7"/>
					<circle class="st4" cx="271.9" cy="291" r="7.7"/>
					<circle class="st4" cx="290.1" cy="291" r="7.7"/>
					<circle class="st4" cx="308.3" cy="291" r="7.7"/>
					<circle class="st4" cx="326.6" cy="291" r="7.7"/>
					<circle class="st4" cx="344.8" cy="291" r="7.7"/>
					<circle class="st4" cx="363" cy="291" r="7.7"/>
				</g>
				<g>
					<path class="st4" d="M146.3,310.1c0,4.2,3.4,7.7,7.7,7.7s7.7-3.4,7.7-7.7c0-4.2-3.4-7.7-7.7-7.7S146.3,305.8,146.3,310.1z"/>
					<path class="st4" d="M164.5,310.1c0,4.2,3.4,7.7,7.7,7.7s7.7-3.4,7.7-7.7c0-4.2-3.4-7.7-7.7-7.7S164.5,305.8,164.5,310.1z"/>
					<path class="st4" d="M182.7,310.1c0,4.2,3.4,7.7,7.7,7.7s7.7-3.4,7.7-7.7c0-4.2-3.4-7.7-7.7-7.7S182.7,305.8,182.7,310.1z"/>
					<path class="st4" d="M200.9,310.1c0,4.2,3.4,7.7,7.7,7.7s7.7-3.4,7.7-7.7c0-4.2-3.4-7.7-7.7-7.7S200.9,305.8,200.9,310.1z"/>
					<path class="st4" d="M219.2,310.1c0,4.2,3.4,7.7,7.7,7.7s7.7-3.4,7.7-7.7c0-4.2-3.4-7.7-7.7-7.7S219.2,305.8,219.2,310.1z"/>
					<path class="st4" d="M237.4,310.1c0,4.2,3.4,7.7,7.7,7.7c4.2,0,7.7-3.4,7.7-7.7c0-4.2-3.4-7.7-7.7-7.7
						C240.8,302.4,237.4,305.8,237.4,310.1z"/>
					<path class="st4" d="M255.6,310.1c0,4.2,3.4,7.7,7.7,7.7c4.2,0,7.7-3.4,7.7-7.7c0-4.2-3.4-7.7-7.7-7.7
						C259,302.4,255.6,305.8,255.6,310.1z"/>
					<path class="st4" d="M273.8,310.1c0,4.2,3.4,7.7,7.7,7.7s7.7-3.4,7.7-7.7c0-4.2-3.4-7.7-7.7-7.7S273.8,305.8,273.8,310.1z"/>
					<path class="st4" d="M292,310.1c0,4.2,3.4,7.7,7.7,7.7s7.7-3.4,7.7-7.7c0-4.2-3.4-7.7-7.7-7.7S292,305.8,292,310.1z"/>
					<path class="st4" d="M310.2,310.1c0,4.2,3.4,7.7,7.7,7.7s7.7-3.4,7.7-7.7c0-4.2-3.4-7.7-7.7-7.7S310.2,305.8,310.2,310.1z"/>
					<path class="st4" d="M328.4,310.1c0,4.2,3.4,7.7,7.7,7.7s7.7-3.4,7.7-7.7c0-4.2-3.4-7.7-7.7-7.7S328.4,305.8,328.4,310.1z"/>
					<path class="st4" d="M346.6,310.1c0,4.2,3.4,7.7,7.7,7.7s7.7-3.4,7.7-7.7c0-4.2-3.4-7.7-7.7-7.7S346.6,305.8,346.6,310.1z"/>
				</g>
				<g>
					<circle class="st4" cx="162.7" cy="329.2" r="7.7"/>
					<circle class="st4" cx="180.9" cy="329.2" r="7.7"/>
					<circle class="st4" cx="199.1" cy="329.2" r="7.7"/>
					<circle class="st4" cx="217.3" cy="329.2" r="7.7"/>
					<circle class="st4" cx="235.5" cy="329.2" r="7.7"/>
					<circle class="st4" cx="253.7" cy="329.2" r="7.7"/>
					<circle class="st4" cx="271.9" cy="329.2" r="7.7"/>
					<circle class="st4" cx="290.1" cy="329.2" r="7.7"/>
					<circle class="st4" cx="308.3" cy="329.2" r="7.7"/>
					<circle class="st4" cx="326.6" cy="329.2" r="7.7"/>
					<circle class="st4" cx="344.8" cy="329.2" r="7.7"/>
					<circle class="st4" cx="363" cy="329.2" r="7.7"/>
				</g>
				<path class="st4" d="M337.1,361H188.6c-4.2,0-7.7-3.4-7.7-7.7l0,0c0-4.2,3.4-7.7,7.7-7.7h148.5c4.2,0,7.7,3.4,7.7,7.7l0,0
					C344.8,357.6,341.3,361,337.1,361z"/>
			</g>
		</g>
		<g>
			<path class="st2" d="M195.7,232.8c43.7,25.7,90.2,25.8,134,0c3.8-2.2,4.8-7.3,2.2-10.8c-5.4-7.3-10.9-14.5-16.3-21.8
				c-2.2-2.9-9.4-2-9.4-2l-86.8,0c0,0-7.2-1-9.4,2c-5.4,7.3-10.9,14.5-16.3,21.8C190.9,225.6,191.9,230.6,195.7,232.8z"/>
			<g>
				<g>
					<path class="st5" d="M209.6,220c-0.2,0-0.5-0.1-0.7-0.3c-0.3-0.4-0.3-0.9,0-1.3c6.3-5.9,12.3-12.1,17.9-18.5
						c0.3-0.4,0.9-0.4,1.3-0.1c0.4,0.3,0.4,0.9,0.1,1.3c-5.6,6.4-11.7,12.7-18,18.6C210.1,220,209.8,220,209.6,220z"/>
				</g>
				<g>
					<path class="st5" d="M215.3,223.8c-0.2,0-0.4-0.1-0.6-0.2c-0.4-0.3-0.4-0.9-0.1-1.3c5.7-6.4,11.1-13,16.1-19.8
						c0.3-0.4,0.9-0.5,1.3-0.2c0.4,0.3,0.5,0.9,0.2,1.3c-5,6.8-10.5,13.5-16.2,19.9C215.8,223.7,215.5,223.8,215.3,223.8z"/>
				</g>
				<g>
					<path class="st5" d="M221.3,227.1c-0.2,0-0.4-0.1-0.5-0.2c-0.4-0.3-0.5-0.9-0.2-1.3c5-6.8,9.7-13.9,14.1-20.9
						c0.3-0.4,0.8-0.6,1.2-0.3c0.4,0.3,0.6,0.8,0.3,1.2c-4.4,7.1-9.2,14.2-14.2,21.1C221.9,227,221.6,227.1,221.3,227.1z"/>
				</g>
				<g>
					<path class="st5" d="M227.7,230c-0.2,0-0.3,0-0.5-0.1c-0.4-0.3-0.6-0.8-0.3-1.2c4.2-7.2,8.3-14.6,12-21.9
						c0.2-0.4,0.8-0.6,1.2-0.4c0.4,0.2,0.6,0.8,0.4,1.2c-3.7,7.4-7.8,14.8-12,22C228.3,229.8,228,230,227.7,230z"/>
				</g>
				<g>
					<path class="st5" d="M234.4,232.3c-0.1,0-0.3,0-0.4-0.1c-0.4-0.2-0.6-0.7-0.4-1.2c3.5-7.5,6.7-15.1,9.7-22.8
						c0.2-0.5,0.7-0.7,1.2-0.5c0.5,0.2,0.7,0.7,0.5,1.2c-3,7.7-6.3,15.3-9.8,22.9C235,232.1,234.7,232.3,234.4,232.3z"/>
				</g>
				<g>
					<path class="st5" d="M241.3,234.2c-0.1,0-0.2,0-0.3,0c-0.5-0.2-0.7-0.7-0.6-1.1c2.6-7.7,5.1-15.6,7.4-23.4
						c0.1-0.5,0.6-0.7,1.1-0.6c0.5,0.1,0.7,0.6,0.6,1.1c-2.3,7.8-4.8,15.7-7.4,23.5C242,233.9,241.6,234.2,241.3,234.2z"/>
				</g>
				<g>
					<path class="st5" d="M248.3,235.5c-0.1,0-0.1,0-0.2,0c-0.5-0.1-0.8-0.6-0.7-1.1c1.8-7.9,3.4-16,5-23.9c0.1-0.5,0.6-0.8,1-0.7
						c0.5,0.1,0.8,0.6,0.7,1c-1.5,8-3.2,16-5,24C249.1,235.2,248.7,235.5,248.3,235.5z"/>
				</g>
				<g>
					<path class="st5" d="M255.5,236.3C255.5,236.3,255.4,236.3,255.5,236.3c-0.6-0.1-0.9-0.5-0.9-1c0.9-8.1,1.7-16.2,2.5-24.2
						c0-0.5,0.5-0.8,1-0.8c0.5,0,0.9,0.5,0.8,1c-0.8,8-1.6,16.2-2.5,24.2C256.3,236,255.9,236.3,255.5,236.3z"/>
				</g>
				<g>
					<path class="st5" d="M262.7,236.6c-0.5,0-0.9-0.4-0.9-0.9v-24.3c0-0.5,0.4-0.9,0.9-0.9c0.5,0,0.9,0.4,0.9,0.9v24.3
						C263.6,236.2,263.2,236.6,262.7,236.6z"/>
				</g>
				<g>
					<path class="st5" d="M269.9,236.3c-0.5,0-0.8-0.3-0.9-0.8c-0.9-8.1-1.7-16.2-2.5-24.2c0-0.5,0.3-0.9,0.8-1c0.5,0,0.9,0.3,1,0.8
						c0.8,8,1.6,16.1,2.5,24.2C270.9,235.8,270.5,236.2,269.9,236.3C270,236.3,270,236.3,269.9,236.3z"/>
				</g>
				<g>
					<path class="st5" d="M277.1,235.5c-0.4,0-0.8-0.3-0.9-0.7c-1.8-7.9-3.5-16-5-24c-0.1-0.5,0.2-1,0.7-1c0.5-0.1,1,0.2,1,0.7
						c1.5,7.9,3.2,16,5,23.9c0.1,0.5-0.2,1-0.7,1.1C277.2,235.5,277.2,235.5,277.1,235.5z"/>
				</g>
				<g>
					<path class="st5" d="M284.2,234.2c-0.4,0-0.7-0.2-0.8-0.6c-2.6-7.8-5.1-15.7-7.4-23.5c-0.1-0.5,0.1-1,0.6-1.1
						c0.5-0.1,1,0.1,1.1,0.6c2.3,7.8,4.8,15.7,7.4,23.4c0.2,0.5-0.1,1-0.6,1.1C284.4,234.2,284.3,234.2,284.2,234.2z"/>
				</g>
				<g>
					<path class="st5" d="M291.1,232.3c-0.3,0-0.7-0.2-0.8-0.5c-3.5-7.5-6.8-15.2-9.8-22.9c-0.2-0.5,0-1,0.5-1.2
						c0.5-0.2,1,0,1.2,0.5c3,7.6,6.3,15.3,9.7,22.8c0.2,0.4,0,1-0.4,1.2C291.3,232.3,291.2,232.3,291.1,232.3z"/>
				</g>
				<g>
					<path class="st5" d="M297.7,230c-0.3,0-0.6-0.2-0.8-0.4c-4.3-7.2-8.3-14.6-12-22c-0.2-0.4,0-1,0.4-1.2c0.4-0.2,1,0,1.2,0.4
						c3.7,7.4,7.7,14.8,12,21.9c0.3,0.4,0.1,1-0.3,1.2C298,229.9,297.9,230,297.7,230z"/>
				</g>
				<g>
					<path class="st5" d="M304.1,227.1c-0.3,0-0.5-0.1-0.7-0.4c-5-6.8-9.8-13.9-14.2-21.1c-0.3-0.4-0.1-1,0.3-1.2
						c0.4-0.3,1-0.1,1.2,0.3c4.4,7.1,9.1,14.1,14.1,20.9c0.3,0.4,0.2,1-0.2,1.3C304.5,227.1,304.3,227.1,304.1,227.1z"/>
				</g>
				<g>
					<path class="st5" d="M310.2,223.8c-0.2,0-0.5-0.1-0.7-0.3c-5.7-6.4-11.2-13.1-16.2-19.9c-0.3-0.4-0.2-1,0.2-1.3
						c0.4-0.3,1-0.2,1.3,0.2c5,6.7,10.4,13.4,16.1,19.8c0.3,0.4,0.3,0.9-0.1,1.3C310.6,223.7,310.4,223.8,310.2,223.8z"/>
				</g>
				<g>
					<path class="st5" d="M315.8,220c-0.2,0-0.4-0.1-0.6-0.2c-6.3-6-12.4-12.2-18-18.6c-0.3-0.4-0.3-0.9,0.1-1.3
						c0.4-0.3,0.9-0.3,1.3,0.1c5.6,6.4,11.6,12.6,17.9,18.5c0.4,0.3,0.4,0.9,0,1.3C316.3,219.9,316.1,220,315.8,220z"/>
				</g>
			</g>
		</g>
		<g>
			<rect x="75.8" y="146.7" class="st2" width="335.4" height="21"/>
			<g>
				<path class="st5" d="M402.8,141.5v31.3h6.9c2.9,0,5.3-2.4,5.3-5.3v-20.7c0-2.9-2.4-5.3-5.3-5.3H402.8z"/>
				<path class="st5" d="M84.1,141.5v31.3h-6.9c-2.9,0-5.3-2.4-5.3-5.3v-20.7c0-2.9,2.4-5.3,5.3-5.3H84.1z"/>
			</g>
			<rect x="89.4" y="141.5" class="st5" width="308.2" height="31.3"/>
			<linearGradient id="SVGID_2_" gradientUnits="userSpaceOnUse" x1="243.4653" y1="147.7872" x2="243.4653" y2="191.4366">
				<stop  offset="0" style="stop-color:#FFFFFF"/>
				<stop  offset="0.9744" style="stop-color:#86D6FF"/>
			</linearGradient>
			<rect x="101.1" y="134.6" class="st6" width="284.8" height="45"/>
			<rect x="131.9" y="134.6" class="st5" width="223.1" height="45"/>
		</g>
		<g>
			<linearGradient id="SVGID_3_" gradientUnits="userSpaceOnUse" x1="243.5912" y1="151.5766" x2="243.5912" y2="179.221">
				<stop  offset="0" style="stop-color:#FFFFFF"/>
				<stop  offset="0.9744" style="stop-color:#86D6FF"/>
			</linearGradient>
			<polygon class="st7" points="144.8,179.7 342.1,179.7 342.6,37.9 144.5,37.9 			"/>
			<g>
				<g>
					<path class="st8" d="M285.8,74.6h-80.1c-2.3,0-4.2-1.9-4.2-4.2c0-2.3,1.9-4.2,4.2-4.2h80.1c2.3,0,4.2,1.9,4.2,4.2
						C290,72.7,288.1,74.6,285.8,74.6z"/>
				</g>
				<g>
					<path class="st4" d="M324.3,96.3H190.6c-1.3,0-2.4-1.1-2.4-2.4s1.1-2.4,2.4-2.4h133.8c1.3,0,2.4,1.1,2.4,2.4
						S325.7,96.3,324.3,96.3z"/>
				</g>
				<g>
					<path class="st4" d="M325.1,108H166.3c-1.3,0-2.4-1.1-2.4-2.4s1.1-2.4,2.4-2.4h158.8c1.3,0,2.4,1.1,2.4,2.4
						S326.4,108,325.1,108z"/>
				</g>
				<g>
					<path class="st4" d="M312.8,119.7H166.1c-1.3,0-2.4-1.1-2.4-2.4s1.1-2.4,2.4-2.4h146.7c1.3,0,2.4,1.1,2.4,2.4
						S314.1,119.7,312.8,119.7z"/>
				</g>
				<g>
					<path class="st4" d="M325.1,131.5H190c-1.3,0-2.4-1.1-2.4-2.4s1.1-2.4,2.4-2.4h135.1c1.3,0,2.4,1.1,2.4,2.4
						S326.4,131.5,325.1,131.5z"/>
				</g>
				<g>
					<path class="st4" d="M325.1,143.4H165.7c-1.3,0-2.4-1.1-2.4-2.4c0-1.3,1.1-2.4,2.4-2.4h159.4c1.3,0,2.4,1.1,2.4,2.4
						C327.5,142.3,326.4,143.4,325.1,143.4z"/>
				</g>
				<g>
					<path class="st4" d="M325.1,155.3H165.5c-1.3,0-2.4-1.1-2.4-2.4s1.1-2.4,2.4-2.4h159.6c1.3,0,2.4,1.1,2.4,2.4
						S326.4,155.3,325.1,155.3z"/>
				</g>
				<g>
					<path class="st9" d="M268.8,168.6H165.4c-1.3,0-2.4-1.1-2.4-2.4s1.1-2.4,2.4-2.4h103.4c1.3,0,2.4,1.1,2.4,2.4
						S270.1,168.6,268.8,168.6z"/>
				</g>
			</g>
		</g>
		<g>
			<linearGradient id="SVGID_4_" gradientUnits="userSpaceOnUse" x1="262.7219" y1="165.4738" x2="262.7219" y2="194.4151">
				<stop  offset="0" style="stop-color:#FFFFFF"/>
				<stop  offset="0.9744" style="stop-color:#86D6FF"/>
			</linearGradient>
			<path class="st10" d="M244.6,194.6c12.1,4.8,24.2,4.8,36.3,0l-3.6-29.1h-29.1L244.6,194.6z"/>
			<path class="st5" d="M244.4,172.4H281c3.3,0,6-2.7,6-6l0,0c0-3.3-2.7-6-6-6h-36.6c-3.3,0-6,2.7-6,6l0,0
				C238.4,169.8,241.1,172.4,244.4,172.4z"/>
		</g>
		<g>
			<circle class="st5" cx="176.7" cy="184.8" r="3"/>
			<circle class="st5" cx="176.7" cy="197.7" r="3"/>
		</g>
		<g>
			<circle class="st5" cx="348.7" cy="184.8" r="3"/>
			<circle class="st5" cx="348.7" cy="197.7" r="3"/>
		</g>
	</g>
	<g>
		<path class="st11" d="M134.8,377.3h98.5c1.3-1,2.6-2,3.9-2.8c1.5-1,2.9-1.6,4-2l0.8-0.3c2.3-0.7,3.9-2.9,3.8-5.4
			c-0.1-3-2.7-5.4-5.7-5.3c-3.1,0.1-5.9,0.9-8.2,1.7c-2.4,0.9-4.6,1.9-6.6,2.9c-4.1,2-7.9,4.1-11.6,5.8c-2.1,1-4.2,1.9-6.3,2.7
			l5.3-27.1c0,0,0-0.1,0-0.1c0.1-0.1,0.1-0.2,0.2-0.3c0.4-0.8,0.9-1.6,1.3-2.4c0.1-0.2,0.3-0.4,0.4-0.7c0.1-0.2,0.2-0.3,0.3-0.5
			c0.3-0.5,0.6-1.1,1-1.6c0.3-0.5,0.7-1.1,1.1-1.6c0,0,0-0.1,0.1-0.1c0.4-0.5,0.7-1,1.1-1.5c0.1-0.1,0.1-0.1,0.2-0.2
			c0.7-0.9,1.5-1.8,2.2-2.5c0.7-0.7,1.4-1.3,1.9-1.6c0,0,0,0,0,0c0.1-0.1,0.2-0.2,0.3-0.2c0,0,0,0,0,0l0.1-0.1c0,0,0.1,0,0.1-0.1
			l0.2-0.2c0,0,0,0,0.1,0c0.1,0,0.1,0,0.2,0c0,0,0,0,0.1,0c0,0,0.1,0,0.1,0c0.2,0,0.4,0.1,0.7,0.2c0.6,0.2,1.3,0.9,1.9,1.4
			c0.3,0.3,0.6,0.6,0.8,0.9c0.9,1.1,1.8,2.3,2.6,3.7c0.4,0.7,0.6,1.1,0.6,1.1c0.2,0.3,0.4,0.6,0.6,0.8c1.4,1.7,3.8,2.5,6.1,1.8
			c2.9-0.9,4.5-4.1,3.6-7c-0.1-0.4-0.3-0.8-0.4-1.1c-0.1-0.3-0.2-0.7-0.4-1.1c-0.3-0.8-0.7-1.8-1.2-2.9c-0.3-0.5-0.5-1.1-0.8-1.7
			c0,0,0-0.1-0.1-0.1c0,0,0,0,0,0c-0.3-0.5-0.6-1.1-1-1.6c0-0.1-0.1-0.1-0.1-0.2c0,0-0.1-0.1-0.1-0.1c-0.6-1-1.4-2-2.3-3
			c0,0-0.1-0.1-0.1-0.1c-0.5-0.5-1-1-1.5-1.5c-0.2-0.1-0.3-0.3-0.5-0.4c-0.1-0.1-0.2-0.1-0.2-0.2c0,0-0.1,0-0.1-0.1
			c-0.3-0.2-0.6-0.4-0.9-0.6c-0.1-0.1-0.2-0.1-0.3-0.2c-0.3-0.2-0.7-0.4-1-0.6c0,0,0,0,0,0c-0.8-0.4-1.7-0.8-2.6-1.1
			c-0.1,0-0.1-0.1-0.2-0.1c-0.1,0-0.1,0-0.2,0c-0.1,0-0.1,0-0.2-0.1c-0.3-0.1-0.6-0.1-0.8-0.2c-0.1,0-0.3-0.1-0.4-0.1
			c-0.1,0-0.2,0-0.2-0.1c0,0,0,0,0,0c-1.4-0.2-2.9-0.3-4.3-0.1c-1.6,0.2-3.1,0.5-4.4,1c0.3-1.6-0.1-3.2-1.3-4.5
			c-0.2-0.3-0.5-0.6-0.8-0.8c-0.1-0.1-0.1-0.1-0.2-0.2c-0.1-0.1-0.2-0.2-0.3-0.3c-0.1-0.1-0.3-0.3-0.4-0.4c-0.1,0-0.1-0.1-0.2-0.2
			c-0.3-0.3-0.6-0.5-0.9-0.8c0,0,0,0-0.1-0.1c0,0-0.1-0.1-0.1-0.1c-0.4-0.3-0.7-0.6-1.2-1c0,0-0.1,0-0.1-0.1c0,0,0,0,0,0
			c-0.4-0.3-0.8-0.6-1.3-0.9c-0.2-0.1-0.3-0.2-0.5-0.3c0,0-0.1-0.1-0.1-0.1c0,0,0,0,0,0c0,0-0.1,0-0.1-0.1c-0.3-0.2-0.6-0.3-1-0.5
			c0,0,0,0,0,0c-0.3-0.2-0.7-0.3-1.1-0.5c-0.1,0-0.2-0.1-0.3-0.1c-0.3-0.1-0.6-0.2-0.9-0.3c-0.2-0.1-0.4-0.1-0.6-0.2
			c-0.2,0-0.3-0.1-0.5-0.1c-0.2,0-0.3-0.1-0.5-0.1c-0.1,0-0.3,0-0.5-0.1c-0.1,0-0.3,0-0.4,0c-0.3,0-0.5-0.1-0.8-0.1c0,0-0.1,0-0.1,0
			c0,0,0,0,0,0c-1.4-0.1-2.8,0.1-4.2,0.4c-1.9,0.5-3.5,1.3-4.9,2.2c-1.3,0.9-2.5,1.8-3.5,2.7c-0.4,0.4-0.8,0.7-1.1,1.1
			c-0.1-0.1-0.2-0.1-0.3-0.2c-0.1,0-0.1-0.1-0.2-0.1c0,0,0,0,0,0c-1.5-0.7-3.1-1.2-4.9-1.6c-2.4-0.5-5.3-0.7-8.2,0.1
			c-1.5,0.3-2.9,0.9-4.2,1.6c-1.3,0.7-2.5,1.5-3.5,2.4c-0.9,0.7-1.7,1.5-2.4,2.3c-0.4,0-0.9,0-1.4,0c0,0-0.1,0-0.1,0
			c-0.4,0-0.9,0.1-1.3,0.1c-0.2,0-0.5,0.1-0.7,0.1c-0.3,0.1-0.5,0.1-0.8,0.2c-0.7,0.2-1.4,0.4-2.1,0.7c-2.1,1-4,2.4-5.4,4.1
			c-1.5,1.6-2.5,3.4-3.4,5.3c-1.6,3.7-2.3,7.5-2.4,11.3c0,1.4,0.1,2.9,0.2,4.3l-9.9,29.1C136.2,375.6,135.5,376.4,134.8,377.3z
			 M192.1,341.1c0.3-0.6,0.6-1.3,0.9-1.9c0.8-1.7,1.5-3.5,2.3-5.1c0.1-0.3,0.3-0.6,0.4-0.8c0.3-0.6,0.6-1.2,0.8-1.8
			c0.1-0.2,0.2-0.4,0.3-0.6c0.4-0.8,0.8-1.6,1.2-2.4c0,0,0,0,0,0c0.3-0.6,0.6-1.1,0.8-1.6c0.1-0.1,0.1-0.2,0.2-0.3
			c0.3-0.5,0.5-1,0.8-1.4c0,0,0,0,0,0c0,0,0,0,0,0c0.2-0.3,0.4-0.6,0.6-0.9c0.1-0.1,0.2-0.3,0.3-0.4c0.1-0.1,0.1-0.2,0.2-0.3
			c0.2-0.2,0.3-0.4,0.4-0.6c0,0,0.1-0.1,0.1-0.1c0.1-0.2,0.2-0.3,0.3-0.4c0,0,0.1-0.1,0.1-0.1c0.1-0.1,0.1-0.2,0.1-0.2c0,0,0,0,0,0
			c0,0,0-0.1,0-0.1c0,0,0,0,0,0c0,0,0,0,0,0c0,0,0-0.1,0-0.1c0,0,0,0,0-0.1c0,0,0,0,0,0c0.1-0.1,0.2-0.1,0.4-0.1c0.1,0,0.2,0,0.3,0
			c0.1,0,0.2,0,0.3,0.1c0.2,0,0.4,0.1,0.6,0.2c0.1,0,0.2,0.1,0.3,0.1c0.7,0.3,1.5,0.8,2.3,1.3c0.1,0.1,0.2,0.2,0.3,0.2
			c0.3,0.2,0.4,0.3,0.4,0.3c0.3,0.2,0.5,0.4,0.8,0.5c0.1,0.1,0.3,0.1,0.5,0.2c-1.5,1.1-2.9,2.3-4.2,3.5c-1.9,1.8-3.7,3.6-5.3,5.4
			c-2.5,2.8-4.9,5.7-7.1,8.7C191.8,341.7,192,341.4,192.1,341.1z"/>
		<g>
			<g>
				<path class="st12" d="M167.7,318.2c-1.1-0.2-2.1-0.2-3,0c-0.8,0.2-1.5,0.5-1.9,1c-0.9,0.9-1.6,2.3-2,4.3
					c-0.3,1.9-0.2,4.1,0.3,6.2c0.5,2.1,1.4,4,2.5,5.5c2.7,3.8,1.8,9-2,11.7c-3.8,2.7-9,1.8-11.7-2c-0.4-0.6-0.8-1.3-1-1.9l-0.3-0.7
					c-1.4-3.8-2-7.7-2-11.6c0.1-3.8,0.8-7.7,2.4-11.4c0.8-1.8,1.9-3.6,3.4-5.3c1.5-1.6,3.3-3.1,5.4-4c2.1-1,4.5-1.3,6.6-1.2
					c2.1,0.1,4.1,0.7,5.8,1.4c2.1,0.9,3.1,3.4,2.2,5.5c-0.8,1.8-2.6,2.8-4.5,2.5L167.7,318.2z"/>
				<path class="st13" d="M170.1,310.3c0,0-0.1-0.1-0.4-0.2c-0.1,0-0.3-0.1-0.4-0.2c-0.2-0.1-0.3-0.2-0.7-0.3
					c-0.7-0.2-1.5-0.4-2.4-0.6c-0.9-0.2-2-0.2-3.3-0.2c-1.1,0.1-2.3,0.3-3.5,0.6c-3.4,2.8-9.8,18.1,5,30.3c0.2,0.4,0.4,0.8,0.6,1.2
					c0.3-2-0.1-4-1.3-5.8c0,0,0-0.1-0.1-0.2c-0.1-0.1-0.2-0.3-0.4-0.6c-0.2-0.3-0.4-0.6-0.6-1c-0.2-0.4-0.4-0.9-0.6-1.4
					c-0.2-0.5-0.4-1.2-0.6-1.8c-0.2-0.7-0.3-1.4-0.4-2.1c-0.2-1.5-0.2-3.1,0-4.5c0.1-0.7,0.3-1.4,0.5-2c0.2-0.6,0.5-1.1,0.8-1.5
					c0.3-0.4,0.6-0.7,0.9-1c0.3-0.3,0.7-0.5,1.1-0.6c0.4-0.1,0.8-0.2,1.3-0.3c0.5,0,0.8,0,1-0.1c0.1,0,0.4,0,0.5,0.1
					c0.2,0,0.3,0.1,0.5,0.1c0.3,0,0.4,0.1,0.4,0.1c1.9,0.3,3.8-0.7,4.6-2.5C173.3,313.6,172.3,311.1,170.1,310.3L170.1,310.3z"/>
				<path class="st12" d="M188.9,317.6c-2.9-1-5.8-1.7-7.8-1.4c-1,0.1-1.6,0.4-1.9,0.8c-0.3,0.4-0.5,0.7-0.9,1.4
					c-0.7,1.3-1.5,3.6-2.1,6.4c-0.6,2.7-1.1,5.8-1.4,8.9c-0.7,6.1-6.2,10.4-12.3,9.7c-6.1-0.7-10.4-6.2-9.7-12.3
					c0.1-1,0.4-1.9,0.7-2.8l0.1-0.2c1.4-3.4,2.9-6.9,4.8-10.5c1-1.8,2-3.6,3.4-5.5c1.3-1.8,2.9-3.8,5-5.5c1-0.9,2.3-1.7,3.5-2.4
					c1.3-0.7,2.7-1.2,4.2-1.6c2.9-0.7,5.8-0.6,8.2-0.1c2.4,0.5,4.5,1.4,6.3,2.3c1.8,0.9,3.5,2,5.1,3.1c2.5,1.7,3.2,5.2,1.4,7.7
					c-1.5,2.1-4.1,2.9-6.4,2.1L188.9,317.6z"/>
				<path class="st13" d="M192.5,306.8c-0.6-0.3-1.3-0.8-2.1-1.2c-0.8-0.5-1.7-0.9-2.9-1.4c-0.6-0.3-4.1,0.5-5.1,1.1
					c-2.8,1.9-5.4,3.7-7,6.7c-2.7,5.1-4.5,11.2-5.4,17c0,0.4-0.2,1.9-0.3,2.2c-0.1,1-0.2,1.9-0.3,2.9c-0.2,2.1-0.3,4.3-0.4,6.4
					c0,0.5,0,1,0,1.6c3.1-1.6,5.3-4.7,5.8-8.4c0,0,0.1-0.6,0.2-1.6c0.1-1,0.3-2.5,0.6-4.1c0.3-1.6,0.6-3.5,1.1-5.3
					c0.2-0.9,0.5-1.7,0.8-2.5c0.3-0.7,0.6-1.4,0.8-1.8c0.3-0.5,0.4-0.8,0.6-1.1c0.2-0.3,0.4-0.5,0.9-0.7c0.4-0.2,1-0.3,1.7-0.4
					c0.7-0.1,1.4,0,2.1,0.1c0.7,0.1,1.4,0.2,2.1,0.4c0.6,0.1,1.1,0.3,1.6,0.4c1.1,0.4,1.7,0.6,1.7,0.6l0,0c2.3,0.8,5,0,6.5-2.1
					c1.8-2.5,1.1-6-1.4-7.7C194,307.8,193.5,307.4,192.5,306.8z"/>
				<path class="st12" d="M206.9,313.2c-1.4-1-2.8-1.8-3.8-2.1c-0.5-0.1-0.8-0.1-1,0c-0.1,0.1-0.1,0.2-0.1,0.3
					c-0.1,0.1-0.2,0.4-0.5,0.7c-0.3,0.4-0.7,0.8-1.1,1.4c-0.8,1.2-1.6,2.7-2.5,4.3c-1.7,3.3-3.3,7-5,10.7c-1.7,3.8-3.5,7.7-5.4,11.6
					l0,0.1c-2.7,5.5-9.3,7.7-14.8,5c-5.5-2.7-7.7-9.3-5-14.8c0.4-0.7,0.8-1.4,1.3-2c2.5-3,4.9-6.2,7.3-9.5c2.5-3.3,5-6.7,7.9-10.3
					c1.5-1.8,3.1-3.6,5.1-5.4c1-0.9,2.2-1.8,3.5-2.7c1.4-0.9,3-1.7,4.9-2.2c1.9-0.5,4-0.6,5.9-0.2c1.9,0.4,3.5,1.1,4.9,1.8
					c2.7,1.6,4.4,3.5,6,5.3c2,2.3,1.8,5.8-0.5,7.8c-2,1.8-4.9,1.8-6.9,0.3L206.9,313.2z"/>
				<path class="st13" d="M214.5,305.2c0,0-0.1-0.1-0.4-0.4c-0.1-0.1-0.3-0.3-0.4-0.5c-0.1-0.1-0.2-0.2-0.3-0.3
					c-0.1-0.1-0.3-0.3-0.4-0.4c-0.3-0.3-0.7-0.7-1.1-1.1c-0.4-0.3-0.9-0.7-1.4-1.1c-0.5-0.4-1.1-0.8-1.8-1.2
					c-0.7-0.4-1.4-0.8-2.4-1.2c-1.2-0.5-2.8-0.9-4.4-1c-8.9,6.5-17.2,25.8-12,33.4c4.2,6.2-7.2,7-8.2,14.2c2.5-1,4.7-2.8,6-5.5
					c0,0,0.4-0.7,1-2c0.6-1.3,1.5-3.1,2.5-5.2c1-2.1,2.1-4.6,3.3-7.3c1.2-2.6,2.4-5.3,3.6-7.7c0.6-1.2,1.2-2.3,1.8-3.3
					c0.6-1,1.2-1.8,1.6-2.3c0.4-0.5,0.6-0.7,0.6-0.9c0-0.1,0-0.3,0.4-0.3c0.2,0,0.4,0.1,0.7,0.1c0.3,0.1,0.5,0.2,0.8,0.3
					c0.3,0.1,0.6,0.3,0.8,0.4c0.2,0.1,0.4,0.2,0.6,0.4c0.1,0.1,0.2,0.1,0.3,0.2c0.1,0.1,0.2,0.2,0.3,0.3c0.2,0.2,0.4,0.3,0.5,0.4
					c0.3,0.2,0.4,0.3,0.4,0.3c2.1,1.5,5,1.5,7-0.3C216.3,311,216.5,307.5,214.5,305.2L214.5,305.2z"/>
				<path class="st12" d="M230.2,330.6c-1-1.7-2-3.3-3.1-4.6c-1.1-1.3-2.3-2.3-3.1-2.5c-0.4-0.2-0.7-0.1-0.8,0l-0.4,0.3
					c-0.4,0.3-1.3,0.9-2.3,1.9c-2.1,2-4.3,5.2-6.2,8.6c-2,3.4-3.8,7.1-5.4,10.9c-2.5,5.6-9,8.1-14.6,5.6s-8.1-9-5.6-14.6
					c0.3-0.7,0.7-1.3,1.1-1.9l0.1-0.1c2.8-3.8,5.7-7.6,9-11.3c3.3-3.7,6.9-7.3,11.9-10.5c2.6-1.5,5.6-3.1,9.6-3.5
					c2-0.2,4.1,0,6.1,0.5c2,0.6,3.8,1.6,5.2,2.7c2.9,2.2,4.5,4.8,5.8,7.2c1.3,2.4,2.1,4.8,2.9,7.1c1,2.9-0.6,6-3.5,7
					c-2.5,0.8-5.2-0.3-6.5-2.5L230.2,330.6z"/>
				<path class="st13" d="M226.1,309.3c-0.5-0.1-1-0.2-1.5-0.3c-5.9,1-17,10.3-23,25.1c-3.2,7.9-0.1,10.6-3.5,17.5
					c4.4,0.2,8.8-2.2,10.7-6.5l0,0c0,0,0.3-0.7,0.9-1.9c0.6-1.2,1.4-3,2.4-5c0.5-1,1.1-2.1,1.7-3.2c0.6-1.1,1.3-2.2,2-3.4
					c0.7-1.1,1.5-2.2,2.2-3.3c0.8-1,1.6-1.9,2.3-2.7c0.8-0.8,1.5-1.3,1.9-1.6c0.5-0.3,0.6-0.5,0.7-0.6c0.2-0.1,0.6-0.1,1.2,0.2
					c0.6,0.2,1.3,0.9,1.9,1.4c0.3,0.3,0.6,0.7,0.9,1c0.3,0.4,0.5,0.7,0.8,1c0.5,0.7,0.8,1.2,1.2,1.7c0.7,1.3,1.1,2,1.1,2
					c1.3,2.2,4,3.3,6.6,2.5c2.9-1,4.5-4.1,3.6-7l0,0c0,0-0.3-0.8-0.7-2.2c-0.3-0.8-0.7-1.8-1.2-2.9c-0.3-0.5-0.5-1.1-0.8-1.7
					c-0.4-0.6-0.7-1.3-1.1-1.9c-0.9-1.4-1.9-2.9-3.6-4.4C231.3,311.6,229,310,226.1,309.3z"/>
				<path class="st12" d="M133.9,373c19.5-1.2,28.7,1.8,30.7,21l38.5-7.7l9.7-49.7l-64.2-6.5L133.9,373z"/>
				<path class="st13" d="M201.6,334.1c-4.4,9.7-7.9,20.2-10.4,31.3l5.4,22.2l6.4-1.3l9.7-49.7L201.6,334.1z"/>
				<path class="st12" d="M241.1,362.1c-2.4,0.7-5.6,2.8-8.7,5.3c-3.2,2.5-6.5,5.3-10,8.1c-3.6,2.8-7.5,5.6-12.2,7.9
					c-4.6,2.3-10.2,4.3-16.4,4.5l-1.2,0.1c-6.1,0.3-11.3-4.5-11.6-10.7c-0.3-6.1,4.5-11.3,10.7-11.6c1,0,2,0.1,2.9,0.3
					c2.3,0.5,5.3,0.4,8.6-0.4c3.3-0.8,6.9-2.3,10.5-4.1c3.7-1.8,7.5-3.8,11.6-5.8c1.1-0.5,2-1,3.2-1.5c1.1-0.5,2.2-1,3.5-1.4
					l1.8-0.6l2-0.5l1-0.2c0.4-0.1,0.7-0.1,1.1-0.1c0.8-0.1,1.5-0.2,2.2-0.2c3-0.2,5.6,2,5.9,5c0.2,2.6-1.4,4.9-3.8,5.7L241.1,362.1z
					"/>
			</g>
			<path class="st12" d="M170.6,356c-9.1-7.3-22.5-5.8-29.8,3.3l0,0c-14.3,17.9-28.9,35.4-43.9,52.7c-7.5,8.7-15.1,17.3-22.7,25.9
				c-7.6,8.7-15.4,17.4-23.2,26.7c-1.9,2.3-3.9,4.8-5.9,7.1c-2,2.4-3.9,5-5.9,7.6l-2.9,4.1l-1.5,2c-0.5,0.7-1,1.5-1.4,2.2l-2.9,4.4
				c-0.9,1.6-1.9,3.2-2.8,4.9c-0.5,1-1,2-1.6,3h66.5c0.5-0.7,1-1.5,1.5-2.2c6.3-9,13.1-18.2,20-27.6c6.9-9.3,13.8-18.7,20.6-28.2
				c13.7-19,27.2-38.2,40.1-57.7C181,375.3,179.3,362.9,170.6,356z"/>
		</g>
		<g>
			<linearGradient id="SVGID_5_" gradientUnits="userSpaceOnUse" x1="79.3381" y1="423.1206" x2="99.2754" y2="451.0328">
				<stop  offset="0" style="stop-color:#FFFFFF"/>
				<stop  offset="0.9721" style="stop-color:#ACE3DB"/>
			</linearGradient>
			<path class="st14" d="M128.2,374.9c-10.3,12.6-20.7,25-31.4,37.3c-7.5,8.7-15.1,17.3-22.7,26c-7.7,8.7-15.4,17.4-23.2,26.8
				c-1.9,2.3-3.9,4.8-5.9,7.2c-2,2.4-3.9,5-5.9,7.6l-2.9,4.1l-1.5,2c-0.5,0.7-1,1.5-1.4,2.2l-2.9,4.4l-2.8,4.9
				c-0.5,0.8-0.9,1.6-1.4,2.5l-0.1,0.2h66.6c0.5-0.7,1-1.5,1.6-2.3c6.3-9,13.1-18.3,20-27.6c6.9-9.3,13.8-18.7,20.7-28.2
				c9.5-13.1,18.8-26.3,27.9-39.7C172.7,385.7,139.9,366.8,128.2,374.9z"/>
			<linearGradient id="SVGID_6_" gradientUnits="userSpaceOnUse" x1="71.7132" y1="430.4906" x2="109.3943" y2="477.3997">
				<stop  offset="0" style="stop-color:#6F9FBB"/>
				<stop  offset="1" style="stop-color:#514F71"/>
			</linearGradient>
			<path class="st15" d="M112,389.5c-6.9,8.2-13.7,16.3-20.5,24.2c-6.5,7.5-13.2,15.2-19.7,22.5l-5.2,5.9c-6.9,7.8-14,15.8-21,24.3
				c-1.3,1.5-2.6,3.2-3.9,4.8c-0.7,0.8-1.3,1.6-2,2.5c-1.5,1.8-2.9,3.7-4.3,5.6l-1.6,2l-3,4.2l-1.5,2.1c-0.3,0.5-0.7,1-1,1.6
				l-3.4,5.3l-2.9,5.1c-0.1,0.2-0.2,0.4-0.3,0.5h77.3c5-7,10.2-14.2,15.4-21.2l4.1-5.5c5.9-8.1,12.1-16.4,18.1-24.7
				c7.1-9.8,14.2-19.8,21.2-30C166.3,405.1,136.3,377,112,389.5z"/>
		</g>
		<path class="st16" d="M243.1,354.2c-0.1-0.1-0.1-0.1-0.2-0.2c-0.1-0.1-0.1-0.1-0.2-0.1c-0.1,0-0.2,0-0.3,0.1
			c-2.1,1.1-4.4,2.2-6.1,3.8c-0.1,0.1-0.1,0.1-0.2,0.2c0,0.1-0.1,0.2-0.1,0.2c-0.2,1.6,0,3.3,0.8,4.8c0.2,0.4,3-0.6,3.4-0.7
			c1-0.3,3-0.7,3.7-1.4c0.7-0.7,0.6-2.8,0.5-3.7C244.2,356.1,243.8,355,243.1,354.2z"/>
	</g>
	<g>
		<path class="st11" d="M289.7,352.3l0.8,0.6c0.8,0.5,1.6,1.3,2.6,2.6c0.9,1.2,1.8,2.7,2.7,4.3c1.8,3.2,3.5,6.9,5.6,10.7
			c1.2,2.2,2.5,4.5,4.1,6.9h69.9c15.2,0,27.5-12.3,27.5-27.5v-31l-7.9-3.5c-0.2-0.1-3.6-2.1-3.9-2.2c-0.1,0-0.2-0.1-0.3-0.1
			c0,0,0,0-0.1,0c-0.3-0.1-0.5-0.2-0.7-0.3c0,0,0,0,0,0c-1.4-0.5-2.7-1-4.1-1.4c-1.3-0.4-2.8-0.3-4,0.2c0,0,0,0,0,0
			c-0.4-0.8-0.8-1.5-1.3-2.2c0-0.1-0.1-0.1-0.2-0.2c-0.2-0.3-0.4-0.5-0.6-0.7c-0.1-0.1-0.2-0.3-0.4-0.4c-0.3-0.3-0.5-0.6-0.8-0.8
			c0,0,0-0.1-0.1-0.1c0,0-0.1-0.1-0.2-0.1c-0.3-0.2-0.5-0.5-0.8-0.7c-0.1-0.1-0.1-0.1-0.2-0.2c0,0-0.1,0-0.1-0.1c0,0-0.1,0-0.1-0.1
			c0,0,0,0,0,0c-1-0.8-2.1-1.5-3.1-1.9l-1.1-0.5l-1.1-0.4c-0.7-0.3-1.5-0.5-2.2-0.6c-2.8-0.6-5.4-0.8-7.9-0.8
			c-2.6,0-4.9,1.7-5.5,4.3c-0.7,3,1.2,5.9,4.2,6.6l0.2,0.1c1.9,0.4,3.7,0.9,5.1,1.6c1.4,0.7,2.3,1.5,2.4,2c0.1,0.3,0.1,0.5,0.1,0.8
			c0,0.3,0,0.7-0.1,1.3c-0.1,1.1-0.5,2.7-1,4.4c-1.1,3.4-2.8,7.3-4.5,11.3c-0.8,1.8-1.6,3.7-2.4,5.6l-1.2-0.5c0-0.1,0-0.2,0-0.3
			c0-0.1,0-0.2,0-0.3c0-1,0-2.1-0.1-3.4v0c0-0.6,0-1.2-0.1-1.8c0-0.5,0-0.9-0.1-1.4c0-0.2,0-0.3,0-0.5c0-0.9-0.1-2-0.2-3
			c0-0.2,0-0.3,0-0.5c0-0.2,0-0.3,0-0.5c-0.1-1-0.1-1.9-0.2-3c0-0.1,0-0.2,0-0.3c0-0.1,0-0.1,0-0.2c-0.1-1.2-0.3-2.3-0.4-3.6
			c0,0,0,0,0,0c0,0,0,0,0,0c-0.1-0.6-0.2-1.3-0.3-2c0-0.1,0-0.2,0-0.2c-0.3-1.4-0.6-2.8-1-4.3c0-0.1-0.1-0.2-0.1-0.4
			c-0.2-0.5-0.3-1-0.5-1.5c-0.2-0.4-0.3-0.7-0.4-1.1c0-0.1,0-0.1-0.1-0.2c-0.1-0.2-0.1-0.4-0.2-0.5c-0.1-0.2-0.2-0.3-0.3-0.5
			c0-0.1-0.1-0.1-0.1-0.2c-0.2-0.4-0.4-0.8-0.6-1.2c-0.2-0.3-0.4-0.7-0.7-1c-0.1-0.1-0.1-0.2-0.2-0.3c-0.3-0.5-0.8-1-1.2-1.5
			c-0.1-0.1-0.2-0.2-0.4-0.4c-0.2-0.2-0.4-0.4-0.7-0.6c-0.1,0-0.1-0.1-0.2-0.1c-0.5-0.4-1-0.8-1.6-1.2c0,0-0.1,0-0.1-0.1
			c-0.2-0.2-0.5-0.3-0.7-0.4c-0.3-0.2-0.6-0.3-1-0.5c0,0,0,0,0,0c0,0,0,0-0.1,0c-0.2-0.1-0.4-0.2-0.6-0.3c-0.1,0-0.2-0.1-0.4-0.1
			c-0.2-0.1-0.4-0.1-0.6-0.2c-0.1,0-0.1,0-0.2,0c0,0,0,0,0,0c0,0-0.1,0-0.1,0c-0.6-0.1-1.2-0.3-1.8-0.3c0,0,0,0-0.1,0
			c-0.1,0-0.1,0-0.2,0c-0.1,0-0.3,0-0.4,0c-0.1,0-0.1,0-0.2,0c-0.9,0-1.8,0-2.5,0.1c-0.5,0.1-1,0.1-1.5,0.2l-1.3,0.3
			c-0.5,0.1-0.8,0.3-1.2,0.4l-1.1,0.4c-2.9,1.3-5,2.8-7.1,4.3c-2.1,1.5-3.8,3.2-5.6,4.8c-2.1,1.9-2.5,5.3-0.4,7.7
			c1.8,2.1,4.9,2.4,7.2,1l0,0c1.8-1.1,3.7-2.2,5.5-3c1.8-0.9,3.6-1.6,5-1.8l0.1,0c0,0.2,0.1,0.6,0.1,1.1c0.1,1.2,0.1,3,0,4.9
			c-0.1,1.9-0.3,3.9-0.6,6c-0.2,1.5-0.5,3.1-0.7,4.6L323.4,369c-0.2-0.2-0.5-0.3-0.7-0.5c-2.5-1.8-5-4.3-7.6-7.3
			c-2.6-2.9-5.1-6.2-8.1-9.6c-1.5-1.7-3.2-3.4-5.2-5.1c-2-1.6-4.5-3.3-7.6-4.1c-2.3-0.6-4.8,0.3-6.2,2.4
			C286.4,347.4,287.3,350.7,289.7,352.3z M382.1,336.2c0-0.2,0.1-0.3,0.1-0.5c0.1-0.6,0.2-1.2,0.4-1.9c0,0,0-0.1,0-0.1
			c0.3-1.5,0.6-3,0.8-4.6c0.1-0.4,0.1-0.8,0.2-1.2c0.1-0.8,0.2-1.5,0.3-2.3c0-0.4,0.1-0.7,0.1-1.1c0-0.2,0-0.5,0-0.7
			c0-0.3,0-0.7,0.1-1c0.8,0.5,1.6,1,2.3,1.6c1.3,1,2.4,2.1,2.7,2.9c0.2,0.4,0.2,0.6,0.1,0.7c-0.1,0.1-0.2,0-0.3,0.1
			c-0.2,0.2-0.7,1-1.6,2.2c-1.3,1.8-3.2,3.8-5.2,6.1C382.1,336.4,382.1,336.3,382.1,336.2z"/>
		<g>
			<g>
				<path class="st12" d="M323.3,300.5c1.8-1.6,3.6-3.3,5.6-4.8c2-1.5,4.2-3,7-4.3c1.5-0.6,3-1.2,5.1-1.4c0.9-0.2,2.2-0.1,3.3-0.1
					c1.2,0.2,2.5,0.4,3.8,1c2.5,1,4.6,2.9,5.9,4.7c1.3,1.8,2.1,3.5,2.7,5c1.2,3.1,1.6,5.9,2.1,8.5c0.4,2.6,0.6,5.1,0.8,7.6
					c0.3,4.9,0.4,9.6,0.5,14.2l0,0c0.1,6.1-4.8,11.1-10.9,11.2c-6.1,0.1-11.1-4.8-11.2-10.9c0-0.7,0.1-1.5,0.2-2.2
					c0.8-4.4,1.6-8.7,2.2-12.8c0.3-2.1,0.5-4.1,0.6-6c0.1-1.9,0.1-3.7,0-4.9c-0.1-0.6-0.1-1-0.1-1.1c0-0.1,0.4,0.2,0.9,0.3
					c0.1,0,0.3,0,0.3,0c0.1,0,0.1,0,0.2,0c0,0,0.1-0.1-0.1-0.1c-0.2-0.1-0.8-0.1-1.5,0c-1.4,0.3-3.2,1-5,1.8c-1.8,0.8-3.6,1.9-5.5,3
					l-0.2,0.1c-2.6,1.6-6,0.7-7.6-1.9C320.9,305.2,321.4,302.3,323.3,300.5z"/>
				<path class="st12" d="M362.5,290.4c2.5,0,5.1,0.2,7.9,0.8c0.7,0.2,1.4,0.3,2.1,0.6l1.1,0.4l1.1,0.5c1.5,0.7,3,1.7,4.4,3
					c1.4,1.3,2.6,3,3.4,4.8c0.8,1.7,1.3,3.5,1.6,5.1c0.5,3.3,0.4,6.1,0.1,8.8c-0.5,5.2-1.6,9.8-2.4,14.1c-0.9,4.4-1.7,8.5-2.3,12.5
					c-0.9,6-6.5,10.2-12.5,9.3c-6-0.9-10.2-6.5-9.3-12.5c0.1-0.7,0.3-1.5,0.5-2.2l0.1-0.2c1.6-4.5,3.5-8.7,5.2-12.8
					c1.7-4,3.4-7.9,4.5-11.3c0.5-1.7,0.9-3.3,1-4.3c0.1-0.6,0.1-0.9,0.1-1.3c0-0.3,0-0.5-0.1-0.8c-0.2-0.5-1-1.4-2.5-2
					c-1.4-0.7-3.2-1.2-5.1-1.6l-0.2-0.1c-3-0.7-4.9-3.6-4.2-6.6C357.7,292.1,360,290.4,362.5,290.4z"/>
				<path class="st12" d="M386.6,300.1c2.1,0.7,4.3,1.4,6.5,2.4c2.2,1.1,4.5,2.3,6.9,4.6c1.2,1.1,2.3,2.6,3.2,4.4
					c0.8,1.8,1.3,3.9,1.4,5.9c0,1.9-0.2,3.8-0.7,5.3c-0.2,0.8-0.4,1.5-0.7,2.2c-0.2,0.7-0.5,1.3-0.8,1.9c-1,2.4-2.1,4.5-3.2,6.4
					c-1,1.9-2,3.7-2.9,5.4c-1.8,3.4-3.1,6.6-3.8,9.5c-1.5,5.9-7.5,9.6-13.4,8.1c-5.9-1.5-9.6-7.5-8.1-13.4c0.2-0.9,0.5-1.7,0.9-2.4
					l0.3-0.6c2.4-4.6,5.4-8.5,8.2-11.9c2.8-3.3,5.6-6.3,7.4-8.7c0.9-1.2,1.3-2,1.5-2.2c0.1-0.1,0.2,0,0.3-0.1c0-0.1,0.1-0.3-0.1-0.7
					c-0.4-0.8-1.5-1.9-2.8-2.9c-1.3-1-2.9-2-4.5-2.9l-0.3-0.2c-2.6-1.6-3.5-5-1.9-7.6C381.5,300.3,384.2,299.3,386.6,300.1z"/>
				<path class="st12" d="M395.8,322.8c1.5,1,3,1.9,4.5,3.1c1.5,1.1,3,2.5,4.4,4.1c1.4,1.7,2.8,3.9,3.4,7c0.2,1.5,0.2,3.3-0.2,4.9
					c-0.2,0.8-0.5,1.5-0.8,2.2c-0.3,0.6-0.7,1.4-1.1,1.9c-1.5,2.3-3.3,3.9-4.9,5.2c-1.6,1.3-3.2,2.4-4.8,3.4c-3.1,2-6,3.7-8.5,5.4
					c-3.8,2.6-9,1.6-11.6-2.2c-2.6-3.8-1.6-9,2.2-11.6c0.5-0.3,1-0.6,1.5-0.8l0.2-0.1c3.4-1.4,6.6-2.5,9.4-3.6
					c1.4-0.6,2.7-1.1,3.9-1.7c1.1-0.6,2-1.2,2.5-1.5c0.2-0.1,0.2-0.1,0.3-0.2c0,0,0.1-0.1,0.2-0.1c0.1,0,0.2,0,0.3-0.1
					c0.2-0.2,0-1.1-0.5-2.2c-0.5-1-1.3-2.2-2.3-3.3c-0.9-1.1-2-2.2-3.2-3.3l-0.1-0.1c-1.7-1.6-1.7-4.3-0.1-5.9
					C392,322,394.2,321.7,395.8,322.8z"/>
				<path class="st12" d="M386.7,390.7c-14.8-12.6-29.6-10.7-42.9,3.5l-27.3-18.9l23.5-55.7l57.7,24L386.7,390.7z"/>
				<path class="st13" d="M380,372.2c2.3,2.2,0,11.1-0.9,13.3c2.5,1.3,5,3,7.6,5.2l12.1-46.6l-44-18.3c-0.1,3.7-0.3,9.3,0.3,14.1
					C354.8,346.5,363.4,356.7,380,372.2z"/>
				<path class="st13" d="M360,330.9c0,0,0-0.9,0-2.4c0-1.5-0.1-3.7-0.2-6.4c-0.1-2.7-0.3-5.8-0.6-9.3c-0.2-1.8-0.4-3.6-0.8-5.6
					c-0.4-2-0.8-4.1-1.7-6.4c-0.2-0.6-0.5-1.2-0.7-1.8c-0.3-0.6-0.6-1.2-1-1.9c-0.8-1.3-1.8-2.7-3.2-3.9c-0.7-0.6-1.5-1.2-2.4-1.7
					c-0.9-0.5-1.8-0.8-2.7-1.1c-0.9-0.2-1.9-0.4-2.7-0.4c-0.4,0-0.8,0-1.2,0c0.2,0.2,0.3,0.5,0.4,0.7c1.1,0.4,2.1,0.9,3,1.5
					c2.9,1.5,5.2,4.2,6.4,7.8c3.4,10.4,2.5,21.6,2.3,32.4c0,1.8-0.4,3.3,0.4,5.1c0.2,0.3,0.4,0.7,0.7,0.9
					C358.7,339.7,360,332.3,360,330.9z"/>
				<path class="st13" d="M379,322.5c-1.4,6.1-2.5,13.7-10.8,11.2c-3.3-1,3.6,13.2,2.9,16.4c4.3-1,7.7-4.5,8.4-9l0,0
					c0,0,0.1-0.8,0.3-2.1c0.2-1.3,0.5-3.3,1-5.6c0.5-2.4,1.1-5.3,1.7-8.3c0.3-1.6,0.6-3.2,0.9-5c0.3-1.8,0.6-3.6,0.8-5.6
					c0.2-2,0.3-4,0.1-6.3c-0.2-2.3-0.6-4.8-1.7-7.2c-1.1-2.5-2.8-4.7-4.8-6.2c0,0-0.1,0-0.1-0.1C383.4,302.6,381.1,313.4,379,322.5z
					"/>
				<path class="st13" d="M397.9,335.8c0.7-1.3,1.5-2.7,2.2-4.1c0.8-1.5,1.6-3,2.4-4.9c0.8-1.8,1.5-3.9,1.9-6.5
					c0.2-1.3,0.2-2.7,0.1-4.2c-0.2-1.4-0.6-2.9-1.1-4.2c-1.1-2.6-2.8-4.4-4.3-5.7c-0.7-0.6-1.5-1.2-2.2-1.6c-0.4-0.2-0.7-0.4-1-0.7
					c-0.3-0.2-0.7-0.4-1-0.5c-1.3-0.7-2.4-1.2-3.4-1.6c-0.3-0.1-0.5-0.2-0.7-0.3c7.7,4.3,12.1,13.5,7.5,22.6
					c-5.4,10.8-11.5,21.8-18.2,32c5.7,1,11.2-2.5,12.7-8.1c0,0,0.1-0.5,0.4-1.5c0.3-1,0.8-2.4,1.6-4.2c0.4-0.9,0.9-1.9,1.4-3
					C396.6,338.2,397.2,337.1,397.9,335.8z"/>
				<path class="st13" d="M408.3,339.4c0.1-2.5-0.6-4.6-1.4-6.2c-0.8-1.7-1.8-2.8-2.7-3.9c-0.2-0.2-0.4-0.4-0.6-0.6
					c1,3.3,0.8,6.9-1.2,10.3c-4.1,7.2-12.4,10-19.8,12.8c-2.7,1-5.3,0.4-7.3-1c-0.7,2.3-0.4,4.8,1.1,6.9c2.6,3.8,7.8,4.8,11.6,2.3
					l0,0c0,0,0.5-0.3,1.3-0.9c0.9-0.6,2.2-1.4,3.8-2.4c1.6-1,3.7-2.3,5.9-3.9c1.1-0.8,2.3-1.7,3.5-2.8c1.2-1.1,2.5-2.4,3.6-4.2
					C407.3,344.2,408.3,341.8,408.3,339.4z"/>
				<path class="st12" d="M294.6,331.2c3.1,0.9,5.6,2.5,7.6,4.1c2,1.7,3.7,3.4,5.2,5.1c3,3.4,5.6,6.7,8.1,9.6
					c2.5,2.9,5.1,5.5,7.6,7.3c2.5,1.8,4.8,2.6,6.8,2.7c6.2,0.3,10.9,5.6,10.6,11.8c-0.3,6.2-5.6,10.9-11.8,10.6
					c-1.1-0.1-2.2-0.3-3.3-0.7l-1.7-0.6c-2.9-1.1-5.6-2.6-7.9-4.3c-2.3-1.7-4.3-3.7-6-5.6c-3.4-3.9-5.8-8-7.8-11.8
					c-2.1-3.8-3.8-7.5-5.6-10.7c-0.9-1.6-1.8-3.1-2.7-4.3c-0.9-1.2-1.8-2-2.6-2.6l-1-0.7c-2.5-1.7-3.1-5.1-1.4-7.6
					C290,331.4,292.4,330.6,294.6,331.2z"/>
			</g>
			<path class="st12" d="M379.1,443.8c6.3,8.1,12.6,16.1,18.5,23.8c2.9,3.8,5.7,7.6,8,11.1c0.6,0.9,1.2,1.8,1.7,2.6l1.5,2.5l0.4,0.6
				l0.3,0.6l0.6,1.2l0.6,1.2c0.2,0.4,0.3,0.7,0.5,1.1c0.3,0.7,0.6,1.4,0.8,2c0.2,0.6,0.4,1.2,0.6,1.8c0.2,1.1,0.5,2,0.4,2.9
				c0.1,1.5,0,2.9-0.4,4.9h57.1c-0.1-5.3-0.7-10.9-1.9-16.2c-0.9-4.1-2.3-7.9-3.8-11.6c-0.8-1.7-1.6-3.5-2.4-5.2
				c-0.8-1.7-1.7-3.1-2.6-4.7c-3.6-6-7.4-11.1-11.1-15.5c-3.7-4.5-7.4-8.5-11-12.4c-7.2-7.7-14.2-14.9-21-22.1
				c-13.7-14.4-26.8-28.9-39.6-44.1l-0.1-0.1c-6.9-8.2-19.1-10-28.1-3.8c-9.7,6.6-12.2,19.8-5.6,29.5
				C354.2,410.8,366.5,427.6,379.1,443.8z"/>
		</g>
		<g>
			<linearGradient id="SVGID_7_" gradientUnits="userSpaceOnUse" x1="351.3068" y1="434.8564" x2="400.3769" y2="442.8861">
				<stop  offset="0" style="stop-color:#FFFFFF"/>
				<stop  offset="0.9721" style="stop-color:#ACE3DB"/>
			</linearGradient>
			<path class="st17" d="M379.1,443.7c6.3,8.1,12.6,16.1,18.5,23.8l2.1,2.9l1.1,1.4l1,1.4l2,2.8c0.7,0.9,1.2,1.8,1.8,2.7l0.9,1.3
				l0.4,0.7l0.4,0.6l1.5,2.5c0.3,0.4,0.5,0.8,0.7,1.2l0.6,1.2l0.6,1.2c0.2,0.4,0.3,0.7,0.5,1.1l0.4,1c0.1,0.3,0.3,0.7,0.4,1
				c0.2,0.6,0.4,1.2,0.6,1.8c0.1,0.5,0.2,1,0.3,1.5l0.1,0.4l0,0.3c0,0.2,0,0.5,0,0.7c0.1,1.5,0,3-0.4,4.9h57.3
				c-0.1-5.2-0.6-10.7-1.9-16l-0.8-3l-0.4-1.5l-0.5-1.4c-0.7-1.9-1.3-3.8-2.1-5.6c-0.8-1.7-1.6-3.5-2.4-5.2
				c-0.4-0.9-0.9-1.6-1.3-2.4l-1.3-2.3c-0.4-0.8-0.9-1.6-1.4-2.3l-1.4-2.1l-1.4-2.1c-0.5-0.7-0.9-1.4-1.4-2l-2.8-3.7l-0.7-0.9
				l-0.7-0.8l-1.4-1.7c-0.9-1.1-1.9-2.3-2.8-3.3l-2.8-3.1l-1.4-1.6l-1.4-1.5l-2.7-3c-7.2-7.8-14.2-14.9-21.1-22.2
				c-6.7-7-13.2-14.1-19.6-21.2c0,0-0.1,0-0.1,0c-10.9-14-45.7-2.8-43.6,17.2C361.3,420.4,370.1,432.2,379.1,443.7z"/>
			<linearGradient id="SVGID_8_" gradientUnits="userSpaceOnUse" x1="375.5852" y1="381.3208" x2="468.8885" y2="537.9373">
				<stop  offset="0" style="stop-color:#6F9FBB"/>
				<stop  offset="1" style="stop-color:#514F71"/>
			</linearGradient>
			<path class="st18" d="M385,457.7c3.9,5,7.6,9.8,11.2,14.5l3.2,4.2l3,4.2c0.4,0.5,0.7,1,1.1,1.5c0.2,0.3,0.5,0.7,0.7,1l1.3,1.9
				l1.9,3.2c0.2,0.2,0.3,0.5,0.5,0.9l0.6,1.2l0.6,1.1c0.1,0.1,0.1,0.2,0.1,0.3c0.1,0.2,0.1,0.4,0.2,0.5l0.4,1
				c0.1,0.2,0.1,0.3,0.2,0.5l0,0.1c0.2,0.6,0.4,1.2,0.6,1.8c0,0.1,0,0.2,0,0.3c0.1,0.4,0.1,0.7,0.2,1c0,0.2,0,0.5,0,0.7
				c0,0.8,0,1.6-0.1,2.5h65.5c-0.2-4.5-0.7-9.6-2-14.9l-0.8-3.1l-0.4-1.6l-0.6-1.6l-0.2-0.7c-0.6-1.7-1.2-3.4-1.9-5.1l-0.1-0.1
				c-0.8-1.8-1.6-3.5-2.4-5.2c-0.4-0.8-0.8-1.5-1.1-2.1l-1.7-3l-0.4-0.7c-0.3-0.6-0.7-1.2-1.1-1.8l-1.4-2.1l-1.4-2
				c-0.5-0.7-1-1.5-1.5-2.2l-2.8-3.7l-0.7-0.9c0,0-2.8-3.4-3.1-3.8c-0.7-0.8-1.3-1.6-1.9-2.3l-4.2-4.8l-4.1-4.5
				c-4.5-4.8-9-9.5-13.3-14c-2.6-2.8-5.3-5.5-7.9-8.2c-3.9-4-7.7-8.1-11.4-12.2c-6.4-1.4-12.8-1.5-19.4,0.3
				c-2.5,0.7-5.1,1.4-7.5,2.4c-0.1,0.1-1.6,0.8-2,1c-0.9,0.5-1.7,0.9-2.6,1.4c-0.9,0.6-1.9,1.2-2.8,1.8c-0.1,0.1-0.3,0.3-0.5,0.4
				c-1.5,1.4-2.9,2.8-4.3,4.3c-0.2,0.2-0.2,0.2-0.3,0.3c-0.1,0.1-0.1,0.2-0.2,0.4c-0.5,0.7-1,1.5-1.5,2.2c-1.2,1.9-2.2,3.9-3.2,5.8
				c-0.1,0.2-0.2,0.3-0.2,0.5c-0.4,0.9-0.7,1.9-1.1,2.8c-0.6,1.7-1.2,3.5-1.7,5.3c5,6.7,10.1,13.4,15.3,20.1
				C380.2,451.5,382.6,454.6,385,457.7z"/>
		</g>
		<path class="st16" d="M288.3,336.8c-0.2,0.9-0.3,1.9,0.2,2.7c0.4,0.6,1,0.9,1.6,1.3c1.6,0.9,3.2,1.8,4.9,2.8
			c0.1,0,0.2,0.1,0.3,0.1c0.2,0,0.3-0.2,0.3-0.3c0.2-0.4,0.5-0.9,0.7-1.3c0.2-0.3,0.3-0.6,0.4-0.9c0-0.4-0.1-0.8-0.3-1.2
			c-1.1-2.2-2.6-4-4.6-5.5c-1.2-0.9-1.1-1-2-0.3C288.9,334.8,288.6,335.8,288.3,336.8z"/>
	</g>
</g>
</svg>
