<?xml version="1.0" encoding="utf-8"?>
<!-- Generator: Adobe Illustrator 25.2.1, SVG Export Plug-In . SVG Version: 6.00 Build 0)  -->
<svg version="1.1" id="Layer_1" xmlns="http://www.w3.org/2000/svg" xmlns:xlink="http://www.w3.org/1999/xlink" x="0px" y="0px"
	 width="1000px" height="1000px" viewBox="0 0 1000 1000" style="enable-background:new 0 0 1000 1000;" xml:space="preserve">
<style type="text/css">
	.st0{fill:#86D6FF;}
	.st1{fill:#FFFFFF;}
	.st2{fill:#1F202D;}
	.st3{fill:url(#SVGID_1_);}
	.st4{fill:#A4B4C0;}
	.st5{fill:#48546E;}
	.st6{fill:url(#SVGID_2_);}
	.st7{fill:url(#SVGID_3_);}
	.st8{fill:#D8DFE4;}
	.st9{fill:#93A7B8;}
	.st10{fill:url(#SVGID_4_);}
	.st11{fill:#4C5966;}
	.st12{fill:#FEB782;}
	.st13{fill:#F09F70;}
	.st14{fill:url(#SVGID_5_);}
	.st15{fill:url(#SVGID_6_);}
	.st16{fill:#FFDCB8;}
	.st17{fill:url(#SVGID_7_);}
	.st18{fill:url(#SVGID_8_);}
</style>
<g>
	<rect y="0.1" class="st0" width="1000" height="999.8"/>
	<g>
		<path class="st1" d="M805.8,550.5v-137c0-30-24.2-54.2-54.2-54.2H299.2c-30,0-54.2,24.2-54.2,54.2v137c0,30,24.2,54.2,54.2,54.2
			h452.4C781.6,604.7,805.8,580.5,805.8,550.5z"/>
		<path class="st0" d="M751.6,407.8H299.2c-30,0-54.2,24.2-54.2,54.2v8.2c0-30,24.2-54.2,54.2-54.2h452.4c30,0,54.2,24.2,54.2,54.2
			V462C805.8,432.2,781.6,407.8,751.6,407.8z"/>
		<rect x="340.8" y="359.2" class="st2" width="369.4" height="48.4"/>
		
			<linearGradient id="SVGID_1_" gradientUnits="userSpaceOnUse" x1="525.5" y1="376.6225" x2="525.5" y2="576.9478" gradientTransform="matrix(1 0 0 -1 0 1000)">
			<stop  offset="0" style="stop-color:#FFFFFF"/>
			<stop  offset="0.9744" style="stop-color:#86D6FF"/>
		</linearGradient>
		<path class="st3" d="M245,535.3v164c0,30.6,24.8,55.6,55.6,55.6h449.8c30.6,0,55.6-24.8,55.6-55.6v-164
			c0-30.6-24.8-55.6-55.6-55.6H300.6C270,479.8,245,504.7,245,535.3z"/>
		<g>
			<path class="st2" d="M302.4,735.1h446.2c13.8,0,25-11.2,25-25V540.9c0-13.8-11.2-25-25-25H302.4c-13.8,0-25,11.2-25,25v169.2
				C277.4,723.9,288.4,735.1,302.4,735.1z"/>
			<g>
				<g>
					<ellipse class="st4" cx="344.4" cy="543.7" rx="15.4" ry="15.4"/>
					<ellipse class="st4" cx="380.8" cy="543.7" rx="15.4" ry="15.4"/>
					<ellipse class="st4" cx="417.2" cy="543.7" rx="15.4" ry="15.4"/>
					<ellipse class="st4" cx="453.6" cy="543.7" rx="15.4" ry="15.4"/>
					<ellipse class="st4" cx="490.2" cy="543.7" rx="15.4" ry="15.4"/>
					
						<ellipse transform="matrix(1.241278e-03 -1 1 1.241278e-03 -17.7945 1069.6659)" class="st4" cx="526.6" cy="543.7" rx="15.4" ry="15.4"/>
					<ellipse class="st4" cx="563" cy="543.7" rx="15.4" ry="15.4"/>
					<ellipse class="st4" cx="599.4" cy="543.7" rx="15.4" ry="15.4"/>
					<ellipse class="st4" cx="635.8" cy="543.7" rx="15.4" ry="15.4"/>
					<ellipse class="st4" cx="672.2" cy="543.7" rx="15.4" ry="15.4"/>
					<ellipse class="st4" cx="708.6" cy="543.7" rx="15.4" ry="15.4"/>
					<ellipse class="st4" cx="745" cy="543.7" rx="15.4" ry="15.4"/>
				</g>
				<g>
					<ellipse class="st4" cx="325.4" cy="581.9" rx="15.4" ry="15.4"/>
					<ellipse class="st4" cx="361.8" cy="581.9" rx="15.4" ry="15.4"/>
					<ellipse class="st4" cx="398.2" cy="581.9" rx="15.4" ry="15.4"/>
					<ellipse class="st4" cx="434.6" cy="581.9" rx="15.4" ry="15.4"/>
					<ellipse class="st4" cx="471" cy="581.9" rx="15.4" ry="15.4"/>
					<ellipse class="st4" cx="507.4" cy="581.9" rx="15.4" ry="15.4"/>
					<ellipse class="st4" cx="543.8" cy="581.9" rx="15.4" ry="15.4"/>
					<ellipse class="st4" cx="580.2" cy="581.9" rx="15.4" ry="15.4"/>
					<ellipse class="st4" cx="616.6" cy="581.9" rx="15.4" ry="15.4"/>
					<ellipse class="st4" cx="653.2" cy="581.9" rx="15.4" ry="15.4"/>
					<ellipse class="st4" cx="689.6" cy="581.9" rx="15.4" ry="15.4"/>
					<ellipse class="st4" cx="726" cy="581.9" rx="15.4" ry="15.4"/>
				</g>
				<g>
					<path class="st4" d="M292.6,620.1c0,8.4,6.8,15.4,15.4,15.4s15.4-6.8,15.4-15.4c0-8.4-6.8-15.4-15.4-15.4
						S292.6,611.5,292.6,620.1z"/>
					<path class="st4" d="M329,620.1c0,8.4,6.8,15.4,15.4,15.4s15.4-6.8,15.4-15.4c0-8.4-6.8-15.4-15.4-15.4S329,611.5,329,620.1z"
						/>
					<path class="st4" d="M365.4,620.1c0,8.4,6.8,15.4,15.4,15.4s15.4-6.8,15.4-15.4c0-8.4-6.8-15.4-15.4-15.4
						S365.4,611.5,365.4,620.1z"/>
					<path class="st4" d="M401.8,620.1c0,8.4,6.8,15.4,15.4,15.4s15.4-6.8,15.4-15.4c0-8.4-6.8-15.4-15.4-15.4
						S401.8,611.5,401.8,620.1z"/>
					<path class="st4" d="M438.4,620.1c0,8.4,6.8,15.4,15.4,15.4s15.4-6.8,15.4-15.4c0-8.4-6.8-15.4-15.4-15.4
						S438.4,611.5,438.4,620.1z"/>
					<path class="st4" d="M474.8,620.1c0,8.4,6.8,15.4,15.4,15.4c8.4,0,15.4-6.8,15.4-15.4c0-8.4-6.8-15.4-15.4-15.4
						C481.6,604.7,474.8,611.5,474.8,620.1z"/>
					<path class="st4" d="M511.2,620.1c0,8.4,6.8,15.4,15.4,15.4c8.4,0,15.4-6.8,15.4-15.4c0-8.4-6.8-15.4-15.4-15.4
						S511.2,611.5,511.2,620.1z"/>
					<path class="st4" d="M547.6,620.1c0,8.4,6.8,15.4,15.4,15.4s15.4-6.8,15.4-15.4c0-8.4-6.8-15.4-15.4-15.4
						S547.6,611.5,547.6,620.1z"/>
					<path class="st4" d="M584,620.1c0,8.4,6.8,15.4,15.4,15.4s15.4-6.8,15.4-15.4c0-8.4-6.8-15.4-15.4-15.4S584,611.5,584,620.1z"
						/>
					<path class="st4" d="M620.4,620.1c0,8.4,6.8,15.4,15.4,15.4s15.4-6.8,15.4-15.4c0-8.4-6.8-15.4-15.4-15.4
						S620.4,611.5,620.4,620.1z"/>
					<path class="st4" d="M656.8,620.1c0,8.4,6.8,15.4,15.4,15.4s15.4-6.8,15.4-15.4c0-8.4-6.8-15.4-15.4-15.4
						S656.8,611.5,656.8,620.1z"/>
					<path class="st4" d="M693.2,620.1c0,8.4,6.8,15.4,15.4,15.4s15.4-6.8,15.4-15.4c0-8.4-6.8-15.4-15.4-15.4
						S693.2,611.5,693.2,620.1z"/>
				</g>
				<g>
					<ellipse class="st4" cx="325.4" cy="658.3" rx="15.4" ry="15.4"/>
					<ellipse class="st4" cx="361.8" cy="658.3" rx="15.4" ry="15.4"/>
					<ellipse class="st4" cx="398.2" cy="658.3" rx="15.4" ry="15.4"/>
					<ellipse class="st4" cx="434.6" cy="658.3" rx="15.4" ry="15.4"/>
					<ellipse class="st4" cx="471" cy="658.3" rx="15.4" ry="15.4"/>
					<ellipse class="st4" cx="507.4" cy="658.3" rx="15.4" ry="15.4"/>
					<ellipse class="st4" cx="543.8" cy="658.3" rx="15.4" ry="15.4"/>
					<ellipse class="st4" cx="580.2" cy="658.3" rx="15.4" ry="15.4"/>
					<ellipse class="st4" cx="616.6" cy="658.3" rx="15.4" ry="15.4"/>
					<ellipse class="st4" cx="653.2" cy="658.3" rx="15.4" ry="15.4"/>
					<ellipse class="st4" cx="689.6" cy="658.3" rx="15.4" ry="15.4"/>
					<ellipse class="st4" cx="726" cy="658.3" rx="15.4" ry="15.4"/>
				</g>
				<path class="st4" d="M674.2,721.9h-297c-8.4,0-15.4-6.8-15.4-15.4l0,0c0-8.4,6.8-15.4,15.4-15.4h297c8.4,0,15.4,6.8,15.4,15.4
					l0,0C689.6,715.1,682.6,721.9,674.2,721.9z"/>
			</g>
		</g>
		<g>
			<path class="st2" d="M391.4,465.6c87.4,51.4,180.4,51.6,268,0c7.6-4.4,9.6-14.6,4.4-21.6c-10.8-14.6-21.8-29-32.6-43.6
				c-4.4-5.8-18.8-4-18.8-4H438.8c0,0-14.4-2-18.8,4c-10.8,14.6-21.8,29-32.6,43.6C381.8,451.2,383.8,461.2,391.4,465.6z"/>
			<g>
				<g>
					<path class="st5" d="M419.2,440c-0.4,0-1-0.2-1.4-0.6c-0.6-0.8-0.6-1.8,0-2.6c12.6-11.8,24.6-24.2,35.8-37
						c0.6-0.8,1.8-0.8,2.6-0.2c0.8,0.6,0.8,1.8,0.2,2.6c-11.2,12.8-23.4,25.4-36,37.2C420.2,440,419.6,440,419.2,440z"/>
				</g>
				<g>
					<path class="st5" d="M430.6,447.6c-0.4,0-0.8-0.2-1.2-0.4c-0.8-0.6-0.8-1.8-0.2-2.6c11.4-12.8,22.2-26,32.2-39.6
						c0.6-0.8,1.8-1,2.6-0.4c0.8,0.6,1,1.8,0.4,2.6c-10,13.6-21,27-32.4,39.8C431.6,447.4,431,447.6,430.6,447.6z"/>
				</g>
				<g>
					<path class="st5" d="M442.6,454.2c-0.4,0-0.8-0.2-1-0.4c-0.8-0.6-1-1.8-0.4-2.6c10-13.6,19.4-27.8,28.2-41.8
						c0.6-0.8,1.6-1.2,2.4-0.6c0.8,0.6,1.2,1.6,0.6,2.4c-8.8,14.2-18.4,28.4-28.4,42.2C443.8,454,443.2,454.2,442.6,454.2z"/>
				</g>
				<g>
					<path class="st5" d="M455.4,460c-0.4,0-0.6,0-1-0.2c-0.8-0.6-1.2-1.6-0.6-2.4c8.4-14.4,16.6-29.2,24-43.8
						c0.4-0.8,1.6-1.2,2.4-0.8s1.2,1.6,0.8,2.4c-7.4,14.8-15.6,29.6-24,44C456.6,459.6,456,460,455.4,460z"/>
				</g>
				<g>
					<path class="st5" d="M468.8,464.6c-0.2,0-0.6,0-0.8-0.2c-0.8-0.4-1.2-1.4-0.8-2.4c7-15,13.4-30.2,19.4-45.6
						c0.4-1,1.4-1.4,2.4-1c1,0.4,1.4,1.4,1,2.4c-6,15.4-12.6,30.6-19.6,45.8C470,464.2,469.4,464.6,468.8,464.6z"/>
				</g>
				<g>
					<path class="st5" d="M482.6,468.4c-0.2,0-0.4,0-0.6,0c-1-0.4-1.4-1.4-1.2-2.2c5.2-15.4,10.2-31.2,14.8-46.8
						c0.2-1,1.2-1.4,2.2-1.2c1,0.2,1.4,1.2,1.2,2.2c-4.6,15.6-9.6,31.4-14.8,47C484,467.8,483.2,468.4,482.6,468.4z"/>
				</g>
				<g>
					<path class="st5" d="M496.6,471c-0.2,0-0.2,0-0.4,0c-1-0.2-1.6-1.2-1.4-2.2c3.6-15.8,6.8-32,10-47.8c0.2-1,1.2-1.6,2-1.4
						c1,0.2,1.6,1.2,1.4,2c-3,16-6.4,32-10,48C498.2,470.4,497.4,471,496.6,471z"/>
				</g>
				<g>
					<path class="st5" d="M511,472.6C511,472.6,510.8,472.6,511,472.6c-1.2-0.2-1.8-1-1.8-2c1.8-16.2,3.4-32.4,5-48.4
						c0-1,1-1.6,2-1.6s1.8,1,1.6,2c-1.6,16-3.2,32.4-5,48.4C512.6,472,511.8,472.6,511,472.6z"/>
				</g>
				<g>
					<path class="st5" d="M525.4,473.2c-1,0-1.8-0.8-1.8-1.8v-48.6c0-1,0.8-1.8,1.8-1.8s1.8,0.8,1.8,1.8v48.6
						C527.2,472.4,526.4,473.2,525.4,473.2z"/>
				</g>
				<g>
					<path class="st5" d="M539.8,472.6c-1,0-1.6-0.6-1.8-1.6c-1.8-16.2-3.4-32.4-5-48.4c0-1,0.6-1.8,1.6-2c1,0,1.8,0.6,2,1.6
						c1.6,16,3.2,32.2,5,48.4C541.8,471.6,541,472.4,539.8,472.6C540,472.6,540,472.6,539.8,472.6z"/>
				</g>
				<g>
					<path class="st5" d="M554.2,471c-0.8,0-1.6-0.6-1.8-1.4c-3.6-15.8-7-32-10-48c-0.2-1,0.4-2,1.4-2c1-0.2,2,0.4,2,1.4
						c3,15.8,6.4,32,10,47.8c0.2,1-0.4,2-1.4,2.2C554.4,471,554.4,471,554.2,471z"/>
				</g>
				<g>
					<path class="st5" d="M568.4,468.4c-0.8,0-1.4-0.4-1.6-1.2c-5.2-15.6-10.2-31.4-14.8-47c-0.2-1,0.2-2,1.2-2.2s2,0.2,2.2,1.2
						c4.6,15.6,9.6,31.4,14.8,46.8c0.4,1-0.2,2-1.2,2.2C568.8,468.4,568.6,468.4,568.4,468.4z"/>
				</g>
				<g>
					<path class="st5" d="M582.2,464.6c-0.6,0-1.4-0.4-1.6-1c-7-15-13.6-30.4-19.6-45.8c-0.4-1,0-2,1-2.4c1-0.4,2,0,2.4,1
						c6,15.2,12.6,30.6,19.4,45.6c0.4,0.8,0,2-0.8,2.4C582.6,464.6,582.4,464.6,582.2,464.6z"/>
				</g>
				<g>
					<path class="st5" d="M595.4,460c-0.6,0-1.2-0.4-1.6-0.8c-8.6-14.4-16.6-29.2-24-44c-0.4-0.8,0-2,0.8-2.4c0.8-0.4,2,0,2.4,0.8
						c7.4,14.8,15.4,29.6,24,43.8c0.6,0.8,0.2,2-0.6,2.4C596,459.8,595.8,460,595.4,460z"/>
				</g>
				<g>
					<path class="st5" d="M608.2,454.2c-0.6,0-1-0.2-1.4-0.8c-10-13.6-19.6-27.8-28.4-42.2c-0.6-0.8-0.2-2,0.6-2.4
						c0.8-0.6,2-0.2,2.4,0.6c8.8,14.2,18.2,28.2,28.2,41.8c0.6,0.8,0.4,2-0.4,2.6C609,454.2,608.6,454.2,608.2,454.2z"/>
				</g>
				<g>
					<path class="st5" d="M620.4,447.6c-0.4,0-1-0.2-1.4-0.6c-11.4-12.8-22.4-26.2-32.4-39.8c-0.6-0.8-0.4-2,0.4-2.6
						c0.8-0.6,2-0.4,2.6,0.4c10,13.4,20.8,26.8,32.2,39.6c0.6,0.8,0.6,1.8-0.2,2.6C621.2,447.4,620.8,447.6,620.4,447.6z"/>
				</g>
				<g>
					<path class="st5" d="M631.6,440c-0.4,0-0.8-0.2-1.2-0.4c-12.6-12-24.8-24.4-36-37.2c-0.6-0.8-0.6-1.8,0.2-2.6
						c0.8-0.6,1.8-0.6,2.6,0.2c11.2,12.8,23.2,25.2,35.8,37c0.8,0.6,0.8,1.8,0,2.6C632.6,439.8,632.2,440,631.6,440z"/>
				</g>
			</g>
		</g>
		<g>
			<rect x="151.6" y="293.4" class="st2" width="670.8" height="42"/>
			<g>
				<path class="st5" d="M805.6,283v62.6h13.8c5.8,0,10.6-4.8,10.6-10.6v-41.4c0-5.8-4.8-10.6-10.6-10.6H805.6z"/>
				<path class="st5" d="M168.2,283v62.6h-13.8c-5.8,0-10.6-4.8-10.6-10.6v-41.4c0-5.8,4.8-10.6,10.6-10.6H168.2z"/>
			</g>
			<rect x="178.8" y="283" class="st5" width="616.4" height="62.6"/>
			
				<linearGradient id="SVGID_2_" gradientUnits="userSpaceOnUse" x1="487" y1="704.4347" x2="487" y2="617.1534" gradientTransform="matrix(1 0 0 -1 0 1000)">
				<stop  offset="0" style="stop-color:#FFFFFF"/>
				<stop  offset="0.9744" style="stop-color:#86D6FF"/>
			</linearGradient>
			<rect x="202.2" y="269.2" class="st6" width="569.6" height="90"/>
			<rect x="263.8" y="269.2" class="st5" width="446.2" height="90"/>
		</g>
		<g>
			
				<linearGradient id="SVGID_3_" gradientUnits="userSpaceOnUse" x1="487.1" y1="696.8574" x2="487.1" y2="641.5797" gradientTransform="matrix(1 0 0 -1 0 1000)">
				<stop  offset="0" style="stop-color:#FFFFFF"/>
				<stop  offset="0.9744" style="stop-color:#86D6FF"/>
			</linearGradient>
			<polygon class="st7" points="289.6,359.4 684.2,359.4 685.2,75.8 289,75.8 			"/>
			<g>
				<g>
					<path class="st8" d="M571.6,149.2H411.4c-4.6,0-8.4-3.8-8.4-8.4s3.8-8.4,8.4-8.4h160.2c4.6,0,8.4,3.8,8.4,8.4
						C580,145.4,576.2,149.2,571.6,149.2z"/>
				</g>
				<g>
					<path class="st4" d="M648.6,192.6H381.2c-2.6,0-4.8-2.2-4.8-4.8s2.2-4.8,4.8-4.8h267.6c2.6,0,4.8,2.2,4.8,4.8
						S651.4,192.6,648.6,192.6z"/>
				</g>
				<g>
					<path class="st4" d="M650.2,216H332.6c-2.6,0-4.8-2.2-4.8-4.8s2.2-4.8,4.8-4.8h317.6c2.6,0,4.8,2.2,4.8,4.8
						S652.8,216,650.2,216z"/>
				</g>
				<g>
					<path class="st4" d="M625.6,239.4H332.2c-2.6,0-4.8-2.2-4.8-4.8c0-2.6,2.2-4.8,4.8-4.8h293.4c2.6,0,4.8,2.2,4.8,4.8
						C630.4,237.2,628.2,239.4,625.6,239.4z"/>
				</g>
				<g>
					<path class="st4" d="M650.2,263H380c-2.6,0-4.8-2.2-4.8-4.8c0-2.6,2.2-4.8,4.8-4.8h270.2c2.6,0,4.8,2.2,4.8,4.8
						C655,260.8,652.8,263,650.2,263z"/>
				</g>
				<g>
					<path class="st4" d="M650.2,286.8H331.4c-2.6,0-4.8-2.2-4.8-4.8c0-2.6,2.2-4.8,4.8-4.8h318.8c2.6,0,4.8,2.2,4.8,4.8
						C655,284.6,652.8,286.8,650.2,286.8z"/>
				</g>
				<g>
					<path class="st4" d="M650.2,310.6H331c-2.6,0-4.8-2.2-4.8-4.8s2.2-4.8,4.8-4.8h319.2c2.6,0,4.8,2.2,4.8,4.8
						S652.8,310.6,650.2,310.6z"/>
				</g>
				<g>
					<path class="st9" d="M537.6,337.2H330.8c-2.6,0-4.8-2.2-4.8-4.8s2.2-4.8,4.8-4.8h206.8c2.6,0,4.8,2.2,4.8,4.8
						S540.2,337.2,537.6,337.2z"/>
				</g>
			</g>
		</g>
		<g>
			
				<linearGradient id="SVGID_4_" gradientUnits="userSpaceOnUse" x1="525.5" y1="669.0162" x2="525.5" y2="611.1452" gradientTransform="matrix(1 0 0 -1 0 1000)">
				<stop  offset="0" style="stop-color:#FFFFFF"/>
				<stop  offset="0.9744" style="stop-color:#86D6FF"/>
			</linearGradient>
			<path class="st10" d="M489.2,389.2c24.2,9.6,48.4,9.6,72.6,0l-7.2-58.2h-58.2L489.2,389.2z"/>
			<path class="st5" d="M488.8,344.8H562c6.6,0,12-5.4,12-12l0,0c0-6.6-5.4-12-12-12h-73.2c-6.6,0-12,5.4-12,12l0,0
				C476.8,339.6,482.2,344.8,488.8,344.8z"/>
		</g>
		<g>
			<circle class="st5" cx="353.4" cy="369.6" r="6"/>
			<circle class="st5" cx="353.4" cy="395.4" r="6"/>
		</g>
		<g>
			<circle class="st5" cx="697.4" cy="369.6" r="6"/>
			<circle class="st5" cx="697.4" cy="395.4" r="6"/>
		</g>
	</g>
	<g>
		<path class="st11" d="M269.6,754.5h197c2.6-2,5.2-4,7.8-5.6c3-2,5.8-3.2,8-4l1.6-0.6c4.6-1.4,7.8-5.8,7.6-10.8
			c-0.2-6-5.4-10.8-11.4-10.6c-6.2,0.2-11.8,1.8-16.4,3.4c-4.8,1.8-9.2,3.8-13.2,5.8c-8.2,4-15.8,8.2-23.2,11.6
			c-4.2,2-8.4,3.8-12.6,5.4l10.6-54.2v-0.2c0.2-0.2,0.2-0.4,0.4-0.6c0.8-1.6,1.8-3.2,2.6-4.8c0.2-0.4,0.6-0.8,0.8-1.4
			c0.2-0.4,0.4-0.6,0.6-1c0.6-1,1.2-2.2,2-3.2c0.6-1,1.4-2.2,2.2-3.2c0,0,0-0.2,0.2-0.2c0.8-1,1.4-2,2.2-3c0.2-0.2,0.2-0.2,0.4-0.4
			c1.4-1.8,3-3.6,4.4-5c1.4-1.4,2.8-2.6,3.8-3.2l0,0c0.2-0.2,0.4-0.4,0.6-0.4l0,0l0.2-0.2c0,0,0.2,0,0.2-0.2l0.4-0.4c0,0,0,0,0.2,0
			s0.2,0,0.4,0c0,0,0,0,0.2,0h0.2c0.4,0,0.8,0.2,1.4,0.4c1.2,0.4,2.6,1.8,3.8,2.8c0.6,0.6,1.2,1.2,1.6,1.8c1.8,2.2,3.6,4.6,5.2,7.4
			c0.8,1.4,1.2,2.2,1.2,2.2c0.4,0.6,0.8,1.2,1.2,1.6c2.8,3.4,7.6,5,12.2,3.6c5.8-1.8,9-8.2,7.2-14c-0.2-0.8-0.6-1.6-0.8-2.2
			c-0.2-0.6-0.4-1.4-0.8-2.2c-0.6-1.6-1.4-3.6-2.4-5.8c-0.6-1-1-2.2-1.6-3.4c0,0,0-0.2-0.2-0.2l0,0c-0.6-1-1.2-2.2-2-3.2
			c0-0.2-0.2-0.2-0.2-0.4l-0.2-0.2c-1.2-2-2.8-4-4.6-6l-0.2-0.2c-1-1-2-2-3-3c-0.4-0.2-0.6-0.6-1-0.8c-0.2-0.2-0.4-0.2-0.4-0.4
			c0,0-0.2,0-0.2-0.2c-0.6-0.4-1.2-0.8-1.8-1.2c-0.2-0.2-0.4-0.2-0.6-0.4c-0.6-0.4-1.4-0.8-2-1.2l0,0c-1.6-0.8-3.4-1.6-5.2-2.2
			c-0.2,0-0.2-0.2-0.4-0.2c-0.2,0-0.2,0-0.4,0c-0.2,0-0.2,0-0.4-0.2c-0.6-0.2-1.2-0.2-1.6-0.4c-0.2,0-0.6-0.2-0.8-0.2
			c-0.2,0-0.4,0-0.4-0.2l0,0c-2.8-0.4-5.8-0.6-8.6-0.2c-3.2,0.4-6.2,1-8.8,2c0.6-3.2-0.2-6.4-2.6-9c-0.4-0.6-1-1.2-1.6-1.6
			c-0.2-0.2-0.2-0.2-0.4-0.4c-0.2-0.2-0.4-0.4-0.6-0.6s-0.6-0.6-0.8-0.8c-0.2,0-0.2-0.2-0.4-0.4c-0.6-0.6-1.2-1-1.8-1.6
			c0,0,0,0-0.2-0.2l-0.2-0.2c-0.8-0.6-1.4-1.2-2.4-2c0,0-0.2,0-0.2-0.2l0,0c-0.8-0.6-1.6-1.2-2.6-1.8c-0.4-0.2-0.6-0.4-1-0.6
			l-0.2-0.2l0,0c0,0-0.2,0-0.2-0.2c-0.6-0.4-1.2-0.6-2-1l0,0c-0.6-0.4-1.4-0.6-2.2-1c-0.2,0-0.4-0.2-0.6-0.2
			c-0.6-0.2-1.2-0.4-1.8-0.6c-0.4-0.2-0.8-0.2-1.2-0.4c-0.4,0-0.6-0.2-1-0.2s-0.6-0.2-1-0.2c-0.2,0-0.6,0-1-0.2c-0.2,0-0.6,0-0.8,0
			c-0.6,0-1-0.2-1.6-0.2H404l0,0c-2.8-0.2-5.6,0.2-8.4,0.8c-3.8,1-7,2.6-9.8,4.4c-2.6,1.8-5,3.6-7,5.4c-0.8,0.8-1.6,1.4-2.2,2.2
			c-0.2-0.2-0.4-0.2-0.6-0.4c-0.2,0-0.2-0.2-0.4-0.2l0,0c-3-1.4-6.2-2.4-9.8-3.2c-4.8-1-10.6-1.4-16.4,0.2c-3,0.6-5.8,1.8-8.4,3.2
			c-2.6,1.4-5,3-7,4.8c-1.8,1.4-3.4,3-4.8,4.6c-0.8,0-1.8,0-2.8,0h-0.2c-0.8,0-1.8,0.2-2.6,0.2c-0.4,0-1,0.2-1.4,0.2
			c-0.6,0.2-1,0.2-1.6,0.4c-1.4,0.4-2.8,0.8-4.2,1.4c-4.2,2-8,4.8-10.8,8.2c-3,3.2-5,6.8-6.8,10.6c-3.2,7.4-4.6,15-4.8,22.6
			c0,2.8,0.2,5.8,0.4,8.6l-19.8,58.2C272.4,751.1,271,752.7,269.6,754.5z M384.2,682.1c0.6-1.2,1.2-2.6,1.8-3.8
			c1.6-3.4,3-7,4.6-10.2c0.2-0.6,0.6-1.2,0.8-1.6c0.6-1.2,1.2-2.4,1.6-3.6c0.2-0.4,0.4-0.8,0.6-1.2c0.8-1.6,1.6-3.2,2.4-4.8l0,0
			c0.6-1.2,1.2-2.2,1.6-3.2c0.2-0.2,0.2-0.4,0.4-0.6c0.6-1,1-2,1.6-2.8l0,0l0,0c0.4-0.6,0.8-1.2,1.2-1.8c0.2-0.2,0.4-0.6,0.6-0.8
			c0.2-0.2,0.2-0.4,0.4-0.6c0.4-0.4,0.6-0.8,0.8-1.2l0.2-0.2c0.2-0.4,0.4-0.6,0.6-0.8l0.2-0.2c0.2-0.2,0.2-0.4,0.2-0.4l0,0v-0.2l0,0
			l0,0v-0.2c0,0,0,0,0-0.2l0,0c0.2-0.2,0.4-0.2,0.8-0.2c0.2,0,0.4,0,0.6,0s0.4,0,0.6,0.2c0.4,0,0.8,0.2,1.2,0.4
			c0.2,0,0.4,0.2,0.6,0.2c1.4,0.6,3,1.6,4.6,2.6c0.2,0.2,0.4,0.4,0.6,0.4c0.6,0.4,0.8,0.6,0.8,0.6c0.6,0.4,1,0.8,1.6,1
			c0.2,0.2,0.6,0.2,1,0.4c-3,2.2-5.8,4.6-8.4,7c-3.8,3.6-7.4,7.2-10.6,10.8c-5,5.6-9.8,11.4-14.2,17.4
			C383.6,683.3,384,682.7,384.2,682.1z"/>
		<g>
			<g>
				<path class="st12" d="M335.4,636.3c-2.2-0.4-4.2-0.4-6,0c-1.6,0.4-3,1-3.8,2c-1.8,1.8-3.2,4.6-4,8.6c-0.6,3.8-0.4,8.2,0.6,12.4
					c1,4.2,2.8,8,5,11c5.4,7.6,3.6,18-4,23.4c-7.6,5.4-18,3.6-23.4-4c-0.8-1.2-1.6-2.6-2-3.8l-0.6-1.4c-2.8-7.6-4-15.4-4-23.2
					c0.2-7.6,1.6-15.4,4.8-22.8c1.6-3.6,3.8-7.2,6.8-10.6c3-3.2,6.6-6.2,10.8-8c4.2-2,9-2.6,13.2-2.4c4.2,0.2,8.2,1.4,11.6,2.8
					c4.2,1.8,6.2,6.8,4.4,11c-1.6,3.6-5.2,5.6-9,5H335.4z"/>
				<path class="st13" d="M340.2,620.5c0,0-0.2-0.2-0.8-0.4c-0.2,0-0.6-0.2-0.8-0.4c-0.4-0.2-0.6-0.4-1.4-0.6
					c-1.4-0.4-3-0.8-4.8-1.2s-4-0.4-6.6-0.4c-2.2,0.2-4.6,0.6-7,1.2c-6.8,5.6-19.6,36.2,10,60.6c0.4,0.8,0.8,1.6,1.2,2.4
					c0.6-4-0.2-8-2.6-11.6c0,0,0-0.2-0.2-0.4c-0.2-0.2-0.4-0.6-0.8-1.2c-0.4-0.6-0.8-1.2-1.2-2c-0.4-0.8-0.8-1.8-1.2-2.8
					c-0.4-1-0.8-2.4-1.2-3.6c-0.4-1.4-0.6-2.8-0.8-4.2c-0.4-3-0.4-6.2,0-9c0.2-1.4,0.6-2.8,1-4s1-2.2,1.6-3s1.2-1.4,1.8-2
					c0.6-0.6,1.4-1,2.2-1.2c0.8-0.2,1.6-0.4,2.6-0.6c1,0,1.6,0,2-0.2c0.2,0,0.8,0,1,0.2c0.4,0,0.6,0.2,1,0.2c0.6,0,0.8,0.2,0.8,0.2
					c3.8,0.6,7.6-1.4,9.2-5C346.6,627.1,344.6,622.1,340.2,620.5L340.2,620.5z"/>
				<path class="st12" d="M377.8,635.1c-5.8-2-11.6-3.4-15.6-2.8c-2,0.2-3.2,0.8-3.8,1.6c-0.6,0.8-1,1.4-1.8,2.8
					c-1.4,2.6-3,7.2-4.2,12.8c-1.2,5.4-2.2,11.6-2.8,17.8c-1.4,12.2-12.4,20.8-24.6,19.4c-12.2-1.4-20.8-12.4-19.4-24.6
					c0.2-2,0.8-3.8,1.4-5.6l0.2-0.4c2.8-6.8,5.8-13.8,9.6-21c2-3.6,4-7.2,6.8-11c2.6-3.6,5.8-7.6,10-11c2-1.8,4.6-3.4,7-4.8
					c2.6-1.4,5.4-2.4,8.4-3.2c5.8-1.4,11.6-1.2,16.4-0.2c4.8,1,9,2.8,12.6,4.6s7,4,10.2,6.2c5,3.4,6.4,10.4,2.8,15.4
					c-3,4.2-8.2,5.8-12.8,4.2L377.8,635.1z"/>
				<path class="st13" d="M385,613.5c-1.2-0.6-2.6-1.6-4.2-2.4c-1.6-1-3.4-1.8-5.8-2.8c-1.2-0.6-8.2,1-10.2,2.2
					c-5.6,3.8-10.8,7.4-14,13.4c-5.4,10.2-9,22.4-10.8,34c0,0.8-0.4,3.8-0.6,4.4c-0.2,2-0.4,3.8-0.6,5.8c-0.4,4.2-0.6,8.6-0.8,12.8
					c0,1,0,2,0,3.2c6.2-3.2,10.6-9.4,11.6-16.8c0,0,0.2-1.2,0.4-3.2c0.2-2,0.6-5,1.2-8.2c0.6-3.2,1.2-7,2.2-10.6
					c0.4-1.8,1-3.4,1.6-5c0.6-1.4,1.2-2.8,1.6-3.6c0.6-1,0.8-1.6,1.2-2.2c0.4-0.6,0.8-1,1.8-1.4c0.8-0.4,2-0.6,3.4-0.8
					s2.8,0,4.2,0.2c1.4,0.2,2.8,0.4,4.2,0.8c1.2,0.2,2.2,0.6,3.2,0.8c2.2,0.8,3.4,1.2,3.4,1.2l0,0c4.6,1.6,10,0,13-4.2
					c3.6-5,2.2-12-2.8-15.4C388,615.5,387,614.7,385,613.5z"/>
				<path class="st12" d="M413.8,626.3c-2.8-2-5.6-3.6-7.6-4.2c-1-0.2-1.6-0.2-2,0c-0.2,0.2-0.2,0.4-0.2,0.6c-0.2,0.2-0.4,0.8-1,1.4
					c-0.6,0.8-1.4,1.6-2.2,2.8c-1.6,2.4-3.2,5.4-5,8.6c-3.4,6.6-6.6,14-10,21.4c-3.4,7.6-7,15.4-10.8,23.2v0.2
					c-5.4,11-18.6,15.4-29.6,10s-15.4-18.6-10-29.6c0.8-1.4,1.6-2.8,2.6-4c5-6,9.8-12.4,14.6-19c5-6.6,10-13.4,15.8-20.6
					c3-3.6,6.2-7.2,10.2-10.8c2-1.8,4.4-3.6,7-5.4c2.8-1.8,6-3.4,9.8-4.4c3.8-1,8-1.2,11.8-0.4c3.8,0.8,7,2.2,9.8,3.6
					c5.4,3.2,8.8,7,12,10.6c4,4.6,3.6,11.6-1,15.6c-4,3.6-9.8,3.6-13.8,0.6L413.8,626.3z"/>
				<path class="st13" d="M429,610.3c0,0-0.2-0.2-0.8-0.8c-0.2-0.2-0.6-0.6-0.8-1c-0.2-0.2-0.4-0.4-0.6-0.6
					c-0.2-0.2-0.6-0.6-0.8-0.8c-0.6-0.6-1.4-1.4-2.2-2.2c-0.8-0.6-1.8-1.4-2.8-2.2s-2.2-1.6-3.6-2.4s-2.8-1.6-4.8-2.4
					c-2.4-1-5.6-1.8-8.8-2c-17.8,13-34.4,51.6-24,66.8c8.4,12.4-14.4,14-16.4,28.4c5-2,9.4-5.6,12-11c0,0,0.8-1.4,2-4
					c1.2-2.6,3-6.2,5-10.4c2-4.2,4.2-9.2,6.6-14.6c2.4-5.2,4.8-10.6,7.2-15.4c1.2-2.4,2.4-4.6,3.6-6.6c1.2-2,2.4-3.6,3.2-4.6
					c0.8-1,1.2-1.4,1.2-1.8c0-0.2,0-0.6,0.8-0.6c0.4,0,0.8,0.2,1.4,0.2c0.6,0.2,1,0.4,1.6,0.6s1.2,0.6,1.6,0.8s0.8,0.4,1.2,0.8
					c0.2,0.2,0.4,0.2,0.6,0.4c0.2,0.2,0.4,0.4,0.6,0.6c0.4,0.4,0.8,0.6,1,0.8c0.6,0.4,0.8,0.6,0.8,0.6c4.2,3,10,3,14-0.6
					C432.6,621.9,433,614.9,429,610.3L429,610.3z"/>
				<path class="st12" d="M460.4,661.1c-2-3.4-4-6.6-6.2-9.2s-4.6-4.6-6.2-5c-0.8-0.4-1.4-0.2-1.6,0l-0.8,0.6
					c-0.8,0.6-2.6,1.8-4.6,3.8c-4.2,4-8.6,10.4-12.4,17.2c-4,6.8-7.6,14.2-10.8,21.8c-5,11.2-18,16.2-29.2,11.2
					c-11.2-5-16.2-18-11.2-29.2c0.6-1.4,1.4-2.6,2.2-3.8l0.2-0.2c5.6-7.6,11.4-15.2,18-22.6c6.6-7.4,13.8-14.6,23.8-21
					c5.2-3,11.2-6.2,19.2-7c4-0.4,8.2,0,12.2,1c4,1.2,7.6,3.2,10.4,5.4c5.8,4.4,9,9.6,11.6,14.4c2.6,4.8,4.2,9.6,5.8,14.2
					c2,5.8-1.2,12-7,14c-5,1.6-10.4-0.6-13-5L460.4,661.1z"/>
				<path class="st13" d="M452.2,618.5c-1-0.2-2-0.4-3-0.6c-11.8,2-34,20.6-46,50.2c-6.4,15.8-0.2,21.2-7,35
					c8.8,0.4,17.6-4.4,21.4-13l0,0c0,0,0.6-1.4,1.8-3.8c1.2-2.4,2.8-6,4.8-10c1-2,2.2-4.2,3.4-6.4c1.2-2.2,2.6-4.4,4-6.8
					c1.4-2.2,3-4.4,4.4-6.6c1.6-2,3.2-3.8,4.6-5.4c1.6-1.6,3-2.6,3.8-3.2c1-0.6,1.2-1,1.4-1.2c0.4-0.2,1.2-0.2,2.4,0.4
					c1.2,0.4,2.6,1.8,3.8,2.8c0.6,0.6,1.2,1.4,1.8,2c0.6,0.8,1,1.4,1.6,2c1,1.4,1.6,2.4,2.4,3.4c1.4,2.6,2.2,4,2.2,4
					c2.6,4.4,8,6.6,13.2,5c5.8-2,9-8.2,7.2-14l0,0c0,0-0.6-1.6-1.4-4.4c-0.6-1.6-1.4-3.6-2.4-5.8c-0.6-1-1-2.2-1.6-3.4
					c-0.8-1.2-1.4-2.6-2.2-3.8c-1.8-2.8-3.8-5.8-7.2-8.8C462.6,623.1,458,619.9,452.2,618.5z"/>
				<path class="st12" d="M267.8,745.9c39-2.4,57.4,3.6,61.4,42l77-15.4l19.4-99.4l-128.4-13L267.8,745.9z"/>
				<path class="st13" d="M403.2,668.1c-8.8,19.4-15.8,40.4-20.8,62.6l10.8,44.4l12.8-2.6l19.4-99.4L403.2,668.1z"/>
				<path class="st12" d="M482.2,724.1c-4.8,1.4-11.2,5.6-17.4,10.6c-6.4,5-13,10.6-20,16.2c-7.2,5.6-15,11.2-24.4,15.8
					c-9.2,4.6-20.4,8.6-32.8,9l-2.4,0.2c-12.2,0.6-22.6-9-23.2-21.4c-0.6-12.2,9-22.6,21.4-23.2c2,0,4,0.2,5.8,0.6
					c4.6,1,10.6,0.8,17.2-0.8s13.8-4.6,21-8.2c7.4-3.6,15-7.6,23.2-11.6c2.2-1,4-2,6.4-3c2.2-1,4.4-2,7-2.8l3.6-1.2l4-1l2-0.4
					c0.8-0.2,1.4-0.2,2.2-0.2c1.6-0.2,3-0.4,4.4-0.4c6-0.4,11.2,4,11.8,10c0.4,5.2-2.8,9.8-7.6,11.4L482.2,724.1z"/>
			</g>
			<path class="st12" d="M341.2,711.9c-18.2-14.6-45-11.6-59.6,6.6l0,0c-28.6,35.8-57.8,70.8-87.8,105.4
				c-15,17.4-30.2,34.6-45.4,51.8c-15.2,17.4-30.8,34.8-46.4,53.4c-3.8,4.6-7.8,9.6-11.8,14.2c-4,4.8-7.8,10-11.8,15.2l-5.8,8.2
				l-3,4c-1,1.4-2,3-2.8,4.4l-5.8,8.8c-1.8,3.2-3.8,6.4-5.6,9.8c-1,2-2,4-3.2,6h133c1-1.4,2-3,3-4.4c12.6-18,26.2-36.4,40-55.2
				c13.8-18.6,27.6-37.4,41.2-56.4c27.4-38,54.4-76.4,80.2-115.4C362,750.5,358.6,725.7,341.2,711.9z"/>
		</g>
		<g>
			
				<linearGradient id="SVGID_5_" gradientUnits="userSpaceOnUse" x1="158.5678" y1="153.788" x2="198.4324" y2="97.9776" gradientTransform="matrix(1 0 0 -1 0 1000)">
				<stop  offset="0" style="stop-color:#FFFFFF"/>
				<stop  offset="0.9721" style="stop-color:#ACE3DB"/>
			</linearGradient>
			<path class="st14" d="M256.4,749.7c-20.6,25.2-41.4,50-62.8,74.6c-15,17.4-30.2,34.6-45.4,52c-15.4,17.4-30.8,34.8-46.4,53.6
				c-3.8,4.6-7.8,9.6-11.8,14.4s-7.8,10-11.8,15.2l-5.8,8.2l-3,4c-1,1.4-2,3-2.8,4.4l-5.8,8.8l-5.6,9.8c-1,1.6-1.8,3.2-2.8,5
				l-0.2,0.4h133.2c1-1.4,2-3,3.2-4.6c12.6-18,26.2-36.6,40-55.2c13.8-18.6,27.6-37.4,41.4-56.4c19-26.2,37.6-52.6,55.8-79.4
				C345.4,771.3,279.8,733.5,256.4,749.7z"/>
			
				<linearGradient id="SVGID_6_" gradientUnits="userSpaceOnUse" x1="143.5365" y1="139.2169" x2="218.8821" y2="45.4194" gradientTransform="matrix(1 0 0 -1 0 1000)">
				<stop  offset="0" style="stop-color:#6F9FBB"/>
				<stop  offset="1" style="stop-color:#514F71"/>
			</linearGradient>
			<path class="st15" d="M224,778.9c-13.8,16.4-27.4,32.6-41,48.4c-13,15-26.4,30.4-39.4,45l-10.4,11.8c-13.8,15.6-28,31.6-42,48.6
				c-2.6,3-5.2,6.4-7.8,9.6c-1.4,1.6-2.6,3.2-4,5c-3,3.6-5.8,7.4-8.6,11.2l-3.2,4l-6,8.4l-3,4.2c-0.6,1-1.4,2-2,3.2l-6.8,10.6
				L44,999.1c-0.2,0.4-0.4,0.8-0.6,1H198c10-14,20.4-28.4,30.8-42.4l8.2-11c11.8-16.2,24.2-32.8,36.2-49.4
				c14.2-19.6,28.4-39.6,42.4-60C332.6,810.1,272.6,753.9,224,778.9z"/>
		</g>
		<path class="st16" d="M486.2,708.3c-0.2-0.2-0.2-0.2-0.4-0.4c-0.2-0.2-0.2-0.2-0.4-0.2c-0.2,0-0.4,0-0.6,0.2
			c-4.2,2.2-8.8,4.4-12.2,7.6c-0.2,0.2-0.2,0.2-0.4,0.4c0,0.2-0.2,0.4-0.2,0.4c-0.4,3.2,0,6.6,1.6,9.6c0.4,0.8,6-1.2,6.8-1.4
			c2-0.6,6-1.4,7.4-2.8c1.4-1.4,1.2-5.6,1-7.4C488.4,712.1,487.6,709.9,486.2,708.3z"/>
	</g>
	<g>
		<path class="st11" d="M579.4,704.5l1.6,1.2c1.6,1,3.2,2.6,5.2,5.2c1.8,2.4,3.6,5.4,5.4,8.6c3.6,6.4,7,13.8,11.2,21.4
			c2.4,4.4,5,9,8.2,13.8h139.8c30.4,0,55-24.6,55-55v-62l-15.8-7c-0.4-0.2-7.2-4.2-7.8-4.4c-0.2,0-0.4-0.2-0.6-0.2c0,0,0,0-0.2,0
			c-0.6-0.2-1-0.4-1.4-0.6l0,0c-2.8-1-5.4-2-8.2-2.8c-2.6-0.8-5.6-0.6-8,0.4l0,0c-0.8-1.6-1.6-3-2.6-4.4c0-0.2-0.2-0.2-0.4-0.4
			c-0.4-0.6-0.8-1-1.2-1.4c-0.2-0.2-0.4-0.6-0.8-0.8c-0.6-0.6-1-1.2-1.6-1.6c0,0,0-0.2-0.2-0.2c0,0-0.2-0.2-0.4-0.2
			c-0.6-0.4-1-1-1.6-1.4c-0.2-0.2-0.2-0.2-0.4-0.4c0,0-0.2,0-0.2-0.2c0,0-0.2,0-0.2-0.2l0,0c-2-1.6-4.2-3-6.2-3.8l-2.2-1l-2.2-0.8
			c-1.4-0.6-3-1-4.4-1.2c-5.6-1.2-10.8-1.6-15.8-1.6c-5.2,0-9.8,3.4-11,8.6c-1.4,6,2.4,11.8,8.4,13.2l0.4,0.2
			c3.8,0.8,7.4,1.8,10.2,3.2c2.8,1.4,4.6,3,4.8,4c0.2,0.6,0.2,1,0.2,1.6s0,1.4-0.2,2.6c-0.2,2.2-1,5.4-2,8.8
			c-2.2,6.8-5.6,14.6-9,22.6c-1.6,3.6-3.2,7.4-4.8,11.2l-2.4-1c0-0.2,0-0.4,0-0.6s0-0.4,0-0.6c0-2,0-4.2-0.2-6.8l0,0
			c0-1.2,0-2.4-0.2-3.6c0-1,0-1.8-0.2-2.8c0-0.4,0-0.6,0-1c0-1.8-0.2-4-0.4-6c0-0.4,0-0.6,0-1s0-0.6,0-1c-0.2-2-0.2-3.8-0.4-6
			c0-0.2,0-0.4,0-0.6c0-0.2,0-0.2,0-0.4c-0.2-2.4-0.6-4.6-0.8-7.2l0,0l0,0c-0.2-1.2-0.4-2.6-0.6-4c0-0.2,0-0.4,0-0.4
			c-0.6-2.8-1.2-5.6-2-8.6c0-0.2-0.2-0.4-0.2-0.8c-0.4-1-0.6-2-1-3c-0.4-0.8-0.6-1.4-0.8-2.2c0-0.2,0-0.2-0.2-0.4
			c-0.2-0.4-0.2-0.8-0.4-1c-0.2-0.4-0.4-0.6-0.6-1c0-0.2-0.2-0.2-0.2-0.4c-0.4-0.8-0.8-1.6-1.2-2.4c-0.4-0.6-0.8-1.4-1.4-2
			c-0.2-0.2-0.2-0.4-0.4-0.6c-0.6-1-1.6-2-2.4-3c-0.2-0.2-0.4-0.4-0.8-0.8c-0.4-0.4-0.8-0.8-1.4-1.2c-0.2,0-0.2-0.2-0.4-0.2
			c-1-0.8-2-1.6-3.2-2.4c0,0-0.2,0-0.2-0.2c-0.4-0.4-1-0.6-1.4-0.8c-0.6-0.4-1.2-0.6-2-1l0,0c0,0,0,0-0.2,0
			c-0.4-0.2-0.8-0.4-1.2-0.6c-0.2,0-0.4-0.2-0.8-0.2c-0.4-0.2-0.8-0.2-1.2-0.4c-0.2,0-0.2,0-0.4,0l0,0H691c-1.2-0.2-2.4-0.6-3.6-0.6
			c0,0,0,0-0.2,0s-0.2,0-0.4,0s-0.6,0-0.8,0s-0.2,0-0.4,0c-1.8,0-3.6,0-5,0.2c-1,0.2-2,0.2-3,0.4l-2.6,0.6c-1,0.2-1.6,0.6-2.4,0.8
			l-2.2,0.8c-5.8,2.6-10,5.6-14.2,8.6c-4.2,3-7.6,6.4-11.2,9.6c-4.2,3.8-5,10.6-0.8,15.4c3.6,4.2,9.8,4.8,14.4,2l0,0
			c3.6-2.2,7.4-4.4,11-6c3.6-1.8,7.2-3.2,10-3.6h0.2c0,0.4,0.2,1.2,0.2,2.2c0.2,2.4,0.2,6,0,9.8c-0.2,3.8-0.6,7.8-1.2,12
			c-0.4,3-1,6.2-1.4,9.2l-30.6,73.2c-0.4-0.4-1-0.6-1.4-1c-5-3.6-10-8.6-15.2-14.6c-5.2-5.8-10.2-12.4-16.2-19.2
			c-3-3.4-6.4-6.8-10.4-10.2c-4-3.2-9-6.6-15.2-8.2c-4.6-1.2-9.6,0.6-12.4,4.8C572.8,694.7,574.6,701.3,579.4,704.5z M764.2,672.3
			c0-0.4,0.2-0.6,0.2-1c0.2-1.2,0.4-2.4,0.8-3.8v-0.2c0.6-3,1.2-6,1.6-9.2c0.2-0.8,0.2-1.6,0.4-2.4c0.2-1.6,0.4-3,0.6-4.6
			c0-0.8,0.2-1.4,0.2-2.2c0-0.4,0-1,0-1.4c0-0.6,0-1.4,0.2-2c1.6,1,3.2,2,4.6,3.2c2.6,2,4.8,4.2,5.4,5.8c0.4,0.8,0.4,1.2,0.2,1.4
			c-0.2,0.2-0.4,0-0.6,0.2c-0.4,0.4-1.4,2-3.2,4.4c-2.6,3.6-6.4,7.6-10.4,12.2C764.2,672.7,764.2,672.5,764.2,672.3z"/>
		<g>
			<g>
				<path class="st12" d="M646.6,600.9c3.6-3.2,7.2-6.6,11.2-9.6s8.4-6,14-8.6c3-1.2,6-2.4,10.2-2.8c1.8-0.4,4.4-0.2,6.6-0.2
					c2.4,0.4,5,0.8,7.6,2c5,2,9.2,5.8,11.8,9.4c2.6,3.6,4.2,7,5.4,10c2.4,6.2,3.2,11.8,4.2,17c0.8,5.2,1.2,10.2,1.6,15.2
					c0.6,9.8,0.8,19.2,1,28.4l0,0c0.2,12.2-9.6,22.2-21.8,22.4s-22.2-9.6-22.4-21.8c0-1.4,0.2-3,0.4-4.4c1.6-8.8,3.2-17.4,4.4-25.6
					c0.6-4.2,1-8.2,1.2-12c0.2-3.8,0.2-7.4,0-9.8c-0.2-1.2-0.2-2-0.2-2.2c0-0.2,0.8,0.4,1.8,0.6c0.2,0,0.6,0,0.6,0
					c0.2,0,0.2,0,0.4,0c0,0,0.2-0.2-0.2-0.2c-0.4-0.2-1.6-0.2-3,0c-2.8,0.6-6.4,2-10,3.6c-3.6,1.6-7.2,3.8-11,6l-0.4,0.2
					c-5.2,3.2-12,1.4-15.2-3.8C641.8,610.3,642.8,604.5,646.6,600.9z"/>
				<path class="st12" d="M725,580.7c5,0,10.2,0.4,15.8,1.6c1.4,0.4,2.8,0.6,4.2,1.2l2.2,0.8l2.2,1c3,1.4,6,3.4,8.8,6
					c2.8,2.6,5.2,6,6.8,9.6c1.6,3.4,2.6,7,3.2,10.2c1,6.6,0.8,12.2,0.2,17.6c-1,10.4-3.2,19.6-4.8,28.2c-1.8,8.8-3.4,17-4.6,25
					c-1.8,12-13,20.4-25,18.6c-12-1.8-20.4-13-18.6-25c0.2-1.4,0.6-3,1-4.4l0.2-0.4c3.2-9,7-17.4,10.4-25.6c3.4-8,6.8-15.8,9-22.6
					c1-3.4,1.8-6.6,2-8.6c0.2-1.2,0.2-1.8,0.2-2.6c0-0.6,0-1-0.2-1.6c-0.4-1-2-2.8-5-4c-2.8-1.4-6.4-2.4-10.2-3.2l-0.4-0.2
					c-6-1.4-9.8-7.2-8.4-13.2C715.4,584.1,720,580.7,725,580.7z"/>
				<path class="st12" d="M773.2,600.1c4.2,1.4,8.6,2.8,13,4.8c4.4,2.2,9,4.6,13.8,9.2c2.4,2.2,4.6,5.2,6.4,8.8
					c1.6,3.6,2.6,7.8,2.8,11.8c0,3.8-0.4,7.6-1.4,10.6c-0.4,1.6-0.8,3-1.4,4.4c-0.4,1.4-1,2.6-1.6,3.8c-2,4.8-4.2,9-6.4,12.8
					c-2,3.8-4,7.4-5.8,10.8c-3.6,6.8-6.2,13.2-7.6,19c-3,11.8-15,19.2-26.8,16.2s-19.2-15-16.2-26.8c0.4-1.8,1-3.4,1.8-4.8l0.6-1.2
					c4.8-9.2,10.8-17,16.4-23.8c5.6-6.6,11.2-12.6,14.8-17.4c1.8-2.4,2.6-4,3-4.4c0.2-0.2,0.4,0,0.6-0.2c0-0.2,0.2-0.6-0.2-1.4
					c-0.8-1.6-3-3.8-5.6-5.8c-2.6-2-5.8-4-9-5.8l-0.6-0.4c-5.2-3.2-7-10-3.8-15.2C763,600.5,768.4,598.5,773.2,600.1z"/>
				<path class="st12" d="M791.6,645.5c3,2,6,3.8,9,6.2c3,2.2,6,5,8.8,8.2c2.8,3.4,5.6,7.8,6.8,14c0.4,3,0.4,6.6-0.4,9.8
					c-0.4,1.6-1,3-1.6,4.4c-0.6,1.2-1.4,2.8-2.2,3.8c-3,4.6-6.6,7.8-9.8,10.4s-6.4,4.8-9.6,6.8c-6.2,4-12,7.4-17,10.8
					c-7.6,5.2-18,3.2-23.2-4.4c-5.2-7.6-3.2-18,4.4-23.2c1-0.6,2-1.2,3-1.6l0.4-0.2c6.8-2.8,13.2-5,18.8-7.2
					c2.8-1.2,5.4-2.2,7.8-3.4c2.2-1.2,4-2.4,5-3c0.4-0.2,0.4-0.2,0.6-0.4c0,0,0.2-0.2,0.4-0.2s0.4,0,0.6-0.2c0.4-0.4,0-2.2-1-4.4
					c-1-2-2.6-4.4-4.6-6.6c-1.8-2.2-4-4.4-6.4-6.6l-0.2-0.2c-3.4-3.2-3.4-8.6-0.2-11.8C784,643.9,788.4,643.3,791.6,645.5z"/>
				<path class="st12" d="M773.4,781.3c-29.6-25.2-59.2-21.4-85.8,7L633,750.5l47-111.4l115.4,48L773.4,781.3z"/>
				<path class="st13" d="M760,744.3c4.6,4.4,0,22.2-1.8,26.6c5,2.6,10,6,15.2,10.4l24.2-93.2l-88-36.6c-0.2,7.4-0.6,18.6,0.6,28.2
					C709.6,692.9,726.8,713.3,760,744.3z"/>
				<path class="st13" d="M720,661.7c0,0,0-1.8,0-4.8s-0.2-7.4-0.4-12.8s-0.6-11.6-1.2-18.6c-0.4-3.6-0.8-7.2-1.6-11.2
					s-1.6-8.2-3.4-12.8c-0.4-1.2-1-2.4-1.4-3.6c-0.6-1.2-1.2-2.4-2-3.8c-1.6-2.6-3.6-5.4-6.4-7.8c-1.4-1.2-3-2.4-4.8-3.4
					s-3.6-1.6-5.4-2.2c-1.8-0.4-3.8-0.8-5.4-0.8c-0.8,0-1.6,0-2.4,0c0.4,0.4,0.6,1,0.8,1.4c2.2,0.8,4.2,1.8,6,3
					c5.8,3,10.4,8.4,12.8,15.6c6.8,20.8,5,43.2,4.6,64.8c0,3.6-0.8,6.6,0.8,10.2c0.4,0.6,0.8,1.4,1.4,1.8
					C717.4,679.3,720,664.5,720,661.7z"/>
				<path class="st13" d="M758,644.9c-2.8,12.2-5,27.4-21.6,22.4c-6.6-2,7.2,26.4,5.8,32.8c8.6-2,15.4-9,16.8-18l0,0
					c0,0,0.2-1.6,0.6-4.2c0.4-2.6,1-6.6,2-11.2c1-4.8,2.2-10.6,3.4-16.6c0.6-3.2,1.2-6.4,1.8-10c0.6-3.6,1.2-7.2,1.6-11.2
					c0.4-4,0.6-8,0.2-12.6c-0.4-4.6-1.2-9.6-3.4-14.4c-2.2-5-5.6-9.4-9.6-12.4c0,0-0.2,0-0.2-0.2C766.8,605.1,762.2,626.7,758,644.9
					z"/>
				<path class="st13" d="M795.8,671.5c1.4-2.6,3-5.4,4.4-8.2c1.6-3,3.2-6,4.8-9.8c1.6-3.6,3-7.8,3.8-13c0.4-2.6,0.4-5.4,0.2-8.4
					c-0.4-2.8-1.2-5.8-2.2-8.4c-2.2-5.2-5.6-8.8-8.6-11.4c-1.4-1.2-3-2.4-4.4-3.2c-0.8-0.4-1.4-0.8-2-1.4c-0.6-0.4-1.4-0.8-2-1
					c-2.6-1.4-4.8-2.4-6.8-3.2c-0.6-0.2-1-0.4-1.4-0.6c15.4,8.6,24.2,27,15,45.2c-10.8,21.6-23,43.6-36.4,64
					c11.4,2,22.4-5,25.4-16.2c0,0,0.2-1,0.8-3c0.6-2,1.6-4.8,3.2-8.4c0.8-1.8,1.8-3.8,2.8-6C793.2,676.3,794.4,674.1,795.8,671.5z"
					/>
				<path class="st13" d="M816.6,678.7c0.2-5-1.2-9.2-2.8-12.4c-1.6-3.4-3.6-5.6-5.4-7.8c-0.4-0.4-0.8-0.8-1.2-1.2
					c2,6.6,1.6,13.8-2.4,20.6c-8.2,14.4-24.8,20-39.6,25.6c-5.4,2-10.6,0.8-14.6-2c-1.4,4.6-0.8,9.6,2.2,13.8
					c5.2,7.6,15.6,9.6,23.2,4.6l0,0c0,0,1-0.6,2.6-1.8c1.8-1.2,4.4-2.8,7.6-4.8c3.2-2,7.4-4.6,11.8-7.8c2.2-1.6,4.6-3.4,7-5.6
					s5-4.8,7.2-8.4C814.6,688.3,816.6,683.5,816.6,678.7z"/>
				<path class="st12" d="M589.2,662.3c6.2,1.8,11.2,5,15.2,8.2c4,3.4,7.4,6.8,10.4,10.2c6,6.8,11.2,13.4,16.2,19.2
					s10.2,11,15.2,14.6c5,3.6,9.6,5.2,13.6,5.4c12.4,0.6,21.8,11.2,21.2,23.6c-0.6,12.4-11.2,21.8-23.6,21.2
					c-2.2-0.2-4.4-0.6-6.6-1.4l-3.4-1.2c-5.8-2.2-11.2-5.2-15.8-8.6c-4.6-3.4-8.6-7.4-12-11.2c-6.8-7.8-11.6-16-15.6-23.6
					c-4.2-7.6-7.6-15-11.2-21.4c-1.8-3.2-3.6-6.2-5.4-8.6c-1.8-2.4-3.6-4-5.2-5.2l-2-1.4c-5-3.4-6.2-10.2-2.8-15.2
					C580,662.7,584.8,661.1,589.2,662.3z"/>
			</g>
			<path class="st12" d="M758.2,887.5c12.6,16.2,25.2,32.2,37,47.6c5.8,7.6,11.4,15.2,16,22.2c1.2,1.8,2.4,3.6,3.4,5.2l3,5l0.8,1.2
				l0.6,1.2l1.2,2.4l1.2,2.4c0.4,0.8,0.6,1.4,1,2.2c0.6,1.4,1.2,2.8,1.6,4c0.4,1.2,0.8,2.4,1.2,3.6c0.4,2.2,1,4,0.8,5.8
				c0.2,3,0,5.8-0.8,9.8h114.2c-0.2-10.6-1.4-21.8-3.8-32.4c-1.8-8.2-4.6-15.8-7.6-23.2c-1.6-3.4-3.2-7-4.8-10.4s-3.4-6.2-5.2-9.4
				c-7.2-12-14.8-22.2-22.2-31c-7.4-9-14.8-17-22-24.8c-14.4-15.4-28.4-29.8-42-44.2c-27.4-28.8-53.6-57.8-79.2-88.2l-0.2-0.2
				c-13.8-16.4-38.2-20-56.2-7.6c-19.4,13.2-24.4,39.6-11.2,59C708.4,821.5,733,855.1,758.2,887.5z"/>
		</g>
		<g>
			
				<linearGradient id="SVGID_7_" gradientUnits="userSpaceOnUse" x1="702.6006" y1="130.3205" x2="800.7385" y2="114.2615" gradientTransform="matrix(1 0 0 -1 0 1000)">
				<stop  offset="0" style="stop-color:#FFFFFF"/>
				<stop  offset="0.9721" style="stop-color:#ACE3DB"/>
			</linearGradient>
			<path class="st17" d="M758.2,887.3c12.6,16.2,25.2,32.2,37,47.6l4.2,5.8l2.2,2.8l2,2.8l4,5.6c1.4,1.8,2.4,3.6,3.6,5.4l1.8,2.6
				l0.8,1.4l0.8,1.2l3,5c0.6,0.8,1,1.6,1.4,2.4l1.2,2.4l1.2,2.4c0.4,0.8,0.6,1.4,1,2.2l0.8,2c0.2,0.6,0.6,1.4,0.8,2
				c0.4,1.2,0.8,2.4,1.2,3.6c0.2,1,0.4,2,0.6,3l0.2,0.8v0.6c0,0.4,0,1,0,1.4c0.2,3,0,6-0.8,9.8h114.6c-0.2-10.4-1.2-21.4-3.8-32
				l-1.6-6l-0.8-3l-1-2.8c-1.4-3.8-2.6-7.6-4.2-11.2c-1.6-3.4-3.2-7-4.8-10.4c-0.8-1.8-1.8-3.2-2.6-4.8l-2.6-4.6
				c-0.8-1.6-1.8-3.2-2.8-4.6l-2.8-4.2l-2.8-4.2c-1-1.4-1.8-2.8-2.8-4l-5.6-7.4l-1.4-1.8l-1.4-1.6l-2.8-3.4
				c-1.8-2.2-3.8-4.6-5.6-6.6l-5.6-6.2l-2.8-3.2l-2.8-3l-5.4-6c-14.4-15.6-28.4-29.8-42.2-44.4c-13.4-14-26.4-28.2-39.2-42.4h-0.2
				c-21.8-28-91.4-5.6-87.2,34.4C722.6,840.7,740.2,864.3,758.2,887.3z"/>
			
				<linearGradient id="SVGID_8_" gradientUnits="userSpaceOnUse" x1="751.0669" y1="237.4024" x2="937.6503" y2="-75.7918" gradientTransform="matrix(1 0 0 -1 0 1000)">
				<stop  offset="0" style="stop-color:#6F9FBB"/>
				<stop  offset="1" style="stop-color:#514F71"/>
			</linearGradient>
			<path class="st18" d="M770,915.3c7.8,10,15.2,19.6,22.4,29l6.4,8.4l6,8.4c0.8,1,1.4,2,2.2,3c0.4,0.6,1,1.4,1.4,2l2.6,3.8l3.8,6.4
				c0.4,0.4,0.6,1,1,1.8l1.2,2.4l1.2,2.2c0.2,0.2,0.2,0.4,0.2,0.6c0.2,0.4,0.2,0.8,0.4,1l0.8,2c0.2,0.4,0.2,0.6,0.4,1v0.2
				c0.4,1.2,0.8,2.4,1.2,3.6c0,0.2,0,0.4,0,0.6c0.2,0.8,0.2,1.4,0.4,2c0,0.4,0,1,0,1.4c0,1.6,0,3.2-0.2,5h131
				c-0.4-9-1.4-19.2-4-29.8l-1.6-6.2l-0.8-3.2l-1.2-3.2l-0.4-1.4c-1.2-3.4-2.4-6.8-3.8-10.2l-0.2-0.2c-1.6-3.6-3.2-7-4.8-10.4
				c-0.8-1.6-1.6-3-2.2-4.2l-3.4-6l-0.8-1.4c-0.6-1.2-1.4-2.4-2.2-3.6l-2.8-4.2l-2.8-4c-1-1.4-2-3-3-4.4l-5.6-7.4l-1.4-1.8
				c0,0-5.6-6.8-6.2-7.6c-1.4-1.6-2.6-3.2-3.8-4.6l-8.4-9.6l-8.2-9c-9-9.6-18-19-26.6-28c-5.2-5.6-10.6-11-15.8-16.4
				c-7.8-8-15.4-16.2-22.8-24.4c-12.8-2.8-25.6-3-38.8,0.6c-5,1.4-10.2,2.8-15,4.8c-0.2,0.2-3.2,1.6-4,2c-1.8,1-3.4,1.8-5.2,2.8
				c-1.8,1.2-3.8,2.4-5.6,3.6c-0.2,0.2-0.6,0.6-1,0.8c-3,2.8-5.8,5.6-8.6,8.6c-0.4,0.4-0.4,0.4-0.6,0.6c-0.2,0.2-0.2,0.4-0.4,0.8
				c-1,1.4-2,3-3,4.4c-2.4,3.8-4.4,7.8-6.4,11.6c-0.2,0.4-0.4,0.6-0.4,1c-0.8,1.8-1.4,3.8-2.2,5.6c-1.2,3.4-2.4,7-3.4,10.6
				c10,13.4,20.2,26.8,30.6,40.2C760.4,902.9,765.2,909.1,770,915.3z"/>
		</g>
		<path class="st16" d="M576.6,673.5c-0.4,1.8-0.6,3.8,0.4,5.4c0.8,1.2,2,1.8,3.2,2.6c3.2,1.8,6.4,3.6,9.8,5.6
			c0.2,0,0.4,0.2,0.6,0.2c0.4,0,0.6-0.4,0.6-0.6c0.4-0.8,1-1.8,1.4-2.6c0.4-0.6,0.6-1.2,0.8-1.8c0-0.8-0.2-1.6-0.6-2.4
			c-2.2-4.4-5.2-8-9.2-11c-2.4-1.8-2.2-2-4-0.6C577.8,669.5,577.2,671.5,576.6,673.5z"/>
	</g>
</g>
</svg>
