<?xml version="1.0" encoding="utf-8"?>
<!-- Generator: Adobe Illustrator 25.2.1, SVG Export Plug-In . SVG Version: 6.00 Build 0)  -->
<svg version="1.1" id="Layer_1" xmlns="http://www.w3.org/2000/svg" xmlns:xlink="http://www.w3.org/1999/xlink" x="0px" y="0px"
	 width="1000px" height="1000px" viewBox="0 0 1000 1000" style="enable-background:new 0 0 1000 1000;" xml:space="preserve">
<style type="text/css">
	.st0{fill:#407BFF;}
	.st1{fill:#EBEBEB;}
	.st2{fill:#F0F0F0;}
	.st3{fill:#E0E0E0;}
	.st4{fill:none;stroke:#E6E6E6;stroke-miterlimit:10;}
	.st5{opacity:0.8;fill:#E0E0E0;enable-background:new    ;}
	.st6{fill:#F5F5F5;}
	.st7{fill:#FAFAFA;}
	.st8{fill:#263238;}
	.st9{opacity:0.2;fill:#FFFFFF;enable-background:new    ;}
	.st10{opacity:0.4;fill:#FFFFFF;enable-background:new    ;}
	.st11{opacity:0.6;fill:#FFFFFF;enable-background:new    ;}
	.st12{fill:#FFFFFF;}
	.st13{opacity:0.1;enable-background:new    ;}
	.st14{opacity:0.7;fill:#FFFFFF;enable-background:new    ;}
	.st15{opacity:0.2;enable-background:new    ;}
	.st16{fill:none;stroke:#FFFFFF;stroke-miterlimit:10;}
	.st17{fill:none;stroke:#FFFFFF;stroke-miterlimit:10;stroke-dasharray:5.2837,5.2837;}
	.st18{fill:none;stroke:#FFFFFF;stroke-miterlimit:10;stroke-dasharray:4.5294,4.5294;}
	.st19{fill:#407BFF;stroke:#FFFFFF;stroke-miterlimit:10;}
	.st20{fill:none;stroke:#FFFFFF;stroke-width:1.5;stroke-linecap:round;stroke-linejoin:round;stroke-miterlimit:10;}
	.st21{opacity:0.5;fill:#FFFFFF;enable-background:new    ;}
	.st22{fill:none;stroke:#407BFF;stroke-miterlimit:10;}
	.st23{fill:#FFFFFF;stroke:#407BFF;stroke-miterlimit:10;}
	.st24{opacity:0.4;enable-background:new    ;}
	.st25{opacity:0.9;fill:#FFFFFF;enable-background:new    ;}
	.st26{opacity:0.1;}
	.st27{opacity:0.3;enable-background:new    ;}
	.st28{fill:#EBB376;}
	.st29{fill:none;stroke:#263238;stroke-width:0.5;stroke-linecap:round;stroke-linejoin:round;stroke-miterlimit:10;}
	.st30{opacity:0.3;fill:#FFFFFF;enable-background:new    ;}
	.st31{fill:#B97964;}
	.st32{fill:#A24E3F;}
	.st33{fill:none;stroke:#FFFFFF;stroke-width:2;stroke-linecap:round;stroke-linejoin:round;stroke-miterlimit:10;}
</style>
<rect class="st0" width="1000" height="1000"/>
<g id="Background_Complete">
	<g>
		<rect y="764.8" class="st1" width="1000" height="0.4"/>
		<rect x="833.6" y="797" class="st1" width="66.2" height="0.4"/>
		<rect x="645" y="802.4" class="st1" width="17.4" height="0.4"/>
		<rect x="793.2" y="778.4" class="st1" width="38.4" height="0.4"/>
		<rect x="105" y="781.8" class="st1" width="86.4" height="0.4"/>
		<rect x="209.2" y="781.8" class="st1" width="12.6" height="0.4"/>
		<rect x="263" y="790.2" class="st1" width="187.4" height="0.4"/>
		<path class="st1" d="M474,675.6H87.8c-6.2,0-11.4-5.2-11.4-11.4V121.4c0-6.2,5.2-11.4,11.4-11.4H474c6.2,0,11.4,5.2,11.4,11.4
			v542.8C485.4,670.4,480.4,675.6,474,675.6z M87.8,110.4c-6,0-11,4.8-11,11v542.8c0,6,4.8,11,11,11H474c6,0,11-4.8,11-11V121.4
			c0-6-4.8-11-11-11H87.8z"/>
		<path class="st1" d="M906.6,675.6H520.4c-6.2,0-11.4-5.2-11.4-11.4V121.4c0-6.2,5.2-11.4,11.4-11.4h386.2
			c6.2,0,11.4,5.2,11.4,11.4v542.8C918,670.4,913,675.6,906.6,675.6z M520.4,110.4c-6,0-11,4.8-11,11v542.8c0,6,4.8,11,11,11h386.2
			c6,0,11-4.8,11-11V121.4c0-6-4.8-11-11-11H520.4z"/>
	</g>
	<g>
		<g>
			<path class="st2" d="M707.8,196.2c0-5.4-4.4-9.8-9.8-9.8c-1,0-2,0.2-2.8,0.4c0.2-1,0.2-2,0.2-3c0-11.4-9.2-20.8-20.8-20.8
				c-1.4,0-2.6,0.2-3.8,0.4c-3.2-5.2-9-8.6-15.4-8.6c-10,0-18,8-18.2,17.8c-0.2,0-0.2,0-0.4,0c-9.2,0-16.6,7.4-16.6,16.6
				s7.4,16.6,16.6,16.6H698l0,0C703.6,205.8,707.8,201.6,707.8,196.2z"/>
			<polygon class="st3" points="672,211 672,191.8 656.4,191.8 656.4,211 643.6,211 664.2,228.2 684.6,211 			"/>
		</g>
		<g>
			<path class="st2" d="M401.4,225.2c0-11.4-9.2-20.8-20.8-20.8c-2,0-4,0.4-6,0.8c0.4-2,0.4-4.2,0.4-6.4c0-24.2-19.6-44-44-44
				c-2.8,0-5.4,0.2-8.2,0.8c-6.8-11-19-18.4-32.8-18.4c-21,0-38.2,17-38.4,38c-0.2,0-0.4,0-0.6,0c-19.6,0-35.4,15.8-35.4,35.4
				S231.4,246,251,246h130.2l0,0C392.4,245.6,401.4,236.4,401.4,225.2z"/>
			<polygon class="st3" points="292,226.8 292,267.2 325,267.2 325,226.8 352,226.8 308.6,190 265,226.8 			"/>
		</g>
		<g>
			<polyline class="st4" points="418,326.2 418,271.8 584.8,271.8 584.8,325.8 			"/>
			<line class="st4" x1="503.8" y1="220.4" x2="503.8" y2="326.2"/>
			<g>
				<path class="st2" d="M532.2,199.8h-56.8c-1.4,0-2.4,1-2.4,2.4V236c0,1.4,1,2.4,2.4,2.4h56.8c1.4,0,2.4-1,2.4-2.4v-33.8
					C534.6,200.8,533.4,199.8,532.2,199.8z"/>
				<path class="st3" d="M531.6,236.8H476c-0.4,0-0.8-0.4-0.8-0.8v-30.8c0-0.4,0.4-0.8,0.8-0.8h55.6c0.4,0,0.8,0.4,0.8,0.8V236
					C532.4,236.4,532,236.8,531.6,236.8z"/>
			</g>
			<g>
				<path class="st2" d="M446.4,321.4h-56.8c-1.4,0-2.4,1-2.4,2.4v33.8c0,1.4,1,2.4,2.4,2.4h56.8c1.4,0,2.4-1,2.4-2.4v-33.8
					C448.6,322.4,447.6,321.4,446.4,321.4z"/>
				<path class="st3" d="M445.8,358.2h-55.6c-0.4,0-0.8-0.4-0.8-0.8v-30.8c0-0.4,0.4-0.8,0.8-0.8h55.6c0.4,0,0.8,0.4,0.8,0.8v30.8
					C446.6,358,446.2,358.2,445.8,358.2z"/>
			</g>
			<g>
				<path class="st2" d="M532.2,321.4h-56.8c-1.4,0-2.4,1-2.4,2.4v33.8c0,1.4,1,2.4,2.4,2.4h56.8c1.4,0,2.4-1,2.4-2.4v-33.8
					C534.6,322.4,533.4,321.4,532.2,321.4z"/>
				<path class="st3" d="M531.6,358.2H476c-0.4,0-0.8-0.4-0.8-0.8v-30.8c0-0.4,0.4-0.8,0.8-0.8h55.6c0.4,0,0.8,0.4,0.8,0.8v30.8
					C532.4,358,532,358.2,531.6,358.2z"/>
			</g>
			<g>
				<path class="st2" d="M613.2,321.4h-56.8c-1.4,0-2.4,1-2.4,2.4v33.8c0,1.4,1,2.4,2.4,2.4h56.8c1.4,0,2.4-1,2.4-2.4v-33.8
					C615.6,322.4,614.6,321.4,613.2,321.4z"/>
				<path class="st3" d="M612.6,358.2H557c-0.4,0-0.8-0.4-0.8-0.8v-30.8c0-0.4,0.4-0.8,0.8-0.8h55.6c0.4,0,0.8,0.4,0.8,0.8v30.8
					C613.4,358,613,358.2,612.6,358.2z"/>
			</g>
			<path class="st3" d="M502.6,255.2l-15.4,15.4c-0.6,0.6-0.6,1.6,0,2.2l15.4,15.4c0.6,0.6,1.6,0.6,2.2,0l15.4-15.4
				c0.6-0.6,0.6-1.6,0-2.2l-15.4-15.4C504.2,254.6,503.2,254.6,502.6,255.2z"/>
		</g>
		<g>
			<path class="st5" d="M178.2,271.4h-40c-1,0-1.8-0.8-1.8-1.8V247c0-1,0.8-1.8,1.8-1.8h40c1,0,1.8,0.8,1.8,1.8v22.6
				C180,270.6,179.2,271.4,178.2,271.4z"/>
			<path class="st3" d="M147.6,321.2H116c-1,0-1.8-0.8-1.8-1.8V303c0-1,0.8-1.8,1.8-1.8h31.6c1,0,1.8,0.8,1.8,1.8v16.4
				C149.4,320.4,148.6,321.2,147.6,321.2z"/>
			<path class="st3" d="M201,321.2h-31.6c-1,0-1.8-0.8-1.8-1.8V303c0-1,0.8-1.8,1.8-1.8H201c1,0,1.8,0.8,1.8,1.8v16.4
				C202.8,320.4,202,321.2,201,321.2z"/>
			<g>
				<path class="st3" d="M168.2,360.4h-15c-1,0-1.8-0.8-1.8-1.8V345c0-1,0.8-1.8,1.8-1.8h15c1,0,1.8,0.8,1.8,1.8v13.6
					C170,359.6,169.2,360.4,168.2,360.4z"/>
				<path class="st3" d="M191.6,360.4h-15c-1,0-1.8-0.8-1.8-1.8V345c0-1,0.8-1.8,1.8-1.8h15c1,0,1.8,0.8,1.8,1.8v13.6
					C193.4,359.6,192.6,360.4,191.6,360.4z"/>
				<path class="st3" d="M215.2,360.4h-15c-1,0-1.8-0.8-1.8-1.8V345c0-1,0.8-1.8,1.8-1.8h15c1,0,1.8,0.8,1.8,1.8v13.6
					C216.8,359.6,216,360.4,215.2,360.4z"/>
			</g>
			<path class="st3" d="M114,360.4H99c-1,0-1.8-0.8-1.8-1.8V345c0-1,0.8-1.8,1.8-1.8h15c1,0,1.8,0.8,1.8,1.8v13.6
				C115.6,359.6,114.8,360.4,114,360.4z"/>
			<path class="st3" d="M139.4,360.4h-15c-1,0-1.8-0.8-1.8-1.8V345c0-1,0.8-1.8,1.8-1.8h15c1,0,1.8,0.8,1.8,1.8v13.6
				C141.2,359.6,140.4,360.4,139.4,360.4z"/>
			<g>
				<polygon class="st3" points="183.2,301.4 185.2,301.4 185.2,287.4 159.2,287.4 159.2,271.4 157.2,271.4 157.2,287.4 
					131.2,287.4 131.2,301.4 133.2,301.4 133.2,289.4 183.2,289.4 				"/>
				<polygon class="st3" points="131.2,333.4 105.2,333.4 105.2,343.4 107.2,343.4 107.2,335.4 131.2,335.4 131.2,343.4 
					133.2,343.4 133.2,321.4 131.2,321.4 				"/>
				<polygon class="st3" points="185.2,335.4 185.2,321.4 183.2,321.4 183.2,335.4 159.2,335.4 159.2,343.4 161.2,343.4 
					161.2,337.4 183.2,337.4 183.2,343.4 185.2,343.4 185.2,337.4 207.2,337.4 207.2,343.4 209.2,343.4 209.2,335.4 				"/>
			</g>
		</g>
		<g>
			<path class="st6" d="M762,251.6V266l7.4,0.6c1,4.8,3,9.2,5.6,13.2l-4.8,5.8l10.2,10.2l5.8-4.8c4,2.6,8.4,4.6,13.2,5.6l0.6,7.4
				h14.4l0.6-7.4c4.8-1,9.2-3,13.2-5.6l5.8,4.8l10.2-10.2l-4.8-5.8c2.6-4,4.6-8.4,5.6-13.2l7.4-0.6v-14.4L845,251
				c-1-4.8-3-9.2-5.6-13.2l4.8-5.8L834,221.8l-5.8,4.8c-4-2.6-8.4-4.6-13.2-5.6l-0.6-7.4H800l-0.6,7.4c-4.8,1-9.2,3-13.2,5.6
				l-5.8-4.8L770.2,232l4.8,5.8c-2.6,4-4.6,8.4-5.6,13.2L762,251.6z M807.2,239.2c10.8,0,19.4,8.8,19.4,19.4
				c0,10.8-8.8,19.4-19.4,19.4c-10.8,0-19.4-8.8-19.4-19.4S796.4,239.2,807.2,239.2z"/>
			<path class="st6" d="M771.2,356.4c3.8-0.8,7.2-2.2,10.4-4.4l4.4,3.8l8-8l-3.8-4.4c2-3.2,3.6-6.6,4.4-10.4l5.8-0.6v-11.2l-5.8-0.6
				c-0.8-3.8-2.2-7.2-4.4-10.4l3.8-4.4l-8-8l-4.4,3.8c-3.2-2-6.6-3.6-10.4-4.4l-0.6-5.8h-11.2l-0.6,5.8c-3.8,0.8-7.2,2.2-10.4,4.4
				l-4.4-3.8l-8,8l3.8,4.4c-2,3.2-3.6,6.6-4.4,10.4l-5.8,0.6v11.2l5.8,0.6c0.8,3.8,2.2,7.2,4.4,10.4l-3.8,4.4l8,8l4.4-3.8
				c3.2,2,6.6,3.6,10.4,4.4l0.6,5.8h11.2L771.2,356.4z M749.8,326.8c0-8.4,6.8-15.2,15.2-15.2s15.2,6.8,15.2,15.2
				c0,8.4-6.8,15.2-15.2,15.2S749.8,335.2,749.8,326.8z"/>
			<path class="st6" d="M746.2,295.4l3.8,3.2l6.6-6.6l-3.2-3.8c1.8-2.6,3-5.6,3.6-8.8l4.8-0.4v-9.4l-4.8-0.4c-0.6-3.2-2-6.2-3.6-8.8
				l3.2-3.8L750,250l-3.8,3.2c-2.6-1.8-5.6-3-8.8-3.6l-0.4-4.8h-9.4l-0.4,4.8c-3.2,0.6-6.2,2-8.8,3.6l-3.8-3.2l-6.6,6.6l3.2,3.8
				c-1.8,2.6-3,5.6-3.6,8.8l-4.8,0.4v9.4l4.8,0.4c0.6,3.2,2,6.2,3.6,8.8L708,292l6.6,6.6l3.8-3.2c2.6,1.8,5.6,3,8.8,3.6l0.4,4.8h9.4
				l0.4-4.8C740.6,298.4,743.6,297.2,746.2,295.4z M719.4,274.2c0-7,5.8-12.8,12.8-12.8s12.8,5.8,12.8,12.8s-5.8,12.8-12.8,12.8
				S719.4,281.2,719.4,274.2z"/>
		</g>
		<g>
			<g>
				<rect x="744.4" y="648" class="st6" width="134.2" height="87.4"/>
			</g>
			<rect x="749.4" y="664.4" class="st3" width="124.4" height="66.6"/>
			<g>
				<rect x="759.6" y="674.4" class="st6" width="92" height="2.8"/>
				<rect x="759.6" y="683.2" class="st6" width="44.2" height="2.8"/>
				<rect x="759.6" y="692" class="st6" width="55.6" height="2.8"/>
				<rect x="759.6" y="700.8" class="st6" width="19.6" height="2.8"/>
				<rect x="759.6" y="709.4" class="st6" width="12.6" height="2.8"/>
			</g>
		</g>
		<g>
			
				<rect x="95.8" y="647.8" transform="matrix(1 -4.558249e-03 4.558249e-03 1 -3.0858 0.6616)" class="st1" width="95.6" height="59"/>
			<g>
				<g>
					<path class="st7" d="M132.2,692.2c-0.4,0-0.8-0.2-1.2-0.4L113.6,679c-0.6-0.4-0.8-1-0.8-1.6s0.2-1.2,0.8-1.6L131,663
						c0.8-0.6,2.2-0.4,2.8,0.4c0.6,0.8,0.4,2.2-0.4,2.8l-15.2,11.2l15.2,11.2c0.8,0.6,1,2,0.4,2.8
						C133.6,691.8,133,692.2,132.2,692.2z"/>
				</g>
				<g>
					<path class="st7" d="M155,692c-0.6,0-1.2-0.2-1.6-0.8c-0.6-0.8-0.4-2.2,0.4-2.8l15.2-11.2L153.8,666c-0.8-0.6-1-2-0.4-2.8
						s2-1,2.8-0.4l17.4,12.8c0.6,0.4,0.8,1,0.8,1.6s-0.2,1.2-0.8,1.6l-17.4,12.8C155.8,691.8,155.4,692,155,692z"/>
				</g>
				<g>
					<path class="st7" d="M139,692c-0.2,0-0.4,0-0.6-0.2c-1-0.4-1.6-1.6-1.2-2.6l9-25.6c0.4-1,1.6-1.6,2.6-1.2
						c1,0.4,1.6,1.6,1.2,2.6l-9,25.6C140.6,691.6,139.8,692,139,692z"/>
				</g>
			</g>
		</g>
	</g>
</g>
<g id="Shadow_1_">
	<ellipse id="_x3C_Path_x3E__359_" class="st6" cx="500" cy="832.4" rx="387.8" ry="22.6"/>
</g>
<g id="Ladder">
	<g>
		<g>
			<polygon class="st8" points="668.8,832.4 683.4,832.4 703.4,722 688.8,722 			"/>
			<polygon class="st9" points="668.8,832.4 683.4,832.4 703.4,722 688.8,722 			"/>
			<polygon class="st9" points="668.8,832.4 679.4,832.4 699.4,722 688.8,722 			"/>
		</g>
		<path class="st8" d="M627.4,754.8h58.8c1.8,0,3.2-1.4,3.2-3.2l0,0c0-1.8-1.4-3.2-3.2-3.2h-58.8c-1.8,0-3.2,1.4-3.2,3.2l0,0
			C624.2,753.4,625.6,754.8,627.4,754.8z"/>
		<path class="st8" d="M620.8,791.8h58.8c1.8,0,3.2-1.4,3.2-3.2l0,0c0-1.8-1.4-3.2-3.2-3.2h-58.8c-1.8,0-3.2,1.4-3.2,3.2l0,0
			C617.6,790.4,619,791.8,620.8,791.8z"/>
		<g>
			<polygon class="st8" points="608.8,832.4 623.4,832.4 643.4,722 628.8,722 			"/>
			<polygon class="st9" points="608.8,832.4 623.4,832.4 643.4,722 628.8,722 			"/>
			<polygon class="st9" points="608.8,832.4 619.4,832.4 639.4,722 628.8,722 			"/>
		</g>
		<g>
			<polygon class="st8" points="745.4,832.4 730.8,832.4 710.8,722 725.4,722 			"/>
			<polygon class="st10" points="745.4,832.4 730.8,832.4 710.8,722 725.4,722 			"/>
			<polygon class="st9" points="741.4,832.4 730.8,832.4 710.8,722 721.4,722 			"/>
		</g>
		<path class="st8" d="M719.6,754.8h-58.8c-1.8,0-3.2-1.4-3.2-3.2l0,0c0-1.8,1.4-3.2,3.2-3.2h58.8c1.8,0,3.2,1.4,3.2,3.2l0,0
			C722.8,753.4,721.4,754.8,719.6,754.8z"/>
		<path class="st8" d="M726.2,791.8h-58.8c-1.8,0-3.2-1.4-3.2-3.2l0,0c0-1.8,1.4-3.2,3.2-3.2h58.8c1.8,0,3.2,1.4,3.2,3.2l0,0
			C729.4,790.4,728,791.8,726.2,791.8z"/>
		<path class="st9" d="M719.6,754.8h-58.8c-1.8,0-3.2-1.4-3.2-3.2l0,0c0-1.8,1.4-3.2,3.2-3.2h58.8c1.8,0,3.2,1.4,3.2,3.2l0,0
			C722.8,753.4,721.4,754.8,719.6,754.8z"/>
		<path class="st9" d="M726.2,791.8h-58.8c-1.8,0-3.2-1.4-3.2-3.2l0,0c0-1.8,1.4-3.2,3.2-3.2h58.8c1.8,0,3.2,1.4,3.2,3.2l0,0
			C729.4,790.4,728,791.8,726.2,791.8z"/>
		<g>
			<polygon class="st8" points="685.4,832.4 670.8,832.4 650.8,722 665.4,722 			"/>
			<polygon class="st10" points="685.4,832.4 670.8,832.4 650.8,722 665.4,722 			"/>
			<polygon class="st9" points="681.4,832.4 670.8,832.4 650.8,722 661.4,722 			"/>
		</g>
		<g>
			<path class="st8" d="M731.2,727.2H625c-1.4,0-2.4-1-2.4-2.4V719c0-1.4,1-2.4,2.4-2.4h106.2c1.4,0,2.4,1,2.4,2.4v5.8
				C733.6,726.2,732.4,727.2,731.2,727.2z"/>
			<path class="st9" d="M665.4,727.2H625c-1.4,0-2.4-1-2.4-2.4V719c0-1.4,1-2.4,2.4-2.4h40.4c1.4,0,2.4,1,2.4,2.4v5.8
				C667.8,726.2,666.6,727.2,665.4,727.2z"/>
		</g>
	</g>
</g>
<g id="interface">
	<g>
		<g>
			<rect x="254.4" y="743.6" class="st0" width="134.2" height="87.4"/>
			<rect x="254.4" y="743.6" class="st11" width="134.2" height="87.4"/>
		</g>
		<rect x="259.4" y="760" class="st0" width="124.4" height="66.6"/>
		<g>
			<rect x="269.4" y="770" class="st12" width="92" height="2.8"/>
			<rect x="269.4" y="778.8" class="st12" width="44.2" height="2.8"/>
			<rect x="269.4" y="787.6" class="st12" width="55.6" height="2.8"/>
			<rect x="269.4" y="796.4" class="st12" width="19.6" height="2.8"/>
			<rect x="269.4" y="805.2" class="st12" width="12.6" height="2.8"/>
		</g>
	</g>
</g>
<g id="Monitor">
	<g>
		<g>
			<polygon class="st0" points="554.6,832.4 445.4,832.4 463.8,687.2 536.2,687.2 			"/>
			<polygon class="st11" points="554.6,832.4 445.4,832.4 458,733 463.8,687.2 536.2,687.2 544.8,754.8 			"/>
			<polygon class="st13" points="544.8,754.8 458,733 463.8,687.2 536.2,687.2 			"/>
		</g>
		<g>
			<path class="st0" d="M757.8,328.8h-11H253.2h-11c-7.2,0-13.2,6-13.2,13.2v349c0,7.2,6,13.2,13.2,13.2h11h493.6h11
				c7.2,0,13.2-6,13.2-13.2V342C771,334.6,765,328.8,757.8,328.8z"/>
			<path class="st14" d="M757.8,328.8h-11H253.2h-11c-7.2,0-13.2,6-13.2,13.2v349c0,7.2,6,13.2,13.2,13.2h11h493.6h11
				c7.2,0,13.2-6,13.2-13.2V342C771,334.6,765,328.8,757.8,328.8z"/>
		</g>
		<rect x="246.4" y="341.6" class="st0" width="507.2" height="336.4"/>
		<g>
			<path class="st0" d="M591.8,821.6H408.2c-1.2,0-2,1-2,2v6.6c0,1.2,1,2,2,2h183.6c1.2,0,2-1,2-2v-6.6
				C593.8,822.4,593,821.6,591.8,821.6z"/>
			<path class="st14" d="M591.8,821.6H408.2c-1.2,0-2,1-2,2v6.6c0,1.2,1,2,2,2h183.6c1.2,0,2-1,2-2v-6.6
				C593.8,822.4,593,821.6,591.8,821.6z"/>
		</g>
		<g>
			<rect x="246.4" y="342" class="st15" width="507.2" height="50.2"/>
			<rect x="246.4" y="392.8" class="st10" width="217.4" height="285.4"/>
			<g>
				<g>
					<g>
						<polyline class="st16" points="675.6,465.6 675.6,470.6 670.6,470.6 						"/>
						<line class="st17" x1="660" y1="470.6" x2="496.2" y2="470.6"/>
						<polyline class="st16" points="490.8,470.6 485.8,470.6 485.8,465.6 						"/>
						<line class="st18" x1="485.8" y1="456.6" x2="485.8" y2="370.4"/>
						<polyline class="st16" points="485.8,366 485.8,361 490.8,361 						"/>
						<line class="st17" x1="501.4" y1="361" x2="665.2" y2="361"/>
						<polyline class="st16" points="670.6,361 675.6,361 675.6,366 						"/>
						<line class="st18" x1="675.6" y1="375" x2="675.6" y2="461"/>
					</g>
				</g>
				<g>
					<rect x="672.4" y="357.8" class="st19" width="6.4" height="6.4"/>
					<rect x="672.4" y="467.4" class="st19" width="6.4" height="6.4"/>
					<rect x="482.8" y="357.8" class="st19" width="6.4" height="6.4"/>
					<rect x="482.8" y="467.4" class="st19" width="6.4" height="6.4"/>
				</g>
				<g>
					<rect x="577.6" y="357.8" class="st19" width="6.4" height="6.4"/>
					<rect x="577.6" y="467.4" class="st19" width="6.4" height="6.4"/>
				</g>
				<g>
					<rect x="672.4" y="412.6" class="st19" width="6.4" height="6.4"/>
					<rect x="482.8" y="412.6" class="st19" width="6.4" height="6.4"/>
				</g>
			</g>
			<path class="st14" d="M658.4,417.8H612c-2,0-3.8-1.6-3.8-3.8v-12.4c0-2,1.6-3.8,3.8-3.8h46.4c2,0,3.8,1.6,3.8,3.8V414
				C662,416,660.4,417.8,658.4,417.8z"/>
			<path class="st14" d="M578.4,417.8H532c-2,0-3.8-1.6-3.8-3.8v-12.4c0-2,1.6-3.8,3.8-3.8h46.4c2,0,3.8,1.6,3.8,3.8V414
				C582,416,580.4,417.8,578.4,417.8z"/>
			<path class="st14" d="M475.4,660.8H429c-2,0-3.8-1.6-3.8-3.8v-12.4c0-2,1.6-3.8,3.8-3.8h46.4c2,0,3.8,1.6,3.8,3.8V657
				C479,659.2,477.4,660.8,475.4,660.8z"/>
			<g>
				<line class="st20" x1="720.2" y1="359.8" x2="737" y2="359.8"/>
				<line class="st20" x1="720.2" y1="367.8" x2="737" y2="367.8"/>
				<line class="st20" x1="720.2" y1="375.8" x2="737" y2="375.8"/>
			</g>
			<rect x="280.8" y="437" class="st21" width="170.2" height="170.2"/>
			<g>
				<line class="st22" x1="352" y1="451" x2="352" y2="597.6"/>
				<path class="st22" d="M425.4,597.6L425.4,597.6c-40.6,0-73.4-32.8-73.4-73.4l0,0c0-40.6,32.8-73.4,73.4-73.4l0,0"/>
				<rect x="422.2" y="447.8" class="st23" width="6.4" height="6.4"/>
				<rect x="422.2" y="594.4" class="st23" width="6.4" height="6.4"/>
				<rect x="348.8" y="521" class="st23" width="6.4" height="6.4"/>
				<path class="st23" d="M353.6,451c0,1-0.8,1.6-1.6,1.6s-1.6-0.8-1.6-1.6c0-1,0.8-1.6,1.6-1.6S353.6,450,353.6,451z"/>
				<path class="st23" d="M353.6,597.6c0,1-0.8,1.6-1.6,1.6s-1.6-0.8-1.6-1.6c0-1,0.8-1.6,1.6-1.6S353.6,596.8,353.6,597.6z"/>
			</g>
			<path class="st14" d="M633.8,643.4h-51.4c-8.2,0-14.8-6.6-14.8-14.8l0,0c0-8.2,6.6-14.8,14.8-14.8h51.4c8.2,0,14.8,6.6,14.8,14.8
				l0,0C648.8,636.6,642,643.4,633.8,643.4z"/>
			<path class="st14" d="M679.2,516.4H520c-1.8,0-3.2-1.4-3.2-3.2l0,0c0-1.8,1.4-3.2,3.2-3.2h159c1.8,0,3.2,1.4,3.2,3.2l0,0
				C682.4,515,680.8,516.4,679.2,516.4z"/>
			<path class="st14" d="M679.2,540.2H520c-1.8,0-3.2-1.4-3.2-3.2l0,0c0-1.8,1.4-3.2,3.2-3.2h159c1.8,0,3.2,1.4,3.2,3.2l0,0
				C682.4,538.8,680.8,540.2,679.2,540.2z"/>
			<path class="st14" d="M679.2,564H580c-1.8,0-3.2-1.4-3.2-3.2l0,0c0-1.8,1.4-3.2,3.2-3.2h99c1.8,0,3.2,1.4,3.2,3.2l0,0
				C682.4,562.4,680.8,564,679.2,564z"/>
			<g>
				<rect x="262.4" y="356" class="st24" width="11.2" height="11.2"/>
				<path class="st24" d="M292.6,367.2h-5.4c-1.6,0-2.8-1.2-2.8-2.8V359c0-1.6,1.2-2.8,2.8-2.8h5.4c1.6,0,2.8,1.2,2.8,2.8v5.4
					C295.6,365.8,294.2,367.2,292.6,367.2z"/>
				<path class="st24" d="M312.2,367.2h-1c-2.8,0-5.2-2.4-5.2-5.2v-1c0-2.8,2.4-5.2,5.2-5.2h1c2.8,0,5.2,2.4,5.2,5.2v1
					C317.4,364.8,315,367.2,312.2,367.2z"/>
			</g>
			<g>
				<g>
					<path class="st25" d="M297,633v-4.4l-2.2-0.2c-0.4-1.4-0.8-2.8-1.6-4l1.4-1.8l-3-3l-1.8,1.4c-1.2-0.8-2.6-1.4-4-1.6l-0.2-2.2
						h-4.4l-0.2,2.2c-1.4,0.4-2.8,0.8-4,1.6l-1.8-1.4l-3,3l1.4,1.8c-0.8,1.2-1.4,2.6-1.6,4l-2.2,0.2v4.4l2.2,0.2
						c0.4,1.4,0.8,2.8,1.6,4l-1.4,1.8l3,3l1.8-1.4c1.2,0.8,2.6,1.4,4,1.6l0.2,2.2h4.4l0.2-2.2c1.4-0.4,2.8-0.8,4-1.6l1.8,1.4l3-3
						l-1.4-1.8c0.8-1.2,1.4-2.6,1.6-4L297,633z M283.2,636.8c-3.2,0-6-2.6-6-6s2.6-6,6-6c3.2,0,6,2.6,6,6S286.4,636.8,283.2,636.8z"
						/>
					<path class="st11" d="M314.6,645.4V642l-1.8-0.2c-0.2-1.2-0.6-2.2-1.4-3.2l1.2-1.4l-2.4-2.4l-1.4,1.2c-1-0.6-2-1-3.2-1.4
						l-0.2-1.8H302l-0.2,1.8c-1.2,0.2-2.2,0.6-3.2,1.4l-1.4-1.2l-2.4,2.4l1.2,1.4c-0.6,1-1,2-1.4,3.2l-1.8,0.2v3.4l1.8,0.2
						c0.2,1.2,0.6,2.2,1.4,3.2l-1.2,1.4l2.4,2.4l1.4-1.2c1,0.6,2,1,3.2,1.4l0.2,1.8h3.4l0.2-1.8c1.2-0.2,2.2-0.6,3.2-1.4l1.4,1.2
						l2.4-2.4l-1.2-1.4c0.6-1,1-2,1.4-3.2L314.6,645.4z M303.8,648.2c-2.6,0-4.6-2-4.6-4.6s2-4.6,4.6-4.6s4.6,2,4.6,4.6
						C308.6,646.2,306.4,648.2,303.8,648.2z"/>
					<path class="st10" d="M297,655.2v-2.8l-1.4-0.2c-0.2-1-0.6-1.8-1.2-2.6l1-1.2l-2-2l-1.2,1c-0.8-0.6-1.6-1-2.6-1.2l-0.2-1.4
						h-2.8l-0.2,1.4c-1,0.2-1.8,0.6-2.6,1.2l-1.2-1l-2,2l1,1.2c-0.6,0.8-1,1.6-1.2,2.6l-1.4,0.2v2.8l1.4,0.2c0.2,1,0.6,1.8,1.2,2.6
						l-1,1.2l2,2l1.2-1c0.8,0.6,1.6,1,2.6,1.2l0.2,1.4h2.8l0.2-1.4c1-0.2,1.8-0.6,2.6-1.2l1.2,1l2-2l-1-1.2c0.6-0.8,1-1.6,1.2-2.6
						L297,655.2z M287.8,657.6c-2.2,0-4-1.8-4-4s1.8-4,4-4s4,1.8,4,4S290,657.6,287.8,657.6z"/>
				</g>
			</g>
		</g>
		<g>
			<g>
				<polygon class="st0" points="674.4,359.8 682.8,382.4 697,368.2 				"/>
				
					<rect x="687.5" y="370.5" transform="matrix(0.7071 -0.7071 0.7071 0.7071 -63.4734 597.6974)" class="st0" width="4.4" height="10"/>
			</g>
			<polygon class="st10" points="697,368.2 674.4,359.8 682.8,382.4 688.4,377 691.8,380.4 695,377.2 691.6,373.8 			"/>
		</g>
		<g>
			<path class="st8" d="M327,440.8l21.4,8l-11.2-11.2c-0.8,0.4-2,0.4-2.6-0.4c-0.8-0.8-0.8-2.2,0-3.2c0.8-0.8,2.2-0.8,3.2,0
				c0.8,0.8,0.8,1.8,0.4,2.6l11.2,11.2l-8-21.4l-7,1.6l-0.2-2.6l-1.4-1.4l-7.8,7.8l1.4,1.4l2.6,0.2L327,440.8z"/>
			<path class="st9" d="M327,440.8l21.4,8l-11.2-11.2c-0.8,0.4-2,0.4-2.6-0.4c-0.8-0.8-0.8-2.2,0-3.2c0.8-0.8,2.2-0.8,3.2,0
				c0.8,0.8,0.8,1.8,0.4,2.6l11.2,11.2l-8-21.4l-7,1.6l-0.2-2.6l-1.4-1.4l-7.8,7.8l1.4,1.4l2.6,0.2L327,440.8z"/>
		</g>
		<g class="st26">
			<polygon class="st12" points="320.6,341.6 245.4,622.6 245.4,341.6 			"/>
			<polygon class="st12" points="405.4,341.6 315.4,678.2 253.4,678.2 343.4,341.6 			"/>
			<polygon class="st12" points="495.6,341.6 405.6,678.2 377.6,678.2 467.6,341.6 			"/>
			<polygon class="st12" points="578.6,341.6 488.6,678.2 478.6,678.2 568.6,341.6 			"/>
		</g>
	</g>
</g>
<g id="Character_2">
	<g>
		<g>
			<path class="st8" d="M883.8,416c7,8.2,43.2,77.8,36.2,94s-64.8-2.4-64.8-2.4l3.4-23c0,0,22.4,0.8,24.6-1.4
				c2.2-2.2-30.4-34.6-30.4-34.6L883.8,416z"/>
			<g class="st15">
				<path class="st12" d="M920,510c-0.8,1.8-2.2,3.2-4.2,4.2l0,0c-0.4,0.2-0.8,0.4-1.2,0.6c0,0,0,0-0.2,0c-0.4,0.2-0.8,0.2-1.2,0.4
					c-1.6,0.4-3.2,0.8-5,1c-0.4,0-1,0-1.4,0.2c-0.8,0-1.4,0-2.2,0.2c-0.6,0-1.2,0-2,0c-19.4,0-47.6-9.2-47.6-9.2l3.4-23
					c0,0,22.4,0.8,24.6-1.4c0.6-0.6-1-2.8-3.6-6l0,0c-6.4-7.8-19-20.8-24.4-26.2c-1.4-1.6-2.4-2.4-2.4-2.4l31-32.6
					C891,424.2,927,493.6,920,510z"/>
			</g>
		</g>
		<path class="st15" d="M915.8,514.2L915.8,514.2c-0.4,0.2-0.8,0.4-1.2,0.6c0,0,0,0-0.2,0c-0.4,0.2-0.8,0.2-1.2,0.4
			c-1.6,0.4-3.2,0.8-5,1c-0.4,0-1,0-1.4,0.2c-0.8,0-1.4,0-2.2,0.2c-0.6,0-1.2,0-2,0c-19.4,0-47.6-9.2-47.6-9.2l3.4-23
			c0,0,25.4,2.2,27.4,0l0,0c0.4-0.8-2.4-3.6-6.6-7.4l0,0c-6.4-7.8-19-20.8-24.4-26.2l14.6-15.6l11.2-1.2
			C881,434,905.6,473.8,915.8,514.2z"/>
		<g>
			<path class="st8" d="M810.8,413.6c-4,3-6,7-4.4,9.2L912,568.6c1.6,2.2,6.2,1.6,10.2-1.4s6-7,4.4-9.2L821,412.2
				C819.4,410.2,814.8,410.8,810.8,413.6z"/>
			<path class="st14" d="M821,412.4l105.6,145.8c1.6,2.2-0.4,6.2-4.4,9.2s-8.6,3.4-10.2,1.4L806.4,423c-0.8-1.2-0.6-3,0.4-4.8
				c0.4-0.8,1.2-1.8,2-2.6c0.6-0.6,1.2-1.2,2-1.8C814.8,410.8,819.4,410.2,821,412.4z"/>
			<path class="st27" d="M926.6,558c1.6,2.2-0.4,6.2-4.4,9.2s-8.6,3.4-10.2,1.4c-0.8-1.2,1.4-3,2.6-5.6L806.8,418
				c0.4-0.8,1.2-1.8,2-2.6l105.6,145.8c0.6-0.6,1.2-1.2,2-1.8C920.6,556.4,925,555.8,926.6,558z"/>
		</g>
		<g>
			<path class="st0" d="M797.8,409.6c-3.4,3.6-4.6,8-2.6,9.8l131.4,123c2,1.8,6.2,0.4,9.6-3.2c3.4-3.6,4.6-8,2.6-9.8l-131.4-123
				C805.4,404.6,801.2,406,797.8,409.6z"/>
			<path class="st14" d="M807.4,406.4l131.4,123c2,1.8,0.8,6.2-2.6,9.8c-3.4,3.6-7.8,5-9.6,3.2l-131.4-123c-1-1-1.2-2.8-0.6-4.8
				c0.4-1,0.8-2,1.4-3c0.4-0.6,1-1.4,1.6-2C801.2,406,805.4,404.6,807.4,406.4z"/>
			<path class="st27" d="M938.8,529.4c2,1.8,0.8,6.2-2.6,9.8c-3.4,3.6-7.8,5-9.6,3.2c-1-1,0.8-3.2,1.4-6L794.6,414.6
				c0.4-1,0.8-2,1.4-3l131.4,123c0.4-0.8,1-1.4,1.6-2C932.6,529,936.8,527.6,938.8,529.4z"/>
		</g>
		<path class="st28" d="M829.4,802.2l-10,0.2c-10.2-47.8-17.4-107-21.8-151.6c-0.6-7-1.4-13.6-2-19.8c-0.2-3-0.6-5.8-0.8-8.4
			c-1.2-13.4-2-24-2.6-30.6c-0.4-4.8-0.6-7.4-0.6-7.4H828l-0.4,9.2l-1.2,30.4l-0.2,3.4l-0.8,20l-1.2,34.2
			C836.8,730,829.4,802.2,829.4,802.2z"/>
		<path class="st28" d="M910.6,799.6l-9.8,1.8C881,752,862.6,688.8,850.4,644.8c-1.8-6.8-3.6-13.2-5.2-19c0-0.2-0.2-0.6-0.2-0.8
			c-3-11.6-5.4-20.8-6.8-26.6c-1.2-4.6-1.8-7-1.8-7l35.6-6.2l2,15l3,22l0.6,4.4l2,15l5.4,40.2C905.6,727.2,910.6,799.6,910.6,799.6z
			"/>
		<path class="st15" d="M877,622.2l-31.8,3.6c0-0.2-0.2-0.6-0.2-0.8c-3-11.6-5.4-20.8-6.8-26.6l36,1.8L877,622.2z"/>
		<path class="st15" d="M827.6,593.6l-1.2,30.4l-0.2,3.4l-30.8,3.4c-0.2-3-0.6-5.8-0.8-8.4c-1.2-13.4-2-24-2.6-30.6L827.6,593.6z"/>
		<path class="st8" d="M799.8,835.4c1.8-1.6,4-2.6,6.2-3.4l0,0c0,0,6.8-6.8,10.2-27.2l9-2.4c3.2-0.8,6.4,0.6,8.2,3.2
			c0.2,0.4,0.4,0.8,0.6,1.2c0.4,2.2,0.8,4.4,1,6.6c0.8,6.8,0.2,22.4,0.2,22.4h-1.6l-0.6-14c-0.2-4.8-3.8,0.8-5,6
			s-3.2,10.6-13.8,10.8C801.8,839,796.6,838.4,799.8,835.4z"/>
		<path class="st8" d="M833.4,806c0.6-4.8,0.8-13,0.8-13l-19.8,2.2c0,0,2.4,9.4,0.4,16.4C824.8,809,833.4,806,833.4,806z"/>
		<path class="st8" d="M880.4,835.4c1.8-1.6,4-2.6,6.2-3.4l0,0c0,0,6.8-6.8,10.2-27.2l9-2.4c3.2-0.8,6.4,0.6,8.2,3.2
			c0.2,0.4,0.4,0.8,0.6,1.2c0.4,2.2,0.8,4.4,1,6.6c0.8,6.8,0.2,22.4,0.2,22.4H914l-0.6-14c-0.2-4.8-3.8,0.8-5,6s-3.2,10.6-13.8,10.8
			C882.4,839,877.4,838.4,880.4,835.4z"/>
		<path class="st8" d="M914.2,806c0.6-4.8,0.8-13,0.8-13l-19.8,2.2c0,0,2.4,9.4,0.4,16.4C905.6,809,914.2,806,914.2,806z"/>
		<path class="st0" d="M880.6,612.4l-37.8,4.8l-1.4,0.2l-7.8-28.4l-2,30.4l-40.4-2.2c-18-105.8,12.8-130.8,12.8-130.8l54.8,11
			c24.8,42.2,19,91.4,19,91.4L880.6,612.4z"/>
		<g>
			<path class="st29" d="M828.6,354.8c0,4.2-1.8,7.6-4.2,7.6c-2.2,0-4.2-3.4-4.2-7.6s1.8-7.6,4.2-7.6
				C826.8,347.4,828.6,350.8,828.6,354.8z"/>
			<path class="st28" d="M855.6,380c-0.2,0.2-0.4,0.2-0.4,0.4c-2.2,1.6-4.8,3-7.6,3.8c-8.2,1.8-13.6,0.8-17.2-3l0,0
				c-5-5.6-6.4-15.2-5.6-27c0.4-5.4,1-10,2.6-13.8v-0.2c0-0.2,0.2-0.4,0.2-0.4c2.2-5,6-8.4,11.8-9.8c2-0.4,4.4-0.8,7-0.8
				C869,329,873.2,367,855.6,380z"/>
			<path class="st15" d="M855.2,380.4c-2.2,1.6-4.8,2.8-7.6,3.4c-8.2,1.8-13.6,0.4-17.2-3.2c4,0.8,9.4,1.2,14.6-1.2
				C848,378,851.8,378.6,855.2,380.4z"/>
			<path class="st28" d="M857.6,401.2c1.4,6.6-7,9.2-7,9.2c-13.8-6-16.4-13.2-16.4-13.2c11.6-6,8.2-23,8.2-23l2.4,1.2l16.4,3.2
				c0,0-4.6,8.8-5.2,10.8l0,0C852.8,399.6,857.6,401.2,857.6,401.2z"/>
			<path class="st8" d="M827.2,340.4c0,0-1.2,16,14,23c0,0,6.6,16.6,16.2,17c13.2,0.4,24.6-18.4,20.2-37.4
				C871.6,318.2,834.2,316.2,827.2,340.4z"/>
			<path class="st28" d="M833.4,358.8c0-2.6,2-6.8,6-6.2c4,0.6,6.2,10.6-3.6,12.8C834.4,365.6,833.4,364,833.4,358.8z"/>
			<path class="st8" d="M855.2,323.4c0,0-15.4-3.8-23.8,2.2c-9.8,7.2-13.6,14.6-2,26.2c0,0,25.8-8.4,34.2-6.6
				c8.6,1.8,14.6,4.2,14.6,4.2C880.2,332.4,863.8,319.8,855.2,323.4z"/>
			<path class="st8" d="M833.4,354.8c0,0,4,18.6-2.2,34.4c0,0,36.4,12.6,49,5.8c12.6-6.8,1-29.8,0.6-43.2
				c-0.6-13.2-6.2-32.8-25.6-28.4C836,327.8,833.4,354.8,833.4,354.8z"/>
			<line class="st29" x1="820.4" y1="353.6" x2="835.8" y2="353.6"/>
		</g>
		<path class="st15" d="M842.8,617.2l-1.4,0.2l-7.8-28.4c0,0,16.6-28.4,11.4-43.2C845.8,546.8,863.6,573.4,842.8,617.2z"/>
		<g>
			<path class="st8" d="M811.6,399.6c0,0,18.2-6.6,45.8,1.4s28.6,19.8,28.6,19.8s-17.4,39.6-20.2,84.4l-71.8-2.6
				C794,502.6,785.4,439.4,811.6,399.6z"/>
			<path class="st9" d="M886.2,420.8c0,0-17.4,39.6-20.2,84.4l-71.8-2.6c0,0-1.2-8.8-1.4-22c-0.2-9.2,0.4-20.4,2-32.2
				c2.4-16.6,7.4-34.4,17-48.8c0,0,18.2-6.6,45.8,1.4C885,409,886.2,420.8,886.2,420.8z"/>
		</g>
		<path class="st15" d="M810.6,451.2c0,0-3,18.2-18,29.4c-0.2-9.2,0.4-20.4,2-32.2L810.6,451.2z"/>
		<path class="st28" d="M731.2,398.4l-9-13.4c0,0-1.4-5.8-3.2-7.2c-1.8-1.4-19.2-8.8-21.2-8.6c-2,0-2,13.6,0,15.8
			c2,2.4,13,7.2,16,7.8c2.8,0.6,1.4,0,1.4,0l8,16L731.2,398.4z"/>
		<g>
			<path class="st8" d="M811.6,399.6c0,0-25.2,10-56,29l-29.2-40c0,0-7.8,2.4-10.8,16.2c0,0,15,57.2,34.6,63
				c19.6,5.6,60.6-16.6,60.6-16.6S822.6,421.4,811.6,399.6z"/>
			<path class="st9" d="M811.6,399.6c0,0-25.2,10-56,29l-29.2-40c0,0-7.8,2.4-10.8,16.2c0,0,15,57.2,34.6,63
				c19.6,5.6,60.6-16.6,60.6-16.6S822.6,421.4,811.6,399.6z"/>
		</g>
		<g>
			<path class="st8" d="M830.2,397.2c0,0,6.4,45.6,26.6,47.6c20.2,1.8,29.2-31.8,25.8-36C879.2,404.6,853,396.8,830.2,397.2z"/>
			<path class="st30" d="M830.2,397.2c0,0,6.4,45.6,26.6,47.6c20.2,1.8,29.2-31.8,25.8-36C879.2,404.6,853,396.8,830.2,397.2z"/>
		</g>
	</g>
</g>
<g id="Character_1">
	<g id="_x3C_Group_x3E__81_">
		<polygon class="st31" points="110.8,817.4 125.6,817.4 126.8,783 112,783 		"/>
		<path class="st8" d="M127.6,815.6h-18c-0.6,0-1.2,0.4-1.2,1l-3,13.2c-0.2,1.2,0.6,2.4,1.6,2.6c0.2,0,0.4,0,0.4,0
			c5.8,0,10-0.4,17.4-0.4c4.6,0,18,0.4,24.4,0.4c6.2,0,7-6.2,4.4-6.8c-11.4-2.4-20-6-23.6-9.2C129.4,816,128.6,815.6,127.6,815.6z"
			/>
		<path class="st0" d="M128.6,817.6c-0.2,0-0.2-0.2-0.2-0.4s0-0.2,0.2-0.4c0.6-0.4,5.4-3.2,7-2.4c0.4,0.2,0.6,0.6,0.6,1
			c0,0.8-0.2,1.4-0.8,1.8c-0.8,0.6-1.8,0.8-2.8,0.8C131.2,818.2,129.8,818,128.6,817.6z M129.6,817.2c1.8,0.6,3.6,0.4,5.2-0.2
			c0.4-0.4,0.6-0.8,0.4-1.2c0-0.2-0.2-0.4-0.2-0.4c-0.2,0-0.2-0.2-0.4,0C132.8,815.4,131.2,816.2,129.6,817.2z"/>
		<path class="st0" d="M128.6,817.8c-0.2,0-0.2-0.2-0.2-0.4s0.4-4.4,2-5.8c0.4-0.4,1-0.6,1.4-0.4c0.6,0,1,0.4,1.2,1
			C133.4,813.8,130.4,817,128.6,817.8L128.6,817.8L128.6,817.8z M130.8,812c-1,1.4-1.6,3-1.8,4.6c1.6-1.2,3.4-3.6,3.2-4.6
			c0,0,0-0.4-0.6-0.4h-0.2C131.4,811.6,131.2,811.8,130.8,812z"/>
		<polygon class="st15" points="112,783 126.8,783 126.2,800.8 111.2,800.8 		"/>
		<polygon class="st31" points="187,818.4 202.2,820 205.2,787 189.8,785.4 		"/>
		<path class="st8" d="M203.8,815.2h-18c-0.6,0-1.2,0.4-1.2,1l-3,13.2c-0.2,1.2,0.6,2.4,1.6,2.6c0.2,0,0.4,0,0.4,0
			c5.8,0,10-0.4,17.4-0.4c4.6,0,18,0.4,24.4,0.4c6.2,0,7-6.2,4.4-6.8c-11.4-2.4-20-6-23.6-9.2C205.6,815.4,204.8,815.2,203.8,815.2z
			"/>
		<path class="st0" d="M205,817.2c-0.2,0-0.2-0.2-0.2-0.4s0-0.2,0.2-0.4c0.6-0.4,5.4-3.2,7-2.4c0.4,0.2,0.6,0.6,0.6,1
			c0,0.8-0.2,1.4-0.8,1.8c-0.8,0.6-1.8,0.8-2.8,0.8C207.4,817.8,206.2,817.6,205,817.2z M206,816.8c1.8,0.6,3.6,0.4,5.2-0.2
			c0.4-0.4,0.6-0.8,0.4-1.2c0-0.2-0.2-0.4-0.2-0.4c-0.2,0-0.2-0.2-0.4,0C209.2,815,207.4,815.8,206,816.8z"/>
		<path class="st0" d="M204.8,817.2c-0.2,0-0.2-0.2-0.2-0.4s0.4-4.4,2-5.8c0.4-0.4,1-0.6,1.4-0.4c0.6,0,1,0.4,1.2,1
			C209.6,813.2,206.6,816.4,204.8,817.2L204.8,817.2C205,817.2,204.8,817.2,204.8,817.2z M207.2,811.6c-1,1.4-1.6,3-1.8,4.6
			c1.6-1.2,3.4-3.6,3.2-4.6c0,0,0-0.4-0.6-0.4l0,0C207.6,811.2,207.4,811.4,207.2,811.6z"/>
		<polygon class="st15" points="189.8,785.4 205.2,787 203.6,804 188.4,802.4 		"/>
		<path class="st8" d="M118,482h78.6c7.4,40.8,30.8,185.2,14,314l-26.6-3.2c0,0,2.4-170.8-21-234c-2.8,33.8-6,69.8-8.6,89
			c-6.8,47.2-21.4,150-21.4,150h-27.2c0,0,5.6-98.6,8.2-144.8C116.8,602.6,118,492.4,118,482z"/>
		<g>
			<polygon class="st0" points="213.8,802.2 180.8,797.4 181.8,788.2 216.2,792.8 			"/>
		</g>
		<g>
			<polygon class="st0" points="136.2,797.8 104.2,797.8 104.2,788.4 137.4,787.8 			"/>
		</g>
		<path class="st15" d="M163.2,558.8c3.4,9.4,6.4,21,8.8,34c2.2-30-6.6-62-6.6-62L163.2,558.8z"/>
		<path class="st0" d="M115.8,495.8l-1.8,9.4c0,0,55,7.2,89.2,7l-1.2-6.6L115.8,495.8z"/>
		<path class="st31" d="M227.4,413.6c0,0,19,60,32,64s46-45.6,46-45.6s29.6-0.2,31-2.4c1.4-2-7.8-23-9.8-23c-2.2,0-28,9.8-29,11.4
			s-30.6,30-32,29.2S253,410.8,253,410.8L227.4,413.6z"/>
		<path class="st31" d="M309.4,428.8c0.2,0,0.4-0.2,0.8-0.2c-0.2,0-0.2-0.2-0.4-0.2C309.6,428.4,309.6,428.6,309.4,428.8z"/>
		<g>
			<path class="st0" d="M216.6,406.6l2.4,4.2l10.8,20l2.2,4.2l30.4-10.6c0,0-12.6-47.2-17-52L216.6,406.6z"/>
			<path class="st10" d="M216.6,406.6l2.4,4.2l10.8,20l2.2,4.2l30.4-10.6c0,0-12.6-47.2-17-52L216.6,406.6z"/>
		</g>
		<path class="st15" d="M219,410.8l10.8,20c6.6-13.2,4.8-31.2,4.8-31.2L219,410.8z"/>
		<g>
			<path class="st0" d="M245.4,372.4c0,0-16-20.8-45.8-22.2c-29.8-1.4-39.2,1.6-50,11.2C133.8,375.8,114,498,114,498
				s41.6,12.8,89.2,9.8c0,0,0.4-34,11-56.8C235.2,406.4,245.4,372.4,245.4,372.4z"/>
			<path class="st10" d="M114,498c0,0,41.6,12.8,89.2,9.8c0,0,0-4.2,0.6-10.6c0.2-3,0.6-6.6,1.2-10.4c0.6-4,1.2-8.2,2.2-12.6
				c0.4-2.4,1-4.6,1.6-7c1.4-5.6,3.4-11.2,5.6-16.2c1.4-2.8,2.6-5.6,3.8-8.4c2.2-4.8,4.2-9.4,6-13.8c4-9.2,7.4-17.8,10.2-25.2
				c2-5.4,3.8-10.2,5.2-14.2c1.6-4.6,3-8.4,3.8-11.2c1.2-3.8,1.8-5.8,1.8-5.8s-1-1.4-3.2-3.6c-6-6-20-17.2-41.6-18.6
				c-0.4,0-0.6,0-1,0c-22.6-1-33.6,0.4-42.2,5.4c-2.8,1.6-5.2,3.6-7.8,5.8c-1.8,1.6-3.6,4.6-5.4,8.6c-3,6.6-6.2,15.8-9,26.6
				c-0.4,1.6-0.8,3.2-1.4,4.8c-2,7.4-3.8,15.4-5.6,23.4c-0.6,2.2-1,4.6-1.6,6.8c-0.8,3.4-1.4,7-2.2,10.4c-1.8,8.6-3.4,17-4.8,24.4
				c-2,10.8-3.6,19.8-4.6,25.4C114.4,495.8,114,498,114,498z M201.4,351.4c2.2,0,4.2,0.2,6,0.4c8,1,20.2,7.4,20,10.6
				c-0.4,3-5,10.8-17,9c-4.2-0.6-8.2-2.6-11.6-4.8c-6.6-4.4-11.4-10.2-11.8-12.2C186.4,352,194.2,351.2,201.4,351.4z"/>
			<path class="st0" d="M175.8,392.2c0,0-15.8,38.2-19,69.8l42.6,5.4c0,0,19.2-51.6,23-67.6C222.4,399.8,188.4,396.4,175.8,392.2z"
				/>
			<polygon class="st10" points="214.2,401.2 220,401.8 215.8,405.2 			"/>
		</g>
		<path class="st31" d="M191,354.4c3.2,9.2,15.2,13.4,21.4,14c8.8,0.8,11.4-6.2,11.4-6.2s-7.2-3.6-6.4-7.6c0.4-2.4,1.6-4.6,3-6.8
			c0.8-1.2,1.6-2.2,2.4-3.4l-11.4-24.6C208.6,330.4,200.8,351,191,354.4z"/>
		<path class="st15" d="M210.8,331.2c-5.4,12,2.2,20.2,6.6,23.4c0.4-2.4,1.6-4.6,3-6.8L210.8,331.2z"/>
		<g>
			<g>
				<path class="st31" d="M249.4,299.2c0,0,3.6,20.4-7,28.4c-10.6,8.2-11.6-29.8-11.6-29.8L249.4,299.2z"/>
				<path class="st24" d="M249.4,299.2c0,0,3.6,20.4-7,28.4c-10.6,8.2-11.6-29.8-11.6-29.8L249.4,299.2z"/>
			</g>
			<path class="st31" d="M211.4,344.6c5.4,7.4,14,9.2,21.4,6.6c4.8-1.6,9-5,11.4-10c0.4-0.6,0.6-1.2,1-2c5-12.6,6-43.4-7.4-42.2
				c-11,1-21.8-2.4-27.4,7c-1.6,2.8-2.6,5.8-2.8,9C206.6,327.6,205.2,336.2,211.4,344.6z"/>
			<path class="st8" d="M229.2,320.2c-0.2,1.2,0.4,2.2,1,2.4c0.8,0.2,1.6-0.8,1.8-2s-0.4-2.2-1-2.4
				C230.2,318.2,229.4,319,229.2,320.2z"/>
			<path class="st8" d="M242.6,322.2c-0.2,1.2,0.4,2.2,1,2.4c0.8,0.2,1.6-0.8,1.8-2s-0.4-2.2-1-2.4
				C243.6,320.2,242.8,321,242.6,322.2z"/>
			<path class="st32" d="M238.2,322.2c0.8,3.8,2.4,7.4,4.2,11c-1.8,1-4,1-5.8,0.2L238.2,322.2z"/>
			<path class="st8" d="M225.6,315.4c0.2,0,0.6,0,0.8-0.2c1.2-1.2,3-2,4.8-1.6c0.4,0,0.8-0.2,0.8-0.6s-0.2-0.8-0.6-0.8l0,0
				c-2.2-0.4-4.4,0.4-6,2c-0.2,0.2-0.2,0.8,0,1l0,0C225.4,315.2,225.6,315.2,225.6,315.4z"/>
			<path class="st8" d="M249,318.4c0.2,0,0.2,0.2,0.4,0c0.4-0.2,0.6-0.6,0.4-0.8l0,0c-0.6-2.2-2.4-3.8-4.4-4.6
				c-0.4-0.2-0.8,0.2-0.8,0.4l0,0c0,0.4,0.2,0.8,0.4,0.8l0,0c1.6,0.6,3,2,3.4,3.8C248.6,318.2,248.8,318.4,249,318.4z"/>
			<path class="st29" d="M227.4,333.8c0,0,2.4,5.2,7.4,5"/>
			<g>
				<path class="st31" d="M221,296.4l0.2,6.6c-2.2,1-3.8,3.2-3,5.8c1.6,5.6-2.2,13.8-6.8,16.6c0,0,0-2.4-2-2s-2.6,12.6,0.6,18.8
					c0,0-7-6.6-9.2-19.6c-2-12.2-1.6-19.8,0.2-25.6L221,296.4z"/>
				<path class="st24" d="M221,296.4l0.2,6.6c-2.2,1-3.8,3.2-3,5.8c1.6,5.6-2.2,13.8-6.8,16.6c0,0,0-2.4-2-2s-2.6,12.6,0.6,18.8
					c0,0-7-6.6-9.2-19.6c-2-12.2-1.6-19.8,0.2-25.6L221,296.4z"/>
			</g>
			<path class="st8" d="M199.8,304.2c0,0,8.4,1.2,21.4-1.4c20.2-4,28.8,3.4,28.8,3.4s4.8-4.2,4.2-10s-8.6-6.8-8.6-6.8
				s-2.4-6.6-7.8-8.6c-5.4-2-10.6,3-10.6,3s-6.6-6.4-14.4-4.6c-9.6,2.2-9.4,11.4-9.4,11.4s-9,1-9,5.6S199.8,304.2,199.8,304.2z"/>
			<ellipse class="st29" cx="230.8" cy="321.2" rx="6.6" ry="7.6"/>
			<path class="st29" d="M253.8,322.4c0,4.2-3,7.6-6.6,7.6s-6.6-3.4-6.6-7.6s3-7.6,6.6-7.6S253.8,318.2,253.8,322.4z"/>
			<path class="st29" d="M237.4,322.2c0,0,2.2-1.4,3.4,0.2"/>
			<path class="st29" d="M224.2,321.2l-11.4-1.6c-1.4-0.2-3,0.2-4.2,1.2l-0.4,0.4"/>
			<path class="st31" d="M199.8,324c1.2,3.6,3.6,6.4,7,8.2c4.4,2.2,7.4-1.6,7-6.2c-0.4-4.2-3.2-10.4-8-10.6
				C201,315.4,198.4,319.8,199.8,324z"/>
		</g>
		<path class="st15" d="M126.6,431.6c18.8-7.8,33.8-40.2,33.8-40.2l-10.8-6.4L135,396.8c-0.4,1.6-0.8,3.2-1.4,4.8
			c-2,7.4-3.8,15.4-5.6,23.4C127.6,427,127.2,429.4,126.6,431.6z"/>
		<polygon class="st0" points="230.6,435 263.2,423 264.2,425.8 231.6,437.4 		"/>
		<g>
			
				<rect x="64.9" y="491.2" transform="matrix(0.1567 -0.9876 0.9876 0.1567 -452.7516 547.8223)" class="st0" width="59" height="95.6"/>
			<g>
				<polyline class="st33" points="85.2,524.6 66,534.4 81.2,549.8 				"/>
				<polyline class="st33" points="103.6,553.4 122.8,543.4 107.6,528 				"/>
				<line class="st33" x1="88" y1="550.8" x2="101" y2="527"/>
			</g>
		</g>
		<path class="st31" d="M138.4,366.8c0,0-35.6,35.8-40.4,42.6c-4.8,7-14.2,83.8-14.2,83.8s-2,0.6-2.2,2.4s-0.4,23.2,0,24.2
			s16.6,11.2,19,8.8s5.8-26.8,5.8-26.8l-8.6-8.4c0,0,10-56.6,16.4-65.8c6.2-9.2,32.2-28.8,32.2-28.8L138.4,366.8z"/>
		<g>
			<path class="st0" d="M165.8,352.4c5.2,11,1.2,34-8.4,42.2c-14.4,12.4-32,23-32,23L108,394.8c0,0,18.6-18.2,29.8-28.6
				C151.4,353.4,165.8,352.4,165.8,352.4z"/>
			<path class="st10" d="M165.8,352.4c5.2,11,1.2,34-8.4,42.2c-14.4,12.4-32,23-32,23L108,394.8c0,0,18.6-18.2,29.8-28.6
				C151.4,353.4,165.8,352.4,165.8,352.4z"/>
		</g>
		<polygon class="st0" points="108,393.2 105.8,396.2 124,420 126.6,418.2 		"/>
	</g>
</g>
</svg>
