<svg width="60" height="42" viewBox="0 0 60 42" fill="none" xmlns="http://www.w3.org/2000/svg">
<path d="M59.8357 4.48574C59.8357 4.41016 59.887 4.35977 59.887 4.28418L41.8948 21.3415L59.887 37.8446C59.887 37.7186 59.8613 37.6178 59.8613 37.4918L59.8357 4.48574Z" fill="#1C1C1C"/>
<path d="M39.1267 23.9619L31.771 30.9159C31.3865 31.2686 30.9252 31.445 30.4382 31.445C29.9769 31.445 29.4899 31.2686 29.1311 30.9411L21.8009 24.2391L3.70624 41.372C4.14195 41.5232 4.62891 41.6491 5.11588 41.6491H55.7862C56.5294 41.6491 57.2214 41.4224 57.8109 41.0948L39.1267 23.9619Z" fill="#1C1C1C"/>
<path d="M30.4382 26.9602L57.8878 0.933305C57.2727 0.580568 56.5294 0.328613 55.7605 0.328613H5.11589C4.11632 0.328613 3.16802 0.706546 2.45038 1.31124L30.4382 26.9602Z" fill="#1C1C1C"/>
<path d="M0.886963 5.11572V37.4919C0.886963 37.8698 0.963853 38.2226 1.06637 38.5753L18.9304 21.644L0.886963 5.11572Z" fill="#1C1C1C"/>
</svg>
