<?xml version="1.0" encoding="utf-8"?>
<!-- Generator: Adobe Illustrator 25.2.0, SVG Export Plug-In . SVG Version: 6.00 Build 0)  -->
<svg version="1.1" id="Layer_1" xmlns="http://www.w3.org/2000/svg" xmlns:xlink="http://www.w3.org/1999/xlink" x="0px" y="0px"
	 viewBox="0 0 171.6 193.3" style="enable-background:new 0 0 171.6 193.3;" xml:space="preserve">
<style type="text/css">
	.st0{fill:#FFFFFF;}
</style>
<path class="st0" d="M133.6,153.7c-20,0-37.6-10.3-47.8-25.8c-10.3,15.5-27.9,25.8-47.8,25.8c-8.6,0-16.7-1.9-24-5.3
	c16.8,21.2,42.7,34.7,71.8,34.7s55-13.6,71.8-34.7C150.3,151.8,142.2,153.7,133.6,153.7z"/>
<path class="st0" d="M37.9,39.6c20,0,37.6,10.3,47.8,25.8c10.3-15.5,27.9-25.8,47.8-25.8c8.6,0,16.7,1.9,24,5.3
	c-16.8-21.2-42.7-34.7-71.8-34.7s-55,13.6-71.8,34.7C21.3,41.5,29.4,39.6,37.9,39.6z"/>
</svg>
