<?xml version="1.0" encoding="utf-8"?>
<!-- Generator: Adobe Illustrator 24.3.0, SVG Export Plug-In . SVG Version: 6.00 Build 0)  -->
<svg version="1.1" xmlns="http://www.w3.org/2000/svg" xmlns:xlink="http://www.w3.org/1999/xlink" x="0px" y="0px" width="187.1px"
	 height="90.7px" viewBox="0 0 187.1 90.7" style="enable-background:new 0 0 187.1 90.7;" xml:space="preserve">
<style type="text/css">
	.st0{display:none;}
	.st1{display:inline;fill:#C8102E;}
	.st2{display:inline;}
	.st3{display:inline;fill:#6F6F6F;}
	.st4{display:inline;fill:#333333;}
	.st5{fill:#C8102E;}
	.st6{fill:#FFFFFF;}
	.st7{fill:#6F6F6F;}
</style>
<g id="helps" class="st0">
	<rect class="st4" width="187.1" height="90.7"/>
</g>
<g id="Logos">
	<g id="Logo-GalloSuisse-neg-CMYK">
		<g id="Wortmarke_2_">
			<g id="Flagge_2_">
				<rect id="Fläche_2_" x="169.6" y="63.3" class="st5" width="12.3" height="12.3"/>
				<polygon id="Kreuz_2_" class="st6" points="176.9,68.3 176.9,66 174.6,66 174.6,68.3 172.2,68.3 172.2,70.7 174.6,70.7 
					174.6,73 176.9,73 176.9,70.7 179.2,70.7 179.2,68.3 				"/>
			</g>
			<path id="Suisse_2_" class="st5" d="M119.6,75.6h2.8V63.4h-2.8V75.6z M111,70.2c0,2.4-0.8,3.2-2.2,3.2c-1.4,0-2.1-0.8-2.1-3.2
				v-6.9h-2.8V70c0,4.1,1.7,5.9,4.9,5.9c3.2,0,4.8-1.8,4.8-5.9v-6.6H111V70.2z M96.4,68.7l-1.6-0.6c-1.1-0.4-1.9-0.7-1.9-1.5
				c0-0.7,0.6-1.1,1.6-1.1c1,0,1.7,0.3,2.5,1l1.4-1.7c-1.1-1.1-2.5-1.6-3.9-1.6c-2.6,0-4.4,1.6-4.4,3.7c0,1.8,1.2,2.8,2.5,3.3
				l1.6,0.7c1.1,0.4,1.8,0.7,1.8,1.5c0,0.7-0.6,1.2-1.7,1.2c-1,0-2.1-0.5-3-1.3l-1.6,1.9c1.3,1.2,2.9,1.8,4.5,1.8
				c2.9,0,4.6-1.8,4.6-3.8C98.8,70.3,97.9,69.3,96.4,68.7z M157.7,73.3v-2.8h4.2v-2.3h-4.2v-2.5h4.9v-2.3H155v12.3h7.9v-2.3H157.7z
				 M147.4,68.7l-1.6-0.6c-1.1-0.4-1.9-0.7-1.9-1.5c0-0.7,0.6-1.1,1.6-1.1c1,0,1.7,0.3,2.5,1l1.4-1.7c-1.1-1.1-2.5-1.6-3.9-1.6
				c-2.6,0-4.4,1.6-4.4,3.7c0,1.8,1.2,2.8,2.5,3.3l1.6,0.7c1.1,0.4,1.8,0.7,1.8,1.5c0,0.7-0.6,1.2-1.7,1.2c-1,0-2.1-0.5-3-1.3
				l-1.6,1.9c1.3,1.2,2.9,1.8,4.5,1.8c2.9,0,4.6-1.8,4.6-3.8C149.8,70.3,148.9,69.3,147.4,68.7z M134.2,68.7l-1.6-0.6
				c-1.1-0.4-1.9-0.7-1.9-1.5c0-0.7,0.6-1.1,1.6-1.1c1,0,1.7,0.3,2.5,1l1.4-1.7c-1.1-1.1-2.5-1.6-3.9-1.6c-2.6,0-4.4,1.6-4.4,3.7
				c0,1.8,1.2,2.8,2.5,3.3l1.6,0.7c1.1,0.4,1.8,0.7,1.8,1.5c0,0.7-0.6,1.2-1.7,1.2c-1,0-2.1-0.5-3-1.3l-1.6,1.9
				c1.3,1.2,2.9,1.8,4.5,1.8c2.9,0,4.6-1.8,4.6-3.8C136.6,70.3,135.7,69.3,134.2,68.7z"/>
			<path id="Gallo_2_" class="st6" d="M175.7,32.2c-5.3,0-10.2,4-10.2,10.9c0,6.9,4.9,10.9,10.2,10.9s10.2-4,10.2-10.9
				C185.9,36.2,181,32.2,175.7,32.2z M175.7,49.1c-2.6,0-3.8-2.3-3.8-5.9c0-3.6,1.3-5.9,3.8-5.9c2.6,0,3.8,2.3,3.8,5.9
				C179.5,46.8,178.3,49.1,175.7,49.1z M102.1,43.2h4.5v4.7c-0.7,0.5-1.8,0.8-2.9,0.8c-5.2,0-7.7-3.3-7.7-8.9c0-5.5,3-8.8,7.2-8.8
				c2.3,0,3.8,0.9,5.2,2.2l3.3-4c-1.8-1.9-4.7-3.6-8.6-3.6c-7.3,0-13.3,5.3-13.3,14.4c0,9.2,5.9,14,13.4,14c3.8,0,7.1-1.5,9-3.3
				V38.1h-10V43.2z M126.8,32.2c-3.3,0-6.3,1.1-8.9,2.7l2.2,4.1c2-1.1,3.8-1.9,5.5-1.9c2.3,0,3.2,1.2,3.3,3
				c-8.2,0.9-11.7,3.2-11.7,7.6c0,3.5,2.4,6.3,6.2,6.3c2.3,0,4.3-1.1,6.1-2.6h0.2l0.4,2.1h5V41.7C135.1,35.3,132.1,32.2,126.8,32.2z
				 M128.9,47.5c-1.1,1.1-2,1.8-3.4,1.8c-1.5,0-2.4-0.7-2.4-2c0-1.6,1.4-2.8,5.8-3.4V47.5z M148.4,49.1c-0.5,0-1.1-0.4-1.1-1.7V24.2
				h-6.2v23c0,4.2,1.4,7,5.7,7c1.4,0,2.4-0.2,3.1-0.5l-0.7-4.6C148.8,49.1,148.6,49.1,148.4,49.1z M161.2,49.1
				c-0.5,0-1.1-0.4-1.1-1.7V24.2h-6.2v23c0,4.2,1.4,7,5.7,7c1.4,0,2.4-0.2,3.1-0.5L162,49C161.6,49.1,161.5,49.1,161.2,49.1z"/>
		</g>
		<g id="Bildmarke_2_">
			<path id="Pinsel_2_" class="st6" d="M5.4,66.6c-1.3-2.8-1.9-5.8-1.9-8.7c0.1-3,0.4-6.1,1.1-9c0.3-1.5,0.8-2.9,1.2-4.4
				c0.3-0.8,0.6-1.6,0.9-2.4c1.2,0.9,2.4,1.9,3.7,2.8l5.3,4l0.3,0.2l0.1,0c5.2,0.1,10.4,0.1,15.6,0.1c2.6,0,5.3-0.1,7.9-0.8
				c2.6-0.7,5.1-1.9,7.2-3.7c1-0.9,2-1.8,2.8-2.9c0.9-1.1,1.4-2.3,2-3.5c1.1-2.4,1.8-4.8,2.6-7.1c0.8-2.4,1.6-4.7,2.6-6.9
				c0.3-0.5,0.5-1.1,0.9-1.6c0.3-0.5,0.6-1,1-1.5c0.7-1,1.7-1.8,2.7-2.5c-1.1,0.5-2.3,1.2-3.1,2.1c-0.5,0.4-0.9,0.9-1.3,1.4
				c-0.4,0.5-0.7,1-1.1,1.6c-1.4,2.2-2.4,4.5-3.5,6.8c-1,2.3-2,4.6-3.1,6.7c-0.6,1-1.2,2.1-1.9,2.9c-0.7,0.9-1.6,1.6-2.5,2.3
				c-1.8,1.4-3.9,2.3-6.2,2.8c-1.1,0.3-2.3,0.4-3.4,0.5c-1.2,0.1-2.3,0-3.5,0c-4.8,0-9.5-0.1-14.3,0.1l-5-3.7
				c-1.8-1.3-3.6-2.6-5.4-3.9l-0.2-0.1L6.7,38c-0.5-0.2-1.1-0.1-1.6,0.2c-0.2,0.2-0.4,0.4-0.6,0.7c-0.8,1.6-1.3,3.1-1.7,4.7
				c-0.5,1.6-0.8,3.2-1.1,4.7c-0.5,3.2-0.7,6.4-0.5,9.7c0.2,3.3,1.3,6.5,3,9.2c1.7,2.8,3.9,5.1,6.6,6.8C8.5,71.9,6.7,69.3,5.4,66.6z
				 M7.7,39.6c0,0.2-0.1,0.5-0.2,0.7L7.7,39.6z M70.6,25.3c0.9,0,1.6-0.7,1.6-1.6c0-0.9-0.7-1.6-1.6-1.6S69,22.9,69,23.8
				C69,24.6,69.8,25.3,70.6,25.3z M74.5,56.9L74.5,56.9l-0.1-16.8l-0.4,0c-0.3,2.8-0.5,5.7-0.7,8.5c-0.2,2.8-0.4,5.7-0.6,8.5l0,0.3
				c-0.3,3.9-1.3,7.7-3,11.1c-1.6,3.5-4,6.7-6.8,9.3c-2.8,2.6-6.1,4.7-9.6,6.1C49.8,85.3,46,86,42.2,86c-3.8-0.1-7.5-0.8-11-2.2
				c-3.5-1.4-6.7-3.6-9.5-6.1c-5-4.8-8.4-11.4-9.2-18.5l4.1-0.2c2.1-0.1,4.3-0.3,6.4-0.4c2.1-0.1,4.3-0.3,6.4-0.5
				c2.1-0.2,4.3-0.4,6.4-0.6V57l-25.8-0.1l-0.2,0l0,0.2c0,4.2,0.8,8.5,2.4,12.4c1.6,3.9,4,7.5,7,10.5c6,6,14.4,9.6,22.9,9.5
				c4.2,0,8.5-0.9,12.4-2.5c3.9-1.6,7.5-4,10.5-7c3-3,5.4-6.6,7-10.5c1.6-3.9,2.4-8.1,2.4-12.4L74.5,56.9z M12.7,31.3l0.7-1.4
				l0.8-1.4l0.8-1.4c0.2-0.5,0.5-0.9,0.8-1.4l1.7-2.7l-0.1,0.1l2.2-3.3l-0.1,0.2c0.4-0.5,0.8-1,1.2-1.5l1.1-1.6l-0.1,0.2l2.4-2.8
				l-0.2,0.2c0.8-0.8,1.6-1.7,2.4-2.5l2.4-2.1C29.1,9.6,29.5,9.3,30,9L31.2,8l2.6-1.5c0.9-0.4,1.8-0.8,2.7-1.2l2.9-0.8
				c0.4-0.1,0.9-0.1,1.3-0.2L42.5,4l-0.2,0l-0.1,0l0,0l0,0l0.1,0l0.1,0l0.2,0L43,4l0.8,0c0.6,0,1.1,0,1.7-0.1l-0.3,0l3.4,0.3
				l-0.2-0.1c1.1,0.2,2.2,0.5,3.3,0.7l-0.1-0.1c0.5,0.2,1.1,0.3,1.6,0.5c0.5,0.2,1.1,0.4,1.6,0.5l-0.1,0l1.5,0.6L56.5,6l-1.3-0.9
				l0,0l0,0l-2.9-1.6l0,0l0,0l-3.1-1.2l0,0l0,0l-3.3-0.7l0,0l0,0l-3.4-0.3l0,0l0,0l-3.4,0.3l0,0l0,0l-3.3,0.7l0,0l0,0l-3.1,1.2l0,0
				l0,0l-3,1.6l0,0l0,0l-2.8,2l0,0l0,0l-2.6,2.4l0,0l0,0l-2.4,2.7l0,0l0,0l-2.2,3l0,0l0,0l-2,3.3l0,0l0,0L15.2,22l0,0l0,0l-1.3,2.9
				c-0.5,1-0.8,2-1.2,3l-0.6,1.5L11.7,31c-0.3,1-0.6,2-0.9,3.1l0.4,0.1C11.7,33.2,12.3,32.3,12.7,31.3z"/>
			<path id="Kamm_2_" class="st5" d="M80.2,26.9l-4.4-3.4c1.4-0.2,2.7-1.1,3.3-2.6c0.9-2.2-0.1-4.7-2.3-5.6
				c-0.4-0.2-0.9-0.3-1.3-0.3c-0.2-2-1.4-3.8-3.4-4.7c-2.9-1.2-6.2,0.1-7.4,3c-0.5,1.2-0.6,2.5-0.2,3.7c0.8-0.2,1.6-0.4,2.5-0.4
				c4.7,0,8.5,3.8,8.5,8.5c0,2.2-0.8,4.1-2.2,5.6c-0.6,1.1-1.1,2.2-1.1,2.9c0,1.7,1.4,3,3,3s3-1.4,3-3c0-1.3-1.8-4-2.5-5.1l4.4-1.1
				c0.1,0,0.2-0.1,0.3-0.3C80.4,27.1,80.3,26.9,80.2,26.9z"/>
		</g>
	</g>
</g>
</svg>
