<?xml version="1.0" encoding="utf-8"?>
<!-- Generator: Adobe Illustrator 25.2.0, SVG Export Plug-In . SVG Version: 6.00 Build 0)  -->
<svg version="1.1" id="Oben" xmlns="http://www.w3.org/2000/svg" xmlns:xlink="http://www.w3.org/1999/xlink" x="0px" y="0px"
	 viewBox="0 0 980.1 190.3" style="enable-background:new 0 0 980.1 190.3;" xml:space="preserve">
<style type="text/css">
	.st0{fill:#FFFFFF;}
</style>
<g>
	<path class="st0" d="M892.7,69.8h9c1,0,1.8-0.8,1.8-1.8V48.2c0-1,0.8-1.8,1.8-1.8h13c1,0,1.8,0.8,1.8,1.8V68c0,1,0.8,1.8,1.8,1.8
		h11.5c1,0,1.8,0.8,1.8,1.8v9.2c0,1-0.8,1.8-1.8,1.8h-11.5c-1,0-1.8,0.8-1.8,1.8v40.1c-0.1,3.5,0.3,6.2,1.3,8c1,1.8,3.3,2.7,6.8,2.7
		c1.7,0.1,3.3,0,5-0.2c1.1-0.1,2.1,0.7,2.1,1.8v9.5c0,0.9-0.7,1.7-1.6,1.8c-3.1,0.4-6.2,0.6-9.3,0.7c-8.4-0.1-14-1.8-16.8-5.1
		c-2.9-3.4-4.2-8.3-4.1-14.9V84.5c0-1-0.8-1.8-1.8-1.8h-9c-1,0-1.8-0.8-1.8-1.8v-9.2C890.9,70.6,891.7,69.8,892.7,69.8z"/>
	<path class="st0" d="M813.4,40h13c1,0,1.8,0.8,1.8,1.8v38.7h0.3c2.2-3.8,5.2-6.8,9.2-9.1c4-2.2,8.5-3.3,13.6-3.3
		c17.5,0.1,26.5,9,26.9,26.6v51.8c0,1-0.8,1.8-1.8,1.8h-13c-1,0-1.8-0.8-1.8-1.8V99.1c-0.2-11.7-5.1-17.6-14.9-17.5
		c-5.7,0.1-10.1,2.1-13.2,5.9c-3.4,3.9-5.2,8.8-5.2,14.6v44.2c0,1-0.8,1.8-1.8,1.8h-13c-1,0-1.8-0.8-1.8-1.8V41.8
		C811.6,40.8,812.4,40,813.4,40z"/>
	<path class="st0" d="M779.9,96.3c-0.8,0-1.6-0.6-1.8-1.4c-2.1-8.7-7.8-13.2-17.1-13.3c-2.1,0-4.3,0.3-6.7,0.9
		c-2.3,0.7-4.6,2.2-6.7,4.3c-2.1,2-3.8,4.8-5.2,8.6c-1.5,3.7-2.2,8.6-2.2,14.7c0,6.7,1.6,12.8,4.7,18.1c3.1,5.6,8.2,8.5,15.4,8.6
		c9.7-0.2,15.6-5.6,17.8-16.3c0.2-0.9,0.9-1.5,1.8-1.5h13c1.2,0,2,1.1,1.8,2.2c-3.8,19.3-15.3,29-34.4,29.2
		c-12-0.2-21-4.1-27.2-11.7c-6.5-7.5-9.7-17-9.7-28.7c0-12.1,3.2-22.1,9.5-30c6.2-7.9,15.5-11.9,27.9-12c9.1,0,16.8,2.3,23.2,6.8
		c5.9,4.3,9.5,10.8,10.8,19.4c0.2,1.1-0.7,2.1-1.8,2.1H779.9z"/>
	<path class="st0" d="M706.5,130.8c-0.1,4.1,1.2,6,4,5.9c0.6,0,1.3,0,2.1-0.1c1.1-0.1,2,0.8,2,1.8v8.6c0,0.8-0.5,1.5-1.3,1.8
		c-2.9,0.9-6,1.5-9.3,1.5c-3.4,0-6.2-0.7-8.4-2.1c-2.3-1.5-3.8-4-4.5-7.4c-3.4,3.2-7.4,5.6-12.1,7.1c-4.8,1.6-9.6,2.4-14.3,2.4
		c-6.9,0-13-1.9-18.1-5.8c-5.2-3.8-7.8-9.6-7.9-17.1c0-4.9,0.9-8.9,2.6-12c1.7-3.1,4-5.4,6.8-7c2.8-1.6,6-2.8,9.4-3.8
		c3.4-0.7,6.9-1.2,10.4-1.5c3.2-0.6,6.1-1.1,8.9-1.5c2.7-0.3,5.1-0.7,7.2-1.2c4.4-0.9,6.7-3.7,6.8-8.3c-0.1-4.4-1.8-7.3-5.2-8.7
		c-3.4-1.3-6.9-1.9-10.5-1.8c-4.8,0-8.6,1-11.4,2.9c-2.7,1.8-4.4,4.5-5.1,8c-0.2,0.9-0.9,1.5-1.8,1.5h-13.1c-1.1,0-2-1-1.8-2.1
		c0.6-4.2,1.7-7.8,3.5-10.8c2.1-3.3,4.7-6,7.9-7.9c6.6-3.6,14.3-5.3,22.9-5.2c7.8,0,14.8,1.6,20.8,4.9c6.2,3.5,9.4,9.4,9.6,17.7
		V130.8z M689.8,109c-2.5,1.5-5.6,2.5-9.3,3c-3.7,0.5-7.5,1-11.4,1.6c-3.6,0.5-6.7,1.7-9.4,3.5c-2.8,1.9-4.3,5.1-4.3,9.6
		c0.1,3.8,2,6.4,5.6,7.8c3.3,1.6,6.6,2.3,9.9,2.2c2,0,4-0.3,6.2-0.9c2.1-0.6,4.1-1.5,6.1-2.6c2-1.2,3.6-2.7,4.9-4.5
		c1.2-1.8,1.7-4.1,1.7-6.8V109z"/>
	<path class="st0" d="M428.3,61h-23.9c-1.7,0-3.1-1.4-3.1-3.1V43c0-1.7,1.4-3.1,3.1-3.1h23.9c1.7,0,3.1,1.4,3.1,3.1v15
		C431.3,59.7,430,61,428.3,61z"/>
	<path class="st0" d="M573.9,115.6c-1.1,0-2,1-1.8,2.2c0.6,3.6,2,6.5,4.1,8.9c2.5,2.8,6.2,4.2,10.9,4.2c2.4,0,4.8-0.5,7.2-1.4
		c2.1-0.8,3.7-2,4.9-3.5c0.3-0.4,0.9-0.7,1.4-0.7h24.4c1.3,0,2.2,1.4,1.7,2.6c-1.4,3.2-3.2,6-5.3,8.5c-2.7,3.1-5.9,5.7-9.5,7.7
		c-3.6,2-7.5,3.5-11.7,4.5c-4.2,1-8.5,1.5-13,1.5c-6.3,0-12.1-0.9-17.5-2.7c-5.4-1.8-10.1-4.5-14-8c-3.9-3.5-7-7.8-9.2-12.9
		c-2.2-5.1-3.3-10.9-3.3-17.5c0-5.8,1-11.1,3-16.1c2-5,4.8-9.4,8.4-13.2c3.6-3.8,8-6.8,13.1-8.9c5.1-2.2,10.8-3.3,17.1-3.3
		c7.8,0,14.5,1.1,20.2,3.2c5.7,2.1,10.3,5.2,14,9.3c3.6,4.1,6.3,9.1,8,15.1c1.6,5.5,2.4,11.7,2.6,18.6c0,1-0.8,1.9-1.8,1.9H573.9z
		 M598.7,100c1.1,0,2-1,1.8-2.1c-0.4-2.8-1.6-5.2-3.6-7.3c-2.5-2.6-5.6-3.9-9.5-3.9c-4.5,0-8.1,1.1-10.6,3.4c-2,1.8-3.5,4.3-4.4,7.5
		c-0.3,1.2,0.6,2.3,1.8,2.3H598.7z"/>
	<path class="st0" d="M448.5,40h30V78h0.3c2.5-3,5.7-5.5,9.4-7.5c3.7-2,8.8-3,15.2-3c3.5,0,6.9,0.6,10.2,1.7
		c3.2,1.1,6.1,2.8,8.6,4.9c2.5,2.2,4.5,4.9,6,8.3c1.5,3.3,2.2,7.3,2.2,11.8v54h-30V107c0-2.2-0.1-4.3-0.3-6.2
		c-0.2-1.9-0.7-3.6-1.4-4.9c-0.7-1.4-1.7-2.4-3-3.2c-1.3-0.8-3-1.1-5.2-1.1c-1.3,0-2.7,0.2-4.1,0.6c-1.4,0.4-2.7,1.2-3.9,2.3
		c-1.2,1.1-2.1,2.7-2.9,4.6c-0.8,2-1.1,4.5-1.1,7.7v41.5h-30V40z"/>
	<path class="st0" d="M403.9,79.6l22.6-6.7c2-1.4,4.8,0,4.8,2.5v69.8c0,1.7-1.4,3.1-3.1,3.1h-23.9c-1.7,0-3.1-1.4-3.1-3.1V84.6
		C401.3,82.6,402.3,80.7,403.9,79.6z"/>
	<path class="st0" d="M332.6,115.6c-1.1,0-2,1-1.8,2.2c0.6,3.6,2,6.5,4.1,8.9c2.5,2.8,6.2,4.2,10.9,4.2c2.4,0,4.8-0.5,7.2-1.4
		c2.1-0.8,3.7-2,4.9-3.5c0.3-0.4,0.9-0.7,1.4-0.7h24.4c1.3,0,2.2,1.4,1.7,2.6c-1.4,3.2-3.2,6-5.3,8.5c-2.7,3.1-5.9,5.7-9.5,7.7
		c-3.6,2-7.5,3.5-11.7,4.5c-4.2,1-8.5,1.5-13,1.5c-6.3,0-12.1-0.9-17.5-2.7c-5.4-1.8-10.1-4.5-14-8c-3.9-3.5-7-7.8-9.3-12.9
		c-2.2-5.1-3.3-10.9-3.3-17.5c0-5.8,1-11.1,3-16.1c2-5,4.8-9.4,8.4-13.2c3.6-3.8,8-6.8,13.1-8.9c5.1-2.2,10.8-3.3,17.1-3.3
		c7.8,0,14.5,1.1,20.2,3.2c5.7,2.1,10.3,5.2,14,9.3c3.6,4.1,6.3,9.1,8,15.1c1.6,5.5,2.4,11.7,2.6,18.6c0,1-0.8,1.9-1.8,1.9H332.6z
		 M357.3,100c1.1,0,2-1,1.8-2.1c-0.4-2.8-1.6-5.2-3.6-7.3c-2.5-2.6-5.6-3.9-9.5-3.9c-4.5,0-8.1,1.1-10.6,3.4c-2,1.8-3.5,4.3-4.4,7.5
		c-0.3,1.2,0.6,2.3,1.8,2.3H357.3z"/>
	<path class="st0" d="M243.6,69.5h25.8v12.6h0.3c2.4-4.8,5.4-8.4,8.8-10.8c3.4-2.5,7.9-3.7,13.3-3.7c2,0,4.1,0.2,6.3,0.6
		c1.4,0.3,2.5,1.5,2.5,3v20c0,2-1.9,3.5-3.8,3c-0.3-0.1-0.6-0.2-1-0.2c-1.7-0.4-4-0.6-7.1-0.6c-6,0-10.5,1.8-13.6,5.5
		c-3.1,3.7-4.6,9.8-4.6,18.3v28c0,1.7-1.4,3.1-3.1,3.1h-23.9c-1.7,0-3.1-1.4-3.1-3.1V72.6C240.6,70.9,242,69.5,243.6,69.5z"/>
	<path class="st0" d="M169.3,152.2c-20,0-37.6-10.3-47.8-25.8c-10.3,15.5-27.9,25.8-47.8,25.8c-8.6,0-16.7-1.9-24-5.3
		c16.8,21.2,42.7,34.7,71.8,34.7c29.1,0,55-13.6,71.8-34.7C186,150.3,177.8,152.2,169.3,152.2z"/>
	<path class="st0" d="M140.3,94.9c0,16,13,29,29,29c16,0,29-13,29-29c0-16-13-29-29-29C153.3,65.9,140.3,78.9,140.3,94.9z"/>
	<path class="st0" d="M44.6,94.9c0,16,13,29,29,29c16,0,29-13,29-29c0-16-13-29-29-29C57.6,65.9,44.6,78.9,44.6,94.9z"/>
	<path class="st0" d="M73.6,38.1c20,0,37.6,10.3,47.8,25.8c10.3-15.5,27.9-25.8,47.8-25.8c8.6,0,16.7,1.9,24,5.3
		c-16.8-21.2-42.7-34.7-71.8-34.7s-55,13.6-71.8,34.7C56.9,40,65,38.1,73.6,38.1z"/>
	<path class="st0" d="M169.3,152.2c-20,0-37.6-10.3-47.8-25.8c-10.3,15.5-27.9,25.8-47.8,25.8c-8.6,0-16.7-1.9-24-5.3
		c16.8,21.2,42.7,34.7,71.8,34.7c29.1,0,55-13.6,71.8-34.7C186,150.3,177.8,152.2,169.3,152.2z"/>
</g>
</svg>
