<svg id="Oben" xmlns="http://www.w3.org/2000/svg" viewBox="0 0 890.7 190.3"><defs><style>.cls-1{fill:#fff;}</style></defs><path class="cls-1" d="M848.1,69.8h9a1.79,1.79,0,0,0,1.8-1.8V48.2a1.79,1.79,0,0,1,1.8-1.8h13a1.79,1.79,0,0,1,1.8,1.8V68a1.79,1.79,0,0,0,1.8,1.8h11.5a1.79,1.79,0,0,1,1.8,1.8v9.2a1.79,1.79,0,0,1-1.8,1.8H877.3a1.79,1.79,0,0,0-1.8,1.8v40.1c-.1,3.5.3,6.2,1.3,8s3.3,2.7,6.8,2.7a27.9,27.9,0,0,0,5-.2,1.87,1.87,0,0,1,2.1,1.8v9.5a1.83,1.83,0,0,1-1.6,1.8c-3.1.4-6.2.6-9.3.7q-12.6-.15-16.8-5.1c-2.9-3.4-4.2-8.3-4.1-14.9V84.5a1.79,1.79,0,0,0-1.8-1.8h-9a1.79,1.79,0,0,1-1.8-1.8V71.7A1.82,1.82,0,0,1,848.1,69.8Z"/><path class="cls-1" d="M768.8,40h13a1.79,1.79,0,0,1,1.8,1.8V80.5h.3a24.37,24.37,0,0,1,9.2-9.1,27.66,27.66,0,0,1,13.6-3.3c17.5.1,26.5,9,26.9,26.6v51.8a1.79,1.79,0,0,1-1.8,1.8h-13a1.79,1.79,0,0,1-1.8-1.8V99.1c-.2-11.7-5.1-17.6-14.9-17.5-5.7.1-10.1,2.1-13.2,5.9a21.55,21.55,0,0,0-5.2,14.6v44.2a1.79,1.79,0,0,1-1.8,1.8h-13a1.79,1.79,0,0,1-1.8-1.8V41.8A1.65,1.65,0,0,1,768.8,40Z"/><path class="cls-1" d="M735.3,96.3a1.92,1.92,0,0,1-1.8-1.4c-2.1-8.7-7.8-13.2-17.1-13.3a27.52,27.52,0,0,0-6.7.9,16.62,16.62,0,0,0-6.7,4.3,22.12,22.12,0,0,0-5.2,8.6c-1.5,3.7-2.2,8.6-2.2,14.7a35.38,35.38,0,0,0,4.7,18.1c3.1,5.6,8.2,8.5,15.4,8.6,9.7-.2,15.6-5.6,17.8-16.3a1.82,1.82,0,0,1,1.8-1.5h13a1.85,1.85,0,0,1,1.8,2.2q-5.7,29-34.4,29.2c-12-.2-21-4.1-27.2-11.7-6.5-7.5-9.7-17-9.7-28.7,0-12.1,3.2-22.1,9.5-30s15.5-11.9,27.9-12c9.1,0,16.8,2.3,23.2,6.8,5.9,4.3,9.5,10.8,10.8,19.4a1.82,1.82,0,0,1-1.8,2.1Z"/><path class="cls-1" d="M661.9,130.8c-.1,4.1,1.2,6,4,5.9a16.23,16.23,0,0,0,2.1-.1,1.84,1.84,0,0,1,2,1.8V147a1.92,1.92,0,0,1-1.3,1.8,31.23,31.23,0,0,1-9.3,1.5,15.39,15.39,0,0,1-8.4-2.1c-2.3-1.5-3.8-4-4.5-7.4a31.28,31.28,0,0,1-12.1,7.1,45.16,45.16,0,0,1-14.3,2.4,29,29,0,0,1-18.1-5.8c-5.2-3.8-7.8-9.6-7.9-17.1a24.81,24.81,0,0,1,2.6-12,17.64,17.64,0,0,1,6.8-7,44,44,0,0,1,9.4-3.8,89.8,89.8,0,0,1,10.4-1.5c3.2-.6,6.1-1.1,8.9-1.5a59.87,59.87,0,0,0,7.2-1.2c4.4-.9,6.7-3.7,6.8-8.3-.1-4.4-1.8-7.3-5.2-8.7a27,27,0,0,0-10.5-1.8c-4.8,0-8.6,1-11.4,2.9a12,12,0,0,0-5.1,8,1.82,1.82,0,0,1-1.8,1.5H599.1a1.82,1.82,0,0,1-1.8-2.1,28.64,28.64,0,0,1,3.5-10.8,23.86,23.86,0,0,1,7.9-7.9c6.6-3.6,14.3-5.3,22.9-5.2a42.62,42.62,0,0,1,20.8,4.9q9.3,5.25,9.6,17.7v40.2ZM645.2,109a24.26,24.26,0,0,1-9.3,3c-3.7.5-7.5,1-11.4,1.6a22.16,22.16,0,0,0-9.4,3.5c-2.8,1.9-4.3,5.1-4.3,9.6a8,8,0,0,0,5.6,7.8,21,21,0,0,0,9.9,2.2,23.23,23.23,0,0,0,6.2-.9,29.45,29.45,0,0,0,6.1-2.6,16.29,16.29,0,0,0,4.9-4.5,12.06,12.06,0,0,0,1.7-6.8Z"/><path class="cls-1" d="M383.7,61H359.8a3.12,3.12,0,0,1-3.1-3.1V43a3.12,3.12,0,0,1,3.1-3.1h23.9a3.12,3.12,0,0,1,3.1,3.1V58A3.1,3.1,0,0,1,383.7,61Z"/><path class="cls-1" d="M529.3,115.6a1.86,1.86,0,0,0-1.8,2.2,17.5,17.5,0,0,0,4.1,8.9c2.5,2.8,6.2,4.2,10.9,4.2a20.46,20.46,0,0,0,7.2-1.4,11.25,11.25,0,0,0,4.9-3.5,1.91,1.91,0,0,1,1.4-.7h24.4a1.89,1.89,0,0,1,1.7,2.6,34.85,34.85,0,0,1-5.3,8.5,35.34,35.34,0,0,1-9.5,7.7,45.81,45.81,0,0,1-11.7,4.5,55.73,55.73,0,0,1-13,1.5,54.87,54.87,0,0,1-17.5-2.7,39.43,39.43,0,0,1-14-8,36.6,36.6,0,0,1-9.2-12.9,43.7,43.7,0,0,1-3.3-17.5,42.7,42.7,0,0,1,3-16.1A41.29,41.29,0,0,1,510,79.7a37.59,37.59,0,0,1,13.1-8.9,42.75,42.75,0,0,1,17.1-3.3,58.25,58.25,0,0,1,20.2,3.2,34.46,34.46,0,0,1,14,9.3,38.33,38.33,0,0,1,8,15.1,74.53,74.53,0,0,1,2.6,18.6,1.88,1.88,0,0,1-1.8,1.9ZM554.1,100a1.82,1.82,0,0,0,1.8-2.1,13,13,0,0,0-3.6-7.3,12.51,12.51,0,0,0-9.5-3.9c-4.5,0-8.1,1.1-10.6,3.4a15.47,15.47,0,0,0-4.4,7.5,1.84,1.84,0,0,0,1.8,2.3h24.5Z"/><path class="cls-1" d="M403.9,40h30V78h.3a31.78,31.78,0,0,1,9.4-7.5c3.7-2,8.8-3,15.2-3A32.09,32.09,0,0,1,469,69.2a27.1,27.1,0,0,1,8.6,4.9,23.37,23.37,0,0,1,6,8.3,28.57,28.57,0,0,1,2.2,11.8v54h-30V107a59.91,59.91,0,0,0-.3-6.2,13.47,13.47,0,0,0-1.4-4.9,7.72,7.72,0,0,0-3-3.2,9.8,9.8,0,0,0-5.2-1.1,15.07,15.07,0,0,0-4.1.6,9.82,9.82,0,0,0-3.9,2.3,13,13,0,0,0-2.9,4.6,20.93,20.93,0,0,0-1.1,7.7v41.5h-30V40Z"/><path class="cls-1" d="M359.3,79.6l22.6-6.7a3,3,0,0,1,4.8,2.5v69.8a3.12,3.12,0,0,1-3.1,3.1H359.7a3.12,3.12,0,0,1-3.1-3.1V84.6A6.49,6.49,0,0,1,359.3,79.6Z"/><path class="cls-1" d="M288,115.6a1.86,1.86,0,0,0-1.8,2.2,17.5,17.5,0,0,0,4.1,8.9c2.5,2.8,6.2,4.2,10.9,4.2a20.46,20.46,0,0,0,7.2-1.4,11.25,11.25,0,0,0,4.9-3.5,1.91,1.91,0,0,1,1.4-.7h24.4a1.89,1.89,0,0,1,1.7,2.6,34.85,34.85,0,0,1-5.3,8.5,35.34,35.34,0,0,1-9.5,7.7,45.81,45.81,0,0,1-11.7,4.5,55.73,55.73,0,0,1-13,1.5,54.87,54.87,0,0,1-17.5-2.7,39.43,39.43,0,0,1-14-8,38.15,38.15,0,0,1-9.3-12.9,43.7,43.7,0,0,1-3.3-17.5,42.7,42.7,0,0,1,3-16.1,41.29,41.29,0,0,1,8.4-13.2,37.59,37.59,0,0,1,13.1-8.9,42.75,42.75,0,0,1,17.1-3.3A58.25,58.25,0,0,1,319,70.7,34.46,34.46,0,0,1,333,80a38.33,38.33,0,0,1,8,15.1,74.53,74.53,0,0,1,2.6,18.6,1.88,1.88,0,0,1-1.8,1.9ZM312.7,100a1.82,1.82,0,0,0,1.8-2.1,13,13,0,0,0-3.6-7.3,12.51,12.51,0,0,0-9.5-3.9c-4.5,0-8.1,1.1-10.6,3.4a15.47,15.47,0,0,0-4.4,7.5,1.84,1.84,0,0,0,1.8,2.3h24.5Z"/><path class="cls-1" d="M199,69.5h25.8V82.1h.3a28.54,28.54,0,0,1,8.8-10.8c3.4-2.5,7.9-3.7,13.3-3.7a35.25,35.25,0,0,1,6.3.6,3.1,3.1,0,0,1,2.5,3v20a3.08,3.08,0,0,1-3.8,3,3,3,0,0,0-1-.2,32.2,32.2,0,0,0-7.1-.6c-6,0-10.5,1.8-13.6,5.5s-4.6,9.8-4.6,18.3v28a3.12,3.12,0,0,1-3.1,3.1H198.9a3.12,3.12,0,0,1-3.1-3.1V72.6A3.42,3.42,0,0,1,199,69.5Z"/><path class="cls-1" d="M124.7,152.2a57.17,57.17,0,0,1-47.8-25.8,57.44,57.44,0,0,1-47.8,25.8,56.59,56.59,0,0,1-24-5.3,91.63,91.63,0,0,0,143.6,0A56.93,56.93,0,0,1,124.7,152.2Z"/><path class="cls-1" d="M95.7,94.9a29,29,0,1,0,29-29A29,29,0,0,0,95.7,94.9Z"/><path class="cls-1" d="M0,94.9a29,29,0,1,0,29-29A29,29,0,0,0,0,94.9Z"/><path class="cls-1" d="M29,38.1A57.17,57.17,0,0,1,76.8,63.9a57.44,57.44,0,0,1,47.8-25.8,56.59,56.59,0,0,1,24,5.3A91.63,91.63,0,0,0,5,43.4,56.59,56.59,0,0,1,29,38.1Z"/><path class="cls-1" d="M124.7,152.2a57.17,57.17,0,0,1-47.8-25.8,57.44,57.44,0,0,1-47.8,25.8,56.59,56.59,0,0,1-24-5.3,91.63,91.63,0,0,0,143.6,0A56.93,56.93,0,0,1,124.7,152.2Z"/></svg>