<svg width="152" height="50" viewBox="0 0 152 50" fill="none" xmlns="http://www.w3.org/2000/svg">
<g clip-path="url(#clip0_1004:74)">
<path d="M125.055 7.48117C125.676 6.09935 126.989 5.20117 128.44 5.06299L128.025 7.41208C126.022 7.34299 124.985 8.86299 124.709 10.7284L124.087 14.5284H121.6L122.567 8.93208C122.775 7.68844 122.982 6.30662 123.12 5.33935L125.331 5.27026L125.055 7.48117Z" fill="white"/>
<path d="M114.484 11.0739C114.484 12.1103 115.313 12.9394 116.349 12.9394C116.418 12.9394 116.487 12.9394 116.556 12.9394C117.455 12.9394 118.422 12.7321 119.251 12.3866L119.458 14.1139C118.353 14.5975 117.109 14.8739 115.935 14.8739C113.447 14.8739 112.135 13.4921 112.135 11.143C112.135 8.0339 114.138 5.33936 117.385 5.33936C119.32 5.33936 120.425 6.44481 120.495 7.89572C120.495 9.83026 118.836 10.8666 115.935 10.8666C115.451 10.8666 115.036 10.8666 114.553 10.7975C114.484 10.7975 114.484 10.9357 114.484 11.0739ZM115.865 9.20845C117.316 9.20845 118.215 8.65572 118.215 7.89572C118.215 7.41208 117.8 6.99754 117.109 6.99754C115.935 7.06663 115.036 7.96481 114.829 9.13936C115.105 9.13936 115.451 9.20845 115.865 9.20845Z" fill="white"/>
<path d="M111.167 6.99729L105.916 12.6627V12.7318H110.338L109.924 14.6664H102.6L102.876 13.1464L108.265 7.48093V7.34275H104.189L104.604 5.4082H111.444L111.167 6.99729Z" fill="white"/>
<path d="M99.9746 5.40864L102.393 5.33955L100.804 14.5977H98.3855L99.9746 5.40864ZM101.84 1.125C102.462 1.125 102.945 1.60864 102.945 2.23045V2.29955C102.945 3.12864 102.255 3.81955 101.425 3.88864C100.804 3.88864 100.32 3.405 100.32 2.78318V2.71409C100.32 1.81591 101.011 1.125 101.84 1.125Z" fill="white"/>
<path d="M91.3382 11.0739C91.3382 12.1103 92.1673 12.9394 93.2036 12.9394C93.2727 12.9394 93.3418 12.9394 93.4109 12.9394C94.3091 12.9394 95.2764 12.7321 96.1055 12.3866L96.3127 14.1139C95.2073 14.5975 93.9636 14.8739 92.7891 14.8739C90.3018 14.8739 88.9891 13.4921 88.9891 11.143C88.9891 8.0339 90.9927 5.33936 94.24 5.33936C96.1745 5.33936 97.28 6.44481 97.3491 7.89572C97.3491 9.83026 95.6909 10.8666 92.7891 10.8666C92.3054 10.8666 91.8909 10.8666 91.4073 10.7975C91.3382 10.7975 91.3382 10.9357 91.3382 11.0739ZM92.72 9.20845C94.1709 9.20845 95.0691 8.65572 95.0691 7.89572C95.0691 7.41208 94.6545 6.99754 93.9636 6.99754C92.7891 7.06663 91.8909 7.96481 91.6836 9.13936C91.96 9.13936 92.3054 9.20845 92.72 9.20845Z" fill="white"/>
<path d="M82.84 10.5209L83.1164 12.2482H83.1854L84.2218 10.5209L85.2582 8.79366C85.88 7.75729 86.0873 6.58275 85.8109 5.4082H88.0218C88.4364 6.79002 88.16 8.24093 87.4 9.41548L84.0145 14.5973H81.32L80.8363 11.1427H80.7673L80.3527 12.0409L78.6945 14.5973H76L74.6182 5.4082H77.0363L77.6582 10.5209L77.8654 12.2482H77.9345L78.9709 10.5209L80.4218 7.96457L80.0763 5.47729H82.3563L82.84 10.5209Z" fill="white"/>
<path d="M72.5455 7.68839C72.5455 7.96475 72.5455 8.24112 72.4764 8.51748L71.5091 14.5975H69.0218L69.8509 9.62294C69.92 9.20839 69.9891 8.79384 69.9891 8.3793C69.9891 7.75748 69.7818 7.20475 69.0909 7.20475C67.7091 7.20475 66.6727 9.69203 66.3273 11.1429C66.0509 12.3866 65.9127 13.3538 65.7055 14.6666H63.2873L65.6364 0.986571L68.1237 0.91748L67.0182 7.27384H67.0873C67.7091 6.0993 68.8837 5.27021 70.2655 5.20112C71.7164 5.20112 72.5455 6.0993 72.5455 7.68839Z" fill="white"/>
<path d="M57.3455 10.7978C57.2073 11.8341 57.8982 12.7323 58.9345 12.8705C59.0727 12.8705 59.2109 12.8705 59.3491 12.8705C60.1091 12.8705 60.8691 12.7323 61.56 12.456L61.6982 14.2523C60.7309 14.5978 59.6945 14.8051 58.6582 14.8051C56.3091 14.8051 54.8582 13.4923 54.8582 11.1432C54.72 8.03414 57.1382 5.40869 60.2473 5.27051C60.3854 5.27051 60.5236 5.27051 60.6618 5.27051C61.4218 5.27051 62.1818 5.40869 62.8727 5.61596L62.3891 7.48142C61.8364 7.27414 61.2836 7.13596 60.7309 7.13596C58.7273 7.13596 57.3455 8.58687 57.3455 10.7978Z" fill="white"/>
<path d="M50.5745 12.0412C50.5745 10.7975 47.1891 10.6594 47.1891 8.24117C47.1891 6.23754 48.9854 5.20117 51.0582 5.20117C51.8873 5.20117 52.7163 5.33935 53.4763 5.68481L52.9927 7.48117C52.3018 7.20481 51.6109 7.06663 50.8509 7.06663C50.0909 7.06663 49.5382 7.41208 49.5382 7.96481C49.5382 9.13935 52.9236 9.27754 52.9236 11.5575C52.9236 13.8375 50.9891 14.8048 48.8472 14.8048C47.88 14.8048 46.8436 14.5975 45.9454 14.183L46.4291 12.3866C47.2582 12.7321 48.1563 12.9394 49.0545 13.0084C50.0909 13.0084 50.5745 12.5939 50.5745 12.0412Z" fill="white"/>
<path d="M2.3491 19.3645L4.76728 19.2954L3.73092 25.3063H3.80001C4.35273 24.27 5.45819 23.579 6.70183 23.51C8.63637 23.51 9.46546 25.099 9.46546 26.8954C9.46546 29.9354 7.6691 33.1136 3.80001 33.1136C2.07273 33.1136 1.03637 32.4918 0.552734 31.3172C0.552734 30.1427 0.690916 29.0372 0.898189 27.8627L2.3491 19.3645ZM2.90183 30.5572C3.17819 31.0409 3.66183 31.3172 4.14546 31.2481C5.80364 31.2481 6.84001 29.1063 6.84001 27.1718C6.84001 26.1354 6.49455 25.4445 5.59637 25.4445C3.80001 25.5136 2.83273 28.5536 2.90183 30.5572Z" fill="white"/>
<path d="M19.4146 27.3105C19.0691 29.176 18.7927 31.0414 18.7237 32.9069H16.3746L16.6509 30.6269H16.5818C15.8218 32.1469 14.6473 33.1141 13.4727 33.1141C11.7455 33.1141 10.7091 31.8014 10.7091 29.936C10.7091 26.7578 13.1273 23.5796 15.96 23.5796C16.5818 23.5796 17.2037 23.7178 17.7564 24.0632H17.8255L18.0327 23.7869L20.0364 23.6487L19.4146 27.3105ZM17.3418 25.5832C17.0655 25.445 16.72 25.3069 16.3746 25.3069C14.5782 25.3069 13.3346 27.3105 13.3346 29.5214C13.3346 30.4887 13.68 31.1796 14.5091 31.1796C15.4073 31.1796 16.5818 30.0741 16.9964 27.5178L17.3418 25.5832Z" fill="white"/>
<path d="M27.4291 30.7646C26.8073 32.1464 25.4946 33.0446 23.9746 33.1136C21.4873 33.1136 21.4182 31.0409 21.7637 28.9682L22.6618 23.7173H25.08L24.2509 28.6918C24.1127 29.5209 23.8364 31.1791 25.1491 31.1791C26.0473 31.1791 27.2218 30.1427 27.6364 28.0009C27.7746 27.5173 28.2582 24.27 28.3964 23.7173H30.8146L30.1928 27.31C29.8473 29.1755 29.5709 31.0409 29.5018 32.9064H27.1527L27.4291 30.7646Z" fill="white"/>
<path d="M34.5454 29.383C34.5454 30.4193 35.3745 31.2484 36.4109 31.2484C36.48 31.2484 36.5491 31.2484 36.6182 31.2484C37.5164 31.2484 38.4836 31.0412 39.3127 30.6957L39.52 32.423C38.4145 32.9066 37.1709 33.183 35.9963 33.183C33.5091 33.183 32.1964 31.8012 32.1964 29.4521C32.1964 26.343 34.2 23.6484 37.4473 23.6484C39.3818 23.6484 40.4873 24.7539 40.5564 26.2048C40.5564 28.1393 38.8982 29.1757 35.9963 29.1757C35.5127 29.1757 35.0982 29.1757 34.6145 29.1066C34.5454 29.1066 34.5454 29.2448 34.5454 29.383ZM35.8582 27.5175C37.3091 27.5175 38.2073 26.9648 38.2073 26.2048C38.2073 25.7212 37.7927 25.3066 37.1018 25.3066C35.9273 25.3757 35.0291 26.2739 34.8218 27.4484C35.0982 27.5175 35.5127 27.5175 35.8582 27.5175Z" fill="white"/>
<path d="M45.0473 25.8591C45.6691 24.4773 46.9818 23.5791 48.4327 23.4409L48.0182 25.79C46.0145 25.7209 44.9782 27.2409 44.7018 29.1064L44.08 32.9064H41.6618L42.6291 27.31C42.8364 26.0664 43.0436 24.6846 43.1818 23.7173L45.3927 23.6482L45.0473 25.8591Z" fill="white"/>
<path d="M57.6909 26.6884L56.6546 32.9066H54.1673L54.9964 27.863C55.1346 26.9648 55.4109 25.4448 54.0982 25.4448C53.2 25.4448 51.8873 26.7575 51.4727 29.3139L50.92 32.9066H48.5018L49.4691 27.3103C49.6764 26.0666 49.8837 24.823 50.0218 23.7175L52.2327 23.6484L51.9564 25.7903H52.0255C52.7164 24.4775 54.0291 23.6484 55.48 23.5103C57.2764 23.5103 57.9673 24.8921 57.6909 26.6884Z" fill="white"/>
<path d="M60.9382 32.9064L59.5563 23.7173H61.9745L62.5963 28.83L62.8727 30.5573L63.9091 28.83L64.9454 27.1027C65.5672 26.0664 65.7745 24.8918 65.4982 23.7173H67.7091C68.1236 25.0991 67.8472 26.55 67.0872 27.7246L63.6327 32.9064H60.9382Z" fill="white"/>
<path d="M71.0946 29.383C71.0946 30.4193 71.9237 31.2484 72.96 31.2484C73.0291 31.2484 73.0982 31.2484 73.1673 31.2484C74.0655 31.2484 75.0328 31.0412 75.8619 30.6957L76.0691 32.423C74.9637 32.9066 73.72 33.183 72.5455 33.183C70.0582 33.183 68.7455 31.8012 68.7455 29.4521C68.7455 26.343 70.7491 23.6484 73.9964 23.6484C75.9309 23.6484 77.0364 24.7539 77.1055 26.2048C77.1055 28.1393 75.4473 29.1757 72.5455 29.1757C72.0618 29.1757 71.6473 29.1757 71.1637 29.1066C71.0946 29.1066 71.0946 29.2448 71.0946 29.383ZM72.4764 27.5175C73.9273 27.5175 74.8255 26.9648 74.8255 26.2048C74.8255 25.7212 74.4109 25.3066 73.72 25.3066C72.5455 25.3757 71.6473 26.2739 71.44 27.4484C71.7164 27.5175 72.0618 27.5175 72.4764 27.5175Z" fill="white"/>
<path d="M81.6655 25.8591C82.2873 24.4773 83.6 23.5791 85.0509 23.4409L84.6364 25.79C82.6327 25.7209 81.5964 27.2409 81.32 29.1064L80.6982 32.9064H78.28L79.2473 27.31C79.4546 26.0664 79.6618 24.6846 79.8 23.7173L82.0109 23.6482L81.6655 25.8591Z" fill="white"/>
<path d="M87.4 19.3645L89.8182 19.2954L88.7818 25.3754H88.8509C89.4036 24.339 90.5091 23.6481 91.7527 23.579C93.6873 23.579 94.5164 25.1681 94.5164 26.9645C94.5164 30.0045 92.72 33.1827 88.8509 33.1827C87.1236 33.1827 86.0873 32.5609 85.6036 31.3863C85.6036 30.2118 85.7418 29.1063 85.9491 27.9318L87.4 19.3645ZM87.9527 30.5572C88.2291 31.0409 88.7127 31.3172 89.1964 31.2481C90.8546 31.2481 91.8909 29.1063 91.8909 27.1718C91.8909 26.1354 91.5455 25.4445 90.6473 25.4445C88.8509 25.5136 87.8836 28.5536 87.9527 30.5572Z" fill="white"/>
<path d="M104.465 27.3105C104.12 29.176 103.844 31.0414 103.775 32.9069H101.425L101.702 30.6269H101.633C100.873 32.1469 99.6982 33.1141 98.5236 33.1141C96.7964 33.1141 95.76 31.8014 95.76 29.936C95.76 26.7578 98.1782 23.5796 101.011 23.5796C101.633 23.5796 102.255 23.7178 102.807 24.0632H102.876L103.084 23.7869L105.087 23.6487L104.465 27.3105ZM102.393 25.5832C102.116 25.445 101.771 25.3069 101.425 25.3069C99.6291 25.3069 98.3855 27.3105 98.3855 29.5214C98.3855 30.4887 98.7309 31.1796 99.56 31.1796C100.458 31.1796 101.633 30.0741 102.047 27.5178L102.393 25.5832Z" fill="white"/>
<path d="M115.451 26.6882L114.415 32.9064H111.927L112.756 27.8627C112.895 26.9646 113.171 25.4446 111.858 25.4446C110.96 25.4446 109.647 26.7573 109.233 29.3136L108.611 32.8373H106.193L107.16 27.2409C107.367 25.9973 107.575 24.7536 107.713 23.6482L109.924 23.5791L109.647 25.7209H109.716C110.407 24.4082 111.72 23.5791 113.171 23.4409C115.105 23.51 115.796 24.8918 115.451 26.6882Z" fill="white"/>
<path d="M124.087 24.0627L124.847 19.3645L127.265 19.2954L125.745 28.3463C125.469 29.8663 125.331 31.3863 125.193 32.9063H122.844L123.12 30.6263H123.051C122.291 32.1463 121.185 33.1136 119.873 33.1136C118.145 33.1136 117.109 31.7318 117.109 29.7281C117.109 27.0336 119.044 23.579 122.153 23.579C122.913 23.51 123.535 23.7172 124.087 24.0627ZM123.811 25.7209C123.465 25.4445 123.051 25.3063 122.636 25.3754C120.978 25.3754 119.735 27.379 119.735 29.5209C119.735 30.6263 120.149 31.2481 120.978 31.2481C121.876 31.2481 122.982 30.1427 123.396 27.8627L123.811 25.7209Z" fill="white"/>
<path d="M151.24 44.0305L142.258 48.4523L133.345 43.9614L142.12 39.4014L151.24 44.0305Z" fill="#9EA600"/>
<path d="M140.876 38.7103L132.102 43.2703L122.705 38.503C128.647 36.6376 135.004 36.7757 140.876 38.7103Z" fill="#9EA600"/>
<path d="M150.549 33.7358L142.12 38.0886L133.553 33.7358H150.549Z" fill="#9EA600"/>
<path d="M150.411 32.5615L141.913 28.2778L133.484 32.5615H150.411Z" fill="#9EA600"/>
<path d="M130.789 43.9614L121.6 48.5905V39.2632L130.789 43.9614Z" fill="#9EA600"/>
<path d="M111.098 43.9616L120.218 48.5907V39.3325L111.098 43.9616Z" fill="#9EA600"/>
</g>
<defs>
<clipPath id="clip0_1004:74">
<rect width="152" height="49.0545" fill="white" transform="translate(0 0.434082)"/>
</clipPath>
</defs>
</svg>
