<svg id="Layer_1" data-name="Layer 1" xmlns="http://www.w3.org/2000/svg" viewBox="0 0 2582.9 912.6"><defs><style>.cls-1{fill:#0374b6;}.cls-2{fill:#255378;opacity:0.15;isolation:isolate;}</style></defs><g id="Layer_28" data-name="Layer 28"><path class="cls-1" d="M684.1,535.9H648.2v-88a107.6,107.6,0,0,0-215.2,0v88H271a19,19,0,0,1-17-27.6L437.9,144.8C471.5,78.5,423.3,0,348.9,0a99.84,99.84,0,0,0-88.6,53.9L14,529.7A124.38,124.38,0,0,0,0,587H0A124.83,124.83,0,0,0,124.8,711.8H432.9V805a107.6,107.6,0,0,0,215.2,0V711.8h35.8a88,88,0,0,0,.2-175.9Z"/><path class="cls-1" d="M2495.1,535.9h-35.9v-88a107.6,107.6,0,1,0-215.2,0v88H2082a19,19,0,0,1-17-27.6l183.9-363.5C2282.5,78.5,2234.3,0,2159.9,0a99.84,99.84,0,0,0-88.6,53.9L1825,529.7a124.38,124.38,0,0,0-14,57.3h0a124.83,124.83,0,0,0,124.8,124.8h308.1V805a107.6,107.6,0,0,0,215.2,0V711.8h35.8a88,88,0,0,0,.2-175.9Z"/><path class="cls-2" d="M70.6,586.3,316.9,110.5a99.72,99.72,0,0,1,88.6-53.9A101.24,101.24,0,0,1,442,63.4C427.7,27.5,393,.3,349.2.3a99.84,99.84,0,0,0-88.6,53.9L14.3,530a124.38,124.38,0,0,0-14,57.3h0A124.69,124.69,0,0,0,69.6,699.1a124.23,124.23,0,0,1-13-55.5h0A124.38,124.38,0,0,1,70.6,586.3Z"/><path class="cls-2" d="M1881.6,586.3l246.3-475.8a99.72,99.72,0,0,1,88.6-53.9,101.24,101.24,0,0,1,36.5,6.8C2238.7,27.5,2204,.3,2160.2.3a99.84,99.84,0,0,0-88.6,53.9L1825.3,530a124.38,124.38,0,0,0-14,57.3h0a124.69,124.69,0,0,0,69.3,111.8,124.23,124.23,0,0,1-13-55.5h0A124.38,124.38,0,0,1,1881.6,586.3Z"/><path class="cls-2" d="M433.1,711.9h0v93.2c0,1.5,0,3,.1,4.5,1.6,38.2,59.1,36.4,59.1-1.8V771.1A59.19,59.19,0,0,0,433.1,711.9Z"/><path class="cls-2" d="M2244.1,711.9h0v93.2c0,1.5,0,3,.1,4.5,1.6,38.2,59.1,36.4,59.1-1.8V771.1A59.19,59.19,0,0,0,2244.1,711.9Z"/></g></svg>