<?xml version="1.0" encoding="utf-8"?>
<!-- Generator: Adobe Illustrator 24.3.0, SVG Export Plug-In . SVG Version: 6.00 Build 0)  -->
<svg version="1.1" id="Layer_1" xmlns="http://www.w3.org/2000/svg" xmlns:xlink="http://www.w3.org/1999/xlink" x="0px" y="0px"
	 viewBox="0 0 2582.9 912.6" style="enable-background:new 0 0 2582.9 912.6;" xml:space="preserve">
<style type="text/css">
	.st0{display:none;}
	.st1{display:inline;fill:#558AC8;}
	.st2{display:inline;}
	.st3{fill:#75C8B7;}
	.st4{display:inline;opacity:0.15;fill:#255378;enable-background:new    ;}
	.st5{fill:#0374B6;}
	.st6{opacity:0.15;fill:#255378;enable-background:new    ;}
</style>
<g id="Layer_7">
</g>
<g id="Layer_28">
	<g id="XMLID_107_">
		<g id="XMLID_51_">
			<g id="XMLID_37_" class="st0">
				<path id="XMLID_71_" class="st1" d="M1381.9,9.7c0.9-0.2,1.9-0.5,2.8-0.7c-24.6-6.1-49.1-10.2-75.7-12.3c-8.2,0-18.4,0-26.6,0
					c-251.8,0-454.5,204.7-454.5,456.5c0,8.2,0,16.4,0,24.6c2,26.6,6.1,51.2,10.2,77.8c0.2-0.9,0.5-1.9,0.7-2.8
					c45.4,203.1,226.7,355,443.5,355c251,0,454.5-203.5,454.5-454.5C1736.8,236.4,1585,55.1,1381.9,9.7z"/>
				<g id="XMLID_38_" class="st2">
					<g>
						<path id="XMLID_174_" class="st3" d="M1073.5,688.6c-6.1-2-2-10.2-4.1-16.4c-2-8.2-10.2-12.3-18.4-12.3s-16.4,4.1-24.6,2
							c-12.3-2-20.5-16.4-30.7-24.6c-12.3-10.2-30.7-14.3-43-26.6c-6.1-8.2-8.2-18.4-12.3-26.6c-4.1-16.4-8.2-32.8-12.3-49.1
							c-2-4.1-2-8.2-6.1-12.3c-2-4.1-6.1-4.1-10.2-8.2c-18.4-12.3-28.7-38.9-22.5-61.4c4.1-16.4,14.3-30.7,26.6-45
							c16.4-20.5,34.8-40.9,55.3-57.3c8.2-6.1,14.3-10.2,20.5-18.4c18.4-18.4,20.5-45,8.2-65.5c-4.1-6.1-8.2-12.3-12.3-18.4
							c-6.1-10.2-6.1-24.6-10.2-34.8c-4.1-12.3-16.4-22.5-26.6-20.5l-75.7,53.2C846.4,307.8,828,379.5,828,453.2
							c0,167.9,92.1,315.3,229.3,393.1c10.2-4.1,20.5-10.2,30.7-18.4c4.1-2,6.1-4.1,6.1-6.1c8.2-12.3-6.1-26.6-6.1-40.9
							s16.4-26.6,20.5-40.9c2-4.1,2-6.1,4.1-10.2C1124.7,705,1100.1,678.4,1073.5,688.6C1073.5,686.6,1073.5,688.6,1073.5,688.6z"/>
						<path id="XMLID_173_" class="st3" d="M1155.4,47.9c-10.2,6.1-24.6,8.2-36.8,10.2c-8.2,2-16.4,2-26.6,4.1c-4.1,0-6.1,2-8.2,2
							c-6.1,2-8.2,8.2-12.3,14.3c-4.1,8.2-10.2,18.4-14.3,26.6c-6.1,12.3-14.3,24.6-26.6,28.7c-14.3,6.1-30.7,0-38.9-12.3
							c-2-4.1-4.1-8.2-6.1-14.3c51.2-45,112.6-77.8,180.2-94.2c0,2,2,2,2,4.1C1173.8,27.4,1165.6,41.7,1155.4,47.9z"/>
						<path id="XMLID_172_" class="st3" d="M1683.5,518.7c-22.5-6.1,4.1-49.1-2-71.7c-6.1-22.5-14.3-43-30.7-59.4
							s-40.9-22.5-61.4-12.3c4.1,14.3,26.6,16.4,36.8,28.7c6.1,10.2,4.1,24.6-4.1,32.8c-8.2,8.2-18.4,16.4-26.6,24.6
							c-4.1,4.1-8.2,8.2-8.2,14.3c0,6.1,6.1,12.3,8.2,18.4c4.1,8.2,0,18.4-8.2,26.6c-6.1,6.1-14.3,12.3-22.5,16.4
							c-24.6,16.4-40.9,45-45,73.7c-2,12.3-2,22.5-4.1,34.8c-4.1,12.3-14.3,24.6-22.5,34.8c-10.2,18.4-14.3,38.9-22.5,57.3
							c-10.2,24.6-24.6,45-43,61.4c-8.2,8.2-18.4,16.4-30.7,18.4c-24.6,4.1-49.1-16.4-59.4-38.9c-10.2-20.5-12.3-45-8.2-67.6
							c4.1-20.5,16.4-45,2-61.4c-6.1-6.1-12.3-10.2-18.4-16.4c-22.5-22.5-14.3-59.4-18.4-90.1c0-4.1-2-10.2-6.1-14.3
							c-2-2-4.1-2-8.2-2c-24.6-4.1-51.2-2-75.7-4.1c-24.6-4.1-51.2-14.3-63.5-36.8c-10.2-18.4-10.2-40.9-10.2-61.4
							c0-16.4,2-32.8,10.2-47.1c10.2-18.4,30.7-26.6,49.1-34.8c32.8-14.3,67.6-30.7,104.4-22.5c20.5,4.1,38.9,14.3,59.4,16.4
							c12.3,2,24.6,0,34.8-2c34.8-6.1,67.6-14.3,100.3-28.7c18.4-8.2,40.9-22.5,36.8-43c-2-12.3-14.3-20.5-26.6-22.5
							s-24.6,0-36.8,6.1c-16.4,6.1-32.8,16.4-45,28.7c-4.1,4.1-10.2,10.2-16.4,10.2c-22.5,4.1-26.6-38.9-49.1-36.8
							c6.1,8.2,4.1,20.5-2,26.6c-8.2,6.1-20.5,6.1-28.7,0c-10.2-6.1-14.3-20.5-26.6-24.6s-24.6,4.1-34.8,10.2
							c-20.5,12.3-43,20.5-65.5,22.5c-14.3,2-30.7,0-36.8-12.3c-8.2-14.3,4.1-32.8,18.4-38.9c14.3-6.1,30.7-6.1,47.1-10.2
							c4.1-10.2,4.1-20.5,4.1-30.7c-18.4-10.2-43,0-59.4-12.3c-10.2-8.2-14.3-22.5-10.2-34.8s12.3-22.5,24.6-28.7
							c14.3-8.2,38.9-6.1,43,10.2c2,8.2-2,14.3-2,22.5c-2,8.2,2,16.4,8.2,18.4c2,0,6.1,0,10.2,0c43-10.2,88-18.4,131-28.7
							c8.2-2,16.4-4.1,22.5-8.2c6.1-6.1,8.2-16.4,4.1-22.5c-8.2-12.3-26.6,0-38.9,4.1c-20.5,6.1-38.9,2-55.3-2
							c-8.2-2-20.5-6.1-20.5-16.4c0-6.1,4.1-10.2,8.2-14.3c32.8-30.7,81.9-40.9,124.9-28.7c22.5,6.1,43,18.4,65.5,22.5
							c14.3,2,28.7,0,43-4.1c120.8,75.7,202.7,204.7,212.9,354.2c-4.1,6.1-10.2,12.3-14.3,18.4
							C1710.2,461.4,1736.8,533.1,1683.5,518.7z"/>
					</g>
				</g>
				<path id="XMLID_84_" class="st4" d="M988.5,552.7c-0.2,0.9-0.5,1.9-0.7,2.8c-4.1-26.6-8.2-51.2-10.2-77.8c0-8.2,0-16.4,0-24.6
					c0-226.2,163.5-414.3,379.3-450.3c-15.5-2.9-31.3-4.9-47.9-6.2c-8.2,0-18.4,0-26.6,0c-251.8,0-454.5,204.7-454.5,456.5
					c0,8.2,0,16.4,0,24.6c2,26.6,6.1,51.2,10.2,77.8c0.2-0.9,0.5-1.9,0.7-2.8c45.4,203.1,226.7,355,443.5,355
					c25.5,0,50.5-2.1,74.8-6.2C1174.4,871.2,1028.5,732,988.5,552.7z"/>
			</g>
			<g id="XMLID_53_">
				<path id="XMLID_83_" class="st5" d="M684.1,535.9h-35.9v-88c0-59.4-48.2-107.6-107.6-107.6S433,388.5,433,447.9v88H271
					c-14.2,0-23.4-14.9-17-27.6l183.9-363.5C471.5,78.5,423.3,0,348.9,0c-37.3,0-71.4,20.8-88.6,53.9L14,529.7
					C4.8,547.4,0,567.1,0,587l0,0c0,68.9,55.9,124.8,124.8,124.8h308.1V805c0,59.4,48.2,107.6,107.6,107.6S648.1,864.4,648.1,805
					v-93.2h35.8c48.6,0,88-39.4,88-88C772.1,575.3,732.7,535.9,684.1,535.9z"/>
				<path id="XMLID_98_" class="st5" d="M2495.1,535.9h-35.9v-88c0-59.4-48.2-107.6-107.6-107.6c-59.4,0-107.6,48.2-107.6,107.6v88
					h-162c-14.2,0-23.4-14.9-17-27.6l183.9-363.5c33.6-66.3-14.6-144.8-89-144.8c-37.3,0-71.4,20.8-88.6,53.9L1825,529.7
					c-9.2,17.7-14,37.4-14,57.3l0,0c0,68.9,55.9,124.8,124.8,124.8h308.1V805c0,59.4,48.2,107.6,107.6,107.6
					c59.4,0,107.6-48.2,107.6-107.6v-93.2h35.8c48.6,0,88-39.4,88-88C2583.1,575.3,2543.7,535.9,2495.1,535.9z"/>
			</g>
			<path id="XMLID_93_" class="st6" d="M70.6,586.3l246.3-475.8c17.1-33.1,51.3-53.9,88.6-53.9c13.1,0,25.3,2.5,36.5,6.8
				c-14.3-35.9-49-63.1-92.8-63.1c-37.3,0-71.4,20.8-88.6,53.9L14.3,530c-9.2,17.7-14,37.4-14,57.3l0,0c0,49,28.2,91.4,69.3,111.8
				c-8.3-16.7-13-35.5-13-55.5l0,0C56.6,623.7,61.4,604,70.6,586.3z"/>
			<path id="XMLID_153_" class="st6" d="M1881.6,586.3l246.3-475.8c17.1-33.1,51.3-53.9,88.6-53.9c13.1,0,25.3,2.5,36.5,6.8
				c-14.3-35.9-49-63.1-92.8-63.1c-37.3,0-71.4,20.8-88.6,53.9L1825.3,530c-9.2,17.7-14,37.4-14,57.3l0,0c0,49,28.2,91.4,69.3,111.8
				c-8.3-16.7-13-35.5-13-55.5l0,0C1867.6,623.7,1872.4,604,1881.6,586.3z"/>
		</g>
		<path id="XMLID_111_" class="st6" d="M433.1,711.9L433.1,711.9v93.2c0,1.5,0,3,0.1,4.5c1.6,38.2,59.1,36.4,59.1-1.8v-36.7
			C492.3,738.4,465.8,711.9,433.1,711.9z"/>
		<path id="XMLID_109_" class="st6" d="M2244.1,711.9L2244.1,711.9v93.2c0,1.5,0,3,0.1,4.5c1.6,38.2,59.1,36.4,59.1-1.8v-36.7
			C2303.3,738.4,2276.8,711.9,2244.1,711.9z"/>
	</g>
</g>
<g id="Layer_2_1_">
</g>
</svg>
