<svg id="Layer_1" data-name="Layer 1" xmlns="http://www.w3.org/2000/svg" xmlns:xlink="http://www.w3.org/1999/xlink" viewBox="0 0 10810.75 8191.07"><defs><style>.cls-1,.cls-2{fill:none;}.cls-2{clip-path:url(#clip-path);}.cls-3{fill:#171844;}.cls-4{fill:#c23e27;}.cls-5{fill:#e1ebf7;}.cls-6{fill:#0374b6;}.cls-7{fill:#f3f3f3;}.cls-8{fill:#558ac8;}.cls-9{fill:#ecf1f9;}.cls-10{opacity:0.54;}.cls-11{clip-path:url(#clip-path-2);}.cls-12{fill:url(#linear-gradient);}</style><clipPath id="clip-path"><polygon class="cls-1" points="2105.4 3002.9 2106.4 3002.9 2105.4 3003.9 2105.4 3002.9"/></clipPath><clipPath id="clip-path-2"><polygon class="cls-2" points="2103.4 3000.9 2102.4 3000.9 2103.4 2999.9 2103.4 3000.9"/></clipPath><linearGradient id="linear-gradient" x1="4770.9" y1="-3001.8" x2="4770.9" y2="-826.9" gradientTransform="matrix(1, 0, 0, -1, 0, 3000)" gradientUnits="userSpaceOnUse"><stop offset="0" stop-color="#fff"/><stop offset="0.06" stop-color="#f9f9f9"/><stop offset="0.15" stop-color="#e8e8e8"/><stop offset="0.25" stop-color="#ccc"/><stop offset="0.36" stop-color="#a5a5a5"/><stop offset="0.47" stop-color="#737373"/><stop offset="0.6" stop-color="#373737"/><stop offset="0.69"/></linearGradient></defs><g id="Layer_33" data-name="Layer 33"><rect class="cls-3" x="-36.65" y="3.38" width="10847.41" height="8187.69"/></g><g id="Layer_4" data-name="Layer 4"><path class="cls-4" d="M1399.36,659.07a7.64,7.64,0,0,0-9.4-1.7l-81.9,46.2a7.77,7.77,0,0,0-3.4,10.2,7.48,7.48,0,0,0,10.5,3.2l82.3-46.4a7.48,7.48,0,0,0,2-11.4A.1.1,0,0,0,1399.36,659.07Z"/><path class="cls-4" d="M1776.66,448.17a.1.1,0,0,0-.1-.1,7.4,7.4,0,0,0-10.4-3.2l-290.8,164a7.5,7.5,0,0,0-2.2,11.2l.1.1a7.41,7.41,0,0,0,9.5,1.8l290.7-164A7.41,7.41,0,0,0,1776.66,448.17Z"/><path class="cls-5" d="M3680.06,1069.87c-3.5-6.2-13.4-6.3-16.2-4.7L3261.66,1292c-2.8,1.6-8.6,10.6-5.1,16.8s14.9,7.2,17.7,5.6l402.2-226.8C3679.36,1086.07,3683.56,1076.07,3680.06,1069.87Z"/><path class="cls-6" d="M4442.36,2513.17l706.7-398.6a10.28,10.28,0,1,0-10.1-17.9l-706.7,398.6a10.32,10.32,0,0,0-3.9,14A10.21,10.21,0,0,0,4442.36,2513.17Z"/><path class="cls-6" d="M4298.66,2594.27l69.8-39.4a10.28,10.28,0,1,0-10.1-17.9l-69.8,39.4a10.28,10.28,0,0,0,10.1,17.9Z"/><path class="cls-4" d="M4819.86,1896.37l-12.2-6.2a47.83,47.83,0,0,1-20.6-20.2l-8.4-15.8a7.73,7.73,0,0,0-13.6,0l-7.6,14.4a48.07,48.07,0,0,1-19.8,19.9l-14.8,8a7.72,7.72,0,0,0,.3,13.7l13.3,6.4a48.21,48.21,0,0,1,22.3,22.3l6.2,12.7a7.65,7.65,0,0,0,13.8,0l6.6-13.6a48.26,48.26,0,0,1,23.2-22.7l11.1-5.1A7.68,7.68,0,0,0,4819.86,1896.37Z"/><path class="cls-4" d="M3148,277.07l-7.8-4a31.57,31.57,0,0,1-13.2-12.9l-5.4-10.1a4.92,4.92,0,0,0-8.7,0l-4.9,9.2a30.26,30.26,0,0,1-12.6,12.7l-9.5,5.1a4.89,4.89,0,0,0,.2,8.7l8.5,4.1a30.76,30.76,0,0,1,14.3,14.2l3.9,8.1a4.88,4.88,0,0,0,8.8,0l4.2-8.7a30.66,30.66,0,0,1,14.8-14.5l7.1-3.3A4.67,4.67,0,0,0,3148,277.07Z"/><path class="cls-7" d="M357.16,1115.47l-8.8-4.5a34.53,34.53,0,0,1-14.8-14.5l-6-11.3a5.48,5.48,0,0,0-9.7,0l-5.5,10.4a34.34,34.34,0,0,1-14.2,14.3l-10.6,5.7a5.5,5.5,0,0,0,.2,9.8l9.5,4.6a34.48,34.48,0,0,1,16,16l4.4,9.1a5.52,5.52,0,0,0,9.9,0l4.7-9.8a35,35,0,0,1,16.6-16.3l8-3.7A5.39,5.39,0,0,0,357.16,1115.47Z"/><path class="cls-7" d="M4256.16,862.47l-12.2-6.2a47.83,47.83,0,0,1-20.6-20.2l-8.4-15.8a7.65,7.65,0,0,0-13.5,0l-7.6,14.4a48.42,48.42,0,0,1-19.7,19.9l-14.8,8a7.72,7.72,0,0,0,.3,13.7l13.3,6.4a48.21,48.21,0,0,1,22.3,22.3l6.2,12.7a7.65,7.65,0,0,0,13.8,0l6.6-13.6a47.84,47.84,0,0,1,23.1-22.6l11.1-5.1A7.82,7.82,0,0,0,4256.16,862.47Z"/><circle class="cls-6" cx="4342.6" cy="1531.08" r="27.8" transform="translate(189.28 3519.12) rotate(-45)"/><circle class="cls-5" cx="816.96" cy="896.6" r="57.5" transform="translate(-241.68 1488.7) rotate(-76.88)"/><path class="cls-8" d="M4210.46,283.47a76,76,0,1,1-76,76,76.09,76.09,0,0,1,76-76m0-16.7a92.65,92.65,0,1,0,92.6,92.7,92.61,92.61,0,0,0-92.6-92.7Z"/><circle class="cls-8" cx="1269.36" cy="1066.97" r="22.3"/><circle class="cls-8" cx="3064.41" cy="896.55" r="22.3" transform="translate(263.59 2429.46) rotate(-45)"/><path class="cls-5" d="M2490.26,857.87a11.2,11.2,0,1,1-11.2-11.2A11.18,11.18,0,0,1,2490.26,857.87Z"/><circle class="cls-6" cx="4860.36" cy="667.17" r="88.9"/><circle class="cls-9" cx="5024.52" cy="138.04" r="22.7" transform="translate(3735.5 4996.36) rotate(-76.71)"/><circle class="cls-4" cx="637.58" cy="1791.15" r="27.1"/><path class="cls-6" d="M4335.06,1845.17l706.7-398.6a10.28,10.28,0,1,0-10.1-17.9L4325,1827.27a10.32,10.32,0,0,0-3.9,14A10.18,10.18,0,0,0,4335.06,1845.17Z"/><path class="cls-6" d="M4191.36,1926.27l69.8-39.4a10.28,10.28,0,1,0-10.1-17.9l-69.8,39.4a10.28,10.28,0,0,0,10.1,17.9Z"/><path class="cls-6" d="M439.26,2276.07l-111.2,62.7c-4.8,2.7-7.1,8.8-4.7,13.8a10.31,10.31,0,0,0,14.3,4.4l111.7-63a10.16,10.16,0,0,0,2.7-15.5c0-.1-.1-.1-.1-.2A10.38,10.38,0,0,0,439.26,2276.07Z"/><path class="cls-6" d="M876.86,2029.27,482.06,2252a10.08,10.08,0,0,0-2.9,15.2l.1.2a10.18,10.18,0,0,0,12.9,2.5L887,2047.17a10.08,10.08,0,0,0,4.1-13.3c0-.1-.1-.1-.1-.2A10.22,10.22,0,0,0,876.86,2029.27Z"/><path class="cls-6" d="M194,2438.07l69.8-39.4a10.28,10.28,0,0,0-10.1-17.9l-69.8,39.4a10.28,10.28,0,1,0,10.1,17.9Z"/><circle class="cls-6" cx="2586.12" cy="137.67" r="33.1" transform="translate(241.07 1236.63) rotate(-28.16)"/><path class="cls-6" d="M3881.06,122.67l-409.7,231.1a10.51,10.51,0,0,0-3,15.8l.1.2a10.61,10.61,0,0,0,13.4,2.6l409.6-231a10.53,10.53,0,0,0,4.3-13.8c0-.1-.1-.1-.1-.2A10.39,10.39,0,0,0,3881.06,122.67Z"/><path class="cls-5" d="M453.56,1435.47c-2.8-4.9-10.7-5-12.9-3.7l-321,181c-2.2,1.3-6.8,8.5-4.1,13.4s11.9,5.7,14.2,4.5l321-181C453,1448.37,456.26,1440.37,453.56,1435.47Z"/><path class="cls-6" d="M2660.66,2565.27l-111.2,62.7c-4.8,2.7-7.1,8.8-4.7,13.8a10.31,10.31,0,0,0,14.3,4.4l111.7-63a10.16,10.16,0,0,0,2.7-15.5c0-.1-.1-.1-.1-.2A10.12,10.12,0,0,0,2660.66,2565.27Z"/><path class="cls-6" d="M3098.16,2318.47l-394.8,222.7a10.08,10.08,0,0,0-2.9,15.2l.1.2a10.18,10.18,0,0,0,12.9,2.5l394.8-222.7a10.08,10.08,0,0,0,4.1-13.3c0-.1-.1-.1-.1-.2A10,10,0,0,0,3098.16,2318.47Z"/><path class="cls-6" d="M2415.36,2727.17l69.8-39.4a10.28,10.28,0,0,0-10.1-17.9l-69.8,39.4a10.32,10.32,0,0,0-3.9,14A10.21,10.21,0,0,0,2415.36,2727.17Z"/><path class="cls-5" d="M2858.86,2012.57c-2.8-4.9-10.7-5-12.9-3.7l-321,181c-2.2,1.3-6.8,8.5-4.1,13.4s11.9,5.7,14.2,4.5l321-181C2858.36,2025.47,2861.66,2017.47,2858.86,2012.57Z"/><path class="cls-4" d="M1703.26,2431.27l109.1-66.3c4.8-2.9,6.9-9,4.2-13.9a10.25,10.25,0,0,0-14.4-3.9l-109.6,66.6a10.14,10.14,0,0,0-2.2,15.6c0,.1.1.1.1.2A10.17,10.17,0,0,0,1703.26,2431.27Z"/><path class="cls-4" d="M1273.86,2692.07l387.5-235.3a10.13,10.13,0,0,0,2.4-15.3l-.1-.2a10.28,10.28,0,0,0-13-2.1l-387.4,235.3a10.24,10.24,0,0,0-3.7,13.5c0,.1.1.1.1.2A10,10,0,0,0,1273.86,2692.07Z"/><path class="cls-4" d="M1943.16,2261.57l-68.5,41.6a10.27,10.27,0,0,0,10.6,17.6l68.5-41.6a10.27,10.27,0,1,0-10.6-17.6Z"/></g><g id="Layer_4-2" data-name="Layer 4"><path class="cls-4" d="M1509.17,3283a7.64,7.64,0,0,0-9.4-1.7l-81.9,46.2a7.77,7.77,0,0,0-3.4,10.2,7.48,7.48,0,0,0,10.5,3.2l82.3-46.4a7.48,7.48,0,0,0,2-11.4A.1.1,0,0,0,1509.17,3283Z"/><path class="cls-4" d="M1886.47,3072.13a.1.1,0,0,0-.1-.1,7.4,7.4,0,0,0-10.4-3.2l-290.8,164a7.5,7.5,0,0,0-2.2,11.2l.1.1a7.41,7.41,0,0,0,9.5,1.8l290.7-164A7.41,7.41,0,0,0,1886.47,3072.13Z"/><path class="cls-5" d="M3789.87,3693.83c-3.5-6.2-13.4-6.3-16.2-4.7l-402.2,226.8c-2.8,1.6-8.6,10.6-5.1,16.8s14.9,7.2,17.7,5.6l402.2-226.8C3789.17,3710,3793.37,3700,3789.87,3693.83Z"/><path class="cls-6" d="M4552.17,5137.13l706.7-398.6a10.28,10.28,0,1,0-10.1-17.9l-706.7,398.6a10.32,10.32,0,0,0-3.9,14A10.21,10.21,0,0,0,4552.17,5137.13Z"/><path class="cls-6" d="M4408.47,5218.23l69.8-39.4a10.28,10.28,0,1,0-10.1-17.9l-69.8,39.4a10.28,10.28,0,0,0,10.1,17.9Z"/><path class="cls-4" d="M4929.67,4520.33l-12.2-6.2a47.83,47.83,0,0,1-20.6-20.2l-8.4-15.8a7.73,7.73,0,0,0-13.6,0l-7.6,14.4a48.07,48.07,0,0,1-19.8,19.9l-14.8,8a7.72,7.72,0,0,0,.3,13.7l13.3,6.4a48.21,48.21,0,0,1,22.3,22.3l6.2,12.7a7.65,7.65,0,0,0,13.8,0l6.6-13.6a48.26,48.26,0,0,1,23.2-22.7l11.1-5.1A7.68,7.68,0,0,0,4929.67,4520.33Z"/><path class="cls-4" d="M3257.77,2901l-7.8-4a31.57,31.57,0,0,1-13.2-12.9l-5.4-10.1a4.92,4.92,0,0,0-8.7,0l-4.9,9.2a30.26,30.26,0,0,1-12.6,12.7l-9.5,5.1a4.89,4.89,0,0,0,.2,8.7l8.5,4.1a30.76,30.76,0,0,1,14.3,14.2l3.9,8.1a4.88,4.88,0,0,0,8.8,0l4.2-8.7a30.66,30.66,0,0,1,14.8-14.5l7.1-3.3A4.67,4.67,0,0,0,3257.77,2901Z"/><path class="cls-7" d="M467,3739.43l-8.8-4.5a34.53,34.53,0,0,1-14.8-14.5l-6-11.3a5.48,5.48,0,0,0-9.7,0l-5.5,10.4a34.34,34.34,0,0,1-14.2,14.3l-10.6,5.7a5.5,5.5,0,0,0,.2,9.8l9.5,4.6a34.48,34.48,0,0,1,16,16l4.4,9.1a5.52,5.52,0,0,0,9.9,0l4.7-9.8a35,35,0,0,1,16.6-16.3l8-3.7A5.39,5.39,0,0,0,467,3739.43Z"/><path class="cls-7" d="M4366,3486.43l-12.2-6.2a47.83,47.83,0,0,1-20.6-20.2l-8.4-15.8a7.65,7.65,0,0,0-13.5,0l-7.6,14.4a48.42,48.42,0,0,1-19.7,19.9l-14.8,8a7.72,7.72,0,0,0,.3,13.7l13.3,6.4a48.21,48.21,0,0,1,22.3,22.3l6.2,12.7a7.65,7.65,0,0,0,13.8,0l6.6-13.6a47.84,47.84,0,0,1,23.1-22.6l11.1-5.1A7.82,7.82,0,0,0,4366,3486.43Z"/><circle class="cls-6" cx="4452.41" cy="4155.03" r="27.8" transform="translate(-1633.97 4365.31) rotate(-45)"/><circle class="cls-5" cx="926.77" cy="3520.55" r="57.5" transform="translate(-2712.25 3623.97) rotate(-76.88)"/><path class="cls-8" d="M4320.27,2907.43a76,76,0,1,1-76,76,76.09,76.09,0,0,1,76-76m0-16.7a92.65,92.65,0,1,0,92.6,92.7,92.61,92.61,0,0,0-92.6-92.7Z"/><circle class="cls-8" cx="1379.17" cy="3690.93" r="22.3"/><circle class="cls-8" cx="3174.22" cy="3520.51" r="22.3" transform="translate(-1559.67 3275.65) rotate(-45)"/><path class="cls-5" d="M2600.07,3481.83a11.2,11.2,0,1,1-11.2-11.2A11.18,11.18,0,0,1,2600.07,3481.83Z"/><circle class="cls-6" cx="4970.17" cy="3291.13" r="88.9"/><circle class="cls-9" cx="5134.33" cy="2762" r="22.7" transform="translate(1266.35 7124.18) rotate(-76.71)"/><circle class="cls-4" cx="747.39" cy="4415.11" r="27.1"/><path class="cls-6" d="M4444.87,4469.13l706.7-398.6a10.28,10.28,0,1,0-10.1-17.9l-706.7,398.6a10.32,10.32,0,0,0-3.9,14A10.18,10.18,0,0,0,4444.87,4469.13Z"/><path class="cls-6" d="M4301.17,4550.23l69.8-39.4a10.28,10.28,0,1,0-10.1-17.9l-69.8,39.4a10.28,10.28,0,0,0,10.1,17.9Z"/><path class="cls-6" d="M549.07,4900l-111.2,62.7c-4.8,2.7-7.1,8.8-4.7,13.8a10.31,10.31,0,0,0,14.3,4.4l111.7-63a10.16,10.16,0,0,0,2.7-15.5c0-.1-.1-.1-.1-.2A10.38,10.38,0,0,0,549.07,4900Z"/><path class="cls-6" d="M986.67,4653.23l-394.8,222.7a10.08,10.08,0,0,0-2.9,15.2l.1.2a10.18,10.18,0,0,0,12.9,2.5l394.8-222.7a10.08,10.08,0,0,0,4.1-13.3c0-.1-.1-.1-.1-.2A10.22,10.22,0,0,0,986.67,4653.23Z"/><path class="cls-6" d="M303.77,5062l69.8-39.4a10.28,10.28,0,1,0-10.1-17.9l-69.8,39.4a10.28,10.28,0,0,0,10.1,17.9Z"/><circle class="cls-6" cx="2695.93" cy="2761.62" r="33.1" transform="translate(-984.13 1598.96) rotate(-28.16)"/><path class="cls-6" d="M3990.87,2746.63l-409.7,231.1a10.51,10.51,0,0,0-3,15.8l.1.2a10.61,10.61,0,0,0,13.4,2.6l409.6-231a10.53,10.53,0,0,0,4.3-13.8c0-.1-.1-.1-.1-.2A10.39,10.39,0,0,0,3990.87,2746.63Z"/><path class="cls-5" d="M563.37,4059.43c-2.8-4.9-10.7-5-12.9-3.7l-321,181c-2.2,1.3-6.8,8.5-4.1,13.4s11.9,5.7,14.2,4.5l321-181C562.77,4072.33,566.07,4064.33,563.37,4059.43Z"/><path class="cls-6" d="M2770.47,5189.23l-111.2,62.7c-4.8,2.7-7.1,8.8-4.7,13.8a10.31,10.31,0,0,0,14.3,4.4l111.7-63a10.16,10.16,0,0,0,2.7-15.5c0-.1-.1-.1-.1-.2A10.12,10.12,0,0,0,2770.47,5189.23Z"/><path class="cls-6" d="M3208,4942.43l-394.8,222.7a10.08,10.08,0,0,0-2.9,15.2l.1.2a10.18,10.18,0,0,0,12.9,2.5l394.8-222.7a10.08,10.08,0,0,0,4.1-13.3c0-.1-.1-.1-.1-.2A10,10,0,0,0,3208,4942.43Z"/><path class="cls-6" d="M2525.17,5351.13l69.8-39.4a10.28,10.28,0,1,0-10.1-17.9l-69.8,39.4a10.32,10.32,0,0,0-3.9,14A10.21,10.21,0,0,0,2525.17,5351.13Z"/><path class="cls-5" d="M2968.67,4636.53c-2.8-4.9-10.7-5-12.9-3.7l-321,181c-2.2,1.3-6.8,8.5-4.1,13.4s11.9,5.7,14.2,4.5l321-181C2968.17,4649.43,2971.47,4641.43,2968.67,4636.53Z"/><path class="cls-4" d="M1813.07,5055.23l109.1-66.3c4.8-2.9,6.9-9,4.2-13.9a10.25,10.25,0,0,0-14.4-3.9l-109.6,66.6a10.14,10.14,0,0,0-2.2,15.6c0,.1.1.1.1.2A10.17,10.17,0,0,0,1813.07,5055.23Z"/><path class="cls-4" d="M1383.67,5316l387.5-235.3a10.13,10.13,0,0,0,2.4-15.3l-.1-.2a10.28,10.28,0,0,0-13-2.1l-387.4,235.3a10.24,10.24,0,0,0-3.7,13.5c0,.1.1.1.1.2A10,10,0,0,0,1383.67,5316Z"/><path class="cls-4" d="M2053,4885.53l-68.5,41.6a10.27,10.27,0,0,0,10.6,17.6l68.5-41.6a10.27,10.27,0,1,0-10.6-17.6Z"/></g><g id="Layer_4-3" data-name="Layer 4"><path class="cls-4" d="M1619,5907a7.64,7.64,0,0,0-9.4-1.7l-81.9,46.2a7.77,7.77,0,0,0-3.4,10.2,7.48,7.48,0,0,0,10.5,3.2l82.3-46.4a7.48,7.48,0,0,0,2-11.4A.1.1,0,0,0,1619,5907Z"/><path class="cls-4" d="M1996.29,5696.08a.1.1,0,0,0-.1-.1,7.4,7.4,0,0,0-10.4-3.2l-290.8,164a7.5,7.5,0,0,0-2.2,11.2l.1.1a7.41,7.41,0,0,0,9.5,1.8l290.7-164A7.41,7.41,0,0,0,1996.29,5696.08Z"/><path class="cls-5" d="M3899.69,6317.78c-3.5-6.2-13.4-6.3-16.2-4.7l-402.2,226.8c-2.8,1.6-8.6,10.6-5.1,16.8s14.9,7.2,17.7,5.6l402.2-226.8C3899,6334,3903.19,6324,3899.69,6317.78Z"/><path class="cls-6" d="M4662,7761.08l706.7-398.6a10.28,10.28,0,1,0-10.1-17.9l-706.7,398.6a10.28,10.28,0,0,0,10.1,17.9Z"/><path class="cls-6" d="M4518.29,7842.18l69.8-39.4a10.28,10.28,0,1,0-10.1-17.9l-69.8,39.4a10.28,10.28,0,0,0,10.1,17.9Z"/><path class="cls-4" d="M5039.49,7144.28l-12.2-6.2a47.91,47.91,0,0,1-20.61-20.2l-8.39-15.8a7.74,7.74,0,0,0-13.61,0l-7.6,14.4a48,48,0,0,1-19.79,19.9l-14.8,8a7.72,7.72,0,0,0,.3,13.7l13.29,6.4a48.17,48.17,0,0,1,22.3,22.3l6.2,12.7a7.65,7.65,0,0,0,13.8,0l6.6-13.6a48.26,48.26,0,0,1,23.2-22.7l11.11-5.1A7.68,7.68,0,0,0,5039.49,7144.28Z"/><path class="cls-4" d="M3367.59,5525l-7.8-4a31.57,31.57,0,0,1-13.2-12.9l-5.4-10.1a4.92,4.92,0,0,0-8.7,0l-4.9,9.2a30.26,30.26,0,0,1-12.6,12.7l-9.5,5.1a4.89,4.89,0,0,0,.2,8.7l8.5,4.1a30.76,30.76,0,0,1,14.3,14.2l3.9,8.1a4.88,4.88,0,0,0,8.8,0l4.2-8.7a30.66,30.66,0,0,1,14.8-14.5l7.1-3.3A4.67,4.67,0,0,0,3367.59,5525Z"/><path class="cls-7" d="M576.79,6363.38l-8.8-4.5a34.53,34.53,0,0,1-14.8-14.5l-6-11.3a5.48,5.48,0,0,0-9.7,0l-5.5,10.4a34.34,34.34,0,0,1-14.2,14.3l-10.6,5.7a5.5,5.5,0,0,0,.2,9.8l9.5,4.6a34.48,34.48,0,0,1,16,16l4.4,9.1a5.52,5.52,0,0,0,9.9,0l4.7-9.8a35,35,0,0,1,16.6-16.3l8-3.7A5.39,5.39,0,0,0,576.79,6363.38Z"/><path class="cls-7" d="M4475.79,6110.38l-12.2-6.2A47.83,47.83,0,0,1,4443,6084l-8.4-15.8a7.65,7.65,0,0,0-13.5,0l-7.6,14.4a48.42,48.42,0,0,1-19.7,19.9l-14.8,8a7.72,7.72,0,0,0,.3,13.7l13.29,6.4a48.17,48.17,0,0,1,22.3,22.3l6.2,12.7a7.65,7.65,0,0,0,13.8,0l6.6-13.6a47.84,47.84,0,0,1,23.1-22.6l11.1-5.1A7.82,7.82,0,0,0,4475.79,6110.38Z"/><circle class="cls-6" cx="4562.22" cy="6778.99" r="27.8" transform="translate(-3457.22 5211.5) rotate(-45)"/><circle class="cls-5" cx="1036.58" cy="6144.51" r="57.5" transform="translate(-5182.83 5759.23) rotate(-76.88)"/><path class="cls-8" d="M4430.09,5531.38a76,76,0,1,1-76,76,76.09,76.09,0,0,1,76-76m0-16.7a92.65,92.65,0,1,0,92.6,92.7,92.61,92.61,0,0,0-92.6-92.7Z"/><circle class="cls-8" cx="1488.99" cy="6314.88" r="22.3"/><circle class="cls-8" cx="3284.04" cy="6144.46" r="22.3" transform="translate(-3382.92 4121.84) rotate(-45)"/><path class="cls-5" d="M2709.89,6105.78a11.2,11.2,0,1,1-11.2-11.2A11.18,11.18,0,0,1,2709.89,6105.78Z"/><circle class="cls-6" cx="5079.99" cy="5915.08" r="88.9"/><circle class="cls-9" cx="5244.14" cy="5385.95" r="22.7" transform="translate(-1202.81 9252) rotate(-76.71)"/><circle class="cls-4" cx="857.2" cy="7039.06" r="27.1"/><path class="cls-6" d="M4554.69,7093.08l706.7-398.6a10.28,10.28,0,1,0-10.1-17.9l-706.7,398.6a10.32,10.32,0,0,0-3.9,14A10.18,10.18,0,0,0,4554.69,7093.08Z"/><path class="cls-6" d="M4411,7174.18l69.8-39.4a10.28,10.28,0,0,0-10.11-17.9l-69.79,39.4a10.28,10.28,0,0,0,10.1,17.9Z"/><path class="cls-6" d="M658.89,7524l-111.2,62.7c-4.8,2.7-7.1,8.8-4.7,13.8a10.31,10.31,0,0,0,14.3,4.4l111.7-63a10.16,10.16,0,0,0,2.7-15.5c0-.1-.1-.1-.1-.2A10.38,10.38,0,0,0,658.89,7524Z"/><path class="cls-6" d="M1096.49,7277.18l-394.8,222.7a10.08,10.08,0,0,0-2.9,15.2l.1.2a10.18,10.18,0,0,0,12.9,2.5l394.8-222.7a10.08,10.08,0,0,0,4.1-13.3c0-.1-.1-.1-.1-.2A10.22,10.22,0,0,0,1096.49,7277.18Z"/><path class="cls-6" d="M413.59,7686l69.8-39.4a10.28,10.28,0,1,0-10.1-17.9l-69.8,39.4a10.28,10.28,0,0,0,10.1,17.9Z"/><circle class="cls-6" cx="2805.74" cy="5385.58" r="33.1" transform="translate(-2209.32 1961.29) rotate(-28.16)"/><path class="cls-6" d="M4100.69,5370.58,3691,5601.68a10.51,10.51,0,0,0-3,15.8l.1.2a10.61,10.61,0,0,0,13.4,2.6l409.6-231a10.53,10.53,0,0,0,4.3-13.8c0-.1-.1-.1-.1-.2A10.39,10.39,0,0,0,4100.69,5370.58Z"/><path class="cls-5" d="M673.19,6683.38c-2.8-4.9-10.7-5-12.9-3.7l-321,181c-2.2,1.3-6.8,8.5-4.1,13.4s11.9,5.7,14.2,4.5l321-181C672.59,6696.28,675.89,6688.28,673.19,6683.38Z"/><path class="cls-6" d="M2880.29,7813.18l-111.2,62.7c-4.8,2.7-7.1,8.8-4.7,13.8a10.31,10.31,0,0,0,14.3,4.4l111.7-63a10.16,10.16,0,0,0,2.7-15.5c0-.1-.1-.1-.1-.2A10.12,10.12,0,0,0,2880.29,7813.18Z"/><path class="cls-6" d="M3317.79,7566.38,2923,7789.08a10.08,10.08,0,0,0-2.9,15.2l.1.2a10.18,10.18,0,0,0,12.9,2.5l394.8-222.7a10.08,10.08,0,0,0,4.1-13.3c0-.1-.1-.1-.1-.2A10,10,0,0,0,3317.79,7566.38Z"/><path class="cls-6" d="M2635,7975.08l69.8-39.4a10.28,10.28,0,1,0-10.1-17.9l-69.8,39.4a10.32,10.32,0,0,0-3.9,14A10.21,10.21,0,0,0,2635,7975.08Z"/><path class="cls-5" d="M3078.49,7260.48c-2.8-4.9-10.7-5-12.9-3.7l-321,181c-2.2,1.3-6.8,8.5-4.1,13.4s11.9,5.7,14.2,4.5l321-181C3078,7273.38,3081.29,7265.38,3078.49,7260.48Z"/><path class="cls-4" d="M1922.89,7679.18l109.1-66.3c4.8-2.9,6.9-9,4.2-13.9a10.25,10.25,0,0,0-14.4-3.9l-109.6,66.6a10.14,10.14,0,0,0-2.2,15.6c0,.1.1.1.1.2A10.17,10.17,0,0,0,1922.89,7679.18Z"/><path class="cls-4" d="M1493.49,7940l387.5-235.3a10.13,10.13,0,0,0,2.4-15.3l-.1-.2a10.28,10.28,0,0,0-13-2.1l-387.4,235.3a10.24,10.24,0,0,0-3.7,13.5c0,.1.1.1.1.2A10,10,0,0,0,1493.49,7940Z"/><path class="cls-4" d="M2162.79,7509.48l-68.5,41.6a10.27,10.27,0,0,0,10.6,17.6l68.5-41.6a10.27,10.27,0,1,0-10.6-17.6Z"/></g><g id="Layer_4-4" data-name="Layer 4"><path class="cls-4" d="M6658.54,673.6a7.64,7.64,0,0,0-9.4-1.7l-81.9,46.2a7.77,7.77,0,0,0-3.4,10.2,7.48,7.48,0,0,0,10.5,3.2l82.3-46.4a7.48,7.48,0,0,0,2-11.4A.1.1,0,0,0,6658.54,673.6Z"/><path class="cls-4" d="M7035.84,462.7a.1.1,0,0,0-.1-.1,7.4,7.4,0,0,0-10.4-3.2l-290.8,164a7.5,7.5,0,0,0-2.2,11.2l.1.1a7.41,7.41,0,0,0,9.5,1.8l290.7-164A7.41,7.41,0,0,0,7035.84,462.7Z"/><path class="cls-5" d="M8939.24,1084.4c-3.5-6.2-13.4-6.3-16.2-4.7l-402.2,226.8c-2.8,1.6-8.6,10.6-5.1,16.8s14.9,7.2,17.7,5.6l402.2-226.8C8938.54,1100.6,8942.74,1090.6,8939.24,1084.4Z"/><path class="cls-6" d="M9701.54,2527.7l706.7-398.6a10.28,10.28,0,1,0-10.1-17.9l-706.71,398.6a10.31,10.31,0,0,0-3.89,14A10.21,10.21,0,0,0,9701.54,2527.7Z"/><path class="cls-6" d="M9557.84,2608.8l69.8-39.4a10.28,10.28,0,1,0-10.1-17.9l-69.8,39.4a10.28,10.28,0,0,0,10.1,17.9Z"/><path class="cls-4" d="M10079,1910.9l-12.21-6.2a47.88,47.88,0,0,1-20.6-20.2l-8.4-15.8a7.73,7.73,0,0,0-13.6,0l-7.6,14.4a48.07,48.07,0,0,1-19.8,19.9l-14.79,8a7.72,7.72,0,0,0,.29,13.7l13.3,6.4a48.21,48.21,0,0,1,22.3,22.3l6.2,12.7a7.65,7.65,0,0,0,13.8,0l6.6-13.6a48.26,48.26,0,0,1,23.2-22.7l11.1-5.1A7.67,7.67,0,0,0,10079,1910.9Z"/><path class="cls-4" d="M8407.14,291.6l-7.8-4a31.52,31.52,0,0,1-13.2-12.9l-5.4-10.1a4.92,4.92,0,0,0-8.7,0l-4.9,9.2a30.26,30.26,0,0,1-12.6,12.7l-9.5,5.1a4.89,4.89,0,0,0,.2,8.7l8.5,4.1a30.76,30.76,0,0,1,14.3,14.2l3.9,8.1a4.88,4.88,0,0,0,8.8,0l4.2-8.7a30.66,30.66,0,0,1,14.8-14.5l7.1-3.3A4.67,4.67,0,0,0,8407.14,291.6Z"/><path class="cls-7" d="M5616.34,1130l-8.8-4.5a34.53,34.53,0,0,1-14.8-14.5l-6-11.3a5.48,5.48,0,0,0-9.7,0l-5.5,10.4a34.34,34.34,0,0,1-14.2,14.3l-10.6,5.7a5.5,5.5,0,0,0,.2,9.8l9.5,4.6a34.48,34.48,0,0,1,16,16l4.4,9.1a5.52,5.52,0,0,0,9.9,0l4.7-9.8a35,35,0,0,1,16.6-16.3l8-3.7A5.39,5.39,0,0,0,5616.34,1130Z"/><path class="cls-7" d="M9515.34,877l-12.2-6.2a47.83,47.83,0,0,1-20.6-20.2l-8.4-15.8a7.65,7.65,0,0,0-13.5,0l-7.6,14.4a48.39,48.39,0,0,1-19.71,19.9l-14.79,8a7.72,7.72,0,0,0,.29,13.7l13.3,6.4a48.21,48.21,0,0,1,22.3,22.3l6.2,12.7a7.65,7.65,0,0,0,13.8,0l6.6-13.6a47.84,47.84,0,0,1,23.1-22.6l11.1-5.1A7.82,7.82,0,0,0,9515.34,877Z"/><circle class="cls-6" cx="9601.77" cy="1545.6" r="27.8" transform="translate(1719.39 7242.17) rotate(-45)"/><circle class="cls-5" cx="6076.13" cy="911.12" r="57.5" transform="translate(3809.52 6621.81) rotate(-76.88)"/><path class="cls-8" d="M9469.64,298a76,76,0,1,1-76,76,76.09,76.09,0,0,1,76-76m0-16.7a92.65,92.65,0,1,0,92.6,92.7,92.6,92.6,0,0,0-92.6-92.7Z"/><circle class="cls-8" cx="6528.54" cy="1081.5" r="22.3"/><circle class="cls-8" cx="8323.59" cy="911.08" r="22.3" transform="translate(1793.69 6152.51) rotate(-45)"/><path class="cls-5" d="M7749.44,872.4a11.2,11.2,0,1,1-11.2-11.2A11.18,11.18,0,0,1,7749.44,872.4Z"/><circle class="cls-6" cx="10119.54" cy="681.7" r="88.9"/><circle class="cls-9" cx="10283.69" cy="152.57" r="22.7" transform="translate(7771.93 10125.96) rotate(-76.71)"/><circle class="cls-4" cx="5896.75" cy="1805.68" r="27.1"/><path class="cls-6" d="M9594.24,1859.7l706.7-398.6a10.28,10.28,0,1,0-10.1-17.9l-706.7,398.6a10.31,10.31,0,0,0-3.9,14A10.18,10.18,0,0,0,9594.24,1859.7Z"/><path class="cls-6" d="M9450.54,1940.8l69.79-39.4a10.28,10.28,0,1,0-10.1-17.9l-69.8,39.4a10.28,10.28,0,0,0,10.11,17.9Z"/><path class="cls-6" d="M5698.44,2290.6l-111.2,62.7c-4.8,2.7-7.1,8.8-4.7,13.8a10.31,10.31,0,0,0,14.3,4.4l111.7-63a10.16,10.16,0,0,0,2.7-15.5c0-.1-.1-.1-.1-.2A10.38,10.38,0,0,0,5698.44,2290.6Z"/><path class="cls-6" d="M6136,2043.8l-394.8,222.7a10.08,10.08,0,0,0-2.9,15.2l.1.2a10.18,10.18,0,0,0,12.9,2.5l394.8-222.7a10.08,10.08,0,0,0,4.1-13.3c0-.1-.1-.1-.1-.2A10.22,10.22,0,0,0,6136,2043.8Z"/><path class="cls-6" d="M5453.14,2452.6l69.8-39.4a10.28,10.28,0,1,0-10.1-17.9l-69.8,39.4a10.28,10.28,0,0,0,10.1,17.9Z"/><circle class="cls-6" cx="7845.29" cy="152.19" r="33.1" transform="translate(856.57 3720.04) rotate(-28.16)"/><path class="cls-6" d="M9140.24,137.2l-409.7,231.1a10.5,10.5,0,0,0-3,15.8l.1.2a10.61,10.61,0,0,0,13.4,2.6l409.6-231a10.53,10.53,0,0,0,4.3-13.8c0-.1-.1-.1-.1-.2A10.39,10.39,0,0,0,9140.24,137.2Z"/><path class="cls-5" d="M5712.74,1450c-2.8-4.9-10.7-5-12.9-3.7l-321,181c-2.2,1.3-6.8,8.5-4.1,13.4s11.9,5.7,14.2,4.5l321-181C5712.14,1462.9,5715.44,1454.9,5712.74,1450Z"/><path class="cls-6" d="M7919.84,2579.8l-111.2,62.7c-4.8,2.7-7.1,8.8-4.7,13.8a10.31,10.31,0,0,0,14.3,4.4l111.7-63a10.16,10.16,0,0,0,2.7-15.5c0-.1-.1-.1-.1-.2A10.12,10.12,0,0,0,7919.84,2579.8Z"/><path class="cls-6" d="M8357.34,2333l-394.8,222.7a10.08,10.08,0,0,0-2.9,15.2l.1.2a10.18,10.18,0,0,0,12.9,2.5l394.8-222.7a10.08,10.08,0,0,0,4.1-13.3c0-.1-.1-.1-.1-.2A10,10,0,0,0,8357.34,2333Z"/><path class="cls-6" d="M7674.54,2741.7l69.8-39.4a10.28,10.28,0,0,0-10.11-17.9l-69.8,39.4a10.31,10.31,0,0,0-3.89,14A10.21,10.21,0,0,0,7674.54,2741.7Z"/><path class="cls-5" d="M8118,2027.1c-2.81-4.9-10.7-5-12.9-3.7l-321,181c-2.2,1.3-6.8,8.5-4.1,13.4s11.89,5.7,14.19,4.5l321-181C8117.54,2040,8120.84,2032,8118,2027.1Z"/><path class="cls-4" d="M6962.44,2445.8l109.1-66.3c4.8-2.9,6.9-9,4.2-13.9a10.25,10.25,0,0,0-14.4-3.9l-109.6,66.6a10.14,10.14,0,0,0-2.2,15.6c0,.1.1.1.1.2A10.17,10.17,0,0,0,6962.44,2445.8Z"/><path class="cls-4" d="M6533,2706.6l387.5-235.3a10.13,10.13,0,0,0,2.4-15.3l-.1-.2a10.28,10.28,0,0,0-13-2.1L6522.44,2689a10.24,10.24,0,0,0-3.7,13.5c0,.1.1.1.1.2A10,10,0,0,0,6533,2706.6Z"/><path class="cls-4" d="M7202.34,2276.1l-68.5,41.6a10.27,10.27,0,0,0,10.6,17.6l68.5-41.6a10.27,10.27,0,1,0-10.6-17.6Z"/></g><g id="Layer_4-5" data-name="Layer 4"><path class="cls-4" d="M6768.35,3297.55a7.64,7.64,0,0,0-9.4-1.7l-81.9,46.2a7.77,7.77,0,0,0-3.4,10.2,7.48,7.48,0,0,0,10.5,3.2l82.3-46.4a7.48,7.48,0,0,0,2-11.4A.1.1,0,0,0,6768.35,3297.55Z"/><path class="cls-4" d="M7145.65,3086.65a.1.1,0,0,0-.1-.1,7.4,7.4,0,0,0-10.4-3.2l-290.8,164a7.5,7.5,0,0,0-2.2,11.2l.1.1a7.41,7.41,0,0,0,9.5,1.8l290.7-164A7.41,7.41,0,0,0,7145.65,3086.65Z"/><path class="cls-5" d="M9049.05,3708.35c-3.5-6.2-13.4-6.3-16.2-4.7l-402.2,226.8c-2.8,1.6-8.6,10.6-5.1,16.8s14.9,7.2,17.7,5.6l402.2-226.8C9048.35,3724.55,9052.55,3714.55,9049.05,3708.35Z"/><path class="cls-6" d="M9811.35,5151.65l706.7-398.6a10.28,10.28,0,1,0-10.1-17.9l-706.7,398.6a10.32,10.32,0,0,0-3.9,14A10.21,10.21,0,0,0,9811.35,5151.65Z"/><path class="cls-6" d="M9667.65,5232.75l69.8-39.4a10.28,10.28,0,1,0-10.1-17.9l-69.8,39.4a10.28,10.28,0,0,0,10.1,17.9Z"/><path class="cls-4" d="M10188.85,4534.85l-12.2-6.2a47.83,47.83,0,0,1-20.6-20.2l-8.4-15.8a7.73,7.73,0,0,0-13.6,0l-7.6,14.4a48.07,48.07,0,0,1-19.8,19.9l-14.8,8a7.72,7.72,0,0,0,.3,13.7l13.3,6.4a48.21,48.21,0,0,1,22.3,22.3l6.2,12.7a7.65,7.65,0,0,0,13.8,0l6.6-13.6a48.26,48.26,0,0,1,23.2-22.7l11.1-5.1A7.68,7.68,0,0,0,10188.85,4534.85Z"/><path class="cls-4" d="M8517,2915.55l-7.8-4a31.57,31.57,0,0,1-13.2-12.9l-5.4-10.1a4.92,4.92,0,0,0-8.7,0l-4.9,9.2a30.26,30.26,0,0,1-12.6,12.7l-9.5,5.1a4.89,4.89,0,0,0,.2,8.7l8.5,4.1a30.76,30.76,0,0,1,14.3,14.2l3.9,8.1a4.88,4.88,0,0,0,8.8,0l4.2-8.7a30.66,30.66,0,0,1,14.8-14.5l7.1-3.3A4.67,4.67,0,0,0,8517,2915.55Z"/><path class="cls-7" d="M5726.15,3754l-8.8-4.5a34.53,34.53,0,0,1-14.8-14.5l-6-11.3a5.48,5.48,0,0,0-9.7,0l-5.5,10.4a34.34,34.34,0,0,1-14.2,14.3l-10.6,5.7a5.5,5.5,0,0,0,.2,9.8l9.5,4.6a34.48,34.48,0,0,1,16,16l4.4,9.1a5.52,5.52,0,0,0,9.9,0l4.7-9.8a35,35,0,0,1,16.6-16.3l8-3.7A5.39,5.39,0,0,0,5726.15,3754Z"/><path class="cls-7" d="M9625.15,3501l-12.2-6.2a47.83,47.83,0,0,1-20.6-20.2l-8.4-15.8a7.65,7.65,0,0,0-13.5,0l-7.6,14.4a48.42,48.42,0,0,1-19.7,19.9l-14.8,8a7.72,7.72,0,0,0,.3,13.7l13.3,6.4a48.21,48.21,0,0,1,22.3,22.3l6.2,12.7a7.65,7.65,0,0,0,13.8,0l6.6-13.6A47.84,47.84,0,0,1,9614,3520l11.1-5.1A7.82,7.82,0,0,0,9625.15,3501Z"/><circle class="cls-6" cx="9711.58" cy="4169.56" r="27.8" transform="translate(-103.87 8088.36) rotate(-45)"/><circle class="cls-5" cx="6185.94" cy="3535.08" r="57.5" transform="translate(1338.95 8757.08) rotate(-76.88)"/><path class="cls-8" d="M9579.45,2922a76,76,0,1,1-76,76,76.09,76.09,0,0,1,76-76m0-16.7a92.65,92.65,0,1,0,92.6,92.7,92.61,92.61,0,0,0-92.6-92.7Z"/><circle class="cls-8" cx="6638.35" cy="3705.45" r="22.3"/><circle class="cls-8" cx="8433.4" cy="3535.03" r="22.3" transform="translate(-29.56 6998.7) rotate(-45)"/><path class="cls-5" d="M7859.25,3496.35a11.2,11.2,0,1,1-11.2-11.2A11.18,11.18,0,0,1,7859.25,3496.35Z"/><circle class="cls-6" cx="10229.35" cy="3305.65" r="88.9"/><circle class="cls-9" cx="10393.5" cy="2776.52" r="22.7" transform="translate(5302.78 12253.78) rotate(-76.71)"/><circle class="cls-4" cx="6006.56" cy="4429.63" r="27.1"/><path class="cls-6" d="M9704.05,4483.65l706.7-398.6a10.28,10.28,0,1,0-10.1-17.9L9694,4465.75a10.32,10.32,0,0,0-3.9,14A10.18,10.18,0,0,0,9704.05,4483.65Z"/><path class="cls-6" d="M9560.35,4564.75l69.8-39.4a10.28,10.28,0,1,0-10.1-17.9l-69.8,39.4a10.28,10.28,0,0,0,10.1,17.9Z"/><path class="cls-6" d="M5808.25,4914.55l-111.2,62.7c-4.8,2.7-7.1,8.8-4.7,13.8a10.31,10.31,0,0,0,14.3,4.4l111.7-63a10.16,10.16,0,0,0,2.7-15.5c0-.1-.1-.1-.1-.2A10.38,10.38,0,0,0,5808.25,4914.55Z"/><path class="cls-6" d="M6245.85,4667.75l-394.8,222.7a10.08,10.08,0,0,0-2.9,15.2l.1.2a10.18,10.18,0,0,0,12.9,2.5l394.8-222.7a10.08,10.08,0,0,0,4.1-13.3c0-.1-.1-.1-.1-.2A10.22,10.22,0,0,0,6245.85,4667.75Z"/><path class="cls-6" d="M5563,5076.55l69.8-39.4a10.28,10.28,0,1,0-10.1-17.9l-69.8,39.4a10.28,10.28,0,0,0,10.1,17.9Z"/><circle class="cls-6" cx="7955.1" cy="2776.15" r="33.1" transform="translate(-368.62 4082.37) rotate(-28.16)"/><path class="cls-6" d="M9250.05,2761.15l-409.7,231.1a10.51,10.51,0,0,0-3,15.8l.1.2a10.61,10.61,0,0,0,13.4,2.6l409.6-231a10.53,10.53,0,0,0,4.3-13.8c0-.1-.1-.1-.1-.2A10.39,10.39,0,0,0,9250.05,2761.15Z"/><path class="cls-5" d="M5822.55,4074c-2.8-4.9-10.7-5-12.9-3.7l-321,181c-2.2,1.3-6.8,8.5-4.1,13.4s11.9,5.7,14.2,4.5l321-181C5822,4086.85,5825.25,4078.85,5822.55,4074Z"/><path class="cls-6" d="M8029.65,5203.75l-111.2,62.7c-4.8,2.7-7.1,8.8-4.7,13.8a10.31,10.31,0,0,0,14.3,4.4l111.7-63a10.16,10.16,0,0,0,2.7-15.5c0-.1-.1-.1-.1-.2A10.12,10.12,0,0,0,8029.65,5203.75Z"/><path class="cls-6" d="M8467.15,4957l-394.8,222.7a10.08,10.08,0,0,0-2.9,15.2l.1.2a10.18,10.18,0,0,0,12.9,2.5l394.8-222.7a10.08,10.08,0,0,0,4.1-13.3c0-.1-.1-.1-.1-.2A10,10,0,0,0,8467.15,4957Z"/><path class="cls-6" d="M7784.35,5365.65l69.8-39.4a10.28,10.28,0,1,0-10.1-17.9l-69.8,39.4a10.32,10.32,0,0,0-3.9,14A10.21,10.21,0,0,0,7784.35,5365.65Z"/><path class="cls-5" d="M8227.85,4651.05c-2.8-4.9-10.7-5-12.9-3.7l-321,181c-2.2,1.3-6.8,8.5-4.1,13.4s11.9,5.7,14.2,4.5l321-181C8227.35,4664,8230.65,4656,8227.85,4651.05Z"/><path class="cls-4" d="M7072.25,5069.75l109.1-66.3c4.8-2.9,6.9-9,4.2-13.9a10.25,10.25,0,0,0-14.4-3.9l-109.6,66.6a10.14,10.14,0,0,0-2.2,15.6c0,.1.1.1.1.2A10.17,10.17,0,0,0,7072.25,5069.75Z"/><path class="cls-4" d="M6642.85,5330.55l387.5-235.3a10.13,10.13,0,0,0,2.4-15.3l-.1-.2a10.28,10.28,0,0,0-13-2.1L6632.25,5313a10.24,10.24,0,0,0-3.7,13.5c0,.1.1.1.1.2A10,10,0,0,0,6642.85,5330.55Z"/><path class="cls-4" d="M7312.15,4900.05l-68.5,41.6a10.27,10.27,0,1,0,10.6,17.6l68.5-41.6a10.27,10.27,0,0,0-10.6-17.6Z"/></g><g id="Layer_4-6" data-name="Layer 4"><path class="cls-4" d="M6878.16,5921.51a7.64,7.64,0,0,0-9.4-1.7l-81.9,46.2a7.77,7.77,0,0,0-3.4,10.2,7.48,7.48,0,0,0,10.5,3.2l82.3-46.4a7.48,7.48,0,0,0,2-11.4A.1.1,0,0,0,6878.16,5921.51Z"/><path class="cls-4" d="M7255.46,5710.61a.1.1,0,0,0-.1-.1,7.4,7.4,0,0,0-10.4-3.2l-290.8,164a7.5,7.5,0,0,0-2.2,11.2l.1.1a7.41,7.41,0,0,0,9.5,1.8l290.7-164A7.41,7.41,0,0,0,7255.46,5710.61Z"/><path class="cls-5" d="M9158.86,6332.31c-3.5-6.2-13.4-6.3-16.2-4.7l-402.2,226.8c-2.8,1.6-8.6,10.6-5.1,16.8s14.9,7.2,17.7,5.6l402.2-226.8C9158.16,6348.51,9162.36,6338.51,9158.86,6332.31Z"/><path class="cls-6" d="M9921.16,7775.61l706.7-398.6a10.28,10.28,0,1,0-10.1-17.9l-706.7,398.6a10.32,10.32,0,0,0-3.9,14A10.21,10.21,0,0,0,9921.16,7775.61Z"/><path class="cls-6" d="M9777.46,7856.71l69.8-39.4a10.28,10.28,0,1,0-10.1-17.9l-69.8,39.4a10.28,10.28,0,0,0,10.1,17.9Z"/><path class="cls-4" d="M10298.66,7158.81l-12.2-6.2a47.83,47.83,0,0,1-20.6-20.2l-8.4-15.8a7.73,7.73,0,0,0-13.6,0l-7.6,14.4a48.07,48.07,0,0,1-19.8,19.9l-14.8,8a7.72,7.72,0,0,0,.3,13.7l13.3,6.4a48.21,48.21,0,0,1,22.3,22.3l6.2,12.7a7.65,7.65,0,0,0,13.8,0l6.6-13.6a48.26,48.26,0,0,1,23.2-22.7l11.1-5.1A7.68,7.68,0,0,0,10298.66,7158.81Z"/><path class="cls-4" d="M8626.76,5539.51l-7.8-4a31.57,31.57,0,0,1-13.2-12.9l-5.4-10.1a4.92,4.92,0,0,0-8.7,0l-4.9,9.2a30.26,30.26,0,0,1-12.6,12.7l-9.5,5.1a4.89,4.89,0,0,0,.2,8.7l8.5,4.1a30.76,30.76,0,0,1,14.3,14.2l3.9,8.1a4.88,4.88,0,0,0,8.8,0l4.2-8.7a30.66,30.66,0,0,1,14.8-14.5l7.1-3.3A4.67,4.67,0,0,0,8626.76,5539.51Z"/><path class="cls-7" d="M5836,6377.91l-8.8-4.5a34.53,34.53,0,0,1-14.8-14.5l-6-11.3a5.48,5.48,0,0,0-9.7,0l-5.5,10.4a34.34,34.34,0,0,1-14.2,14.3l-10.6,5.7a5.5,5.5,0,0,0,.2,9.8l9.5,4.6a34.48,34.48,0,0,1,16,16l4.4,9.1a5.52,5.52,0,0,0,9.9,0l4.7-9.8a35,35,0,0,1,16.6-16.3l8-3.7A5.39,5.39,0,0,0,5836,6377.91Z"/><path class="cls-7" d="M9735,6124.91l-12.2-6.2a47.83,47.83,0,0,1-20.6-20.2l-8.4-15.8a7.65,7.65,0,0,0-13.5,0l-7.6,14.4A48.42,48.42,0,0,1,9653,6117l-14.8,8a7.72,7.72,0,0,0,.3,13.7l13.3,6.4a48.21,48.21,0,0,1,22.3,22.3l6.2,12.7a7.65,7.65,0,0,0,13.8,0l6.6-13.6a47.84,47.84,0,0,1,23.1-22.6l11.1-5.1A7.82,7.82,0,0,0,9735,6124.91Z"/><circle class="cls-6" cx="9821.39" cy="6793.51" r="27.8" transform="translate(-1927.12 8934.54) rotate(-45)"/><circle class="cls-5" cx="6295.75" cy="6159.03" r="57.5" transform="translate(-1131.63 10892.34) rotate(-76.88)"/><path class="cls-8" d="M9689.26,5545.91a76,76,0,1,1-76,76,76.09,76.09,0,0,1,76-76m0-16.7a92.65,92.65,0,1,0,92.6,92.7,92.61,92.61,0,0,0-92.6-92.7Z"/><circle class="cls-8" cx="6748.16" cy="6329.41" r="22.3"/><circle class="cls-8" cx="8543.21" cy="6158.99" r="22.3" transform="translate(-1852.82 7844.89) rotate(-45)"/><path class="cls-5" d="M7969.06,6120.31a11.2,11.2,0,1,1-11.2-11.2A11.18,11.18,0,0,1,7969.06,6120.31Z"/><circle class="cls-6" cx="10339.16" cy="5929.61" r="88.9"/><circle class="cls-9" cx="10503.31" cy="5400.48" r="22.7" transform="translate(2833.63 14381.6) rotate(-76.71)"/><circle class="cls-4" cx="6116.37" cy="7053.59" r="27.1"/><path class="cls-6" d="M9813.86,7107.61l706.7-398.6a10.28,10.28,0,1,0-10.1-17.9l-706.7,398.6a10.32,10.32,0,0,0-3.9,14A10.18,10.18,0,0,0,9813.86,7107.61Z"/><path class="cls-6" d="M9670.16,7188.71l69.8-39.4a10.28,10.28,0,0,0-10.1-17.9l-69.8,39.4a10.28,10.28,0,0,0,10.1,17.9Z"/><path class="cls-6" d="M5918.06,7538.51l-111.2,62.7c-4.8,2.7-7.1,8.8-4.7,13.8a10.31,10.31,0,0,0,14.3,4.4l111.7-63a10.16,10.16,0,0,0,2.7-15.5c0-.1-.1-.1-.1-.2A10.38,10.38,0,0,0,5918.06,7538.51Z"/><path class="cls-6" d="M6355.66,7291.71l-394.8,222.7a10.08,10.08,0,0,0-2.9,15.2l.1.2a10.18,10.18,0,0,0,12.9,2.5l394.8-222.7a10.08,10.08,0,0,0,4.1-13.3c0-.1-.1-.1-.1-.2A10.22,10.22,0,0,0,6355.66,7291.71Z"/><path class="cls-6" d="M5672.76,7700.51l69.8-39.4a10.28,10.28,0,1,0-10.1-17.9l-69.8,39.4a10.28,10.28,0,0,0,10.1,17.9Z"/><circle class="cls-6" cx="8064.91" cy="5400.1" r="33.1" transform="translate(-1593.82 4444.7) rotate(-28.16)"/><path class="cls-6" d="M9359.86,5385.11l-409.7,231.1a10.51,10.51,0,0,0-3,15.8l.1.2a10.61,10.61,0,0,0,13.4,2.6l409.6-231a10.53,10.53,0,0,0,4.3-13.8c0-.1-.1-.1-.1-.2A10.39,10.39,0,0,0,9359.86,5385.11Z"/><path class="cls-5" d="M5932.36,6697.91c-2.8-4.9-10.7-5-12.9-3.7l-321,181c-2.2,1.3-6.8,8.5-4.1,13.4s11.9,5.7,14.2,4.5l321-181C5931.76,6710.81,5935.06,6702.81,5932.36,6697.91Z"/><path class="cls-6" d="M8139.46,7827.71l-111.2,62.7c-4.8,2.7-7.1,8.8-4.7,13.8a10.31,10.31,0,0,0,14.3,4.4l111.7-63a10.16,10.16,0,0,0,2.7-15.5c0-.1-.1-.1-.1-.2A10.12,10.12,0,0,0,8139.46,7827.71Z"/><path class="cls-6" d="M8577,7580.91l-394.8,222.7a10.08,10.08,0,0,0-2.9,15.2l.1.2a10.18,10.18,0,0,0,12.9,2.5l394.8-222.7a10.08,10.08,0,0,0,4.1-13.3c0-.1-.1-.1-.1-.2A10,10,0,0,0,8577,7580.91Z"/><path class="cls-6" d="M7894.16,7989.61l69.8-39.4a10.28,10.28,0,1,0-10.1-17.9l-69.8,39.4a10.32,10.32,0,0,0-3.9,14A10.21,10.21,0,0,0,7894.16,7989.61Z"/><path class="cls-5" d="M8337.66,7275c-2.8-4.9-10.7-5-12.9-3.7l-321,181c-2.2,1.3-6.8,8.5-4.1,13.4s11.9,5.7,14.2,4.5l321-181C8337.16,7287.91,8340.46,7279.91,8337.66,7275Z"/><path class="cls-4" d="M7182.06,7693.71l109.1-66.3c4.8-2.9,6.9-9,4.2-13.9a10.25,10.25,0,0,0-14.4-3.9l-109.6,66.6a10.14,10.14,0,0,0-2.2,15.6c0,.1.1.1.1.2A10.17,10.17,0,0,0,7182.06,7693.71Z"/><path class="cls-4" d="M6752.66,7954.51l387.5-235.3a10.13,10.13,0,0,0,2.4-15.3l-.1-.2a10.28,10.28,0,0,0-13-2.1l-387.4,235.3a10.24,10.24,0,0,0-3.7,13.5c0,.1.1.1.1.2A10,10,0,0,0,6752.66,7954.51Z"/><path class="cls-4" d="M7422,7524l-68.5,41.6a10.27,10.27,0,0,0,10.6,17.6l68.5-41.6A10.27,10.27,0,1,0,7422,7524Z"/></g><g id="Layer_27" data-name="Layer 27"><g class="cls-10"><g class="cls-11"><rect class="cls-12" x="2104.4" y="3826.9" width="5333" height="2174.9"/></g></g></g></svg>