<?xml version="1.0" encoding="utf-8"?>
<!-- Generator: Adobe Illustrator 24.3.0, SVG Export Plug-In . SVG Version: 6.00 Build 0)  -->
<svg version="1.1" id="Layer_1" xmlns="http://www.w3.org/2000/svg" xmlns:xlink="http://www.w3.org/1999/xlink" x="0px" y="0px"
	 viewBox="0 0 5333 3000" style="enable-background:new 0 0 5333 3000;" xml:space="preserve">
<style type="text/css">
	.st0{fill:#171844;}
	.st1{opacity:0.54;}
	.st2{clip-path:url(#SVGID_3_);}
	.st3{clip-path:url(#SVGID_4_);fill:url(#XMLID_5_);}
	.st4{fill:url(#XMLID_6_);}
	.st5{fill:none;}
	.st6{fill:#C23E27;}
	.st7{fill:#E1EBF7;}
	.st8{fill:#0374B6;}
	.st9{fill:#F3F3F3;}
	.st10{fill:#558AC8;}
	.st11{fill:#ECF1F9;}
</style>
<g id="Layer_33">
	<rect id="XMLID_1_" y="0.1" class="st0" width="5333" height="2999.8"/>
</g>
<g id="Layer_27">
	<g id="XMLID_56_" class="st1">
		<g id="XMLID_367_">
			<g>
				<defs>
					<polygon id="SVGID_1_" points="1,1 2,1 1,2 					"/>
				</defs>
				<defs>
					<polygon id="SVGID_2_" points="-1,-1 -2,-1 -1,-2 					"/>
				</defs>
				<clipPath id="SVGID_3_">
					<use xlink:href="#SVGID_1_"  style="overflow:visible;"/>
				</clipPath>
				<clipPath id="SVGID_4_" class="st2">
					<use xlink:href="#SVGID_2_"  style="overflow:visible;"/>
				</clipPath>
				
					<linearGradient id="XMLID_5_" gradientUnits="userSpaceOnUse" x1="2666.5" y1="0.1001" x2="2666.5" y2="2175" gradientTransform="matrix(1 0 0 -1 0 3000)">
					<stop  offset="0" style="stop-color:#FFFFFF"/>
					<stop  offset="6.478857e-02" style="stop-color:#F9F9F9"/>
					<stop  offset="0.1515" style="stop-color:#E8E8E8"/>
					<stop  offset="0.2506" style="stop-color:#CCCCCC"/>
					<stop  offset="0.359" style="stop-color:#A5A5A5"/>
					<stop  offset="0.4749" style="stop-color:#737373"/>
					<stop  offset="0.595" style="stop-color:#373737"/>
					<stop  offset="0.6935" style="stop-color:#000000"/>
				</linearGradient>
				<rect id="XMLID_368_" y="825" class="st3" width="5333" height="2174.9"/>
			</g>
		</g>
		
			<linearGradient id="XMLID_6_" gradientUnits="userSpaceOnUse" x1="2666.5" y1="0.1001" x2="2666.5" y2="2175" gradientTransform="matrix(1 0 0 -1 0 3000)">
			<stop  offset="0" style="stop-color:#171843"/>
			<stop  offset="0.6935" style="stop-color:#171843"/>
		</linearGradient>
		<rect id="XMLID_99_" y="825" class="st4" width="5333" height="2174.9"/>
	</g>
</g>
<g id="Layer_4">
	<line id="XMLID_213_" class="st5" x1="1807.9" y1="1893.3" x2="1807.9" y2="1893.3"/>
	<g id="XMLID_226_">
		<g>
			<path id="XMLID_100_" class="st6" d="M1425.9,753.3c-2.3-2.7-6.3-3.4-9.4-1.7l-81.9,46.2c-3.6,2-5.3,6.5-3.4,10.2
				c1.9,3.9,6.7,5.4,10.5,3.2l82.3-46.4C1428.1,762.5,1429.1,757,1425.9,753.3C1426,753.3,1425.9,753.3,1425.9,753.3z"/>
			<path id="XMLID_96_" class="st6" d="M1803.2,542.4C1803.2,542.4,1803.2,542.3,1803.2,542.4c-2-4-6.8-5.5-10.5-3.3l-290.8,164
				c-4,2.3-5.1,7.6-2.2,11.2l0.1,0.1c2.3,2.9,6.3,3.6,9.5,1.8l290.7-164C1803.6,550.3,1804.9,546,1803.2,542.4z"/>
		</g>
	</g>
	<path id="XMLID_12_" class="st7" d="M3706.6,1164.1c-3.5-6.2-13.4-6.3-16.2-4.7l-402.2,226.8c-2.8,1.6-8.6,10.6-5.1,16.8
		s14.9,7.2,17.7,5.6l402.2-226.8C3705.9,1180.3,3710.1,1170.3,3706.6,1164.1z"/>
	<g id="XMLID_14_">
		<path id="XMLID_95_" class="st8" d="M4468.9,2607.4l706.7-398.6c4.9-2.8,6.7-9.1,3.9-14c-2.8-4.9-9.1-6.7-14-3.9l-706.7,398.6
			c-4.9,2.8-6.7,9.1-3.9,14C4457.7,2608.5,4463.9,2610.2,4468.9,2607.4z"/>
		<path id="XMLID_86_" class="st8" d="M4325.2,2688.5l69.8-39.4c4.9-2.8,6.7-9.1,3.9-14s-9.1-6.7-14-3.9l-69.8,39.4
			c-4.9,2.8-6.7,9.1-3.9,14S4320.2,2691.3,4325.2,2688.5z"/>
	</g>
	<path id="XMLID_101_" class="st6" d="M4846.4,1990.6l-12.2-6.2c-8.8-4.5-16-11.5-20.6-20.2l-8.4-15.8c-2.9-5.4-10.7-5.4-13.6,0
		l-7.6,14.4c-4.5,8.4-11.3,15.4-19.8,19.9l-14.8,8c-5.5,3-5.3,10.9,0.3,13.7l13.3,6.4c9.7,4.7,17.6,12.6,22.3,22.3l6.2,12.7
		c2.8,5.8,11,5.8,13.8,0l6.6-13.6c4.9-10,13-18,23.2-22.7l11.1-5.1C4852,2001.7,4852.1,1993.5,4846.4,1990.6z"/>
	<path id="XMLID_212_" class="st6" d="M3174.5,371.3l-7.8-4c-5.6-2.9-10.2-7.4-13.2-12.9l-5.4-10.1c-1.8-3.5-6.8-3.5-8.7,0l-4.9,9.2
		c-2.8,5.4-7.2,9.8-12.6,12.7l-9.5,5.1c-3.5,1.9-3.4,7,0.2,8.7l8.5,4.1c6.2,3,11.3,8,14.3,14.2l3.9,8.1c1.8,3.7,7,3.7,8.8,0l4.2-8.7
		c3.1-6.4,8.3-11.5,14.8-14.5l7.1-3.3C3178.1,378.4,3178.2,373.2,3174.5,371.3z"/>
	<path id="XMLID_102_" class="st9" d="M383.7,1209.7l-8.8-4.5c-6.3-3.2-11.5-8.3-14.8-14.5l-6-11.3c-2.1-3.9-7.7-3.9-9.7,0
		l-5.5,10.4c-3.2,6.1-8.1,11-14.2,14.3l-10.6,5.7c-4,2.1-3.8,7.8,0.2,9.8l9.5,4.6c7,3.4,12.6,9,16,16l4.4,9.1c2,4.1,7.9,4.1,9.9,0
		l4.7-9.8c3.5-7.2,9.4-12.9,16.6-16.3l8-3.7C387.7,1217.7,387.8,1211.8,383.7,1209.7z"/>
	<path id="XMLID_103_" class="st9" d="M4282.7,956.7l-12.2-6.2c-8.8-4.5-16-11.5-20.6-20.2l-8.4-15.8c-2.9-5.4-10.7-5.4-13.5,0
		l-7.6,14.4c-4.5,8.4-11.3,15.4-19.7,19.9l-14.8,8c-5.5,3-5.3,10.9,0.3,13.7l13.3,6.4c9.7,4.7,17.6,12.6,22.3,22.3l6.2,12.7
		c2.8,5.8,11,5.8,13.8,0l6.6-13.6c4.9-10,13-18,23.1-22.6l11.1-5.1C4288.2,967.8,4288.4,959.6,4282.7,956.7z"/>
	
		<ellipse id="XMLID_85_" transform="matrix(0.7071 -0.7071 0.7071 0.7071 130.4249 3565.4849)" class="st8" cx="4369.1" cy="1625.3" rx="27.8" ry="27.8"/>
	
		<ellipse id="XMLID_140_" transform="matrix(0.227 -0.9739 0.9739 0.227 -312.9358 1587.3864)" class="st7" cx="843.5" cy="990.8" rx="57.5" ry="57.5"/>
	<g id="XMLID_119_">
		<g id="XMLID_137_">
			<path id="XMLID_147_" class="st10" d="M4237,377.7c41.9,0,76,34.1,76,76s-34.1,76-76,76s-76-34.1-76-76
				C4161.1,411.8,4195.1,377.7,4237,377.7 M4237,361c-51.2,0-92.6,41.5-92.6,92.7s41.5,92.6,92.6,92.6c51.2,0,92.6-41.5,92.6-92.6
				C4329.7,402.5,4288.2,361,4237,361L4237,361z"/>
		</g>
	</g>
	<circle id="XMLID_144_" class="st10" cx="1295.9" cy="1161.2" r="22.3"/>
	
		<ellipse id="XMLID_120_" transform="matrix(0.7071 -0.7071 0.7071 0.7071 204.7288 2475.8254)" class="st10" cx="3090.9" cy="990.8" rx="22.3" ry="22.3"/>
	<path id="XMLID_122_" class="st7" d="M2516.8,952.1c0,6.2-5,11.2-11.2,11.2s-11.2-5-11.2-11.2s5-11.2,11.2-11.2
		C2511.8,940.9,2516.8,945.9,2516.8,952.1z"/>
	<circle id="XMLID_168_" class="st8" cx="4886.9" cy="761.4" r="88.9"/>
	
		<ellipse id="XMLID_126_" transform="matrix(0.2298 -0.9732 0.9732 0.2298 3664.2278 5094.7607)" class="st11" cx="5051.1" cy="232.3" rx="22.7" ry="22.7"/>
	<ellipse id="XMLID_169_" class="st6" cx="664.1" cy="1885.4" rx="27.1" ry="27.1"/>
	<g id="XMLID_204_">
		<path id="XMLID_207_" class="st8" d="M4361.6,1939.4l706.7-398.6c4.9-2.8,6.7-9.1,3.9-14c-2.8-4.9-9.1-6.7-14-3.9l-706.7,398.6
			c-4.9,2.8-6.7,9.1-3.9,14C4350.3,1940.5,4356.6,1942.2,4361.6,1939.4z"/>
		<path id="XMLID_209_" class="st8" d="M4217.9,2020.5l69.8-39.4c4.9-2.8,6.7-9.1,3.9-14c-2.8-4.9-9.1-6.7-14-3.9l-69.8,39.4
			c-4.9,2.8-6.7,9.1-3.9,14C4206.6,2021.5,4212.9,2023.3,4217.9,2020.5z"/>
	</g>
	<g id="XMLID_90_">
		<path id="XMLID_133_" class="st8" d="M465.8,2370.3L354.6,2433c-4.8,2.7-7.1,8.8-4.7,13.8c2.6,5.3,9.2,7.3,14.3,4.4l111.7-63
			c5.6-3.2,6.9-10.6,2.7-15.5c0-0.1-0.1-0.1-0.1-0.2C475.3,2368.9,470,2368,465.8,2370.3z"/>
		<path id="XMLID_117_" class="st8" d="M903.4,2123.5l-394.8,222.7c-5.5,3.1-6.9,10.4-2.9,15.2l0.1,0.2c3.1,3.9,8.6,4.9,12.9,2.5
			l394.8-222.7c4.7-2.6,6.5-8.5,4.1-13.3c0-0.1-0.1-0.1-0.1-0.2C915,2122.7,908.5,2120.7,903.4,2123.5z"/>
		<path id="XMLID_94_" class="st8" d="M220.5,2532.3l69.8-39.4c4.9-2.8,6.7-9.1,3.9-14c-2.8-4.9-9.1-6.7-14-3.9l-69.8,39.4
			c-4.9,2.8-6.7,9.1-3.9,14C209.3,2533.3,215.6,2535.1,220.5,2532.3z"/>
	</g>
	
		<ellipse id="XMLID_127_" transform="matrix(0.8817 -0.4719 0.4719 0.8817 199.746 1260.3008)" class="st8" cx="2612.7" cy="231.9" rx="33.1" ry="33.1"/>
	<path id="XMLID_106_" class="st8" d="M3907.6,216.9L3497.9,448c-5.7,3.2-7.1,10.7-3,15.8l0.1,0.2c3.2,4,8.9,5.1,13.4,2.6l409.6-231
		c4.9-2.7,6.7-8.8,4.3-13.8c0-0.1-0.1-0.1-0.1-0.2C3919.6,216,3912.9,213.9,3907.6,216.9z"/>
	<path id="XMLID_205_" class="st7" d="M480.1,1529.7c-2.8-4.9-10.7-5-12.9-3.7l-321,181c-2.2,1.3-6.8,8.5-4.1,13.4
		c2.8,4.9,11.9,5.7,14.2,4.5l321-181C479.5,1542.6,482.8,1534.6,480.1,1529.7z"/>
	<g id="XMLID_7_">
		<path id="XMLID_10_" class="st8" d="M2687.2,2659.5l-111.2,62.7c-4.8,2.7-7.1,8.8-4.7,13.8c2.6,5.3,9.2,7.3,14.3,4.4l111.7-63
			c5.6-3.2,6.9-10.6,2.7-15.5c0-0.1-0.1-0.1-0.1-0.2C2696.7,2658,2691.4,2657.1,2687.2,2659.5z"/>
		<path id="XMLID_9_" class="st8" d="M3124.7,2412.7l-394.8,222.7c-5.5,3.1-6.9,10.4-2.9,15.2l0.1,0.2c3.1,3.9,8.6,4.9,12.9,2.5
			l394.8-222.7c4.7-2.6,6.5-8.5,4.1-13.3c0-0.1-0.1-0.1-0.1-0.2C3136.4,2411.8,3129.8,2409.8,3124.7,2412.7z"/>
		<path id="XMLID_8_" class="st8" d="M2441.9,2821.4l69.8-39.4c4.9-2.8,6.7-9.1,3.9-14s-9.1-6.7-14-3.9l-69.8,39.4
			c-4.9,2.8-6.7,9.1-3.9,14C2430.7,2822.5,2436.9,2824.2,2441.9,2821.4z"/>
	</g>
	<path id="XMLID_3_" class="st7" d="M2885.4,2106.8c-2.8-4.9-10.7-5-12.9-3.7l-321,181c-2.2,1.3-6.8,8.5-4.1,13.4
		c2.8,4.9,11.9,5.7,14.2,4.5l321-181C2884.9,2119.7,2888.2,2111.7,2885.4,2106.8z"/>
	<g id="XMLID_15_">
		<path id="XMLID_19_" class="st6" d="M1729.8,2525.5l109.1-66.3c4.8-2.9,6.9-9,4.2-13.9c-2.8-5.2-9.4-7-14.4-3.9l-109.6,66.6
			c-5.5,3.3-6.6,10.8-2.2,15.6c0,0.1,0.1,0.1,0.1,0.2C1720.3,2527.3,1725.6,2528.1,1729.8,2525.5z"/>
		<path id="XMLID_18_" class="st6" d="M1300.4,2786.3l387.5-235.3c5.4-3.3,6.5-10.6,2.4-15.3l-0.1-0.2c-3.3-3.8-8.8-4.6-13-2.1
			l-387.4,235.3c-4.6,2.8-6.2,8.7-3.7,13.5c0,0.1,0.1,0.1,0.1,0.2C1288.8,2787.6,1295.4,2789.4,1300.4,2786.3z"/>
		<path id="XMLID_16_" class="st6" d="M1969.7,2355.8l-68.5,41.6c-4.9,2.9-6.4,9.3-3.5,14.1c2.9,4.9,9.3,6.4,14.1,3.5l68.5-41.6
			c4.9-2.9,6.4-9.3,3.5-14.1S1974.6,2352.8,1969.7,2355.8z"/>
	</g>
</g>
<g id="Layer_7">
</g>
<g id="Layer_2_1_">
</g>
</svg>
